<?xml version="1.0" encoding="utf-8" standalone="no"?>
<!DOCTYPE svg PUBLIC "-//W3C//DTD SVG 1.1//EN"
  "http://www.w3.org/Graphics/SVG/1.1/DTD/svg11.dtd">
<!-- Created with matplotlib (http://matplotlib.org/) -->
<svg height="345.6pt" version="1.1" viewBox="0 0 460.8 345.6" width="460.8pt" xmlns="http://www.w3.org/2000/svg" xmlns:xlink="http://www.w3.org/1999/xlink">
 <defs>
  <style type="text/css">
*{stroke-linecap:butt;stroke-linejoin:round;}
  </style>
 </defs>
 <g id="figure_1">
  <g id="patch_1">
   <path d="M 0 345.6 
L 460.8 345.6 
L 460.8 0 
L 0 0 
z
" style="fill:#ffffff;"/>
  </g>
  <g id="axes_1">
   <g id="patch_2">
    <path d="M 38.27 287.8 
L 447.48 287.8 
L 447.48 13.32 
L 38.27 13.32 
z
" style="fill:#ffffff;"/>
   </g>
   <g id="matplotlib.axis_1">
    <g id="xtick_1">
     <g id="line2d_1">
      <defs>
       <path d="M 0 0 
L 0 3.5 
" id="mc238b28e2e" style="stroke:#000000;stroke-width:0.8;"/>
      </defs>
      <g>
       <use style="stroke:#000000;stroke-width:0.8;" x="38.27" xlink:href="#mc238b28e2e" y="287.8"/>
      </g>
     </g>
     <g id="text_1">
      <!-- A87 -->
      <defs>
       <path d="M 34.1875 63.1875 
L 20.796875 26.90625 
L 47.609375 26.90625 
z
M 28.609375 72.90625 
L 39.796875 72.90625 
L 67.578125 0 
L 57.328125 0 
L 50.6875 18.703125 
L 17.828125 18.703125 
L 11.1875 0 
L 0.78125 0 
z
" id="DejaVuSans-41"/>
       <path d="M 31.78125 34.625 
Q 24.75 34.625 20.71875 30.859375 
Q 16.703125 27.09375 16.703125 20.515625 
Q 16.703125 13.921875 20.71875 10.15625 
Q 24.75 6.390625 31.78125 6.390625 
Q 38.8125 6.390625 42.859375 10.171875 
Q 46.921875 13.96875 46.921875 20.515625 
Q 46.921875 27.09375 42.890625 30.859375 
Q 38.875 34.625 31.78125 34.625 
z
M 21.921875 38.8125 
Q 15.578125 40.375 12.03125 44.71875 
Q 8.5 49.078125 8.5 55.328125 
Q 8.5 64.0625 14.71875 69.140625 
Q 20.953125 74.21875 31.78125 74.21875 
Q 42.671875 74.21875 48.875 69.140625 
Q 55.078125 64.0625 55.078125 55.328125 
Q 55.078125 49.078125 51.53125 44.71875 
Q 48 40.375 41.703125 38.8125 
Q 48.828125 37.15625 52.796875 32.3125 
Q 56.78125 27.484375 56.78125 20.515625 
Q 56.78125 9.90625 50.3125 4.234375 
Q 43.84375 -1.421875 31.78125 -1.421875 
Q 19.734375 -1.421875 13.25 4.234375 
Q 6.78125 9.90625 6.78125 20.515625 
Q 6.78125 27.484375 10.78125 32.3125 
Q 14.796875 37.15625 21.921875 38.8125 
z
M 18.3125 54.390625 
Q 18.3125 48.734375 21.84375 45.5625 
Q 25.390625 42.390625 31.78125 42.390625 
Q 38.140625 42.390625 41.71875 45.5625 
Q 45.3125 48.734375 45.3125 54.390625 
Q 45.3125 60.0625 41.71875 63.234375 
Q 38.140625 66.40625 31.78125 66.40625 
Q 25.390625 66.40625 21.84375 63.234375 
Q 18.3125 60.0625 18.3125 54.390625 
z
" id="DejaVuSans-38"/>
       <path d="M 8.203125 72.90625 
L 55.078125 72.90625 
L 55.078125 68.703125 
L 28.609375 0 
L 18.3125 0 
L 43.21875 64.59375 
L 8.203125 64.59375 
z
" id="DejaVuSans-37"/>
      </defs>
      <g transform="translate(41.029375 314.365625)rotate(-90)scale(0.1 -0.1)">
       <use xlink:href="#DejaVuSans-41"/>
       <use x="68.408203" xlink:href="#DejaVuSans-38"/>
       <use x="132.03125" xlink:href="#DejaVuSans-37"/>
      </g>
     </g>
    </g>
    <g id="xtick_2">
     <g id="line2d_2">
      <g>
       <use style="stroke:#000000;stroke-width:0.8;" x="56.497617" xlink:href="#mc238b28e2e" y="287.8"/>
      </g>
     </g>
     <g id="text_2">
      <!-- A107 -->
      <defs>
       <path d="M 12.40625 8.296875 
L 28.515625 8.296875 
L 28.515625 63.921875 
L 10.984375 60.40625 
L 10.984375 69.390625 
L 28.421875 72.90625 
L 38.28125 72.90625 
L 38.28125 8.296875 
L 54.390625 8.296875 
L 54.390625 0 
L 12.40625 0 
z
" id="DejaVuSans-31"/>
       <path d="M 31.78125 66.40625 
Q 24.171875 66.40625 20.328125 58.90625 
Q 16.5 51.421875 16.5 36.375 
Q 16.5 21.390625 20.328125 13.890625 
Q 24.171875 6.390625 31.78125 6.390625 
Q 39.453125 6.390625 43.28125 13.890625 
Q 47.125 21.390625 47.125 36.375 
Q 47.125 51.421875 43.28125 58.90625 
Q 39.453125 66.40625 31.78125 66.40625 
z
M 31.78125 74.21875 
Q 44.046875 74.21875 50.515625 64.515625 
Q 56.984375 54.828125 56.984375 36.375 
Q 56.984375 17.96875 50.515625 8.265625 
Q 44.046875 -1.421875 31.78125 -1.421875 
Q 19.53125 -1.421875 13.0625 8.265625 
Q 6.59375 17.96875 6.59375 36.375 
Q 6.59375 54.828125 13.0625 64.515625 
Q 19.53125 74.21875 31.78125 74.21875 
z
" id="DejaVuSans-30"/>
      </defs>
      <g transform="translate(59.256992 320.728125)rotate(-90)scale(0.1 -0.1)">
       <use xlink:href="#DejaVuSans-41"/>
       <use x="68.408203" xlink:href="#DejaVuSans-31"/>
       <use x="132.03125" xlink:href="#DejaVuSans-30"/>
       <use x="195.654297" xlink:href="#DejaVuSans-37"/>
      </g>
     </g>
    </g>
    <g id="xtick_3">
     <g id="line2d_3">
      <g>
       <use style="stroke:#000000;stroke-width:0.8;" x="74.725234" xlink:href="#mc238b28e2e" y="287.8"/>
      </g>
     </g>
     <g id="text_3">
      <!-- A127 -->
      <defs>
       <path d="M 19.1875 8.296875 
L 53.609375 8.296875 
L 53.609375 0 
L 7.328125 0 
L 7.328125 8.296875 
Q 12.9375 14.109375 22.625 23.890625 
Q 32.328125 33.6875 34.8125 36.53125 
Q 39.546875 41.84375 41.421875 45.53125 
Q 43.3125 49.21875 43.3125 52.78125 
Q 43.3125 58.59375 39.234375 62.25 
Q 35.15625 65.921875 28.609375 65.921875 
Q 23.96875 65.921875 18.8125 64.3125 
Q 13.671875 62.703125 7.8125 59.421875 
L 7.8125 69.390625 
Q 13.765625 71.78125 18.9375 73 
Q 24.125 74.21875 28.421875 74.21875 
Q 39.75 74.21875 46.484375 68.546875 
Q 53.21875 62.890625 53.21875 53.421875 
Q 53.21875 48.921875 51.53125 44.890625 
Q 49.859375 40.875 45.40625 35.40625 
Q 44.1875 33.984375 37.640625 27.21875 
Q 31.109375 20.453125 19.1875 8.296875 
z
" id="DejaVuSans-32"/>
      </defs>
      <g transform="translate(77.484609 320.728125)rotate(-90)scale(0.1 -0.1)">
       <use xlink:href="#DejaVuSans-41"/>
       <use x="68.408203" xlink:href="#DejaVuSans-31"/>
       <use x="132.03125" xlink:href="#DejaVuSans-32"/>
       <use x="195.654297" xlink:href="#DejaVuSans-37"/>
      </g>
     </g>
    </g>
    <g id="xtick_4">
     <g id="line2d_4">
      <g>
       <use style="stroke:#000000;stroke-width:0.8;" x="92.952851" xlink:href="#mc238b28e2e" y="287.8"/>
      </g>
     </g>
     <g id="text_4">
      <!-- A147 -->
      <defs>
       <path d="M 37.796875 64.3125 
L 12.890625 25.390625 
L 37.796875 25.390625 
z
M 35.203125 72.90625 
L 47.609375 72.90625 
L 47.609375 25.390625 
L 58.015625 25.390625 
L 58.015625 17.1875 
L 47.609375 17.1875 
L 47.609375 0 
L 37.796875 0 
L 37.796875 17.1875 
L 4.890625 17.1875 
L 4.890625 26.703125 
z
" id="DejaVuSans-34"/>
      </defs>
      <g transform="translate(95.712226 320.728125)rotate(-90)scale(0.1 -0.1)">
       <use xlink:href="#DejaVuSans-41"/>
       <use x="68.408203" xlink:href="#DejaVuSans-31"/>
       <use x="132.03125" xlink:href="#DejaVuSans-34"/>
       <use x="195.654297" xlink:href="#DejaVuSans-37"/>
      </g>
     </g>
    </g>
    <g id="xtick_5">
     <g id="line2d_5">
      <g>
       <use style="stroke:#000000;stroke-width:0.8;" x="111.180468" xlink:href="#mc238b28e2e" y="287.8"/>
      </g>
     </g>
     <g id="text_5">
      <!-- A167 -->
      <defs>
       <path d="M 33.015625 40.375 
Q 26.375 40.375 22.484375 35.828125 
Q 18.609375 31.296875 18.609375 23.390625 
Q 18.609375 15.53125 22.484375 10.953125 
Q 26.375 6.390625 33.015625 6.390625 
Q 39.65625 6.390625 43.53125 10.953125 
Q 47.40625 15.53125 47.40625 23.390625 
Q 47.40625 31.296875 43.53125 35.828125 
Q 39.65625 40.375 33.015625 40.375 
z
M 52.59375 71.296875 
L 52.59375 62.3125 
Q 48.875 64.0625 45.09375 64.984375 
Q 41.3125 65.921875 37.59375 65.921875 
Q 27.828125 65.921875 22.671875 59.328125 
Q 17.53125 52.734375 16.796875 39.40625 
Q 19.671875 43.65625 24.015625 45.921875 
Q 28.375 48.1875 33.59375 48.1875 
Q 44.578125 48.1875 50.953125 41.515625 
Q 57.328125 34.859375 57.328125 23.390625 
Q 57.328125 12.15625 50.6875 5.359375 
Q 44.046875 -1.421875 33.015625 -1.421875 
Q 20.359375 -1.421875 13.671875 8.265625 
Q 6.984375 17.96875 6.984375 36.375 
Q 6.984375 53.65625 15.1875 63.9375 
Q 23.390625 74.21875 37.203125 74.21875 
Q 40.921875 74.21875 44.703125 73.484375 
Q 48.484375 72.75 52.59375 71.296875 
z
" id="DejaVuSans-36"/>
      </defs>
      <g transform="translate(113.939843 320.728125)rotate(-90)scale(0.1 -0.1)">
       <use xlink:href="#DejaVuSans-41"/>
       <use x="68.408203" xlink:href="#DejaVuSans-31"/>
       <use x="132.03125" xlink:href="#DejaVuSans-36"/>
       <use x="195.654297" xlink:href="#DejaVuSans-37"/>
      </g>
     </g>
    </g>
    <g id="xtick_6">
     <g id="line2d_6">
      <g>
       <use style="stroke:#000000;stroke-width:0.8;" x="129.408085" xlink:href="#mc238b28e2e" y="287.8"/>
      </g>
     </g>
     <g id="text_6">
      <!-- A187 -->
      <g transform="translate(132.16746 320.728125)rotate(-90)scale(0.1 -0.1)">
       <use xlink:href="#DejaVuSans-41"/>
       <use x="68.408203" xlink:href="#DejaVuSans-31"/>
       <use x="132.03125" xlink:href="#DejaVuSans-38"/>
       <use x="195.654297" xlink:href="#DejaVuSans-37"/>
      </g>
     </g>
    </g>
    <g id="xtick_7">
     <g id="line2d_7">
      <g>
       <use style="stroke:#000000;stroke-width:0.8;" x="147.635702" xlink:href="#mc238b28e2e" y="287.8"/>
      </g>
     </g>
     <g id="text_7">
      <!-- A207 -->
      <g transform="translate(150.395077 320.728125)rotate(-90)scale(0.1 -0.1)">
       <use xlink:href="#DejaVuSans-41"/>
       <use x="68.408203" xlink:href="#DejaVuSans-32"/>
       <use x="132.03125" xlink:href="#DejaVuSans-30"/>
       <use x="195.654297" xlink:href="#DejaVuSans-37"/>
      </g>
     </g>
    </g>
    <g id="xtick_8">
     <g id="line2d_8">
      <g>
       <use style="stroke:#000000;stroke-width:0.8;" x="165.863318" xlink:href="#mc238b28e2e" y="287.8"/>
      </g>
     </g>
     <g id="text_8">
      <!-- A227 -->
      <g transform="translate(168.622693 320.728125)rotate(-90)scale(0.1 -0.1)">
       <use xlink:href="#DejaVuSans-41"/>
       <use x="68.408203" xlink:href="#DejaVuSans-32"/>
       <use x="132.03125" xlink:href="#DejaVuSans-32"/>
       <use x="195.654297" xlink:href="#DejaVuSans-37"/>
      </g>
     </g>
    </g>
    <g id="xtick_9">
     <g id="line2d_9">
      <g>
       <use style="stroke:#000000;stroke-width:0.8;" x="184.090935" xlink:href="#mc238b28e2e" y="287.8"/>
      </g>
     </g>
     <g id="text_9">
      <!-- A247 -->
      <g transform="translate(186.85031 320.728125)rotate(-90)scale(0.1 -0.1)">
       <use xlink:href="#DejaVuSans-41"/>
       <use x="68.408203" xlink:href="#DejaVuSans-32"/>
       <use x="132.03125" xlink:href="#DejaVuSans-34"/>
       <use x="195.654297" xlink:href="#DejaVuSans-37"/>
      </g>
     </g>
    </g>
    <g id="xtick_10">
     <g id="line2d_10">
      <g>
       <use style="stroke:#000000;stroke-width:0.8;" x="202.318552" xlink:href="#mc238b28e2e" y="287.8"/>
      </g>
     </g>
     <g id="text_10">
      <!-- A267 -->
      <g transform="translate(205.077927 320.728125)rotate(-90)scale(0.1 -0.1)">
       <use xlink:href="#DejaVuSans-41"/>
       <use x="68.408203" xlink:href="#DejaVuSans-32"/>
       <use x="132.03125" xlink:href="#DejaVuSans-36"/>
       <use x="195.654297" xlink:href="#DejaVuSans-37"/>
      </g>
     </g>
    </g>
    <g id="xtick_11">
     <g id="line2d_11">
      <g>
       <use style="stroke:#000000;stroke-width:0.8;" x="220.546169" xlink:href="#mc238b28e2e" y="287.8"/>
      </g>
     </g>
     <g id="text_11">
      <!-- A287 -->
      <g transform="translate(223.305544 320.728125)rotate(-90)scale(0.1 -0.1)">
       <use xlink:href="#DejaVuSans-41"/>
       <use x="68.408203" xlink:href="#DejaVuSans-32"/>
       <use x="132.03125" xlink:href="#DejaVuSans-38"/>
       <use x="195.654297" xlink:href="#DejaVuSans-37"/>
      </g>
     </g>
    </g>
    <g id="xtick_12">
     <g id="line2d_12">
      <g>
       <use style="stroke:#000000;stroke-width:0.8;" x="238.773786" xlink:href="#mc238b28e2e" y="287.8"/>
      </g>
     </g>
     <g id="text_12">
      <!-- A307 -->
      <defs>
       <path d="M 40.578125 39.3125 
Q 47.65625 37.796875 51.625 33 
Q 55.609375 28.21875 55.609375 21.1875 
Q 55.609375 10.40625 48.1875 4.484375 
Q 40.765625 -1.421875 27.09375 -1.421875 
Q 22.515625 -1.421875 17.65625 -0.515625 
Q 12.796875 0.390625 7.625 2.203125 
L 7.625 11.71875 
Q 11.71875 9.328125 16.59375 8.109375 
Q 21.484375 6.890625 26.8125 6.890625 
Q 36.078125 6.890625 40.9375 10.546875 
Q 45.796875 14.203125 45.796875 21.1875 
Q 45.796875 27.640625 41.28125 31.265625 
Q 36.765625 34.90625 28.71875 34.90625 
L 20.21875 34.90625 
L 20.21875 43.015625 
L 29.109375 43.015625 
Q 36.375 43.015625 40.234375 45.921875 
Q 44.09375 48.828125 44.09375 54.296875 
Q 44.09375 59.90625 40.109375 62.90625 
Q 36.140625 65.921875 28.71875 65.921875 
Q 24.65625 65.921875 20.015625 65.03125 
Q 15.375 64.15625 9.8125 62.3125 
L 9.8125 71.09375 
Q 15.4375 72.65625 20.34375 73.4375 
Q 25.25 74.21875 29.59375 74.21875 
Q 40.828125 74.21875 47.359375 69.109375 
Q 53.90625 64.015625 53.90625 55.328125 
Q 53.90625 49.265625 50.4375 45.09375 
Q 46.96875 40.921875 40.578125 39.3125 
z
" id="DejaVuSans-33"/>
      </defs>
      <g transform="translate(241.533161 320.728125)rotate(-90)scale(0.1 -0.1)">
       <use xlink:href="#DejaVuSans-41"/>
       <use x="68.408203" xlink:href="#DejaVuSans-33"/>
       <use x="132.03125" xlink:href="#DejaVuSans-30"/>
       <use x="195.654297" xlink:href="#DejaVuSans-37"/>
      </g>
     </g>
    </g>
    <g id="xtick_13">
     <g id="line2d_13">
      <g>
       <use style="stroke:#000000;stroke-width:0.8;" x="257.001403" xlink:href="#mc238b28e2e" y="287.8"/>
      </g>
     </g>
     <g id="text_13">
      <!-- A327 -->
      <g transform="translate(259.760778 320.728125)rotate(-90)scale(0.1 -0.1)">
       <use xlink:href="#DejaVuSans-41"/>
       <use x="68.408203" xlink:href="#DejaVuSans-33"/>
       <use x="132.03125" xlink:href="#DejaVuSans-32"/>
       <use x="195.654297" xlink:href="#DejaVuSans-37"/>
      </g>
     </g>
    </g>
    <g id="xtick_14">
     <g id="line2d_14">
      <g>
       <use style="stroke:#000000;stroke-width:0.8;" x="275.22902" xlink:href="#mc238b28e2e" y="287.8"/>
      </g>
     </g>
     <g id="text_14">
      <!-- A347 -->
      <g transform="translate(277.988395 320.728125)rotate(-90)scale(0.1 -0.1)">
       <use xlink:href="#DejaVuSans-41"/>
       <use x="68.408203" xlink:href="#DejaVuSans-33"/>
       <use x="132.03125" xlink:href="#DejaVuSans-34"/>
       <use x="195.654297" xlink:href="#DejaVuSans-37"/>
      </g>
     </g>
    </g>
    <g id="xtick_15">
     <g id="line2d_15">
      <g>
       <use style="stroke:#000000;stroke-width:0.8;" x="293.456637" xlink:href="#mc238b28e2e" y="287.8"/>
      </g>
     </g>
     <g id="text_15">
      <!-- A367 -->
      <g transform="translate(296.216012 320.728125)rotate(-90)scale(0.1 -0.1)">
       <use xlink:href="#DejaVuSans-41"/>
       <use x="68.408203" xlink:href="#DejaVuSans-33"/>
       <use x="132.03125" xlink:href="#DejaVuSans-36"/>
       <use x="195.654297" xlink:href="#DejaVuSans-37"/>
      </g>
     </g>
    </g>
    <g id="xtick_16">
     <g id="line2d_16">
      <g>
       <use style="stroke:#000000;stroke-width:0.8;" x="311.684254" xlink:href="#mc238b28e2e" y="287.8"/>
      </g>
     </g>
     <g id="text_16">
      <!-- A387 -->
      <g transform="translate(314.443629 320.728125)rotate(-90)scale(0.1 -0.1)">
       <use xlink:href="#DejaVuSans-41"/>
       <use x="68.408203" xlink:href="#DejaVuSans-33"/>
       <use x="132.03125" xlink:href="#DejaVuSans-38"/>
       <use x="195.654297" xlink:href="#DejaVuSans-37"/>
      </g>
     </g>
    </g>
    <g id="xtick_17">
     <g id="line2d_17">
      <g>
       <use style="stroke:#000000;stroke-width:0.8;" x="329.911871" xlink:href="#mc238b28e2e" y="287.8"/>
      </g>
     </g>
     <g id="text_17">
      <!-- A407 -->
      <g transform="translate(332.671246 320.728125)rotate(-90)scale(0.1 -0.1)">
       <use xlink:href="#DejaVuSans-41"/>
       <use x="68.408203" xlink:href="#DejaVuSans-34"/>
       <use x="132.03125" xlink:href="#DejaVuSans-30"/>
       <use x="195.654297" xlink:href="#DejaVuSans-37"/>
      </g>
     </g>
    </g>
    <g id="xtick_18">
     <g id="line2d_18">
      <g>
       <use style="stroke:#000000;stroke-width:0.8;" x="348.139488" xlink:href="#mc238b28e2e" y="287.8"/>
      </g>
     </g>
     <g id="text_18">
      <!-- A427 -->
      <g transform="translate(350.898863 320.728125)rotate(-90)scale(0.1 -0.1)">
       <use xlink:href="#DejaVuSans-41"/>
       <use x="68.408203" xlink:href="#DejaVuSans-34"/>
       <use x="132.03125" xlink:href="#DejaVuSans-32"/>
       <use x="195.654297" xlink:href="#DejaVuSans-37"/>
      </g>
     </g>
    </g>
    <g id="xtick_19">
     <g id="line2d_19">
      <g>
       <use style="stroke:#000000;stroke-width:0.8;" x="366.367105" xlink:href="#mc238b28e2e" y="287.8"/>
      </g>
     </g>
     <g id="text_19">
      <!-- A447 -->
      <g transform="translate(369.12648 320.728125)rotate(-90)scale(0.1 -0.1)">
       <use xlink:href="#DejaVuSans-41"/>
       <use x="68.408203" xlink:href="#DejaVuSans-34"/>
       <use x="132.03125" xlink:href="#DejaVuSans-34"/>
       <use x="195.654297" xlink:href="#DejaVuSans-37"/>
      </g>
     </g>
    </g>
    <g id="xtick_20">
     <g id="line2d_20">
      <g>
       <use style="stroke:#000000;stroke-width:0.8;" x="384.594722" xlink:href="#mc238b28e2e" y="287.8"/>
      </g>
     </g>
     <g id="text_20">
      <!-- A467 -->
      <g transform="translate(387.354097 320.728125)rotate(-90)scale(0.1 -0.1)">
       <use xlink:href="#DejaVuSans-41"/>
       <use x="68.408203" xlink:href="#DejaVuSans-34"/>
       <use x="132.03125" xlink:href="#DejaVuSans-36"/>
       <use x="195.654297" xlink:href="#DejaVuSans-37"/>
      </g>
     </g>
    </g>
    <g id="xtick_21">
     <g id="line2d_21">
      <g>
       <use style="stroke:#000000;stroke-width:0.8;" x="402.822339" xlink:href="#mc238b28e2e" y="287.8"/>
      </g>
     </g>
     <g id="text_21">
      <!-- A487 -->
      <g transform="translate(405.581714 320.728125)rotate(-90)scale(0.1 -0.1)">
       <use xlink:href="#DejaVuSans-41"/>
       <use x="68.408203" xlink:href="#DejaVuSans-34"/>
       <use x="132.03125" xlink:href="#DejaVuSans-38"/>
       <use x="195.654297" xlink:href="#DejaVuSans-37"/>
      </g>
     </g>
    </g>
    <g id="xtick_22">
     <g id="line2d_22">
      <g>
       <use style="stroke:#000000;stroke-width:0.8;" x="421.049955" xlink:href="#mc238b28e2e" y="287.8"/>
      </g>
     </g>
     <g id="text_22">
      <!-- A507 -->
      <defs>
       <path d="M 10.796875 72.90625 
L 49.515625 72.90625 
L 49.515625 64.59375 
L 19.828125 64.59375 
L 19.828125 46.734375 
Q 21.96875 47.46875 24.109375 47.828125 
Q 26.265625 48.1875 28.421875 48.1875 
Q 40.625 48.1875 47.75 41.5 
Q 54.890625 34.8125 54.890625 23.390625 
Q 54.890625 11.625 47.5625 5.09375 
Q 40.234375 -1.421875 26.90625 -1.421875 
Q 22.3125 -1.421875 17.546875 -0.640625 
Q 12.796875 0.140625 7.71875 1.703125 
L 7.71875 11.625 
Q 12.109375 9.234375 16.796875 8.0625 
Q 21.484375 6.890625 26.703125 6.890625 
Q 35.15625 6.890625 40.078125 11.328125 
Q 45.015625 15.765625 45.015625 23.390625 
Q 45.015625 31 40.078125 35.4375 
Q 35.15625 39.890625 26.703125 39.890625 
Q 22.75 39.890625 18.8125 39.015625 
Q 14.890625 38.140625 10.796875 36.28125 
z
" id="DejaVuSans-35"/>
      </defs>
      <g transform="translate(423.80933 320.728125)rotate(-90)scale(0.1 -0.1)">
       <use xlink:href="#DejaVuSans-41"/>
       <use x="68.408203" xlink:href="#DejaVuSans-35"/>
       <use x="132.03125" xlink:href="#DejaVuSans-30"/>
       <use x="195.654297" xlink:href="#DejaVuSans-37"/>
      </g>
     </g>
    </g>
    <g id="xtick_23">
     <g id="line2d_23">
      <g>
       <use style="stroke:#000000;stroke-width:0.8;" x="439.277572" xlink:href="#mc238b28e2e" y="287.8"/>
      </g>
     </g>
     <g id="text_23">
      <!-- A527 -->
      <g transform="translate(442.036947 320.728125)rotate(-90)scale(0.1 -0.1)">
       <use xlink:href="#DejaVuSans-41"/>
       <use x="68.408203" xlink:href="#DejaVuSans-35"/>
       <use x="132.03125" xlink:href="#DejaVuSans-32"/>
       <use x="195.654297" xlink:href="#DejaVuSans-37"/>
      </g>
     </g>
    </g>
    <g id="text_24">
     <!-- Residue index -->
     <defs>
      <path d="M 44.390625 34.1875 
Q 47.5625 33.109375 50.5625 29.59375 
Q 53.5625 26.078125 56.59375 19.921875 
L 66.609375 0 
L 56 0 
L 46.6875 18.703125 
Q 43.0625 26.03125 39.671875 28.421875 
Q 36.28125 30.8125 30.421875 30.8125 
L 19.671875 30.8125 
L 19.671875 0 
L 9.8125 0 
L 9.8125 72.90625 
L 32.078125 72.90625 
Q 44.578125 72.90625 50.734375 67.671875 
Q 56.890625 62.453125 56.890625 51.90625 
Q 56.890625 45.015625 53.6875 40.46875 
Q 50.484375 35.9375 44.390625 34.1875 
z
M 19.671875 64.796875 
L 19.671875 38.921875 
L 32.078125 38.921875 
Q 39.203125 38.921875 42.84375 42.21875 
Q 46.484375 45.515625 46.484375 51.90625 
Q 46.484375 58.296875 42.84375 61.546875 
Q 39.203125 64.796875 32.078125 64.796875 
z
" id="DejaVuSans-52"/>
      <path d="M 56.203125 29.59375 
L 56.203125 25.203125 
L 14.890625 25.203125 
Q 15.484375 15.921875 20.484375 11.0625 
Q 25.484375 6.203125 34.421875 6.203125 
Q 39.59375 6.203125 44.453125 7.46875 
Q 49.3125 8.734375 54.109375 11.28125 
L 54.109375 2.78125 
Q 49.265625 0.734375 44.1875 -0.34375 
Q 39.109375 -1.421875 33.890625 -1.421875 
Q 20.796875 -1.421875 13.15625 6.1875 
Q 5.515625 13.8125 5.515625 26.8125 
Q 5.515625 40.234375 12.765625 48.109375 
Q 20.015625 56 32.328125 56 
Q 43.359375 56 49.78125 48.890625 
Q 56.203125 41.796875 56.203125 29.59375 
z
M 47.21875 32.234375 
Q 47.125 39.59375 43.09375 43.984375 
Q 39.0625 48.390625 32.421875 48.390625 
Q 24.90625 48.390625 20.390625 44.140625 
Q 15.875 39.890625 15.1875 32.171875 
z
" id="DejaVuSans-65"/>
      <path d="M 44.28125 53.078125 
L 44.28125 44.578125 
Q 40.484375 46.53125 36.375 47.5 
Q 32.28125 48.484375 27.875 48.484375 
Q 21.1875 48.484375 17.84375 46.4375 
Q 14.5 44.390625 14.5 40.28125 
Q 14.5 37.15625 16.890625 35.375 
Q 19.28125 33.59375 26.515625 31.984375 
L 29.59375 31.296875 
Q 39.15625 29.25 43.1875 25.515625 
Q 47.21875 21.78125 47.21875 15.09375 
Q 47.21875 7.46875 41.1875 3.015625 
Q 35.15625 -1.421875 24.609375 -1.421875 
Q 20.21875 -1.421875 15.453125 -0.5625 
Q 10.6875 0.296875 5.421875 2 
L 5.421875 11.28125 
Q 10.40625 8.6875 15.234375 7.390625 
Q 20.0625 6.109375 24.8125 6.109375 
Q 31.15625 6.109375 34.5625 8.28125 
Q 37.984375 10.453125 37.984375 14.40625 
Q 37.984375 18.0625 35.515625 20.015625 
Q 33.0625 21.96875 24.703125 23.78125 
L 21.578125 24.515625 
Q 13.234375 26.265625 9.515625 29.90625 
Q 5.8125 33.546875 5.8125 39.890625 
Q 5.8125 47.609375 11.28125 51.796875 
Q 16.75 56 26.8125 56 
Q 31.78125 56 36.171875 55.265625 
Q 40.578125 54.546875 44.28125 53.078125 
z
" id="DejaVuSans-73"/>
      <path d="M 9.421875 54.6875 
L 18.40625 54.6875 
L 18.40625 0 
L 9.421875 0 
z
M 9.421875 75.984375 
L 18.40625 75.984375 
L 18.40625 64.59375 
L 9.421875 64.59375 
z
" id="DejaVuSans-69"/>
      <path d="M 45.40625 46.390625 
L 45.40625 75.984375 
L 54.390625 75.984375 
L 54.390625 0 
L 45.40625 0 
L 45.40625 8.203125 
Q 42.578125 3.328125 38.25 0.953125 
Q 33.9375 -1.421875 27.875 -1.421875 
Q 17.96875 -1.421875 11.734375 6.484375 
Q 5.515625 14.40625 5.515625 27.296875 
Q 5.515625 40.1875 11.734375 48.09375 
Q 17.96875 56 27.875 56 
Q 33.9375 56 38.25 53.625 
Q 42.578125 51.265625 45.40625 46.390625 
z
M 14.796875 27.296875 
Q 14.796875 17.390625 18.875 11.75 
Q 22.953125 6.109375 30.078125 6.109375 
Q 37.203125 6.109375 41.296875 11.75 
Q 45.40625 17.390625 45.40625 27.296875 
Q 45.40625 37.203125 41.296875 42.84375 
Q 37.203125 48.484375 30.078125 48.484375 
Q 22.953125 48.484375 18.875 42.84375 
Q 14.796875 37.203125 14.796875 27.296875 
z
" id="DejaVuSans-64"/>
      <path d="M 8.5 21.578125 
L 8.5 54.6875 
L 17.484375 54.6875 
L 17.484375 21.921875 
Q 17.484375 14.15625 20.5 10.265625 
Q 23.53125 6.390625 29.59375 6.390625 
Q 36.859375 6.390625 41.078125 11.03125 
Q 45.3125 15.671875 45.3125 23.6875 
L 45.3125 54.6875 
L 54.296875 54.6875 
L 54.296875 0 
L 45.3125 0 
L 45.3125 8.40625 
Q 42.046875 3.421875 37.71875 1 
Q 33.40625 -1.421875 27.6875 -1.421875 
Q 18.265625 -1.421875 13.375 4.4375 
Q 8.5 10.296875 8.5 21.578125 
z
M 31.109375 56 
z
" id="DejaVuSans-75"/>
      <path id="DejaVuSans-20"/>
      <path d="M 54.890625 33.015625 
L 54.890625 0 
L 45.90625 0 
L 45.90625 32.71875 
Q 45.90625 40.484375 42.875 44.328125 
Q 39.84375 48.1875 33.796875 48.1875 
Q 26.515625 48.1875 22.3125 43.546875 
Q 18.109375 38.921875 18.109375 30.90625 
L 18.109375 0 
L 9.078125 0 
L 9.078125 54.6875 
L 18.109375 54.6875 
L 18.109375 46.1875 
Q 21.34375 51.125 25.703125 53.5625 
Q 30.078125 56 35.796875 56 
Q 45.21875 56 50.046875 50.171875 
Q 54.890625 44.34375 54.890625 33.015625 
z
" id="DejaVuSans-6e"/>
      <path d="M 54.890625 54.6875 
L 35.109375 28.078125 
L 55.90625 0 
L 45.3125 0 
L 29.390625 21.484375 
L 13.484375 0 
L 2.875 0 
L 24.125 28.609375 
L 4.6875 54.6875 
L 15.28125 54.6875 
L 29.78125 35.203125 
L 44.28125 54.6875 
z
" id="DejaVuSans-78"/>
     </defs>
     <g transform="translate(207.557813 332.326562)scale(0.1 -0.1)">
      <use xlink:href="#DejaVuSans-52"/>
      <use x="69.419922" xlink:href="#DejaVuSans-65"/>
      <use x="130.943359" xlink:href="#DejaVuSans-73"/>
      <use x="183.042969" xlink:href="#DejaVuSans-69"/>
      <use x="210.826172" xlink:href="#DejaVuSans-64"/>
      <use x="274.302734" xlink:href="#DejaVuSans-75"/>
      <use x="337.681641" xlink:href="#DejaVuSans-65"/>
      <use x="399.205078" xlink:href="#DejaVuSans-20"/>
      <use x="430.992188" xlink:href="#DejaVuSans-69"/>
      <use x="458.775391" xlink:href="#DejaVuSans-6e"/>
      <use x="522.154297" xlink:href="#DejaVuSans-64"/>
      <use x="585.630859" xlink:href="#DejaVuSans-65"/>
      <use x="647.138672" xlink:href="#DejaVuSans-78"/>
     </g>
    </g>
   </g>
   <g id="matplotlib.axis_2">
    <g id="ytick_1">
     <g id="line2d_24">
      <defs>
       <path d="M 0 0 
L -3.5 0 
" id="mf1ca4e82f5" style="stroke:#000000;stroke-width:0.8;"/>
      </defs>
      <g>
       <use style="stroke:#000000;stroke-width:0.8;" x="38.27" xlink:href="#mf1ca4e82f5" y="283.336424"/>
      </g>
     </g>
     <g id="text_25">
      <!-- 0 -->
      <g transform="translate(24.9075 287.135642)scale(0.1 -0.1)">
       <use xlink:href="#DejaVuSans-30"/>
      </g>
     </g>
    </g>
    <g id="ytick_2">
     <g id="line2d_25">
      <g>
       <use style="stroke:#000000;stroke-width:0.8;" x="38.27" xlink:href="#mf1ca4e82f5" y="224.841515"/>
      </g>
     </g>
     <g id="text_26">
      <!-- 1 -->
      <g transform="translate(24.9075 228.640733)scale(0.1 -0.1)">
       <use xlink:href="#DejaVuSans-31"/>
      </g>
     </g>
    </g>
    <g id="ytick_3">
     <g id="line2d_26">
      <g>
       <use style="stroke:#000000;stroke-width:0.8;" x="38.27" xlink:href="#mf1ca4e82f5" y="166.346605"/>
      </g>
     </g>
     <g id="text_27">
      <!-- 2 -->
      <g transform="translate(24.9075 170.145824)scale(0.1 -0.1)">
       <use xlink:href="#DejaVuSans-32"/>
      </g>
     </g>
    </g>
    <g id="ytick_4">
     <g id="line2d_27">
      <g>
       <use style="stroke:#000000;stroke-width:0.8;" x="38.27" xlink:href="#mf1ca4e82f5" y="107.851696"/>
      </g>
     </g>
     <g id="text_28">
      <!-- 3 -->
      <g transform="translate(24.9075 111.650915)scale(0.1 -0.1)">
       <use xlink:href="#DejaVuSans-33"/>
      </g>
     </g>
    </g>
    <g id="ytick_5">
     <g id="line2d_28">
      <g>
       <use style="stroke:#000000;stroke-width:0.8;" x="38.27" xlink:href="#mf1ca4e82f5" y="49.356787"/>
      </g>
     </g>
     <g id="text_29">
      <!-- 4 -->
      <g transform="translate(24.9075 53.156006)scale(0.1 -0.1)">
       <use xlink:href="#DejaVuSans-34"/>
      </g>
     </g>
    </g>
    <g id="text_30">
     <!-- RMSF -->
     <defs>
      <path d="M 9.8125 72.90625 
L 24.515625 72.90625 
L 43.109375 23.296875 
L 61.8125 72.90625 
L 76.515625 72.90625 
L 76.515625 0 
L 66.890625 0 
L 66.890625 64.015625 
L 48.09375 14.015625 
L 38.1875 14.015625 
L 19.390625 64.015625 
L 19.390625 0 
L 9.8125 0 
z
" id="DejaVuSans-4d"/>
      <path d="M 53.515625 70.515625 
L 53.515625 60.890625 
Q 47.90625 63.578125 42.921875 64.890625 
Q 37.9375 66.21875 33.296875 66.21875 
Q 25.25 66.21875 20.875 63.09375 
Q 16.5 59.96875 16.5 54.203125 
Q 16.5 49.359375 19.40625 46.890625 
Q 22.3125 44.4375 30.421875 42.921875 
L 36.375 41.703125 
Q 47.40625 39.59375 52.65625 34.296875 
Q 57.90625 29 57.90625 20.125 
Q 57.90625 9.515625 50.796875 4.046875 
Q 43.703125 -1.421875 29.984375 -1.421875 
Q 24.8125 -1.421875 18.96875 -0.25 
Q 13.140625 0.921875 6.890625 3.21875 
L 6.890625 13.375 
Q 12.890625 10.015625 18.65625 8.296875 
Q 24.421875 6.59375 29.984375 6.59375 
Q 38.421875 6.59375 43.015625 9.90625 
Q 47.609375 13.234375 47.609375 19.390625 
Q 47.609375 24.75 44.3125 27.78125 
Q 41.015625 30.8125 33.5 32.328125 
L 27.484375 33.5 
Q 16.453125 35.6875 11.515625 40.375 
Q 6.59375 45.0625 6.59375 53.421875 
Q 6.59375 63.09375 13.40625 68.65625 
Q 20.21875 74.21875 32.171875 74.21875 
Q 37.3125 74.21875 42.625 73.28125 
Q 47.953125 72.359375 53.515625 70.515625 
z
" id="DejaVuSans-53"/>
      <path d="M 9.8125 72.90625 
L 51.703125 72.90625 
L 51.703125 64.59375 
L 19.671875 64.59375 
L 19.671875 43.109375 
L 48.578125 43.109375 
L 48.578125 34.8125 
L 19.671875 34.8125 
L 19.671875 0 
L 9.8125 0 
z
" id="DejaVuSans-46"/>
     </defs>
     <g transform="translate(18.827813 164.398281)rotate(-90)scale(0.1 -0.1)">
      <use xlink:href="#DejaVuSans-52"/>
      <use x="69.482422" xlink:href="#DejaVuSans-4d"/>
      <use x="155.761719" xlink:href="#DejaVuSans-53"/>
      <use x="219.238281" xlink:href="#DejaVuSans-46"/>
     </g>
    </g>
   </g>
   <g id="line2d_29">
    <path clip-path="url(#p3ae716ef3f)" d="M 38.27 231.307316 
L 39.181381 260.802492 
L 40.092762 263.864002 
L 41.004143 263.058127 
L 41.915523 252.544583 
L 42.826904 259.367542 
L 43.738285 269.305867 
L 44.649666 266.022682 
L 45.561047 268.688395 
L 47.383808 267.151407 
L 49.20657 235.240458 
L 50.117951 239.053896 
L 51.029332 229.124308 
L 51.940713 252.898917 
L 52.852094 263.538716 
L 53.763474 255.449348 
L 54.674855 255.641145 
L 55.586236 233.116466 
L 56.497617 255.096163 
L 57.408998 211.978843 
L 58.320379 244.938079 
L 59.231759 254.033493 
L 60.14314 265.127449 
L 61.054521 264.762494 
L 61.965902 263.449961 
L 62.877283 251.715238 
L 64.700045 207.872003 
L 65.611425 166.541935 
L 66.522806 155.437961 
L 67.434187 161.032913 
L 69.256949 239.173823 
L 70.16833 275.323636 
L 71.991091 257.804936 
L 72.902472 261.092278 
L 73.813853 252.857312 
L 74.725234 230.397646 
L 75.636615 185.589001 
L 76.547996 205.968293 
L 77.459376 217.462207 
L 78.370757 243.767709 
L 79.282138 242.458643 
L 80.193519 232.900243 
L 81.1049 258.840817 
L 82.016281 260.43853 
L 82.927661 243.808232 
L 83.839042 233.848176 
L 84.750423 253.811672 
L 85.661804 268.3243 
L 87.484566 250.10833 
L 88.395947 249.803928 
L 89.307327 229.269372 
L 90.218708 192.090576 
L 91.130089 159.795121 
L 92.04147 204.409924 
L 92.952851 212.908643 
L 93.864232 215.617715 
L 94.775612 207.619789 
L 95.686993 260.113747 
L 96.598374 269.991121 
L 97.509755 272.148325 
L 98.421136 261.044116 
L 99.332517 245.502424 
L 100.243898 222.644845 
L 101.155278 240.106962 
L 102.066659 248.414172 
L 102.97804 258.814353 
L 103.889421 257.851145 
L 104.800802 264.331877 
L 105.712183 264.895905 
L 106.623563 261.650368 
L 107.534944 265.367307 
L 108.446325 253.171671 
L 109.357706 247.864762 
L 110.269087 196.98571 
L 111.180468 179.834715 
L 112.091849 116.885757 
L 113.003229 124.266725 
L 113.91461 75.703911 
L 114.825991 95.945586 
L 115.737372 131.150608 
L 116.648753 219.707616 
L 117.560134 258.135556 
L 118.471514 272.78503 
L 119.382895 274.70978 
L 120.294276 274.376053 
L 121.205657 272.833716 
L 122.117038 262.382706 
L 123.028419 230.015958 
L 124.85118 73.502841 
L 125.762561 25.796364 
L 126.673942 40.154806 
L 127.585323 155.245678 
L 128.496704 233.073299 
L 129.408085 260.899193 
L 130.319465 267.087523 
L 131.230846 271.954572 
L 132.142227 262.014125 
L 133.053608 260.737049 
L 133.964989 252.736034 
L 134.87637 246.982712 
L 135.787751 233.66437 
L 136.699131 189.14052 
L 137.610512 92.999702 
L 138.521893 79.294017 
L 139.433274 108.1225 
L 140.344655 195.787194 
L 141.256036 231.622587 
L 143.078797 260.824723 
L 143.990178 250.795713 
L 144.901559 254.446831 
L 145.81294 260.256589 
L 146.724321 258.399334 
L 147.635702 262.232846 
L 148.547082 259.035742 
L 149.458463 249.660314 
L 150.369844 179.843046 
L 151.281225 165.1527 
L 152.192606 61.477811 
L 153.103987 97.813177 
L 154.015367 152.576232 
L 154.926748 238.242747 
L 155.838129 252.548341 
L 156.74951 229.332345 
L 158.572272 133.937878 
L 159.483653 151.547096 
L 160.395033 205.448775 
L 161.306414 237.418066 
L 162.217795 235.900665 
L 164.040557 214.663939 
L 164.951938 243.305372 
L 165.863318 257.025181 
L 166.774699 255.055192 
L 167.68608 256.526499 
L 168.597461 261.057186 
L 169.508842 258.101589 
L 170.420223 251.540348 
L 171.331604 257.876689 
L 172.242984 252.855883 
L 173.154365 221.301162 
L 174.065746 216.764678 
L 174.977127 221.163387 
L 175.888508 145.605443 
L 176.799889 137.053132 
L 177.711269 198.577722 
L 178.62265 185.506002 
L 179.534031 231.617582 
L 180.445412 231.126931 
L 181.356793 237.971796 
L 182.268174 223.629817 
L 183.179555 215.252233 
L 184.090935 231.887698 
L 185.002316 238.33236 
L 185.913697 215.246959 
L 186.825078 217.257912 
L 187.736459 214.11724 
L 188.64784 229.806508 
L 189.55922 217.481501 
L 190.470601 214.184344 
L 191.381982 165.112498 
L 192.293363 202.678464 
L 193.204744 138.413624 
L 194.116125 218.090515 
L 195.027506 223.950896 
L 195.938886 210.792961 
L 196.850267 172.559977 
L 197.761648 139.228137 
L 198.673029 217.331746 
L 199.58441 241.470826 
L 200.495791 243.70253 
L 201.407171 225.834995 
L 202.318552 200.389369 
L 203.229933 214.079014 
L 204.141314 186.448788 
L 205.052695 242.464744 
L 205.964076 251.871894 
L 206.875457 240.925717 
L 207.786837 240.042039 
L 208.698218 222.810801 
L 209.609599 229.401001 
L 210.52098 227.34756 
L 211.432361 221.057858 
L 213.255122 203.386802 
L 214.166503 175.160615 
L 215.077884 210.967354 
L 215.989265 229.111133 
L 216.900646 243.053197 
L 217.812027 248.747403 
L 218.723408 247.648361 
L 219.634788 258.100369 
L 220.546169 253.791075 
L 221.45755 266.471325 
L 222.368931 262.810283 
L 223.280312 247.54973 
L 224.191693 210.544233 
L 225.103073 250.195403 
L 226.014454 261.589982 
L 226.925835 270.100621 
L 227.837216 270.487344 
L 228.748597 262.739287 
L 229.659978 266.755404 
L 230.571359 261.306815 
L 231.482739 254.520966 
L 232.39412 239.882435 
L 233.305501 227.392298 
L 234.216882 202.553634 
L 236.039644 127.071855 
L 236.951024 207.716635 
L 237.862405 218.502889 
L 238.773786 237.246014 
L 239.685167 233.705693 
L 241.507929 251.093498 
L 242.41931 248.200527 
L 243.33069 240.3869 
L 244.242071 245.483826 
L 245.153452 253.322384 
L 246.064833 254.519127 
L 246.976214 249.400228 
L 247.887595 250.670143 
L 248.798976 252.682028 
L 249.710356 240.395877 
L 250.621737 222.182226 
L 251.533118 228.573817 
L 252.444499 246.865697 
L 253.35588 243.841873 
L 254.267261 255.252683 
L 255.178641 263.635672 
L 256.090022 260.850379 
L 257.001403 249.798255 
L 257.912784 266.482961 
L 258.824165 263.068949 
L 260.646927 259.334082 
L 261.558307 245.094645 
L 263.381069 134.882223 
L 264.29245 156.905104 
L 265.203831 199.234331 
L 266.115212 214.854163 
L 267.026592 255.827518 
L 267.937973 254.207827 
L 268.849354 255.781666 
L 269.760735 260.465631 
L 270.672116 258.123905 
L 271.583497 226.135292 
L 272.494878 186.709179 
L 273.406258 177.417567 
L 274.317639 173.604706 
L 275.22902 213.430341 
L 276.140401 236.568989 
L 277.051782 239.369768 
L 277.963163 239.0192 
L 278.874543 241.563889 
L 279.785924 242.807282 
L 280.697305 239.41794 
L 281.608686 243.519184 
L 282.520067 222.455617 
L 283.431448 212.567019 
L 284.342829 206.286468 
L 285.254209 219.357805 
L 286.16559 212.971048 
L 287.076971 191.505142 
L 287.988352 213.700674 
L 288.899733 240.34958 
L 289.811114 255.677139 
L 290.722494 248.235184 
L 291.633875 255.875986 
L 292.545256 268.684709 
L 293.456637 268.091331 
L 294.368018 269.352824 
L 295.279399 258.904124 
L 296.19078 268.839672 
L 297.10216 270.702599 
L 298.013541 263.141482 
L 298.924922 269.841211 
L 299.836303 269.094936 
L 300.747684 270.409884 
L 301.659065 268.440398 
L 302.570445 269.63834 
L 303.481826 269.416098 
L 304.393207 270.290213 
L 305.304588 267.365108 
L 306.215969 267.650364 
L 307.12735 265.319966 
L 308.038731 255.047603 
L 308.950111 246.743384 
L 309.861492 244.788224 
L 310.772873 218.531577 
L 311.684254 229.132981 
L 312.595635 253.13345 
L 313.507016 242.630708 
L 314.418396 234.043442 
L 315.329777 237.685101 
L 316.241158 224.233204 
L 317.152539 214.195965 
L 318.06392 236.371073 
L 319.886682 257.905835 
L 320.798062 265.106022 
L 321.709443 237.573375 
L 322.620824 229.300469 
L 323.532205 228.534989 
L 324.443586 242.207927 
L 325.354967 254.002304 
L 326.266347 263.94271 
L 327.177728 259.018646 
L 328.089109 257.92718 
L 329.00049 222.948198 
L 329.911871 213.950424 
L 330.823252 219.834508 
L 331.734633 191.783769 
L 332.646013 216.062805 
L 333.557394 231.948996 
L 334.468775 237.160817 
L 335.380156 231.738641 
L 336.291537 231.324654 
L 337.202918 236.278225 
L 338.114298 222.389938 
L 339.025679 201.43273 
L 339.93706 210.68678 
L 340.848441 230.319308 
L 341.759822 222.386023 
L 342.671203 200.339958 
L 343.582584 152.169042 
L 344.493964 84.390038 
L 345.405345 114.286755 
L 346.316726 96.737957 
L 347.228107 122.108315 
L 348.139488 161.606512 
L 349.050869 228.454324 
L 349.962249 234.254662 
L 350.87363 232.565948 
L 351.785011 249.433959 
L 352.696392 246.225889 
L 353.607773 240.436349 
L 354.519154 247.352491 
L 355.430535 244.000384 
L 356.341915 247.807588 
L 357.253296 241.544417 
L 358.164677 224.048274 
L 359.076058 226.761954 
L 359.987439 198.171064 
L 360.89882 151.416537 
L 361.8102 223.103395 
L 362.721581 232.650542 
L 363.632962 256.761093 
L 364.544343 254.947016 
L 365.455724 258.579964 
L 366.367105 261.682321 
L 367.278486 262.758923 
L 368.189866 260.562537 
L 369.101247 251.340598 
L 370.012628 251.867866 
L 370.924009 260.559406 
L 372.746771 245.777491 
L 373.658151 257.211172 
L 374.569532 258.982594 
L 375.480913 257.274992 
L 376.392294 266.190262 
L 377.303675 255.272307 
L 378.215056 239.04891 
L 379.126437 214.074032 
L 380.037817 183.112672 
L 380.949198 193.680266 
L 381.860579 182.694415 
L 382.77196 180.820784 
L 383.683341 211.447973 
L 384.594722 136.314666 
L 385.506102 157.786686 
L 386.417483 188.266614 
L 387.328864 201.322079 
L 388.240245 227.681156 
L 389.151626 226.456588 
L 390.063007 232.454318 
L 392.797149 247.738626 
L 393.70853 245.648938 
L 394.619911 244.773374 
L 395.531292 238.779917 
L 396.442673 226.12718 
L 397.354053 198.694245 
L 398.265434 208.101145 
L 399.176815 190.029701 
L 400.088196 218.720775 
L 400.999577 205.085077 
L 401.910958 219.193427 
L 402.822339 200.262268 
L 403.733719 192.776669 
L 404.6451 220.295367 
L 405.556481 226.750245 
L 406.467862 223.423479 
L 407.379243 241.758606 
L 408.290624 237.551124 
L 409.202004 249.746199 
L 410.113385 256.065521 
L 411.024766 254.669565 
L 411.936147 252.541991 
L 412.847528 262.489854 
L 413.758909 244.482675 
L 414.67029 248.667447 
L 415.58167 257.965699 
L 416.493051 247.266202 
L 417.404432 243.285891 
L 418.315813 228.896416 
L 419.227194 219.860794 
L 420.138575 239.738027 
L 421.049955 239.643209 
L 421.961336 230.651235 
L 422.872717 243.691709 
L 423.784098 240.290352 
L 424.695479 266.425087 
L 425.60686 268.001237 
L 426.518241 268.312731 
L 427.429621 267.571937 
L 428.341002 267.500943 
L 429.252383 264.75239 
L 430.163764 259.739755 
L 431.075145 260.228084 
L 431.986526 259.278903 
L 432.897906 252.067606 
L 433.809287 254.277281 
L 434.720668 257.653585 
L 435.632049 252.083041 
L 436.54343 244.044394 
L 437.454811 183.909358 
L 438.366192 189.18738 
L 439.277572 204.372148 
L 440.188953 234.391322 
L 441.100334 237.744165 
L 442.011715 240.227894 
L 442.923096 222.756371 
L 443.834477 196.603087 
L 444.745857 196.124945 
L 445.657238 216.007658 
L 446.568619 201.773314 
L 447.48 113.519089 
L 447.48 113.519089 
" style="fill:none;stroke:#666666;stroke-dasharray:1,1.65;stroke-dashoffset:0;"/>
    <defs>
     <path d="M 0 0.5 
C 0.132602 0.5 0.25979 0.447317 0.353553 0.353553 
C 0.447317 0.25979 0.5 0.132602 0.5 0 
C 0.5 -0.132602 0.447317 -0.25979 0.353553 -0.353553 
C 0.25979 -0.447317 0.132602 -0.5 0 -0.5 
C -0.132602 -0.5 -0.25979 -0.447317 -0.353553 -0.353553 
C -0.447317 -0.25979 -0.5 -0.132602 -0.5 0 
C -0.5 0.132602 -0.447317 0.25979 -0.353553 0.353553 
C -0.25979 0.447317 -0.132602 0.5 0 0.5 
z
" id="m402b95be46" style="stroke:#666666;"/>
    </defs>
    <g clip-path="url(#p3ae716ef3f)">
     <use style="fill:#666666;stroke:#666666;" x="38.27" xlink:href="#m402b95be46" y="231.307316"/>
     <use style="fill:#666666;stroke:#666666;" x="39.181381" xlink:href="#m402b95be46" y="260.802492"/>
     <use style="fill:#666666;stroke:#666666;" x="40.092762" xlink:href="#m402b95be46" y="263.864002"/>
     <use style="fill:#666666;stroke:#666666;" x="41.004143" xlink:href="#m402b95be46" y="263.058127"/>
     <use style="fill:#666666;stroke:#666666;" x="41.915523" xlink:href="#m402b95be46" y="252.544583"/>
     <use style="fill:#666666;stroke:#666666;" x="42.826904" xlink:href="#m402b95be46" y="259.367542"/>
     <use style="fill:#666666;stroke:#666666;" x="43.738285" xlink:href="#m402b95be46" y="269.305867"/>
     <use style="fill:#666666;stroke:#666666;" x="44.649666" xlink:href="#m402b95be46" y="266.022682"/>
     <use style="fill:#666666;stroke:#666666;" x="45.561047" xlink:href="#m402b95be46" y="268.688395"/>
     <use style="fill:#666666;stroke:#666666;" x="46.472428" xlink:href="#m402b95be46" y="267.974888"/>
     <use style="fill:#666666;stroke:#666666;" x="47.383808" xlink:href="#m402b95be46" y="267.151407"/>
     <use style="fill:#666666;stroke:#666666;" x="48.295189" xlink:href="#m402b95be46" y="250.91972"/>
     <use style="fill:#666666;stroke:#666666;" x="49.20657" xlink:href="#m402b95be46" y="235.240458"/>
     <use style="fill:#666666;stroke:#666666;" x="50.117951" xlink:href="#m402b95be46" y="239.053896"/>
     <use style="fill:#666666;stroke:#666666;" x="51.029332" xlink:href="#m402b95be46" y="229.124308"/>
     <use style="fill:#666666;stroke:#666666;" x="51.940713" xlink:href="#m402b95be46" y="252.898917"/>
     <use style="fill:#666666;stroke:#666666;" x="52.852094" xlink:href="#m402b95be46" y="263.538716"/>
     <use style="fill:#666666;stroke:#666666;" x="53.763474" xlink:href="#m402b95be46" y="255.449348"/>
     <use style="fill:#666666;stroke:#666666;" x="54.674855" xlink:href="#m402b95be46" y="255.641145"/>
     <use style="fill:#666666;stroke:#666666;" x="55.586236" xlink:href="#m402b95be46" y="233.116466"/>
     <use style="fill:#666666;stroke:#666666;" x="56.497617" xlink:href="#m402b95be46" y="255.096163"/>
     <use style="fill:#666666;stroke:#666666;" x="57.408998" xlink:href="#m402b95be46" y="211.978843"/>
     <use style="fill:#666666;stroke:#666666;" x="58.320379" xlink:href="#m402b95be46" y="244.938079"/>
     <use style="fill:#666666;stroke:#666666;" x="59.231759" xlink:href="#m402b95be46" y="254.033493"/>
     <use style="fill:#666666;stroke:#666666;" x="60.14314" xlink:href="#m402b95be46" y="265.127449"/>
     <use style="fill:#666666;stroke:#666666;" x="61.054521" xlink:href="#m402b95be46" y="264.762494"/>
     <use style="fill:#666666;stroke:#666666;" x="61.965902" xlink:href="#m402b95be46" y="263.449961"/>
     <use style="fill:#666666;stroke:#666666;" x="62.877283" xlink:href="#m402b95be46" y="251.715238"/>
     <use style="fill:#666666;stroke:#666666;" x="63.788664" xlink:href="#m402b95be46" y="230.872919"/>
     <use style="fill:#666666;stroke:#666666;" x="64.700045" xlink:href="#m402b95be46" y="207.872003"/>
     <use style="fill:#666666;stroke:#666666;" x="65.611425" xlink:href="#m402b95be46" y="166.541935"/>
     <use style="fill:#666666;stroke:#666666;" x="66.522806" xlink:href="#m402b95be46" y="155.437961"/>
     <use style="fill:#666666;stroke:#666666;" x="67.434187" xlink:href="#m402b95be46" y="161.032913"/>
     <use style="fill:#666666;stroke:#666666;" x="68.345568" xlink:href="#m402b95be46" y="201.932918"/>
     <use style="fill:#666666;stroke:#666666;" x="69.256949" xlink:href="#m402b95be46" y="239.173823"/>
     <use style="fill:#666666;stroke:#666666;" x="70.16833" xlink:href="#m402b95be46" y="275.323636"/>
     <use style="fill:#666666;stroke:#666666;" x="71.07971" xlink:href="#m402b95be46" y="267.02542"/>
     <use style="fill:#666666;stroke:#666666;" x="71.991091" xlink:href="#m402b95be46" y="257.804936"/>
     <use style="fill:#666666;stroke:#666666;" x="72.902472" xlink:href="#m402b95be46" y="261.092278"/>
     <use style="fill:#666666;stroke:#666666;" x="73.813853" xlink:href="#m402b95be46" y="252.857312"/>
     <use style="fill:#666666;stroke:#666666;" x="74.725234" xlink:href="#m402b95be46" y="230.397646"/>
     <use style="fill:#666666;stroke:#666666;" x="75.636615" xlink:href="#m402b95be46" y="185.589001"/>
     <use style="fill:#666666;stroke:#666666;" x="76.547996" xlink:href="#m402b95be46" y="205.968293"/>
     <use style="fill:#666666;stroke:#666666;" x="77.459376" xlink:href="#m402b95be46" y="217.462207"/>
     <use style="fill:#666666;stroke:#666666;" x="78.370757" xlink:href="#m402b95be46" y="243.767709"/>
     <use style="fill:#666666;stroke:#666666;" x="79.282138" xlink:href="#m402b95be46" y="242.458643"/>
     <use style="fill:#666666;stroke:#666666;" x="80.193519" xlink:href="#m402b95be46" y="232.900243"/>
     <use style="fill:#666666;stroke:#666666;" x="81.1049" xlink:href="#m402b95be46" y="258.840817"/>
     <use style="fill:#666666;stroke:#666666;" x="82.016281" xlink:href="#m402b95be46" y="260.43853"/>
     <use style="fill:#666666;stroke:#666666;" x="82.927661" xlink:href="#m402b95be46" y="243.808232"/>
     <use style="fill:#666666;stroke:#666666;" x="83.839042" xlink:href="#m402b95be46" y="233.848176"/>
     <use style="fill:#666666;stroke:#666666;" x="84.750423" xlink:href="#m402b95be46" y="253.811672"/>
     <use style="fill:#666666;stroke:#666666;" x="85.661804" xlink:href="#m402b95be46" y="268.3243"/>
     <use style="fill:#666666;stroke:#666666;" x="86.573185" xlink:href="#m402b95be46" y="259.308165"/>
     <use style="fill:#666666;stroke:#666666;" x="87.484566" xlink:href="#m402b95be46" y="250.10833"/>
     <use style="fill:#666666;stroke:#666666;" x="88.395947" xlink:href="#m402b95be46" y="249.803928"/>
     <use style="fill:#666666;stroke:#666666;" x="89.307327" xlink:href="#m402b95be46" y="229.269372"/>
     <use style="fill:#666666;stroke:#666666;" x="90.218708" xlink:href="#m402b95be46" y="192.090576"/>
     <use style="fill:#666666;stroke:#666666;" x="91.130089" xlink:href="#m402b95be46" y="159.795121"/>
     <use style="fill:#666666;stroke:#666666;" x="92.04147" xlink:href="#m402b95be46" y="204.409924"/>
     <use style="fill:#666666;stroke:#666666;" x="92.952851" xlink:href="#m402b95be46" y="212.908643"/>
     <use style="fill:#666666;stroke:#666666;" x="93.864232" xlink:href="#m402b95be46" y="215.617715"/>
     <use style="fill:#666666;stroke:#666666;" x="94.775612" xlink:href="#m402b95be46" y="207.619789"/>
     <use style="fill:#666666;stroke:#666666;" x="95.686993" xlink:href="#m402b95be46" y="260.113747"/>
     <use style="fill:#666666;stroke:#666666;" x="96.598374" xlink:href="#m402b95be46" y="269.991121"/>
     <use style="fill:#666666;stroke:#666666;" x="97.509755" xlink:href="#m402b95be46" y="272.148325"/>
     <use style="fill:#666666;stroke:#666666;" x="98.421136" xlink:href="#m402b95be46" y="261.044116"/>
     <use style="fill:#666666;stroke:#666666;" x="99.332517" xlink:href="#m402b95be46" y="245.502424"/>
     <use style="fill:#666666;stroke:#666666;" x="100.243898" xlink:href="#m402b95be46" y="222.644845"/>
     <use style="fill:#666666;stroke:#666666;" x="101.155278" xlink:href="#m402b95be46" y="240.106962"/>
     <use style="fill:#666666;stroke:#666666;" x="102.066659" xlink:href="#m402b95be46" y="248.414172"/>
     <use style="fill:#666666;stroke:#666666;" x="102.97804" xlink:href="#m402b95be46" y="258.814353"/>
     <use style="fill:#666666;stroke:#666666;" x="103.889421" xlink:href="#m402b95be46" y="257.851145"/>
     <use style="fill:#666666;stroke:#666666;" x="104.800802" xlink:href="#m402b95be46" y="264.331877"/>
     <use style="fill:#666666;stroke:#666666;" x="105.712183" xlink:href="#m402b95be46" y="264.895905"/>
     <use style="fill:#666666;stroke:#666666;" x="106.623563" xlink:href="#m402b95be46" y="261.650368"/>
     <use style="fill:#666666;stroke:#666666;" x="107.534944" xlink:href="#m402b95be46" y="265.367307"/>
     <use style="fill:#666666;stroke:#666666;" x="108.446325" xlink:href="#m402b95be46" y="253.171671"/>
     <use style="fill:#666666;stroke:#666666;" x="109.357706" xlink:href="#m402b95be46" y="247.864762"/>
     <use style="fill:#666666;stroke:#666666;" x="110.269087" xlink:href="#m402b95be46" y="196.98571"/>
     <use style="fill:#666666;stroke:#666666;" x="111.180468" xlink:href="#m402b95be46" y="179.834715"/>
     <use style="fill:#666666;stroke:#666666;" x="112.091849" xlink:href="#m402b95be46" y="116.885757"/>
     <use style="fill:#666666;stroke:#666666;" x="113.003229" xlink:href="#m402b95be46" y="124.266725"/>
     <use style="fill:#666666;stroke:#666666;" x="113.91461" xlink:href="#m402b95be46" y="75.703911"/>
     <use style="fill:#666666;stroke:#666666;" x="114.825991" xlink:href="#m402b95be46" y="95.945586"/>
     <use style="fill:#666666;stroke:#666666;" x="115.737372" xlink:href="#m402b95be46" y="131.150608"/>
     <use style="fill:#666666;stroke:#666666;" x="116.648753" xlink:href="#m402b95be46" y="219.707616"/>
     <use style="fill:#666666;stroke:#666666;" x="117.560134" xlink:href="#m402b95be46" y="258.135556"/>
     <use style="fill:#666666;stroke:#666666;" x="118.471514" xlink:href="#m402b95be46" y="272.78503"/>
     <use style="fill:#666666;stroke:#666666;" x="119.382895" xlink:href="#m402b95be46" y="274.70978"/>
     <use style="fill:#666666;stroke:#666666;" x="120.294276" xlink:href="#m402b95be46" y="274.376053"/>
     <use style="fill:#666666;stroke:#666666;" x="121.205657" xlink:href="#m402b95be46" y="272.833716"/>
     <use style="fill:#666666;stroke:#666666;" x="122.117038" xlink:href="#m402b95be46" y="262.382706"/>
     <use style="fill:#666666;stroke:#666666;" x="123.028419" xlink:href="#m402b95be46" y="230.015958"/>
     <use style="fill:#666666;stroke:#666666;" x="123.9398" xlink:href="#m402b95be46" y="152.580336"/>
     <use style="fill:#666666;stroke:#666666;" x="124.85118" xlink:href="#m402b95be46" y="73.502841"/>
     <use style="fill:#666666;stroke:#666666;" x="125.762561" xlink:href="#m402b95be46" y="25.796364"/>
     <use style="fill:#666666;stroke:#666666;" x="126.673942" xlink:href="#m402b95be46" y="40.154806"/>
     <use style="fill:#666666;stroke:#666666;" x="127.585323" xlink:href="#m402b95be46" y="155.245678"/>
     <use style="fill:#666666;stroke:#666666;" x="128.496704" xlink:href="#m402b95be46" y="233.073299"/>
     <use style="fill:#666666;stroke:#666666;" x="129.408085" xlink:href="#m402b95be46" y="260.899193"/>
     <use style="fill:#666666;stroke:#666666;" x="130.319465" xlink:href="#m402b95be46" y="267.087523"/>
     <use style="fill:#666666;stroke:#666666;" x="131.230846" xlink:href="#m402b95be46" y="271.954572"/>
     <use style="fill:#666666;stroke:#666666;" x="132.142227" xlink:href="#m402b95be46" y="262.014125"/>
     <use style="fill:#666666;stroke:#666666;" x="133.053608" xlink:href="#m402b95be46" y="260.737049"/>
     <use style="fill:#666666;stroke:#666666;" x="133.964989" xlink:href="#m402b95be46" y="252.736034"/>
     <use style="fill:#666666;stroke:#666666;" x="134.87637" xlink:href="#m402b95be46" y="246.982712"/>
     <use style="fill:#666666;stroke:#666666;" x="135.787751" xlink:href="#m402b95be46" y="233.66437"/>
     <use style="fill:#666666;stroke:#666666;" x="136.699131" xlink:href="#m402b95be46" y="189.14052"/>
     <use style="fill:#666666;stroke:#666666;" x="137.610512" xlink:href="#m402b95be46" y="92.999702"/>
     <use style="fill:#666666;stroke:#666666;" x="138.521893" xlink:href="#m402b95be46" y="79.294017"/>
     <use style="fill:#666666;stroke:#666666;" x="139.433274" xlink:href="#m402b95be46" y="108.1225"/>
     <use style="fill:#666666;stroke:#666666;" x="140.344655" xlink:href="#m402b95be46" y="195.787194"/>
     <use style="fill:#666666;stroke:#666666;" x="141.256036" xlink:href="#m402b95be46" y="231.622587"/>
     <use style="fill:#666666;stroke:#666666;" x="142.167416" xlink:href="#m402b95be46" y="246.2882"/>
     <use style="fill:#666666;stroke:#666666;" x="143.078797" xlink:href="#m402b95be46" y="260.824723"/>
     <use style="fill:#666666;stroke:#666666;" x="143.990178" xlink:href="#m402b95be46" y="250.795713"/>
     <use style="fill:#666666;stroke:#666666;" x="144.901559" xlink:href="#m402b95be46" y="254.446831"/>
     <use style="fill:#666666;stroke:#666666;" x="145.81294" xlink:href="#m402b95be46" y="260.256589"/>
     <use style="fill:#666666;stroke:#666666;" x="146.724321" xlink:href="#m402b95be46" y="258.399334"/>
     <use style="fill:#666666;stroke:#666666;" x="147.635702" xlink:href="#m402b95be46" y="262.232846"/>
     <use style="fill:#666666;stroke:#666666;" x="148.547082" xlink:href="#m402b95be46" y="259.035742"/>
     <use style="fill:#666666;stroke:#666666;" x="149.458463" xlink:href="#m402b95be46" y="249.660314"/>
     <use style="fill:#666666;stroke:#666666;" x="150.369844" xlink:href="#m402b95be46" y="179.843046"/>
     <use style="fill:#666666;stroke:#666666;" x="151.281225" xlink:href="#m402b95be46" y="165.1527"/>
     <use style="fill:#666666;stroke:#666666;" x="152.192606" xlink:href="#m402b95be46" y="61.477811"/>
     <use style="fill:#666666;stroke:#666666;" x="153.103987" xlink:href="#m402b95be46" y="97.813177"/>
     <use style="fill:#666666;stroke:#666666;" x="154.015367" xlink:href="#m402b95be46" y="152.576232"/>
     <use style="fill:#666666;stroke:#666666;" x="154.926748" xlink:href="#m402b95be46" y="238.242747"/>
     <use style="fill:#666666;stroke:#666666;" x="155.838129" xlink:href="#m402b95be46" y="252.548341"/>
     <use style="fill:#666666;stroke:#666666;" x="156.74951" xlink:href="#m402b95be46" y="229.332345"/>
     <use style="fill:#666666;stroke:#666666;" x="157.660891" xlink:href="#m402b95be46" y="181.733073"/>
     <use style="fill:#666666;stroke:#666666;" x="158.572272" xlink:href="#m402b95be46" y="133.937878"/>
     <use style="fill:#666666;stroke:#666666;" x="159.483653" xlink:href="#m402b95be46" y="151.547096"/>
     <use style="fill:#666666;stroke:#666666;" x="160.395033" xlink:href="#m402b95be46" y="205.448775"/>
     <use style="fill:#666666;stroke:#666666;" x="161.306414" xlink:href="#m402b95be46" y="237.418066"/>
     <use style="fill:#666666;stroke:#666666;" x="162.217795" xlink:href="#m402b95be46" y="235.900665"/>
     <use style="fill:#666666;stroke:#666666;" x="163.129176" xlink:href="#m402b95be46" y="224.831357"/>
     <use style="fill:#666666;stroke:#666666;" x="164.040557" xlink:href="#m402b95be46" y="214.663939"/>
     <use style="fill:#666666;stroke:#666666;" x="164.951938" xlink:href="#m402b95be46" y="243.305372"/>
     <use style="fill:#666666;stroke:#666666;" x="165.863318" xlink:href="#m402b95be46" y="257.025181"/>
     <use style="fill:#666666;stroke:#666666;" x="166.774699" xlink:href="#m402b95be46" y="255.055192"/>
     <use style="fill:#666666;stroke:#666666;" x="167.68608" xlink:href="#m402b95be46" y="256.526499"/>
     <use style="fill:#666666;stroke:#666666;" x="168.597461" xlink:href="#m402b95be46" y="261.057186"/>
     <use style="fill:#666666;stroke:#666666;" x="169.508842" xlink:href="#m402b95be46" y="258.101589"/>
     <use style="fill:#666666;stroke:#666666;" x="170.420223" xlink:href="#m402b95be46" y="251.540348"/>
     <use style="fill:#666666;stroke:#666666;" x="171.331604" xlink:href="#m402b95be46" y="257.876689"/>
     <use style="fill:#666666;stroke:#666666;" x="172.242984" xlink:href="#m402b95be46" y="252.855883"/>
     <use style="fill:#666666;stroke:#666666;" x="173.154365" xlink:href="#m402b95be46" y="221.301162"/>
     <use style="fill:#666666;stroke:#666666;" x="174.065746" xlink:href="#m402b95be46" y="216.764678"/>
     <use style="fill:#666666;stroke:#666666;" x="174.977127" xlink:href="#m402b95be46" y="221.163387"/>
     <use style="fill:#666666;stroke:#666666;" x="175.888508" xlink:href="#m402b95be46" y="145.605443"/>
     <use style="fill:#666666;stroke:#666666;" x="176.799889" xlink:href="#m402b95be46" y="137.053132"/>
     <use style="fill:#666666;stroke:#666666;" x="177.711269" xlink:href="#m402b95be46" y="198.577722"/>
     <use style="fill:#666666;stroke:#666666;" x="178.62265" xlink:href="#m402b95be46" y="185.506002"/>
     <use style="fill:#666666;stroke:#666666;" x="179.534031" xlink:href="#m402b95be46" y="231.617582"/>
     <use style="fill:#666666;stroke:#666666;" x="180.445412" xlink:href="#m402b95be46" y="231.126931"/>
     <use style="fill:#666666;stroke:#666666;" x="181.356793" xlink:href="#m402b95be46" y="237.971796"/>
     <use style="fill:#666666;stroke:#666666;" x="182.268174" xlink:href="#m402b95be46" y="223.629817"/>
     <use style="fill:#666666;stroke:#666666;" x="183.179555" xlink:href="#m402b95be46" y="215.252233"/>
     <use style="fill:#666666;stroke:#666666;" x="184.090935" xlink:href="#m402b95be46" y="231.887698"/>
     <use style="fill:#666666;stroke:#666666;" x="185.002316" xlink:href="#m402b95be46" y="238.33236"/>
     <use style="fill:#666666;stroke:#666666;" x="185.913697" xlink:href="#m402b95be46" y="215.246959"/>
     <use style="fill:#666666;stroke:#666666;" x="186.825078" xlink:href="#m402b95be46" y="217.257912"/>
     <use style="fill:#666666;stroke:#666666;" x="187.736459" xlink:href="#m402b95be46" y="214.11724"/>
     <use style="fill:#666666;stroke:#666666;" x="188.64784" xlink:href="#m402b95be46" y="229.806508"/>
     <use style="fill:#666666;stroke:#666666;" x="189.55922" xlink:href="#m402b95be46" y="217.481501"/>
     <use style="fill:#666666;stroke:#666666;" x="190.470601" xlink:href="#m402b95be46" y="214.184344"/>
     <use style="fill:#666666;stroke:#666666;" x="191.381982" xlink:href="#m402b95be46" y="165.112498"/>
     <use style="fill:#666666;stroke:#666666;" x="192.293363" xlink:href="#m402b95be46" y="202.678464"/>
     <use style="fill:#666666;stroke:#666666;" x="193.204744" xlink:href="#m402b95be46" y="138.413624"/>
     <use style="fill:#666666;stroke:#666666;" x="194.116125" xlink:href="#m402b95be46" y="218.090515"/>
     <use style="fill:#666666;stroke:#666666;" x="195.027506" xlink:href="#m402b95be46" y="223.950896"/>
     <use style="fill:#666666;stroke:#666666;" x="195.938886" xlink:href="#m402b95be46" y="210.792961"/>
     <use style="fill:#666666;stroke:#666666;" x="196.850267" xlink:href="#m402b95be46" y="172.559977"/>
     <use style="fill:#666666;stroke:#666666;" x="197.761648" xlink:href="#m402b95be46" y="139.228137"/>
     <use style="fill:#666666;stroke:#666666;" x="198.673029" xlink:href="#m402b95be46" y="217.331746"/>
     <use style="fill:#666666;stroke:#666666;" x="199.58441" xlink:href="#m402b95be46" y="241.470826"/>
     <use style="fill:#666666;stroke:#666666;" x="200.495791" xlink:href="#m402b95be46" y="243.70253"/>
     <use style="fill:#666666;stroke:#666666;" x="201.407171" xlink:href="#m402b95be46" y="225.834995"/>
     <use style="fill:#666666;stroke:#666666;" x="202.318552" xlink:href="#m402b95be46" y="200.389369"/>
     <use style="fill:#666666;stroke:#666666;" x="203.229933" xlink:href="#m402b95be46" y="214.079014"/>
     <use style="fill:#666666;stroke:#666666;" x="204.141314" xlink:href="#m402b95be46" y="186.448788"/>
     <use style="fill:#666666;stroke:#666666;" x="205.052695" xlink:href="#m402b95be46" y="242.464744"/>
     <use style="fill:#666666;stroke:#666666;" x="205.964076" xlink:href="#m402b95be46" y="251.871894"/>
     <use style="fill:#666666;stroke:#666666;" x="206.875457" xlink:href="#m402b95be46" y="240.925717"/>
     <use style="fill:#666666;stroke:#666666;" x="207.786837" xlink:href="#m402b95be46" y="240.042039"/>
     <use style="fill:#666666;stroke:#666666;" x="208.698218" xlink:href="#m402b95be46" y="222.810801"/>
     <use style="fill:#666666;stroke:#666666;" x="209.609599" xlink:href="#m402b95be46" y="229.401001"/>
     <use style="fill:#666666;stroke:#666666;" x="210.52098" xlink:href="#m402b95be46" y="227.34756"/>
     <use style="fill:#666666;stroke:#666666;" x="211.432361" xlink:href="#m402b95be46" y="221.057858"/>
     <use style="fill:#666666;stroke:#666666;" x="212.343742" xlink:href="#m402b95be46" y="212.390033"/>
     <use style="fill:#666666;stroke:#666666;" x="213.255122" xlink:href="#m402b95be46" y="203.386802"/>
     <use style="fill:#666666;stroke:#666666;" x="214.166503" xlink:href="#m402b95be46" y="175.160615"/>
     <use style="fill:#666666;stroke:#666666;" x="215.077884" xlink:href="#m402b95be46" y="210.967354"/>
     <use style="fill:#666666;stroke:#666666;" x="215.989265" xlink:href="#m402b95be46" y="229.111133"/>
     <use style="fill:#666666;stroke:#666666;" x="216.900646" xlink:href="#m402b95be46" y="243.053197"/>
     <use style="fill:#666666;stroke:#666666;" x="217.812027" xlink:href="#m402b95be46" y="248.747403"/>
     <use style="fill:#666666;stroke:#666666;" x="218.723408" xlink:href="#m402b95be46" y="247.648361"/>
     <use style="fill:#666666;stroke:#666666;" x="219.634788" xlink:href="#m402b95be46" y="258.100369"/>
     <use style="fill:#666666;stroke:#666666;" x="220.546169" xlink:href="#m402b95be46" y="253.791075"/>
     <use style="fill:#666666;stroke:#666666;" x="221.45755" xlink:href="#m402b95be46" y="266.471325"/>
     <use style="fill:#666666;stroke:#666666;" x="222.368931" xlink:href="#m402b95be46" y="262.810283"/>
     <use style="fill:#666666;stroke:#666666;" x="223.280312" xlink:href="#m402b95be46" y="247.54973"/>
     <use style="fill:#666666;stroke:#666666;" x="224.191693" xlink:href="#m402b95be46" y="210.544233"/>
     <use style="fill:#666666;stroke:#666666;" x="225.103073" xlink:href="#m402b95be46" y="250.195403"/>
     <use style="fill:#666666;stroke:#666666;" x="226.014454" xlink:href="#m402b95be46" y="261.589982"/>
     <use style="fill:#666666;stroke:#666666;" x="226.925835" xlink:href="#m402b95be46" y="270.100621"/>
     <use style="fill:#666666;stroke:#666666;" x="227.837216" xlink:href="#m402b95be46" y="270.487344"/>
     <use style="fill:#666666;stroke:#666666;" x="228.748597" xlink:href="#m402b95be46" y="262.739287"/>
     <use style="fill:#666666;stroke:#666666;" x="229.659978" xlink:href="#m402b95be46" y="266.755404"/>
     <use style="fill:#666666;stroke:#666666;" x="230.571359" xlink:href="#m402b95be46" y="261.306815"/>
     <use style="fill:#666666;stroke:#666666;" x="231.482739" xlink:href="#m402b95be46" y="254.520966"/>
     <use style="fill:#666666;stroke:#666666;" x="232.39412" xlink:href="#m402b95be46" y="239.882435"/>
     <use style="fill:#666666;stroke:#666666;" x="233.305501" xlink:href="#m402b95be46" y="227.392298"/>
     <use style="fill:#666666;stroke:#666666;" x="234.216882" xlink:href="#m402b95be46" y="202.553634"/>
     <use style="fill:#666666;stroke:#666666;" x="235.128263" xlink:href="#m402b95be46" y="163.249551"/>
     <use style="fill:#666666;stroke:#666666;" x="236.039644" xlink:href="#m402b95be46" y="127.071855"/>
     <use style="fill:#666666;stroke:#666666;" x="236.951024" xlink:href="#m402b95be46" y="207.716635"/>
     <use style="fill:#666666;stroke:#666666;" x="237.862405" xlink:href="#m402b95be46" y="218.502889"/>
     <use style="fill:#666666;stroke:#666666;" x="238.773786" xlink:href="#m402b95be46" y="237.246014"/>
     <use style="fill:#666666;stroke:#666666;" x="239.685167" xlink:href="#m402b95be46" y="233.705693"/>
     <use style="fill:#666666;stroke:#666666;" x="240.596548" xlink:href="#m402b95be46" y="242.340942"/>
     <use style="fill:#666666;stroke:#666666;" x="241.507929" xlink:href="#m402b95be46" y="251.093498"/>
     <use style="fill:#666666;stroke:#666666;" x="242.41931" xlink:href="#m402b95be46" y="248.200527"/>
     <use style="fill:#666666;stroke:#666666;" x="243.33069" xlink:href="#m402b95be46" y="240.3869"/>
     <use style="fill:#666666;stroke:#666666;" x="244.242071" xlink:href="#m402b95be46" y="245.483826"/>
     <use style="fill:#666666;stroke:#666666;" x="245.153452" xlink:href="#m402b95be46" y="253.322384"/>
     <use style="fill:#666666;stroke:#666666;" x="246.064833" xlink:href="#m402b95be46" y="254.519127"/>
     <use style="fill:#666666;stroke:#666666;" x="246.976214" xlink:href="#m402b95be46" y="249.400228"/>
     <use style="fill:#666666;stroke:#666666;" x="247.887595" xlink:href="#m402b95be46" y="250.670143"/>
     <use style="fill:#666666;stroke:#666666;" x="248.798976" xlink:href="#m402b95be46" y="252.682028"/>
     <use style="fill:#666666;stroke:#666666;" x="249.710356" xlink:href="#m402b95be46" y="240.395877"/>
     <use style="fill:#666666;stroke:#666666;" x="250.621737" xlink:href="#m402b95be46" y="222.182226"/>
     <use style="fill:#666666;stroke:#666666;" x="251.533118" xlink:href="#m402b95be46" y="228.573817"/>
     <use style="fill:#666666;stroke:#666666;" x="252.444499" xlink:href="#m402b95be46" y="246.865697"/>
     <use style="fill:#666666;stroke:#666666;" x="253.35588" xlink:href="#m402b95be46" y="243.841873"/>
     <use style="fill:#666666;stroke:#666666;" x="254.267261" xlink:href="#m402b95be46" y="255.252683"/>
     <use style="fill:#666666;stroke:#666666;" x="255.178641" xlink:href="#m402b95be46" y="263.635672"/>
     <use style="fill:#666666;stroke:#666666;" x="256.090022" xlink:href="#m402b95be46" y="260.850379"/>
     <use style="fill:#666666;stroke:#666666;" x="257.001403" xlink:href="#m402b95be46" y="249.798255"/>
     <use style="fill:#666666;stroke:#666666;" x="257.912784" xlink:href="#m402b95be46" y="266.482961"/>
     <use style="fill:#666666;stroke:#666666;" x="258.824165" xlink:href="#m402b95be46" y="263.068949"/>
     <use style="fill:#666666;stroke:#666666;" x="259.735546" xlink:href="#m402b95be46" y="261.240427"/>
     <use style="fill:#666666;stroke:#666666;" x="260.646927" xlink:href="#m402b95be46" y="259.334082"/>
     <use style="fill:#666666;stroke:#666666;" x="261.558307" xlink:href="#m402b95be46" y="245.094645"/>
     <use style="fill:#666666;stroke:#666666;" x="262.469688" xlink:href="#m402b95be46" y="187.497478"/>
     <use style="fill:#666666;stroke:#666666;" x="263.381069" xlink:href="#m402b95be46" y="134.882223"/>
     <use style="fill:#666666;stroke:#666666;" x="264.29245" xlink:href="#m402b95be46" y="156.905104"/>
     <use style="fill:#666666;stroke:#666666;" x="265.203831" xlink:href="#m402b95be46" y="199.234331"/>
     <use style="fill:#666666;stroke:#666666;" x="266.115212" xlink:href="#m402b95be46" y="214.854163"/>
     <use style="fill:#666666;stroke:#666666;" x="267.026592" xlink:href="#m402b95be46" y="255.827518"/>
     <use style="fill:#666666;stroke:#666666;" x="267.937973" xlink:href="#m402b95be46" y="254.207827"/>
     <use style="fill:#666666;stroke:#666666;" x="268.849354" xlink:href="#m402b95be46" y="255.781666"/>
     <use style="fill:#666666;stroke:#666666;" x="269.760735" xlink:href="#m402b95be46" y="260.465631"/>
     <use style="fill:#666666;stroke:#666666;" x="270.672116" xlink:href="#m402b95be46" y="258.123905"/>
     <use style="fill:#666666;stroke:#666666;" x="271.583497" xlink:href="#m402b95be46" y="226.135292"/>
     <use style="fill:#666666;stroke:#666666;" x="272.494878" xlink:href="#m402b95be46" y="186.709179"/>
     <use style="fill:#666666;stroke:#666666;" x="273.406258" xlink:href="#m402b95be46" y="177.417567"/>
     <use style="fill:#666666;stroke:#666666;" x="274.317639" xlink:href="#m402b95be46" y="173.604706"/>
     <use style="fill:#666666;stroke:#666666;" x="275.22902" xlink:href="#m402b95be46" y="213.430341"/>
     <use style="fill:#666666;stroke:#666666;" x="276.140401" xlink:href="#m402b95be46" y="236.568989"/>
     <use style="fill:#666666;stroke:#666666;" x="277.051782" xlink:href="#m402b95be46" y="239.369768"/>
     <use style="fill:#666666;stroke:#666666;" x="277.963163" xlink:href="#m402b95be46" y="239.0192"/>
     <use style="fill:#666666;stroke:#666666;" x="278.874543" xlink:href="#m402b95be46" y="241.563889"/>
     <use style="fill:#666666;stroke:#666666;" x="279.785924" xlink:href="#m402b95be46" y="242.807282"/>
     <use style="fill:#666666;stroke:#666666;" x="280.697305" xlink:href="#m402b95be46" y="239.41794"/>
     <use style="fill:#666666;stroke:#666666;" x="281.608686" xlink:href="#m402b95be46" y="243.519184"/>
     <use style="fill:#666666;stroke:#666666;" x="282.520067" xlink:href="#m402b95be46" y="222.455617"/>
     <use style="fill:#666666;stroke:#666666;" x="283.431448" xlink:href="#m402b95be46" y="212.567019"/>
     <use style="fill:#666666;stroke:#666666;" x="284.342829" xlink:href="#m402b95be46" y="206.286468"/>
     <use style="fill:#666666;stroke:#666666;" x="285.254209" xlink:href="#m402b95be46" y="219.357805"/>
     <use style="fill:#666666;stroke:#666666;" x="286.16559" xlink:href="#m402b95be46" y="212.971048"/>
     <use style="fill:#666666;stroke:#666666;" x="287.076971" xlink:href="#m402b95be46" y="191.505142"/>
     <use style="fill:#666666;stroke:#666666;" x="287.988352" xlink:href="#m402b95be46" y="213.700674"/>
     <use style="fill:#666666;stroke:#666666;" x="288.899733" xlink:href="#m402b95be46" y="240.34958"/>
     <use style="fill:#666666;stroke:#666666;" x="289.811114" xlink:href="#m402b95be46" y="255.677139"/>
     <use style="fill:#666666;stroke:#666666;" x="290.722494" xlink:href="#m402b95be46" y="248.235184"/>
     <use style="fill:#666666;stroke:#666666;" x="291.633875" xlink:href="#m402b95be46" y="255.875986"/>
     <use style="fill:#666666;stroke:#666666;" x="292.545256" xlink:href="#m402b95be46" y="268.684709"/>
     <use style="fill:#666666;stroke:#666666;" x="293.456637" xlink:href="#m402b95be46" y="268.091331"/>
     <use style="fill:#666666;stroke:#666666;" x="294.368018" xlink:href="#m402b95be46" y="269.352824"/>
     <use style="fill:#666666;stroke:#666666;" x="295.279399" xlink:href="#m402b95be46" y="258.904124"/>
     <use style="fill:#666666;stroke:#666666;" x="296.19078" xlink:href="#m402b95be46" y="268.839672"/>
     <use style="fill:#666666;stroke:#666666;" x="297.10216" xlink:href="#m402b95be46" y="270.702599"/>
     <use style="fill:#666666;stroke:#666666;" x="298.013541" xlink:href="#m402b95be46" y="263.141482"/>
     <use style="fill:#666666;stroke:#666666;" x="298.924922" xlink:href="#m402b95be46" y="269.841211"/>
     <use style="fill:#666666;stroke:#666666;" x="299.836303" xlink:href="#m402b95be46" y="269.094936"/>
     <use style="fill:#666666;stroke:#666666;" x="300.747684" xlink:href="#m402b95be46" y="270.409884"/>
     <use style="fill:#666666;stroke:#666666;" x="301.659065" xlink:href="#m402b95be46" y="268.440398"/>
     <use style="fill:#666666;stroke:#666666;" x="302.570445" xlink:href="#m402b95be46" y="269.63834"/>
     <use style="fill:#666666;stroke:#666666;" x="303.481826" xlink:href="#m402b95be46" y="269.416098"/>
     <use style="fill:#666666;stroke:#666666;" x="304.393207" xlink:href="#m402b95be46" y="270.290213"/>
     <use style="fill:#666666;stroke:#666666;" x="305.304588" xlink:href="#m402b95be46" y="267.365108"/>
     <use style="fill:#666666;stroke:#666666;" x="306.215969" xlink:href="#m402b95be46" y="267.650364"/>
     <use style="fill:#666666;stroke:#666666;" x="307.12735" xlink:href="#m402b95be46" y="265.319966"/>
     <use style="fill:#666666;stroke:#666666;" x="308.038731" xlink:href="#m402b95be46" y="255.047603"/>
     <use style="fill:#666666;stroke:#666666;" x="308.950111" xlink:href="#m402b95be46" y="246.743384"/>
     <use style="fill:#666666;stroke:#666666;" x="309.861492" xlink:href="#m402b95be46" y="244.788224"/>
     <use style="fill:#666666;stroke:#666666;" x="310.772873" xlink:href="#m402b95be46" y="218.531577"/>
     <use style="fill:#666666;stroke:#666666;" x="311.684254" xlink:href="#m402b95be46" y="229.132981"/>
     <use style="fill:#666666;stroke:#666666;" x="312.595635" xlink:href="#m402b95be46" y="253.13345"/>
     <use style="fill:#666666;stroke:#666666;" x="313.507016" xlink:href="#m402b95be46" y="242.630708"/>
     <use style="fill:#666666;stroke:#666666;" x="314.418396" xlink:href="#m402b95be46" y="234.043442"/>
     <use style="fill:#666666;stroke:#666666;" x="315.329777" xlink:href="#m402b95be46" y="237.685101"/>
     <use style="fill:#666666;stroke:#666666;" x="316.241158" xlink:href="#m402b95be46" y="224.233204"/>
     <use style="fill:#666666;stroke:#666666;" x="317.152539" xlink:href="#m402b95be46" y="214.195965"/>
     <use style="fill:#666666;stroke:#666666;" x="318.06392" xlink:href="#m402b95be46" y="236.371073"/>
     <use style="fill:#666666;stroke:#666666;" x="318.975301" xlink:href="#m402b95be46" y="247.206179"/>
     <use style="fill:#666666;stroke:#666666;" x="319.886682" xlink:href="#m402b95be46" y="257.905835"/>
     <use style="fill:#666666;stroke:#666666;" x="320.798062" xlink:href="#m402b95be46" y="265.106022"/>
     <use style="fill:#666666;stroke:#666666;" x="321.709443" xlink:href="#m402b95be46" y="237.573375"/>
     <use style="fill:#666666;stroke:#666666;" x="322.620824" xlink:href="#m402b95be46" y="229.300469"/>
     <use style="fill:#666666;stroke:#666666;" x="323.532205" xlink:href="#m402b95be46" y="228.534989"/>
     <use style="fill:#666666;stroke:#666666;" x="324.443586" xlink:href="#m402b95be46" y="242.207927"/>
     <use style="fill:#666666;stroke:#666666;" x="325.354967" xlink:href="#m402b95be46" y="254.002304"/>
     <use style="fill:#666666;stroke:#666666;" x="326.266347" xlink:href="#m402b95be46" y="263.94271"/>
     <use style="fill:#666666;stroke:#666666;" x="327.177728" xlink:href="#m402b95be46" y="259.018646"/>
     <use style="fill:#666666;stroke:#666666;" x="328.089109" xlink:href="#m402b95be46" y="257.92718"/>
     <use style="fill:#666666;stroke:#666666;" x="329.00049" xlink:href="#m402b95be46" y="222.948198"/>
     <use style="fill:#666666;stroke:#666666;" x="329.911871" xlink:href="#m402b95be46" y="213.950424"/>
     <use style="fill:#666666;stroke:#666666;" x="330.823252" xlink:href="#m402b95be46" y="219.834508"/>
     <use style="fill:#666666;stroke:#666666;" x="331.734633" xlink:href="#m402b95be46" y="191.783769"/>
     <use style="fill:#666666;stroke:#666666;" x="332.646013" xlink:href="#m402b95be46" y="216.062805"/>
     <use style="fill:#666666;stroke:#666666;" x="333.557394" xlink:href="#m402b95be46" y="231.948996"/>
     <use style="fill:#666666;stroke:#666666;" x="334.468775" xlink:href="#m402b95be46" y="237.160817"/>
     <use style="fill:#666666;stroke:#666666;" x="335.380156" xlink:href="#m402b95be46" y="231.738641"/>
     <use style="fill:#666666;stroke:#666666;" x="336.291537" xlink:href="#m402b95be46" y="231.324654"/>
     <use style="fill:#666666;stroke:#666666;" x="337.202918" xlink:href="#m402b95be46" y="236.278225"/>
     <use style="fill:#666666;stroke:#666666;" x="338.114298" xlink:href="#m402b95be46" y="222.389938"/>
     <use style="fill:#666666;stroke:#666666;" x="339.025679" xlink:href="#m402b95be46" y="201.43273"/>
     <use style="fill:#666666;stroke:#666666;" x="339.93706" xlink:href="#m402b95be46" y="210.68678"/>
     <use style="fill:#666666;stroke:#666666;" x="340.848441" xlink:href="#m402b95be46" y="230.319308"/>
     <use style="fill:#666666;stroke:#666666;" x="341.759822" xlink:href="#m402b95be46" y="222.386023"/>
     <use style="fill:#666666;stroke:#666666;" x="342.671203" xlink:href="#m402b95be46" y="200.339958"/>
     <use style="fill:#666666;stroke:#666666;" x="343.582584" xlink:href="#m402b95be46" y="152.169042"/>
     <use style="fill:#666666;stroke:#666666;" x="344.493964" xlink:href="#m402b95be46" y="84.390038"/>
     <use style="fill:#666666;stroke:#666666;" x="345.405345" xlink:href="#m402b95be46" y="114.286755"/>
     <use style="fill:#666666;stroke:#666666;" x="346.316726" xlink:href="#m402b95be46" y="96.737957"/>
     <use style="fill:#666666;stroke:#666666;" x="347.228107" xlink:href="#m402b95be46" y="122.108315"/>
     <use style="fill:#666666;stroke:#666666;" x="348.139488" xlink:href="#m402b95be46" y="161.606512"/>
     <use style="fill:#666666;stroke:#666666;" x="349.050869" xlink:href="#m402b95be46" y="228.454324"/>
     <use style="fill:#666666;stroke:#666666;" x="349.962249" xlink:href="#m402b95be46" y="234.254662"/>
     <use style="fill:#666666;stroke:#666666;" x="350.87363" xlink:href="#m402b95be46" y="232.565948"/>
     <use style="fill:#666666;stroke:#666666;" x="351.785011" xlink:href="#m402b95be46" y="249.433959"/>
     <use style="fill:#666666;stroke:#666666;" x="352.696392" xlink:href="#m402b95be46" y="246.225889"/>
     <use style="fill:#666666;stroke:#666666;" x="353.607773" xlink:href="#m402b95be46" y="240.436349"/>
     <use style="fill:#666666;stroke:#666666;" x="354.519154" xlink:href="#m402b95be46" y="247.352491"/>
     <use style="fill:#666666;stroke:#666666;" x="355.430535" xlink:href="#m402b95be46" y="244.000384"/>
     <use style="fill:#666666;stroke:#666666;" x="356.341915" xlink:href="#m402b95be46" y="247.807588"/>
     <use style="fill:#666666;stroke:#666666;" x="357.253296" xlink:href="#m402b95be46" y="241.544417"/>
     <use style="fill:#666666;stroke:#666666;" x="358.164677" xlink:href="#m402b95be46" y="224.048274"/>
     <use style="fill:#666666;stroke:#666666;" x="359.076058" xlink:href="#m402b95be46" y="226.761954"/>
     <use style="fill:#666666;stroke:#666666;" x="359.987439" xlink:href="#m402b95be46" y="198.171064"/>
     <use style="fill:#666666;stroke:#666666;" x="360.89882" xlink:href="#m402b95be46" y="151.416537"/>
     <use style="fill:#666666;stroke:#666666;" x="361.8102" xlink:href="#m402b95be46" y="223.103395"/>
     <use style="fill:#666666;stroke:#666666;" x="362.721581" xlink:href="#m402b95be46" y="232.650542"/>
     <use style="fill:#666666;stroke:#666666;" x="363.632962" xlink:href="#m402b95be46" y="256.761093"/>
     <use style="fill:#666666;stroke:#666666;" x="364.544343" xlink:href="#m402b95be46" y="254.947016"/>
     <use style="fill:#666666;stroke:#666666;" x="365.455724" xlink:href="#m402b95be46" y="258.579964"/>
     <use style="fill:#666666;stroke:#666666;" x="366.367105" xlink:href="#m402b95be46" y="261.682321"/>
     <use style="fill:#666666;stroke:#666666;" x="367.278486" xlink:href="#m402b95be46" y="262.758923"/>
     <use style="fill:#666666;stroke:#666666;" x="368.189866" xlink:href="#m402b95be46" y="260.562537"/>
     <use style="fill:#666666;stroke:#666666;" x="369.101247" xlink:href="#m402b95be46" y="251.340598"/>
     <use style="fill:#666666;stroke:#666666;" x="370.012628" xlink:href="#m402b95be46" y="251.867866"/>
     <use style="fill:#666666;stroke:#666666;" x="370.924009" xlink:href="#m402b95be46" y="260.559406"/>
     <use style="fill:#666666;stroke:#666666;" x="371.83539" xlink:href="#m402b95be46" y="253.381245"/>
     <use style="fill:#666666;stroke:#666666;" x="372.746771" xlink:href="#m402b95be46" y="245.777491"/>
     <use style="fill:#666666;stroke:#666666;" x="373.658151" xlink:href="#m402b95be46" y="257.211172"/>
     <use style="fill:#666666;stroke:#666666;" x="374.569532" xlink:href="#m402b95be46" y="258.982594"/>
     <use style="fill:#666666;stroke:#666666;" x="375.480913" xlink:href="#m402b95be46" y="257.274992"/>
     <use style="fill:#666666;stroke:#666666;" x="376.392294" xlink:href="#m402b95be46" y="266.190262"/>
     <use style="fill:#666666;stroke:#666666;" x="377.303675" xlink:href="#m402b95be46" y="255.272307"/>
     <use style="fill:#666666;stroke:#666666;" x="378.215056" xlink:href="#m402b95be46" y="239.04891"/>
     <use style="fill:#666666;stroke:#666666;" x="379.126437" xlink:href="#m402b95be46" y="214.074032"/>
     <use style="fill:#666666;stroke:#666666;" x="380.037817" xlink:href="#m402b95be46" y="183.112672"/>
     <use style="fill:#666666;stroke:#666666;" x="380.949198" xlink:href="#m402b95be46" y="193.680266"/>
     <use style="fill:#666666;stroke:#666666;" x="381.860579" xlink:href="#m402b95be46" y="182.694415"/>
     <use style="fill:#666666;stroke:#666666;" x="382.77196" xlink:href="#m402b95be46" y="180.820784"/>
     <use style="fill:#666666;stroke:#666666;" x="383.683341" xlink:href="#m402b95be46" y="211.447973"/>
     <use style="fill:#666666;stroke:#666666;" x="384.594722" xlink:href="#m402b95be46" y="136.314666"/>
     <use style="fill:#666666;stroke:#666666;" x="385.506102" xlink:href="#m402b95be46" y="157.786686"/>
     <use style="fill:#666666;stroke:#666666;" x="386.417483" xlink:href="#m402b95be46" y="188.266614"/>
     <use style="fill:#666666;stroke:#666666;" x="387.328864" xlink:href="#m402b95be46" y="201.322079"/>
     <use style="fill:#666666;stroke:#666666;" x="388.240245" xlink:href="#m402b95be46" y="227.681156"/>
     <use style="fill:#666666;stroke:#666666;" x="389.151626" xlink:href="#m402b95be46" y="226.456588"/>
     <use style="fill:#666666;stroke:#666666;" x="390.063007" xlink:href="#m402b95be46" y="232.454318"/>
     <use style="fill:#666666;stroke:#666666;" x="390.974388" xlink:href="#m402b95be46" y="237.67801"/>
     <use style="fill:#666666;stroke:#666666;" x="391.885768" xlink:href="#m402b95be46" y="242.981949"/>
     <use style="fill:#666666;stroke:#666666;" x="392.797149" xlink:href="#m402b95be46" y="247.738626"/>
     <use style="fill:#666666;stroke:#666666;" x="393.70853" xlink:href="#m402b95be46" y="245.648938"/>
     <use style="fill:#666666;stroke:#666666;" x="394.619911" xlink:href="#m402b95be46" y="244.773374"/>
     <use style="fill:#666666;stroke:#666666;" x="395.531292" xlink:href="#m402b95be46" y="238.779917"/>
     <use style="fill:#666666;stroke:#666666;" x="396.442673" xlink:href="#m402b95be46" y="226.12718"/>
     <use style="fill:#666666;stroke:#666666;" x="397.354053" xlink:href="#m402b95be46" y="198.694245"/>
     <use style="fill:#666666;stroke:#666666;" x="398.265434" xlink:href="#m402b95be46" y="208.101145"/>
     <use style="fill:#666666;stroke:#666666;" x="399.176815" xlink:href="#m402b95be46" y="190.029701"/>
     <use style="fill:#666666;stroke:#666666;" x="400.088196" xlink:href="#m402b95be46" y="218.720775"/>
     <use style="fill:#666666;stroke:#666666;" x="400.999577" xlink:href="#m402b95be46" y="205.085077"/>
     <use style="fill:#666666;stroke:#666666;" x="401.910958" xlink:href="#m402b95be46" y="219.193427"/>
     <use style="fill:#666666;stroke:#666666;" x="402.822339" xlink:href="#m402b95be46" y="200.262268"/>
     <use style="fill:#666666;stroke:#666666;" x="403.733719" xlink:href="#m402b95be46" y="192.776669"/>
     <use style="fill:#666666;stroke:#666666;" x="404.6451" xlink:href="#m402b95be46" y="220.295367"/>
     <use style="fill:#666666;stroke:#666666;" x="405.556481" xlink:href="#m402b95be46" y="226.750245"/>
     <use style="fill:#666666;stroke:#666666;" x="406.467862" xlink:href="#m402b95be46" y="223.423479"/>
     <use style="fill:#666666;stroke:#666666;" x="407.379243" xlink:href="#m402b95be46" y="241.758606"/>
     <use style="fill:#666666;stroke:#666666;" x="408.290624" xlink:href="#m402b95be46" y="237.551124"/>
     <use style="fill:#666666;stroke:#666666;" x="409.202004" xlink:href="#m402b95be46" y="249.746199"/>
     <use style="fill:#666666;stroke:#666666;" x="410.113385" xlink:href="#m402b95be46" y="256.065521"/>
     <use style="fill:#666666;stroke:#666666;" x="411.024766" xlink:href="#m402b95be46" y="254.669565"/>
     <use style="fill:#666666;stroke:#666666;" x="411.936147" xlink:href="#m402b95be46" y="252.541991"/>
     <use style="fill:#666666;stroke:#666666;" x="412.847528" xlink:href="#m402b95be46" y="262.489854"/>
     <use style="fill:#666666;stroke:#666666;" x="413.758909" xlink:href="#m402b95be46" y="244.482675"/>
     <use style="fill:#666666;stroke:#666666;" x="414.67029" xlink:href="#m402b95be46" y="248.667447"/>
     <use style="fill:#666666;stroke:#666666;" x="415.58167" xlink:href="#m402b95be46" y="257.965699"/>
     <use style="fill:#666666;stroke:#666666;" x="416.493051" xlink:href="#m402b95be46" y="247.266202"/>
     <use style="fill:#666666;stroke:#666666;" x="417.404432" xlink:href="#m402b95be46" y="243.285891"/>
     <use style="fill:#666666;stroke:#666666;" x="418.315813" xlink:href="#m402b95be46" y="228.896416"/>
     <use style="fill:#666666;stroke:#666666;" x="419.227194" xlink:href="#m402b95be46" y="219.860794"/>
     <use style="fill:#666666;stroke:#666666;" x="420.138575" xlink:href="#m402b95be46" y="239.738027"/>
     <use style="fill:#666666;stroke:#666666;" x="421.049955" xlink:href="#m402b95be46" y="239.643209"/>
     <use style="fill:#666666;stroke:#666666;" x="421.961336" xlink:href="#m402b95be46" y="230.651235"/>
     <use style="fill:#666666;stroke:#666666;" x="422.872717" xlink:href="#m402b95be46" y="243.691709"/>
     <use style="fill:#666666;stroke:#666666;" x="423.784098" xlink:href="#m402b95be46" y="240.290352"/>
     <use style="fill:#666666;stroke:#666666;" x="424.695479" xlink:href="#m402b95be46" y="266.425087"/>
     <use style="fill:#666666;stroke:#666666;" x="425.60686" xlink:href="#m402b95be46" y="268.001237"/>
     <use style="fill:#666666;stroke:#666666;" x="426.518241" xlink:href="#m402b95be46" y="268.312731"/>
     <use style="fill:#666666;stroke:#666666;" x="427.429621" xlink:href="#m402b95be46" y="267.571937"/>
     <use style="fill:#666666;stroke:#666666;" x="428.341002" xlink:href="#m402b95be46" y="267.500943"/>
     <use style="fill:#666666;stroke:#666666;" x="429.252383" xlink:href="#m402b95be46" y="264.75239"/>
     <use style="fill:#666666;stroke:#666666;" x="430.163764" xlink:href="#m402b95be46" y="259.739755"/>
     <use style="fill:#666666;stroke:#666666;" x="431.075145" xlink:href="#m402b95be46" y="260.228084"/>
     <use style="fill:#666666;stroke:#666666;" x="431.986526" xlink:href="#m402b95be46" y="259.278903"/>
     <use style="fill:#666666;stroke:#666666;" x="432.897906" xlink:href="#m402b95be46" y="252.067606"/>
     <use style="fill:#666666;stroke:#666666;" x="433.809287" xlink:href="#m402b95be46" y="254.277281"/>
     <use style="fill:#666666;stroke:#666666;" x="434.720668" xlink:href="#m402b95be46" y="257.653585"/>
     <use style="fill:#666666;stroke:#666666;" x="435.632049" xlink:href="#m402b95be46" y="252.083041"/>
     <use style="fill:#666666;stroke:#666666;" x="436.54343" xlink:href="#m402b95be46" y="244.044394"/>
     <use style="fill:#666666;stroke:#666666;" x="437.454811" xlink:href="#m402b95be46" y="183.909358"/>
     <use style="fill:#666666;stroke:#666666;" x="438.366192" xlink:href="#m402b95be46" y="189.18738"/>
     <use style="fill:#666666;stroke:#666666;" x="439.277572" xlink:href="#m402b95be46" y="204.372148"/>
     <use style="fill:#666666;stroke:#666666;" x="440.188953" xlink:href="#m402b95be46" y="234.391322"/>
     <use style="fill:#666666;stroke:#666666;" x="441.100334" xlink:href="#m402b95be46" y="237.744165"/>
     <use style="fill:#666666;stroke:#666666;" x="442.011715" xlink:href="#m402b95be46" y="240.227894"/>
     <use style="fill:#666666;stroke:#666666;" x="442.923096" xlink:href="#m402b95be46" y="222.756371"/>
     <use style="fill:#666666;stroke:#666666;" x="443.834477" xlink:href="#m402b95be46" y="196.603087"/>
     <use style="fill:#666666;stroke:#666666;" x="444.745857" xlink:href="#m402b95be46" y="196.124945"/>
     <use style="fill:#666666;stroke:#666666;" x="445.657238" xlink:href="#m402b95be46" y="216.007658"/>
     <use style="fill:#666666;stroke:#666666;" x="446.568619" xlink:href="#m402b95be46" y="201.773314"/>
     <use style="fill:#666666;stroke:#666666;" x="447.48" xlink:href="#m402b95be46" y="113.519089"/>
    </g>
   </g>
   <g id="patch_3">
    <path d="M 38.27 287.8 
L 38.27 13.32 
" style="fill:none;stroke:#000000;stroke-linecap:square;stroke-linejoin:miter;stroke-width:0.8;"/>
   </g>
   <g id="patch_4">
    <path d="M 447.48 287.8 
L 447.48 13.32 
" style="fill:none;stroke:#000000;stroke-linecap:square;stroke-linejoin:miter;stroke-width:0.8;"/>
   </g>
   <g id="patch_5">
    <path d="M 38.27 287.8 
L 447.48 287.8 
" style="fill:none;stroke:#000000;stroke-linecap:square;stroke-linejoin:miter;stroke-width:0.8;"/>
   </g>
   <g id="patch_6">
    <path d="M 38.27 13.32 
L 447.48 13.32 
" style="fill:none;stroke:#000000;stroke-linecap:square;stroke-linejoin:miter;stroke-width:0.8;"/>
   </g>
  </g>
 </g>
 <defs>
  <clipPath id="p3ae716ef3f">
   <rect height="274.48" width="409.21" x="38.27" y="13.32"/>
  </clipPath>
 </defs>
</svg>
