<?xml version="1.0" encoding="utf-8" standalone="no"?>
<!DOCTYPE svg PUBLIC "-//W3C//DTD SVG 1.1//EN"
  "http://www.w3.org/Graphics/SVG/1.1/DTD/svg11.dtd">
<!-- Created with matplotlib (http://matplotlib.org/) -->
<svg height="345.6pt" version="1.1" viewBox="0 0 460.8 345.6" width="460.8pt" xmlns="http://www.w3.org/2000/svg" xmlns:xlink="http://www.w3.org/1999/xlink">
 <defs>
  <style type="text/css">
*{stroke-linecap:butt;stroke-linejoin:round;}
  </style>
 </defs>
 <g id="figure_1">
  <g id="patch_1">
   <path d="M 0 345.6 
L 460.8 345.6 
L 460.8 0 
L 0 0 
z
" style="fill:#ffffff;"/>
  </g>
  <g id="axes_1">
   <g id="patch_2">
    <path d="M 47.72 287.8 
L 447.48 287.8 
L 447.48 13.32 
L 47.72 13.32 
z
" style="fill:#ffffff;"/>
   </g>
   <g id="matplotlib.axis_1">
    <g id="xtick_1">
     <g id="line2d_1">
      <defs>
       <path d="M 0 0 
L 0 3.5 
" id="mdce8440d04" style="stroke:#000000;stroke-width:0.8;"/>
      </defs>
      <g>
       <use style="stroke:#000000;stroke-width:0.8;" x="47.72" xlink:href="#mdce8440d04" y="287.8"/>
      </g>
     </g>
     <g id="text_1">
      <!-- A87 -->
      <defs>
       <path d="M 34.1875 63.1875 
L 20.796875 26.90625 
L 47.609375 26.90625 
z
M 28.609375 72.90625 
L 39.796875 72.90625 
L 67.578125 0 
L 57.328125 0 
L 50.6875 18.703125 
L 17.828125 18.703125 
L 11.1875 0 
L 0.78125 0 
z
" id="DejaVuSans-41"/>
       <path d="M 31.78125 34.625 
Q 24.75 34.625 20.71875 30.859375 
Q 16.703125 27.09375 16.703125 20.515625 
Q 16.703125 13.921875 20.71875 10.15625 
Q 24.75 6.390625 31.78125 6.390625 
Q 38.8125 6.390625 42.859375 10.171875 
Q 46.921875 13.96875 46.921875 20.515625 
Q 46.921875 27.09375 42.890625 30.859375 
Q 38.875 34.625 31.78125 34.625 
z
M 21.921875 38.8125 
Q 15.578125 40.375 12.03125 44.71875 
Q 8.5 49.078125 8.5 55.328125 
Q 8.5 64.0625 14.71875 69.140625 
Q 20.953125 74.21875 31.78125 74.21875 
Q 42.671875 74.21875 48.875 69.140625 
Q 55.078125 64.0625 55.078125 55.328125 
Q 55.078125 49.078125 51.53125 44.71875 
Q 48 40.375 41.703125 38.8125 
Q 48.828125 37.15625 52.796875 32.3125 
Q 56.78125 27.484375 56.78125 20.515625 
Q 56.78125 9.90625 50.3125 4.234375 
Q 43.84375 -1.421875 31.78125 -1.421875 
Q 19.734375 -1.421875 13.25 4.234375 
Q 6.78125 9.90625 6.78125 20.515625 
Q 6.78125 27.484375 10.78125 32.3125 
Q 14.796875 37.15625 21.921875 38.8125 
z
M 18.3125 54.390625 
Q 18.3125 48.734375 21.84375 45.5625 
Q 25.390625 42.390625 31.78125 42.390625 
Q 38.140625 42.390625 41.71875 45.5625 
Q 45.3125 48.734375 45.3125 54.390625 
Q 45.3125 60.0625 41.71875 63.234375 
Q 38.140625 66.40625 31.78125 66.40625 
Q 25.390625 66.40625 21.84375 63.234375 
Q 18.3125 60.0625 18.3125 54.390625 
z
" id="DejaVuSans-38"/>
       <path d="M 8.203125 72.90625 
L 55.078125 72.90625 
L 55.078125 68.703125 
L 28.609375 0 
L 18.3125 0 
L 43.21875 64.59375 
L 8.203125 64.59375 
z
" id="DejaVuSans-37"/>
      </defs>
      <g transform="translate(50.479375 314.365625)rotate(-90)scale(0.1 -0.1)">
       <use xlink:href="#DejaVuSans-41"/>
       <use x="68.408203" xlink:href="#DejaVuSans-38"/>
       <use x="132.03125" xlink:href="#DejaVuSans-37"/>
      </g>
     </g>
    </g>
    <g id="xtick_2">
     <g id="line2d_2">
      <g>
       <use style="stroke:#000000;stroke-width:0.8;" x="65.526682" xlink:href="#mdce8440d04" y="287.8"/>
      </g>
     </g>
     <g id="text_2">
      <!-- A107 -->
      <defs>
       <path d="M 12.40625 8.296875 
L 28.515625 8.296875 
L 28.515625 63.921875 
L 10.984375 60.40625 
L 10.984375 69.390625 
L 28.421875 72.90625 
L 38.28125 72.90625 
L 38.28125 8.296875 
L 54.390625 8.296875 
L 54.390625 0 
L 12.40625 0 
z
" id="DejaVuSans-31"/>
       <path d="M 31.78125 66.40625 
Q 24.171875 66.40625 20.328125 58.90625 
Q 16.5 51.421875 16.5 36.375 
Q 16.5 21.390625 20.328125 13.890625 
Q 24.171875 6.390625 31.78125 6.390625 
Q 39.453125 6.390625 43.28125 13.890625 
Q 47.125 21.390625 47.125 36.375 
Q 47.125 51.421875 43.28125 58.90625 
Q 39.453125 66.40625 31.78125 66.40625 
z
M 31.78125 74.21875 
Q 44.046875 74.21875 50.515625 64.515625 
Q 56.984375 54.828125 56.984375 36.375 
Q 56.984375 17.96875 50.515625 8.265625 
Q 44.046875 -1.421875 31.78125 -1.421875 
Q 19.53125 -1.421875 13.0625 8.265625 
Q 6.59375 17.96875 6.59375 36.375 
Q 6.59375 54.828125 13.0625 64.515625 
Q 19.53125 74.21875 31.78125 74.21875 
z
" id="DejaVuSans-30"/>
      </defs>
      <g transform="translate(68.286057 320.728125)rotate(-90)scale(0.1 -0.1)">
       <use xlink:href="#DejaVuSans-41"/>
       <use x="68.408203" xlink:href="#DejaVuSans-31"/>
       <use x="132.03125" xlink:href="#DejaVuSans-30"/>
       <use x="195.654297" xlink:href="#DejaVuSans-37"/>
      </g>
     </g>
    </g>
    <g id="xtick_3">
     <g id="line2d_3">
      <g>
       <use style="stroke:#000000;stroke-width:0.8;" x="83.333363" xlink:href="#mdce8440d04" y="287.8"/>
      </g>
     </g>
     <g id="text_3">
      <!-- A127 -->
      <defs>
       <path d="M 19.1875 8.296875 
L 53.609375 8.296875 
L 53.609375 0 
L 7.328125 0 
L 7.328125 8.296875 
Q 12.9375 14.109375 22.625 23.890625 
Q 32.328125 33.6875 34.8125 36.53125 
Q 39.546875 41.84375 41.421875 45.53125 
Q 43.3125 49.21875 43.3125 52.78125 
Q 43.3125 58.59375 39.234375 62.25 
Q 35.15625 65.921875 28.609375 65.921875 
Q 23.96875 65.921875 18.8125 64.3125 
Q 13.671875 62.703125 7.8125 59.421875 
L 7.8125 69.390625 
Q 13.765625 71.78125 18.9375 73 
Q 24.125 74.21875 28.421875 74.21875 
Q 39.75 74.21875 46.484375 68.546875 
Q 53.21875 62.890625 53.21875 53.421875 
Q 53.21875 48.921875 51.53125 44.890625 
Q 49.859375 40.875 45.40625 35.40625 
Q 44.1875 33.984375 37.640625 27.21875 
Q 31.109375 20.453125 19.1875 8.296875 
z
" id="DejaVuSans-32"/>
      </defs>
      <g transform="translate(86.092738 320.728125)rotate(-90)scale(0.1 -0.1)">
       <use xlink:href="#DejaVuSans-41"/>
       <use x="68.408203" xlink:href="#DejaVuSans-31"/>
       <use x="132.03125" xlink:href="#DejaVuSans-32"/>
       <use x="195.654297" xlink:href="#DejaVuSans-37"/>
      </g>
     </g>
    </g>
    <g id="xtick_4">
     <g id="line2d_4">
      <g>
       <use style="stroke:#000000;stroke-width:0.8;" x="101.140045" xlink:href="#mdce8440d04" y="287.8"/>
      </g>
     </g>
     <g id="text_4">
      <!-- A147 -->
      <defs>
       <path d="M 37.796875 64.3125 
L 12.890625 25.390625 
L 37.796875 25.390625 
z
M 35.203125 72.90625 
L 47.609375 72.90625 
L 47.609375 25.390625 
L 58.015625 25.390625 
L 58.015625 17.1875 
L 47.609375 17.1875 
L 47.609375 0 
L 37.796875 0 
L 37.796875 17.1875 
L 4.890625 17.1875 
L 4.890625 26.703125 
z
" id="DejaVuSans-34"/>
      </defs>
      <g transform="translate(103.89942 320.728125)rotate(-90)scale(0.1 -0.1)">
       <use xlink:href="#DejaVuSans-41"/>
       <use x="68.408203" xlink:href="#DejaVuSans-31"/>
       <use x="132.03125" xlink:href="#DejaVuSans-34"/>
       <use x="195.654297" xlink:href="#DejaVuSans-37"/>
      </g>
     </g>
    </g>
    <g id="xtick_5">
     <g id="line2d_5">
      <g>
       <use style="stroke:#000000;stroke-width:0.8;" x="118.946726" xlink:href="#mdce8440d04" y="287.8"/>
      </g>
     </g>
     <g id="text_5">
      <!-- A167 -->
      <defs>
       <path d="M 33.015625 40.375 
Q 26.375 40.375 22.484375 35.828125 
Q 18.609375 31.296875 18.609375 23.390625 
Q 18.609375 15.53125 22.484375 10.953125 
Q 26.375 6.390625 33.015625 6.390625 
Q 39.65625 6.390625 43.53125 10.953125 
Q 47.40625 15.53125 47.40625 23.390625 
Q 47.40625 31.296875 43.53125 35.828125 
Q 39.65625 40.375 33.015625 40.375 
z
M 52.59375 71.296875 
L 52.59375 62.3125 
Q 48.875 64.0625 45.09375 64.984375 
Q 41.3125 65.921875 37.59375 65.921875 
Q 27.828125 65.921875 22.671875 59.328125 
Q 17.53125 52.734375 16.796875 39.40625 
Q 19.671875 43.65625 24.015625 45.921875 
Q 28.375 48.1875 33.59375 48.1875 
Q 44.578125 48.1875 50.953125 41.515625 
Q 57.328125 34.859375 57.328125 23.390625 
Q 57.328125 12.15625 50.6875 5.359375 
Q 44.046875 -1.421875 33.015625 -1.421875 
Q 20.359375 -1.421875 13.671875 8.265625 
Q 6.984375 17.96875 6.984375 36.375 
Q 6.984375 53.65625 15.1875 63.9375 
Q 23.390625 74.21875 37.203125 74.21875 
Q 40.921875 74.21875 44.703125 73.484375 
Q 48.484375 72.75 52.59375 71.296875 
z
" id="DejaVuSans-36"/>
      </defs>
      <g transform="translate(121.706101 320.728125)rotate(-90)scale(0.1 -0.1)">
       <use xlink:href="#DejaVuSans-41"/>
       <use x="68.408203" xlink:href="#DejaVuSans-31"/>
       <use x="132.03125" xlink:href="#DejaVuSans-36"/>
       <use x="195.654297" xlink:href="#DejaVuSans-37"/>
      </g>
     </g>
    </g>
    <g id="xtick_6">
     <g id="line2d_6">
      <g>
       <use style="stroke:#000000;stroke-width:0.8;" x="136.753408" xlink:href="#mdce8440d04" y="287.8"/>
      </g>
     </g>
     <g id="text_6">
      <!-- A187 -->
      <g transform="translate(139.512783 320.728125)rotate(-90)scale(0.1 -0.1)">
       <use xlink:href="#DejaVuSans-41"/>
       <use x="68.408203" xlink:href="#DejaVuSans-31"/>
       <use x="132.03125" xlink:href="#DejaVuSans-38"/>
       <use x="195.654297" xlink:href="#DejaVuSans-37"/>
      </g>
     </g>
    </g>
    <g id="xtick_7">
     <g id="line2d_7">
      <g>
       <use style="stroke:#000000;stroke-width:0.8;" x="154.560089" xlink:href="#mdce8440d04" y="287.8"/>
      </g>
     </g>
     <g id="text_7">
      <!-- A207 -->
      <g transform="translate(157.319464 320.728125)rotate(-90)scale(0.1 -0.1)">
       <use xlink:href="#DejaVuSans-41"/>
       <use x="68.408203" xlink:href="#DejaVuSans-32"/>
       <use x="132.03125" xlink:href="#DejaVuSans-30"/>
       <use x="195.654297" xlink:href="#DejaVuSans-37"/>
      </g>
     </g>
    </g>
    <g id="xtick_8">
     <g id="line2d_8">
      <g>
       <use style="stroke:#000000;stroke-width:0.8;" x="172.366771" xlink:href="#mdce8440d04" y="287.8"/>
      </g>
     </g>
     <g id="text_8">
      <!-- A227 -->
      <g transform="translate(175.126146 320.728125)rotate(-90)scale(0.1 -0.1)">
       <use xlink:href="#DejaVuSans-41"/>
       <use x="68.408203" xlink:href="#DejaVuSans-32"/>
       <use x="132.03125" xlink:href="#DejaVuSans-32"/>
       <use x="195.654297" xlink:href="#DejaVuSans-37"/>
      </g>
     </g>
    </g>
    <g id="xtick_9">
     <g id="line2d_9">
      <g>
       <use style="stroke:#000000;stroke-width:0.8;" x="190.173452" xlink:href="#mdce8440d04" y="287.8"/>
      </g>
     </g>
     <g id="text_9">
      <!-- A247 -->
      <g transform="translate(192.932827 320.728125)rotate(-90)scale(0.1 -0.1)">
       <use xlink:href="#DejaVuSans-41"/>
       <use x="68.408203" xlink:href="#DejaVuSans-32"/>
       <use x="132.03125" xlink:href="#DejaVuSans-34"/>
       <use x="195.654297" xlink:href="#DejaVuSans-37"/>
      </g>
     </g>
    </g>
    <g id="xtick_10">
     <g id="line2d_10">
      <g>
       <use style="stroke:#000000;stroke-width:0.8;" x="207.980134" xlink:href="#mdce8440d04" y="287.8"/>
      </g>
     </g>
     <g id="text_10">
      <!-- A267 -->
      <g transform="translate(210.739509 320.728125)rotate(-90)scale(0.1 -0.1)">
       <use xlink:href="#DejaVuSans-41"/>
       <use x="68.408203" xlink:href="#DejaVuSans-32"/>
       <use x="132.03125" xlink:href="#DejaVuSans-36"/>
       <use x="195.654297" xlink:href="#DejaVuSans-37"/>
      </g>
     </g>
    </g>
    <g id="xtick_11">
     <g id="line2d_11">
      <g>
       <use style="stroke:#000000;stroke-width:0.8;" x="225.786815" xlink:href="#mdce8440d04" y="287.8"/>
      </g>
     </g>
     <g id="text_11">
      <!-- A287 -->
      <g transform="translate(228.54619 320.728125)rotate(-90)scale(0.1 -0.1)">
       <use xlink:href="#DejaVuSans-41"/>
       <use x="68.408203" xlink:href="#DejaVuSans-32"/>
       <use x="132.03125" xlink:href="#DejaVuSans-38"/>
       <use x="195.654297" xlink:href="#DejaVuSans-37"/>
      </g>
     </g>
    </g>
    <g id="xtick_12">
     <g id="line2d_12">
      <g>
       <use style="stroke:#000000;stroke-width:0.8;" x="243.593497" xlink:href="#mdce8440d04" y="287.8"/>
      </g>
     </g>
     <g id="text_12">
      <!-- A307 -->
      <defs>
       <path d="M 40.578125 39.3125 
Q 47.65625 37.796875 51.625 33 
Q 55.609375 28.21875 55.609375 21.1875 
Q 55.609375 10.40625 48.1875 4.484375 
Q 40.765625 -1.421875 27.09375 -1.421875 
Q 22.515625 -1.421875 17.65625 -0.515625 
Q 12.796875 0.390625 7.625 2.203125 
L 7.625 11.71875 
Q 11.71875 9.328125 16.59375 8.109375 
Q 21.484375 6.890625 26.8125 6.890625 
Q 36.078125 6.890625 40.9375 10.546875 
Q 45.796875 14.203125 45.796875 21.1875 
Q 45.796875 27.640625 41.28125 31.265625 
Q 36.765625 34.90625 28.71875 34.90625 
L 20.21875 34.90625 
L 20.21875 43.015625 
L 29.109375 43.015625 
Q 36.375 43.015625 40.234375 45.921875 
Q 44.09375 48.828125 44.09375 54.296875 
Q 44.09375 59.90625 40.109375 62.90625 
Q 36.140625 65.921875 28.71875 65.921875 
Q 24.65625 65.921875 20.015625 65.03125 
Q 15.375 64.15625 9.8125 62.3125 
L 9.8125 71.09375 
Q 15.4375 72.65625 20.34375 73.4375 
Q 25.25 74.21875 29.59375 74.21875 
Q 40.828125 74.21875 47.359375 69.109375 
Q 53.90625 64.015625 53.90625 55.328125 
Q 53.90625 49.265625 50.4375 45.09375 
Q 46.96875 40.921875 40.578125 39.3125 
z
" id="DejaVuSans-33"/>
      </defs>
      <g transform="translate(246.352872 320.728125)rotate(-90)scale(0.1 -0.1)">
       <use xlink:href="#DejaVuSans-41"/>
       <use x="68.408203" xlink:href="#DejaVuSans-33"/>
       <use x="132.03125" xlink:href="#DejaVuSans-30"/>
       <use x="195.654297" xlink:href="#DejaVuSans-37"/>
      </g>
     </g>
    </g>
    <g id="xtick_13">
     <g id="line2d_13">
      <g>
       <use style="stroke:#000000;stroke-width:0.8;" x="261.400178" xlink:href="#mdce8440d04" y="287.8"/>
      </g>
     </g>
     <g id="text_13">
      <!-- A327 -->
      <g transform="translate(264.159553 320.728125)rotate(-90)scale(0.1 -0.1)">
       <use xlink:href="#DejaVuSans-41"/>
       <use x="68.408203" xlink:href="#DejaVuSans-33"/>
       <use x="132.03125" xlink:href="#DejaVuSans-32"/>
       <use x="195.654297" xlink:href="#DejaVuSans-37"/>
      </g>
     </g>
    </g>
    <g id="xtick_14">
     <g id="line2d_14">
      <g>
       <use style="stroke:#000000;stroke-width:0.8;" x="279.20686" xlink:href="#mdce8440d04" y="287.8"/>
      </g>
     </g>
     <g id="text_14">
      <!-- A347 -->
      <g transform="translate(281.966235 320.728125)rotate(-90)scale(0.1 -0.1)">
       <use xlink:href="#DejaVuSans-41"/>
       <use x="68.408203" xlink:href="#DejaVuSans-33"/>
       <use x="132.03125" xlink:href="#DejaVuSans-34"/>
       <use x="195.654297" xlink:href="#DejaVuSans-37"/>
      </g>
     </g>
    </g>
    <g id="xtick_15">
     <g id="line2d_15">
      <g>
       <use style="stroke:#000000;stroke-width:0.8;" x="297.013541" xlink:href="#mdce8440d04" y="287.8"/>
      </g>
     </g>
     <g id="text_15">
      <!-- A367 -->
      <g transform="translate(299.772916 320.728125)rotate(-90)scale(0.1 -0.1)">
       <use xlink:href="#DejaVuSans-41"/>
       <use x="68.408203" xlink:href="#DejaVuSans-33"/>
       <use x="132.03125" xlink:href="#DejaVuSans-36"/>
       <use x="195.654297" xlink:href="#DejaVuSans-37"/>
      </g>
     </g>
    </g>
    <g id="xtick_16">
     <g id="line2d_16">
      <g>
       <use style="stroke:#000000;stroke-width:0.8;" x="314.820223" xlink:href="#mdce8440d04" y="287.8"/>
      </g>
     </g>
     <g id="text_16">
      <!-- A387 -->
      <g transform="translate(317.579598 320.728125)rotate(-90)scale(0.1 -0.1)">
       <use xlink:href="#DejaVuSans-41"/>
       <use x="68.408203" xlink:href="#DejaVuSans-33"/>
       <use x="132.03125" xlink:href="#DejaVuSans-38"/>
       <use x="195.654297" xlink:href="#DejaVuSans-37"/>
      </g>
     </g>
    </g>
    <g id="xtick_17">
     <g id="line2d_17">
      <g>
       <use style="stroke:#000000;stroke-width:0.8;" x="332.626904" xlink:href="#mdce8440d04" y="287.8"/>
      </g>
     </g>
     <g id="text_17">
      <!-- A407 -->
      <g transform="translate(335.386279 320.728125)rotate(-90)scale(0.1 -0.1)">
       <use xlink:href="#DejaVuSans-41"/>
       <use x="68.408203" xlink:href="#DejaVuSans-34"/>
       <use x="132.03125" xlink:href="#DejaVuSans-30"/>
       <use x="195.654297" xlink:href="#DejaVuSans-37"/>
      </g>
     </g>
    </g>
    <g id="xtick_18">
     <g id="line2d_18">
      <g>
       <use style="stroke:#000000;stroke-width:0.8;" x="350.433586" xlink:href="#mdce8440d04" y="287.8"/>
      </g>
     </g>
     <g id="text_18">
      <!-- A427 -->
      <g transform="translate(353.192961 320.728125)rotate(-90)scale(0.1 -0.1)">
       <use xlink:href="#DejaVuSans-41"/>
       <use x="68.408203" xlink:href="#DejaVuSans-34"/>
       <use x="132.03125" xlink:href="#DejaVuSans-32"/>
       <use x="195.654297" xlink:href="#DejaVuSans-37"/>
      </g>
     </g>
    </g>
    <g id="xtick_19">
     <g id="line2d_19">
      <g>
       <use style="stroke:#000000;stroke-width:0.8;" x="368.240267" xlink:href="#mdce8440d04" y="287.8"/>
      </g>
     </g>
     <g id="text_19">
      <!-- A447 -->
      <g transform="translate(370.999642 320.728125)rotate(-90)scale(0.1 -0.1)">
       <use xlink:href="#DejaVuSans-41"/>
       <use x="68.408203" xlink:href="#DejaVuSans-34"/>
       <use x="132.03125" xlink:href="#DejaVuSans-34"/>
       <use x="195.654297" xlink:href="#DejaVuSans-37"/>
      </g>
     </g>
    </g>
    <g id="xtick_20">
     <g id="line2d_20">
      <g>
       <use style="stroke:#000000;stroke-width:0.8;" x="386.046949" xlink:href="#mdce8440d04" y="287.8"/>
      </g>
     </g>
     <g id="text_20">
      <!-- A467 -->
      <g transform="translate(388.806324 320.728125)rotate(-90)scale(0.1 -0.1)">
       <use xlink:href="#DejaVuSans-41"/>
       <use x="68.408203" xlink:href="#DejaVuSans-34"/>
       <use x="132.03125" xlink:href="#DejaVuSans-36"/>
       <use x="195.654297" xlink:href="#DejaVuSans-37"/>
      </g>
     </g>
    </g>
    <g id="xtick_21">
     <g id="line2d_21">
      <g>
       <use style="stroke:#000000;stroke-width:0.8;" x="403.85363" xlink:href="#mdce8440d04" y="287.8"/>
      </g>
     </g>
     <g id="text_21">
      <!-- A487 -->
      <g transform="translate(406.613005 320.728125)rotate(-90)scale(0.1 -0.1)">
       <use xlink:href="#DejaVuSans-41"/>
       <use x="68.408203" xlink:href="#DejaVuSans-34"/>
       <use x="132.03125" xlink:href="#DejaVuSans-38"/>
       <use x="195.654297" xlink:href="#DejaVuSans-37"/>
      </g>
     </g>
    </g>
    <g id="xtick_22">
     <g id="line2d_22">
      <g>
       <use style="stroke:#000000;stroke-width:0.8;" x="421.660312" xlink:href="#mdce8440d04" y="287.8"/>
      </g>
     </g>
     <g id="text_22">
      <!-- A507 -->
      <defs>
       <path d="M 10.796875 72.90625 
L 49.515625 72.90625 
L 49.515625 64.59375 
L 19.828125 64.59375 
L 19.828125 46.734375 
Q 21.96875 47.46875 24.109375 47.828125 
Q 26.265625 48.1875 28.421875 48.1875 
Q 40.625 48.1875 47.75 41.5 
Q 54.890625 34.8125 54.890625 23.390625 
Q 54.890625 11.625 47.5625 5.09375 
Q 40.234375 -1.421875 26.90625 -1.421875 
Q 22.3125 -1.421875 17.546875 -0.640625 
Q 12.796875 0.140625 7.71875 1.703125 
L 7.71875 11.625 
Q 12.109375 9.234375 16.796875 8.0625 
Q 21.484375 6.890625 26.703125 6.890625 
Q 35.15625 6.890625 40.078125 11.328125 
Q 45.015625 15.765625 45.015625 23.390625 
Q 45.015625 31 40.078125 35.4375 
Q 35.15625 39.890625 26.703125 39.890625 
Q 22.75 39.890625 18.8125 39.015625 
Q 14.890625 38.140625 10.796875 36.28125 
z
" id="DejaVuSans-35"/>
      </defs>
      <g transform="translate(424.419687 320.728125)rotate(-90)scale(0.1 -0.1)">
       <use xlink:href="#DejaVuSans-41"/>
       <use x="68.408203" xlink:href="#DejaVuSans-35"/>
       <use x="132.03125" xlink:href="#DejaVuSans-30"/>
       <use x="195.654297" xlink:href="#DejaVuSans-37"/>
      </g>
     </g>
    </g>
    <g id="xtick_23">
     <g id="line2d_23">
      <g>
       <use style="stroke:#000000;stroke-width:0.8;" x="439.466993" xlink:href="#mdce8440d04" y="287.8"/>
      </g>
     </g>
     <g id="text_23">
      <!-- A527 -->
      <g transform="translate(442.226368 320.728125)rotate(-90)scale(0.1 -0.1)">
       <use xlink:href="#DejaVuSans-41"/>
       <use x="68.408203" xlink:href="#DejaVuSans-35"/>
       <use x="132.03125" xlink:href="#DejaVuSans-32"/>
       <use x="195.654297" xlink:href="#DejaVuSans-37"/>
      </g>
     </g>
    </g>
    <g id="text_24">
     <!-- Residue index -->
     <defs>
      <path d="M 44.390625 34.1875 
Q 47.5625 33.109375 50.5625 29.59375 
Q 53.5625 26.078125 56.59375 19.921875 
L 66.609375 0 
L 56 0 
L 46.6875 18.703125 
Q 43.0625 26.03125 39.671875 28.421875 
Q 36.28125 30.8125 30.421875 30.8125 
L 19.671875 30.8125 
L 19.671875 0 
L 9.8125 0 
L 9.8125 72.90625 
L 32.078125 72.90625 
Q 44.578125 72.90625 50.734375 67.671875 
Q 56.890625 62.453125 56.890625 51.90625 
Q 56.890625 45.015625 53.6875 40.46875 
Q 50.484375 35.9375 44.390625 34.1875 
z
M 19.671875 64.796875 
L 19.671875 38.921875 
L 32.078125 38.921875 
Q 39.203125 38.921875 42.84375 42.21875 
Q 46.484375 45.515625 46.484375 51.90625 
Q 46.484375 58.296875 42.84375 61.546875 
Q 39.203125 64.796875 32.078125 64.796875 
z
" id="DejaVuSans-52"/>
      <path d="M 56.203125 29.59375 
L 56.203125 25.203125 
L 14.890625 25.203125 
Q 15.484375 15.921875 20.484375 11.0625 
Q 25.484375 6.203125 34.421875 6.203125 
Q 39.59375 6.203125 44.453125 7.46875 
Q 49.3125 8.734375 54.109375 11.28125 
L 54.109375 2.78125 
Q 49.265625 0.734375 44.1875 -0.34375 
Q 39.109375 -1.421875 33.890625 -1.421875 
Q 20.796875 -1.421875 13.15625 6.1875 
Q 5.515625 13.8125 5.515625 26.8125 
Q 5.515625 40.234375 12.765625 48.109375 
Q 20.015625 56 32.328125 56 
Q 43.359375 56 49.78125 48.890625 
Q 56.203125 41.796875 56.203125 29.59375 
z
M 47.21875 32.234375 
Q 47.125 39.59375 43.09375 43.984375 
Q 39.0625 48.390625 32.421875 48.390625 
Q 24.90625 48.390625 20.390625 44.140625 
Q 15.875 39.890625 15.1875 32.171875 
z
" id="DejaVuSans-65"/>
      <path d="M 44.28125 53.078125 
L 44.28125 44.578125 
Q 40.484375 46.53125 36.375 47.5 
Q 32.28125 48.484375 27.875 48.484375 
Q 21.1875 48.484375 17.84375 46.4375 
Q 14.5 44.390625 14.5 40.28125 
Q 14.5 37.15625 16.890625 35.375 
Q 19.28125 33.59375 26.515625 31.984375 
L 29.59375 31.296875 
Q 39.15625 29.25 43.1875 25.515625 
Q 47.21875 21.78125 47.21875 15.09375 
Q 47.21875 7.46875 41.1875 3.015625 
Q 35.15625 -1.421875 24.609375 -1.421875 
Q 20.21875 -1.421875 15.453125 -0.5625 
Q 10.6875 0.296875 5.421875 2 
L 5.421875 11.28125 
Q 10.40625 8.6875 15.234375 7.390625 
Q 20.0625 6.109375 24.8125 6.109375 
Q 31.15625 6.109375 34.5625 8.28125 
Q 37.984375 10.453125 37.984375 14.40625 
Q 37.984375 18.0625 35.515625 20.015625 
Q 33.0625 21.96875 24.703125 23.78125 
L 21.578125 24.515625 
Q 13.234375 26.265625 9.515625 29.90625 
Q 5.8125 33.546875 5.8125 39.890625 
Q 5.8125 47.609375 11.28125 51.796875 
Q 16.75 56 26.8125 56 
Q 31.78125 56 36.171875 55.265625 
Q 40.578125 54.546875 44.28125 53.078125 
z
" id="DejaVuSans-73"/>
      <path d="M 9.421875 54.6875 
L 18.40625 54.6875 
L 18.40625 0 
L 9.421875 0 
z
M 9.421875 75.984375 
L 18.40625 75.984375 
L 18.40625 64.59375 
L 9.421875 64.59375 
z
" id="DejaVuSans-69"/>
      <path d="M 45.40625 46.390625 
L 45.40625 75.984375 
L 54.390625 75.984375 
L 54.390625 0 
L 45.40625 0 
L 45.40625 8.203125 
Q 42.578125 3.328125 38.25 0.953125 
Q 33.9375 -1.421875 27.875 -1.421875 
Q 17.96875 -1.421875 11.734375 6.484375 
Q 5.515625 14.40625 5.515625 27.296875 
Q 5.515625 40.1875 11.734375 48.09375 
Q 17.96875 56 27.875 56 
Q 33.9375 56 38.25 53.625 
Q 42.578125 51.265625 45.40625 46.390625 
z
M 14.796875 27.296875 
Q 14.796875 17.390625 18.875 11.75 
Q 22.953125 6.109375 30.078125 6.109375 
Q 37.203125 6.109375 41.296875 11.75 
Q 45.40625 17.390625 45.40625 27.296875 
Q 45.40625 37.203125 41.296875 42.84375 
Q 37.203125 48.484375 30.078125 48.484375 
Q 22.953125 48.484375 18.875 42.84375 
Q 14.796875 37.203125 14.796875 27.296875 
z
" id="DejaVuSans-64"/>
      <path d="M 8.5 21.578125 
L 8.5 54.6875 
L 17.484375 54.6875 
L 17.484375 21.921875 
Q 17.484375 14.15625 20.5 10.265625 
Q 23.53125 6.390625 29.59375 6.390625 
Q 36.859375 6.390625 41.078125 11.03125 
Q 45.3125 15.671875 45.3125 23.6875 
L 45.3125 54.6875 
L 54.296875 54.6875 
L 54.296875 0 
L 45.3125 0 
L 45.3125 8.40625 
Q 42.046875 3.421875 37.71875 1 
Q 33.40625 -1.421875 27.6875 -1.421875 
Q 18.265625 -1.421875 13.375 4.4375 
Q 8.5 10.296875 8.5 21.578125 
z
M 31.109375 56 
z
" id="DejaVuSans-75"/>
      <path id="DejaVuSans-20"/>
      <path d="M 54.890625 33.015625 
L 54.890625 0 
L 45.90625 0 
L 45.90625 32.71875 
Q 45.90625 40.484375 42.875 44.328125 
Q 39.84375 48.1875 33.796875 48.1875 
Q 26.515625 48.1875 22.3125 43.546875 
Q 18.109375 38.921875 18.109375 30.90625 
L 18.109375 0 
L 9.078125 0 
L 9.078125 54.6875 
L 18.109375 54.6875 
L 18.109375 46.1875 
Q 21.34375 51.125 25.703125 53.5625 
Q 30.078125 56 35.796875 56 
Q 45.21875 56 50.046875 50.171875 
Q 54.890625 44.34375 54.890625 33.015625 
z
" id="DejaVuSans-6e"/>
      <path d="M 54.890625 54.6875 
L 35.109375 28.078125 
L 55.90625 0 
L 45.3125 0 
L 29.390625 21.484375 
L 13.484375 0 
L 2.875 0 
L 24.125 28.609375 
L 4.6875 54.6875 
L 15.28125 54.6875 
L 29.78125 35.203125 
L 44.28125 54.6875 
z
" id="DejaVuSans-78"/>
     </defs>
     <g transform="translate(212.282812 332.326562)scale(0.1 -0.1)">
      <use xlink:href="#DejaVuSans-52"/>
      <use x="69.419922" xlink:href="#DejaVuSans-65"/>
      <use x="130.943359" xlink:href="#DejaVuSans-73"/>
      <use x="183.042969" xlink:href="#DejaVuSans-69"/>
      <use x="210.826172" xlink:href="#DejaVuSans-64"/>
      <use x="274.302734" xlink:href="#DejaVuSans-75"/>
      <use x="337.681641" xlink:href="#DejaVuSans-65"/>
      <use x="399.205078" xlink:href="#DejaVuSans-20"/>
      <use x="430.992188" xlink:href="#DejaVuSans-69"/>
      <use x="458.775391" xlink:href="#DejaVuSans-6e"/>
      <use x="522.154297" xlink:href="#DejaVuSans-64"/>
      <use x="585.630859" xlink:href="#DejaVuSans-65"/>
      <use x="647.138672" xlink:href="#DejaVuSans-78"/>
     </g>
    </g>
   </g>
   <g id="matplotlib.axis_2">
    <g id="ytick_1">
     <g id="line2d_24">
      <defs>
       <path d="M 0 0 
L -3.5 0 
" id="me4ecc432eb" style="stroke:#000000;stroke-width:0.8;"/>
      </defs>
      <g>
       <use style="stroke:#000000;stroke-width:0.8;" x="47.72" xlink:href="#me4ecc432eb" y="281.997128"/>
      </g>
     </g>
     <g id="text_25">
      <!-- 0.0 -->
      <defs>
       <path d="M 10.6875 12.40625 
L 21 12.40625 
L 21 0 
L 10.6875 0 
z
" id="DejaVuSans-2e"/>
      </defs>
      <g transform="translate(24.816875 285.796346)scale(0.1 -0.1)">
       <use xlink:href="#DejaVuSans-30"/>
       <use x="63.623047" xlink:href="#DejaVuSans-2e"/>
       <use x="95.410156" xlink:href="#DejaVuSans-30"/>
      </g>
     </g>
    </g>
    <g id="ytick_2">
     <g id="line2d_25">
      <g>
       <use style="stroke:#000000;stroke-width:0.8;" x="47.72" xlink:href="#me4ecc432eb" y="243.371046"/>
      </g>
     </g>
     <g id="text_26">
      <!-- 0.5 -->
      <g transform="translate(24.816875 247.170265)scale(0.1 -0.1)">
       <use xlink:href="#DejaVuSans-30"/>
       <use x="63.623047" xlink:href="#DejaVuSans-2e"/>
       <use x="95.410156" xlink:href="#DejaVuSans-35"/>
      </g>
     </g>
    </g>
    <g id="ytick_3">
     <g id="line2d_26">
      <g>
       <use style="stroke:#000000;stroke-width:0.8;" x="47.72" xlink:href="#me4ecc432eb" y="204.744964"/>
      </g>
     </g>
     <g id="text_27">
      <!-- 1.0 -->
      <g transform="translate(24.816875 208.544183)scale(0.1 -0.1)">
       <use xlink:href="#DejaVuSans-31"/>
       <use x="63.623047" xlink:href="#DejaVuSans-2e"/>
       <use x="95.410156" xlink:href="#DejaVuSans-30"/>
      </g>
     </g>
    </g>
    <g id="ytick_4">
     <g id="line2d_27">
      <g>
       <use style="stroke:#000000;stroke-width:0.8;" x="47.72" xlink:href="#me4ecc432eb" y="166.118882"/>
      </g>
     </g>
     <g id="text_28">
      <!-- 1.5 -->
      <g transform="translate(24.816875 169.918101)scale(0.1 -0.1)">
       <use xlink:href="#DejaVuSans-31"/>
       <use x="63.623047" xlink:href="#DejaVuSans-2e"/>
       <use x="95.410156" xlink:href="#DejaVuSans-35"/>
      </g>
     </g>
    </g>
    <g id="ytick_5">
     <g id="line2d_28">
      <g>
       <use style="stroke:#000000;stroke-width:0.8;" x="47.72" xlink:href="#me4ecc432eb" y="127.492801"/>
      </g>
     </g>
     <g id="text_29">
      <!-- 2.0 -->
      <g transform="translate(24.816875 131.292019)scale(0.1 -0.1)">
       <use xlink:href="#DejaVuSans-32"/>
       <use x="63.623047" xlink:href="#DejaVuSans-2e"/>
       <use x="95.410156" xlink:href="#DejaVuSans-30"/>
      </g>
     </g>
    </g>
    <g id="ytick_6">
     <g id="line2d_29">
      <g>
       <use style="stroke:#000000;stroke-width:0.8;" x="47.72" xlink:href="#me4ecc432eb" y="88.866719"/>
      </g>
     </g>
     <g id="text_30">
      <!-- 2.5 -->
      <g transform="translate(24.816875 92.665937)scale(0.1 -0.1)">
       <use xlink:href="#DejaVuSans-32"/>
       <use x="63.623047" xlink:href="#DejaVuSans-2e"/>
       <use x="95.410156" xlink:href="#DejaVuSans-35"/>
      </g>
     </g>
    </g>
    <g id="ytick_7">
     <g id="line2d_30">
      <g>
       <use style="stroke:#000000;stroke-width:0.8;" x="47.72" xlink:href="#me4ecc432eb" y="50.240637"/>
      </g>
     </g>
     <g id="text_31">
      <!-- 3.0 -->
      <g transform="translate(24.816875 54.039856)scale(0.1 -0.1)">
       <use xlink:href="#DejaVuSans-33"/>
       <use x="63.623047" xlink:href="#DejaVuSans-2e"/>
       <use x="95.410156" xlink:href="#DejaVuSans-30"/>
      </g>
     </g>
    </g>
    <g id="text_32">
     <!-- RMSF -->
     <defs>
      <path d="M 9.8125 72.90625 
L 24.515625 72.90625 
L 43.109375 23.296875 
L 61.8125 72.90625 
L 76.515625 72.90625 
L 76.515625 0 
L 66.890625 0 
L 66.890625 64.015625 
L 48.09375 14.015625 
L 38.1875 14.015625 
L 19.390625 64.015625 
L 19.390625 0 
L 9.8125 0 
z
" id="DejaVuSans-4d"/>
      <path d="M 53.515625 70.515625 
L 53.515625 60.890625 
Q 47.90625 63.578125 42.921875 64.890625 
Q 37.9375 66.21875 33.296875 66.21875 
Q 25.25 66.21875 20.875 63.09375 
Q 16.5 59.96875 16.5 54.203125 
Q 16.5 49.359375 19.40625 46.890625 
Q 22.3125 44.4375 30.421875 42.921875 
L 36.375 41.703125 
Q 47.40625 39.59375 52.65625 34.296875 
Q 57.90625 29 57.90625 20.125 
Q 57.90625 9.515625 50.796875 4.046875 
Q 43.703125 -1.421875 29.984375 -1.421875 
Q 24.8125 -1.421875 18.96875 -0.25 
Q 13.140625 0.921875 6.890625 3.21875 
L 6.890625 13.375 
Q 12.890625 10.015625 18.65625 8.296875 
Q 24.421875 6.59375 29.984375 6.59375 
Q 38.421875 6.59375 43.015625 9.90625 
Q 47.609375 13.234375 47.609375 19.390625 
Q 47.609375 24.75 44.3125 27.78125 
Q 41.015625 30.8125 33.5 32.328125 
L 27.484375 33.5 
Q 16.453125 35.6875 11.515625 40.375 
Q 6.59375 45.0625 6.59375 53.421875 
Q 6.59375 63.09375 13.40625 68.65625 
Q 20.21875 74.21875 32.171875 74.21875 
Q 37.3125 74.21875 42.625 73.28125 
Q 47.953125 72.359375 53.515625 70.515625 
z
" id="DejaVuSans-53"/>
      <path d="M 9.8125 72.90625 
L 51.703125 72.90625 
L 51.703125 64.59375 
L 19.671875 64.59375 
L 19.671875 43.109375 
L 48.578125 43.109375 
L 48.578125 34.8125 
L 19.671875 34.8125 
L 19.671875 0 
L 9.8125 0 
z
" id="DejaVuSans-46"/>
     </defs>
     <g transform="translate(18.737188 164.398281)rotate(-90)scale(0.1 -0.1)">
      <use xlink:href="#DejaVuSans-52"/>
      <use x="69.482422" xlink:href="#DejaVuSans-4d"/>
      <use x="155.761719" xlink:href="#DejaVuSans-53"/>
      <use x="219.238281" xlink:href="#DejaVuSans-46"/>
     </g>
    </g>
   </g>
   <g id="line2d_31">
    <path clip-path="url(#p25f59ed374)" d="M 47.72 229.83892 
L 48.610334 271.763862 
L 49.500668 272.82821 
L 50.391002 273.174717 
L 51.281336 253.525647 
L 52.17167 241.587719 
L 53.062004 197.330868 
L 53.952339 214.679376 
L 54.842673 235.748041 
L 55.733007 216.559528 
L 56.623341 128.681705 
L 57.513675 178.871844 
L 58.404009 189.981105 
L 59.294343 205.824063 
L 60.184677 215.347778 
L 61.075011 192.62099 
L 61.965345 230.907615 
L 62.855679 212.003463 
L 63.746013 215.068747 
L 64.636347 216.219275 
L 65.526682 220.044481 
L 66.417016 198.546564 
L 67.30735 236.755974 
L 68.197684 264.112568 
L 69.088018 272.191201 
L 69.978352 262.94704 
L 70.868686 269.05077 
L 71.75902 261.553775 
L 72.649354 251.784557 
L 73.539688 214.131671 
L 74.430022 201.9043 
L 75.320356 201.692277 
L 76.21069 179.140612 
L 77.991359 234.579935 
L 78.881693 259.436906 
L 79.772027 271.376824 
L 80.662361 271.918512 
L 81.552695 271.569588 
L 82.443029 263.448907 
L 83.333363 228.102193 
L 84.223697 210.862556 
L 85.114031 211.673875 
L 86.004365 225.844405 
L 86.894699 225.725504 
L 87.785033 252.257693 
L 88.675367 258.689701 
L 89.565702 259.701974 
L 90.456036 270.038116 
L 91.34637 258.809268 
L 92.236704 233.812834 
L 93.127038 226.380379 
L 94.017372 230.61934 
L 94.907706 255.20175 
L 95.79804 262.569187 
L 96.688374 244.779962 
L 97.578708 195.424773 
L 98.469042 176.689537 
L 100.24971 207.463674 
L 101.140045 200.34944 
L 102.030379 207.397877 
L 102.920713 222.52356 
L 103.811047 223.353779 
L 104.701381 263.796179 
L 105.591715 259.997653 
L 106.482049 255.294791 
L 107.372383 207.789932 
L 108.262717 178.961463 
L 109.153051 223.598588 
L 110.043385 213.597292 
L 110.933719 211.443185 
L 111.824053 262.04114 
L 112.714388 261.50702 
L 113.604722 262.102881 
L 114.495056 251.814055 
L 115.38539 264.271133 
L 116.275724 257.276664 
L 118.056392 215.492209 
L 118.946726 206.53564 
L 119.83706 169.769606 
L 120.727394 147.466047 
L 121.617728 136.380216 
L 122.508062 176.970852 
L 123.398396 190.166952 
L 124.288731 228.738602 
L 125.179065 238.700292 
L 126.069399 250.582322 
L 126.959733 274.482527 
L 127.850067 274.316725 
L 128.740401 269.621533 
L 129.630735 254.736039 
L 130.521069 222.917718 
L 131.411403 177.509375 
L 132.301737 149.775813 
L 133.192071 177.507583 
L 134.082405 185.867862 
L 134.972739 231.800552 
L 135.863073 262.203244 
L 136.753408 269.115076 
L 137.643742 273.556861 
L 138.534076 273.912697 
L 139.42441 273.929973 
L 141.205078 247.909155 
L 142.095412 237.791137 
L 142.985746 229.632046 
L 143.87608 182.685582 
L 145.656748 123.981263 
L 146.547082 156.082312 
L 147.437416 173.438064 
L 148.327751 214.178897 
L 149.218085 223.288879 
L 150.108419 247.097497 
L 151.889087 272.885821 
L 152.779421 272.982347 
L 153.669755 272.480454 
L 154.560089 271.494031 
L 155.450423 269.882581 
L 156.340757 242.73089 
L 157.231091 184.136571 
L 158.121425 159.577685 
L 159.011759 95.799015 
L 159.902094 157.382653 
L 160.792428 191.39148 
L 161.682762 263.702098 
L 162.573096 263.194608 
L 163.46343 227.875615 
L 164.353764 208.932131 
L 165.244098 184.283787 
L 166.134432 112.870644 
L 167.024766 167.676064 
L 167.9151 237.724725 
L 168.805434 228.845399 
L 169.695768 237.60657 
L 170.586102 227.961626 
L 171.476437 234.18287 
L 172.366771 231.358749 
L 173.257105 247.882521 
L 174.147439 253.827072 
L 175.037773 241.013588 
L 175.928107 246.956987 
L 176.818441 256.545279 
L 177.708775 247.701174 
L 178.599109 219.786602 
L 179.489443 161.606228 
L 180.379777 175.034148 
L 181.270111 89.785694 
L 182.160445 35.521926 
L 183.941114 52.802832 
L 184.831448 112.276866 
L 185.721782 218.645252 
L 186.612116 214.730096 
L 187.50245 240.022079 
L 188.392784 235.314691 
L 189.283118 249.347149 
L 191.063786 195.958068 
L 191.95412 165.578643 
L 192.844454 130.156551 
L 193.734788 72.208919 
L 194.625122 162.210144 
L 195.515457 129.873347 
L 196.405791 192.122733 
L 197.296125 200.933541 
L 198.186459 251.719134 
L 199.076793 252.750136 
L 199.967127 257.745053 
L 200.857461 236.618272 
L 201.747795 197.209456 
L 202.638129 180.801218 
L 203.528463 233.579153 
L 205.309131 262.56999 
L 206.199465 263.560943 
L 207.0898 257.261154 
L 207.980134 235.297504 
L 208.870468 230.275172 
L 209.760802 231.846437 
L 210.651136 243.251008 
L 211.54147 244.885421 
L 212.431804 221.200621 
L 213.322138 227.976002 
L 214.212472 221.270965 
L 215.102806 218.552137 
L 215.99314 223.912779 
L 216.883474 196.738463 
L 217.773808 79.590155 
L 218.664143 101.722185 
L 219.554477 92.182382 
L 220.444811 176.809687 
L 221.335145 235.993241 
L 222.225479 238.041874 
L 223.115813 248.703234 
L 224.006147 246.738364 
L 224.896481 262.806934 
L 225.786815 263.275326 
L 226.677149 257.883389 
L 227.567483 255.983975 
L 228.457817 224.357784 
L 229.348151 157.203338 
L 232.019154 244.966635 
L 232.909488 257.728218 
L 233.799822 256.215372 
L 234.690156 256.534054 
L 235.58049 268.381567 
L 236.470824 248.094089 
L 237.361158 224.157237 
L 238.251492 193.913344 
L 239.141826 168.148738 
L 240.03216 135.635926 
L 240.922494 83.373008 
L 241.812829 163.079526 
L 242.703163 180.024316 
L 243.593497 219.952549 
L 244.483831 228.73214 
L 245.374165 228.652118 
L 246.264499 248.669716 
L 247.154833 248.376831 
L 248.045167 246.353817 
L 248.935501 243.447377 
L 250.716169 231.676836 
L 251.606503 219.638375 
L 252.496837 223.413446 
L 254.277506 208.773654 
L 255.16784 194.093775 
L 256.058174 198.457881 
L 256.948508 185.404447 
L 258.729176 230.779158 
L 259.61951 260.721653 
L 260.509844 265.175121 
L 261.400178 270.221801 
L 262.290512 270.528727 
L 263.180846 263.785028 
L 264.07118 267.094927 
L 264.961514 267.046998 
L 265.851849 268.468821 
L 266.742183 249.314959 
L 267.632517 197.429068 
L 268.522851 175.89761 
L 269.413185 219.156883 
L 270.303519 248.762903 
L 271.193853 267.633846 
L 272.084187 268.606863 
L 272.974521 264.387514 
L 273.864855 261.849494 
L 274.755189 260.693882 
L 275.645523 264.415083 
L 276.535857 234.026212 
L 278.316526 185.874228 
L 279.20686 220.38775 
L 280.097194 225.821275 
L 280.987528 224.158817 
L 281.877862 207.889397 
L 282.768196 214.643407 
L 283.65853 228.378808 
L 284.548864 203.540982 
L 285.439198 199.145922 
L 286.329532 186.698496 
L 287.219866 147.721072 
L 288.1102 124.943967 
L 289.000535 148.411381 
L 289.890869 134.091089 
L 290.781203 89.761393 
L 291.671537 148.812181 
L 292.561871 190.535668 
L 293.452205 226.426558 
L 294.342539 221.947927 
L 295.232873 233.690863 
L 296.123207 255.948619 
L 297.013541 247.345621 
L 297.903875 249.953236 
L 298.794209 260.844301 
L 299.684543 254.016873 
L 300.574878 252.995344 
L 301.465212 257.238833 
L 302.355546 250.030343 
L 303.24588 271.765962 
L 304.136214 271.67786 
L 305.026548 263.929537 
L 305.916882 275.323636 
L 307.69755 275.014069 
L 308.587884 266.752925 
L 309.478218 273.939059 
L 310.368552 268.250688 
L 311.258886 236.117053 
L 312.14922 233.834287 
L 313.039555 230.854447 
L 313.929889 223.128745 
L 314.820223 231.782166 
L 315.710557 206.21864 
L 316.600891 234.841099 
L 317.491225 231.001084 
L 318.381559 214.267407 
L 319.271893 216.546882 
L 320.162227 215.432547 
L 321.052561 222.622285 
L 321.942895 252.011843 
L 322.833229 252.835512 
L 323.723563 241.740027 
L 324.613898 205.037092 
L 325.504232 211.098561 
L 326.394566 202.449517 
L 327.2849 227.387221 
L 328.175234 229.923633 
L 329.065568 235.703097 
L 329.955902 250.972529 
L 330.846236 255.86517 
L 331.73657 237.782606 
L 332.626904 213.03678 
L 333.517238 213.221797 
L 334.407572 195.902005 
L 335.297906 219.654145 
L 336.188241 196.407459 
L 337.078575 223.502428 
L 337.968909 237.197343 
L 338.859243 157.897811 
L 339.749577 176.447255 
L 340.639911 162.64454 
L 341.530245 151.397365 
L 342.420579 178.525224 
L 343.310913 198.481371 
L 344.201247 171.368029 
L 345.091581 178.059505 
L 345.981915 199.585351 
L 346.872249 173.765604 
L 347.762584 174.507588 
L 348.652918 145.593707 
L 349.543252 199.518786 
L 350.433586 230.186846 
L 351.32392 234.27741 
L 352.214254 257.131457 
L 353.104588 262.024998 
L 353.994922 259.078043 
L 354.885256 252.194472 
L 355.77559 251.665688 
L 356.665924 239.774452 
L 357.556258 245.770283 
L 358.446592 226.798885 
L 359.336927 227.937793 
L 361.117595 162.828986 
L 362.007929 98.190267 
L 362.898263 113.351737 
L 363.788597 118.316701 
L 364.678931 219.051251 
L 365.569265 237.596931 
L 366.459599 232.64708 
L 367.349933 260.94365 
L 368.240267 262.570864 
L 369.130601 253.269668 
L 370.020935 260.706717 
L 370.911269 260.8291 
L 371.801604 258.634026 
L 372.691938 238.773568 
L 373.582272 246.247916 
L 374.472606 248.525435 
L 375.36294 241.324712 
L 376.253274 239.798465 
L 377.143608 245.830344 
L 378.033942 241.926059 
L 378.924276 236.454976 
L 379.81461 221.186144 
L 380.704944 182.127782 
L 381.595278 133.8256 
L 382.485612 25.796364 
L 383.375947 119.778137 
L 384.266281 115.943425 
L 385.156615 184.412836 
L 386.046949 146.933051 
L 386.937283 169.011962 
L 387.827617 197.593877 
L 388.717951 213.42202 
L 389.608285 237.301698 
L 390.498619 230.574506 
L 391.388953 238.322872 
L 392.279287 238.837065 
L 393.169621 236.6595 
L 394.059955 235.607011 
L 394.95029 231.63387 
L 395.840624 218.190062 
L 396.730958 218.339322 
L 397.621292 216.028501 
L 398.511626 182.255761 
L 399.40196 164.20756 
L 400.292294 164.007883 
L 401.182628 174.784412 
L 402.072962 168.903178 
L 402.963296 193.30591 
L 403.85363 204.293654 
L 404.743964 179.951451 
L 405.634298 197.066754 
L 406.524633 192.372727 
L 407.414967 201.398048 
L 408.305301 224.954765 
L 409.195635 224.127794 
L 410.085969 229.119321 
L 410.976303 253.7963 
L 411.866637 252.638469 
L 412.756971 238.281146 
L 413.647305 265.043642 
L 414.537639 249.401531 
L 415.427973 262.083255 
L 416.318307 268.914977 
L 417.208641 256.352729 
L 418.098976 235.193829 
L 418.98931 217.738843 
L 419.879644 156.951344 
L 420.769978 209.436242 
L 421.660312 209.441244 
L 422.550646 216.32651 
L 423.44098 211.1403 
L 425.221648 274.038528 
L 426.111982 274.823598 
L 427.89265 274.609232 
L 428.782984 273.396374 
L 429.673318 264.495377 
L 430.563653 271.558888 
L 431.453987 267.624194 
L 432.344321 257.720108 
L 433.234655 260.652401 
L 435.015323 226.171961 
L 435.905657 210.766074 
L 436.795991 154.794078 
L 437.686325 149.195525 
L 438.576659 154.418815 
L 439.466993 171.413245 
L 440.357327 199.326096 
L 441.247661 208.147462 
L 442.137996 223.656464 
L 443.02833 234.248322 
L 443.918664 221.928645 
L 444.808998 218.916639 
L 445.699332 193.128143 
L 446.589666 198.697665 
L 447.48 53.00494 
L 447.48 53.00494 
" style="fill:none;stroke:#666666;stroke-dasharray:1,1.65;stroke-dashoffset:0;"/>
    <defs>
     <path d="M 0 0.5 
C 0.132602 0.5 0.25979 0.447317 0.353553 0.353553 
C 0.447317 0.25979 0.5 0.132602 0.5 0 
C 0.5 -0.132602 0.447317 -0.25979 0.353553 -0.353553 
C 0.25979 -0.447317 0.132602 -0.5 0 -0.5 
C -0.132602 -0.5 -0.25979 -0.447317 -0.353553 -0.353553 
C -0.447317 -0.25979 -0.5 -0.132602 -0.5 0 
C -0.5 0.132602 -0.447317 0.25979 -0.353553 0.353553 
C -0.25979 0.447317 -0.132602 0.5 0 0.5 
z
" id="m0b54f7429b" style="stroke:#666666;"/>
    </defs>
    <g clip-path="url(#p25f59ed374)">
     <use style="fill:#666666;stroke:#666666;" x="47.72" xlink:href="#m0b54f7429b" y="229.83892"/>
     <use style="fill:#666666;stroke:#666666;" x="48.610334" xlink:href="#m0b54f7429b" y="271.763862"/>
     <use style="fill:#666666;stroke:#666666;" x="49.500668" xlink:href="#m0b54f7429b" y="272.82821"/>
     <use style="fill:#666666;stroke:#666666;" x="50.391002" xlink:href="#m0b54f7429b" y="273.174717"/>
     <use style="fill:#666666;stroke:#666666;" x="51.281336" xlink:href="#m0b54f7429b" y="253.525647"/>
     <use style="fill:#666666;stroke:#666666;" x="52.17167" xlink:href="#m0b54f7429b" y="241.587719"/>
     <use style="fill:#666666;stroke:#666666;" x="53.062004" xlink:href="#m0b54f7429b" y="197.330868"/>
     <use style="fill:#666666;stroke:#666666;" x="53.952339" xlink:href="#m0b54f7429b" y="214.679376"/>
     <use style="fill:#666666;stroke:#666666;" x="54.842673" xlink:href="#m0b54f7429b" y="235.748041"/>
     <use style="fill:#666666;stroke:#666666;" x="55.733007" xlink:href="#m0b54f7429b" y="216.559528"/>
     <use style="fill:#666666;stroke:#666666;" x="56.623341" xlink:href="#m0b54f7429b" y="128.681705"/>
     <use style="fill:#666666;stroke:#666666;" x="57.513675" xlink:href="#m0b54f7429b" y="178.871844"/>
     <use style="fill:#666666;stroke:#666666;" x="58.404009" xlink:href="#m0b54f7429b" y="189.981105"/>
     <use style="fill:#666666;stroke:#666666;" x="59.294343" xlink:href="#m0b54f7429b" y="205.824063"/>
     <use style="fill:#666666;stroke:#666666;" x="60.184677" xlink:href="#m0b54f7429b" y="215.347778"/>
     <use style="fill:#666666;stroke:#666666;" x="61.075011" xlink:href="#m0b54f7429b" y="192.62099"/>
     <use style="fill:#666666;stroke:#666666;" x="61.965345" xlink:href="#m0b54f7429b" y="230.907615"/>
     <use style="fill:#666666;stroke:#666666;" x="62.855679" xlink:href="#m0b54f7429b" y="212.003463"/>
     <use style="fill:#666666;stroke:#666666;" x="63.746013" xlink:href="#m0b54f7429b" y="215.068747"/>
     <use style="fill:#666666;stroke:#666666;" x="64.636347" xlink:href="#m0b54f7429b" y="216.219275"/>
     <use style="fill:#666666;stroke:#666666;" x="65.526682" xlink:href="#m0b54f7429b" y="220.044481"/>
     <use style="fill:#666666;stroke:#666666;" x="66.417016" xlink:href="#m0b54f7429b" y="198.546564"/>
     <use style="fill:#666666;stroke:#666666;" x="67.30735" xlink:href="#m0b54f7429b" y="236.755974"/>
     <use style="fill:#666666;stroke:#666666;" x="68.197684" xlink:href="#m0b54f7429b" y="264.112568"/>
     <use style="fill:#666666;stroke:#666666;" x="69.088018" xlink:href="#m0b54f7429b" y="272.191201"/>
     <use style="fill:#666666;stroke:#666666;" x="69.978352" xlink:href="#m0b54f7429b" y="262.94704"/>
     <use style="fill:#666666;stroke:#666666;" x="70.868686" xlink:href="#m0b54f7429b" y="269.05077"/>
     <use style="fill:#666666;stroke:#666666;" x="71.75902" xlink:href="#m0b54f7429b" y="261.553775"/>
     <use style="fill:#666666;stroke:#666666;" x="72.649354" xlink:href="#m0b54f7429b" y="251.784557"/>
     <use style="fill:#666666;stroke:#666666;" x="73.539688" xlink:href="#m0b54f7429b" y="214.131671"/>
     <use style="fill:#666666;stroke:#666666;" x="74.430022" xlink:href="#m0b54f7429b" y="201.9043"/>
     <use style="fill:#666666;stroke:#666666;" x="75.320356" xlink:href="#m0b54f7429b" y="201.692277"/>
     <use style="fill:#666666;stroke:#666666;" x="76.21069" xlink:href="#m0b54f7429b" y="179.140612"/>
     <use style="fill:#666666;stroke:#666666;" x="77.101024" xlink:href="#m0b54f7429b" y="207.894403"/>
     <use style="fill:#666666;stroke:#666666;" x="77.991359" xlink:href="#m0b54f7429b" y="234.579935"/>
     <use style="fill:#666666;stroke:#666666;" x="78.881693" xlink:href="#m0b54f7429b" y="259.436906"/>
     <use style="fill:#666666;stroke:#666666;" x="79.772027" xlink:href="#m0b54f7429b" y="271.376824"/>
     <use style="fill:#666666;stroke:#666666;" x="80.662361" xlink:href="#m0b54f7429b" y="271.918512"/>
     <use style="fill:#666666;stroke:#666666;" x="81.552695" xlink:href="#m0b54f7429b" y="271.569588"/>
     <use style="fill:#666666;stroke:#666666;" x="82.443029" xlink:href="#m0b54f7429b" y="263.448907"/>
     <use style="fill:#666666;stroke:#666666;" x="83.333363" xlink:href="#m0b54f7429b" y="228.102193"/>
     <use style="fill:#666666;stroke:#666666;" x="84.223697" xlink:href="#m0b54f7429b" y="210.862556"/>
     <use style="fill:#666666;stroke:#666666;" x="85.114031" xlink:href="#m0b54f7429b" y="211.673875"/>
     <use style="fill:#666666;stroke:#666666;" x="86.004365" xlink:href="#m0b54f7429b" y="225.844405"/>
     <use style="fill:#666666;stroke:#666666;" x="86.894699" xlink:href="#m0b54f7429b" y="225.725504"/>
     <use style="fill:#666666;stroke:#666666;" x="87.785033" xlink:href="#m0b54f7429b" y="252.257693"/>
     <use style="fill:#666666;stroke:#666666;" x="88.675367" xlink:href="#m0b54f7429b" y="258.689701"/>
     <use style="fill:#666666;stroke:#666666;" x="89.565702" xlink:href="#m0b54f7429b" y="259.701974"/>
     <use style="fill:#666666;stroke:#666666;" x="90.456036" xlink:href="#m0b54f7429b" y="270.038116"/>
     <use style="fill:#666666;stroke:#666666;" x="91.34637" xlink:href="#m0b54f7429b" y="258.809268"/>
     <use style="fill:#666666;stroke:#666666;" x="92.236704" xlink:href="#m0b54f7429b" y="233.812834"/>
     <use style="fill:#666666;stroke:#666666;" x="93.127038" xlink:href="#m0b54f7429b" y="226.380379"/>
     <use style="fill:#666666;stroke:#666666;" x="94.017372" xlink:href="#m0b54f7429b" y="230.61934"/>
     <use style="fill:#666666;stroke:#666666;" x="94.907706" xlink:href="#m0b54f7429b" y="255.20175"/>
     <use style="fill:#666666;stroke:#666666;" x="95.79804" xlink:href="#m0b54f7429b" y="262.569187"/>
     <use style="fill:#666666;stroke:#666666;" x="96.688374" xlink:href="#m0b54f7429b" y="244.779962"/>
     <use style="fill:#666666;stroke:#666666;" x="97.578708" xlink:href="#m0b54f7429b" y="195.424773"/>
     <use style="fill:#666666;stroke:#666666;" x="98.469042" xlink:href="#m0b54f7429b" y="176.689537"/>
     <use style="fill:#666666;stroke:#666666;" x="99.359376" xlink:href="#m0b54f7429b" y="192.418632"/>
     <use style="fill:#666666;stroke:#666666;" x="100.24971" xlink:href="#m0b54f7429b" y="207.463674"/>
     <use style="fill:#666666;stroke:#666666;" x="101.140045" xlink:href="#m0b54f7429b" y="200.34944"/>
     <use style="fill:#666666;stroke:#666666;" x="102.030379" xlink:href="#m0b54f7429b" y="207.397877"/>
     <use style="fill:#666666;stroke:#666666;" x="102.920713" xlink:href="#m0b54f7429b" y="222.52356"/>
     <use style="fill:#666666;stroke:#666666;" x="103.811047" xlink:href="#m0b54f7429b" y="223.353779"/>
     <use style="fill:#666666;stroke:#666666;" x="104.701381" xlink:href="#m0b54f7429b" y="263.796179"/>
     <use style="fill:#666666;stroke:#666666;" x="105.591715" xlink:href="#m0b54f7429b" y="259.997653"/>
     <use style="fill:#666666;stroke:#666666;" x="106.482049" xlink:href="#m0b54f7429b" y="255.294791"/>
     <use style="fill:#666666;stroke:#666666;" x="107.372383" xlink:href="#m0b54f7429b" y="207.789932"/>
     <use style="fill:#666666;stroke:#666666;" x="108.262717" xlink:href="#m0b54f7429b" y="178.961463"/>
     <use style="fill:#666666;stroke:#666666;" x="109.153051" xlink:href="#m0b54f7429b" y="223.598588"/>
     <use style="fill:#666666;stroke:#666666;" x="110.043385" xlink:href="#m0b54f7429b" y="213.597292"/>
     <use style="fill:#666666;stroke:#666666;" x="110.933719" xlink:href="#m0b54f7429b" y="211.443185"/>
     <use style="fill:#666666;stroke:#666666;" x="111.824053" xlink:href="#m0b54f7429b" y="262.04114"/>
     <use style="fill:#666666;stroke:#666666;" x="112.714388" xlink:href="#m0b54f7429b" y="261.50702"/>
     <use style="fill:#666666;stroke:#666666;" x="113.604722" xlink:href="#m0b54f7429b" y="262.102881"/>
     <use style="fill:#666666;stroke:#666666;" x="114.495056" xlink:href="#m0b54f7429b" y="251.814055"/>
     <use style="fill:#666666;stroke:#666666;" x="115.38539" xlink:href="#m0b54f7429b" y="264.271133"/>
     <use style="fill:#666666;stroke:#666666;" x="116.275724" xlink:href="#m0b54f7429b" y="257.276664"/>
     <use style="fill:#666666;stroke:#666666;" x="117.166058" xlink:href="#m0b54f7429b" y="235.063081"/>
     <use style="fill:#666666;stroke:#666666;" x="118.056392" xlink:href="#m0b54f7429b" y="215.492209"/>
     <use style="fill:#666666;stroke:#666666;" x="118.946726" xlink:href="#m0b54f7429b" y="206.53564"/>
     <use style="fill:#666666;stroke:#666666;" x="119.83706" xlink:href="#m0b54f7429b" y="169.769606"/>
     <use style="fill:#666666;stroke:#666666;" x="120.727394" xlink:href="#m0b54f7429b" y="147.466047"/>
     <use style="fill:#666666;stroke:#666666;" x="121.617728" xlink:href="#m0b54f7429b" y="136.380216"/>
     <use style="fill:#666666;stroke:#666666;" x="122.508062" xlink:href="#m0b54f7429b" y="176.970852"/>
     <use style="fill:#666666;stroke:#666666;" x="123.398396" xlink:href="#m0b54f7429b" y="190.166952"/>
     <use style="fill:#666666;stroke:#666666;" x="124.288731" xlink:href="#m0b54f7429b" y="228.738602"/>
     <use style="fill:#666666;stroke:#666666;" x="125.179065" xlink:href="#m0b54f7429b" y="238.700292"/>
     <use style="fill:#666666;stroke:#666666;" x="126.069399" xlink:href="#m0b54f7429b" y="250.582322"/>
     <use style="fill:#666666;stroke:#666666;" x="126.959733" xlink:href="#m0b54f7429b" y="274.482527"/>
     <use style="fill:#666666;stroke:#666666;" x="127.850067" xlink:href="#m0b54f7429b" y="274.316725"/>
     <use style="fill:#666666;stroke:#666666;" x="128.740401" xlink:href="#m0b54f7429b" y="269.621533"/>
     <use style="fill:#666666;stroke:#666666;" x="129.630735" xlink:href="#m0b54f7429b" y="254.736039"/>
     <use style="fill:#666666;stroke:#666666;" x="130.521069" xlink:href="#m0b54f7429b" y="222.917718"/>
     <use style="fill:#666666;stroke:#666666;" x="131.411403" xlink:href="#m0b54f7429b" y="177.509375"/>
     <use style="fill:#666666;stroke:#666666;" x="132.301737" xlink:href="#m0b54f7429b" y="149.775813"/>
     <use style="fill:#666666;stroke:#666666;" x="133.192071" xlink:href="#m0b54f7429b" y="177.507583"/>
     <use style="fill:#666666;stroke:#666666;" x="134.082405" xlink:href="#m0b54f7429b" y="185.867862"/>
     <use style="fill:#666666;stroke:#666666;" x="134.972739" xlink:href="#m0b54f7429b" y="231.800552"/>
     <use style="fill:#666666;stroke:#666666;" x="135.863073" xlink:href="#m0b54f7429b" y="262.203244"/>
     <use style="fill:#666666;stroke:#666666;" x="136.753408" xlink:href="#m0b54f7429b" y="269.115076"/>
     <use style="fill:#666666;stroke:#666666;" x="137.643742" xlink:href="#m0b54f7429b" y="273.556861"/>
     <use style="fill:#666666;stroke:#666666;" x="138.534076" xlink:href="#m0b54f7429b" y="273.912697"/>
     <use style="fill:#666666;stroke:#666666;" x="139.42441" xlink:href="#m0b54f7429b" y="273.929973"/>
     <use style="fill:#666666;stroke:#666666;" x="140.314744" xlink:href="#m0b54f7429b" y="260.598103"/>
     <use style="fill:#666666;stroke:#666666;" x="141.205078" xlink:href="#m0b54f7429b" y="247.909155"/>
     <use style="fill:#666666;stroke:#666666;" x="142.095412" xlink:href="#m0b54f7429b" y="237.791137"/>
     <use style="fill:#666666;stroke:#666666;" x="142.985746" xlink:href="#m0b54f7429b" y="229.632046"/>
     <use style="fill:#666666;stroke:#666666;" x="143.87608" xlink:href="#m0b54f7429b" y="182.685582"/>
     <use style="fill:#666666;stroke:#666666;" x="144.766414" xlink:href="#m0b54f7429b" y="152.008835"/>
     <use style="fill:#666666;stroke:#666666;" x="145.656748" xlink:href="#m0b54f7429b" y="123.981263"/>
     <use style="fill:#666666;stroke:#666666;" x="146.547082" xlink:href="#m0b54f7429b" y="156.082312"/>
     <use style="fill:#666666;stroke:#666666;" x="147.437416" xlink:href="#m0b54f7429b" y="173.438064"/>
     <use style="fill:#666666;stroke:#666666;" x="148.327751" xlink:href="#m0b54f7429b" y="214.178897"/>
     <use style="fill:#666666;stroke:#666666;" x="149.218085" xlink:href="#m0b54f7429b" y="223.288879"/>
     <use style="fill:#666666;stroke:#666666;" x="150.108419" xlink:href="#m0b54f7429b" y="247.097497"/>
     <use style="fill:#666666;stroke:#666666;" x="150.998753" xlink:href="#m0b54f7429b" y="259.970091"/>
     <use style="fill:#666666;stroke:#666666;" x="151.889087" xlink:href="#m0b54f7429b" y="272.885821"/>
     <use style="fill:#666666;stroke:#666666;" x="152.779421" xlink:href="#m0b54f7429b" y="272.982347"/>
     <use style="fill:#666666;stroke:#666666;" x="153.669755" xlink:href="#m0b54f7429b" y="272.480454"/>
     <use style="fill:#666666;stroke:#666666;" x="154.560089" xlink:href="#m0b54f7429b" y="271.494031"/>
     <use style="fill:#666666;stroke:#666666;" x="155.450423" xlink:href="#m0b54f7429b" y="269.882581"/>
     <use style="fill:#666666;stroke:#666666;" x="156.340757" xlink:href="#m0b54f7429b" y="242.73089"/>
     <use style="fill:#666666;stroke:#666666;" x="157.231091" xlink:href="#m0b54f7429b" y="184.136571"/>
     <use style="fill:#666666;stroke:#666666;" x="158.121425" xlink:href="#m0b54f7429b" y="159.577685"/>
     <use style="fill:#666666;stroke:#666666;" x="159.011759" xlink:href="#m0b54f7429b" y="95.799015"/>
     <use style="fill:#666666;stroke:#666666;" x="159.902094" xlink:href="#m0b54f7429b" y="157.382653"/>
     <use style="fill:#666666;stroke:#666666;" x="160.792428" xlink:href="#m0b54f7429b" y="191.39148"/>
     <use style="fill:#666666;stroke:#666666;" x="161.682762" xlink:href="#m0b54f7429b" y="263.702098"/>
     <use style="fill:#666666;stroke:#666666;" x="162.573096" xlink:href="#m0b54f7429b" y="263.194608"/>
     <use style="fill:#666666;stroke:#666666;" x="163.46343" xlink:href="#m0b54f7429b" y="227.875615"/>
     <use style="fill:#666666;stroke:#666666;" x="164.353764" xlink:href="#m0b54f7429b" y="208.932131"/>
     <use style="fill:#666666;stroke:#666666;" x="165.244098" xlink:href="#m0b54f7429b" y="184.283787"/>
     <use style="fill:#666666;stroke:#666666;" x="166.134432" xlink:href="#m0b54f7429b" y="112.870644"/>
     <use style="fill:#666666;stroke:#666666;" x="167.024766" xlink:href="#m0b54f7429b" y="167.676064"/>
     <use style="fill:#666666;stroke:#666666;" x="167.9151" xlink:href="#m0b54f7429b" y="237.724725"/>
     <use style="fill:#666666;stroke:#666666;" x="168.805434" xlink:href="#m0b54f7429b" y="228.845399"/>
     <use style="fill:#666666;stroke:#666666;" x="169.695768" xlink:href="#m0b54f7429b" y="237.60657"/>
     <use style="fill:#666666;stroke:#666666;" x="170.586102" xlink:href="#m0b54f7429b" y="227.961626"/>
     <use style="fill:#666666;stroke:#666666;" x="171.476437" xlink:href="#m0b54f7429b" y="234.18287"/>
     <use style="fill:#666666;stroke:#666666;" x="172.366771" xlink:href="#m0b54f7429b" y="231.358749"/>
     <use style="fill:#666666;stroke:#666666;" x="173.257105" xlink:href="#m0b54f7429b" y="247.882521"/>
     <use style="fill:#666666;stroke:#666666;" x="174.147439" xlink:href="#m0b54f7429b" y="253.827072"/>
     <use style="fill:#666666;stroke:#666666;" x="175.037773" xlink:href="#m0b54f7429b" y="241.013588"/>
     <use style="fill:#666666;stroke:#666666;" x="175.928107" xlink:href="#m0b54f7429b" y="246.956987"/>
     <use style="fill:#666666;stroke:#666666;" x="176.818441" xlink:href="#m0b54f7429b" y="256.545279"/>
     <use style="fill:#666666;stroke:#666666;" x="177.708775" xlink:href="#m0b54f7429b" y="247.701174"/>
     <use style="fill:#666666;stroke:#666666;" x="178.599109" xlink:href="#m0b54f7429b" y="219.786602"/>
     <use style="fill:#666666;stroke:#666666;" x="179.489443" xlink:href="#m0b54f7429b" y="161.606228"/>
     <use style="fill:#666666;stroke:#666666;" x="180.379777" xlink:href="#m0b54f7429b" y="175.034148"/>
     <use style="fill:#666666;stroke:#666666;" x="181.270111" xlink:href="#m0b54f7429b" y="89.785694"/>
     <use style="fill:#666666;stroke:#666666;" x="182.160445" xlink:href="#m0b54f7429b" y="35.521926"/>
     <use style="fill:#666666;stroke:#666666;" x="183.05078" xlink:href="#m0b54f7429b" y="44.319617"/>
     <use style="fill:#666666;stroke:#666666;" x="183.941114" xlink:href="#m0b54f7429b" y="52.802832"/>
     <use style="fill:#666666;stroke:#666666;" x="184.831448" xlink:href="#m0b54f7429b" y="112.276866"/>
     <use style="fill:#666666;stroke:#666666;" x="185.721782" xlink:href="#m0b54f7429b" y="218.645252"/>
     <use style="fill:#666666;stroke:#666666;" x="186.612116" xlink:href="#m0b54f7429b" y="214.730096"/>
     <use style="fill:#666666;stroke:#666666;" x="187.50245" xlink:href="#m0b54f7429b" y="240.022079"/>
     <use style="fill:#666666;stroke:#666666;" x="188.392784" xlink:href="#m0b54f7429b" y="235.314691"/>
     <use style="fill:#666666;stroke:#666666;" x="189.283118" xlink:href="#m0b54f7429b" y="249.347149"/>
     <use style="fill:#666666;stroke:#666666;" x="190.173452" xlink:href="#m0b54f7429b" y="223.667476"/>
     <use style="fill:#666666;stroke:#666666;" x="191.063786" xlink:href="#m0b54f7429b" y="195.958068"/>
     <use style="fill:#666666;stroke:#666666;" x="191.95412" xlink:href="#m0b54f7429b" y="165.578643"/>
     <use style="fill:#666666;stroke:#666666;" x="192.844454" xlink:href="#m0b54f7429b" y="130.156551"/>
     <use style="fill:#666666;stroke:#666666;" x="193.734788" xlink:href="#m0b54f7429b" y="72.208919"/>
     <use style="fill:#666666;stroke:#666666;" x="194.625122" xlink:href="#m0b54f7429b" y="162.210144"/>
     <use style="fill:#666666;stroke:#666666;" x="195.515457" xlink:href="#m0b54f7429b" y="129.873347"/>
     <use style="fill:#666666;stroke:#666666;" x="196.405791" xlink:href="#m0b54f7429b" y="192.122733"/>
     <use style="fill:#666666;stroke:#666666;" x="197.296125" xlink:href="#m0b54f7429b" y="200.933541"/>
     <use style="fill:#666666;stroke:#666666;" x="198.186459" xlink:href="#m0b54f7429b" y="251.719134"/>
     <use style="fill:#666666;stroke:#666666;" x="199.076793" xlink:href="#m0b54f7429b" y="252.750136"/>
     <use style="fill:#666666;stroke:#666666;" x="199.967127" xlink:href="#m0b54f7429b" y="257.745053"/>
     <use style="fill:#666666;stroke:#666666;" x="200.857461" xlink:href="#m0b54f7429b" y="236.618272"/>
     <use style="fill:#666666;stroke:#666666;" x="201.747795" xlink:href="#m0b54f7429b" y="197.209456"/>
     <use style="fill:#666666;stroke:#666666;" x="202.638129" xlink:href="#m0b54f7429b" y="180.801218"/>
     <use style="fill:#666666;stroke:#666666;" x="203.528463" xlink:href="#m0b54f7429b" y="233.579153"/>
     <use style="fill:#666666;stroke:#666666;" x="204.418797" xlink:href="#m0b54f7429b" y="247.317375"/>
     <use style="fill:#666666;stroke:#666666;" x="205.309131" xlink:href="#m0b54f7429b" y="262.56999"/>
     <use style="fill:#666666;stroke:#666666;" x="206.199465" xlink:href="#m0b54f7429b" y="263.560943"/>
     <use style="fill:#666666;stroke:#666666;" x="207.0898" xlink:href="#m0b54f7429b" y="257.261154"/>
     <use style="fill:#666666;stroke:#666666;" x="207.980134" xlink:href="#m0b54f7429b" y="235.297504"/>
     <use style="fill:#666666;stroke:#666666;" x="208.870468" xlink:href="#m0b54f7429b" y="230.275172"/>
     <use style="fill:#666666;stroke:#666666;" x="209.760802" xlink:href="#m0b54f7429b" y="231.846437"/>
     <use style="fill:#666666;stroke:#666666;" x="210.651136" xlink:href="#m0b54f7429b" y="243.251008"/>
     <use style="fill:#666666;stroke:#666666;" x="211.54147" xlink:href="#m0b54f7429b" y="244.885421"/>
     <use style="fill:#666666;stroke:#666666;" x="212.431804" xlink:href="#m0b54f7429b" y="221.200621"/>
     <use style="fill:#666666;stroke:#666666;" x="213.322138" xlink:href="#m0b54f7429b" y="227.976002"/>
     <use style="fill:#666666;stroke:#666666;" x="214.212472" xlink:href="#m0b54f7429b" y="221.270965"/>
     <use style="fill:#666666;stroke:#666666;" x="215.102806" xlink:href="#m0b54f7429b" y="218.552137"/>
     <use style="fill:#666666;stroke:#666666;" x="215.99314" xlink:href="#m0b54f7429b" y="223.912779"/>
     <use style="fill:#666666;stroke:#666666;" x="216.883474" xlink:href="#m0b54f7429b" y="196.738463"/>
     <use style="fill:#666666;stroke:#666666;" x="217.773808" xlink:href="#m0b54f7429b" y="79.590155"/>
     <use style="fill:#666666;stroke:#666666;" x="218.664143" xlink:href="#m0b54f7429b" y="101.722185"/>
     <use style="fill:#666666;stroke:#666666;" x="219.554477" xlink:href="#m0b54f7429b" y="92.182382"/>
     <use style="fill:#666666;stroke:#666666;" x="220.444811" xlink:href="#m0b54f7429b" y="176.809687"/>
     <use style="fill:#666666;stroke:#666666;" x="221.335145" xlink:href="#m0b54f7429b" y="235.993241"/>
     <use style="fill:#666666;stroke:#666666;" x="222.225479" xlink:href="#m0b54f7429b" y="238.041874"/>
     <use style="fill:#666666;stroke:#666666;" x="223.115813" xlink:href="#m0b54f7429b" y="248.703234"/>
     <use style="fill:#666666;stroke:#666666;" x="224.006147" xlink:href="#m0b54f7429b" y="246.738364"/>
     <use style="fill:#666666;stroke:#666666;" x="224.896481" xlink:href="#m0b54f7429b" y="262.806934"/>
     <use style="fill:#666666;stroke:#666666;" x="225.786815" xlink:href="#m0b54f7429b" y="263.275326"/>
     <use style="fill:#666666;stroke:#666666;" x="226.677149" xlink:href="#m0b54f7429b" y="257.883389"/>
     <use style="fill:#666666;stroke:#666666;" x="227.567483" xlink:href="#m0b54f7429b" y="255.983975"/>
     <use style="fill:#666666;stroke:#666666;" x="228.457817" xlink:href="#m0b54f7429b" y="224.357784"/>
     <use style="fill:#666666;stroke:#666666;" x="229.348151" xlink:href="#m0b54f7429b" y="157.203338"/>
     <use style="fill:#666666;stroke:#666666;" x="230.238486" xlink:href="#m0b54f7429b" y="185.608575"/>
     <use style="fill:#666666;stroke:#666666;" x="231.12882" xlink:href="#m0b54f7429b" y="216.884614"/>
     <use style="fill:#666666;stroke:#666666;" x="232.019154" xlink:href="#m0b54f7429b" y="244.966635"/>
     <use style="fill:#666666;stroke:#666666;" x="232.909488" xlink:href="#m0b54f7429b" y="257.728218"/>
     <use style="fill:#666666;stroke:#666666;" x="233.799822" xlink:href="#m0b54f7429b" y="256.215372"/>
     <use style="fill:#666666;stroke:#666666;" x="234.690156" xlink:href="#m0b54f7429b" y="256.534054"/>
     <use style="fill:#666666;stroke:#666666;" x="235.58049" xlink:href="#m0b54f7429b" y="268.381567"/>
     <use style="fill:#666666;stroke:#666666;" x="236.470824" xlink:href="#m0b54f7429b" y="248.094089"/>
     <use style="fill:#666666;stroke:#666666;" x="237.361158" xlink:href="#m0b54f7429b" y="224.157237"/>
     <use style="fill:#666666;stroke:#666666;" x="238.251492" xlink:href="#m0b54f7429b" y="193.913344"/>
     <use style="fill:#666666;stroke:#666666;" x="239.141826" xlink:href="#m0b54f7429b" y="168.148738"/>
     <use style="fill:#666666;stroke:#666666;" x="240.03216" xlink:href="#m0b54f7429b" y="135.635926"/>
     <use style="fill:#666666;stroke:#666666;" x="240.922494" xlink:href="#m0b54f7429b" y="83.373008"/>
     <use style="fill:#666666;stroke:#666666;" x="241.812829" xlink:href="#m0b54f7429b" y="163.079526"/>
     <use style="fill:#666666;stroke:#666666;" x="242.703163" xlink:href="#m0b54f7429b" y="180.024316"/>
     <use style="fill:#666666;stroke:#666666;" x="243.593497" xlink:href="#m0b54f7429b" y="219.952549"/>
     <use style="fill:#666666;stroke:#666666;" x="244.483831" xlink:href="#m0b54f7429b" y="228.73214"/>
     <use style="fill:#666666;stroke:#666666;" x="245.374165" xlink:href="#m0b54f7429b" y="228.652118"/>
     <use style="fill:#666666;stroke:#666666;" x="246.264499" xlink:href="#m0b54f7429b" y="248.669716"/>
     <use style="fill:#666666;stroke:#666666;" x="247.154833" xlink:href="#m0b54f7429b" y="248.376831"/>
     <use style="fill:#666666;stroke:#666666;" x="248.045167" xlink:href="#m0b54f7429b" y="246.353817"/>
     <use style="fill:#666666;stroke:#666666;" x="248.935501" xlink:href="#m0b54f7429b" y="243.447377"/>
     <use style="fill:#666666;stroke:#666666;" x="249.825835" xlink:href="#m0b54f7429b" y="237.560726"/>
     <use style="fill:#666666;stroke:#666666;" x="250.716169" xlink:href="#m0b54f7429b" y="231.676836"/>
     <use style="fill:#666666;stroke:#666666;" x="251.606503" xlink:href="#m0b54f7429b" y="219.638375"/>
     <use style="fill:#666666;stroke:#666666;" x="252.496837" xlink:href="#m0b54f7429b" y="223.413446"/>
     <use style="fill:#666666;stroke:#666666;" x="253.387171" xlink:href="#m0b54f7429b" y="216.522124"/>
     <use style="fill:#666666;stroke:#666666;" x="254.277506" xlink:href="#m0b54f7429b" y="208.773654"/>
     <use style="fill:#666666;stroke:#666666;" x="255.16784" xlink:href="#m0b54f7429b" y="194.093775"/>
     <use style="fill:#666666;stroke:#666666;" x="256.058174" xlink:href="#m0b54f7429b" y="198.457881"/>
     <use style="fill:#666666;stroke:#666666;" x="256.948508" xlink:href="#m0b54f7429b" y="185.404447"/>
     <use style="fill:#666666;stroke:#666666;" x="257.838842" xlink:href="#m0b54f7429b" y="208.975023"/>
     <use style="fill:#666666;stroke:#666666;" x="258.729176" xlink:href="#m0b54f7429b" y="230.779158"/>
     <use style="fill:#666666;stroke:#666666;" x="259.61951" xlink:href="#m0b54f7429b" y="260.721653"/>
     <use style="fill:#666666;stroke:#666666;" x="260.509844" xlink:href="#m0b54f7429b" y="265.175121"/>
     <use style="fill:#666666;stroke:#666666;" x="261.400178" xlink:href="#m0b54f7429b" y="270.221801"/>
     <use style="fill:#666666;stroke:#666666;" x="262.290512" xlink:href="#m0b54f7429b" y="270.528727"/>
     <use style="fill:#666666;stroke:#666666;" x="263.180846" xlink:href="#m0b54f7429b" y="263.785028"/>
     <use style="fill:#666666;stroke:#666666;" x="264.07118" xlink:href="#m0b54f7429b" y="267.094927"/>
     <use style="fill:#666666;stroke:#666666;" x="264.961514" xlink:href="#m0b54f7429b" y="267.046998"/>
     <use style="fill:#666666;stroke:#666666;" x="265.851849" xlink:href="#m0b54f7429b" y="268.468821"/>
     <use style="fill:#666666;stroke:#666666;" x="266.742183" xlink:href="#m0b54f7429b" y="249.314959"/>
     <use style="fill:#666666;stroke:#666666;" x="267.632517" xlink:href="#m0b54f7429b" y="197.429068"/>
     <use style="fill:#666666;stroke:#666666;" x="268.522851" xlink:href="#m0b54f7429b" y="175.89761"/>
     <use style="fill:#666666;stroke:#666666;" x="269.413185" xlink:href="#m0b54f7429b" y="219.156883"/>
     <use style="fill:#666666;stroke:#666666;" x="270.303519" xlink:href="#m0b54f7429b" y="248.762903"/>
     <use style="fill:#666666;stroke:#666666;" x="271.193853" xlink:href="#m0b54f7429b" y="267.633846"/>
     <use style="fill:#666666;stroke:#666666;" x="272.084187" xlink:href="#m0b54f7429b" y="268.606863"/>
     <use style="fill:#666666;stroke:#666666;" x="272.974521" xlink:href="#m0b54f7429b" y="264.387514"/>
     <use style="fill:#666666;stroke:#666666;" x="273.864855" xlink:href="#m0b54f7429b" y="261.849494"/>
     <use style="fill:#666666;stroke:#666666;" x="274.755189" xlink:href="#m0b54f7429b" y="260.693882"/>
     <use style="fill:#666666;stroke:#666666;" x="275.645523" xlink:href="#m0b54f7429b" y="264.415083"/>
     <use style="fill:#666666;stroke:#666666;" x="276.535857" xlink:href="#m0b54f7429b" y="234.026212"/>
     <use style="fill:#666666;stroke:#666666;" x="277.426192" xlink:href="#m0b54f7429b" y="210.787551"/>
     <use style="fill:#666666;stroke:#666666;" x="278.316526" xlink:href="#m0b54f7429b" y="185.874228"/>
     <use style="fill:#666666;stroke:#666666;" x="279.20686" xlink:href="#m0b54f7429b" y="220.38775"/>
     <use style="fill:#666666;stroke:#666666;" x="280.097194" xlink:href="#m0b54f7429b" y="225.821275"/>
     <use style="fill:#666666;stroke:#666666;" x="280.987528" xlink:href="#m0b54f7429b" y="224.158817"/>
     <use style="fill:#666666;stroke:#666666;" x="281.877862" xlink:href="#m0b54f7429b" y="207.889397"/>
     <use style="fill:#666666;stroke:#666666;" x="282.768196" xlink:href="#m0b54f7429b" y="214.643407"/>
     <use style="fill:#666666;stroke:#666666;" x="283.65853" xlink:href="#m0b54f7429b" y="228.378808"/>
     <use style="fill:#666666;stroke:#666666;" x="284.548864" xlink:href="#m0b54f7429b" y="203.540982"/>
     <use style="fill:#666666;stroke:#666666;" x="285.439198" xlink:href="#m0b54f7429b" y="199.145922"/>
     <use style="fill:#666666;stroke:#666666;" x="286.329532" xlink:href="#m0b54f7429b" y="186.698496"/>
     <use style="fill:#666666;stroke:#666666;" x="287.219866" xlink:href="#m0b54f7429b" y="147.721072"/>
     <use style="fill:#666666;stroke:#666666;" x="288.1102" xlink:href="#m0b54f7429b" y="124.943967"/>
     <use style="fill:#666666;stroke:#666666;" x="289.000535" xlink:href="#m0b54f7429b" y="148.411381"/>
     <use style="fill:#666666;stroke:#666666;" x="289.890869" xlink:href="#m0b54f7429b" y="134.091089"/>
     <use style="fill:#666666;stroke:#666666;" x="290.781203" xlink:href="#m0b54f7429b" y="89.761393"/>
     <use style="fill:#666666;stroke:#666666;" x="291.671537" xlink:href="#m0b54f7429b" y="148.812181"/>
     <use style="fill:#666666;stroke:#666666;" x="292.561871" xlink:href="#m0b54f7429b" y="190.535668"/>
     <use style="fill:#666666;stroke:#666666;" x="293.452205" xlink:href="#m0b54f7429b" y="226.426558"/>
     <use style="fill:#666666;stroke:#666666;" x="294.342539" xlink:href="#m0b54f7429b" y="221.947927"/>
     <use style="fill:#666666;stroke:#666666;" x="295.232873" xlink:href="#m0b54f7429b" y="233.690863"/>
     <use style="fill:#666666;stroke:#666666;" x="296.123207" xlink:href="#m0b54f7429b" y="255.948619"/>
     <use style="fill:#666666;stroke:#666666;" x="297.013541" xlink:href="#m0b54f7429b" y="247.345621"/>
     <use style="fill:#666666;stroke:#666666;" x="297.903875" xlink:href="#m0b54f7429b" y="249.953236"/>
     <use style="fill:#666666;stroke:#666666;" x="298.794209" xlink:href="#m0b54f7429b" y="260.844301"/>
     <use style="fill:#666666;stroke:#666666;" x="299.684543" xlink:href="#m0b54f7429b" y="254.016873"/>
     <use style="fill:#666666;stroke:#666666;" x="300.574878" xlink:href="#m0b54f7429b" y="252.995344"/>
     <use style="fill:#666666;stroke:#666666;" x="301.465212" xlink:href="#m0b54f7429b" y="257.238833"/>
     <use style="fill:#666666;stroke:#666666;" x="302.355546" xlink:href="#m0b54f7429b" y="250.030343"/>
     <use style="fill:#666666;stroke:#666666;" x="303.24588" xlink:href="#m0b54f7429b" y="271.765962"/>
     <use style="fill:#666666;stroke:#666666;" x="304.136214" xlink:href="#m0b54f7429b" y="271.67786"/>
     <use style="fill:#666666;stroke:#666666;" x="305.026548" xlink:href="#m0b54f7429b" y="263.929537"/>
     <use style="fill:#666666;stroke:#666666;" x="305.916882" xlink:href="#m0b54f7429b" y="275.323636"/>
     <use style="fill:#666666;stroke:#666666;" x="306.807216" xlink:href="#m0b54f7429b" y="275.135712"/>
     <use style="fill:#666666;stroke:#666666;" x="307.69755" xlink:href="#m0b54f7429b" y="275.014069"/>
     <use style="fill:#666666;stroke:#666666;" x="308.587884" xlink:href="#m0b54f7429b" y="266.752925"/>
     <use style="fill:#666666;stroke:#666666;" x="309.478218" xlink:href="#m0b54f7429b" y="273.939059"/>
     <use style="fill:#666666;stroke:#666666;" x="310.368552" xlink:href="#m0b54f7429b" y="268.250688"/>
     <use style="fill:#666666;stroke:#666666;" x="311.258886" xlink:href="#m0b54f7429b" y="236.117053"/>
     <use style="fill:#666666;stroke:#666666;" x="312.14922" xlink:href="#m0b54f7429b" y="233.834287"/>
     <use style="fill:#666666;stroke:#666666;" x="313.039555" xlink:href="#m0b54f7429b" y="230.854447"/>
     <use style="fill:#666666;stroke:#666666;" x="313.929889" xlink:href="#m0b54f7429b" y="223.128745"/>
     <use style="fill:#666666;stroke:#666666;" x="314.820223" xlink:href="#m0b54f7429b" y="231.782166"/>
     <use style="fill:#666666;stroke:#666666;" x="315.710557" xlink:href="#m0b54f7429b" y="206.21864"/>
     <use style="fill:#666666;stroke:#666666;" x="316.600891" xlink:href="#m0b54f7429b" y="234.841099"/>
     <use style="fill:#666666;stroke:#666666;" x="317.491225" xlink:href="#m0b54f7429b" y="231.001084"/>
     <use style="fill:#666666;stroke:#666666;" x="318.381559" xlink:href="#m0b54f7429b" y="214.267407"/>
     <use style="fill:#666666;stroke:#666666;" x="319.271893" xlink:href="#m0b54f7429b" y="216.546882"/>
     <use style="fill:#666666;stroke:#666666;" x="320.162227" xlink:href="#m0b54f7429b" y="215.432547"/>
     <use style="fill:#666666;stroke:#666666;" x="321.052561" xlink:href="#m0b54f7429b" y="222.622285"/>
     <use style="fill:#666666;stroke:#666666;" x="321.942895" xlink:href="#m0b54f7429b" y="252.011843"/>
     <use style="fill:#666666;stroke:#666666;" x="322.833229" xlink:href="#m0b54f7429b" y="252.835512"/>
     <use style="fill:#666666;stroke:#666666;" x="323.723563" xlink:href="#m0b54f7429b" y="241.740027"/>
     <use style="fill:#666666;stroke:#666666;" x="324.613898" xlink:href="#m0b54f7429b" y="205.037092"/>
     <use style="fill:#666666;stroke:#666666;" x="325.504232" xlink:href="#m0b54f7429b" y="211.098561"/>
     <use style="fill:#666666;stroke:#666666;" x="326.394566" xlink:href="#m0b54f7429b" y="202.449517"/>
     <use style="fill:#666666;stroke:#666666;" x="327.2849" xlink:href="#m0b54f7429b" y="227.387221"/>
     <use style="fill:#666666;stroke:#666666;" x="328.175234" xlink:href="#m0b54f7429b" y="229.923633"/>
     <use style="fill:#666666;stroke:#666666;" x="329.065568" xlink:href="#m0b54f7429b" y="235.703097"/>
     <use style="fill:#666666;stroke:#666666;" x="329.955902" xlink:href="#m0b54f7429b" y="250.972529"/>
     <use style="fill:#666666;stroke:#666666;" x="330.846236" xlink:href="#m0b54f7429b" y="255.86517"/>
     <use style="fill:#666666;stroke:#666666;" x="331.73657" xlink:href="#m0b54f7429b" y="237.782606"/>
     <use style="fill:#666666;stroke:#666666;" x="332.626904" xlink:href="#m0b54f7429b" y="213.03678"/>
     <use style="fill:#666666;stroke:#666666;" x="333.517238" xlink:href="#m0b54f7429b" y="213.221797"/>
     <use style="fill:#666666;stroke:#666666;" x="334.407572" xlink:href="#m0b54f7429b" y="195.902005"/>
     <use style="fill:#666666;stroke:#666666;" x="335.297906" xlink:href="#m0b54f7429b" y="219.654145"/>
     <use style="fill:#666666;stroke:#666666;" x="336.188241" xlink:href="#m0b54f7429b" y="196.407459"/>
     <use style="fill:#666666;stroke:#666666;" x="337.078575" xlink:href="#m0b54f7429b" y="223.502428"/>
     <use style="fill:#666666;stroke:#666666;" x="337.968909" xlink:href="#m0b54f7429b" y="237.197343"/>
     <use style="fill:#666666;stroke:#666666;" x="338.859243" xlink:href="#m0b54f7429b" y="157.897811"/>
     <use style="fill:#666666;stroke:#666666;" x="339.749577" xlink:href="#m0b54f7429b" y="176.447255"/>
     <use style="fill:#666666;stroke:#666666;" x="340.639911" xlink:href="#m0b54f7429b" y="162.64454"/>
     <use style="fill:#666666;stroke:#666666;" x="341.530245" xlink:href="#m0b54f7429b" y="151.397365"/>
     <use style="fill:#666666;stroke:#666666;" x="342.420579" xlink:href="#m0b54f7429b" y="178.525224"/>
     <use style="fill:#666666;stroke:#666666;" x="343.310913" xlink:href="#m0b54f7429b" y="198.481371"/>
     <use style="fill:#666666;stroke:#666666;" x="344.201247" xlink:href="#m0b54f7429b" y="171.368029"/>
     <use style="fill:#666666;stroke:#666666;" x="345.091581" xlink:href="#m0b54f7429b" y="178.059505"/>
     <use style="fill:#666666;stroke:#666666;" x="345.981915" xlink:href="#m0b54f7429b" y="199.585351"/>
     <use style="fill:#666666;stroke:#666666;" x="346.872249" xlink:href="#m0b54f7429b" y="173.765604"/>
     <use style="fill:#666666;stroke:#666666;" x="347.762584" xlink:href="#m0b54f7429b" y="174.507588"/>
     <use style="fill:#666666;stroke:#666666;" x="348.652918" xlink:href="#m0b54f7429b" y="145.593707"/>
     <use style="fill:#666666;stroke:#666666;" x="349.543252" xlink:href="#m0b54f7429b" y="199.518786"/>
     <use style="fill:#666666;stroke:#666666;" x="350.433586" xlink:href="#m0b54f7429b" y="230.186846"/>
     <use style="fill:#666666;stroke:#666666;" x="351.32392" xlink:href="#m0b54f7429b" y="234.27741"/>
     <use style="fill:#666666;stroke:#666666;" x="352.214254" xlink:href="#m0b54f7429b" y="257.131457"/>
     <use style="fill:#666666;stroke:#666666;" x="353.104588" xlink:href="#m0b54f7429b" y="262.024998"/>
     <use style="fill:#666666;stroke:#666666;" x="353.994922" xlink:href="#m0b54f7429b" y="259.078043"/>
     <use style="fill:#666666;stroke:#666666;" x="354.885256" xlink:href="#m0b54f7429b" y="252.194472"/>
     <use style="fill:#666666;stroke:#666666;" x="355.77559" xlink:href="#m0b54f7429b" y="251.665688"/>
     <use style="fill:#666666;stroke:#666666;" x="356.665924" xlink:href="#m0b54f7429b" y="239.774452"/>
     <use style="fill:#666666;stroke:#666666;" x="357.556258" xlink:href="#m0b54f7429b" y="245.770283"/>
     <use style="fill:#666666;stroke:#666666;" x="358.446592" xlink:href="#m0b54f7429b" y="226.798885"/>
     <use style="fill:#666666;stroke:#666666;" x="359.336927" xlink:href="#m0b54f7429b" y="227.937793"/>
     <use style="fill:#666666;stroke:#666666;" x="360.227261" xlink:href="#m0b54f7429b" y="197.037897"/>
     <use style="fill:#666666;stroke:#666666;" x="361.117595" xlink:href="#m0b54f7429b" y="162.828986"/>
     <use style="fill:#666666;stroke:#666666;" x="362.007929" xlink:href="#m0b54f7429b" y="98.190267"/>
     <use style="fill:#666666;stroke:#666666;" x="362.898263" xlink:href="#m0b54f7429b" y="113.351737"/>
     <use style="fill:#666666;stroke:#666666;" x="363.788597" xlink:href="#m0b54f7429b" y="118.316701"/>
     <use style="fill:#666666;stroke:#666666;" x="364.678931" xlink:href="#m0b54f7429b" y="219.051251"/>
     <use style="fill:#666666;stroke:#666666;" x="365.569265" xlink:href="#m0b54f7429b" y="237.596931"/>
     <use style="fill:#666666;stroke:#666666;" x="366.459599" xlink:href="#m0b54f7429b" y="232.64708"/>
     <use style="fill:#666666;stroke:#666666;" x="367.349933" xlink:href="#m0b54f7429b" y="260.94365"/>
     <use style="fill:#666666;stroke:#666666;" x="368.240267" xlink:href="#m0b54f7429b" y="262.570864"/>
     <use style="fill:#666666;stroke:#666666;" x="369.130601" xlink:href="#m0b54f7429b" y="253.269668"/>
     <use style="fill:#666666;stroke:#666666;" x="370.020935" xlink:href="#m0b54f7429b" y="260.706717"/>
     <use style="fill:#666666;stroke:#666666;" x="370.911269" xlink:href="#m0b54f7429b" y="260.8291"/>
     <use style="fill:#666666;stroke:#666666;" x="371.801604" xlink:href="#m0b54f7429b" y="258.634026"/>
     <use style="fill:#666666;stroke:#666666;" x="372.691938" xlink:href="#m0b54f7429b" y="238.773568"/>
     <use style="fill:#666666;stroke:#666666;" x="373.582272" xlink:href="#m0b54f7429b" y="246.247916"/>
     <use style="fill:#666666;stroke:#666666;" x="374.472606" xlink:href="#m0b54f7429b" y="248.525435"/>
     <use style="fill:#666666;stroke:#666666;" x="375.36294" xlink:href="#m0b54f7429b" y="241.324712"/>
     <use style="fill:#666666;stroke:#666666;" x="376.253274" xlink:href="#m0b54f7429b" y="239.798465"/>
     <use style="fill:#666666;stroke:#666666;" x="377.143608" xlink:href="#m0b54f7429b" y="245.830344"/>
     <use style="fill:#666666;stroke:#666666;" x="378.033942" xlink:href="#m0b54f7429b" y="241.926059"/>
     <use style="fill:#666666;stroke:#666666;" x="378.924276" xlink:href="#m0b54f7429b" y="236.454976"/>
     <use style="fill:#666666;stroke:#666666;" x="379.81461" xlink:href="#m0b54f7429b" y="221.186144"/>
     <use style="fill:#666666;stroke:#666666;" x="380.704944" xlink:href="#m0b54f7429b" y="182.127782"/>
     <use style="fill:#666666;stroke:#666666;" x="381.595278" xlink:href="#m0b54f7429b" y="133.8256"/>
     <use style="fill:#666666;stroke:#666666;" x="382.485612" xlink:href="#m0b54f7429b" y="25.796364"/>
     <use style="fill:#666666;stroke:#666666;" x="383.375947" xlink:href="#m0b54f7429b" y="119.778137"/>
     <use style="fill:#666666;stroke:#666666;" x="384.266281" xlink:href="#m0b54f7429b" y="115.943425"/>
     <use style="fill:#666666;stroke:#666666;" x="385.156615" xlink:href="#m0b54f7429b" y="184.412836"/>
     <use style="fill:#666666;stroke:#666666;" x="386.046949" xlink:href="#m0b54f7429b" y="146.933051"/>
     <use style="fill:#666666;stroke:#666666;" x="386.937283" xlink:href="#m0b54f7429b" y="169.011962"/>
     <use style="fill:#666666;stroke:#666666;" x="387.827617" xlink:href="#m0b54f7429b" y="197.593877"/>
     <use style="fill:#666666;stroke:#666666;" x="388.717951" xlink:href="#m0b54f7429b" y="213.42202"/>
     <use style="fill:#666666;stroke:#666666;" x="389.608285" xlink:href="#m0b54f7429b" y="237.301698"/>
     <use style="fill:#666666;stroke:#666666;" x="390.498619" xlink:href="#m0b54f7429b" y="230.574506"/>
     <use style="fill:#666666;stroke:#666666;" x="391.388953" xlink:href="#m0b54f7429b" y="238.322872"/>
     <use style="fill:#666666;stroke:#666666;" x="392.279287" xlink:href="#m0b54f7429b" y="238.837065"/>
     <use style="fill:#666666;stroke:#666666;" x="393.169621" xlink:href="#m0b54f7429b" y="236.6595"/>
     <use style="fill:#666666;stroke:#666666;" x="394.059955" xlink:href="#m0b54f7429b" y="235.607011"/>
     <use style="fill:#666666;stroke:#666666;" x="394.95029" xlink:href="#m0b54f7429b" y="231.63387"/>
     <use style="fill:#666666;stroke:#666666;" x="395.840624" xlink:href="#m0b54f7429b" y="218.190062"/>
     <use style="fill:#666666;stroke:#666666;" x="396.730958" xlink:href="#m0b54f7429b" y="218.339322"/>
     <use style="fill:#666666;stroke:#666666;" x="397.621292" xlink:href="#m0b54f7429b" y="216.028501"/>
     <use style="fill:#666666;stroke:#666666;" x="398.511626" xlink:href="#m0b54f7429b" y="182.255761"/>
     <use style="fill:#666666;stroke:#666666;" x="399.40196" xlink:href="#m0b54f7429b" y="164.20756"/>
     <use style="fill:#666666;stroke:#666666;" x="400.292294" xlink:href="#m0b54f7429b" y="164.007883"/>
     <use style="fill:#666666;stroke:#666666;" x="401.182628" xlink:href="#m0b54f7429b" y="174.784412"/>
     <use style="fill:#666666;stroke:#666666;" x="402.072962" xlink:href="#m0b54f7429b" y="168.903178"/>
     <use style="fill:#666666;stroke:#666666;" x="402.963296" xlink:href="#m0b54f7429b" y="193.30591"/>
     <use style="fill:#666666;stroke:#666666;" x="403.85363" xlink:href="#m0b54f7429b" y="204.293654"/>
     <use style="fill:#666666;stroke:#666666;" x="404.743964" xlink:href="#m0b54f7429b" y="179.951451"/>
     <use style="fill:#666666;stroke:#666666;" x="405.634298" xlink:href="#m0b54f7429b" y="197.066754"/>
     <use style="fill:#666666;stroke:#666666;" x="406.524633" xlink:href="#m0b54f7429b" y="192.372727"/>
     <use style="fill:#666666;stroke:#666666;" x="407.414967" xlink:href="#m0b54f7429b" y="201.398048"/>
     <use style="fill:#666666;stroke:#666666;" x="408.305301" xlink:href="#m0b54f7429b" y="224.954765"/>
     <use style="fill:#666666;stroke:#666666;" x="409.195635" xlink:href="#m0b54f7429b" y="224.127794"/>
     <use style="fill:#666666;stroke:#666666;" x="410.085969" xlink:href="#m0b54f7429b" y="229.119321"/>
     <use style="fill:#666666;stroke:#666666;" x="410.976303" xlink:href="#m0b54f7429b" y="253.7963"/>
     <use style="fill:#666666;stroke:#666666;" x="411.866637" xlink:href="#m0b54f7429b" y="252.638469"/>
     <use style="fill:#666666;stroke:#666666;" x="412.756971" xlink:href="#m0b54f7429b" y="238.281146"/>
     <use style="fill:#666666;stroke:#666666;" x="413.647305" xlink:href="#m0b54f7429b" y="265.043642"/>
     <use style="fill:#666666;stroke:#666666;" x="414.537639" xlink:href="#m0b54f7429b" y="249.401531"/>
     <use style="fill:#666666;stroke:#666666;" x="415.427973" xlink:href="#m0b54f7429b" y="262.083255"/>
     <use style="fill:#666666;stroke:#666666;" x="416.318307" xlink:href="#m0b54f7429b" y="268.914977"/>
     <use style="fill:#666666;stroke:#666666;" x="417.208641" xlink:href="#m0b54f7429b" y="256.352729"/>
     <use style="fill:#666666;stroke:#666666;" x="418.098976" xlink:href="#m0b54f7429b" y="235.193829"/>
     <use style="fill:#666666;stroke:#666666;" x="418.98931" xlink:href="#m0b54f7429b" y="217.738843"/>
     <use style="fill:#666666;stroke:#666666;" x="419.879644" xlink:href="#m0b54f7429b" y="156.951344"/>
     <use style="fill:#666666;stroke:#666666;" x="420.769978" xlink:href="#m0b54f7429b" y="209.436242"/>
     <use style="fill:#666666;stroke:#666666;" x="421.660312" xlink:href="#m0b54f7429b" y="209.441244"/>
     <use style="fill:#666666;stroke:#666666;" x="422.550646" xlink:href="#m0b54f7429b" y="216.32651"/>
     <use style="fill:#666666;stroke:#666666;" x="423.44098" xlink:href="#m0b54f7429b" y="211.1403"/>
     <use style="fill:#666666;stroke:#666666;" x="424.331314" xlink:href="#m0b54f7429b" y="241.30933"/>
     <use style="fill:#666666;stroke:#666666;" x="425.221648" xlink:href="#m0b54f7429b" y="274.038528"/>
     <use style="fill:#666666;stroke:#666666;" x="426.111982" xlink:href="#m0b54f7429b" y="274.823598"/>
     <use style="fill:#666666;stroke:#666666;" x="427.002316" xlink:href="#m0b54f7429b" y="274.731413"/>
     <use style="fill:#666666;stroke:#666666;" x="427.89265" xlink:href="#m0b54f7429b" y="274.609232"/>
     <use style="fill:#666666;stroke:#666666;" x="428.782984" xlink:href="#m0b54f7429b" y="273.396374"/>
     <use style="fill:#666666;stroke:#666666;" x="429.673318" xlink:href="#m0b54f7429b" y="264.495377"/>
     <use style="fill:#666666;stroke:#666666;" x="430.563653" xlink:href="#m0b54f7429b" y="271.558888"/>
     <use style="fill:#666666;stroke:#666666;" x="431.453987" xlink:href="#m0b54f7429b" y="267.624194"/>
     <use style="fill:#666666;stroke:#666666;" x="432.344321" xlink:href="#m0b54f7429b" y="257.720108"/>
     <use style="fill:#666666;stroke:#666666;" x="433.234655" xlink:href="#m0b54f7429b" y="260.652401"/>
     <use style="fill:#666666;stroke:#666666;" x="434.124989" xlink:href="#m0b54f7429b" y="242.397239"/>
     <use style="fill:#666666;stroke:#666666;" x="435.015323" xlink:href="#m0b54f7429b" y="226.171961"/>
     <use style="fill:#666666;stroke:#666666;" x="435.905657" xlink:href="#m0b54f7429b" y="210.766074"/>
     <use style="fill:#666666;stroke:#666666;" x="436.795991" xlink:href="#m0b54f7429b" y="154.794078"/>
     <use style="fill:#666666;stroke:#666666;" x="437.686325" xlink:href="#m0b54f7429b" y="149.195525"/>
     <use style="fill:#666666;stroke:#666666;" x="438.576659" xlink:href="#m0b54f7429b" y="154.418815"/>
     <use style="fill:#666666;stroke:#666666;" x="439.466993" xlink:href="#m0b54f7429b" y="171.413245"/>
     <use style="fill:#666666;stroke:#666666;" x="440.357327" xlink:href="#m0b54f7429b" y="199.326096"/>
     <use style="fill:#666666;stroke:#666666;" x="441.247661" xlink:href="#m0b54f7429b" y="208.147462"/>
     <use style="fill:#666666;stroke:#666666;" x="442.137996" xlink:href="#m0b54f7429b" y="223.656464"/>
     <use style="fill:#666666;stroke:#666666;" x="443.02833" xlink:href="#m0b54f7429b" y="234.248322"/>
     <use style="fill:#666666;stroke:#666666;" x="443.918664" xlink:href="#m0b54f7429b" y="221.928645"/>
     <use style="fill:#666666;stroke:#666666;" x="444.808998" xlink:href="#m0b54f7429b" y="218.916639"/>
     <use style="fill:#666666;stroke:#666666;" x="445.699332" xlink:href="#m0b54f7429b" y="193.128143"/>
     <use style="fill:#666666;stroke:#666666;" x="446.589666" xlink:href="#m0b54f7429b" y="198.697665"/>
     <use style="fill:#666666;stroke:#666666;" x="447.48" xlink:href="#m0b54f7429b" y="53.00494"/>
    </g>
   </g>
   <g id="patch_3">
    <path d="M 47.72 287.8 
L 47.72 13.32 
" style="fill:none;stroke:#000000;stroke-linecap:square;stroke-linejoin:miter;stroke-width:0.8;"/>
   </g>
   <g id="patch_4">
    <path d="M 447.48 287.8 
L 447.48 13.32 
" style="fill:none;stroke:#000000;stroke-linecap:square;stroke-linejoin:miter;stroke-width:0.8;"/>
   </g>
   <g id="patch_5">
    <path d="M 47.72 287.8 
L 447.48 287.8 
" style="fill:none;stroke:#000000;stroke-linecap:square;stroke-linejoin:miter;stroke-width:0.8;"/>
   </g>
   <g id="patch_6">
    <path d="M 47.72 13.32 
L 447.48 13.32 
" style="fill:none;stroke:#000000;stroke-linecap:square;stroke-linejoin:miter;stroke-width:0.8;"/>
   </g>
  </g>
 </g>
 <defs>
  <clipPath id="p25f59ed374">
   <rect height="274.48" width="399.76" x="47.72" y="13.32"/>
  </clipPath>
 </defs>
</svg>
