<?xml version="1.0" encoding="utf-8" standalone="no"?>
<!DOCTYPE svg PUBLIC "-//W3C//DTD SVG 1.1//EN"
  "http://www.w3.org/Graphics/SVG/1.1/DTD/svg11.dtd">
<!-- Created with matplotlib (http://matplotlib.org/) -->
<svg height="345.6pt" version="1.1" viewBox="0 0 460.8 345.6" width="460.8pt" xmlns="http://www.w3.org/2000/svg" xmlns:xlink="http://www.w3.org/1999/xlink">
 <defs>
  <style type="text/css">
*{stroke-linecap:butt;stroke-linejoin:round;}
  </style>
 </defs>
 <g id="figure_1">
  <g id="patch_1">
   <path d="M 0 345.6 
L 460.8 345.6 
L 460.8 0 
L 0 0 
z
" style="fill:#ffffff;"/>
  </g>
  <g id="axes_1">
   <g id="patch_2">
    <path d="M 57.6 307.584 
L 414.72 307.584 
L 414.72 41.472 
L 57.6 41.472 
z
" style="fill:#ffffff;"/>
   </g>
   <g id="matplotlib.axis_1">
    <g id="xtick_1">
     <g id="line2d_1">
      <defs>
       <path d="M 0 0 
L 0 3.5 
" id="m13002084ef" style="stroke:#000000;stroke-width:0.8;"/>
      </defs>
      <g>
       <use style="stroke:#000000;stroke-width:0.8;" x="73.832727" xlink:href="#m13002084ef" y="307.584"/>
      </g>
     </g>
     <g id="text_1">
      <!-- 0 -->
      <defs>
       <path d="M 31.78125 66.40625 
Q 24.171875 66.40625 20.328125 58.90625 
Q 16.5 51.421875 16.5 36.375 
Q 16.5 21.390625 20.328125 13.890625 
Q 24.171875 6.390625 31.78125 6.390625 
Q 39.453125 6.390625 43.28125 13.890625 
Q 47.125 21.390625 47.125 36.375 
Q 47.125 51.421875 43.28125 58.90625 
Q 39.453125 66.40625 31.78125 66.40625 
z
M 31.78125 74.21875 
Q 44.046875 74.21875 50.515625 64.515625 
Q 56.984375 54.828125 56.984375 36.375 
Q 56.984375 17.96875 50.515625 8.265625 
Q 44.046875 -1.421875 31.78125 -1.421875 
Q 19.53125 -1.421875 13.0625 8.265625 
Q 6.59375 17.96875 6.59375 36.375 
Q 6.59375 54.828125 13.0625 64.515625 
Q 19.53125 74.21875 31.78125 74.21875 
z
" id="DejaVuSans-30"/>
      </defs>
      <g transform="translate(70.651477 322.182437)scale(0.1 -0.1)">
       <use xlink:href="#DejaVuSans-30"/>
      </g>
     </g>
    </g>
    <g id="xtick_2">
     <g id="line2d_2">
      <g>
       <use style="stroke:#000000;stroke-width:0.8;" x="128.122785" xlink:href="#m13002084ef" y="307.584"/>
      </g>
     </g>
     <g id="text_2">
      <!-- 50 -->
      <defs>
       <path d="M 10.796875 72.90625 
L 49.515625 72.90625 
L 49.515625 64.59375 
L 19.828125 64.59375 
L 19.828125 46.734375 
Q 21.96875 47.46875 24.109375 47.828125 
Q 26.265625 48.1875 28.421875 48.1875 
Q 40.625 48.1875 47.75 41.5 
Q 54.890625 34.8125 54.890625 23.390625 
Q 54.890625 11.625 47.5625 5.09375 
Q 40.234375 -1.421875 26.90625 -1.421875 
Q 22.3125 -1.421875 17.546875 -0.640625 
Q 12.796875 0.140625 7.71875 1.703125 
L 7.71875 11.625 
Q 12.109375 9.234375 16.796875 8.0625 
Q 21.484375 6.890625 26.703125 6.890625 
Q 35.15625 6.890625 40.078125 11.328125 
Q 45.015625 15.765625 45.015625 23.390625 
Q 45.015625 31 40.078125 35.4375 
Q 35.15625 39.890625 26.703125 39.890625 
Q 22.75 39.890625 18.8125 39.015625 
Q 14.890625 38.140625 10.796875 36.28125 
z
" id="DejaVuSans-35"/>
      </defs>
      <g transform="translate(121.760285 322.182437)scale(0.1 -0.1)">
       <use xlink:href="#DejaVuSans-35"/>
       <use x="63.623047" xlink:href="#DejaVuSans-30"/>
      </g>
     </g>
    </g>
    <g id="xtick_3">
     <g id="line2d_3">
      <g>
       <use style="stroke:#000000;stroke-width:0.8;" x="182.412843" xlink:href="#m13002084ef" y="307.584"/>
      </g>
     </g>
     <g id="text_3">
      <!-- 100 -->
      <defs>
       <path d="M 12.40625 8.296875 
L 28.515625 8.296875 
L 28.515625 63.921875 
L 10.984375 60.40625 
L 10.984375 69.390625 
L 28.421875 72.90625 
L 38.28125 72.90625 
L 38.28125 8.296875 
L 54.390625 8.296875 
L 54.390625 0 
L 12.40625 0 
z
" id="DejaVuSans-31"/>
      </defs>
      <g transform="translate(172.869093 322.182437)scale(0.1 -0.1)">
       <use xlink:href="#DejaVuSans-31"/>
       <use x="63.623047" xlink:href="#DejaVuSans-30"/>
       <use x="127.246094" xlink:href="#DejaVuSans-30"/>
      </g>
     </g>
    </g>
    <g id="xtick_4">
     <g id="line2d_4">
      <g>
       <use style="stroke:#000000;stroke-width:0.8;" x="236.702901" xlink:href="#m13002084ef" y="307.584"/>
      </g>
     </g>
     <g id="text_4">
      <!-- 150 -->
      <g transform="translate(227.159151 322.182437)scale(0.1 -0.1)">
       <use xlink:href="#DejaVuSans-31"/>
       <use x="63.623047" xlink:href="#DejaVuSans-35"/>
       <use x="127.246094" xlink:href="#DejaVuSans-30"/>
      </g>
     </g>
    </g>
    <g id="xtick_5">
     <g id="line2d_5">
      <g>
       <use style="stroke:#000000;stroke-width:0.8;" x="290.992958" xlink:href="#m13002084ef" y="307.584"/>
      </g>
     </g>
     <g id="text_5">
      <!-- 200 -->
      <defs>
       <path d="M 19.1875 8.296875 
L 53.609375 8.296875 
L 53.609375 0 
L 7.328125 0 
L 7.328125 8.296875 
Q 12.9375 14.109375 22.625 23.890625 
Q 32.328125 33.6875 34.8125 36.53125 
Q 39.546875 41.84375 41.421875 45.53125 
Q 43.3125 49.21875 43.3125 52.78125 
Q 43.3125 58.59375 39.234375 62.25 
Q 35.15625 65.921875 28.609375 65.921875 
Q 23.96875 65.921875 18.8125 64.3125 
Q 13.671875 62.703125 7.8125 59.421875 
L 7.8125 69.390625 
Q 13.765625 71.78125 18.9375 73 
Q 24.125 74.21875 28.421875 74.21875 
Q 39.75 74.21875 46.484375 68.546875 
Q 53.21875 62.890625 53.21875 53.421875 
Q 53.21875 48.921875 51.53125 44.890625 
Q 49.859375 40.875 45.40625 35.40625 
Q 44.1875 33.984375 37.640625 27.21875 
Q 31.109375 20.453125 19.1875 8.296875 
z
" id="DejaVuSans-32"/>
      </defs>
      <g transform="translate(281.449208 322.182437)scale(0.1 -0.1)">
       <use xlink:href="#DejaVuSans-32"/>
       <use x="63.623047" xlink:href="#DejaVuSans-30"/>
       <use x="127.246094" xlink:href="#DejaVuSans-30"/>
      </g>
     </g>
    </g>
    <g id="xtick_6">
     <g id="line2d_6">
      <g>
       <use style="stroke:#000000;stroke-width:0.8;" x="345.283016" xlink:href="#m13002084ef" y="307.584"/>
      </g>
     </g>
     <g id="text_6">
      <!-- 250 -->
      <g transform="translate(335.739266 322.182437)scale(0.1 -0.1)">
       <use xlink:href="#DejaVuSans-32"/>
       <use x="63.623047" xlink:href="#DejaVuSans-35"/>
       <use x="127.246094" xlink:href="#DejaVuSans-30"/>
      </g>
     </g>
    </g>
    <g id="xtick_7">
     <g id="line2d_7">
      <g>
       <use style="stroke:#000000;stroke-width:0.8;" x="399.573074" xlink:href="#m13002084ef" y="307.584"/>
      </g>
     </g>
    </g>
    <g id="text_7">
     <!-- Frame index -->
     <defs>
      <path d="M 9.8125 72.90625 
L 51.703125 72.90625 
L 51.703125 64.59375 
L 19.671875 64.59375 
L 19.671875 43.109375 
L 48.578125 43.109375 
L 48.578125 34.8125 
L 19.671875 34.8125 
L 19.671875 0 
L 9.8125 0 
z
" id="DejaVuSans-46"/>
      <path d="M 41.109375 46.296875 
Q 39.59375 47.171875 37.8125 47.578125 
Q 36.03125 48 33.890625 48 
Q 26.265625 48 22.1875 43.046875 
Q 18.109375 38.09375 18.109375 28.8125 
L 18.109375 0 
L 9.078125 0 
L 9.078125 54.6875 
L 18.109375 54.6875 
L 18.109375 46.1875 
Q 20.953125 51.171875 25.484375 53.578125 
Q 30.03125 56 36.53125 56 
Q 37.453125 56 38.578125 55.875 
Q 39.703125 55.765625 41.0625 55.515625 
z
" id="DejaVuSans-72"/>
      <path d="M 34.28125 27.484375 
Q 23.390625 27.484375 19.1875 25 
Q 14.984375 22.515625 14.984375 16.5 
Q 14.984375 11.71875 18.140625 8.90625 
Q 21.296875 6.109375 26.703125 6.109375 
Q 34.1875 6.109375 38.703125 11.40625 
Q 43.21875 16.703125 43.21875 25.484375 
L 43.21875 27.484375 
z
M 52.203125 31.203125 
L 52.203125 0 
L 43.21875 0 
L 43.21875 8.296875 
Q 40.140625 3.328125 35.546875 0.953125 
Q 30.953125 -1.421875 24.3125 -1.421875 
Q 15.921875 -1.421875 10.953125 3.296875 
Q 6 8.015625 6 15.921875 
Q 6 25.140625 12.171875 29.828125 
Q 18.359375 34.515625 30.609375 34.515625 
L 43.21875 34.515625 
L 43.21875 35.40625 
Q 43.21875 41.609375 39.140625 45 
Q 35.0625 48.390625 27.6875 48.390625 
Q 23 48.390625 18.546875 47.265625 
Q 14.109375 46.140625 10.015625 43.890625 
L 10.015625 52.203125 
Q 14.9375 54.109375 19.578125 55.046875 
Q 24.21875 56 28.609375 56 
Q 40.484375 56 46.34375 49.84375 
Q 52.203125 43.703125 52.203125 31.203125 
z
" id="DejaVuSans-61"/>
      <path d="M 52 44.1875 
Q 55.375 50.25 60.0625 53.125 
Q 64.75 56 71.09375 56 
Q 79.640625 56 84.28125 50.015625 
Q 88.921875 44.046875 88.921875 33.015625 
L 88.921875 0 
L 79.890625 0 
L 79.890625 32.71875 
Q 79.890625 40.578125 77.09375 44.375 
Q 74.3125 48.1875 68.609375 48.1875 
Q 61.625 48.1875 57.5625 43.546875 
Q 53.515625 38.921875 53.515625 30.90625 
L 53.515625 0 
L 44.484375 0 
L 44.484375 32.71875 
Q 44.484375 40.625 41.703125 44.40625 
Q 38.921875 48.1875 33.109375 48.1875 
Q 26.21875 48.1875 22.15625 43.53125 
Q 18.109375 38.875 18.109375 30.90625 
L 18.109375 0 
L 9.078125 0 
L 9.078125 54.6875 
L 18.109375 54.6875 
L 18.109375 46.1875 
Q 21.1875 51.21875 25.484375 53.609375 
Q 29.78125 56 35.6875 56 
Q 41.65625 56 45.828125 52.96875 
Q 50 49.953125 52 44.1875 
z
" id="DejaVuSans-6d"/>
      <path d="M 56.203125 29.59375 
L 56.203125 25.203125 
L 14.890625 25.203125 
Q 15.484375 15.921875 20.484375 11.0625 
Q 25.484375 6.203125 34.421875 6.203125 
Q 39.59375 6.203125 44.453125 7.46875 
Q 49.3125 8.734375 54.109375 11.28125 
L 54.109375 2.78125 
Q 49.265625 0.734375 44.1875 -0.34375 
Q 39.109375 -1.421875 33.890625 -1.421875 
Q 20.796875 -1.421875 13.15625 6.1875 
Q 5.515625 13.8125 5.515625 26.8125 
Q 5.515625 40.234375 12.765625 48.109375 
Q 20.015625 56 32.328125 56 
Q 43.359375 56 49.78125 48.890625 
Q 56.203125 41.796875 56.203125 29.59375 
z
M 47.21875 32.234375 
Q 47.125 39.59375 43.09375 43.984375 
Q 39.0625 48.390625 32.421875 48.390625 
Q 24.90625 48.390625 20.390625 44.140625 
Q 15.875 39.890625 15.1875 32.171875 
z
" id="DejaVuSans-65"/>
      <path id="DejaVuSans-20"/>
      <path d="M 9.421875 54.6875 
L 18.40625 54.6875 
L 18.40625 0 
L 9.421875 0 
z
M 9.421875 75.984375 
L 18.40625 75.984375 
L 18.40625 64.59375 
L 9.421875 64.59375 
z
" id="DejaVuSans-69"/>
      <path d="M 54.890625 33.015625 
L 54.890625 0 
L 45.90625 0 
L 45.90625 32.71875 
Q 45.90625 40.484375 42.875 44.328125 
Q 39.84375 48.1875 33.796875 48.1875 
Q 26.515625 48.1875 22.3125 43.546875 
Q 18.109375 38.921875 18.109375 30.90625 
L 18.109375 0 
L 9.078125 0 
L 9.078125 54.6875 
L 18.109375 54.6875 
L 18.109375 46.1875 
Q 21.34375 51.125 25.703125 53.5625 
Q 30.078125 56 35.796875 56 
Q 45.21875 56 50.046875 50.171875 
Q 54.890625 44.34375 54.890625 33.015625 
z
" id="DejaVuSans-6e"/>
      <path d="M 45.40625 46.390625 
L 45.40625 75.984375 
L 54.390625 75.984375 
L 54.390625 0 
L 45.40625 0 
L 45.40625 8.203125 
Q 42.578125 3.328125 38.25 0.953125 
Q 33.9375 -1.421875 27.875 -1.421875 
Q 17.96875 -1.421875 11.734375 6.484375 
Q 5.515625 14.40625 5.515625 27.296875 
Q 5.515625 40.1875 11.734375 48.09375 
Q 17.96875 56 27.875 56 
Q 33.9375 56 38.25 53.625 
Q 42.578125 51.265625 45.40625 46.390625 
z
M 14.796875 27.296875 
Q 14.796875 17.390625 18.875 11.75 
Q 22.953125 6.109375 30.078125 6.109375 
Q 37.203125 6.109375 41.296875 11.75 
Q 45.40625 17.390625 45.40625 27.296875 
Q 45.40625 37.203125 41.296875 42.84375 
Q 37.203125 48.484375 30.078125 48.484375 
Q 22.953125 48.484375 18.875 42.84375 
Q 14.796875 37.203125 14.796875 27.296875 
z
" id="DejaVuSans-64"/>
      <path d="M 54.890625 54.6875 
L 35.109375 28.078125 
L 55.90625 0 
L 45.3125 0 
L 29.390625 21.484375 
L 13.484375 0 
L 2.875 0 
L 24.125 28.609375 
L 4.6875 54.6875 
L 15.28125 54.6875 
L 29.78125 35.203125 
L 44.28125 54.6875 
z
" id="DejaVuSans-78"/>
     </defs>
     <g transform="translate(204.867031 335.860562)scale(0.1 -0.1)">
      <use xlink:href="#DejaVuSans-46"/>
      <use x="57.410156" xlink:href="#DejaVuSans-72"/>
      <use x="98.523438" xlink:href="#DejaVuSans-61"/>
      <use x="159.802734" xlink:href="#DejaVuSans-6d"/>
      <use x="257.214844" xlink:href="#DejaVuSans-65"/>
      <use x="318.738281" xlink:href="#DejaVuSans-20"/>
      <use x="350.525391" xlink:href="#DejaVuSans-69"/>
      <use x="378.308594" xlink:href="#DejaVuSans-6e"/>
      <use x="441.6875" xlink:href="#DejaVuSans-64"/>
      <use x="505.164062" xlink:href="#DejaVuSans-65"/>
      <use x="566.671875" xlink:href="#DejaVuSans-78"/>
     </g>
    </g>
   </g>
   <g id="matplotlib.axis_2">
    <g id="ytick_1">
     <g id="line2d_8">
      <defs>
       <path d="M 0 0 
L -3.5 0 
" id="m46ce77d4c7" style="stroke:#000000;stroke-width:0.8;"/>
      </defs>
      <g>
       <use style="stroke:#000000;stroke-width:0.8;" x="57.6" xlink:href="#m46ce77d4c7" y="284.91767"/>
      </g>
     </g>
     <g id="text_8">
      <!-- 1.8 -->
      <defs>
       <path d="M 10.6875 12.40625 
L 21 12.40625 
L 21 0 
L 10.6875 0 
z
" id="DejaVuSans-2e"/>
       <path d="M 31.78125 34.625 
Q 24.75 34.625 20.71875 30.859375 
Q 16.703125 27.09375 16.703125 20.515625 
Q 16.703125 13.921875 20.71875 10.15625 
Q 24.75 6.390625 31.78125 6.390625 
Q 38.8125 6.390625 42.859375 10.171875 
Q 46.921875 13.96875 46.921875 20.515625 
Q 46.921875 27.09375 42.890625 30.859375 
Q 38.875 34.625 31.78125 34.625 
z
M 21.921875 38.8125 
Q 15.578125 40.375 12.03125 44.71875 
Q 8.5 49.078125 8.5 55.328125 
Q 8.5 64.0625 14.71875 69.140625 
Q 20.953125 74.21875 31.78125 74.21875 
Q 42.671875 74.21875 48.875 69.140625 
Q 55.078125 64.0625 55.078125 55.328125 
Q 55.078125 49.078125 51.53125 44.71875 
Q 48 40.375 41.703125 38.8125 
Q 48.828125 37.15625 52.796875 32.3125 
Q 56.78125 27.484375 56.78125 20.515625 
Q 56.78125 9.90625 50.3125 4.234375 
Q 43.84375 -1.421875 31.78125 -1.421875 
Q 19.734375 -1.421875 13.25 4.234375 
Q 6.78125 9.90625 6.78125 20.515625 
Q 6.78125 27.484375 10.78125 32.3125 
Q 14.796875 37.15625 21.921875 38.8125 
z
M 18.3125 54.390625 
Q 18.3125 48.734375 21.84375 45.5625 
Q 25.390625 42.390625 31.78125 42.390625 
Q 38.140625 42.390625 41.71875 45.5625 
Q 45.3125 48.734375 45.3125 54.390625 
Q 45.3125 60.0625 41.71875 63.234375 
Q 38.140625 66.40625 31.78125 66.40625 
Q 25.390625 66.40625 21.84375 63.234375 
Q 18.3125 60.0625 18.3125 54.390625 
z
" id="DejaVuSans-38"/>
      </defs>
      <g transform="translate(34.696875 288.716889)scale(0.1 -0.1)">
       <use xlink:href="#DejaVuSans-31"/>
       <use x="63.623047" xlink:href="#DejaVuSans-2e"/>
       <use x="95.410156" xlink:href="#DejaVuSans-38"/>
      </g>
     </g>
    </g>
    <g id="ytick_2">
     <g id="line2d_9">
      <g>
       <use style="stroke:#000000;stroke-width:0.8;" x="57.6" xlink:href="#m46ce77d4c7" y="253.861204"/>
      </g>
     </g>
     <g id="text_9">
      <!-- 2.0 -->
      <g transform="translate(34.696875 257.660422)scale(0.1 -0.1)">
       <use xlink:href="#DejaVuSans-32"/>
       <use x="63.623047" xlink:href="#DejaVuSans-2e"/>
       <use x="95.410156" xlink:href="#DejaVuSans-30"/>
      </g>
     </g>
    </g>
    <g id="ytick_3">
     <g id="line2d_10">
      <g>
       <use style="stroke:#000000;stroke-width:0.8;" x="57.6" xlink:href="#m46ce77d4c7" y="222.804737"/>
      </g>
     </g>
     <g id="text_10">
      <!-- 2.2 -->
      <g transform="translate(34.696875 226.603956)scale(0.1 -0.1)">
       <use xlink:href="#DejaVuSans-32"/>
       <use x="63.623047" xlink:href="#DejaVuSans-2e"/>
       <use x="95.410156" xlink:href="#DejaVuSans-32"/>
      </g>
     </g>
    </g>
    <g id="ytick_4">
     <g id="line2d_11">
      <g>
       <use style="stroke:#000000;stroke-width:0.8;" x="57.6" xlink:href="#m46ce77d4c7" y="191.748271"/>
      </g>
     </g>
     <g id="text_11">
      <!-- 2.4 -->
      <defs>
       <path d="M 37.796875 64.3125 
L 12.890625 25.390625 
L 37.796875 25.390625 
z
M 35.203125 72.90625 
L 47.609375 72.90625 
L 47.609375 25.390625 
L 58.015625 25.390625 
L 58.015625 17.1875 
L 47.609375 17.1875 
L 47.609375 0 
L 37.796875 0 
L 37.796875 17.1875 
L 4.890625 17.1875 
L 4.890625 26.703125 
z
" id="DejaVuSans-34"/>
      </defs>
      <g transform="translate(34.696875 195.54749)scale(0.1 -0.1)">
       <use xlink:href="#DejaVuSans-32"/>
       <use x="63.623047" xlink:href="#DejaVuSans-2e"/>
       <use x="95.410156" xlink:href="#DejaVuSans-34"/>
      </g>
     </g>
    </g>
    <g id="ytick_5">
     <g id="line2d_12">
      <g>
       <use style="stroke:#000000;stroke-width:0.8;" x="57.6" xlink:href="#m46ce77d4c7" y="160.691805"/>
      </g>
     </g>
     <g id="text_12">
      <!-- 2.6 -->
      <defs>
       <path d="M 33.015625 40.375 
Q 26.375 40.375 22.484375 35.828125 
Q 18.609375 31.296875 18.609375 23.390625 
Q 18.609375 15.53125 22.484375 10.953125 
Q 26.375 6.390625 33.015625 6.390625 
Q 39.65625 6.390625 43.53125 10.953125 
Q 47.40625 15.53125 47.40625 23.390625 
Q 47.40625 31.296875 43.53125 35.828125 
Q 39.65625 40.375 33.015625 40.375 
z
M 52.59375 71.296875 
L 52.59375 62.3125 
Q 48.875 64.0625 45.09375 64.984375 
Q 41.3125 65.921875 37.59375 65.921875 
Q 27.828125 65.921875 22.671875 59.328125 
Q 17.53125 52.734375 16.796875 39.40625 
Q 19.671875 43.65625 24.015625 45.921875 
Q 28.375 48.1875 33.59375 48.1875 
Q 44.578125 48.1875 50.953125 41.515625 
Q 57.328125 34.859375 57.328125 23.390625 
Q 57.328125 12.15625 50.6875 5.359375 
Q 44.046875 -1.421875 33.015625 -1.421875 
Q 20.359375 -1.421875 13.671875 8.265625 
Q 6.984375 17.96875 6.984375 36.375 
Q 6.984375 53.65625 15.1875 63.9375 
Q 23.390625 74.21875 37.203125 74.21875 
Q 40.921875 74.21875 44.703125 73.484375 
Q 48.484375 72.75 52.59375 71.296875 
z
" id="DejaVuSans-36"/>
      </defs>
      <g transform="translate(34.696875 164.491023)scale(0.1 -0.1)">
       <use xlink:href="#DejaVuSans-32"/>
       <use x="63.623047" xlink:href="#DejaVuSans-2e"/>
       <use x="95.410156" xlink:href="#DejaVuSans-36"/>
      </g>
     </g>
    </g>
    <g id="ytick_6">
     <g id="line2d_13">
      <g>
       <use style="stroke:#000000;stroke-width:0.8;" x="57.6" xlink:href="#m46ce77d4c7" y="129.635338"/>
      </g>
     </g>
     <g id="text_13">
      <!-- 2.8 -->
      <g transform="translate(34.696875 133.434557)scale(0.1 -0.1)">
       <use xlink:href="#DejaVuSans-32"/>
       <use x="63.623047" xlink:href="#DejaVuSans-2e"/>
       <use x="95.410156" xlink:href="#DejaVuSans-38"/>
      </g>
     </g>
    </g>
    <g id="ytick_7">
     <g id="line2d_14">
      <g>
       <use style="stroke:#000000;stroke-width:0.8;" x="57.6" xlink:href="#m46ce77d4c7" y="98.578872"/>
      </g>
     </g>
     <g id="text_14">
      <!-- 3.0 -->
      <defs>
       <path d="M 40.578125 39.3125 
Q 47.65625 37.796875 51.625 33 
Q 55.609375 28.21875 55.609375 21.1875 
Q 55.609375 10.40625 48.1875 4.484375 
Q 40.765625 -1.421875 27.09375 -1.421875 
Q 22.515625 -1.421875 17.65625 -0.515625 
Q 12.796875 0.390625 7.625 2.203125 
L 7.625 11.71875 
Q 11.71875 9.328125 16.59375 8.109375 
Q 21.484375 6.890625 26.8125 6.890625 
Q 36.078125 6.890625 40.9375 10.546875 
Q 45.796875 14.203125 45.796875 21.1875 
Q 45.796875 27.640625 41.28125 31.265625 
Q 36.765625 34.90625 28.71875 34.90625 
L 20.21875 34.90625 
L 20.21875 43.015625 
L 29.109375 43.015625 
Q 36.375 43.015625 40.234375 45.921875 
Q 44.09375 48.828125 44.09375 54.296875 
Q 44.09375 59.90625 40.109375 62.90625 
Q 36.140625 65.921875 28.71875 65.921875 
Q 24.65625 65.921875 20.015625 65.03125 
Q 15.375 64.15625 9.8125 62.3125 
L 9.8125 71.09375 
Q 15.4375 72.65625 20.34375 73.4375 
Q 25.25 74.21875 29.59375 74.21875 
Q 40.828125 74.21875 47.359375 69.109375 
Q 53.90625 64.015625 53.90625 55.328125 
Q 53.90625 49.265625 50.4375 45.09375 
Q 46.96875 40.921875 40.578125 39.3125 
z
" id="DejaVuSans-33"/>
      </defs>
      <g transform="translate(34.696875 102.378091)scale(0.1 -0.1)">
       <use xlink:href="#DejaVuSans-33"/>
       <use x="63.623047" xlink:href="#DejaVuSans-2e"/>
       <use x="95.410156" xlink:href="#DejaVuSans-30"/>
      </g>
     </g>
    </g>
    <g id="ytick_8">
     <g id="line2d_15">
      <g>
       <use style="stroke:#000000;stroke-width:0.8;" x="57.6" xlink:href="#m46ce77d4c7" y="67.522406"/>
      </g>
     </g>
     <g id="text_15">
      <!-- 3.2 -->
      <g transform="translate(34.696875 71.321624)scale(0.1 -0.1)">
       <use xlink:href="#DejaVuSans-33"/>
       <use x="63.623047" xlink:href="#DejaVuSans-2e"/>
       <use x="95.410156" xlink:href="#DejaVuSans-32"/>
      </g>
     </g>
    </g>
    <g id="text_16">
     <!-- RMSD -->
     <defs>
      <path d="M 44.390625 34.1875 
Q 47.5625 33.109375 50.5625 29.59375 
Q 53.5625 26.078125 56.59375 19.921875 
L 66.609375 0 
L 56 0 
L 46.6875 18.703125 
Q 43.0625 26.03125 39.671875 28.421875 
Q 36.28125 30.8125 30.421875 30.8125 
L 19.671875 30.8125 
L 19.671875 0 
L 9.8125 0 
L 9.8125 72.90625 
L 32.078125 72.90625 
Q 44.578125 72.90625 50.734375 67.671875 
Q 56.890625 62.453125 56.890625 51.90625 
Q 56.890625 45.015625 53.6875 40.46875 
Q 50.484375 35.9375 44.390625 34.1875 
z
M 19.671875 64.796875 
L 19.671875 38.921875 
L 32.078125 38.921875 
Q 39.203125 38.921875 42.84375 42.21875 
Q 46.484375 45.515625 46.484375 51.90625 
Q 46.484375 58.296875 42.84375 61.546875 
Q 39.203125 64.796875 32.078125 64.796875 
z
" id="DejaVuSans-52"/>
      <path d="M 9.8125 72.90625 
L 24.515625 72.90625 
L 43.109375 23.296875 
L 61.8125 72.90625 
L 76.515625 72.90625 
L 76.515625 0 
L 66.890625 0 
L 66.890625 64.015625 
L 48.09375 14.015625 
L 38.1875 14.015625 
L 19.390625 64.015625 
L 19.390625 0 
L 9.8125 0 
z
" id="DejaVuSans-4d"/>
      <path d="M 53.515625 70.515625 
L 53.515625 60.890625 
Q 47.90625 63.578125 42.921875 64.890625 
Q 37.9375 66.21875 33.296875 66.21875 
Q 25.25 66.21875 20.875 63.09375 
Q 16.5 59.96875 16.5 54.203125 
Q 16.5 49.359375 19.40625 46.890625 
Q 22.3125 44.4375 30.421875 42.921875 
L 36.375 41.703125 
Q 47.40625 39.59375 52.65625 34.296875 
Q 57.90625 29 57.90625 20.125 
Q 57.90625 9.515625 50.796875 4.046875 
Q 43.703125 -1.421875 29.984375 -1.421875 
Q 24.8125 -1.421875 18.96875 -0.25 
Q 13.140625 0.921875 6.890625 3.21875 
L 6.890625 13.375 
Q 12.890625 10.015625 18.65625 8.296875 
Q 24.421875 6.59375 29.984375 6.59375 
Q 38.421875 6.59375 43.015625 9.90625 
Q 47.609375 13.234375 47.609375 19.390625 
Q 47.609375 24.75 44.3125 27.78125 
Q 41.015625 30.8125 33.5 32.328125 
L 27.484375 33.5 
Q 16.453125 35.6875 11.515625 40.375 
Q 6.59375 45.0625 6.59375 53.421875 
Q 6.59375 63.09375 13.40625 68.65625 
Q 20.21875 74.21875 32.171875 74.21875 
Q 37.3125 74.21875 42.625 73.28125 
Q 47.953125 72.359375 53.515625 70.515625 
z
" id="DejaVuSans-53"/>
      <path d="M 19.671875 64.796875 
L 19.671875 8.109375 
L 31.59375 8.109375 
Q 46.6875 8.109375 53.6875 14.9375 
Q 60.6875 21.78125 60.6875 36.53125 
Q 60.6875 51.171875 53.6875 57.984375 
Q 46.6875 64.796875 31.59375 64.796875 
z
M 9.8125 72.90625 
L 30.078125 72.90625 
Q 51.265625 72.90625 61.171875 64.09375 
Q 71.09375 55.28125 71.09375 36.53125 
Q 71.09375 17.671875 61.125 8.828125 
Q 51.171875 0 30.078125 0 
L 9.8125 0 
z
" id="DejaVuSans-44"/>
     </defs>
     <g transform="translate(28.617187 189.3405)rotate(-90)scale(0.1 -0.1)">
      <use xlink:href="#DejaVuSans-52"/>
      <use x="69.482422" xlink:href="#DejaVuSans-4d"/>
      <use x="155.761719" xlink:href="#DejaVuSans-53"/>
      <use x="219.238281" xlink:href="#DejaVuSans-44"/>
     </g>
    </g>
   </g>
   <g id="line2d_16">
    <path clip-path="url(#p48d9eb7e28)" d="M 73.832727 295.488 
L 74.918528 270.311561 
L 76.00433 257.074301 
L 77.090131 256.103462 
L 78.175932 234.406004 
L 79.261733 221.846927 
L 80.347534 204.392871 
L 81.433335 199.085637 
L 82.519137 176.836428 
L 83.604938 183.655928 
L 84.690739 181.369242 
L 85.77654 178.508553 
L 86.862341 177.902848 
L 87.948142 175.631953 
L 89.033943 168.431305 
L 90.119745 167.082312 
L 91.205546 163.413367 
L 92.291347 167.327807 
L 93.377148 173.91045 
L 94.462949 168.833149 
L 95.54875 167.816675 
L 96.634552 154.529979 
L 97.720353 138.029426 
L 98.806154 136.685562 
L 99.891955 139.958351 
L 100.977756 140.81959 
L 102.063557 146.08731 
L 103.149358 157.629316 
L 104.23516 141.666278 
L 105.320961 144.268816 
L 106.406762 141.503337 
L 107.492563 141.812843 
L 108.578364 141.552966 
L 109.664165 138.55763 
L 110.749967 139.277057 
L 111.835768 141.134881 
L 112.921569 132.363578 
L 114.00737 132.602862 
L 115.093171 132.228815 
L 116.178972 124.168322 
L 117.264773 123.889637 
L 118.350575 130.9166 
L 119.436376 130.650665 
L 120.522177 126.509892 
L 121.607978 130.395928 
L 122.693779 131.453828 
L 123.77958 127.100692 
L 124.865382 133.345459 
L 125.951183 130.356033 
L 127.036984 121.62994 
L 128.122785 117.623049 
L 129.208586 123.293174 
L 130.294387 123.754291 
L 131.380189 115.621741 
L 132.46599 123.96267 
L 134.637592 129.731077 
L 135.723393 121.150328 
L 136.809194 118.290737 
L 137.894995 123.226484 
L 138.980797 126.005466 
L 140.066598 118.259468 
L 141.152399 113.260531 
L 142.2382 118.488381 
L 143.324001 109.535303 
L 144.409802 110.889246 
L 145.495604 106.550287 
L 146.581405 114.007321 
L 147.667206 120.384033 
L 148.753007 116.976439 
L 149.838808 118.921046 
L 150.924609 124.48098 
L 152.01041 119.137729 
L 153.096212 111.120244 
L 154.182013 112.445134 
L 155.267814 110.053529 
L 156.353615 105.334253 
L 157.439416 116.453909 
L 158.525217 112.112238 
L 159.611019 113.726757 
L 160.69682 114.705406 
L 161.782621 110.033814 
L 162.868422 113.988326 
L 163.954223 119.985189 
L 165.040024 113.998411 
L 166.125825 115.954149 
L 167.211627 113.64226 
L 168.297428 110.270881 
L 169.383229 108.562776 
L 170.46903 111.166826 
L 171.554831 104.084617 
L 172.640632 105.270408 
L 173.726434 100.64774 
L 174.812235 103.326944 
L 175.898036 106.472804 
L 176.983837 102.956043 
L 178.069638 106.195616 
L 179.155439 104.434302 
L 180.24124 109.000516 
L 181.327042 106.417049 
L 182.412843 104.681392 
L 183.498644 102.677052 
L 184.584445 98.430596 
L 185.670246 95.98208 
L 186.756047 103.789731 
L 187.841849 95.805294 
L 188.92765 100.35076 
L 190.013451 100.029279 
L 191.099252 99.441462 
L 192.185053 102.079449 
L 193.270854 94.006402 
L 194.356656 102.764811 
L 195.442457 103.1711 
L 196.528258 108.662791 
L 197.614059 101.488336 
L 198.69986 98.898441 
L 199.785661 95.768484 
L 200.871462 94.469041 
L 201.957264 95.160902 
L 203.043065 104.010817 
L 204.128866 97.957708 
L 205.214667 98.400532 
L 206.300468 97.100161 
L 207.386269 106.002579 
L 208.472071 102.684984 
L 209.557872 98.062017 
L 210.643673 99.605396 
L 211.729474 96.997669 
L 212.815275 97.421238 
L 213.901076 92.127609 
L 214.986877 88.670494 
L 216.072679 88.470564 
L 217.15848 80.006673 
L 218.244281 88.665539 
L 219.330082 90.439304 
L 220.415883 77.488766 
L 221.501684 73.981413 
L 222.587486 73.454114 
L 223.673287 77.178081 
L 224.759088 73.68098 
L 225.844889 72.871707 
L 226.93069 69.950018 
L 228.016491 61.427288 
L 229.102292 68.562544 
L 230.188094 63.075434 
L 231.273895 71.159253 
L 232.359696 70.064205 
L 233.445497 64.847598 
L 234.531298 66.559232 
L 235.617099 67.82968 
L 236.702901 68.33676 
L 237.788702 69.073377 
L 238.874503 69.161901 
L 239.960304 73.471515 
L 241.046105 70.079618 
L 242.131906 72.291681 
L 243.217708 76.893337 
L 244.303509 68.803066 
L 245.38931 74.697164 
L 246.475111 74.297382 
L 247.560912 75.150437 
L 248.646713 81.102383 
L 249.732514 80.070351 
L 250.818316 78.873801 
L 251.904117 81.28675 
L 252.989918 81.484697 
L 254.075719 79.073729 
L 255.16152 73.676475 
L 256.247321 79.122938 
L 257.333123 90.329789 
L 258.418924 89.777667 
L 259.504725 78.439976 
L 260.590526 72.564791 
L 262.762128 76.396339 
L 263.847929 76.746547 
L 264.933731 74.741427 
L 266.019532 66.665668 
L 267.105333 64.380217 
L 268.191134 64.670181 
L 269.276935 60.68431 
L 270.362736 69.20995 
L 271.448538 65.804434 
L 272.534339 66.05618 
L 273.62014 71.308865 
L 274.705941 64.872358 
L 275.791742 62.44176 
L 277.963344 53.568 
L 279.049146 61.997103 
L 281.220748 76.829496 
L 282.306549 68.534444 
L 283.39235 63.147208 
L 284.478151 69.023206 
L 285.563953 67.737239 
L 286.649754 68.847623 
L 287.735555 64.712108 
L 288.821356 65.678821 
L 289.907157 69.637173 
L 290.992958 62.963231 
L 292.07876 67.862378 
L 294.250362 72.233003 
L 295.336163 65.137728 
L 296.421964 64.07711 
L 297.507765 63.360521 
L 298.593566 75.040439 
L 299.679368 73.673673 
L 300.765169 72.597339 
L 301.85097 75.724741 
L 302.936771 83.333053 
L 304.022572 77.103832 
L 305.108373 78.069356 
L 306.194175 83.163879 
L 307.279976 87.203351 
L 308.365777 92.964014 
L 309.451578 91.44945 
L 310.537379 88.084225 
L 311.62318 87.919039 
L 312.708981 78.89591 
L 313.794783 81.752736 
L 314.880584 85.133314 
L 315.966385 93.79601 
L 317.052186 88.52007 
L 318.137987 89.723426 
L 319.223788 86.088726 
L 320.30959 89.686204 
L 321.395391 95.270572 
L 322.481192 90.422445 
L 323.566993 82.595779 
L 324.652794 89.31169 
L 325.738595 84.773972 
L 326.824396 79.317229 
L 327.910198 81.467076 
L 328.995999 79.401327 
L 330.0818 81.293151 
L 332.253402 74.62855 
L 333.339203 79.011162 
L 334.425005 85.966776 
L 335.510806 76.6931 
L 336.596607 80.671341 
L 337.682408 80.324496 
L 338.768209 78.159745 
L 339.85401 83.249422 
L 340.939811 86.490811 
L 342.025613 78.99674 
L 343.111414 82.86952 
L 344.197215 83.037557 
L 345.283016 80.915982 
L 346.368817 77.729664 
L 347.454618 83.508529 
L 348.54042 72.558708 
L 349.626221 76.731847 
L 350.712022 79.399695 
L 351.797823 79.29031 
L 352.883624 85.258461 
L 353.969425 88.478913 
L 356.141028 92.770578 
L 357.226829 92.139192 
L 358.31263 92.398253 
L 359.398431 98.893439 
L 360.484232 101.339475 
L 361.570033 94.98809 
L 362.655835 85.663114 
L 363.741636 82.769527 
L 364.827437 82.538773 
L 365.913238 78.365017 
L 366.999039 82.131821 
L 368.08484 89.806911 
L 369.170642 85.734856 
L 370.256443 90.424343 
L 371.342244 87.432886 
L 372.428045 90.197477 
L 373.513846 96.387068 
L 374.599647 91.157275 
L 375.685448 91.417977 
L 376.77125 92.670665 
L 377.857051 89.659259 
L 378.942852 89.017109 
L 380.028653 87.983622 
L 381.114454 95.413318 
L 382.200255 89.123372 
L 383.286057 90.247335 
L 384.371858 88.00709 
L 385.457659 87.873168 
L 386.54346 88.434672 
L 387.629261 83.802942 
L 388.715062 87.451387 
L 389.800863 82.025242 
L 390.886665 78.439018 
L 391.972466 80.924273 
L 393.058267 86.140083 
L 394.144068 88.125663 
L 395.229869 83.657411 
L 396.31567 82.496947 
L 397.401472 90.552775 
L 398.487273 84.481334 
L 398.487273 84.481334 
" style="fill:none;stroke:#666666;stroke-dasharray:1,1.65;stroke-dashoffset:0;"/>
    <defs>
     <path d="M 0 0.5 
C 0.132602 0.5 0.25979 0.447317 0.353553 0.353553 
C 0.447317 0.25979 0.5 0.132602 0.5 0 
C 0.5 -0.132602 0.447317 -0.25979 0.353553 -0.353553 
C 0.25979 -0.447317 0.132602 -0.5 0 -0.5 
C -0.132602 -0.5 -0.25979 -0.447317 -0.353553 -0.353553 
C -0.447317 -0.25979 -0.5 -0.132602 -0.5 0 
C -0.5 0.132602 -0.447317 0.25979 -0.353553 0.353553 
C -0.25979 0.447317 -0.132602 0.5 0 0.5 
z
" id="m27923a80ea" style="stroke:#666666;"/>
    </defs>
    <g clip-path="url(#p48d9eb7e28)">
     <use style="fill:#666666;stroke:#666666;" x="73.832727" xlink:href="#m27923a80ea" y="295.488"/>
     <use style="fill:#666666;stroke:#666666;" x="74.918528" xlink:href="#m27923a80ea" y="270.311561"/>
     <use style="fill:#666666;stroke:#666666;" x="76.00433" xlink:href="#m27923a80ea" y="257.074301"/>
     <use style="fill:#666666;stroke:#666666;" x="77.090131" xlink:href="#m27923a80ea" y="256.103462"/>
     <use style="fill:#666666;stroke:#666666;" x="78.175932" xlink:href="#m27923a80ea" y="234.406004"/>
     <use style="fill:#666666;stroke:#666666;" x="79.261733" xlink:href="#m27923a80ea" y="221.846927"/>
     <use style="fill:#666666;stroke:#666666;" x="80.347534" xlink:href="#m27923a80ea" y="204.392871"/>
     <use style="fill:#666666;stroke:#666666;" x="81.433335" xlink:href="#m27923a80ea" y="199.085637"/>
     <use style="fill:#666666;stroke:#666666;" x="82.519137" xlink:href="#m27923a80ea" y="176.836428"/>
     <use style="fill:#666666;stroke:#666666;" x="83.604938" xlink:href="#m27923a80ea" y="183.655928"/>
     <use style="fill:#666666;stroke:#666666;" x="84.690739" xlink:href="#m27923a80ea" y="181.369242"/>
     <use style="fill:#666666;stroke:#666666;" x="85.77654" xlink:href="#m27923a80ea" y="178.508553"/>
     <use style="fill:#666666;stroke:#666666;" x="86.862341" xlink:href="#m27923a80ea" y="177.902848"/>
     <use style="fill:#666666;stroke:#666666;" x="87.948142" xlink:href="#m27923a80ea" y="175.631953"/>
     <use style="fill:#666666;stroke:#666666;" x="89.033943" xlink:href="#m27923a80ea" y="168.431305"/>
     <use style="fill:#666666;stroke:#666666;" x="90.119745" xlink:href="#m27923a80ea" y="167.082312"/>
     <use style="fill:#666666;stroke:#666666;" x="91.205546" xlink:href="#m27923a80ea" y="163.413367"/>
     <use style="fill:#666666;stroke:#666666;" x="92.291347" xlink:href="#m27923a80ea" y="167.327807"/>
     <use style="fill:#666666;stroke:#666666;" x="93.377148" xlink:href="#m27923a80ea" y="173.91045"/>
     <use style="fill:#666666;stroke:#666666;" x="94.462949" xlink:href="#m27923a80ea" y="168.833149"/>
     <use style="fill:#666666;stroke:#666666;" x="95.54875" xlink:href="#m27923a80ea" y="167.816675"/>
     <use style="fill:#666666;stroke:#666666;" x="96.634552" xlink:href="#m27923a80ea" y="154.529979"/>
     <use style="fill:#666666;stroke:#666666;" x="97.720353" xlink:href="#m27923a80ea" y="138.029426"/>
     <use style="fill:#666666;stroke:#666666;" x="98.806154" xlink:href="#m27923a80ea" y="136.685562"/>
     <use style="fill:#666666;stroke:#666666;" x="99.891955" xlink:href="#m27923a80ea" y="139.958351"/>
     <use style="fill:#666666;stroke:#666666;" x="100.977756" xlink:href="#m27923a80ea" y="140.81959"/>
     <use style="fill:#666666;stroke:#666666;" x="102.063557" xlink:href="#m27923a80ea" y="146.08731"/>
     <use style="fill:#666666;stroke:#666666;" x="103.149358" xlink:href="#m27923a80ea" y="157.629316"/>
     <use style="fill:#666666;stroke:#666666;" x="104.23516" xlink:href="#m27923a80ea" y="141.666278"/>
     <use style="fill:#666666;stroke:#666666;" x="105.320961" xlink:href="#m27923a80ea" y="144.268816"/>
     <use style="fill:#666666;stroke:#666666;" x="106.406762" xlink:href="#m27923a80ea" y="141.503337"/>
     <use style="fill:#666666;stroke:#666666;" x="107.492563" xlink:href="#m27923a80ea" y="141.812843"/>
     <use style="fill:#666666;stroke:#666666;" x="108.578364" xlink:href="#m27923a80ea" y="141.552966"/>
     <use style="fill:#666666;stroke:#666666;" x="109.664165" xlink:href="#m27923a80ea" y="138.55763"/>
     <use style="fill:#666666;stroke:#666666;" x="110.749967" xlink:href="#m27923a80ea" y="139.277057"/>
     <use style="fill:#666666;stroke:#666666;" x="111.835768" xlink:href="#m27923a80ea" y="141.134881"/>
     <use style="fill:#666666;stroke:#666666;" x="112.921569" xlink:href="#m27923a80ea" y="132.363578"/>
     <use style="fill:#666666;stroke:#666666;" x="114.00737" xlink:href="#m27923a80ea" y="132.602862"/>
     <use style="fill:#666666;stroke:#666666;" x="115.093171" xlink:href="#m27923a80ea" y="132.228815"/>
     <use style="fill:#666666;stroke:#666666;" x="116.178972" xlink:href="#m27923a80ea" y="124.168322"/>
     <use style="fill:#666666;stroke:#666666;" x="117.264773" xlink:href="#m27923a80ea" y="123.889637"/>
     <use style="fill:#666666;stroke:#666666;" x="118.350575" xlink:href="#m27923a80ea" y="130.9166"/>
     <use style="fill:#666666;stroke:#666666;" x="119.436376" xlink:href="#m27923a80ea" y="130.650665"/>
     <use style="fill:#666666;stroke:#666666;" x="120.522177" xlink:href="#m27923a80ea" y="126.509892"/>
     <use style="fill:#666666;stroke:#666666;" x="121.607978" xlink:href="#m27923a80ea" y="130.395928"/>
     <use style="fill:#666666;stroke:#666666;" x="122.693779" xlink:href="#m27923a80ea" y="131.453828"/>
     <use style="fill:#666666;stroke:#666666;" x="123.77958" xlink:href="#m27923a80ea" y="127.100692"/>
     <use style="fill:#666666;stroke:#666666;" x="124.865382" xlink:href="#m27923a80ea" y="133.345459"/>
     <use style="fill:#666666;stroke:#666666;" x="125.951183" xlink:href="#m27923a80ea" y="130.356033"/>
     <use style="fill:#666666;stroke:#666666;" x="127.036984" xlink:href="#m27923a80ea" y="121.62994"/>
     <use style="fill:#666666;stroke:#666666;" x="128.122785" xlink:href="#m27923a80ea" y="117.623049"/>
     <use style="fill:#666666;stroke:#666666;" x="129.208586" xlink:href="#m27923a80ea" y="123.293174"/>
     <use style="fill:#666666;stroke:#666666;" x="130.294387" xlink:href="#m27923a80ea" y="123.754291"/>
     <use style="fill:#666666;stroke:#666666;" x="131.380189" xlink:href="#m27923a80ea" y="115.621741"/>
     <use style="fill:#666666;stroke:#666666;" x="132.46599" xlink:href="#m27923a80ea" y="123.96267"/>
     <use style="fill:#666666;stroke:#666666;" x="133.551791" xlink:href="#m27923a80ea" y="126.964404"/>
     <use style="fill:#666666;stroke:#666666;" x="134.637592" xlink:href="#m27923a80ea" y="129.731077"/>
     <use style="fill:#666666;stroke:#666666;" x="135.723393" xlink:href="#m27923a80ea" y="121.150328"/>
     <use style="fill:#666666;stroke:#666666;" x="136.809194" xlink:href="#m27923a80ea" y="118.290737"/>
     <use style="fill:#666666;stroke:#666666;" x="137.894995" xlink:href="#m27923a80ea" y="123.226484"/>
     <use style="fill:#666666;stroke:#666666;" x="138.980797" xlink:href="#m27923a80ea" y="126.005466"/>
     <use style="fill:#666666;stroke:#666666;" x="140.066598" xlink:href="#m27923a80ea" y="118.259468"/>
     <use style="fill:#666666;stroke:#666666;" x="141.152399" xlink:href="#m27923a80ea" y="113.260531"/>
     <use style="fill:#666666;stroke:#666666;" x="142.2382" xlink:href="#m27923a80ea" y="118.488381"/>
     <use style="fill:#666666;stroke:#666666;" x="143.324001" xlink:href="#m27923a80ea" y="109.535303"/>
     <use style="fill:#666666;stroke:#666666;" x="144.409802" xlink:href="#m27923a80ea" y="110.889246"/>
     <use style="fill:#666666;stroke:#666666;" x="145.495604" xlink:href="#m27923a80ea" y="106.550287"/>
     <use style="fill:#666666;stroke:#666666;" x="146.581405" xlink:href="#m27923a80ea" y="114.007321"/>
     <use style="fill:#666666;stroke:#666666;" x="147.667206" xlink:href="#m27923a80ea" y="120.384033"/>
     <use style="fill:#666666;stroke:#666666;" x="148.753007" xlink:href="#m27923a80ea" y="116.976439"/>
     <use style="fill:#666666;stroke:#666666;" x="149.838808" xlink:href="#m27923a80ea" y="118.921046"/>
     <use style="fill:#666666;stroke:#666666;" x="150.924609" xlink:href="#m27923a80ea" y="124.48098"/>
     <use style="fill:#666666;stroke:#666666;" x="152.01041" xlink:href="#m27923a80ea" y="119.137729"/>
     <use style="fill:#666666;stroke:#666666;" x="153.096212" xlink:href="#m27923a80ea" y="111.120244"/>
     <use style="fill:#666666;stroke:#666666;" x="154.182013" xlink:href="#m27923a80ea" y="112.445134"/>
     <use style="fill:#666666;stroke:#666666;" x="155.267814" xlink:href="#m27923a80ea" y="110.053529"/>
     <use style="fill:#666666;stroke:#666666;" x="156.353615" xlink:href="#m27923a80ea" y="105.334253"/>
     <use style="fill:#666666;stroke:#666666;" x="157.439416" xlink:href="#m27923a80ea" y="116.453909"/>
     <use style="fill:#666666;stroke:#666666;" x="158.525217" xlink:href="#m27923a80ea" y="112.112238"/>
     <use style="fill:#666666;stroke:#666666;" x="159.611019" xlink:href="#m27923a80ea" y="113.726757"/>
     <use style="fill:#666666;stroke:#666666;" x="160.69682" xlink:href="#m27923a80ea" y="114.705406"/>
     <use style="fill:#666666;stroke:#666666;" x="161.782621" xlink:href="#m27923a80ea" y="110.033814"/>
     <use style="fill:#666666;stroke:#666666;" x="162.868422" xlink:href="#m27923a80ea" y="113.988326"/>
     <use style="fill:#666666;stroke:#666666;" x="163.954223" xlink:href="#m27923a80ea" y="119.985189"/>
     <use style="fill:#666666;stroke:#666666;" x="165.040024" xlink:href="#m27923a80ea" y="113.998411"/>
     <use style="fill:#666666;stroke:#666666;" x="166.125825" xlink:href="#m27923a80ea" y="115.954149"/>
     <use style="fill:#666666;stroke:#666666;" x="167.211627" xlink:href="#m27923a80ea" y="113.64226"/>
     <use style="fill:#666666;stroke:#666666;" x="168.297428" xlink:href="#m27923a80ea" y="110.270881"/>
     <use style="fill:#666666;stroke:#666666;" x="169.383229" xlink:href="#m27923a80ea" y="108.562776"/>
     <use style="fill:#666666;stroke:#666666;" x="170.46903" xlink:href="#m27923a80ea" y="111.166826"/>
     <use style="fill:#666666;stroke:#666666;" x="171.554831" xlink:href="#m27923a80ea" y="104.084617"/>
     <use style="fill:#666666;stroke:#666666;" x="172.640632" xlink:href="#m27923a80ea" y="105.270408"/>
     <use style="fill:#666666;stroke:#666666;" x="173.726434" xlink:href="#m27923a80ea" y="100.64774"/>
     <use style="fill:#666666;stroke:#666666;" x="174.812235" xlink:href="#m27923a80ea" y="103.326944"/>
     <use style="fill:#666666;stroke:#666666;" x="175.898036" xlink:href="#m27923a80ea" y="106.472804"/>
     <use style="fill:#666666;stroke:#666666;" x="176.983837" xlink:href="#m27923a80ea" y="102.956043"/>
     <use style="fill:#666666;stroke:#666666;" x="178.069638" xlink:href="#m27923a80ea" y="106.195616"/>
     <use style="fill:#666666;stroke:#666666;" x="179.155439" xlink:href="#m27923a80ea" y="104.434302"/>
     <use style="fill:#666666;stroke:#666666;" x="180.24124" xlink:href="#m27923a80ea" y="109.000516"/>
     <use style="fill:#666666;stroke:#666666;" x="181.327042" xlink:href="#m27923a80ea" y="106.417049"/>
     <use style="fill:#666666;stroke:#666666;" x="182.412843" xlink:href="#m27923a80ea" y="104.681392"/>
     <use style="fill:#666666;stroke:#666666;" x="183.498644" xlink:href="#m27923a80ea" y="102.677052"/>
     <use style="fill:#666666;stroke:#666666;" x="184.584445" xlink:href="#m27923a80ea" y="98.430596"/>
     <use style="fill:#666666;stroke:#666666;" x="185.670246" xlink:href="#m27923a80ea" y="95.98208"/>
     <use style="fill:#666666;stroke:#666666;" x="186.756047" xlink:href="#m27923a80ea" y="103.789731"/>
     <use style="fill:#666666;stroke:#666666;" x="187.841849" xlink:href="#m27923a80ea" y="95.805294"/>
     <use style="fill:#666666;stroke:#666666;" x="188.92765" xlink:href="#m27923a80ea" y="100.35076"/>
     <use style="fill:#666666;stroke:#666666;" x="190.013451" xlink:href="#m27923a80ea" y="100.029279"/>
     <use style="fill:#666666;stroke:#666666;" x="191.099252" xlink:href="#m27923a80ea" y="99.441462"/>
     <use style="fill:#666666;stroke:#666666;" x="192.185053" xlink:href="#m27923a80ea" y="102.079449"/>
     <use style="fill:#666666;stroke:#666666;" x="193.270854" xlink:href="#m27923a80ea" y="94.006402"/>
     <use style="fill:#666666;stroke:#666666;" x="194.356656" xlink:href="#m27923a80ea" y="102.764811"/>
     <use style="fill:#666666;stroke:#666666;" x="195.442457" xlink:href="#m27923a80ea" y="103.1711"/>
     <use style="fill:#666666;stroke:#666666;" x="196.528258" xlink:href="#m27923a80ea" y="108.662791"/>
     <use style="fill:#666666;stroke:#666666;" x="197.614059" xlink:href="#m27923a80ea" y="101.488336"/>
     <use style="fill:#666666;stroke:#666666;" x="198.69986" xlink:href="#m27923a80ea" y="98.898441"/>
     <use style="fill:#666666;stroke:#666666;" x="199.785661" xlink:href="#m27923a80ea" y="95.768484"/>
     <use style="fill:#666666;stroke:#666666;" x="200.871462" xlink:href="#m27923a80ea" y="94.469041"/>
     <use style="fill:#666666;stroke:#666666;" x="201.957264" xlink:href="#m27923a80ea" y="95.160902"/>
     <use style="fill:#666666;stroke:#666666;" x="203.043065" xlink:href="#m27923a80ea" y="104.010817"/>
     <use style="fill:#666666;stroke:#666666;" x="204.128866" xlink:href="#m27923a80ea" y="97.957708"/>
     <use style="fill:#666666;stroke:#666666;" x="205.214667" xlink:href="#m27923a80ea" y="98.400532"/>
     <use style="fill:#666666;stroke:#666666;" x="206.300468" xlink:href="#m27923a80ea" y="97.100161"/>
     <use style="fill:#666666;stroke:#666666;" x="207.386269" xlink:href="#m27923a80ea" y="106.002579"/>
     <use style="fill:#666666;stroke:#666666;" x="208.472071" xlink:href="#m27923a80ea" y="102.684984"/>
     <use style="fill:#666666;stroke:#666666;" x="209.557872" xlink:href="#m27923a80ea" y="98.062017"/>
     <use style="fill:#666666;stroke:#666666;" x="210.643673" xlink:href="#m27923a80ea" y="99.605396"/>
     <use style="fill:#666666;stroke:#666666;" x="211.729474" xlink:href="#m27923a80ea" y="96.997669"/>
     <use style="fill:#666666;stroke:#666666;" x="212.815275" xlink:href="#m27923a80ea" y="97.421238"/>
     <use style="fill:#666666;stroke:#666666;" x="213.901076" xlink:href="#m27923a80ea" y="92.127609"/>
     <use style="fill:#666666;stroke:#666666;" x="214.986877" xlink:href="#m27923a80ea" y="88.670494"/>
     <use style="fill:#666666;stroke:#666666;" x="216.072679" xlink:href="#m27923a80ea" y="88.470564"/>
     <use style="fill:#666666;stroke:#666666;" x="217.15848" xlink:href="#m27923a80ea" y="80.006673"/>
     <use style="fill:#666666;stroke:#666666;" x="218.244281" xlink:href="#m27923a80ea" y="88.665539"/>
     <use style="fill:#666666;stroke:#666666;" x="219.330082" xlink:href="#m27923a80ea" y="90.439304"/>
     <use style="fill:#666666;stroke:#666666;" x="220.415883" xlink:href="#m27923a80ea" y="77.488766"/>
     <use style="fill:#666666;stroke:#666666;" x="221.501684" xlink:href="#m27923a80ea" y="73.981413"/>
     <use style="fill:#666666;stroke:#666666;" x="222.587486" xlink:href="#m27923a80ea" y="73.454114"/>
     <use style="fill:#666666;stroke:#666666;" x="223.673287" xlink:href="#m27923a80ea" y="77.178081"/>
     <use style="fill:#666666;stroke:#666666;" x="224.759088" xlink:href="#m27923a80ea" y="73.68098"/>
     <use style="fill:#666666;stroke:#666666;" x="225.844889" xlink:href="#m27923a80ea" y="72.871707"/>
     <use style="fill:#666666;stroke:#666666;" x="226.93069" xlink:href="#m27923a80ea" y="69.950018"/>
     <use style="fill:#666666;stroke:#666666;" x="228.016491" xlink:href="#m27923a80ea" y="61.427288"/>
     <use style="fill:#666666;stroke:#666666;" x="229.102292" xlink:href="#m27923a80ea" y="68.562544"/>
     <use style="fill:#666666;stroke:#666666;" x="230.188094" xlink:href="#m27923a80ea" y="63.075434"/>
     <use style="fill:#666666;stroke:#666666;" x="231.273895" xlink:href="#m27923a80ea" y="71.159253"/>
     <use style="fill:#666666;stroke:#666666;" x="232.359696" xlink:href="#m27923a80ea" y="70.064205"/>
     <use style="fill:#666666;stroke:#666666;" x="233.445497" xlink:href="#m27923a80ea" y="64.847598"/>
     <use style="fill:#666666;stroke:#666666;" x="234.531298" xlink:href="#m27923a80ea" y="66.559232"/>
     <use style="fill:#666666;stroke:#666666;" x="235.617099" xlink:href="#m27923a80ea" y="67.82968"/>
     <use style="fill:#666666;stroke:#666666;" x="236.702901" xlink:href="#m27923a80ea" y="68.33676"/>
     <use style="fill:#666666;stroke:#666666;" x="237.788702" xlink:href="#m27923a80ea" y="69.073377"/>
     <use style="fill:#666666;stroke:#666666;" x="238.874503" xlink:href="#m27923a80ea" y="69.161901"/>
     <use style="fill:#666666;stroke:#666666;" x="239.960304" xlink:href="#m27923a80ea" y="73.471515"/>
     <use style="fill:#666666;stroke:#666666;" x="241.046105" xlink:href="#m27923a80ea" y="70.079618"/>
     <use style="fill:#666666;stroke:#666666;" x="242.131906" xlink:href="#m27923a80ea" y="72.291681"/>
     <use style="fill:#666666;stroke:#666666;" x="243.217708" xlink:href="#m27923a80ea" y="76.893337"/>
     <use style="fill:#666666;stroke:#666666;" x="244.303509" xlink:href="#m27923a80ea" y="68.803066"/>
     <use style="fill:#666666;stroke:#666666;" x="245.38931" xlink:href="#m27923a80ea" y="74.697164"/>
     <use style="fill:#666666;stroke:#666666;" x="246.475111" xlink:href="#m27923a80ea" y="74.297382"/>
     <use style="fill:#666666;stroke:#666666;" x="247.560912" xlink:href="#m27923a80ea" y="75.150437"/>
     <use style="fill:#666666;stroke:#666666;" x="248.646713" xlink:href="#m27923a80ea" y="81.102383"/>
     <use style="fill:#666666;stroke:#666666;" x="249.732514" xlink:href="#m27923a80ea" y="80.070351"/>
     <use style="fill:#666666;stroke:#666666;" x="250.818316" xlink:href="#m27923a80ea" y="78.873801"/>
     <use style="fill:#666666;stroke:#666666;" x="251.904117" xlink:href="#m27923a80ea" y="81.28675"/>
     <use style="fill:#666666;stroke:#666666;" x="252.989918" xlink:href="#m27923a80ea" y="81.484697"/>
     <use style="fill:#666666;stroke:#666666;" x="254.075719" xlink:href="#m27923a80ea" y="79.073729"/>
     <use style="fill:#666666;stroke:#666666;" x="255.16152" xlink:href="#m27923a80ea" y="73.676475"/>
     <use style="fill:#666666;stroke:#666666;" x="256.247321" xlink:href="#m27923a80ea" y="79.122938"/>
     <use style="fill:#666666;stroke:#666666;" x="257.333123" xlink:href="#m27923a80ea" y="90.329789"/>
     <use style="fill:#666666;stroke:#666666;" x="258.418924" xlink:href="#m27923a80ea" y="89.777667"/>
     <use style="fill:#666666;stroke:#666666;" x="259.504725" xlink:href="#m27923a80ea" y="78.439976"/>
     <use style="fill:#666666;stroke:#666666;" x="260.590526" xlink:href="#m27923a80ea" y="72.564791"/>
     <use style="fill:#666666;stroke:#666666;" x="261.676327" xlink:href="#m27923a80ea" y="74.518991"/>
     <use style="fill:#666666;stroke:#666666;" x="262.762128" xlink:href="#m27923a80ea" y="76.396339"/>
     <use style="fill:#666666;stroke:#666666;" x="263.847929" xlink:href="#m27923a80ea" y="76.746547"/>
     <use style="fill:#666666;stroke:#666666;" x="264.933731" xlink:href="#m27923a80ea" y="74.741427"/>
     <use style="fill:#666666;stroke:#666666;" x="266.019532" xlink:href="#m27923a80ea" y="66.665668"/>
     <use style="fill:#666666;stroke:#666666;" x="267.105333" xlink:href="#m27923a80ea" y="64.380217"/>
     <use style="fill:#666666;stroke:#666666;" x="268.191134" xlink:href="#m27923a80ea" y="64.670181"/>
     <use style="fill:#666666;stroke:#666666;" x="269.276935" xlink:href="#m27923a80ea" y="60.68431"/>
     <use style="fill:#666666;stroke:#666666;" x="270.362736" xlink:href="#m27923a80ea" y="69.20995"/>
     <use style="fill:#666666;stroke:#666666;" x="271.448538" xlink:href="#m27923a80ea" y="65.804434"/>
     <use style="fill:#666666;stroke:#666666;" x="272.534339" xlink:href="#m27923a80ea" y="66.05618"/>
     <use style="fill:#666666;stroke:#666666;" x="273.62014" xlink:href="#m27923a80ea" y="71.308865"/>
     <use style="fill:#666666;stroke:#666666;" x="274.705941" xlink:href="#m27923a80ea" y="64.872358"/>
     <use style="fill:#666666;stroke:#666666;" x="275.791742" xlink:href="#m27923a80ea" y="62.44176"/>
     <use style="fill:#666666;stroke:#666666;" x="276.877543" xlink:href="#m27923a80ea" y="58.082295"/>
     <use style="fill:#666666;stroke:#666666;" x="277.963344" xlink:href="#m27923a80ea" y="53.568"/>
     <use style="fill:#666666;stroke:#666666;" x="279.049146" xlink:href="#m27923a80ea" y="61.997103"/>
     <use style="fill:#666666;stroke:#666666;" x="280.134947" xlink:href="#m27923a80ea" y="69.22905"/>
     <use style="fill:#666666;stroke:#666666;" x="281.220748" xlink:href="#m27923a80ea" y="76.829496"/>
     <use style="fill:#666666;stroke:#666666;" x="282.306549" xlink:href="#m27923a80ea" y="68.534444"/>
     <use style="fill:#666666;stroke:#666666;" x="283.39235" xlink:href="#m27923a80ea" y="63.147208"/>
     <use style="fill:#666666;stroke:#666666;" x="284.478151" xlink:href="#m27923a80ea" y="69.023206"/>
     <use style="fill:#666666;stroke:#666666;" x="285.563953" xlink:href="#m27923a80ea" y="67.737239"/>
     <use style="fill:#666666;stroke:#666666;" x="286.649754" xlink:href="#m27923a80ea" y="68.847623"/>
     <use style="fill:#666666;stroke:#666666;" x="287.735555" xlink:href="#m27923a80ea" y="64.712108"/>
     <use style="fill:#666666;stroke:#666666;" x="288.821356" xlink:href="#m27923a80ea" y="65.678821"/>
     <use style="fill:#666666;stroke:#666666;" x="289.907157" xlink:href="#m27923a80ea" y="69.637173"/>
     <use style="fill:#666666;stroke:#666666;" x="290.992958" xlink:href="#m27923a80ea" y="62.963231"/>
     <use style="fill:#666666;stroke:#666666;" x="292.07876" xlink:href="#m27923a80ea" y="67.862378"/>
     <use style="fill:#666666;stroke:#666666;" x="293.164561" xlink:href="#m27923a80ea" y="70.073455"/>
     <use style="fill:#666666;stroke:#666666;" x="294.250362" xlink:href="#m27923a80ea" y="72.233003"/>
     <use style="fill:#666666;stroke:#666666;" x="295.336163" xlink:href="#m27923a80ea" y="65.137728"/>
     <use style="fill:#666666;stroke:#666666;" x="296.421964" xlink:href="#m27923a80ea" y="64.07711"/>
     <use style="fill:#666666;stroke:#666666;" x="297.507765" xlink:href="#m27923a80ea" y="63.360521"/>
     <use style="fill:#666666;stroke:#666666;" x="298.593566" xlink:href="#m27923a80ea" y="75.040439"/>
     <use style="fill:#666666;stroke:#666666;" x="299.679368" xlink:href="#m27923a80ea" y="73.673673"/>
     <use style="fill:#666666;stroke:#666666;" x="300.765169" xlink:href="#m27923a80ea" y="72.597339"/>
     <use style="fill:#666666;stroke:#666666;" x="301.85097" xlink:href="#m27923a80ea" y="75.724741"/>
     <use style="fill:#666666;stroke:#666666;" x="302.936771" xlink:href="#m27923a80ea" y="83.333053"/>
     <use style="fill:#666666;stroke:#666666;" x="304.022572" xlink:href="#m27923a80ea" y="77.103832"/>
     <use style="fill:#666666;stroke:#666666;" x="305.108373" xlink:href="#m27923a80ea" y="78.069356"/>
     <use style="fill:#666666;stroke:#666666;" x="306.194175" xlink:href="#m27923a80ea" y="83.163879"/>
     <use style="fill:#666666;stroke:#666666;" x="307.279976" xlink:href="#m27923a80ea" y="87.203351"/>
     <use style="fill:#666666;stroke:#666666;" x="308.365777" xlink:href="#m27923a80ea" y="92.964014"/>
     <use style="fill:#666666;stroke:#666666;" x="309.451578" xlink:href="#m27923a80ea" y="91.44945"/>
     <use style="fill:#666666;stroke:#666666;" x="310.537379" xlink:href="#m27923a80ea" y="88.084225"/>
     <use style="fill:#666666;stroke:#666666;" x="311.62318" xlink:href="#m27923a80ea" y="87.919039"/>
     <use style="fill:#666666;stroke:#666666;" x="312.708981" xlink:href="#m27923a80ea" y="78.89591"/>
     <use style="fill:#666666;stroke:#666666;" x="313.794783" xlink:href="#m27923a80ea" y="81.752736"/>
     <use style="fill:#666666;stroke:#666666;" x="314.880584" xlink:href="#m27923a80ea" y="85.133314"/>
     <use style="fill:#666666;stroke:#666666;" x="315.966385" xlink:href="#m27923a80ea" y="93.79601"/>
     <use style="fill:#666666;stroke:#666666;" x="317.052186" xlink:href="#m27923a80ea" y="88.52007"/>
     <use style="fill:#666666;stroke:#666666;" x="318.137987" xlink:href="#m27923a80ea" y="89.723426"/>
     <use style="fill:#666666;stroke:#666666;" x="319.223788" xlink:href="#m27923a80ea" y="86.088726"/>
     <use style="fill:#666666;stroke:#666666;" x="320.30959" xlink:href="#m27923a80ea" y="89.686204"/>
     <use style="fill:#666666;stroke:#666666;" x="321.395391" xlink:href="#m27923a80ea" y="95.270572"/>
     <use style="fill:#666666;stroke:#666666;" x="322.481192" xlink:href="#m27923a80ea" y="90.422445"/>
     <use style="fill:#666666;stroke:#666666;" x="323.566993" xlink:href="#m27923a80ea" y="82.595779"/>
     <use style="fill:#666666;stroke:#666666;" x="324.652794" xlink:href="#m27923a80ea" y="89.31169"/>
     <use style="fill:#666666;stroke:#666666;" x="325.738595" xlink:href="#m27923a80ea" y="84.773972"/>
     <use style="fill:#666666;stroke:#666666;" x="326.824396" xlink:href="#m27923a80ea" y="79.317229"/>
     <use style="fill:#666666;stroke:#666666;" x="327.910198" xlink:href="#m27923a80ea" y="81.467076"/>
     <use style="fill:#666666;stroke:#666666;" x="328.995999" xlink:href="#m27923a80ea" y="79.401327"/>
     <use style="fill:#666666;stroke:#666666;" x="330.0818" xlink:href="#m27923a80ea" y="81.293151"/>
     <use style="fill:#666666;stroke:#666666;" x="331.167601" xlink:href="#m27923a80ea" y="77.889985"/>
     <use style="fill:#666666;stroke:#666666;" x="332.253402" xlink:href="#m27923a80ea" y="74.62855"/>
     <use style="fill:#666666;stroke:#666666;" x="333.339203" xlink:href="#m27923a80ea" y="79.011162"/>
     <use style="fill:#666666;stroke:#666666;" x="334.425005" xlink:href="#m27923a80ea" y="85.966776"/>
     <use style="fill:#666666;stroke:#666666;" x="335.510806" xlink:href="#m27923a80ea" y="76.6931"/>
     <use style="fill:#666666;stroke:#666666;" x="336.596607" xlink:href="#m27923a80ea" y="80.671341"/>
     <use style="fill:#666666;stroke:#666666;" x="337.682408" xlink:href="#m27923a80ea" y="80.324496"/>
     <use style="fill:#666666;stroke:#666666;" x="338.768209" xlink:href="#m27923a80ea" y="78.159745"/>
     <use style="fill:#666666;stroke:#666666;" x="339.85401" xlink:href="#m27923a80ea" y="83.249422"/>
     <use style="fill:#666666;stroke:#666666;" x="340.939811" xlink:href="#m27923a80ea" y="86.490811"/>
     <use style="fill:#666666;stroke:#666666;" x="342.025613" xlink:href="#m27923a80ea" y="78.99674"/>
     <use style="fill:#666666;stroke:#666666;" x="343.111414" xlink:href="#m27923a80ea" y="82.86952"/>
     <use style="fill:#666666;stroke:#666666;" x="344.197215" xlink:href="#m27923a80ea" y="83.037557"/>
     <use style="fill:#666666;stroke:#666666;" x="345.283016" xlink:href="#m27923a80ea" y="80.915982"/>
     <use style="fill:#666666;stroke:#666666;" x="346.368817" xlink:href="#m27923a80ea" y="77.729664"/>
     <use style="fill:#666666;stroke:#666666;" x="347.454618" xlink:href="#m27923a80ea" y="83.508529"/>
     <use style="fill:#666666;stroke:#666666;" x="348.54042" xlink:href="#m27923a80ea" y="72.558708"/>
     <use style="fill:#666666;stroke:#666666;" x="349.626221" xlink:href="#m27923a80ea" y="76.731847"/>
     <use style="fill:#666666;stroke:#666666;" x="350.712022" xlink:href="#m27923a80ea" y="79.399695"/>
     <use style="fill:#666666;stroke:#666666;" x="351.797823" xlink:href="#m27923a80ea" y="79.29031"/>
     <use style="fill:#666666;stroke:#666666;" x="352.883624" xlink:href="#m27923a80ea" y="85.258461"/>
     <use style="fill:#666666;stroke:#666666;" x="353.969425" xlink:href="#m27923a80ea" y="88.478913"/>
     <use style="fill:#666666;stroke:#666666;" x="355.055227" xlink:href="#m27923a80ea" y="90.536176"/>
     <use style="fill:#666666;stroke:#666666;" x="356.141028" xlink:href="#m27923a80ea" y="92.770578"/>
     <use style="fill:#666666;stroke:#666666;" x="357.226829" xlink:href="#m27923a80ea" y="92.139192"/>
     <use style="fill:#666666;stroke:#666666;" x="358.31263" xlink:href="#m27923a80ea" y="92.398253"/>
     <use style="fill:#666666;stroke:#666666;" x="359.398431" xlink:href="#m27923a80ea" y="98.893439"/>
     <use style="fill:#666666;stroke:#666666;" x="360.484232" xlink:href="#m27923a80ea" y="101.339475"/>
     <use style="fill:#666666;stroke:#666666;" x="361.570033" xlink:href="#m27923a80ea" y="94.98809"/>
     <use style="fill:#666666;stroke:#666666;" x="362.655835" xlink:href="#m27923a80ea" y="85.663114"/>
     <use style="fill:#666666;stroke:#666666;" x="363.741636" xlink:href="#m27923a80ea" y="82.769527"/>
     <use style="fill:#666666;stroke:#666666;" x="364.827437" xlink:href="#m27923a80ea" y="82.538773"/>
     <use style="fill:#666666;stroke:#666666;" x="365.913238" xlink:href="#m27923a80ea" y="78.365017"/>
     <use style="fill:#666666;stroke:#666666;" x="366.999039" xlink:href="#m27923a80ea" y="82.131821"/>
     <use style="fill:#666666;stroke:#666666;" x="368.08484" xlink:href="#m27923a80ea" y="89.806911"/>
     <use style="fill:#666666;stroke:#666666;" x="369.170642" xlink:href="#m27923a80ea" y="85.734856"/>
     <use style="fill:#666666;stroke:#666666;" x="370.256443" xlink:href="#m27923a80ea" y="90.424343"/>
     <use style="fill:#666666;stroke:#666666;" x="371.342244" xlink:href="#m27923a80ea" y="87.432886"/>
     <use style="fill:#666666;stroke:#666666;" x="372.428045" xlink:href="#m27923a80ea" y="90.197477"/>
     <use style="fill:#666666;stroke:#666666;" x="373.513846" xlink:href="#m27923a80ea" y="96.387068"/>
     <use style="fill:#666666;stroke:#666666;" x="374.599647" xlink:href="#m27923a80ea" y="91.157275"/>
     <use style="fill:#666666;stroke:#666666;" x="375.685448" xlink:href="#m27923a80ea" y="91.417977"/>
     <use style="fill:#666666;stroke:#666666;" x="376.77125" xlink:href="#m27923a80ea" y="92.670665"/>
     <use style="fill:#666666;stroke:#666666;" x="377.857051" xlink:href="#m27923a80ea" y="89.659259"/>
     <use style="fill:#666666;stroke:#666666;" x="378.942852" xlink:href="#m27923a80ea" y="89.017109"/>
     <use style="fill:#666666;stroke:#666666;" x="380.028653" xlink:href="#m27923a80ea" y="87.983622"/>
     <use style="fill:#666666;stroke:#666666;" x="381.114454" xlink:href="#m27923a80ea" y="95.413318"/>
     <use style="fill:#666666;stroke:#666666;" x="382.200255" xlink:href="#m27923a80ea" y="89.123372"/>
     <use style="fill:#666666;stroke:#666666;" x="383.286057" xlink:href="#m27923a80ea" y="90.247335"/>
     <use style="fill:#666666;stroke:#666666;" x="384.371858" xlink:href="#m27923a80ea" y="88.00709"/>
     <use style="fill:#666666;stroke:#666666;" x="385.457659" xlink:href="#m27923a80ea" y="87.873168"/>
     <use style="fill:#666666;stroke:#666666;" x="386.54346" xlink:href="#m27923a80ea" y="88.434672"/>
     <use style="fill:#666666;stroke:#666666;" x="387.629261" xlink:href="#m27923a80ea" y="83.802942"/>
     <use style="fill:#666666;stroke:#666666;" x="388.715062" xlink:href="#m27923a80ea" y="87.451387"/>
     <use style="fill:#666666;stroke:#666666;" x="389.800863" xlink:href="#m27923a80ea" y="82.025242"/>
     <use style="fill:#666666;stroke:#666666;" x="390.886665" xlink:href="#m27923a80ea" y="78.439018"/>
     <use style="fill:#666666;stroke:#666666;" x="391.972466" xlink:href="#m27923a80ea" y="80.924273"/>
     <use style="fill:#666666;stroke:#666666;" x="393.058267" xlink:href="#m27923a80ea" y="86.140083"/>
     <use style="fill:#666666;stroke:#666666;" x="394.144068" xlink:href="#m27923a80ea" y="88.125663"/>
     <use style="fill:#666666;stroke:#666666;" x="395.229869" xlink:href="#m27923a80ea" y="83.657411"/>
     <use style="fill:#666666;stroke:#666666;" x="396.31567" xlink:href="#m27923a80ea" y="82.496947"/>
     <use style="fill:#666666;stroke:#666666;" x="397.401472" xlink:href="#m27923a80ea" y="90.552775"/>
     <use style="fill:#666666;stroke:#666666;" x="398.487273" xlink:href="#m27923a80ea" y="84.481334"/>
    </g>
   </g>
   <g id="patch_3">
    <path d="M 57.6 307.584 
L 57.6 41.472 
" style="fill:none;stroke:#000000;stroke-linecap:square;stroke-linejoin:miter;stroke-width:0.8;"/>
   </g>
   <g id="patch_4">
    <path d="M 414.72 307.584 
L 414.72 41.472 
" style="fill:none;stroke:#000000;stroke-linecap:square;stroke-linejoin:miter;stroke-width:0.8;"/>
   </g>
   <g id="patch_5">
    <path d="M 57.6 307.584 
L 414.72 307.584 
" style="fill:none;stroke:#000000;stroke-linecap:square;stroke-linejoin:miter;stroke-width:0.8;"/>
   </g>
   <g id="patch_6">
    <path d="M 57.6 41.472 
L 414.72 41.472 
" style="fill:none;stroke:#000000;stroke-linecap:square;stroke-linejoin:miter;stroke-width:0.8;"/>
   </g>
  </g>
 </g>
 <defs>
  <clipPath id="p48d9eb7e28">
   <rect height="266.112" width="357.12" x="57.6" y="41.472"/>
  </clipPath>
 </defs>
</svg>
