<?xml version="1.0" encoding="utf-8" standalone="no"?>
<!DOCTYPE svg PUBLIC "-//W3C//DTD SVG 1.1//EN"
  "http://www.w3.org/Graphics/SVG/1.1/DTD/svg11.dtd">
<!-- Created with matplotlib (http://matplotlib.org/) -->
<svg height="345.6pt" version="1.1" viewBox="0 0 460.8 345.6" width="460.8pt" xmlns="http://www.w3.org/2000/svg" xmlns:xlink="http://www.w3.org/1999/xlink">
 <defs>
  <style type="text/css">
*{stroke-linecap:butt;stroke-linejoin:round;}
  </style>
 </defs>
 <g id="figure_1">
  <g id="patch_1">
   <path d="M 0 345.6 
L 460.8 345.6 
L 460.8 0 
L 0 0 
z
" style="fill:#ffffff;"/>
  </g>
  <g id="axes_1">
   <g id="patch_2">
    <path d="M 47.72 287.8 
L 447.48 287.8 
L 447.48 13.32 
L 47.72 13.32 
z
" style="fill:#ffffff;"/>
   </g>
   <g id="matplotlib.axis_1">
    <g id="xtick_1">
     <g id="line2d_1">
      <defs>
       <path d="M 0 0 
L 0 3.5 
" id="ma53f03cf55" style="stroke:#000000;stroke-width:0.8;"/>
      </defs>
      <g>
       <use style="stroke:#000000;stroke-width:0.8;" x="47.72" xlink:href="#ma53f03cf55" y="287.8"/>
      </g>
     </g>
     <g id="text_1">
      <!-- A87 -->
      <defs>
       <path d="M 34.1875 63.1875 
L 20.796875 26.90625 
L 47.609375 26.90625 
z
M 28.609375 72.90625 
L 39.796875 72.90625 
L 67.578125 0 
L 57.328125 0 
L 50.6875 18.703125 
L 17.828125 18.703125 
L 11.1875 0 
L 0.78125 0 
z
" id="DejaVuSans-41"/>
       <path d="M 31.78125 34.625 
Q 24.75 34.625 20.71875 30.859375 
Q 16.703125 27.09375 16.703125 20.515625 
Q 16.703125 13.921875 20.71875 10.15625 
Q 24.75 6.390625 31.78125 6.390625 
Q 38.8125 6.390625 42.859375 10.171875 
Q 46.921875 13.96875 46.921875 20.515625 
Q 46.921875 27.09375 42.890625 30.859375 
Q 38.875 34.625 31.78125 34.625 
z
M 21.921875 38.8125 
Q 15.578125 40.375 12.03125 44.71875 
Q 8.5 49.078125 8.5 55.328125 
Q 8.5 64.0625 14.71875 69.140625 
Q 20.953125 74.21875 31.78125 74.21875 
Q 42.671875 74.21875 48.875 69.140625 
Q 55.078125 64.0625 55.078125 55.328125 
Q 55.078125 49.078125 51.53125 44.71875 
Q 48 40.375 41.703125 38.8125 
Q 48.828125 37.15625 52.796875 32.3125 
Q 56.78125 27.484375 56.78125 20.515625 
Q 56.78125 9.90625 50.3125 4.234375 
Q 43.84375 -1.421875 31.78125 -1.421875 
Q 19.734375 -1.421875 13.25 4.234375 
Q 6.78125 9.90625 6.78125 20.515625 
Q 6.78125 27.484375 10.78125 32.3125 
Q 14.796875 37.15625 21.921875 38.8125 
z
M 18.3125 54.390625 
Q 18.3125 48.734375 21.84375 45.5625 
Q 25.390625 42.390625 31.78125 42.390625 
Q 38.140625 42.390625 41.71875 45.5625 
Q 45.3125 48.734375 45.3125 54.390625 
Q 45.3125 60.0625 41.71875 63.234375 
Q 38.140625 66.40625 31.78125 66.40625 
Q 25.390625 66.40625 21.84375 63.234375 
Q 18.3125 60.0625 18.3125 54.390625 
z
" id="DejaVuSans-38"/>
       <path d="M 8.203125 72.90625 
L 55.078125 72.90625 
L 55.078125 68.703125 
L 28.609375 0 
L 18.3125 0 
L 43.21875 64.59375 
L 8.203125 64.59375 
z
" id="DejaVuSans-37"/>
      </defs>
      <g transform="translate(50.479375 314.365625)rotate(-90)scale(0.1 -0.1)">
       <use xlink:href="#DejaVuSans-41"/>
       <use x="68.408203" xlink:href="#DejaVuSans-38"/>
       <use x="132.03125" xlink:href="#DejaVuSans-37"/>
      </g>
     </g>
    </g>
    <g id="xtick_2">
     <g id="line2d_2">
      <g>
       <use style="stroke:#000000;stroke-width:0.8;" x="65.526682" xlink:href="#ma53f03cf55" y="287.8"/>
      </g>
     </g>
     <g id="text_2">
      <!-- A107 -->
      <defs>
       <path d="M 12.40625 8.296875 
L 28.515625 8.296875 
L 28.515625 63.921875 
L 10.984375 60.40625 
L 10.984375 69.390625 
L 28.421875 72.90625 
L 38.28125 72.90625 
L 38.28125 8.296875 
L 54.390625 8.296875 
L 54.390625 0 
L 12.40625 0 
z
" id="DejaVuSans-31"/>
       <path d="M 31.78125 66.40625 
Q 24.171875 66.40625 20.328125 58.90625 
Q 16.5 51.421875 16.5 36.375 
Q 16.5 21.390625 20.328125 13.890625 
Q 24.171875 6.390625 31.78125 6.390625 
Q 39.453125 6.390625 43.28125 13.890625 
Q 47.125 21.390625 47.125 36.375 
Q 47.125 51.421875 43.28125 58.90625 
Q 39.453125 66.40625 31.78125 66.40625 
z
M 31.78125 74.21875 
Q 44.046875 74.21875 50.515625 64.515625 
Q 56.984375 54.828125 56.984375 36.375 
Q 56.984375 17.96875 50.515625 8.265625 
Q 44.046875 -1.421875 31.78125 -1.421875 
Q 19.53125 -1.421875 13.0625 8.265625 
Q 6.59375 17.96875 6.59375 36.375 
Q 6.59375 54.828125 13.0625 64.515625 
Q 19.53125 74.21875 31.78125 74.21875 
z
" id="DejaVuSans-30"/>
      </defs>
      <g transform="translate(68.286057 320.728125)rotate(-90)scale(0.1 -0.1)">
       <use xlink:href="#DejaVuSans-41"/>
       <use x="68.408203" xlink:href="#DejaVuSans-31"/>
       <use x="132.03125" xlink:href="#DejaVuSans-30"/>
       <use x="195.654297" xlink:href="#DejaVuSans-37"/>
      </g>
     </g>
    </g>
    <g id="xtick_3">
     <g id="line2d_3">
      <g>
       <use style="stroke:#000000;stroke-width:0.8;" x="83.333363" xlink:href="#ma53f03cf55" y="287.8"/>
      </g>
     </g>
     <g id="text_3">
      <!-- A127 -->
      <defs>
       <path d="M 19.1875 8.296875 
L 53.609375 8.296875 
L 53.609375 0 
L 7.328125 0 
L 7.328125 8.296875 
Q 12.9375 14.109375 22.625 23.890625 
Q 32.328125 33.6875 34.8125 36.53125 
Q 39.546875 41.84375 41.421875 45.53125 
Q 43.3125 49.21875 43.3125 52.78125 
Q 43.3125 58.59375 39.234375 62.25 
Q 35.15625 65.921875 28.609375 65.921875 
Q 23.96875 65.921875 18.8125 64.3125 
Q 13.671875 62.703125 7.8125 59.421875 
L 7.8125 69.390625 
Q 13.765625 71.78125 18.9375 73 
Q 24.125 74.21875 28.421875 74.21875 
Q 39.75 74.21875 46.484375 68.546875 
Q 53.21875 62.890625 53.21875 53.421875 
Q 53.21875 48.921875 51.53125 44.890625 
Q 49.859375 40.875 45.40625 35.40625 
Q 44.1875 33.984375 37.640625 27.21875 
Q 31.109375 20.453125 19.1875 8.296875 
z
" id="DejaVuSans-32"/>
      </defs>
      <g transform="translate(86.092738 320.728125)rotate(-90)scale(0.1 -0.1)">
       <use xlink:href="#DejaVuSans-41"/>
       <use x="68.408203" xlink:href="#DejaVuSans-31"/>
       <use x="132.03125" xlink:href="#DejaVuSans-32"/>
       <use x="195.654297" xlink:href="#DejaVuSans-37"/>
      </g>
     </g>
    </g>
    <g id="xtick_4">
     <g id="line2d_4">
      <g>
       <use style="stroke:#000000;stroke-width:0.8;" x="101.140045" xlink:href="#ma53f03cf55" y="287.8"/>
      </g>
     </g>
     <g id="text_4">
      <!-- A147 -->
      <defs>
       <path d="M 37.796875 64.3125 
L 12.890625 25.390625 
L 37.796875 25.390625 
z
M 35.203125 72.90625 
L 47.609375 72.90625 
L 47.609375 25.390625 
L 58.015625 25.390625 
L 58.015625 17.1875 
L 47.609375 17.1875 
L 47.609375 0 
L 37.796875 0 
L 37.796875 17.1875 
L 4.890625 17.1875 
L 4.890625 26.703125 
z
" id="DejaVuSans-34"/>
      </defs>
      <g transform="translate(103.89942 320.728125)rotate(-90)scale(0.1 -0.1)">
       <use xlink:href="#DejaVuSans-41"/>
       <use x="68.408203" xlink:href="#DejaVuSans-31"/>
       <use x="132.03125" xlink:href="#DejaVuSans-34"/>
       <use x="195.654297" xlink:href="#DejaVuSans-37"/>
      </g>
     </g>
    </g>
    <g id="xtick_5">
     <g id="line2d_5">
      <g>
       <use style="stroke:#000000;stroke-width:0.8;" x="118.946726" xlink:href="#ma53f03cf55" y="287.8"/>
      </g>
     </g>
     <g id="text_5">
      <!-- A167 -->
      <defs>
       <path d="M 33.015625 40.375 
Q 26.375 40.375 22.484375 35.828125 
Q 18.609375 31.296875 18.609375 23.390625 
Q 18.609375 15.53125 22.484375 10.953125 
Q 26.375 6.390625 33.015625 6.390625 
Q 39.65625 6.390625 43.53125 10.953125 
Q 47.40625 15.53125 47.40625 23.390625 
Q 47.40625 31.296875 43.53125 35.828125 
Q 39.65625 40.375 33.015625 40.375 
z
M 52.59375 71.296875 
L 52.59375 62.3125 
Q 48.875 64.0625 45.09375 64.984375 
Q 41.3125 65.921875 37.59375 65.921875 
Q 27.828125 65.921875 22.671875 59.328125 
Q 17.53125 52.734375 16.796875 39.40625 
Q 19.671875 43.65625 24.015625 45.921875 
Q 28.375 48.1875 33.59375 48.1875 
Q 44.578125 48.1875 50.953125 41.515625 
Q 57.328125 34.859375 57.328125 23.390625 
Q 57.328125 12.15625 50.6875 5.359375 
Q 44.046875 -1.421875 33.015625 -1.421875 
Q 20.359375 -1.421875 13.671875 8.265625 
Q 6.984375 17.96875 6.984375 36.375 
Q 6.984375 53.65625 15.1875 63.9375 
Q 23.390625 74.21875 37.203125 74.21875 
Q 40.921875 74.21875 44.703125 73.484375 
Q 48.484375 72.75 52.59375 71.296875 
z
" id="DejaVuSans-36"/>
      </defs>
      <g transform="translate(121.706101 320.728125)rotate(-90)scale(0.1 -0.1)">
       <use xlink:href="#DejaVuSans-41"/>
       <use x="68.408203" xlink:href="#DejaVuSans-31"/>
       <use x="132.03125" xlink:href="#DejaVuSans-36"/>
       <use x="195.654297" xlink:href="#DejaVuSans-37"/>
      </g>
     </g>
    </g>
    <g id="xtick_6">
     <g id="line2d_6">
      <g>
       <use style="stroke:#000000;stroke-width:0.8;" x="136.753408" xlink:href="#ma53f03cf55" y="287.8"/>
      </g>
     </g>
     <g id="text_6">
      <!-- A187 -->
      <g transform="translate(139.512783 320.728125)rotate(-90)scale(0.1 -0.1)">
       <use xlink:href="#DejaVuSans-41"/>
       <use x="68.408203" xlink:href="#DejaVuSans-31"/>
       <use x="132.03125" xlink:href="#DejaVuSans-38"/>
       <use x="195.654297" xlink:href="#DejaVuSans-37"/>
      </g>
     </g>
    </g>
    <g id="xtick_7">
     <g id="line2d_7">
      <g>
       <use style="stroke:#000000;stroke-width:0.8;" x="154.560089" xlink:href="#ma53f03cf55" y="287.8"/>
      </g>
     </g>
     <g id="text_7">
      <!-- A207 -->
      <g transform="translate(157.319464 320.728125)rotate(-90)scale(0.1 -0.1)">
       <use xlink:href="#DejaVuSans-41"/>
       <use x="68.408203" xlink:href="#DejaVuSans-32"/>
       <use x="132.03125" xlink:href="#DejaVuSans-30"/>
       <use x="195.654297" xlink:href="#DejaVuSans-37"/>
      </g>
     </g>
    </g>
    <g id="xtick_8">
     <g id="line2d_8">
      <g>
       <use style="stroke:#000000;stroke-width:0.8;" x="172.366771" xlink:href="#ma53f03cf55" y="287.8"/>
      </g>
     </g>
     <g id="text_8">
      <!-- A227 -->
      <g transform="translate(175.126146 320.728125)rotate(-90)scale(0.1 -0.1)">
       <use xlink:href="#DejaVuSans-41"/>
       <use x="68.408203" xlink:href="#DejaVuSans-32"/>
       <use x="132.03125" xlink:href="#DejaVuSans-32"/>
       <use x="195.654297" xlink:href="#DejaVuSans-37"/>
      </g>
     </g>
    </g>
    <g id="xtick_9">
     <g id="line2d_9">
      <g>
       <use style="stroke:#000000;stroke-width:0.8;" x="190.173452" xlink:href="#ma53f03cf55" y="287.8"/>
      </g>
     </g>
     <g id="text_9">
      <!-- A247 -->
      <g transform="translate(192.932827 320.728125)rotate(-90)scale(0.1 -0.1)">
       <use xlink:href="#DejaVuSans-41"/>
       <use x="68.408203" xlink:href="#DejaVuSans-32"/>
       <use x="132.03125" xlink:href="#DejaVuSans-34"/>
       <use x="195.654297" xlink:href="#DejaVuSans-37"/>
      </g>
     </g>
    </g>
    <g id="xtick_10">
     <g id="line2d_10">
      <g>
       <use style="stroke:#000000;stroke-width:0.8;" x="207.980134" xlink:href="#ma53f03cf55" y="287.8"/>
      </g>
     </g>
     <g id="text_10">
      <!-- A267 -->
      <g transform="translate(210.739509 320.728125)rotate(-90)scale(0.1 -0.1)">
       <use xlink:href="#DejaVuSans-41"/>
       <use x="68.408203" xlink:href="#DejaVuSans-32"/>
       <use x="132.03125" xlink:href="#DejaVuSans-36"/>
       <use x="195.654297" xlink:href="#DejaVuSans-37"/>
      </g>
     </g>
    </g>
    <g id="xtick_11">
     <g id="line2d_11">
      <g>
       <use style="stroke:#000000;stroke-width:0.8;" x="225.786815" xlink:href="#ma53f03cf55" y="287.8"/>
      </g>
     </g>
     <g id="text_11">
      <!-- A287 -->
      <g transform="translate(228.54619 320.728125)rotate(-90)scale(0.1 -0.1)">
       <use xlink:href="#DejaVuSans-41"/>
       <use x="68.408203" xlink:href="#DejaVuSans-32"/>
       <use x="132.03125" xlink:href="#DejaVuSans-38"/>
       <use x="195.654297" xlink:href="#DejaVuSans-37"/>
      </g>
     </g>
    </g>
    <g id="xtick_12">
     <g id="line2d_12">
      <g>
       <use style="stroke:#000000;stroke-width:0.8;" x="243.593497" xlink:href="#ma53f03cf55" y="287.8"/>
      </g>
     </g>
     <g id="text_12">
      <!-- A307 -->
      <defs>
       <path d="M 40.578125 39.3125 
Q 47.65625 37.796875 51.625 33 
Q 55.609375 28.21875 55.609375 21.1875 
Q 55.609375 10.40625 48.1875 4.484375 
Q 40.765625 -1.421875 27.09375 -1.421875 
Q 22.515625 -1.421875 17.65625 -0.515625 
Q 12.796875 0.390625 7.625 2.203125 
L 7.625 11.71875 
Q 11.71875 9.328125 16.59375 8.109375 
Q 21.484375 6.890625 26.8125 6.890625 
Q 36.078125 6.890625 40.9375 10.546875 
Q 45.796875 14.203125 45.796875 21.1875 
Q 45.796875 27.640625 41.28125 31.265625 
Q 36.765625 34.90625 28.71875 34.90625 
L 20.21875 34.90625 
L 20.21875 43.015625 
L 29.109375 43.015625 
Q 36.375 43.015625 40.234375 45.921875 
Q 44.09375 48.828125 44.09375 54.296875 
Q 44.09375 59.90625 40.109375 62.90625 
Q 36.140625 65.921875 28.71875 65.921875 
Q 24.65625 65.921875 20.015625 65.03125 
Q 15.375 64.15625 9.8125 62.3125 
L 9.8125 71.09375 
Q 15.4375 72.65625 20.34375 73.4375 
Q 25.25 74.21875 29.59375 74.21875 
Q 40.828125 74.21875 47.359375 69.109375 
Q 53.90625 64.015625 53.90625 55.328125 
Q 53.90625 49.265625 50.4375 45.09375 
Q 46.96875 40.921875 40.578125 39.3125 
z
" id="DejaVuSans-33"/>
      </defs>
      <g transform="translate(246.352872 320.728125)rotate(-90)scale(0.1 -0.1)">
       <use xlink:href="#DejaVuSans-41"/>
       <use x="68.408203" xlink:href="#DejaVuSans-33"/>
       <use x="132.03125" xlink:href="#DejaVuSans-30"/>
       <use x="195.654297" xlink:href="#DejaVuSans-37"/>
      </g>
     </g>
    </g>
    <g id="xtick_13">
     <g id="line2d_13">
      <g>
       <use style="stroke:#000000;stroke-width:0.8;" x="261.400178" xlink:href="#ma53f03cf55" y="287.8"/>
      </g>
     </g>
     <g id="text_13">
      <!-- A327 -->
      <g transform="translate(264.159553 320.728125)rotate(-90)scale(0.1 -0.1)">
       <use xlink:href="#DejaVuSans-41"/>
       <use x="68.408203" xlink:href="#DejaVuSans-33"/>
       <use x="132.03125" xlink:href="#DejaVuSans-32"/>
       <use x="195.654297" xlink:href="#DejaVuSans-37"/>
      </g>
     </g>
    </g>
    <g id="xtick_14">
     <g id="line2d_14">
      <g>
       <use style="stroke:#000000;stroke-width:0.8;" x="279.20686" xlink:href="#ma53f03cf55" y="287.8"/>
      </g>
     </g>
     <g id="text_14">
      <!-- A347 -->
      <g transform="translate(281.966235 320.728125)rotate(-90)scale(0.1 -0.1)">
       <use xlink:href="#DejaVuSans-41"/>
       <use x="68.408203" xlink:href="#DejaVuSans-33"/>
       <use x="132.03125" xlink:href="#DejaVuSans-34"/>
       <use x="195.654297" xlink:href="#DejaVuSans-37"/>
      </g>
     </g>
    </g>
    <g id="xtick_15">
     <g id="line2d_15">
      <g>
       <use style="stroke:#000000;stroke-width:0.8;" x="297.013541" xlink:href="#ma53f03cf55" y="287.8"/>
      </g>
     </g>
     <g id="text_15">
      <!-- A367 -->
      <g transform="translate(299.772916 320.728125)rotate(-90)scale(0.1 -0.1)">
       <use xlink:href="#DejaVuSans-41"/>
       <use x="68.408203" xlink:href="#DejaVuSans-33"/>
       <use x="132.03125" xlink:href="#DejaVuSans-36"/>
       <use x="195.654297" xlink:href="#DejaVuSans-37"/>
      </g>
     </g>
    </g>
    <g id="xtick_16">
     <g id="line2d_16">
      <g>
       <use style="stroke:#000000;stroke-width:0.8;" x="314.820223" xlink:href="#ma53f03cf55" y="287.8"/>
      </g>
     </g>
     <g id="text_16">
      <!-- A387 -->
      <g transform="translate(317.579598 320.728125)rotate(-90)scale(0.1 -0.1)">
       <use xlink:href="#DejaVuSans-41"/>
       <use x="68.408203" xlink:href="#DejaVuSans-33"/>
       <use x="132.03125" xlink:href="#DejaVuSans-38"/>
       <use x="195.654297" xlink:href="#DejaVuSans-37"/>
      </g>
     </g>
    </g>
    <g id="xtick_17">
     <g id="line2d_17">
      <g>
       <use style="stroke:#000000;stroke-width:0.8;" x="332.626904" xlink:href="#ma53f03cf55" y="287.8"/>
      </g>
     </g>
     <g id="text_17">
      <!-- A407 -->
      <g transform="translate(335.386279 320.728125)rotate(-90)scale(0.1 -0.1)">
       <use xlink:href="#DejaVuSans-41"/>
       <use x="68.408203" xlink:href="#DejaVuSans-34"/>
       <use x="132.03125" xlink:href="#DejaVuSans-30"/>
       <use x="195.654297" xlink:href="#DejaVuSans-37"/>
      </g>
     </g>
    </g>
    <g id="xtick_18">
     <g id="line2d_18">
      <g>
       <use style="stroke:#000000;stroke-width:0.8;" x="350.433586" xlink:href="#ma53f03cf55" y="287.8"/>
      </g>
     </g>
     <g id="text_18">
      <!-- A427 -->
      <g transform="translate(353.192961 320.728125)rotate(-90)scale(0.1 -0.1)">
       <use xlink:href="#DejaVuSans-41"/>
       <use x="68.408203" xlink:href="#DejaVuSans-34"/>
       <use x="132.03125" xlink:href="#DejaVuSans-32"/>
       <use x="195.654297" xlink:href="#DejaVuSans-37"/>
      </g>
     </g>
    </g>
    <g id="xtick_19">
     <g id="line2d_19">
      <g>
       <use style="stroke:#000000;stroke-width:0.8;" x="368.240267" xlink:href="#ma53f03cf55" y="287.8"/>
      </g>
     </g>
     <g id="text_19">
      <!-- A447 -->
      <g transform="translate(370.999642 320.728125)rotate(-90)scale(0.1 -0.1)">
       <use xlink:href="#DejaVuSans-41"/>
       <use x="68.408203" xlink:href="#DejaVuSans-34"/>
       <use x="132.03125" xlink:href="#DejaVuSans-34"/>
       <use x="195.654297" xlink:href="#DejaVuSans-37"/>
      </g>
     </g>
    </g>
    <g id="xtick_20">
     <g id="line2d_20">
      <g>
       <use style="stroke:#000000;stroke-width:0.8;" x="386.046949" xlink:href="#ma53f03cf55" y="287.8"/>
      </g>
     </g>
     <g id="text_20">
      <!-- A467 -->
      <g transform="translate(388.806324 320.728125)rotate(-90)scale(0.1 -0.1)">
       <use xlink:href="#DejaVuSans-41"/>
       <use x="68.408203" xlink:href="#DejaVuSans-34"/>
       <use x="132.03125" xlink:href="#DejaVuSans-36"/>
       <use x="195.654297" xlink:href="#DejaVuSans-37"/>
      </g>
     </g>
    </g>
    <g id="xtick_21">
     <g id="line2d_21">
      <g>
       <use style="stroke:#000000;stroke-width:0.8;" x="403.85363" xlink:href="#ma53f03cf55" y="287.8"/>
      </g>
     </g>
     <g id="text_21">
      <!-- A487 -->
      <g transform="translate(406.613005 320.728125)rotate(-90)scale(0.1 -0.1)">
       <use xlink:href="#DejaVuSans-41"/>
       <use x="68.408203" xlink:href="#DejaVuSans-34"/>
       <use x="132.03125" xlink:href="#DejaVuSans-38"/>
       <use x="195.654297" xlink:href="#DejaVuSans-37"/>
      </g>
     </g>
    </g>
    <g id="xtick_22">
     <g id="line2d_22">
      <g>
       <use style="stroke:#000000;stroke-width:0.8;" x="421.660312" xlink:href="#ma53f03cf55" y="287.8"/>
      </g>
     </g>
     <g id="text_22">
      <!-- A507 -->
      <defs>
       <path d="M 10.796875 72.90625 
L 49.515625 72.90625 
L 49.515625 64.59375 
L 19.828125 64.59375 
L 19.828125 46.734375 
Q 21.96875 47.46875 24.109375 47.828125 
Q 26.265625 48.1875 28.421875 48.1875 
Q 40.625 48.1875 47.75 41.5 
Q 54.890625 34.8125 54.890625 23.390625 
Q 54.890625 11.625 47.5625 5.09375 
Q 40.234375 -1.421875 26.90625 -1.421875 
Q 22.3125 -1.421875 17.546875 -0.640625 
Q 12.796875 0.140625 7.71875 1.703125 
L 7.71875 11.625 
Q 12.109375 9.234375 16.796875 8.0625 
Q 21.484375 6.890625 26.703125 6.890625 
Q 35.15625 6.890625 40.078125 11.328125 
Q 45.015625 15.765625 45.015625 23.390625 
Q 45.015625 31 40.078125 35.4375 
Q 35.15625 39.890625 26.703125 39.890625 
Q 22.75 39.890625 18.8125 39.015625 
Q 14.890625 38.140625 10.796875 36.28125 
z
" id="DejaVuSans-35"/>
      </defs>
      <g transform="translate(424.419687 320.728125)rotate(-90)scale(0.1 -0.1)">
       <use xlink:href="#DejaVuSans-41"/>
       <use x="68.408203" xlink:href="#DejaVuSans-35"/>
       <use x="132.03125" xlink:href="#DejaVuSans-30"/>
       <use x="195.654297" xlink:href="#DejaVuSans-37"/>
      </g>
     </g>
    </g>
    <g id="xtick_23">
     <g id="line2d_23">
      <g>
       <use style="stroke:#000000;stroke-width:0.8;" x="439.466993" xlink:href="#ma53f03cf55" y="287.8"/>
      </g>
     </g>
     <g id="text_23">
      <!-- A527 -->
      <g transform="translate(442.226368 320.728125)rotate(-90)scale(0.1 -0.1)">
       <use xlink:href="#DejaVuSans-41"/>
       <use x="68.408203" xlink:href="#DejaVuSans-35"/>
       <use x="132.03125" xlink:href="#DejaVuSans-32"/>
       <use x="195.654297" xlink:href="#DejaVuSans-37"/>
      </g>
     </g>
    </g>
    <g id="text_24">
     <!-- Residue index -->
     <defs>
      <path d="M 44.390625 34.1875 
Q 47.5625 33.109375 50.5625 29.59375 
Q 53.5625 26.078125 56.59375 19.921875 
L 66.609375 0 
L 56 0 
L 46.6875 18.703125 
Q 43.0625 26.03125 39.671875 28.421875 
Q 36.28125 30.8125 30.421875 30.8125 
L 19.671875 30.8125 
L 19.671875 0 
L 9.8125 0 
L 9.8125 72.90625 
L 32.078125 72.90625 
Q 44.578125 72.90625 50.734375 67.671875 
Q 56.890625 62.453125 56.890625 51.90625 
Q 56.890625 45.015625 53.6875 40.46875 
Q 50.484375 35.9375 44.390625 34.1875 
z
M 19.671875 64.796875 
L 19.671875 38.921875 
L 32.078125 38.921875 
Q 39.203125 38.921875 42.84375 42.21875 
Q 46.484375 45.515625 46.484375 51.90625 
Q 46.484375 58.296875 42.84375 61.546875 
Q 39.203125 64.796875 32.078125 64.796875 
z
" id="DejaVuSans-52"/>
      <path d="M 56.203125 29.59375 
L 56.203125 25.203125 
L 14.890625 25.203125 
Q 15.484375 15.921875 20.484375 11.0625 
Q 25.484375 6.203125 34.421875 6.203125 
Q 39.59375 6.203125 44.453125 7.46875 
Q 49.3125 8.734375 54.109375 11.28125 
L 54.109375 2.78125 
Q 49.265625 0.734375 44.1875 -0.34375 
Q 39.109375 -1.421875 33.890625 -1.421875 
Q 20.796875 -1.421875 13.15625 6.1875 
Q 5.515625 13.8125 5.515625 26.8125 
Q 5.515625 40.234375 12.765625 48.109375 
Q 20.015625 56 32.328125 56 
Q 43.359375 56 49.78125 48.890625 
Q 56.203125 41.796875 56.203125 29.59375 
z
M 47.21875 32.234375 
Q 47.125 39.59375 43.09375 43.984375 
Q 39.0625 48.390625 32.421875 48.390625 
Q 24.90625 48.390625 20.390625 44.140625 
Q 15.875 39.890625 15.1875 32.171875 
z
" id="DejaVuSans-65"/>
      <path d="M 44.28125 53.078125 
L 44.28125 44.578125 
Q 40.484375 46.53125 36.375 47.5 
Q 32.28125 48.484375 27.875 48.484375 
Q 21.1875 48.484375 17.84375 46.4375 
Q 14.5 44.390625 14.5 40.28125 
Q 14.5 37.15625 16.890625 35.375 
Q 19.28125 33.59375 26.515625 31.984375 
L 29.59375 31.296875 
Q 39.15625 29.25 43.1875 25.515625 
Q 47.21875 21.78125 47.21875 15.09375 
Q 47.21875 7.46875 41.1875 3.015625 
Q 35.15625 -1.421875 24.609375 -1.421875 
Q 20.21875 -1.421875 15.453125 -0.5625 
Q 10.6875 0.296875 5.421875 2 
L 5.421875 11.28125 
Q 10.40625 8.6875 15.234375 7.390625 
Q 20.0625 6.109375 24.8125 6.109375 
Q 31.15625 6.109375 34.5625 8.28125 
Q 37.984375 10.453125 37.984375 14.40625 
Q 37.984375 18.0625 35.515625 20.015625 
Q 33.0625 21.96875 24.703125 23.78125 
L 21.578125 24.515625 
Q 13.234375 26.265625 9.515625 29.90625 
Q 5.8125 33.546875 5.8125 39.890625 
Q 5.8125 47.609375 11.28125 51.796875 
Q 16.75 56 26.8125 56 
Q 31.78125 56 36.171875 55.265625 
Q 40.578125 54.546875 44.28125 53.078125 
z
" id="DejaVuSans-73"/>
      <path d="M 9.421875 54.6875 
L 18.40625 54.6875 
L 18.40625 0 
L 9.421875 0 
z
M 9.421875 75.984375 
L 18.40625 75.984375 
L 18.40625 64.59375 
L 9.421875 64.59375 
z
" id="DejaVuSans-69"/>
      <path d="M 45.40625 46.390625 
L 45.40625 75.984375 
L 54.390625 75.984375 
L 54.390625 0 
L 45.40625 0 
L 45.40625 8.203125 
Q 42.578125 3.328125 38.25 0.953125 
Q 33.9375 -1.421875 27.875 -1.421875 
Q 17.96875 -1.421875 11.734375 6.484375 
Q 5.515625 14.40625 5.515625 27.296875 
Q 5.515625 40.1875 11.734375 48.09375 
Q 17.96875 56 27.875 56 
Q 33.9375 56 38.25 53.625 
Q 42.578125 51.265625 45.40625 46.390625 
z
M 14.796875 27.296875 
Q 14.796875 17.390625 18.875 11.75 
Q 22.953125 6.109375 30.078125 6.109375 
Q 37.203125 6.109375 41.296875 11.75 
Q 45.40625 17.390625 45.40625 27.296875 
Q 45.40625 37.203125 41.296875 42.84375 
Q 37.203125 48.484375 30.078125 48.484375 
Q 22.953125 48.484375 18.875 42.84375 
Q 14.796875 37.203125 14.796875 27.296875 
z
" id="DejaVuSans-64"/>
      <path d="M 8.5 21.578125 
L 8.5 54.6875 
L 17.484375 54.6875 
L 17.484375 21.921875 
Q 17.484375 14.15625 20.5 10.265625 
Q 23.53125 6.390625 29.59375 6.390625 
Q 36.859375 6.390625 41.078125 11.03125 
Q 45.3125 15.671875 45.3125 23.6875 
L 45.3125 54.6875 
L 54.296875 54.6875 
L 54.296875 0 
L 45.3125 0 
L 45.3125 8.40625 
Q 42.046875 3.421875 37.71875 1 
Q 33.40625 -1.421875 27.6875 -1.421875 
Q 18.265625 -1.421875 13.375 4.4375 
Q 8.5 10.296875 8.5 21.578125 
z
M 31.109375 56 
z
" id="DejaVuSans-75"/>
      <path id="DejaVuSans-20"/>
      <path d="M 54.890625 33.015625 
L 54.890625 0 
L 45.90625 0 
L 45.90625 32.71875 
Q 45.90625 40.484375 42.875 44.328125 
Q 39.84375 48.1875 33.796875 48.1875 
Q 26.515625 48.1875 22.3125 43.546875 
Q 18.109375 38.921875 18.109375 30.90625 
L 18.109375 0 
L 9.078125 0 
L 9.078125 54.6875 
L 18.109375 54.6875 
L 18.109375 46.1875 
Q 21.34375 51.125 25.703125 53.5625 
Q 30.078125 56 35.796875 56 
Q 45.21875 56 50.046875 50.171875 
Q 54.890625 44.34375 54.890625 33.015625 
z
" id="DejaVuSans-6e"/>
      <path d="M 54.890625 54.6875 
L 35.109375 28.078125 
L 55.90625 0 
L 45.3125 0 
L 29.390625 21.484375 
L 13.484375 0 
L 2.875 0 
L 24.125 28.609375 
L 4.6875 54.6875 
L 15.28125 54.6875 
L 29.78125 35.203125 
L 44.28125 54.6875 
z
" id="DejaVuSans-78"/>
     </defs>
     <g transform="translate(212.282812 332.326562)scale(0.1 -0.1)">
      <use xlink:href="#DejaVuSans-52"/>
      <use x="69.419922" xlink:href="#DejaVuSans-65"/>
      <use x="130.943359" xlink:href="#DejaVuSans-73"/>
      <use x="183.042969" xlink:href="#DejaVuSans-69"/>
      <use x="210.826172" xlink:href="#DejaVuSans-64"/>
      <use x="274.302734" xlink:href="#DejaVuSans-75"/>
      <use x="337.681641" xlink:href="#DejaVuSans-65"/>
      <use x="399.205078" xlink:href="#DejaVuSans-20"/>
      <use x="430.992188" xlink:href="#DejaVuSans-69"/>
      <use x="458.775391" xlink:href="#DejaVuSans-6e"/>
      <use x="522.154297" xlink:href="#DejaVuSans-64"/>
      <use x="585.630859" xlink:href="#DejaVuSans-65"/>
      <use x="647.138672" xlink:href="#DejaVuSans-78"/>
     </g>
    </g>
   </g>
   <g id="matplotlib.axis_2">
    <g id="ytick_1">
     <g id="line2d_24">
      <defs>
       <path d="M 0 0 
L -3.5 0 
" id="mf87dca7c74" style="stroke:#000000;stroke-width:0.8;"/>
      </defs>
      <g>
       <use style="stroke:#000000;stroke-width:0.8;" x="47.72" xlink:href="#mf87dca7c74" y="280.62223"/>
      </g>
     </g>
     <g id="text_25">
      <!-- 0.0 -->
      <defs>
       <path d="M 10.6875 12.40625 
L 21 12.40625 
L 21 0 
L 10.6875 0 
z
" id="DejaVuSans-2e"/>
      </defs>
      <g transform="translate(24.816875 284.421449)scale(0.1 -0.1)">
       <use xlink:href="#DejaVuSans-30"/>
       <use x="63.623047" xlink:href="#DejaVuSans-2e"/>
       <use x="95.410156" xlink:href="#DejaVuSans-30"/>
      </g>
     </g>
    </g>
    <g id="ytick_2">
     <g id="line2d_25">
      <g>
       <use style="stroke:#000000;stroke-width:0.8;" x="47.72" xlink:href="#mf87dca7c74" y="249.815378"/>
      </g>
     </g>
     <g id="text_26">
      <!-- 0.5 -->
      <g transform="translate(24.816875 253.614596)scale(0.1 -0.1)">
       <use xlink:href="#DejaVuSans-30"/>
       <use x="63.623047" xlink:href="#DejaVuSans-2e"/>
       <use x="95.410156" xlink:href="#DejaVuSans-35"/>
      </g>
     </g>
    </g>
    <g id="ytick_3">
     <g id="line2d_26">
      <g>
       <use style="stroke:#000000;stroke-width:0.8;" x="47.72" xlink:href="#mf87dca7c74" y="219.008525"/>
      </g>
     </g>
     <g id="text_27">
      <!-- 1.0 -->
      <g transform="translate(24.816875 222.807744)scale(0.1 -0.1)">
       <use xlink:href="#DejaVuSans-31"/>
       <use x="63.623047" xlink:href="#DejaVuSans-2e"/>
       <use x="95.410156" xlink:href="#DejaVuSans-30"/>
      </g>
     </g>
    </g>
    <g id="ytick_4">
     <g id="line2d_27">
      <g>
       <use style="stroke:#000000;stroke-width:0.8;" x="47.72" xlink:href="#mf87dca7c74" y="188.201673"/>
      </g>
     </g>
     <g id="text_28">
      <!-- 1.5 -->
      <g transform="translate(24.816875 192.000892)scale(0.1 -0.1)">
       <use xlink:href="#DejaVuSans-31"/>
       <use x="63.623047" xlink:href="#DejaVuSans-2e"/>
       <use x="95.410156" xlink:href="#DejaVuSans-35"/>
      </g>
     </g>
    </g>
    <g id="ytick_5">
     <g id="line2d_28">
      <g>
       <use style="stroke:#000000;stroke-width:0.8;" x="47.72" xlink:href="#mf87dca7c74" y="157.394821"/>
      </g>
     </g>
     <g id="text_29">
      <!-- 2.0 -->
      <g transform="translate(24.816875 161.19404)scale(0.1 -0.1)">
       <use xlink:href="#DejaVuSans-32"/>
       <use x="63.623047" xlink:href="#DejaVuSans-2e"/>
       <use x="95.410156" xlink:href="#DejaVuSans-30"/>
      </g>
     </g>
    </g>
    <g id="ytick_6">
     <g id="line2d_29">
      <g>
       <use style="stroke:#000000;stroke-width:0.8;" x="47.72" xlink:href="#mf87dca7c74" y="126.587969"/>
      </g>
     </g>
     <g id="text_30">
      <!-- 2.5 -->
      <g transform="translate(24.816875 130.387187)scale(0.1 -0.1)">
       <use xlink:href="#DejaVuSans-32"/>
       <use x="63.623047" xlink:href="#DejaVuSans-2e"/>
       <use x="95.410156" xlink:href="#DejaVuSans-35"/>
      </g>
     </g>
    </g>
    <g id="ytick_7">
     <g id="line2d_30">
      <g>
       <use style="stroke:#000000;stroke-width:0.8;" x="47.72" xlink:href="#mf87dca7c74" y="95.781116"/>
      </g>
     </g>
     <g id="text_31">
      <!-- 3.0 -->
      <g transform="translate(24.816875 99.580335)scale(0.1 -0.1)">
       <use xlink:href="#DejaVuSans-33"/>
       <use x="63.623047" xlink:href="#DejaVuSans-2e"/>
       <use x="95.410156" xlink:href="#DejaVuSans-30"/>
      </g>
     </g>
    </g>
    <g id="ytick_8">
     <g id="line2d_31">
      <g>
       <use style="stroke:#000000;stroke-width:0.8;" x="47.72" xlink:href="#mf87dca7c74" y="64.974264"/>
      </g>
     </g>
     <g id="text_32">
      <!-- 3.5 -->
      <g transform="translate(24.816875 68.773483)scale(0.1 -0.1)">
       <use xlink:href="#DejaVuSans-33"/>
       <use x="63.623047" xlink:href="#DejaVuSans-2e"/>
       <use x="95.410156" xlink:href="#DejaVuSans-35"/>
      </g>
     </g>
    </g>
    <g id="ytick_9">
     <g id="line2d_32">
      <g>
       <use style="stroke:#000000;stroke-width:0.8;" x="47.72" xlink:href="#mf87dca7c74" y="34.167412"/>
      </g>
     </g>
     <g id="text_33">
      <!-- 4.0 -->
      <g transform="translate(24.816875 37.96663)scale(0.1 -0.1)">
       <use xlink:href="#DejaVuSans-34"/>
       <use x="63.623047" xlink:href="#DejaVuSans-2e"/>
       <use x="95.410156" xlink:href="#DejaVuSans-30"/>
      </g>
     </g>
    </g>
    <g id="text_34">
     <!-- RMSF -->
     <defs>
      <path d="M 9.8125 72.90625 
L 24.515625 72.90625 
L 43.109375 23.296875 
L 61.8125 72.90625 
L 76.515625 72.90625 
L 76.515625 0 
L 66.890625 0 
L 66.890625 64.015625 
L 48.09375 14.015625 
L 38.1875 14.015625 
L 19.390625 64.015625 
L 19.390625 0 
L 9.8125 0 
z
" id="DejaVuSans-4d"/>
      <path d="M 53.515625 70.515625 
L 53.515625 60.890625 
Q 47.90625 63.578125 42.921875 64.890625 
Q 37.9375 66.21875 33.296875 66.21875 
Q 25.25 66.21875 20.875 63.09375 
Q 16.5 59.96875 16.5 54.203125 
Q 16.5 49.359375 19.40625 46.890625 
Q 22.3125 44.4375 30.421875 42.921875 
L 36.375 41.703125 
Q 47.40625 39.59375 52.65625 34.296875 
Q 57.90625 29 57.90625 20.125 
Q 57.90625 9.515625 50.796875 4.046875 
Q 43.703125 -1.421875 29.984375 -1.421875 
Q 24.8125 -1.421875 18.96875 -0.25 
Q 13.140625 0.921875 6.890625 3.21875 
L 6.890625 13.375 
Q 12.890625 10.015625 18.65625 8.296875 
Q 24.421875 6.59375 29.984375 6.59375 
Q 38.421875 6.59375 43.015625 9.90625 
Q 47.609375 13.234375 47.609375 19.390625 
Q 47.609375 24.75 44.3125 27.78125 
Q 41.015625 30.8125 33.5 32.328125 
L 27.484375 33.5 
Q 16.453125 35.6875 11.515625 40.375 
Q 6.59375 45.0625 6.59375 53.421875 
Q 6.59375 63.09375 13.40625 68.65625 
Q 20.21875 74.21875 32.171875 74.21875 
Q 37.3125 74.21875 42.625 73.28125 
Q 47.953125 72.359375 53.515625 70.515625 
z
" id="DejaVuSans-53"/>
      <path d="M 9.8125 72.90625 
L 51.703125 72.90625 
L 51.703125 64.59375 
L 19.671875 64.59375 
L 19.671875 43.109375 
L 48.578125 43.109375 
L 48.578125 34.8125 
L 19.671875 34.8125 
L 19.671875 0 
L 9.8125 0 
z
" id="DejaVuSans-46"/>
     </defs>
     <g transform="translate(18.737188 164.398281)rotate(-90)scale(0.1 -0.1)">
      <use xlink:href="#DejaVuSans-52"/>
      <use x="69.482422" xlink:href="#DejaVuSans-4d"/>
      <use x="155.761719" xlink:href="#DejaVuSans-53"/>
      <use x="219.238281" xlink:href="#DejaVuSans-46"/>
     </g>
    </g>
   </g>
   <g id="line2d_33">
    <path clip-path="url(#p634cd640a9)" d="M 47.72 235.745095 
L 48.610334 257.048366 
L 49.500668 271.350418 
L 50.391002 271.490771 
L 51.281336 246.980726 
L 52.17167 243.67339 
L 53.062004 233.265494 
L 53.952339 236.779608 
L 54.842673 241.656056 
L 55.733007 229.80436 
L 56.623341 143.685364 
L 57.513675 217.489409 
L 58.404009 201.606773 
L 59.294343 195.904876 
L 60.184677 202.051606 
L 61.075011 224.920486 
L 61.965345 235.181128 
L 62.855679 233.15536 
L 63.746013 249.120068 
L 64.636347 237.736322 
L 65.526682 239.549319 
L 66.417016 235.104942 
L 67.30735 248.93403 
L 68.197684 250.144685 
L 69.088018 260.063114 
L 69.978352 244.960089 
L 70.868686 256.442872 
L 71.75902 234.90829 
L 73.539688 197.848046 
L 74.430022 189.136139 
L 75.320356 210.471259 
L 76.21069 199.358296 
L 77.101024 210.435857 
L 77.991359 244.965103 
L 78.881693 255.987646 
L 79.772027 269.887899 
L 80.662361 268.942188 
L 81.552695 258.226271 
L 83.333363 246.296519 
L 84.223697 205.593414 
L 85.114031 198.628299 
L 86.004365 224.975294 
L 86.894699 247.444567 
L 87.785033 242.439449 
L 88.675367 250.497322 
L 89.565702 256.492711 
L 90.456036 263.417902 
L 91.34637 251.141325 
L 92.236704 246.776028 
L 93.127038 247.294035 
L 94.017372 246.424759 
L 94.907706 251.718741 
L 95.79804 249.731023 
L 96.688374 236.37245 
L 97.578708 193.245152 
L 98.469042 157.616178 
L 99.359376 139.407325 
L 100.24971 147.761684 
L 101.140045 203.147498 
L 102.030379 215.364566 
L 102.920713 176.229271 
L 103.811047 249.707244 
L 104.701381 272.835055 
L 105.591715 252.025299 
L 106.482049 227.86335 
L 107.372383 195.085803 
L 108.262717 175.332493 
L 109.153051 240.562167 
L 110.043385 233.276525 
L 110.933719 257.014506 
L 111.824053 254.11442 
L 112.714388 248.06788 
L 113.604722 260.801982 
L 114.495056 259.768613 
L 115.38539 257.072634 
L 116.275724 253.209191 
L 117.166058 254.920956 
L 118.056392 233.814112 
L 118.946726 221.811012 
L 119.83706 175.863111 
L 120.727394 187.432949 
L 121.617728 192.233076 
L 122.508062 180.415892 
L 123.398396 238.585135 
L 124.288731 246.46378 
L 125.179065 272.365956 
L 126.069399 273.049604 
L 126.959733 273.439638 
L 127.850067 272.997718 
L 128.740401 272.011418 
L 129.630735 246.628643 
L 130.521069 206.897149 
L 131.411403 114.163038 
L 133.192071 25.796364 
L 134.082405 105.941243 
L 134.972739 198.076739 
L 135.863073 214.946634 
L 136.753408 252.037763 
L 137.643742 263.853281 
L 138.534076 273.021412 
L 139.42441 272.233069 
L 140.314744 260.115242 
L 141.205078 255.108579 
L 142.095412 259.9089 
L 142.985746 250.602355 
L 143.87608 235.176018 
L 144.766414 107.889638 
L 145.656748 134.102167 
L 146.547082 136.122863 
L 147.437416 205.221841 
L 148.327751 245.113408 
L 149.218085 247.505585 
L 150.108419 260.926937 
L 150.998753 262.267449 
L 151.889087 272.479426 
L 152.779421 271.410409 
L 153.669755 272.128017 
L 154.560089 271.755317 
L 155.450423 269.625406 
L 156.340757 248.368072 
L 157.231091 168.397396 
L 158.121425 123.948191 
L 159.011759 93.843844 
L 159.902094 167.188281 
L 160.792428 216.677552 
L 161.682762 259.330884 
L 162.573096 258.645006 
L 163.46343 228.48331 
L 164.353764 231.461479 
L 165.244098 246.963764 
L 166.134432 250.942291 
L 167.024766 171.299114 
L 167.9151 221.199406 
L 168.805434 227.979052 
L 169.695768 223.981518 
L 170.586102 233.613088 
L 171.476437 241.62276 
L 172.366771 246.332848 
L 173.257105 257.124947 
L 174.147439 265.472134 
L 175.037773 255.763619 
L 175.928107 259.388695 
L 176.818441 266.009919 
L 177.708775 266.717765 
L 178.599109 258.299426 
L 179.489443 237.783923 
L 180.379777 228.703112 
L 181.270111 175.956745 
L 182.160445 197.456693 
L 183.05078 178.656617 
L 183.941114 171.108689 
L 184.831448 166.320089 
L 185.721782 242.122077 
L 186.612116 234.80959 
L 187.50245 252.077107 
L 188.392784 229.153949 
L 189.283118 245.353211 
L 190.173452 244.651544 
L 191.063786 236.992101 
L 191.95412 198.239515 
L 192.844454 196.066726 
L 193.734788 164.464034 
L 194.625122 154.962237 
L 195.515457 197.525559 
L 196.405791 210.836792 
L 197.296125 237.658348 
L 198.186459 236.154517 
L 199.076793 222.393107 
L 199.967127 199.198428 
L 200.857461 147.69369 
L 201.747795 154.770779 
L 202.638129 138.583664 
L 203.528463 196.659238 
L 204.418797 228.641344 
L 205.309131 240.246154 
L 206.199465 238.724165 
L 207.0898 198.197086 
L 207.980134 212.273455 
L 208.870468 188.707209 
L 209.760802 198.742827 
L 210.651136 231.872071 
L 211.54147 244.961314 
L 212.431804 241.777903 
L 213.322138 255.679579 
L 214.212472 255.104527 
L 215.102806 253.894795 
L 215.99314 256.864306 
L 216.883474 244.075841 
L 217.773808 245.592388 
L 218.664143 230.613611 
L 219.554477 190.398629 
L 220.444811 229.488316 
L 221.335145 252.300499 
L 222.225479 268.080837 
L 223.115813 270.974606 
L 224.006147 270.811218 
L 224.896481 270.117405 
L 225.786815 263.402471 
L 226.677149 266.14623 
L 227.567483 251.304105 
L 228.457817 225.005895 
L 229.348151 148.688236 
L 230.238486 185.693629 
L 231.12882 207.3648 
L 232.019154 245.946911 
L 232.909488 270.049341 
L 233.799822 269.400965 
L 234.690156 271.341032 
L 235.58049 271.423404 
L 236.470824 264.044976 
L 237.361158 251.797548 
L 238.251492 233.10836 
L 239.141826 194.20532 
L 240.03216 166.744158 
L 240.922494 145.46787 
L 241.812829 203.321491 
L 242.703163 206.481541 
L 243.593497 216.862537 
L 245.374165 231.198432 
L 246.264499 229.955525 
L 247.154833 226.574812 
L 248.045167 231.10388 
L 248.935501 229.307044 
L 249.825835 232.982495 
L 250.716169 230.733913 
L 251.606503 236.878146 
L 252.496837 236.219669 
L 253.387171 224.929255 
L 254.277506 215.138096 
L 255.16784 231.669677 
L 256.058174 185.684461 
L 256.948508 247.828025 
L 257.838842 211.446671 
L 258.729176 239.196285 
L 259.61951 253.035844 
L 260.509844 258.196759 
L 261.400178 244.714791 
L 262.290512 254.652094 
L 263.180846 272.908571 
L 264.07118 271.997871 
L 264.961514 249.673502 
L 265.851849 238.146389 
L 266.742183 204.677282 
L 267.632517 132.057892 
L 268.522851 128.621095 
L 269.413185 194.737654 
L 270.303519 250.573188 
L 271.193853 266.480787 
L 272.084187 271.670968 
L 272.974521 272.057632 
L 273.864855 272.628308 
L 274.755189 272.467298 
L 275.645523 256.525443 
L 276.535857 232.806586 
L 277.426192 233.409853 
L 278.316526 232.186904 
L 279.20686 233.316563 
L 280.987528 259.062617 
L 282.768196 234.482217 
L 283.65853 244.394533 
L 284.548864 244.617152 
L 285.439198 219.11894 
L 286.329532 164.667567 
L 287.219866 168.790484 
L 288.1102 186.80592 
L 289.000535 211.833324 
L 289.890869 200.36507 
L 290.781203 129.043339 
L 291.671537 230.319562 
L 292.561871 245.72753 
L 293.452205 254.3269 
L 294.342539 254.292672 
L 295.232873 260.887858 
L 296.123207 274.000785 
L 297.903875 274.938313 
L 298.794209 274.32801 
L 299.684543 274.59392 
L 301.465212 275.323636 
L 302.355546 270.33733 
L 303.24588 273.50465 
L 304.136214 271.783972 
L 305.026548 252.178523 
L 305.916882 274.863162 
L 306.807216 274.981296 
L 307.69755 274.934259 
L 309.478218 262.973182 
L 311.258886 238.384895 
L 312.14922 203.898255 
L 313.039555 223.791213 
L 313.929889 240.230199 
L 314.820223 234.675831 
L 315.710557 216.746885 
L 316.600891 234.514559 
L 317.491225 248.030081 
L 318.381559 240.242885 
L 319.271893 262.666833 
L 320.162227 243.613146 
L 321.052561 253.351926 
L 321.942895 261.569041 
L 322.833229 256.135985 
L 323.723563 240.797932 
L 324.613898 243.986407 
L 326.394566 201.724511 
L 327.2849 217.651187 
L 328.175234 250.268297 
L 329.065568 261.739684 
L 329.955902 254.844721 
L 330.846236 259.505601 
L 331.73657 229.539979 
L 332.626904 222.663161 
L 333.517238 218.052055 
L 334.407572 189.66446 
L 335.297906 209.518095 
L 336.188241 188.812541 
L 337.078575 193.734937 
L 337.968909 209.66045 
L 338.859243 208.284366 
L 339.749577 211.513529 
L 340.639911 200.867843 
L 341.530245 213.753539 
L 342.420579 207.201499 
L 343.310913 233.219434 
L 344.201247 220.428046 
L 345.091581 144.807125 
L 345.981915 151.810324 
L 346.872249 128.533456 
L 347.762584 123.942767 
L 348.652918 142.91579 
L 349.543252 134.051332 
L 350.433586 161.954536 
L 351.32392 150.129213 
L 352.214254 224.905427 
L 353.104588 258.910905 
L 353.994922 271.629666 
L 354.885256 267.59467 
L 355.77559 268.906585 
L 356.665924 250.29036 
L 357.556258 241.27591 
L 358.446592 241.847965 
L 359.336927 253.221317 
L 360.227261 238.710213 
L 361.117595 234.255176 
L 362.007929 215.853895 
L 362.898263 172.6266 
L 363.788597 220.149613 
L 364.678931 215.292546 
L 365.569265 241.196952 
L 366.459599 237.366062 
L 367.349933 260.441788 
L 368.240267 255.967794 
L 369.130601 260.738142 
L 370.911269 263.923545 
L 371.801604 257.84837 
L 372.691938 260.255408 
L 373.582272 273.261876 
L 374.472606 273.604022 
L 375.36294 273.435069 
L 376.253274 268.818869 
L 377.143608 271.690724 
L 378.033942 265.879936 
L 379.81461 237.81053 
L 380.704944 197.891721 
L 381.595278 178.086361 
L 382.485612 201.089484 
L 383.375947 175.509749 
L 384.266281 174.114571 
L 385.156615 203.168842 
L 386.046949 176.98985 
L 386.937283 162.562184 
L 387.827617 166.314779 
L 388.717951 203.650874 
L 390.498619 238.903229 
L 391.388953 242.180985 
L 392.279287 227.616909 
L 393.169621 243.190245 
L 394.059955 239.539345 
L 394.95029 224.800054 
L 395.840624 212.659673 
L 396.730958 205.406202 
L 397.621292 202.688992 
L 398.511626 207.16783 
L 399.40196 226.718677 
L 400.292294 227.704883 
L 401.182628 215.950589 
L 402.072962 218.393282 
L 402.963296 242.070736 
L 403.85363 198.487812 
L 405.634298 213.108695 
L 406.524633 233.799557 
L 407.414967 241.147064 
L 408.305301 241.202043 
L 409.195635 255.138242 
L 410.085969 273.387692 
L 410.976303 272.796745 
L 411.866637 263.482321 
L 412.756971 273.502722 
L 413.647305 259.743263 
L 414.537639 256.329487 
L 415.427973 263.486354 
L 416.318307 273.236229 
L 417.208641 261.23721 
L 418.098976 245.626042 
L 418.98931 233.726513 
L 419.879644 211.604956 
L 420.769978 212.066131 
L 421.660312 208.627472 
L 422.550646 226.815872 
L 423.44098 209.066196 
L 424.331314 220.473264 
L 425.221648 274.218786 
L 426.111982 274.714475 
L 427.002316 274.781787 
L 427.89265 274.571141 
L 428.782984 273.545519 
L 429.673318 263.973818 
L 430.563653 274.107433 
L 431.453987 264.111503 
L 432.344321 252.332288 
L 433.234655 251.736122 
L 435.015323 215.019858 
L 435.905657 200.619039 
L 436.795991 169.322769 
L 438.576659 153.667773 
L 439.466993 182.973915 
L 440.357327 227.929373 
L 441.247661 218.297718 
L 442.137996 233.850079 
L 443.02833 206.527861 
L 443.918664 185.463312 
L 444.808998 204.4882 
L 445.699332 236.934061 
L 446.589666 239.755617 
L 447.48 222.061035 
L 447.48 222.061035 
" style="fill:none;stroke:#666666;stroke-dasharray:1,1.65;stroke-dashoffset:0;"/>
    <defs>
     <path d="M 0 0.5 
C 0.132602 0.5 0.25979 0.447317 0.353553 0.353553 
C 0.447317 0.25979 0.5 0.132602 0.5 0 
C 0.5 -0.132602 0.447317 -0.25979 0.353553 -0.353553 
C 0.25979 -0.447317 0.132602 -0.5 0 -0.5 
C -0.132602 -0.5 -0.25979 -0.447317 -0.353553 -0.353553 
C -0.447317 -0.25979 -0.5 -0.132602 -0.5 0 
C -0.5 0.132602 -0.447317 0.25979 -0.353553 0.353553 
C -0.25979 0.447317 -0.132602 0.5 0 0.5 
z
" id="m3dbee75314" style="stroke:#666666;"/>
    </defs>
    <g clip-path="url(#p634cd640a9)">
     <use style="fill:#666666;stroke:#666666;" x="47.72" xlink:href="#m3dbee75314" y="235.745095"/>
     <use style="fill:#666666;stroke:#666666;" x="48.610334" xlink:href="#m3dbee75314" y="257.048366"/>
     <use style="fill:#666666;stroke:#666666;" x="49.500668" xlink:href="#m3dbee75314" y="271.350418"/>
     <use style="fill:#666666;stroke:#666666;" x="50.391002" xlink:href="#m3dbee75314" y="271.490771"/>
     <use style="fill:#666666;stroke:#666666;" x="51.281336" xlink:href="#m3dbee75314" y="246.980726"/>
     <use style="fill:#666666;stroke:#666666;" x="52.17167" xlink:href="#m3dbee75314" y="243.67339"/>
     <use style="fill:#666666;stroke:#666666;" x="53.062004" xlink:href="#m3dbee75314" y="233.265494"/>
     <use style="fill:#666666;stroke:#666666;" x="53.952339" xlink:href="#m3dbee75314" y="236.779608"/>
     <use style="fill:#666666;stroke:#666666;" x="54.842673" xlink:href="#m3dbee75314" y="241.656056"/>
     <use style="fill:#666666;stroke:#666666;" x="55.733007" xlink:href="#m3dbee75314" y="229.80436"/>
     <use style="fill:#666666;stroke:#666666;" x="56.623341" xlink:href="#m3dbee75314" y="143.685364"/>
     <use style="fill:#666666;stroke:#666666;" x="57.513675" xlink:href="#m3dbee75314" y="217.489409"/>
     <use style="fill:#666666;stroke:#666666;" x="58.404009" xlink:href="#m3dbee75314" y="201.606773"/>
     <use style="fill:#666666;stroke:#666666;" x="59.294343" xlink:href="#m3dbee75314" y="195.904876"/>
     <use style="fill:#666666;stroke:#666666;" x="60.184677" xlink:href="#m3dbee75314" y="202.051606"/>
     <use style="fill:#666666;stroke:#666666;" x="61.075011" xlink:href="#m3dbee75314" y="224.920486"/>
     <use style="fill:#666666;stroke:#666666;" x="61.965345" xlink:href="#m3dbee75314" y="235.181128"/>
     <use style="fill:#666666;stroke:#666666;" x="62.855679" xlink:href="#m3dbee75314" y="233.15536"/>
     <use style="fill:#666666;stroke:#666666;" x="63.746013" xlink:href="#m3dbee75314" y="249.120068"/>
     <use style="fill:#666666;stroke:#666666;" x="64.636347" xlink:href="#m3dbee75314" y="237.736322"/>
     <use style="fill:#666666;stroke:#666666;" x="65.526682" xlink:href="#m3dbee75314" y="239.549319"/>
     <use style="fill:#666666;stroke:#666666;" x="66.417016" xlink:href="#m3dbee75314" y="235.104942"/>
     <use style="fill:#666666;stroke:#666666;" x="67.30735" xlink:href="#m3dbee75314" y="248.93403"/>
     <use style="fill:#666666;stroke:#666666;" x="68.197684" xlink:href="#m3dbee75314" y="250.144685"/>
     <use style="fill:#666666;stroke:#666666;" x="69.088018" xlink:href="#m3dbee75314" y="260.063114"/>
     <use style="fill:#666666;stroke:#666666;" x="69.978352" xlink:href="#m3dbee75314" y="244.960089"/>
     <use style="fill:#666666;stroke:#666666;" x="70.868686" xlink:href="#m3dbee75314" y="256.442872"/>
     <use style="fill:#666666;stroke:#666666;" x="71.75902" xlink:href="#m3dbee75314" y="234.90829"/>
     <use style="fill:#666666;stroke:#666666;" x="72.649354" xlink:href="#m3dbee75314" y="217.214831"/>
     <use style="fill:#666666;stroke:#666666;" x="73.539688" xlink:href="#m3dbee75314" y="197.848046"/>
     <use style="fill:#666666;stroke:#666666;" x="74.430022" xlink:href="#m3dbee75314" y="189.136139"/>
     <use style="fill:#666666;stroke:#666666;" x="75.320356" xlink:href="#m3dbee75314" y="210.471259"/>
     <use style="fill:#666666;stroke:#666666;" x="76.21069" xlink:href="#m3dbee75314" y="199.358296"/>
     <use style="fill:#666666;stroke:#666666;" x="77.101024" xlink:href="#m3dbee75314" y="210.435857"/>
     <use style="fill:#666666;stroke:#666666;" x="77.991359" xlink:href="#m3dbee75314" y="244.965103"/>
     <use style="fill:#666666;stroke:#666666;" x="78.881693" xlink:href="#m3dbee75314" y="255.987646"/>
     <use style="fill:#666666;stroke:#666666;" x="79.772027" xlink:href="#m3dbee75314" y="269.887899"/>
     <use style="fill:#666666;stroke:#666666;" x="80.662361" xlink:href="#m3dbee75314" y="268.942188"/>
     <use style="fill:#666666;stroke:#666666;" x="81.552695" xlink:href="#m3dbee75314" y="258.226271"/>
     <use style="fill:#666666;stroke:#666666;" x="82.443029" xlink:href="#m3dbee75314" y="252.574725"/>
     <use style="fill:#666666;stroke:#666666;" x="83.333363" xlink:href="#m3dbee75314" y="246.296519"/>
     <use style="fill:#666666;stroke:#666666;" x="84.223697" xlink:href="#m3dbee75314" y="205.593414"/>
     <use style="fill:#666666;stroke:#666666;" x="85.114031" xlink:href="#m3dbee75314" y="198.628299"/>
     <use style="fill:#666666;stroke:#666666;" x="86.004365" xlink:href="#m3dbee75314" y="224.975294"/>
     <use style="fill:#666666;stroke:#666666;" x="86.894699" xlink:href="#m3dbee75314" y="247.444567"/>
     <use style="fill:#666666;stroke:#666666;" x="87.785033" xlink:href="#m3dbee75314" y="242.439449"/>
     <use style="fill:#666666;stroke:#666666;" x="88.675367" xlink:href="#m3dbee75314" y="250.497322"/>
     <use style="fill:#666666;stroke:#666666;" x="89.565702" xlink:href="#m3dbee75314" y="256.492711"/>
     <use style="fill:#666666;stroke:#666666;" x="90.456036" xlink:href="#m3dbee75314" y="263.417902"/>
     <use style="fill:#666666;stroke:#666666;" x="91.34637" xlink:href="#m3dbee75314" y="251.141325"/>
     <use style="fill:#666666;stroke:#666666;" x="92.236704" xlink:href="#m3dbee75314" y="246.776028"/>
     <use style="fill:#666666;stroke:#666666;" x="93.127038" xlink:href="#m3dbee75314" y="247.294035"/>
     <use style="fill:#666666;stroke:#666666;" x="94.017372" xlink:href="#m3dbee75314" y="246.424759"/>
     <use style="fill:#666666;stroke:#666666;" x="94.907706" xlink:href="#m3dbee75314" y="251.718741"/>
     <use style="fill:#666666;stroke:#666666;" x="95.79804" xlink:href="#m3dbee75314" y="249.731023"/>
     <use style="fill:#666666;stroke:#666666;" x="96.688374" xlink:href="#m3dbee75314" y="236.37245"/>
     <use style="fill:#666666;stroke:#666666;" x="97.578708" xlink:href="#m3dbee75314" y="193.245152"/>
     <use style="fill:#666666;stroke:#666666;" x="98.469042" xlink:href="#m3dbee75314" y="157.616178"/>
     <use style="fill:#666666;stroke:#666666;" x="99.359376" xlink:href="#m3dbee75314" y="139.407325"/>
     <use style="fill:#666666;stroke:#666666;" x="100.24971" xlink:href="#m3dbee75314" y="147.761684"/>
     <use style="fill:#666666;stroke:#666666;" x="101.140045" xlink:href="#m3dbee75314" y="203.147498"/>
     <use style="fill:#666666;stroke:#666666;" x="102.030379" xlink:href="#m3dbee75314" y="215.364566"/>
     <use style="fill:#666666;stroke:#666666;" x="102.920713" xlink:href="#m3dbee75314" y="176.229271"/>
     <use style="fill:#666666;stroke:#666666;" x="103.811047" xlink:href="#m3dbee75314" y="249.707244"/>
     <use style="fill:#666666;stroke:#666666;" x="104.701381" xlink:href="#m3dbee75314" y="272.835055"/>
     <use style="fill:#666666;stroke:#666666;" x="105.591715" xlink:href="#m3dbee75314" y="252.025299"/>
     <use style="fill:#666666;stroke:#666666;" x="106.482049" xlink:href="#m3dbee75314" y="227.86335"/>
     <use style="fill:#666666;stroke:#666666;" x="107.372383" xlink:href="#m3dbee75314" y="195.085803"/>
     <use style="fill:#666666;stroke:#666666;" x="108.262717" xlink:href="#m3dbee75314" y="175.332493"/>
     <use style="fill:#666666;stroke:#666666;" x="109.153051" xlink:href="#m3dbee75314" y="240.562167"/>
     <use style="fill:#666666;stroke:#666666;" x="110.043385" xlink:href="#m3dbee75314" y="233.276525"/>
     <use style="fill:#666666;stroke:#666666;" x="110.933719" xlink:href="#m3dbee75314" y="257.014506"/>
     <use style="fill:#666666;stroke:#666666;" x="111.824053" xlink:href="#m3dbee75314" y="254.11442"/>
     <use style="fill:#666666;stroke:#666666;" x="112.714388" xlink:href="#m3dbee75314" y="248.06788"/>
     <use style="fill:#666666;stroke:#666666;" x="113.604722" xlink:href="#m3dbee75314" y="260.801982"/>
     <use style="fill:#666666;stroke:#666666;" x="114.495056" xlink:href="#m3dbee75314" y="259.768613"/>
     <use style="fill:#666666;stroke:#666666;" x="115.38539" xlink:href="#m3dbee75314" y="257.072634"/>
     <use style="fill:#666666;stroke:#666666;" x="116.275724" xlink:href="#m3dbee75314" y="253.209191"/>
     <use style="fill:#666666;stroke:#666666;" x="117.166058" xlink:href="#m3dbee75314" y="254.920956"/>
     <use style="fill:#666666;stroke:#666666;" x="118.056392" xlink:href="#m3dbee75314" y="233.814112"/>
     <use style="fill:#666666;stroke:#666666;" x="118.946726" xlink:href="#m3dbee75314" y="221.811012"/>
     <use style="fill:#666666;stroke:#666666;" x="119.83706" xlink:href="#m3dbee75314" y="175.863111"/>
     <use style="fill:#666666;stroke:#666666;" x="120.727394" xlink:href="#m3dbee75314" y="187.432949"/>
     <use style="fill:#666666;stroke:#666666;" x="121.617728" xlink:href="#m3dbee75314" y="192.233076"/>
     <use style="fill:#666666;stroke:#666666;" x="122.508062" xlink:href="#m3dbee75314" y="180.415892"/>
     <use style="fill:#666666;stroke:#666666;" x="123.398396" xlink:href="#m3dbee75314" y="238.585135"/>
     <use style="fill:#666666;stroke:#666666;" x="124.288731" xlink:href="#m3dbee75314" y="246.46378"/>
     <use style="fill:#666666;stroke:#666666;" x="125.179065" xlink:href="#m3dbee75314" y="272.365956"/>
     <use style="fill:#666666;stroke:#666666;" x="126.069399" xlink:href="#m3dbee75314" y="273.049604"/>
     <use style="fill:#666666;stroke:#666666;" x="126.959733" xlink:href="#m3dbee75314" y="273.439638"/>
     <use style="fill:#666666;stroke:#666666;" x="127.850067" xlink:href="#m3dbee75314" y="272.997718"/>
     <use style="fill:#666666;stroke:#666666;" x="128.740401" xlink:href="#m3dbee75314" y="272.011418"/>
     <use style="fill:#666666;stroke:#666666;" x="129.630735" xlink:href="#m3dbee75314" y="246.628643"/>
     <use style="fill:#666666;stroke:#666666;" x="130.521069" xlink:href="#m3dbee75314" y="206.897149"/>
     <use style="fill:#666666;stroke:#666666;" x="131.411403" xlink:href="#m3dbee75314" y="114.163038"/>
     <use style="fill:#666666;stroke:#666666;" x="132.301737" xlink:href="#m3dbee75314" y="67.157255"/>
     <use style="fill:#666666;stroke:#666666;" x="133.192071" xlink:href="#m3dbee75314" y="25.796364"/>
     <use style="fill:#666666;stroke:#666666;" x="134.082405" xlink:href="#m3dbee75314" y="105.941243"/>
     <use style="fill:#666666;stroke:#666666;" x="134.972739" xlink:href="#m3dbee75314" y="198.076739"/>
     <use style="fill:#666666;stroke:#666666;" x="135.863073" xlink:href="#m3dbee75314" y="214.946634"/>
     <use style="fill:#666666;stroke:#666666;" x="136.753408" xlink:href="#m3dbee75314" y="252.037763"/>
     <use style="fill:#666666;stroke:#666666;" x="137.643742" xlink:href="#m3dbee75314" y="263.853281"/>
     <use style="fill:#666666;stroke:#666666;" x="138.534076" xlink:href="#m3dbee75314" y="273.021412"/>
     <use style="fill:#666666;stroke:#666666;" x="139.42441" xlink:href="#m3dbee75314" y="272.233069"/>
     <use style="fill:#666666;stroke:#666666;" x="140.314744" xlink:href="#m3dbee75314" y="260.115242"/>
     <use style="fill:#666666;stroke:#666666;" x="141.205078" xlink:href="#m3dbee75314" y="255.108579"/>
     <use style="fill:#666666;stroke:#666666;" x="142.095412" xlink:href="#m3dbee75314" y="259.9089"/>
     <use style="fill:#666666;stroke:#666666;" x="142.985746" xlink:href="#m3dbee75314" y="250.602355"/>
     <use style="fill:#666666;stroke:#666666;" x="143.87608" xlink:href="#m3dbee75314" y="235.176018"/>
     <use style="fill:#666666;stroke:#666666;" x="144.766414" xlink:href="#m3dbee75314" y="107.889638"/>
     <use style="fill:#666666;stroke:#666666;" x="145.656748" xlink:href="#m3dbee75314" y="134.102167"/>
     <use style="fill:#666666;stroke:#666666;" x="146.547082" xlink:href="#m3dbee75314" y="136.122863"/>
     <use style="fill:#666666;stroke:#666666;" x="147.437416" xlink:href="#m3dbee75314" y="205.221841"/>
     <use style="fill:#666666;stroke:#666666;" x="148.327751" xlink:href="#m3dbee75314" y="245.113408"/>
     <use style="fill:#666666;stroke:#666666;" x="149.218085" xlink:href="#m3dbee75314" y="247.505585"/>
     <use style="fill:#666666;stroke:#666666;" x="150.108419" xlink:href="#m3dbee75314" y="260.926937"/>
     <use style="fill:#666666;stroke:#666666;" x="150.998753" xlink:href="#m3dbee75314" y="262.267449"/>
     <use style="fill:#666666;stroke:#666666;" x="151.889087" xlink:href="#m3dbee75314" y="272.479426"/>
     <use style="fill:#666666;stroke:#666666;" x="152.779421" xlink:href="#m3dbee75314" y="271.410409"/>
     <use style="fill:#666666;stroke:#666666;" x="153.669755" xlink:href="#m3dbee75314" y="272.128017"/>
     <use style="fill:#666666;stroke:#666666;" x="154.560089" xlink:href="#m3dbee75314" y="271.755317"/>
     <use style="fill:#666666;stroke:#666666;" x="155.450423" xlink:href="#m3dbee75314" y="269.625406"/>
     <use style="fill:#666666;stroke:#666666;" x="156.340757" xlink:href="#m3dbee75314" y="248.368072"/>
     <use style="fill:#666666;stroke:#666666;" x="157.231091" xlink:href="#m3dbee75314" y="168.397396"/>
     <use style="fill:#666666;stroke:#666666;" x="158.121425" xlink:href="#m3dbee75314" y="123.948191"/>
     <use style="fill:#666666;stroke:#666666;" x="159.011759" xlink:href="#m3dbee75314" y="93.843844"/>
     <use style="fill:#666666;stroke:#666666;" x="159.902094" xlink:href="#m3dbee75314" y="167.188281"/>
     <use style="fill:#666666;stroke:#666666;" x="160.792428" xlink:href="#m3dbee75314" y="216.677552"/>
     <use style="fill:#666666;stroke:#666666;" x="161.682762" xlink:href="#m3dbee75314" y="259.330884"/>
     <use style="fill:#666666;stroke:#666666;" x="162.573096" xlink:href="#m3dbee75314" y="258.645006"/>
     <use style="fill:#666666;stroke:#666666;" x="163.46343" xlink:href="#m3dbee75314" y="228.48331"/>
     <use style="fill:#666666;stroke:#666666;" x="164.353764" xlink:href="#m3dbee75314" y="231.461479"/>
     <use style="fill:#666666;stroke:#666666;" x="165.244098" xlink:href="#m3dbee75314" y="246.963764"/>
     <use style="fill:#666666;stroke:#666666;" x="166.134432" xlink:href="#m3dbee75314" y="250.942291"/>
     <use style="fill:#666666;stroke:#666666;" x="167.024766" xlink:href="#m3dbee75314" y="171.299114"/>
     <use style="fill:#666666;stroke:#666666;" x="167.9151" xlink:href="#m3dbee75314" y="221.199406"/>
     <use style="fill:#666666;stroke:#666666;" x="168.805434" xlink:href="#m3dbee75314" y="227.979052"/>
     <use style="fill:#666666;stroke:#666666;" x="169.695768" xlink:href="#m3dbee75314" y="223.981518"/>
     <use style="fill:#666666;stroke:#666666;" x="170.586102" xlink:href="#m3dbee75314" y="233.613088"/>
     <use style="fill:#666666;stroke:#666666;" x="171.476437" xlink:href="#m3dbee75314" y="241.62276"/>
     <use style="fill:#666666;stroke:#666666;" x="172.366771" xlink:href="#m3dbee75314" y="246.332848"/>
     <use style="fill:#666666;stroke:#666666;" x="173.257105" xlink:href="#m3dbee75314" y="257.124947"/>
     <use style="fill:#666666;stroke:#666666;" x="174.147439" xlink:href="#m3dbee75314" y="265.472134"/>
     <use style="fill:#666666;stroke:#666666;" x="175.037773" xlink:href="#m3dbee75314" y="255.763619"/>
     <use style="fill:#666666;stroke:#666666;" x="175.928107" xlink:href="#m3dbee75314" y="259.388695"/>
     <use style="fill:#666666;stroke:#666666;" x="176.818441" xlink:href="#m3dbee75314" y="266.009919"/>
     <use style="fill:#666666;stroke:#666666;" x="177.708775" xlink:href="#m3dbee75314" y="266.717765"/>
     <use style="fill:#666666;stroke:#666666;" x="178.599109" xlink:href="#m3dbee75314" y="258.299426"/>
     <use style="fill:#666666;stroke:#666666;" x="179.489443" xlink:href="#m3dbee75314" y="237.783923"/>
     <use style="fill:#666666;stroke:#666666;" x="180.379777" xlink:href="#m3dbee75314" y="228.703112"/>
     <use style="fill:#666666;stroke:#666666;" x="181.270111" xlink:href="#m3dbee75314" y="175.956745"/>
     <use style="fill:#666666;stroke:#666666;" x="182.160445" xlink:href="#m3dbee75314" y="197.456693"/>
     <use style="fill:#666666;stroke:#666666;" x="183.05078" xlink:href="#m3dbee75314" y="178.656617"/>
     <use style="fill:#666666;stroke:#666666;" x="183.941114" xlink:href="#m3dbee75314" y="171.108689"/>
     <use style="fill:#666666;stroke:#666666;" x="184.831448" xlink:href="#m3dbee75314" y="166.320089"/>
     <use style="fill:#666666;stroke:#666666;" x="185.721782" xlink:href="#m3dbee75314" y="242.122077"/>
     <use style="fill:#666666;stroke:#666666;" x="186.612116" xlink:href="#m3dbee75314" y="234.80959"/>
     <use style="fill:#666666;stroke:#666666;" x="187.50245" xlink:href="#m3dbee75314" y="252.077107"/>
     <use style="fill:#666666;stroke:#666666;" x="188.392784" xlink:href="#m3dbee75314" y="229.153949"/>
     <use style="fill:#666666;stroke:#666666;" x="189.283118" xlink:href="#m3dbee75314" y="245.353211"/>
     <use style="fill:#666666;stroke:#666666;" x="190.173452" xlink:href="#m3dbee75314" y="244.651544"/>
     <use style="fill:#666666;stroke:#666666;" x="191.063786" xlink:href="#m3dbee75314" y="236.992101"/>
     <use style="fill:#666666;stroke:#666666;" x="191.95412" xlink:href="#m3dbee75314" y="198.239515"/>
     <use style="fill:#666666;stroke:#666666;" x="192.844454" xlink:href="#m3dbee75314" y="196.066726"/>
     <use style="fill:#666666;stroke:#666666;" x="193.734788" xlink:href="#m3dbee75314" y="164.464034"/>
     <use style="fill:#666666;stroke:#666666;" x="194.625122" xlink:href="#m3dbee75314" y="154.962237"/>
     <use style="fill:#666666;stroke:#666666;" x="195.515457" xlink:href="#m3dbee75314" y="197.525559"/>
     <use style="fill:#666666;stroke:#666666;" x="196.405791" xlink:href="#m3dbee75314" y="210.836792"/>
     <use style="fill:#666666;stroke:#666666;" x="197.296125" xlink:href="#m3dbee75314" y="237.658348"/>
     <use style="fill:#666666;stroke:#666666;" x="198.186459" xlink:href="#m3dbee75314" y="236.154517"/>
     <use style="fill:#666666;stroke:#666666;" x="199.076793" xlink:href="#m3dbee75314" y="222.393107"/>
     <use style="fill:#666666;stroke:#666666;" x="199.967127" xlink:href="#m3dbee75314" y="199.198428"/>
     <use style="fill:#666666;stroke:#666666;" x="200.857461" xlink:href="#m3dbee75314" y="147.69369"/>
     <use style="fill:#666666;stroke:#666666;" x="201.747795" xlink:href="#m3dbee75314" y="154.770779"/>
     <use style="fill:#666666;stroke:#666666;" x="202.638129" xlink:href="#m3dbee75314" y="138.583664"/>
     <use style="fill:#666666;stroke:#666666;" x="203.528463" xlink:href="#m3dbee75314" y="196.659238"/>
     <use style="fill:#666666;stroke:#666666;" x="204.418797" xlink:href="#m3dbee75314" y="228.641344"/>
     <use style="fill:#666666;stroke:#666666;" x="205.309131" xlink:href="#m3dbee75314" y="240.246154"/>
     <use style="fill:#666666;stroke:#666666;" x="206.199465" xlink:href="#m3dbee75314" y="238.724165"/>
     <use style="fill:#666666;stroke:#666666;" x="207.0898" xlink:href="#m3dbee75314" y="198.197086"/>
     <use style="fill:#666666;stroke:#666666;" x="207.980134" xlink:href="#m3dbee75314" y="212.273455"/>
     <use style="fill:#666666;stroke:#666666;" x="208.870468" xlink:href="#m3dbee75314" y="188.707209"/>
     <use style="fill:#666666;stroke:#666666;" x="209.760802" xlink:href="#m3dbee75314" y="198.742827"/>
     <use style="fill:#666666;stroke:#666666;" x="210.651136" xlink:href="#m3dbee75314" y="231.872071"/>
     <use style="fill:#666666;stroke:#666666;" x="211.54147" xlink:href="#m3dbee75314" y="244.961314"/>
     <use style="fill:#666666;stroke:#666666;" x="212.431804" xlink:href="#m3dbee75314" y="241.777903"/>
     <use style="fill:#666666;stroke:#666666;" x="213.322138" xlink:href="#m3dbee75314" y="255.679579"/>
     <use style="fill:#666666;stroke:#666666;" x="214.212472" xlink:href="#m3dbee75314" y="255.104527"/>
     <use style="fill:#666666;stroke:#666666;" x="215.102806" xlink:href="#m3dbee75314" y="253.894795"/>
     <use style="fill:#666666;stroke:#666666;" x="215.99314" xlink:href="#m3dbee75314" y="256.864306"/>
     <use style="fill:#666666;stroke:#666666;" x="216.883474" xlink:href="#m3dbee75314" y="244.075841"/>
     <use style="fill:#666666;stroke:#666666;" x="217.773808" xlink:href="#m3dbee75314" y="245.592388"/>
     <use style="fill:#666666;stroke:#666666;" x="218.664143" xlink:href="#m3dbee75314" y="230.613611"/>
     <use style="fill:#666666;stroke:#666666;" x="219.554477" xlink:href="#m3dbee75314" y="190.398629"/>
     <use style="fill:#666666;stroke:#666666;" x="220.444811" xlink:href="#m3dbee75314" y="229.488316"/>
     <use style="fill:#666666;stroke:#666666;" x="221.335145" xlink:href="#m3dbee75314" y="252.300499"/>
     <use style="fill:#666666;stroke:#666666;" x="222.225479" xlink:href="#m3dbee75314" y="268.080837"/>
     <use style="fill:#666666;stroke:#666666;" x="223.115813" xlink:href="#m3dbee75314" y="270.974606"/>
     <use style="fill:#666666;stroke:#666666;" x="224.006147" xlink:href="#m3dbee75314" y="270.811218"/>
     <use style="fill:#666666;stroke:#666666;" x="224.896481" xlink:href="#m3dbee75314" y="270.117405"/>
     <use style="fill:#666666;stroke:#666666;" x="225.786815" xlink:href="#m3dbee75314" y="263.402471"/>
     <use style="fill:#666666;stroke:#666666;" x="226.677149" xlink:href="#m3dbee75314" y="266.14623"/>
     <use style="fill:#666666;stroke:#666666;" x="227.567483" xlink:href="#m3dbee75314" y="251.304105"/>
     <use style="fill:#666666;stroke:#666666;" x="228.457817" xlink:href="#m3dbee75314" y="225.005895"/>
     <use style="fill:#666666;stroke:#666666;" x="229.348151" xlink:href="#m3dbee75314" y="148.688236"/>
     <use style="fill:#666666;stroke:#666666;" x="230.238486" xlink:href="#m3dbee75314" y="185.693629"/>
     <use style="fill:#666666;stroke:#666666;" x="231.12882" xlink:href="#m3dbee75314" y="207.3648"/>
     <use style="fill:#666666;stroke:#666666;" x="232.019154" xlink:href="#m3dbee75314" y="245.946911"/>
     <use style="fill:#666666;stroke:#666666;" x="232.909488" xlink:href="#m3dbee75314" y="270.049341"/>
     <use style="fill:#666666;stroke:#666666;" x="233.799822" xlink:href="#m3dbee75314" y="269.400965"/>
     <use style="fill:#666666;stroke:#666666;" x="234.690156" xlink:href="#m3dbee75314" y="271.341032"/>
     <use style="fill:#666666;stroke:#666666;" x="235.58049" xlink:href="#m3dbee75314" y="271.423404"/>
     <use style="fill:#666666;stroke:#666666;" x="236.470824" xlink:href="#m3dbee75314" y="264.044976"/>
     <use style="fill:#666666;stroke:#666666;" x="237.361158" xlink:href="#m3dbee75314" y="251.797548"/>
     <use style="fill:#666666;stroke:#666666;" x="238.251492" xlink:href="#m3dbee75314" y="233.10836"/>
     <use style="fill:#666666;stroke:#666666;" x="239.141826" xlink:href="#m3dbee75314" y="194.20532"/>
     <use style="fill:#666666;stroke:#666666;" x="240.03216" xlink:href="#m3dbee75314" y="166.744158"/>
     <use style="fill:#666666;stroke:#666666;" x="240.922494" xlink:href="#m3dbee75314" y="145.46787"/>
     <use style="fill:#666666;stroke:#666666;" x="241.812829" xlink:href="#m3dbee75314" y="203.321491"/>
     <use style="fill:#666666;stroke:#666666;" x="242.703163" xlink:href="#m3dbee75314" y="206.481541"/>
     <use style="fill:#666666;stroke:#666666;" x="243.593497" xlink:href="#m3dbee75314" y="216.862537"/>
     <use style="fill:#666666;stroke:#666666;" x="244.483831" xlink:href="#m3dbee75314" y="223.721338"/>
     <use style="fill:#666666;stroke:#666666;" x="245.374165" xlink:href="#m3dbee75314" y="231.198432"/>
     <use style="fill:#666666;stroke:#666666;" x="246.264499" xlink:href="#m3dbee75314" y="229.955525"/>
     <use style="fill:#666666;stroke:#666666;" x="247.154833" xlink:href="#m3dbee75314" y="226.574812"/>
     <use style="fill:#666666;stroke:#666666;" x="248.045167" xlink:href="#m3dbee75314" y="231.10388"/>
     <use style="fill:#666666;stroke:#666666;" x="248.935501" xlink:href="#m3dbee75314" y="229.307044"/>
     <use style="fill:#666666;stroke:#666666;" x="249.825835" xlink:href="#m3dbee75314" y="232.982495"/>
     <use style="fill:#666666;stroke:#666666;" x="250.716169" xlink:href="#m3dbee75314" y="230.733913"/>
     <use style="fill:#666666;stroke:#666666;" x="251.606503" xlink:href="#m3dbee75314" y="236.878146"/>
     <use style="fill:#666666;stroke:#666666;" x="252.496837" xlink:href="#m3dbee75314" y="236.219669"/>
     <use style="fill:#666666;stroke:#666666;" x="253.387171" xlink:href="#m3dbee75314" y="224.929255"/>
     <use style="fill:#666666;stroke:#666666;" x="254.277506" xlink:href="#m3dbee75314" y="215.138096"/>
     <use style="fill:#666666;stroke:#666666;" x="255.16784" xlink:href="#m3dbee75314" y="231.669677"/>
     <use style="fill:#666666;stroke:#666666;" x="256.058174" xlink:href="#m3dbee75314" y="185.684461"/>
     <use style="fill:#666666;stroke:#666666;" x="256.948508" xlink:href="#m3dbee75314" y="247.828025"/>
     <use style="fill:#666666;stroke:#666666;" x="257.838842" xlink:href="#m3dbee75314" y="211.446671"/>
     <use style="fill:#666666;stroke:#666666;" x="258.729176" xlink:href="#m3dbee75314" y="239.196285"/>
     <use style="fill:#666666;stroke:#666666;" x="259.61951" xlink:href="#m3dbee75314" y="253.035844"/>
     <use style="fill:#666666;stroke:#666666;" x="260.509844" xlink:href="#m3dbee75314" y="258.196759"/>
     <use style="fill:#666666;stroke:#666666;" x="261.400178" xlink:href="#m3dbee75314" y="244.714791"/>
     <use style="fill:#666666;stroke:#666666;" x="262.290512" xlink:href="#m3dbee75314" y="254.652094"/>
     <use style="fill:#666666;stroke:#666666;" x="263.180846" xlink:href="#m3dbee75314" y="272.908571"/>
     <use style="fill:#666666;stroke:#666666;" x="264.07118" xlink:href="#m3dbee75314" y="271.997871"/>
     <use style="fill:#666666;stroke:#666666;" x="264.961514" xlink:href="#m3dbee75314" y="249.673502"/>
     <use style="fill:#666666;stroke:#666666;" x="265.851849" xlink:href="#m3dbee75314" y="238.146389"/>
     <use style="fill:#666666;stroke:#666666;" x="266.742183" xlink:href="#m3dbee75314" y="204.677282"/>
     <use style="fill:#666666;stroke:#666666;" x="267.632517" xlink:href="#m3dbee75314" y="132.057892"/>
     <use style="fill:#666666;stroke:#666666;" x="268.522851" xlink:href="#m3dbee75314" y="128.621095"/>
     <use style="fill:#666666;stroke:#666666;" x="269.413185" xlink:href="#m3dbee75314" y="194.737654"/>
     <use style="fill:#666666;stroke:#666666;" x="270.303519" xlink:href="#m3dbee75314" y="250.573188"/>
     <use style="fill:#666666;stroke:#666666;" x="271.193853" xlink:href="#m3dbee75314" y="266.480787"/>
     <use style="fill:#666666;stroke:#666666;" x="272.084187" xlink:href="#m3dbee75314" y="271.670968"/>
     <use style="fill:#666666;stroke:#666666;" x="272.974521" xlink:href="#m3dbee75314" y="272.057632"/>
     <use style="fill:#666666;stroke:#666666;" x="273.864855" xlink:href="#m3dbee75314" y="272.628308"/>
     <use style="fill:#666666;stroke:#666666;" x="274.755189" xlink:href="#m3dbee75314" y="272.467298"/>
     <use style="fill:#666666;stroke:#666666;" x="275.645523" xlink:href="#m3dbee75314" y="256.525443"/>
     <use style="fill:#666666;stroke:#666666;" x="276.535857" xlink:href="#m3dbee75314" y="232.806586"/>
     <use style="fill:#666666;stroke:#666666;" x="277.426192" xlink:href="#m3dbee75314" y="233.409853"/>
     <use style="fill:#666666;stroke:#666666;" x="278.316526" xlink:href="#m3dbee75314" y="232.186904"/>
     <use style="fill:#666666;stroke:#666666;" x="279.20686" xlink:href="#m3dbee75314" y="233.316563"/>
     <use style="fill:#666666;stroke:#666666;" x="280.097194" xlink:href="#m3dbee75314" y="246.563844"/>
     <use style="fill:#666666;stroke:#666666;" x="280.987528" xlink:href="#m3dbee75314" y="259.062617"/>
     <use style="fill:#666666;stroke:#666666;" x="281.877862" xlink:href="#m3dbee75314" y="247.098736"/>
     <use style="fill:#666666;stroke:#666666;" x="282.768196" xlink:href="#m3dbee75314" y="234.482217"/>
     <use style="fill:#666666;stroke:#666666;" x="283.65853" xlink:href="#m3dbee75314" y="244.394533"/>
     <use style="fill:#666666;stroke:#666666;" x="284.548864" xlink:href="#m3dbee75314" y="244.617152"/>
     <use style="fill:#666666;stroke:#666666;" x="285.439198" xlink:href="#m3dbee75314" y="219.11894"/>
     <use style="fill:#666666;stroke:#666666;" x="286.329532" xlink:href="#m3dbee75314" y="164.667567"/>
     <use style="fill:#666666;stroke:#666666;" x="287.219866" xlink:href="#m3dbee75314" y="168.790484"/>
     <use style="fill:#666666;stroke:#666666;" x="288.1102" xlink:href="#m3dbee75314" y="186.80592"/>
     <use style="fill:#666666;stroke:#666666;" x="289.000535" xlink:href="#m3dbee75314" y="211.833324"/>
     <use style="fill:#666666;stroke:#666666;" x="289.890869" xlink:href="#m3dbee75314" y="200.36507"/>
     <use style="fill:#666666;stroke:#666666;" x="290.781203" xlink:href="#m3dbee75314" y="129.043339"/>
     <use style="fill:#666666;stroke:#666666;" x="291.671537" xlink:href="#m3dbee75314" y="230.319562"/>
     <use style="fill:#666666;stroke:#666666;" x="292.561871" xlink:href="#m3dbee75314" y="245.72753"/>
     <use style="fill:#666666;stroke:#666666;" x="293.452205" xlink:href="#m3dbee75314" y="254.3269"/>
     <use style="fill:#666666;stroke:#666666;" x="294.342539" xlink:href="#m3dbee75314" y="254.292672"/>
     <use style="fill:#666666;stroke:#666666;" x="295.232873" xlink:href="#m3dbee75314" y="260.887858"/>
     <use style="fill:#666666;stroke:#666666;" x="296.123207" xlink:href="#m3dbee75314" y="274.000785"/>
     <use style="fill:#666666;stroke:#666666;" x="297.013541" xlink:href="#m3dbee75314" y="274.505542"/>
     <use style="fill:#666666;stroke:#666666;" x="297.903875" xlink:href="#m3dbee75314" y="274.938313"/>
     <use style="fill:#666666;stroke:#666666;" x="298.794209" xlink:href="#m3dbee75314" y="274.32801"/>
     <use style="fill:#666666;stroke:#666666;" x="299.684543" xlink:href="#m3dbee75314" y="274.59392"/>
     <use style="fill:#666666;stroke:#666666;" x="300.574878" xlink:href="#m3dbee75314" y="274.979592"/>
     <use style="fill:#666666;stroke:#666666;" x="301.465212" xlink:href="#m3dbee75314" y="275.323636"/>
     <use style="fill:#666666;stroke:#666666;" x="302.355546" xlink:href="#m3dbee75314" y="270.33733"/>
     <use style="fill:#666666;stroke:#666666;" x="303.24588" xlink:href="#m3dbee75314" y="273.50465"/>
     <use style="fill:#666666;stroke:#666666;" x="304.136214" xlink:href="#m3dbee75314" y="271.783972"/>
     <use style="fill:#666666;stroke:#666666;" x="305.026548" xlink:href="#m3dbee75314" y="252.178523"/>
     <use style="fill:#666666;stroke:#666666;" x="305.916882" xlink:href="#m3dbee75314" y="274.863162"/>
     <use style="fill:#666666;stroke:#666666;" x="306.807216" xlink:href="#m3dbee75314" y="274.981296"/>
     <use style="fill:#666666;stroke:#666666;" x="307.69755" xlink:href="#m3dbee75314" y="274.934259"/>
     <use style="fill:#666666;stroke:#666666;" x="308.587884" xlink:href="#m3dbee75314" y="269.259011"/>
     <use style="fill:#666666;stroke:#666666;" x="309.478218" xlink:href="#m3dbee75314" y="262.973182"/>
     <use style="fill:#666666;stroke:#666666;" x="310.368552" xlink:href="#m3dbee75314" y="249.951693"/>
     <use style="fill:#666666;stroke:#666666;" x="311.258886" xlink:href="#m3dbee75314" y="238.384895"/>
     <use style="fill:#666666;stroke:#666666;" x="312.14922" xlink:href="#m3dbee75314" y="203.898255"/>
     <use style="fill:#666666;stroke:#666666;" x="313.039555" xlink:href="#m3dbee75314" y="223.791213"/>
     <use style="fill:#666666;stroke:#666666;" x="313.929889" xlink:href="#m3dbee75314" y="240.230199"/>
     <use style="fill:#666666;stroke:#666666;" x="314.820223" xlink:href="#m3dbee75314" y="234.675831"/>
     <use style="fill:#666666;stroke:#666666;" x="315.710557" xlink:href="#m3dbee75314" y="216.746885"/>
     <use style="fill:#666666;stroke:#666666;" x="316.600891" xlink:href="#m3dbee75314" y="234.514559"/>
     <use style="fill:#666666;stroke:#666666;" x="317.491225" xlink:href="#m3dbee75314" y="248.030081"/>
     <use style="fill:#666666;stroke:#666666;" x="318.381559" xlink:href="#m3dbee75314" y="240.242885"/>
     <use style="fill:#666666;stroke:#666666;" x="319.271893" xlink:href="#m3dbee75314" y="262.666833"/>
     <use style="fill:#666666;stroke:#666666;" x="320.162227" xlink:href="#m3dbee75314" y="243.613146"/>
     <use style="fill:#666666;stroke:#666666;" x="321.052561" xlink:href="#m3dbee75314" y="253.351926"/>
     <use style="fill:#666666;stroke:#666666;" x="321.942895" xlink:href="#m3dbee75314" y="261.569041"/>
     <use style="fill:#666666;stroke:#666666;" x="322.833229" xlink:href="#m3dbee75314" y="256.135985"/>
     <use style="fill:#666666;stroke:#666666;" x="323.723563" xlink:href="#m3dbee75314" y="240.797932"/>
     <use style="fill:#666666;stroke:#666666;" x="324.613898" xlink:href="#m3dbee75314" y="243.986407"/>
     <use style="fill:#666666;stroke:#666666;" x="325.504232" xlink:href="#m3dbee75314" y="221.98784"/>
     <use style="fill:#666666;stroke:#666666;" x="326.394566" xlink:href="#m3dbee75314" y="201.724511"/>
     <use style="fill:#666666;stroke:#666666;" x="327.2849" xlink:href="#m3dbee75314" y="217.651187"/>
     <use style="fill:#666666;stroke:#666666;" x="328.175234" xlink:href="#m3dbee75314" y="250.268297"/>
     <use style="fill:#666666;stroke:#666666;" x="329.065568" xlink:href="#m3dbee75314" y="261.739684"/>
     <use style="fill:#666666;stroke:#666666;" x="329.955902" xlink:href="#m3dbee75314" y="254.844721"/>
     <use style="fill:#666666;stroke:#666666;" x="330.846236" xlink:href="#m3dbee75314" y="259.505601"/>
     <use style="fill:#666666;stroke:#666666;" x="331.73657" xlink:href="#m3dbee75314" y="229.539979"/>
     <use style="fill:#666666;stroke:#666666;" x="332.626904" xlink:href="#m3dbee75314" y="222.663161"/>
     <use style="fill:#666666;stroke:#666666;" x="333.517238" xlink:href="#m3dbee75314" y="218.052055"/>
     <use style="fill:#666666;stroke:#666666;" x="334.407572" xlink:href="#m3dbee75314" y="189.66446"/>
     <use style="fill:#666666;stroke:#666666;" x="335.297906" xlink:href="#m3dbee75314" y="209.518095"/>
     <use style="fill:#666666;stroke:#666666;" x="336.188241" xlink:href="#m3dbee75314" y="188.812541"/>
     <use style="fill:#666666;stroke:#666666;" x="337.078575" xlink:href="#m3dbee75314" y="193.734937"/>
     <use style="fill:#666666;stroke:#666666;" x="337.968909" xlink:href="#m3dbee75314" y="209.66045"/>
     <use style="fill:#666666;stroke:#666666;" x="338.859243" xlink:href="#m3dbee75314" y="208.284366"/>
     <use style="fill:#666666;stroke:#666666;" x="339.749577" xlink:href="#m3dbee75314" y="211.513529"/>
     <use style="fill:#666666;stroke:#666666;" x="340.639911" xlink:href="#m3dbee75314" y="200.867843"/>
     <use style="fill:#666666;stroke:#666666;" x="341.530245" xlink:href="#m3dbee75314" y="213.753539"/>
     <use style="fill:#666666;stroke:#666666;" x="342.420579" xlink:href="#m3dbee75314" y="207.201499"/>
     <use style="fill:#666666;stroke:#666666;" x="343.310913" xlink:href="#m3dbee75314" y="233.219434"/>
     <use style="fill:#666666;stroke:#666666;" x="344.201247" xlink:href="#m3dbee75314" y="220.428046"/>
     <use style="fill:#666666;stroke:#666666;" x="345.091581" xlink:href="#m3dbee75314" y="144.807125"/>
     <use style="fill:#666666;stroke:#666666;" x="345.981915" xlink:href="#m3dbee75314" y="151.810324"/>
     <use style="fill:#666666;stroke:#666666;" x="346.872249" xlink:href="#m3dbee75314" y="128.533456"/>
     <use style="fill:#666666;stroke:#666666;" x="347.762584" xlink:href="#m3dbee75314" y="123.942767"/>
     <use style="fill:#666666;stroke:#666666;" x="348.652918" xlink:href="#m3dbee75314" y="142.91579"/>
     <use style="fill:#666666;stroke:#666666;" x="349.543252" xlink:href="#m3dbee75314" y="134.051332"/>
     <use style="fill:#666666;stroke:#666666;" x="350.433586" xlink:href="#m3dbee75314" y="161.954536"/>
     <use style="fill:#666666;stroke:#666666;" x="351.32392" xlink:href="#m3dbee75314" y="150.129213"/>
     <use style="fill:#666666;stroke:#666666;" x="352.214254" xlink:href="#m3dbee75314" y="224.905427"/>
     <use style="fill:#666666;stroke:#666666;" x="353.104588" xlink:href="#m3dbee75314" y="258.910905"/>
     <use style="fill:#666666;stroke:#666666;" x="353.994922" xlink:href="#m3dbee75314" y="271.629666"/>
     <use style="fill:#666666;stroke:#666666;" x="354.885256" xlink:href="#m3dbee75314" y="267.59467"/>
     <use style="fill:#666666;stroke:#666666;" x="355.77559" xlink:href="#m3dbee75314" y="268.906585"/>
     <use style="fill:#666666;stroke:#666666;" x="356.665924" xlink:href="#m3dbee75314" y="250.29036"/>
     <use style="fill:#666666;stroke:#666666;" x="357.556258" xlink:href="#m3dbee75314" y="241.27591"/>
     <use style="fill:#666666;stroke:#666666;" x="358.446592" xlink:href="#m3dbee75314" y="241.847965"/>
     <use style="fill:#666666;stroke:#666666;" x="359.336927" xlink:href="#m3dbee75314" y="253.221317"/>
     <use style="fill:#666666;stroke:#666666;" x="360.227261" xlink:href="#m3dbee75314" y="238.710213"/>
     <use style="fill:#666666;stroke:#666666;" x="361.117595" xlink:href="#m3dbee75314" y="234.255176"/>
     <use style="fill:#666666;stroke:#666666;" x="362.007929" xlink:href="#m3dbee75314" y="215.853895"/>
     <use style="fill:#666666;stroke:#666666;" x="362.898263" xlink:href="#m3dbee75314" y="172.6266"/>
     <use style="fill:#666666;stroke:#666666;" x="363.788597" xlink:href="#m3dbee75314" y="220.149613"/>
     <use style="fill:#666666;stroke:#666666;" x="364.678931" xlink:href="#m3dbee75314" y="215.292546"/>
     <use style="fill:#666666;stroke:#666666;" x="365.569265" xlink:href="#m3dbee75314" y="241.196952"/>
     <use style="fill:#666666;stroke:#666666;" x="366.459599" xlink:href="#m3dbee75314" y="237.366062"/>
     <use style="fill:#666666;stroke:#666666;" x="367.349933" xlink:href="#m3dbee75314" y="260.441788"/>
     <use style="fill:#666666;stroke:#666666;" x="368.240267" xlink:href="#m3dbee75314" y="255.967794"/>
     <use style="fill:#666666;stroke:#666666;" x="369.130601" xlink:href="#m3dbee75314" y="260.738142"/>
     <use style="fill:#666666;stroke:#666666;" x="370.020935" xlink:href="#m3dbee75314" y="262.262196"/>
     <use style="fill:#666666;stroke:#666666;" x="370.911269" xlink:href="#m3dbee75314" y="263.923545"/>
     <use style="fill:#666666;stroke:#666666;" x="371.801604" xlink:href="#m3dbee75314" y="257.84837"/>
     <use style="fill:#666666;stroke:#666666;" x="372.691938" xlink:href="#m3dbee75314" y="260.255408"/>
     <use style="fill:#666666;stroke:#666666;" x="373.582272" xlink:href="#m3dbee75314" y="273.261876"/>
     <use style="fill:#666666;stroke:#666666;" x="374.472606" xlink:href="#m3dbee75314" y="273.604022"/>
     <use style="fill:#666666;stroke:#666666;" x="375.36294" xlink:href="#m3dbee75314" y="273.435069"/>
     <use style="fill:#666666;stroke:#666666;" x="376.253274" xlink:href="#m3dbee75314" y="268.818869"/>
     <use style="fill:#666666;stroke:#666666;" x="377.143608" xlink:href="#m3dbee75314" y="271.690724"/>
     <use style="fill:#666666;stroke:#666666;" x="378.033942" xlink:href="#m3dbee75314" y="265.879936"/>
     <use style="fill:#666666;stroke:#666666;" x="378.924276" xlink:href="#m3dbee75314" y="251.569396"/>
     <use style="fill:#666666;stroke:#666666;" x="379.81461" xlink:href="#m3dbee75314" y="237.81053"/>
     <use style="fill:#666666;stroke:#666666;" x="380.704944" xlink:href="#m3dbee75314" y="197.891721"/>
     <use style="fill:#666666;stroke:#666666;" x="381.595278" xlink:href="#m3dbee75314" y="178.086361"/>
     <use style="fill:#666666;stroke:#666666;" x="382.485612" xlink:href="#m3dbee75314" y="201.089484"/>
     <use style="fill:#666666;stroke:#666666;" x="383.375947" xlink:href="#m3dbee75314" y="175.509749"/>
     <use style="fill:#666666;stroke:#666666;" x="384.266281" xlink:href="#m3dbee75314" y="174.114571"/>
     <use style="fill:#666666;stroke:#666666;" x="385.156615" xlink:href="#m3dbee75314" y="203.168842"/>
     <use style="fill:#666666;stroke:#666666;" x="386.046949" xlink:href="#m3dbee75314" y="176.98985"/>
     <use style="fill:#666666;stroke:#666666;" x="386.937283" xlink:href="#m3dbee75314" y="162.562184"/>
     <use style="fill:#666666;stroke:#666666;" x="387.827617" xlink:href="#m3dbee75314" y="166.314779"/>
     <use style="fill:#666666;stroke:#666666;" x="388.717951" xlink:href="#m3dbee75314" y="203.650874"/>
     <use style="fill:#666666;stroke:#666666;" x="389.608285" xlink:href="#m3dbee75314" y="222.202386"/>
     <use style="fill:#666666;stroke:#666666;" x="390.498619" xlink:href="#m3dbee75314" y="238.903229"/>
     <use style="fill:#666666;stroke:#666666;" x="391.388953" xlink:href="#m3dbee75314" y="242.180985"/>
     <use style="fill:#666666;stroke:#666666;" x="392.279287" xlink:href="#m3dbee75314" y="227.616909"/>
     <use style="fill:#666666;stroke:#666666;" x="393.169621" xlink:href="#m3dbee75314" y="243.190245"/>
     <use style="fill:#666666;stroke:#666666;" x="394.059955" xlink:href="#m3dbee75314" y="239.539345"/>
     <use style="fill:#666666;stroke:#666666;" x="394.95029" xlink:href="#m3dbee75314" y="224.800054"/>
     <use style="fill:#666666;stroke:#666666;" x="395.840624" xlink:href="#m3dbee75314" y="212.659673"/>
     <use style="fill:#666666;stroke:#666666;" x="396.730958" xlink:href="#m3dbee75314" y="205.406202"/>
     <use style="fill:#666666;stroke:#666666;" x="397.621292" xlink:href="#m3dbee75314" y="202.688992"/>
     <use style="fill:#666666;stroke:#666666;" x="398.511626" xlink:href="#m3dbee75314" y="207.16783"/>
     <use style="fill:#666666;stroke:#666666;" x="399.40196" xlink:href="#m3dbee75314" y="226.718677"/>
     <use style="fill:#666666;stroke:#666666;" x="400.292294" xlink:href="#m3dbee75314" y="227.704883"/>
     <use style="fill:#666666;stroke:#666666;" x="401.182628" xlink:href="#m3dbee75314" y="215.950589"/>
     <use style="fill:#666666;stroke:#666666;" x="402.072962" xlink:href="#m3dbee75314" y="218.393282"/>
     <use style="fill:#666666;stroke:#666666;" x="402.963296" xlink:href="#m3dbee75314" y="242.070736"/>
     <use style="fill:#666666;stroke:#666666;" x="403.85363" xlink:href="#m3dbee75314" y="198.487812"/>
     <use style="fill:#666666;stroke:#666666;" x="404.743964" xlink:href="#m3dbee75314" y="205.899723"/>
     <use style="fill:#666666;stroke:#666666;" x="405.634298" xlink:href="#m3dbee75314" y="213.108695"/>
     <use style="fill:#666666;stroke:#666666;" x="406.524633" xlink:href="#m3dbee75314" y="233.799557"/>
     <use style="fill:#666666;stroke:#666666;" x="407.414967" xlink:href="#m3dbee75314" y="241.147064"/>
     <use style="fill:#666666;stroke:#666666;" x="408.305301" xlink:href="#m3dbee75314" y="241.202043"/>
     <use style="fill:#666666;stroke:#666666;" x="409.195635" xlink:href="#m3dbee75314" y="255.138242"/>
     <use style="fill:#666666;stroke:#666666;" x="410.085969" xlink:href="#m3dbee75314" y="273.387692"/>
     <use style="fill:#666666;stroke:#666666;" x="410.976303" xlink:href="#m3dbee75314" y="272.796745"/>
     <use style="fill:#666666;stroke:#666666;" x="411.866637" xlink:href="#m3dbee75314" y="263.482321"/>
     <use style="fill:#666666;stroke:#666666;" x="412.756971" xlink:href="#m3dbee75314" y="273.502722"/>
     <use style="fill:#666666;stroke:#666666;" x="413.647305" xlink:href="#m3dbee75314" y="259.743263"/>
     <use style="fill:#666666;stroke:#666666;" x="414.537639" xlink:href="#m3dbee75314" y="256.329487"/>
     <use style="fill:#666666;stroke:#666666;" x="415.427973" xlink:href="#m3dbee75314" y="263.486354"/>
     <use style="fill:#666666;stroke:#666666;" x="416.318307" xlink:href="#m3dbee75314" y="273.236229"/>
     <use style="fill:#666666;stroke:#666666;" x="417.208641" xlink:href="#m3dbee75314" y="261.23721"/>
     <use style="fill:#666666;stroke:#666666;" x="418.098976" xlink:href="#m3dbee75314" y="245.626042"/>
     <use style="fill:#666666;stroke:#666666;" x="418.98931" xlink:href="#m3dbee75314" y="233.726513"/>
     <use style="fill:#666666;stroke:#666666;" x="419.879644" xlink:href="#m3dbee75314" y="211.604956"/>
     <use style="fill:#666666;stroke:#666666;" x="420.769978" xlink:href="#m3dbee75314" y="212.066131"/>
     <use style="fill:#666666;stroke:#666666;" x="421.660312" xlink:href="#m3dbee75314" y="208.627472"/>
     <use style="fill:#666666;stroke:#666666;" x="422.550646" xlink:href="#m3dbee75314" y="226.815872"/>
     <use style="fill:#666666;stroke:#666666;" x="423.44098" xlink:href="#m3dbee75314" y="209.066196"/>
     <use style="fill:#666666;stroke:#666666;" x="424.331314" xlink:href="#m3dbee75314" y="220.473264"/>
     <use style="fill:#666666;stroke:#666666;" x="425.221648" xlink:href="#m3dbee75314" y="274.218786"/>
     <use style="fill:#666666;stroke:#666666;" x="426.111982" xlink:href="#m3dbee75314" y="274.714475"/>
     <use style="fill:#666666;stroke:#666666;" x="427.002316" xlink:href="#m3dbee75314" y="274.781787"/>
     <use style="fill:#666666;stroke:#666666;" x="427.89265" xlink:href="#m3dbee75314" y="274.571141"/>
     <use style="fill:#666666;stroke:#666666;" x="428.782984" xlink:href="#m3dbee75314" y="273.545519"/>
     <use style="fill:#666666;stroke:#666666;" x="429.673318" xlink:href="#m3dbee75314" y="263.973818"/>
     <use style="fill:#666666;stroke:#666666;" x="430.563653" xlink:href="#m3dbee75314" y="274.107433"/>
     <use style="fill:#666666;stroke:#666666;" x="431.453987" xlink:href="#m3dbee75314" y="264.111503"/>
     <use style="fill:#666666;stroke:#666666;" x="432.344321" xlink:href="#m3dbee75314" y="252.332288"/>
     <use style="fill:#666666;stroke:#666666;" x="433.234655" xlink:href="#m3dbee75314" y="251.736122"/>
     <use style="fill:#666666;stroke:#666666;" x="434.124989" xlink:href="#m3dbee75314" y="233.700336"/>
     <use style="fill:#666666;stroke:#666666;" x="435.015323" xlink:href="#m3dbee75314" y="215.019858"/>
     <use style="fill:#666666;stroke:#666666;" x="435.905657" xlink:href="#m3dbee75314" y="200.619039"/>
     <use style="fill:#666666;stroke:#666666;" x="436.795991" xlink:href="#m3dbee75314" y="169.322769"/>
     <use style="fill:#666666;stroke:#666666;" x="437.686325" xlink:href="#m3dbee75314" y="161.462919"/>
     <use style="fill:#666666;stroke:#666666;" x="438.576659" xlink:href="#m3dbee75314" y="153.667773"/>
     <use style="fill:#666666;stroke:#666666;" x="439.466993" xlink:href="#m3dbee75314" y="182.973915"/>
     <use style="fill:#666666;stroke:#666666;" x="440.357327" xlink:href="#m3dbee75314" y="227.929373"/>
     <use style="fill:#666666;stroke:#666666;" x="441.247661" xlink:href="#m3dbee75314" y="218.297718"/>
     <use style="fill:#666666;stroke:#666666;" x="442.137996" xlink:href="#m3dbee75314" y="233.850079"/>
     <use style="fill:#666666;stroke:#666666;" x="443.02833" xlink:href="#m3dbee75314" y="206.527861"/>
     <use style="fill:#666666;stroke:#666666;" x="443.918664" xlink:href="#m3dbee75314" y="185.463312"/>
     <use style="fill:#666666;stroke:#666666;" x="444.808998" xlink:href="#m3dbee75314" y="204.4882"/>
     <use style="fill:#666666;stroke:#666666;" x="445.699332" xlink:href="#m3dbee75314" y="236.934061"/>
     <use style="fill:#666666;stroke:#666666;" x="446.589666" xlink:href="#m3dbee75314" y="239.755617"/>
     <use style="fill:#666666;stroke:#666666;" x="447.48" xlink:href="#m3dbee75314" y="222.061035"/>
    </g>
   </g>
   <g id="patch_3">
    <path d="M 47.72 287.8 
L 47.72 13.32 
" style="fill:none;stroke:#000000;stroke-linecap:square;stroke-linejoin:miter;stroke-width:0.8;"/>
   </g>
   <g id="patch_4">
    <path d="M 447.48 287.8 
L 447.48 13.32 
" style="fill:none;stroke:#000000;stroke-linecap:square;stroke-linejoin:miter;stroke-width:0.8;"/>
   </g>
   <g id="patch_5">
    <path d="M 47.72 287.8 
L 447.48 287.8 
" style="fill:none;stroke:#000000;stroke-linecap:square;stroke-linejoin:miter;stroke-width:0.8;"/>
   </g>
   <g id="patch_6">
    <path d="M 47.72 13.32 
L 447.48 13.32 
" style="fill:none;stroke:#000000;stroke-linecap:square;stroke-linejoin:miter;stroke-width:0.8;"/>
   </g>
  </g>
 </g>
 <defs>
  <clipPath id="p634cd640a9">
   <rect height="274.48" width="399.76" x="47.72" y="13.32"/>
  </clipPath>
 </defs>
</svg>
