<?xml version="1.0" encoding="utf-8" standalone="no"?>
<!DOCTYPE svg PUBLIC "-//W3C//DTD SVG 1.1//EN"
  "http://www.w3.org/Graphics/SVG/1.1/DTD/svg11.dtd">
<!-- Created with matplotlib (http://matplotlib.org/) -->
<svg height="345.6pt" version="1.1" viewBox="0 0 460.8 345.6" width="460.8pt" xmlns="http://www.w3.org/2000/svg" xmlns:xlink="http://www.w3.org/1999/xlink">
 <defs>
  <style type="text/css">
*{stroke-linecap:butt;stroke-linejoin:round;}
  </style>
 </defs>
 <g id="figure_1">
  <g id="patch_1">
   <path d="M 0 345.6 
L 460.8 345.6 
L 460.8 0 
L 0 0 
z
" style="fill:#ffffff;"/>
  </g>
  <g id="axes_1">
   <g id="patch_2">
    <path d="M 38.27 287.8 
L 447.48 287.8 
L 447.48 13.32 
L 38.27 13.32 
z
" style="fill:#ffffff;"/>
   </g>
   <g id="matplotlib.axis_1">
    <g id="xtick_1">
     <g id="line2d_1">
      <defs>
       <path d="M 0 0 
L 0 3.5 
" id="m0ddde602f3" style="stroke:#000000;stroke-width:0.8;"/>
      </defs>
      <g>
       <use style="stroke:#000000;stroke-width:0.8;" x="38.27" xlink:href="#m0ddde602f3" y="287.8"/>
      </g>
     </g>
     <g id="text_1">
      <!-- A87 -->
      <defs>
       <path d="M 34.1875 63.1875 
L 20.796875 26.90625 
L 47.609375 26.90625 
z
M 28.609375 72.90625 
L 39.796875 72.90625 
L 67.578125 0 
L 57.328125 0 
L 50.6875 18.703125 
L 17.828125 18.703125 
L 11.1875 0 
L 0.78125 0 
z
" id="DejaVuSans-41"/>
       <path d="M 31.78125 34.625 
Q 24.75 34.625 20.71875 30.859375 
Q 16.703125 27.09375 16.703125 20.515625 
Q 16.703125 13.921875 20.71875 10.15625 
Q 24.75 6.390625 31.78125 6.390625 
Q 38.8125 6.390625 42.859375 10.171875 
Q 46.921875 13.96875 46.921875 20.515625 
Q 46.921875 27.09375 42.890625 30.859375 
Q 38.875 34.625 31.78125 34.625 
z
M 21.921875 38.8125 
Q 15.578125 40.375 12.03125 44.71875 
Q 8.5 49.078125 8.5 55.328125 
Q 8.5 64.0625 14.71875 69.140625 
Q 20.953125 74.21875 31.78125 74.21875 
Q 42.671875 74.21875 48.875 69.140625 
Q 55.078125 64.0625 55.078125 55.328125 
Q 55.078125 49.078125 51.53125 44.71875 
Q 48 40.375 41.703125 38.8125 
Q 48.828125 37.15625 52.796875 32.3125 
Q 56.78125 27.484375 56.78125 20.515625 
Q 56.78125 9.90625 50.3125 4.234375 
Q 43.84375 -1.421875 31.78125 -1.421875 
Q 19.734375 -1.421875 13.25 4.234375 
Q 6.78125 9.90625 6.78125 20.515625 
Q 6.78125 27.484375 10.78125 32.3125 
Q 14.796875 37.15625 21.921875 38.8125 
z
M 18.3125 54.390625 
Q 18.3125 48.734375 21.84375 45.5625 
Q 25.390625 42.390625 31.78125 42.390625 
Q 38.140625 42.390625 41.71875 45.5625 
Q 45.3125 48.734375 45.3125 54.390625 
Q 45.3125 60.0625 41.71875 63.234375 
Q 38.140625 66.40625 31.78125 66.40625 
Q 25.390625 66.40625 21.84375 63.234375 
Q 18.3125 60.0625 18.3125 54.390625 
z
" id="DejaVuSans-38"/>
       <path d="M 8.203125 72.90625 
L 55.078125 72.90625 
L 55.078125 68.703125 
L 28.609375 0 
L 18.3125 0 
L 43.21875 64.59375 
L 8.203125 64.59375 
z
" id="DejaVuSans-37"/>
      </defs>
      <g transform="translate(41.029375 314.365625)rotate(-90)scale(0.1 -0.1)">
       <use xlink:href="#DejaVuSans-41"/>
       <use x="68.408203" xlink:href="#DejaVuSans-38"/>
       <use x="132.03125" xlink:href="#DejaVuSans-37"/>
      </g>
     </g>
    </g>
    <g id="xtick_2">
     <g id="line2d_2">
      <g>
       <use style="stroke:#000000;stroke-width:0.8;" x="56.497617" xlink:href="#m0ddde602f3" y="287.8"/>
      </g>
     </g>
     <g id="text_2">
      <!-- A107 -->
      <defs>
       <path d="M 12.40625 8.296875 
L 28.515625 8.296875 
L 28.515625 63.921875 
L 10.984375 60.40625 
L 10.984375 69.390625 
L 28.421875 72.90625 
L 38.28125 72.90625 
L 38.28125 8.296875 
L 54.390625 8.296875 
L 54.390625 0 
L 12.40625 0 
z
" id="DejaVuSans-31"/>
       <path d="M 31.78125 66.40625 
Q 24.171875 66.40625 20.328125 58.90625 
Q 16.5 51.421875 16.5 36.375 
Q 16.5 21.390625 20.328125 13.890625 
Q 24.171875 6.390625 31.78125 6.390625 
Q 39.453125 6.390625 43.28125 13.890625 
Q 47.125 21.390625 47.125 36.375 
Q 47.125 51.421875 43.28125 58.90625 
Q 39.453125 66.40625 31.78125 66.40625 
z
M 31.78125 74.21875 
Q 44.046875 74.21875 50.515625 64.515625 
Q 56.984375 54.828125 56.984375 36.375 
Q 56.984375 17.96875 50.515625 8.265625 
Q 44.046875 -1.421875 31.78125 -1.421875 
Q 19.53125 -1.421875 13.0625 8.265625 
Q 6.59375 17.96875 6.59375 36.375 
Q 6.59375 54.828125 13.0625 64.515625 
Q 19.53125 74.21875 31.78125 74.21875 
z
" id="DejaVuSans-30"/>
      </defs>
      <g transform="translate(59.256992 320.728125)rotate(-90)scale(0.1 -0.1)">
       <use xlink:href="#DejaVuSans-41"/>
       <use x="68.408203" xlink:href="#DejaVuSans-31"/>
       <use x="132.03125" xlink:href="#DejaVuSans-30"/>
       <use x="195.654297" xlink:href="#DejaVuSans-37"/>
      </g>
     </g>
    </g>
    <g id="xtick_3">
     <g id="line2d_3">
      <g>
       <use style="stroke:#000000;stroke-width:0.8;" x="74.725234" xlink:href="#m0ddde602f3" y="287.8"/>
      </g>
     </g>
     <g id="text_3">
      <!-- A127 -->
      <defs>
       <path d="M 19.1875 8.296875 
L 53.609375 8.296875 
L 53.609375 0 
L 7.328125 0 
L 7.328125 8.296875 
Q 12.9375 14.109375 22.625 23.890625 
Q 32.328125 33.6875 34.8125 36.53125 
Q 39.546875 41.84375 41.421875 45.53125 
Q 43.3125 49.21875 43.3125 52.78125 
Q 43.3125 58.59375 39.234375 62.25 
Q 35.15625 65.921875 28.609375 65.921875 
Q 23.96875 65.921875 18.8125 64.3125 
Q 13.671875 62.703125 7.8125 59.421875 
L 7.8125 69.390625 
Q 13.765625 71.78125 18.9375 73 
Q 24.125 74.21875 28.421875 74.21875 
Q 39.75 74.21875 46.484375 68.546875 
Q 53.21875 62.890625 53.21875 53.421875 
Q 53.21875 48.921875 51.53125 44.890625 
Q 49.859375 40.875 45.40625 35.40625 
Q 44.1875 33.984375 37.640625 27.21875 
Q 31.109375 20.453125 19.1875 8.296875 
z
" id="DejaVuSans-32"/>
      </defs>
      <g transform="translate(77.484609 320.728125)rotate(-90)scale(0.1 -0.1)">
       <use xlink:href="#DejaVuSans-41"/>
       <use x="68.408203" xlink:href="#DejaVuSans-31"/>
       <use x="132.03125" xlink:href="#DejaVuSans-32"/>
       <use x="195.654297" xlink:href="#DejaVuSans-37"/>
      </g>
     </g>
    </g>
    <g id="xtick_4">
     <g id="line2d_4">
      <g>
       <use style="stroke:#000000;stroke-width:0.8;" x="92.952851" xlink:href="#m0ddde602f3" y="287.8"/>
      </g>
     </g>
     <g id="text_4">
      <!-- A147 -->
      <defs>
       <path d="M 37.796875 64.3125 
L 12.890625 25.390625 
L 37.796875 25.390625 
z
M 35.203125 72.90625 
L 47.609375 72.90625 
L 47.609375 25.390625 
L 58.015625 25.390625 
L 58.015625 17.1875 
L 47.609375 17.1875 
L 47.609375 0 
L 37.796875 0 
L 37.796875 17.1875 
L 4.890625 17.1875 
L 4.890625 26.703125 
z
" id="DejaVuSans-34"/>
      </defs>
      <g transform="translate(95.712226 320.728125)rotate(-90)scale(0.1 -0.1)">
       <use xlink:href="#DejaVuSans-41"/>
       <use x="68.408203" xlink:href="#DejaVuSans-31"/>
       <use x="132.03125" xlink:href="#DejaVuSans-34"/>
       <use x="195.654297" xlink:href="#DejaVuSans-37"/>
      </g>
     </g>
    </g>
    <g id="xtick_5">
     <g id="line2d_5">
      <g>
       <use style="stroke:#000000;stroke-width:0.8;" x="111.180468" xlink:href="#m0ddde602f3" y="287.8"/>
      </g>
     </g>
     <g id="text_5">
      <!-- A167 -->
      <defs>
       <path d="M 33.015625 40.375 
Q 26.375 40.375 22.484375 35.828125 
Q 18.609375 31.296875 18.609375 23.390625 
Q 18.609375 15.53125 22.484375 10.953125 
Q 26.375 6.390625 33.015625 6.390625 
Q 39.65625 6.390625 43.53125 10.953125 
Q 47.40625 15.53125 47.40625 23.390625 
Q 47.40625 31.296875 43.53125 35.828125 
Q 39.65625 40.375 33.015625 40.375 
z
M 52.59375 71.296875 
L 52.59375 62.3125 
Q 48.875 64.0625 45.09375 64.984375 
Q 41.3125 65.921875 37.59375 65.921875 
Q 27.828125 65.921875 22.671875 59.328125 
Q 17.53125 52.734375 16.796875 39.40625 
Q 19.671875 43.65625 24.015625 45.921875 
Q 28.375 48.1875 33.59375 48.1875 
Q 44.578125 48.1875 50.953125 41.515625 
Q 57.328125 34.859375 57.328125 23.390625 
Q 57.328125 12.15625 50.6875 5.359375 
Q 44.046875 -1.421875 33.015625 -1.421875 
Q 20.359375 -1.421875 13.671875 8.265625 
Q 6.984375 17.96875 6.984375 36.375 
Q 6.984375 53.65625 15.1875 63.9375 
Q 23.390625 74.21875 37.203125 74.21875 
Q 40.921875 74.21875 44.703125 73.484375 
Q 48.484375 72.75 52.59375 71.296875 
z
" id="DejaVuSans-36"/>
      </defs>
      <g transform="translate(113.939843 320.728125)rotate(-90)scale(0.1 -0.1)">
       <use xlink:href="#DejaVuSans-41"/>
       <use x="68.408203" xlink:href="#DejaVuSans-31"/>
       <use x="132.03125" xlink:href="#DejaVuSans-36"/>
       <use x="195.654297" xlink:href="#DejaVuSans-37"/>
      </g>
     </g>
    </g>
    <g id="xtick_6">
     <g id="line2d_6">
      <g>
       <use style="stroke:#000000;stroke-width:0.8;" x="129.408085" xlink:href="#m0ddde602f3" y="287.8"/>
      </g>
     </g>
     <g id="text_6">
      <!-- A187 -->
      <g transform="translate(132.16746 320.728125)rotate(-90)scale(0.1 -0.1)">
       <use xlink:href="#DejaVuSans-41"/>
       <use x="68.408203" xlink:href="#DejaVuSans-31"/>
       <use x="132.03125" xlink:href="#DejaVuSans-38"/>
       <use x="195.654297" xlink:href="#DejaVuSans-37"/>
      </g>
     </g>
    </g>
    <g id="xtick_7">
     <g id="line2d_7">
      <g>
       <use style="stroke:#000000;stroke-width:0.8;" x="147.635702" xlink:href="#m0ddde602f3" y="287.8"/>
      </g>
     </g>
     <g id="text_7">
      <!-- A207 -->
      <g transform="translate(150.395077 320.728125)rotate(-90)scale(0.1 -0.1)">
       <use xlink:href="#DejaVuSans-41"/>
       <use x="68.408203" xlink:href="#DejaVuSans-32"/>
       <use x="132.03125" xlink:href="#DejaVuSans-30"/>
       <use x="195.654297" xlink:href="#DejaVuSans-37"/>
      </g>
     </g>
    </g>
    <g id="xtick_8">
     <g id="line2d_8">
      <g>
       <use style="stroke:#000000;stroke-width:0.8;" x="165.863318" xlink:href="#m0ddde602f3" y="287.8"/>
      </g>
     </g>
     <g id="text_8">
      <!-- A227 -->
      <g transform="translate(168.622693 320.728125)rotate(-90)scale(0.1 -0.1)">
       <use xlink:href="#DejaVuSans-41"/>
       <use x="68.408203" xlink:href="#DejaVuSans-32"/>
       <use x="132.03125" xlink:href="#DejaVuSans-32"/>
       <use x="195.654297" xlink:href="#DejaVuSans-37"/>
      </g>
     </g>
    </g>
    <g id="xtick_9">
     <g id="line2d_9">
      <g>
       <use style="stroke:#000000;stroke-width:0.8;" x="184.090935" xlink:href="#m0ddde602f3" y="287.8"/>
      </g>
     </g>
     <g id="text_9">
      <!-- A247 -->
      <g transform="translate(186.85031 320.728125)rotate(-90)scale(0.1 -0.1)">
       <use xlink:href="#DejaVuSans-41"/>
       <use x="68.408203" xlink:href="#DejaVuSans-32"/>
       <use x="132.03125" xlink:href="#DejaVuSans-34"/>
       <use x="195.654297" xlink:href="#DejaVuSans-37"/>
      </g>
     </g>
    </g>
    <g id="xtick_10">
     <g id="line2d_10">
      <g>
       <use style="stroke:#000000;stroke-width:0.8;" x="202.318552" xlink:href="#m0ddde602f3" y="287.8"/>
      </g>
     </g>
     <g id="text_10">
      <!-- A267 -->
      <g transform="translate(205.077927 320.728125)rotate(-90)scale(0.1 -0.1)">
       <use xlink:href="#DejaVuSans-41"/>
       <use x="68.408203" xlink:href="#DejaVuSans-32"/>
       <use x="132.03125" xlink:href="#DejaVuSans-36"/>
       <use x="195.654297" xlink:href="#DejaVuSans-37"/>
      </g>
     </g>
    </g>
    <g id="xtick_11">
     <g id="line2d_11">
      <g>
       <use style="stroke:#000000;stroke-width:0.8;" x="220.546169" xlink:href="#m0ddde602f3" y="287.8"/>
      </g>
     </g>
     <g id="text_11">
      <!-- A287 -->
      <g transform="translate(223.305544 320.728125)rotate(-90)scale(0.1 -0.1)">
       <use xlink:href="#DejaVuSans-41"/>
       <use x="68.408203" xlink:href="#DejaVuSans-32"/>
       <use x="132.03125" xlink:href="#DejaVuSans-38"/>
       <use x="195.654297" xlink:href="#DejaVuSans-37"/>
      </g>
     </g>
    </g>
    <g id="xtick_12">
     <g id="line2d_12">
      <g>
       <use style="stroke:#000000;stroke-width:0.8;" x="238.773786" xlink:href="#m0ddde602f3" y="287.8"/>
      </g>
     </g>
     <g id="text_12">
      <!-- A307 -->
      <defs>
       <path d="M 40.578125 39.3125 
Q 47.65625 37.796875 51.625 33 
Q 55.609375 28.21875 55.609375 21.1875 
Q 55.609375 10.40625 48.1875 4.484375 
Q 40.765625 -1.421875 27.09375 -1.421875 
Q 22.515625 -1.421875 17.65625 -0.515625 
Q 12.796875 0.390625 7.625 2.203125 
L 7.625 11.71875 
Q 11.71875 9.328125 16.59375 8.109375 
Q 21.484375 6.890625 26.8125 6.890625 
Q 36.078125 6.890625 40.9375 10.546875 
Q 45.796875 14.203125 45.796875 21.1875 
Q 45.796875 27.640625 41.28125 31.265625 
Q 36.765625 34.90625 28.71875 34.90625 
L 20.21875 34.90625 
L 20.21875 43.015625 
L 29.109375 43.015625 
Q 36.375 43.015625 40.234375 45.921875 
Q 44.09375 48.828125 44.09375 54.296875 
Q 44.09375 59.90625 40.109375 62.90625 
Q 36.140625 65.921875 28.71875 65.921875 
Q 24.65625 65.921875 20.015625 65.03125 
Q 15.375 64.15625 9.8125 62.3125 
L 9.8125 71.09375 
Q 15.4375 72.65625 20.34375 73.4375 
Q 25.25 74.21875 29.59375 74.21875 
Q 40.828125 74.21875 47.359375 69.109375 
Q 53.90625 64.015625 53.90625 55.328125 
Q 53.90625 49.265625 50.4375 45.09375 
Q 46.96875 40.921875 40.578125 39.3125 
z
" id="DejaVuSans-33"/>
      </defs>
      <g transform="translate(241.533161 320.728125)rotate(-90)scale(0.1 -0.1)">
       <use xlink:href="#DejaVuSans-41"/>
       <use x="68.408203" xlink:href="#DejaVuSans-33"/>
       <use x="132.03125" xlink:href="#DejaVuSans-30"/>
       <use x="195.654297" xlink:href="#DejaVuSans-37"/>
      </g>
     </g>
    </g>
    <g id="xtick_13">
     <g id="line2d_13">
      <g>
       <use style="stroke:#000000;stroke-width:0.8;" x="257.001403" xlink:href="#m0ddde602f3" y="287.8"/>
      </g>
     </g>
     <g id="text_13">
      <!-- A327 -->
      <g transform="translate(259.760778 320.728125)rotate(-90)scale(0.1 -0.1)">
       <use xlink:href="#DejaVuSans-41"/>
       <use x="68.408203" xlink:href="#DejaVuSans-33"/>
       <use x="132.03125" xlink:href="#DejaVuSans-32"/>
       <use x="195.654297" xlink:href="#DejaVuSans-37"/>
      </g>
     </g>
    </g>
    <g id="xtick_14">
     <g id="line2d_14">
      <g>
       <use style="stroke:#000000;stroke-width:0.8;" x="275.22902" xlink:href="#m0ddde602f3" y="287.8"/>
      </g>
     </g>
     <g id="text_14">
      <!-- A347 -->
      <g transform="translate(277.988395 320.728125)rotate(-90)scale(0.1 -0.1)">
       <use xlink:href="#DejaVuSans-41"/>
       <use x="68.408203" xlink:href="#DejaVuSans-33"/>
       <use x="132.03125" xlink:href="#DejaVuSans-34"/>
       <use x="195.654297" xlink:href="#DejaVuSans-37"/>
      </g>
     </g>
    </g>
    <g id="xtick_15">
     <g id="line2d_15">
      <g>
       <use style="stroke:#000000;stroke-width:0.8;" x="293.456637" xlink:href="#m0ddde602f3" y="287.8"/>
      </g>
     </g>
     <g id="text_15">
      <!-- A367 -->
      <g transform="translate(296.216012 320.728125)rotate(-90)scale(0.1 -0.1)">
       <use xlink:href="#DejaVuSans-41"/>
       <use x="68.408203" xlink:href="#DejaVuSans-33"/>
       <use x="132.03125" xlink:href="#DejaVuSans-36"/>
       <use x="195.654297" xlink:href="#DejaVuSans-37"/>
      </g>
     </g>
    </g>
    <g id="xtick_16">
     <g id="line2d_16">
      <g>
       <use style="stroke:#000000;stroke-width:0.8;" x="311.684254" xlink:href="#m0ddde602f3" y="287.8"/>
      </g>
     </g>
     <g id="text_16">
      <!-- A387 -->
      <g transform="translate(314.443629 320.728125)rotate(-90)scale(0.1 -0.1)">
       <use xlink:href="#DejaVuSans-41"/>
       <use x="68.408203" xlink:href="#DejaVuSans-33"/>
       <use x="132.03125" xlink:href="#DejaVuSans-38"/>
       <use x="195.654297" xlink:href="#DejaVuSans-37"/>
      </g>
     </g>
    </g>
    <g id="xtick_17">
     <g id="line2d_17">
      <g>
       <use style="stroke:#000000;stroke-width:0.8;" x="329.911871" xlink:href="#m0ddde602f3" y="287.8"/>
      </g>
     </g>
     <g id="text_17">
      <!-- A407 -->
      <g transform="translate(332.671246 320.728125)rotate(-90)scale(0.1 -0.1)">
       <use xlink:href="#DejaVuSans-41"/>
       <use x="68.408203" xlink:href="#DejaVuSans-34"/>
       <use x="132.03125" xlink:href="#DejaVuSans-30"/>
       <use x="195.654297" xlink:href="#DejaVuSans-37"/>
      </g>
     </g>
    </g>
    <g id="xtick_18">
     <g id="line2d_18">
      <g>
       <use style="stroke:#000000;stroke-width:0.8;" x="348.139488" xlink:href="#m0ddde602f3" y="287.8"/>
      </g>
     </g>
     <g id="text_18">
      <!-- A427 -->
      <g transform="translate(350.898863 320.728125)rotate(-90)scale(0.1 -0.1)">
       <use xlink:href="#DejaVuSans-41"/>
       <use x="68.408203" xlink:href="#DejaVuSans-34"/>
       <use x="132.03125" xlink:href="#DejaVuSans-32"/>
       <use x="195.654297" xlink:href="#DejaVuSans-37"/>
      </g>
     </g>
    </g>
    <g id="xtick_19">
     <g id="line2d_19">
      <g>
       <use style="stroke:#000000;stroke-width:0.8;" x="366.367105" xlink:href="#m0ddde602f3" y="287.8"/>
      </g>
     </g>
     <g id="text_19">
      <!-- A447 -->
      <g transform="translate(369.12648 320.728125)rotate(-90)scale(0.1 -0.1)">
       <use xlink:href="#DejaVuSans-41"/>
       <use x="68.408203" xlink:href="#DejaVuSans-34"/>
       <use x="132.03125" xlink:href="#DejaVuSans-34"/>
       <use x="195.654297" xlink:href="#DejaVuSans-37"/>
      </g>
     </g>
    </g>
    <g id="xtick_20">
     <g id="line2d_20">
      <g>
       <use style="stroke:#000000;stroke-width:0.8;" x="384.594722" xlink:href="#m0ddde602f3" y="287.8"/>
      </g>
     </g>
     <g id="text_20">
      <!-- A467 -->
      <g transform="translate(387.354097 320.728125)rotate(-90)scale(0.1 -0.1)">
       <use xlink:href="#DejaVuSans-41"/>
       <use x="68.408203" xlink:href="#DejaVuSans-34"/>
       <use x="132.03125" xlink:href="#DejaVuSans-36"/>
       <use x="195.654297" xlink:href="#DejaVuSans-37"/>
      </g>
     </g>
    </g>
    <g id="xtick_21">
     <g id="line2d_21">
      <g>
       <use style="stroke:#000000;stroke-width:0.8;" x="402.822339" xlink:href="#m0ddde602f3" y="287.8"/>
      </g>
     </g>
     <g id="text_21">
      <!-- A487 -->
      <g transform="translate(405.581714 320.728125)rotate(-90)scale(0.1 -0.1)">
       <use xlink:href="#DejaVuSans-41"/>
       <use x="68.408203" xlink:href="#DejaVuSans-34"/>
       <use x="132.03125" xlink:href="#DejaVuSans-38"/>
       <use x="195.654297" xlink:href="#DejaVuSans-37"/>
      </g>
     </g>
    </g>
    <g id="xtick_22">
     <g id="line2d_22">
      <g>
       <use style="stroke:#000000;stroke-width:0.8;" x="421.049955" xlink:href="#m0ddde602f3" y="287.8"/>
      </g>
     </g>
     <g id="text_22">
      <!-- A507 -->
      <defs>
       <path d="M 10.796875 72.90625 
L 49.515625 72.90625 
L 49.515625 64.59375 
L 19.828125 64.59375 
L 19.828125 46.734375 
Q 21.96875 47.46875 24.109375 47.828125 
Q 26.265625 48.1875 28.421875 48.1875 
Q 40.625 48.1875 47.75 41.5 
Q 54.890625 34.8125 54.890625 23.390625 
Q 54.890625 11.625 47.5625 5.09375 
Q 40.234375 -1.421875 26.90625 -1.421875 
Q 22.3125 -1.421875 17.546875 -0.640625 
Q 12.796875 0.140625 7.71875 1.703125 
L 7.71875 11.625 
Q 12.109375 9.234375 16.796875 8.0625 
Q 21.484375 6.890625 26.703125 6.890625 
Q 35.15625 6.890625 40.078125 11.328125 
Q 45.015625 15.765625 45.015625 23.390625 
Q 45.015625 31 40.078125 35.4375 
Q 35.15625 39.890625 26.703125 39.890625 
Q 22.75 39.890625 18.8125 39.015625 
Q 14.890625 38.140625 10.796875 36.28125 
z
" id="DejaVuSans-35"/>
      </defs>
      <g transform="translate(423.80933 320.728125)rotate(-90)scale(0.1 -0.1)">
       <use xlink:href="#DejaVuSans-41"/>
       <use x="68.408203" xlink:href="#DejaVuSans-35"/>
       <use x="132.03125" xlink:href="#DejaVuSans-30"/>
       <use x="195.654297" xlink:href="#DejaVuSans-37"/>
      </g>
     </g>
    </g>
    <g id="xtick_23">
     <g id="line2d_23">
      <g>
       <use style="stroke:#000000;stroke-width:0.8;" x="439.277572" xlink:href="#m0ddde602f3" y="287.8"/>
      </g>
     </g>
     <g id="text_23">
      <!-- A527 -->
      <g transform="translate(442.036947 320.728125)rotate(-90)scale(0.1 -0.1)">
       <use xlink:href="#DejaVuSans-41"/>
       <use x="68.408203" xlink:href="#DejaVuSans-35"/>
       <use x="132.03125" xlink:href="#DejaVuSans-32"/>
       <use x="195.654297" xlink:href="#DejaVuSans-37"/>
      </g>
     </g>
    </g>
    <g id="text_24">
     <!-- Residue index -->
     <defs>
      <path d="M 44.390625 34.1875 
Q 47.5625 33.109375 50.5625 29.59375 
Q 53.5625 26.078125 56.59375 19.921875 
L 66.609375 0 
L 56 0 
L 46.6875 18.703125 
Q 43.0625 26.03125 39.671875 28.421875 
Q 36.28125 30.8125 30.421875 30.8125 
L 19.671875 30.8125 
L 19.671875 0 
L 9.8125 0 
L 9.8125 72.90625 
L 32.078125 72.90625 
Q 44.578125 72.90625 50.734375 67.671875 
Q 56.890625 62.453125 56.890625 51.90625 
Q 56.890625 45.015625 53.6875 40.46875 
Q 50.484375 35.9375 44.390625 34.1875 
z
M 19.671875 64.796875 
L 19.671875 38.921875 
L 32.078125 38.921875 
Q 39.203125 38.921875 42.84375 42.21875 
Q 46.484375 45.515625 46.484375 51.90625 
Q 46.484375 58.296875 42.84375 61.546875 
Q 39.203125 64.796875 32.078125 64.796875 
z
" id="DejaVuSans-52"/>
      <path d="M 56.203125 29.59375 
L 56.203125 25.203125 
L 14.890625 25.203125 
Q 15.484375 15.921875 20.484375 11.0625 
Q 25.484375 6.203125 34.421875 6.203125 
Q 39.59375 6.203125 44.453125 7.46875 
Q 49.3125 8.734375 54.109375 11.28125 
L 54.109375 2.78125 
Q 49.265625 0.734375 44.1875 -0.34375 
Q 39.109375 -1.421875 33.890625 -1.421875 
Q 20.796875 -1.421875 13.15625 6.1875 
Q 5.515625 13.8125 5.515625 26.8125 
Q 5.515625 40.234375 12.765625 48.109375 
Q 20.015625 56 32.328125 56 
Q 43.359375 56 49.78125 48.890625 
Q 56.203125 41.796875 56.203125 29.59375 
z
M 47.21875 32.234375 
Q 47.125 39.59375 43.09375 43.984375 
Q 39.0625 48.390625 32.421875 48.390625 
Q 24.90625 48.390625 20.390625 44.140625 
Q 15.875 39.890625 15.1875 32.171875 
z
" id="DejaVuSans-65"/>
      <path d="M 44.28125 53.078125 
L 44.28125 44.578125 
Q 40.484375 46.53125 36.375 47.5 
Q 32.28125 48.484375 27.875 48.484375 
Q 21.1875 48.484375 17.84375 46.4375 
Q 14.5 44.390625 14.5 40.28125 
Q 14.5 37.15625 16.890625 35.375 
Q 19.28125 33.59375 26.515625 31.984375 
L 29.59375 31.296875 
Q 39.15625 29.25 43.1875 25.515625 
Q 47.21875 21.78125 47.21875 15.09375 
Q 47.21875 7.46875 41.1875 3.015625 
Q 35.15625 -1.421875 24.609375 -1.421875 
Q 20.21875 -1.421875 15.453125 -0.5625 
Q 10.6875 0.296875 5.421875 2 
L 5.421875 11.28125 
Q 10.40625 8.6875 15.234375 7.390625 
Q 20.0625 6.109375 24.8125 6.109375 
Q 31.15625 6.109375 34.5625 8.28125 
Q 37.984375 10.453125 37.984375 14.40625 
Q 37.984375 18.0625 35.515625 20.015625 
Q 33.0625 21.96875 24.703125 23.78125 
L 21.578125 24.515625 
Q 13.234375 26.265625 9.515625 29.90625 
Q 5.8125 33.546875 5.8125 39.890625 
Q 5.8125 47.609375 11.28125 51.796875 
Q 16.75 56 26.8125 56 
Q 31.78125 56 36.171875 55.265625 
Q 40.578125 54.546875 44.28125 53.078125 
z
" id="DejaVuSans-73"/>
      <path d="M 9.421875 54.6875 
L 18.40625 54.6875 
L 18.40625 0 
L 9.421875 0 
z
M 9.421875 75.984375 
L 18.40625 75.984375 
L 18.40625 64.59375 
L 9.421875 64.59375 
z
" id="DejaVuSans-69"/>
      <path d="M 45.40625 46.390625 
L 45.40625 75.984375 
L 54.390625 75.984375 
L 54.390625 0 
L 45.40625 0 
L 45.40625 8.203125 
Q 42.578125 3.328125 38.25 0.953125 
Q 33.9375 -1.421875 27.875 -1.421875 
Q 17.96875 -1.421875 11.734375 6.484375 
Q 5.515625 14.40625 5.515625 27.296875 
Q 5.515625 40.1875 11.734375 48.09375 
Q 17.96875 56 27.875 56 
Q 33.9375 56 38.25 53.625 
Q 42.578125 51.265625 45.40625 46.390625 
z
M 14.796875 27.296875 
Q 14.796875 17.390625 18.875 11.75 
Q 22.953125 6.109375 30.078125 6.109375 
Q 37.203125 6.109375 41.296875 11.75 
Q 45.40625 17.390625 45.40625 27.296875 
Q 45.40625 37.203125 41.296875 42.84375 
Q 37.203125 48.484375 30.078125 48.484375 
Q 22.953125 48.484375 18.875 42.84375 
Q 14.796875 37.203125 14.796875 27.296875 
z
" id="DejaVuSans-64"/>
      <path d="M 8.5 21.578125 
L 8.5 54.6875 
L 17.484375 54.6875 
L 17.484375 21.921875 
Q 17.484375 14.15625 20.5 10.265625 
Q 23.53125 6.390625 29.59375 6.390625 
Q 36.859375 6.390625 41.078125 11.03125 
Q 45.3125 15.671875 45.3125 23.6875 
L 45.3125 54.6875 
L 54.296875 54.6875 
L 54.296875 0 
L 45.3125 0 
L 45.3125 8.40625 
Q 42.046875 3.421875 37.71875 1 
Q 33.40625 -1.421875 27.6875 -1.421875 
Q 18.265625 -1.421875 13.375 4.4375 
Q 8.5 10.296875 8.5 21.578125 
z
M 31.109375 56 
z
" id="DejaVuSans-75"/>
      <path id="DejaVuSans-20"/>
      <path d="M 54.890625 33.015625 
L 54.890625 0 
L 45.90625 0 
L 45.90625 32.71875 
Q 45.90625 40.484375 42.875 44.328125 
Q 39.84375 48.1875 33.796875 48.1875 
Q 26.515625 48.1875 22.3125 43.546875 
Q 18.109375 38.921875 18.109375 30.90625 
L 18.109375 0 
L 9.078125 0 
L 9.078125 54.6875 
L 18.109375 54.6875 
L 18.109375 46.1875 
Q 21.34375 51.125 25.703125 53.5625 
Q 30.078125 56 35.796875 56 
Q 45.21875 56 50.046875 50.171875 
Q 54.890625 44.34375 54.890625 33.015625 
z
" id="DejaVuSans-6e"/>
      <path d="M 54.890625 54.6875 
L 35.109375 28.078125 
L 55.90625 0 
L 45.3125 0 
L 29.390625 21.484375 
L 13.484375 0 
L 2.875 0 
L 24.125 28.609375 
L 4.6875 54.6875 
L 15.28125 54.6875 
L 29.78125 35.203125 
L 44.28125 54.6875 
z
" id="DejaVuSans-78"/>
     </defs>
     <g transform="translate(207.557813 332.326562)scale(0.1 -0.1)">
      <use xlink:href="#DejaVuSans-52"/>
      <use x="69.419922" xlink:href="#DejaVuSans-65"/>
      <use x="130.943359" xlink:href="#DejaVuSans-73"/>
      <use x="183.042969" xlink:href="#DejaVuSans-69"/>
      <use x="210.826172" xlink:href="#DejaVuSans-64"/>
      <use x="274.302734" xlink:href="#DejaVuSans-75"/>
      <use x="337.681641" xlink:href="#DejaVuSans-65"/>
      <use x="399.205078" xlink:href="#DejaVuSans-20"/>
      <use x="430.992188" xlink:href="#DejaVuSans-69"/>
      <use x="458.775391" xlink:href="#DejaVuSans-6e"/>
      <use x="522.154297" xlink:href="#DejaVuSans-64"/>
      <use x="585.630859" xlink:href="#DejaVuSans-65"/>
      <use x="647.138672" xlink:href="#DejaVuSans-78"/>
     </g>
    </g>
   </g>
   <g id="matplotlib.axis_2">
    <g id="ytick_1">
     <g id="line2d_24">
      <defs>
       <path d="M 0 0 
L -3.5 0 
" id="m853b1e9d67" style="stroke:#000000;stroke-width:0.8;"/>
      </defs>
      <g>
       <use style="stroke:#000000;stroke-width:0.8;" x="38.27" xlink:href="#m853b1e9d67" y="279.545056"/>
      </g>
     </g>
     <g id="text_25">
      <!-- 0 -->
      <g transform="translate(24.9075 283.344275)scale(0.1 -0.1)">
       <use xlink:href="#DejaVuSans-30"/>
      </g>
     </g>
    </g>
    <g id="ytick_2">
     <g id="line2d_25">
      <g>
       <use style="stroke:#000000;stroke-width:0.8;" x="38.27" xlink:href="#m853b1e9d67" y="245.789193"/>
      </g>
     </g>
     <g id="text_26">
      <!-- 1 -->
      <g transform="translate(24.9075 249.588412)scale(0.1 -0.1)">
       <use xlink:href="#DejaVuSans-31"/>
      </g>
     </g>
    </g>
    <g id="ytick_3">
     <g id="line2d_26">
      <g>
       <use style="stroke:#000000;stroke-width:0.8;" x="38.27" xlink:href="#m853b1e9d67" y="212.033331"/>
      </g>
     </g>
     <g id="text_27">
      <!-- 2 -->
      <g transform="translate(24.9075 215.832549)scale(0.1 -0.1)">
       <use xlink:href="#DejaVuSans-32"/>
      </g>
     </g>
    </g>
    <g id="ytick_4">
     <g id="line2d_27">
      <g>
       <use style="stroke:#000000;stroke-width:0.8;" x="38.27" xlink:href="#m853b1e9d67" y="178.277468"/>
      </g>
     </g>
     <g id="text_28">
      <!-- 3 -->
      <g transform="translate(24.9075 182.076687)scale(0.1 -0.1)">
       <use xlink:href="#DejaVuSans-33"/>
      </g>
     </g>
    </g>
    <g id="ytick_5">
     <g id="line2d_28">
      <g>
       <use style="stroke:#000000;stroke-width:0.8;" x="38.27" xlink:href="#m853b1e9d67" y="144.521605"/>
      </g>
     </g>
     <g id="text_29">
      <!-- 4 -->
      <g transform="translate(24.9075 148.320824)scale(0.1 -0.1)">
       <use xlink:href="#DejaVuSans-34"/>
      </g>
     </g>
    </g>
    <g id="ytick_6">
     <g id="line2d_29">
      <g>
       <use style="stroke:#000000;stroke-width:0.8;" x="38.27" xlink:href="#m853b1e9d67" y="110.765743"/>
      </g>
     </g>
     <g id="text_30">
      <!-- 5 -->
      <g transform="translate(24.9075 114.564961)scale(0.1 -0.1)">
       <use xlink:href="#DejaVuSans-35"/>
      </g>
     </g>
    </g>
    <g id="ytick_7">
     <g id="line2d_30">
      <g>
       <use style="stroke:#000000;stroke-width:0.8;" x="38.27" xlink:href="#m853b1e9d67" y="77.00988"/>
      </g>
     </g>
     <g id="text_31">
      <!-- 6 -->
      <g transform="translate(24.9075 80.809099)scale(0.1 -0.1)">
       <use xlink:href="#DejaVuSans-36"/>
      </g>
     </g>
    </g>
    <g id="ytick_8">
     <g id="line2d_31">
      <g>
       <use style="stroke:#000000;stroke-width:0.8;" x="38.27" xlink:href="#m853b1e9d67" y="43.254017"/>
      </g>
     </g>
     <g id="text_32">
      <!-- 7 -->
      <g transform="translate(24.9075 47.053236)scale(0.1 -0.1)">
       <use xlink:href="#DejaVuSans-37"/>
      </g>
     </g>
    </g>
    <g id="text_33">
     <!-- RMSF -->
     <defs>
      <path d="M 9.8125 72.90625 
L 24.515625 72.90625 
L 43.109375 23.296875 
L 61.8125 72.90625 
L 76.515625 72.90625 
L 76.515625 0 
L 66.890625 0 
L 66.890625 64.015625 
L 48.09375 14.015625 
L 38.1875 14.015625 
L 19.390625 64.015625 
L 19.390625 0 
L 9.8125 0 
z
" id="DejaVuSans-4d"/>
      <path d="M 53.515625 70.515625 
L 53.515625 60.890625 
Q 47.90625 63.578125 42.921875 64.890625 
Q 37.9375 66.21875 33.296875 66.21875 
Q 25.25 66.21875 20.875 63.09375 
Q 16.5 59.96875 16.5 54.203125 
Q 16.5 49.359375 19.40625 46.890625 
Q 22.3125 44.4375 30.421875 42.921875 
L 36.375 41.703125 
Q 47.40625 39.59375 52.65625 34.296875 
Q 57.90625 29 57.90625 20.125 
Q 57.90625 9.515625 50.796875 4.046875 
Q 43.703125 -1.421875 29.984375 -1.421875 
Q 24.8125 -1.421875 18.96875 -0.25 
Q 13.140625 0.921875 6.890625 3.21875 
L 6.890625 13.375 
Q 12.890625 10.015625 18.65625 8.296875 
Q 24.421875 6.59375 29.984375 6.59375 
Q 38.421875 6.59375 43.015625 9.90625 
Q 47.609375 13.234375 47.609375 19.390625 
Q 47.609375 24.75 44.3125 27.78125 
Q 41.015625 30.8125 33.5 32.328125 
L 27.484375 33.5 
Q 16.453125 35.6875 11.515625 40.375 
Q 6.59375 45.0625 6.59375 53.421875 
Q 6.59375 63.09375 13.40625 68.65625 
Q 20.21875 74.21875 32.171875 74.21875 
Q 37.3125 74.21875 42.625 73.28125 
Q 47.953125 72.359375 53.515625 70.515625 
z
" id="DejaVuSans-53"/>
      <path d="M 9.8125 72.90625 
L 51.703125 72.90625 
L 51.703125 64.59375 
L 19.671875 64.59375 
L 19.671875 43.109375 
L 48.578125 43.109375 
L 48.578125 34.8125 
L 19.671875 34.8125 
L 19.671875 0 
L 9.8125 0 
z
" id="DejaVuSans-46"/>
     </defs>
     <g transform="translate(18.827813 164.398281)rotate(-90)scale(0.1 -0.1)">
      <use xlink:href="#DejaVuSans-52"/>
      <use x="69.482422" xlink:href="#DejaVuSans-4d"/>
      <use x="155.761719" xlink:href="#DejaVuSans-53"/>
      <use x="219.238281" xlink:href="#DejaVuSans-46"/>
     </g>
    </g>
   </g>
   <g id="line2d_32">
    <path clip-path="url(#p9fb8d99962)" d="M 38.27 225.744281 
L 39.181381 261.618213 
L 40.092762 260.325494 
L 41.004143 261.443455 
L 41.915523 261.696764 
L 42.826904 235.255141 
L 43.738285 240.875171 
L 44.649666 247.444436 
L 45.561047 241.57982 
L 46.472428 252.035422 
L 47.383808 256.149298 
L 48.295189 254.324171 
L 49.20657 242.611007 
L 50.117951 248.295256 
L 51.029332 249.966552 
L 51.940713 255.135897 
L 53.763474 247.484001 
L 54.674855 254.366201 
L 55.586236 263.519353 
L 57.408998 246.393717 
L 58.320379 263.150443 
L 59.231759 268.780911 
L 60.14314 266.93399 
L 61.054521 267.890232 
L 61.965902 258.254846 
L 62.877283 260.860261 
L 63.788664 248.523166 
L 64.700045 237.749175 
L 65.611425 221.343858 
L 66.522806 200.092458 
L 68.345568 228.519732 
L 69.256949 248.060263 
L 70.16833 264.088644 
L 71.07971 266.792861 
L 71.991091 267.799645 
L 72.902472 264.97068 
L 73.813853 267.097728 
L 75.636615 241.744981 
L 76.547996 243.626913 
L 77.459376 249.298243 
L 78.370757 255.759866 
L 79.282138 258.386411 
L 80.193519 249.145677 
L 81.1049 258.732487 
L 82.016281 252.019719 
L 82.927661 238.508074 
L 83.839042 241.341883 
L 84.750423 236.899411 
L 85.661804 245.281644 
L 86.573185 252.425445 
L 87.484566 255.522939 
L 88.395947 241.140548 
L 89.307327 223.856062 
L 90.218708 202.95876 
L 91.130089 217.072769 
L 92.04147 242.630668 
L 92.952851 242.499389 
L 93.864232 242.975404 
L 94.775612 245.512769 
L 95.686993 254.586479 
L 96.598374 266.19968 
L 97.509755 267.987138 
L 98.421136 261.65692 
L 99.332517 252.521347 
L 100.243898 244.926789 
L 101.155278 252.134941 
L 102.066659 242.936973 
L 102.97804 255.894964 
L 103.889421 250.313535 
L 104.800802 253.512108 
L 105.712183 257.43969 
L 106.623563 257.805144 
L 107.534944 261.715023 
L 108.446325 258.669236 
L 109.357706 258.956849 
L 110.269087 224.532153 
L 111.180468 223.711173 
L 112.091849 224.097956 
L 113.91461 212.873905 
L 114.825991 230.947582 
L 115.737372 254.948401 
L 116.648753 262.518153 
L 117.560134 267.427203 
L 119.382895 268.998634 
L 120.294276 268.308306 
L 121.205657 268.532158 
L 122.117038 262.420785 
L 123.028419 246.19268 
L 123.9398 245.886169 
L 124.85118 229.953237 
L 125.762561 219.154594 
L 126.673942 195.682323 
L 127.585323 228.892348 
L 128.496704 243.400005 
L 129.408085 266.352517 
L 130.319465 264.061731 
L 131.230846 266.851018 
L 132.142227 266.158558 
L 133.053608 266.914231 
L 133.964989 265.727157 
L 135.787751 251.275363 
L 136.699131 231.505116 
L 137.610512 145.045611 
L 138.521893 155.858071 
L 139.433274 200.96782 
L 140.344655 227.018154 
L 141.256036 247.608077 
L 142.167416 260.446514 
L 143.078797 263.511589 
L 143.990178 257.003003 
L 144.901559 266.347133 
L 145.81294 265.150214 
L 146.724321 264.599751 
L 147.635702 257.338325 
L 148.547082 254.354299 
L 149.458463 238.604674 
L 150.369844 220.834178 
L 152.192606 178.339565 
L 153.103987 199.068997 
L 154.015367 234.109218 
L 154.926748 252.254291 
L 155.838129 261.295311 
L 156.74951 257.825368 
L 158.572272 221.949784 
L 159.483653 217.017942 
L 160.395033 244.344056 
L 161.306414 258.18931 
L 162.217795 257.735728 
L 163.129176 259.073459 
L 164.040557 255.395865 
L 164.951938 261.814572 
L 165.863318 265.11471 
L 166.774699 267.105602 
L 167.68608 267.692978 
L 168.597461 268.600174 
L 169.508842 267.738259 
L 170.420223 267.364766 
L 171.331604 264.876401 
L 172.242984 256.558039 
L 173.154365 244.654743 
L 174.065746 240.592287 
L 174.977127 175.640587 
L 175.888508 169.254292 
L 177.711269 239.579903 
L 179.534031 252.705812 
L 180.445412 239.830213 
L 181.356793 238.751551 
L 182.268174 248.561254 
L 183.179555 256.736838 
L 184.090935 260.314722 
L 185.002316 253.143101 
L 185.913697 238.852568 
L 186.825078 242.763995 
L 187.736459 226.353324 
L 188.64784 228.747615 
L 189.55922 204.331436 
L 190.470601 226.218193 
L 191.381982 237.134581 
L 192.293363 240.865751 
L 193.204744 247.298121 
L 194.116125 235.140504 
L 195.027506 228.836065 
L 195.938886 235.613264 
L 196.850267 231.252965 
L 197.761648 196.580704 
L 198.673029 247.122477 
L 199.58441 247.775068 
L 200.495791 251.798258 
L 201.407171 250.74078 
L 202.318552 248.843998 
L 203.229933 238.784857 
L 205.052695 256.844188 
L 205.964076 260.873723 
L 206.875457 248.557981 
L 207.786837 256.647212 
L 208.698218 251.606273 
L 209.609599 254.688875 
L 210.52098 249.498329 
L 211.432361 247.163383 
L 212.343742 244.198456 
L 213.255122 237.668264 
L 214.166503 224.073129 
L 215.077884 243.806705 
L 215.989265 256.660426 
L 216.900646 262.997265 
L 217.812027 262.376528 
L 218.723408 261.02747 
L 219.634788 268.251491 
L 220.546169 274.323358 
L 221.45755 274.225595 
L 222.368931 267.924944 
L 223.280312 252.703864 
L 224.191693 222.956307 
L 225.103073 246.143912 
L 226.014454 246.527582 
L 226.925835 274.722295 
L 227.837216 275.161069 
L 228.748597 271.828694 
L 229.659978 274.418551 
L 230.571359 268.742364 
L 231.482739 264.729514 
L 232.39412 255.178975 
L 233.305501 248.192891 
L 234.216882 225.836531 
L 235.128263 216.38108 
L 236.039644 198.066024 
L 236.951024 242.748057 
L 237.862405 248.459647 
L 239.685167 257.001533 
L 240.596548 257.798823 
L 241.507929 259.120009 
L 242.41931 262.680299 
L 243.33069 262.000562 
L 244.242071 260.706191 
L 245.153452 261.012554 
L 246.064833 261.097799 
L 246.976214 259.338924 
L 247.887595 255.441449 
L 248.798976 262.31022 
L 249.710356 258.490982 
L 250.621737 257.393828 
L 251.533118 255.035935 
L 252.444499 237.415865 
L 253.35588 248.414689 
L 254.267261 263.127359 
L 255.178641 272.931774 
L 256.090022 271.915288 
L 257.001403 262.771277 
L 257.912784 275.061976 
L 258.824165 272.444685 
L 259.735546 261.128389 
L 260.646927 259.088786 
L 261.558307 261.925621 
L 262.469688 239.201079 
L 263.381069 230.171354 
L 264.29245 227.010713 
L 265.203831 235.468947 
L 267.026592 266.008971 
L 267.937973 272.584081 
L 268.849354 271.011433 
L 269.760735 275.323636 
L 270.672116 269.051439 
L 271.583497 258.610076 
L 272.494878 240.298477 
L 273.406258 228.768543 
L 274.317639 242.521666 
L 275.22902 247.928032 
L 276.140401 255.797259 
L 277.051782 261.637665 
L 277.963163 251.354889 
L 278.874543 252.763034 
L 279.785924 253.240355 
L 280.697305 250.241081 
L 281.608686 240.17266 
L 282.520067 217.863113 
L 283.431448 219.516769 
L 284.342829 230.050303 
L 285.254209 233.984921 
L 286.16559 214.314862 
L 287.076971 215.862108 
L 287.988352 235.222333 
L 288.899733 244.820458 
L 289.811114 261.005122 
L 290.722494 253.581809 
L 291.633875 258.684927 
L 292.545256 269.345572 
L 293.456637 268.110703 
L 294.368018 268.227849 
L 295.279399 273.433159 
L 296.19078 270.134296 
L 297.10216 264.981401 
L 298.013541 272.910922 
L 298.924922 267.437143 
L 299.836303 271.90887 
L 300.747684 271.594552 
L 301.659065 272.634798 
L 302.570445 273.230019 
L 303.481826 271.905663 
L 305.304588 272.372191 
L 306.215969 271.389323 
L 307.12735 269.437348 
L 308.038731 268.500679 
L 308.950111 257.131192 
L 309.861492 252.32745 
L 310.772873 233.989966 
L 311.684254 236.401863 
L 312.595635 239.161714 
L 313.507016 243.36025 
L 314.418396 246.199267 
L 315.329777 242.179899 
L 316.241158 254.494899 
L 317.152539 249.081513 
L 318.06392 249.799278 
L 318.975301 265.694861 
L 319.886682 263.181868 
L 320.798062 259.650528 
L 321.709443 248.606009 
L 322.620824 247.404286 
L 323.532205 234.262953 
L 324.443586 223.21615 
L 325.354967 233.574132 
L 326.266347 263.710603 
L 327.177728 265.621684 
L 328.089109 265.678544 
L 329.00049 253.640206 
L 329.911871 244.656316 
L 330.823252 245.159535 
L 331.734633 213.350635 
L 332.646013 248.55589 
L 333.557394 233.0955 
L 334.468775 245.629185 
L 335.380156 238.92849 
L 336.291537 243.397352 
L 337.202918 240.862207 
L 338.114298 212.334059 
L 339.025679 206.654896 
L 339.93706 224.49783 
L 340.848441 239.683674 
L 341.759822 227.019972 
L 342.671203 238.169564 
L 343.582584 233.874803 
L 344.493964 233.908281 
L 345.405345 223.326304 
L 346.316726 195.104483 
L 347.228107 198.190333 
L 348.139488 208.206111 
L 349.050869 219.860263 
L 350.87363 262.746959 
L 351.785011 262.88946 
L 352.696392 258.063443 
L 353.607773 258.959602 
L 354.519154 256.789481 
L 355.430535 257.970913 
L 356.341915 256.952693 
L 357.253296 248.004348 
L 358.164677 242.108553 
L 359.987439 238.447663 
L 360.89882 240.529078 
L 361.8102 231.258902 
L 362.721581 234.471633 
L 363.632962 258.098694 
L 364.544343 262.143895 
L 365.455724 259.577566 
L 366.367105 263.692774 
L 367.278486 267.291788 
L 368.189866 267.154573 
L 369.101247 264.302023 
L 370.012628 270.585831 
L 370.924009 267.139459 
L 371.83539 268.040444 
L 372.746771 274.073038 
L 373.658151 272.95292 
L 375.480913 273.736222 
L 376.392294 273.66421 
L 377.303675 257.755201 
L 378.215056 247.51088 
L 379.126437 209.920867 
L 380.037817 221.579364 
L 380.949198 247.840281 
L 381.860579 249.158012 
L 382.77196 254.714611 
L 383.683341 255.475989 
L 384.594722 233.81725 
L 385.506102 206.099824 
L 386.417483 245.453184 
L 387.328864 244.843569 
L 388.240245 252.322068 
L 389.151626 251.54009 
L 390.063007 245.206992 
L 390.974388 248.917174 
L 391.885768 257.32905 
L 392.797149 260.143665 
L 393.70853 248.789712 
L 394.619911 254.898623 
L 395.531292 254.893415 
L 396.442673 257.540491 
L 397.354053 244.217453 
L 398.265434 246.434054 
L 399.176815 236.049151 
L 400.088196 242.709052 
L 400.999577 220.714175 
L 401.910958 234.157036 
L 402.822339 228.272884 
L 403.733719 216.908247 
L 404.6451 239.337737 
L 405.556481 245.800271 
L 406.467862 245.707991 
L 407.379243 256.730273 
L 408.290624 255.757511 
L 409.202004 264.090691 
L 410.113385 267.877927 
L 411.024766 263.346545 
L 411.936147 263.932731 
L 412.847528 270.61736 
L 413.758909 262.382853 
L 414.67029 257.70662 
L 415.58167 269.686846 
L 416.493051 263.236102 
L 417.404432 250.810255 
L 418.315813 225.062014 
L 419.227194 189.643901 
L 420.138575 206.662715 
L 421.049955 233.301958 
L 421.961336 216.291285 
L 422.872717 233.919803 
L 423.784098 201.127855 
L 424.695479 270.575983 
L 425.60686 271.48387 
L 426.518241 270.62962 
L 427.429621 270.207191 
L 428.341002 271.391042 
L 429.252383 268.34566 
L 430.163764 263.085425 
L 431.075145 261.321507 
L 431.986526 256.137686 
L 432.897906 256.309824 
L 433.809287 237.218486 
L 434.720668 228.787412 
L 435.632049 195.334942 
L 436.54343 179.822809 
L 437.454811 179.273539 
L 440.188953 242.079717 
L 441.100334 252.206484 
L 442.011715 250.301669 
L 442.923096 238.327541 
L 443.834477 223.20125 
L 444.745857 198.022395 
L 445.657238 145.029177 
L 447.48 25.796364 
L 447.48 25.796364 
" style="fill:none;stroke:#666666;stroke-dasharray:1,1.65;stroke-dashoffset:0;"/>
    <defs>
     <path d="M 0 0.5 
C 0.132602 0.5 0.25979 0.447317 0.353553 0.353553 
C 0.447317 0.25979 0.5 0.132602 0.5 0 
C 0.5 -0.132602 0.447317 -0.25979 0.353553 -0.353553 
C 0.25979 -0.447317 0.132602 -0.5 0 -0.5 
C -0.132602 -0.5 -0.25979 -0.447317 -0.353553 -0.353553 
C -0.447317 -0.25979 -0.5 -0.132602 -0.5 0 
C -0.5 0.132602 -0.447317 0.25979 -0.353553 0.353553 
C -0.25979 0.447317 -0.132602 0.5 0 0.5 
z
" id="m70dd7932f7" style="stroke:#666666;"/>
    </defs>
    <g clip-path="url(#p9fb8d99962)">
     <use style="fill:#666666;stroke:#666666;" x="38.27" xlink:href="#m70dd7932f7" y="225.744281"/>
     <use style="fill:#666666;stroke:#666666;" x="39.181381" xlink:href="#m70dd7932f7" y="261.618213"/>
     <use style="fill:#666666;stroke:#666666;" x="40.092762" xlink:href="#m70dd7932f7" y="260.325494"/>
     <use style="fill:#666666;stroke:#666666;" x="41.004143" xlink:href="#m70dd7932f7" y="261.443455"/>
     <use style="fill:#666666;stroke:#666666;" x="41.915523" xlink:href="#m70dd7932f7" y="261.696764"/>
     <use style="fill:#666666;stroke:#666666;" x="42.826904" xlink:href="#m70dd7932f7" y="235.255141"/>
     <use style="fill:#666666;stroke:#666666;" x="43.738285" xlink:href="#m70dd7932f7" y="240.875171"/>
     <use style="fill:#666666;stroke:#666666;" x="44.649666" xlink:href="#m70dd7932f7" y="247.444436"/>
     <use style="fill:#666666;stroke:#666666;" x="45.561047" xlink:href="#m70dd7932f7" y="241.57982"/>
     <use style="fill:#666666;stroke:#666666;" x="46.472428" xlink:href="#m70dd7932f7" y="252.035422"/>
     <use style="fill:#666666;stroke:#666666;" x="47.383808" xlink:href="#m70dd7932f7" y="256.149298"/>
     <use style="fill:#666666;stroke:#666666;" x="48.295189" xlink:href="#m70dd7932f7" y="254.324171"/>
     <use style="fill:#666666;stroke:#666666;" x="49.20657" xlink:href="#m70dd7932f7" y="242.611007"/>
     <use style="fill:#666666;stroke:#666666;" x="50.117951" xlink:href="#m70dd7932f7" y="248.295256"/>
     <use style="fill:#666666;stroke:#666666;" x="51.029332" xlink:href="#m70dd7932f7" y="249.966552"/>
     <use style="fill:#666666;stroke:#666666;" x="51.940713" xlink:href="#m70dd7932f7" y="255.135897"/>
     <use style="fill:#666666;stroke:#666666;" x="52.852094" xlink:href="#m70dd7932f7" y="251.090753"/>
     <use style="fill:#666666;stroke:#666666;" x="53.763474" xlink:href="#m70dd7932f7" y="247.484001"/>
     <use style="fill:#666666;stroke:#666666;" x="54.674855" xlink:href="#m70dd7932f7" y="254.366201"/>
     <use style="fill:#666666;stroke:#666666;" x="55.586236" xlink:href="#m70dd7932f7" y="263.519353"/>
     <use style="fill:#666666;stroke:#666666;" x="56.497617" xlink:href="#m70dd7932f7" y="255.047961"/>
     <use style="fill:#666666;stroke:#666666;" x="57.408998" xlink:href="#m70dd7932f7" y="246.393717"/>
     <use style="fill:#666666;stroke:#666666;" x="58.320379" xlink:href="#m70dd7932f7" y="263.150443"/>
     <use style="fill:#666666;stroke:#666666;" x="59.231759" xlink:href="#m70dd7932f7" y="268.780911"/>
     <use style="fill:#666666;stroke:#666666;" x="60.14314" xlink:href="#m70dd7932f7" y="266.93399"/>
     <use style="fill:#666666;stroke:#666666;" x="61.054521" xlink:href="#m70dd7932f7" y="267.890232"/>
     <use style="fill:#666666;stroke:#666666;" x="61.965902" xlink:href="#m70dd7932f7" y="258.254846"/>
     <use style="fill:#666666;stroke:#666666;" x="62.877283" xlink:href="#m70dd7932f7" y="260.860261"/>
     <use style="fill:#666666;stroke:#666666;" x="63.788664" xlink:href="#m70dd7932f7" y="248.523166"/>
     <use style="fill:#666666;stroke:#666666;" x="64.700045" xlink:href="#m70dd7932f7" y="237.749175"/>
     <use style="fill:#666666;stroke:#666666;" x="65.611425" xlink:href="#m70dd7932f7" y="221.343858"/>
     <use style="fill:#666666;stroke:#666666;" x="66.522806" xlink:href="#m70dd7932f7" y="200.092458"/>
     <use style="fill:#666666;stroke:#666666;" x="67.434187" xlink:href="#m70dd7932f7" y="213.689241"/>
     <use style="fill:#666666;stroke:#666666;" x="68.345568" xlink:href="#m70dd7932f7" y="228.519732"/>
     <use style="fill:#666666;stroke:#666666;" x="69.256949" xlink:href="#m70dd7932f7" y="248.060263"/>
     <use style="fill:#666666;stroke:#666666;" x="70.16833" xlink:href="#m70dd7932f7" y="264.088644"/>
     <use style="fill:#666666;stroke:#666666;" x="71.07971" xlink:href="#m70dd7932f7" y="266.792861"/>
     <use style="fill:#666666;stroke:#666666;" x="71.991091" xlink:href="#m70dd7932f7" y="267.799645"/>
     <use style="fill:#666666;stroke:#666666;" x="72.902472" xlink:href="#m70dd7932f7" y="264.97068"/>
     <use style="fill:#666666;stroke:#666666;" x="73.813853" xlink:href="#m70dd7932f7" y="267.097728"/>
     <use style="fill:#666666;stroke:#666666;" x="74.725234" xlink:href="#m70dd7932f7" y="254.586318"/>
     <use style="fill:#666666;stroke:#666666;" x="75.636615" xlink:href="#m70dd7932f7" y="241.744981"/>
     <use style="fill:#666666;stroke:#666666;" x="76.547996" xlink:href="#m70dd7932f7" y="243.626913"/>
     <use style="fill:#666666;stroke:#666666;" x="77.459376" xlink:href="#m70dd7932f7" y="249.298243"/>
     <use style="fill:#666666;stroke:#666666;" x="78.370757" xlink:href="#m70dd7932f7" y="255.759866"/>
     <use style="fill:#666666;stroke:#666666;" x="79.282138" xlink:href="#m70dd7932f7" y="258.386411"/>
     <use style="fill:#666666;stroke:#666666;" x="80.193519" xlink:href="#m70dd7932f7" y="249.145677"/>
     <use style="fill:#666666;stroke:#666666;" x="81.1049" xlink:href="#m70dd7932f7" y="258.732487"/>
     <use style="fill:#666666;stroke:#666666;" x="82.016281" xlink:href="#m70dd7932f7" y="252.019719"/>
     <use style="fill:#666666;stroke:#666666;" x="82.927661" xlink:href="#m70dd7932f7" y="238.508074"/>
     <use style="fill:#666666;stroke:#666666;" x="83.839042" xlink:href="#m70dd7932f7" y="241.341883"/>
     <use style="fill:#666666;stroke:#666666;" x="84.750423" xlink:href="#m70dd7932f7" y="236.899411"/>
     <use style="fill:#666666;stroke:#666666;" x="85.661804" xlink:href="#m70dd7932f7" y="245.281644"/>
     <use style="fill:#666666;stroke:#666666;" x="86.573185" xlink:href="#m70dd7932f7" y="252.425445"/>
     <use style="fill:#666666;stroke:#666666;" x="87.484566" xlink:href="#m70dd7932f7" y="255.522939"/>
     <use style="fill:#666666;stroke:#666666;" x="88.395947" xlink:href="#m70dd7932f7" y="241.140548"/>
     <use style="fill:#666666;stroke:#666666;" x="89.307327" xlink:href="#m70dd7932f7" y="223.856062"/>
     <use style="fill:#666666;stroke:#666666;" x="90.218708" xlink:href="#m70dd7932f7" y="202.95876"/>
     <use style="fill:#666666;stroke:#666666;" x="91.130089" xlink:href="#m70dd7932f7" y="217.072769"/>
     <use style="fill:#666666;stroke:#666666;" x="92.04147" xlink:href="#m70dd7932f7" y="242.630668"/>
     <use style="fill:#666666;stroke:#666666;" x="92.952851" xlink:href="#m70dd7932f7" y="242.499389"/>
     <use style="fill:#666666;stroke:#666666;" x="93.864232" xlink:href="#m70dd7932f7" y="242.975404"/>
     <use style="fill:#666666;stroke:#666666;" x="94.775612" xlink:href="#m70dd7932f7" y="245.512769"/>
     <use style="fill:#666666;stroke:#666666;" x="95.686993" xlink:href="#m70dd7932f7" y="254.586479"/>
     <use style="fill:#666666;stroke:#666666;" x="96.598374" xlink:href="#m70dd7932f7" y="266.19968"/>
     <use style="fill:#666666;stroke:#666666;" x="97.509755" xlink:href="#m70dd7932f7" y="267.987138"/>
     <use style="fill:#666666;stroke:#666666;" x="98.421136" xlink:href="#m70dd7932f7" y="261.65692"/>
     <use style="fill:#666666;stroke:#666666;" x="99.332517" xlink:href="#m70dd7932f7" y="252.521347"/>
     <use style="fill:#666666;stroke:#666666;" x="100.243898" xlink:href="#m70dd7932f7" y="244.926789"/>
     <use style="fill:#666666;stroke:#666666;" x="101.155278" xlink:href="#m70dd7932f7" y="252.134941"/>
     <use style="fill:#666666;stroke:#666666;" x="102.066659" xlink:href="#m70dd7932f7" y="242.936973"/>
     <use style="fill:#666666;stroke:#666666;" x="102.97804" xlink:href="#m70dd7932f7" y="255.894964"/>
     <use style="fill:#666666;stroke:#666666;" x="103.889421" xlink:href="#m70dd7932f7" y="250.313535"/>
     <use style="fill:#666666;stroke:#666666;" x="104.800802" xlink:href="#m70dd7932f7" y="253.512108"/>
     <use style="fill:#666666;stroke:#666666;" x="105.712183" xlink:href="#m70dd7932f7" y="257.43969"/>
     <use style="fill:#666666;stroke:#666666;" x="106.623563" xlink:href="#m70dd7932f7" y="257.805144"/>
     <use style="fill:#666666;stroke:#666666;" x="107.534944" xlink:href="#m70dd7932f7" y="261.715023"/>
     <use style="fill:#666666;stroke:#666666;" x="108.446325" xlink:href="#m70dd7932f7" y="258.669236"/>
     <use style="fill:#666666;stroke:#666666;" x="109.357706" xlink:href="#m70dd7932f7" y="258.956849"/>
     <use style="fill:#666666;stroke:#666666;" x="110.269087" xlink:href="#m70dd7932f7" y="224.532153"/>
     <use style="fill:#666666;stroke:#666666;" x="111.180468" xlink:href="#m70dd7932f7" y="223.711173"/>
     <use style="fill:#666666;stroke:#666666;" x="112.091849" xlink:href="#m70dd7932f7" y="224.097956"/>
     <use style="fill:#666666;stroke:#666666;" x="113.003229" xlink:href="#m70dd7932f7" y="218.760571"/>
     <use style="fill:#666666;stroke:#666666;" x="113.91461" xlink:href="#m70dd7932f7" y="212.873905"/>
     <use style="fill:#666666;stroke:#666666;" x="114.825991" xlink:href="#m70dd7932f7" y="230.947582"/>
     <use style="fill:#666666;stroke:#666666;" x="115.737372" xlink:href="#m70dd7932f7" y="254.948401"/>
     <use style="fill:#666666;stroke:#666666;" x="116.648753" xlink:href="#m70dd7932f7" y="262.518153"/>
     <use style="fill:#666666;stroke:#666666;" x="117.560134" xlink:href="#m70dd7932f7" y="267.427203"/>
     <use style="fill:#666666;stroke:#666666;" x="118.471514" xlink:href="#m70dd7932f7" y="268.274129"/>
     <use style="fill:#666666;stroke:#666666;" x="119.382895" xlink:href="#m70dd7932f7" y="268.998634"/>
     <use style="fill:#666666;stroke:#666666;" x="120.294276" xlink:href="#m70dd7932f7" y="268.308306"/>
     <use style="fill:#666666;stroke:#666666;" x="121.205657" xlink:href="#m70dd7932f7" y="268.532158"/>
     <use style="fill:#666666;stroke:#666666;" x="122.117038" xlink:href="#m70dd7932f7" y="262.420785"/>
     <use style="fill:#666666;stroke:#666666;" x="123.028419" xlink:href="#m70dd7932f7" y="246.19268"/>
     <use style="fill:#666666;stroke:#666666;" x="123.9398" xlink:href="#m70dd7932f7" y="245.886169"/>
     <use style="fill:#666666;stroke:#666666;" x="124.85118" xlink:href="#m70dd7932f7" y="229.953237"/>
     <use style="fill:#666666;stroke:#666666;" x="125.762561" xlink:href="#m70dd7932f7" y="219.154594"/>
     <use style="fill:#666666;stroke:#666666;" x="126.673942" xlink:href="#m70dd7932f7" y="195.682323"/>
     <use style="fill:#666666;stroke:#666666;" x="127.585323" xlink:href="#m70dd7932f7" y="228.892348"/>
     <use style="fill:#666666;stroke:#666666;" x="128.496704" xlink:href="#m70dd7932f7" y="243.400005"/>
     <use style="fill:#666666;stroke:#666666;" x="129.408085" xlink:href="#m70dd7932f7" y="266.352517"/>
     <use style="fill:#666666;stroke:#666666;" x="130.319465" xlink:href="#m70dd7932f7" y="264.061731"/>
     <use style="fill:#666666;stroke:#666666;" x="131.230846" xlink:href="#m70dd7932f7" y="266.851018"/>
     <use style="fill:#666666;stroke:#666666;" x="132.142227" xlink:href="#m70dd7932f7" y="266.158558"/>
     <use style="fill:#666666;stroke:#666666;" x="133.053608" xlink:href="#m70dd7932f7" y="266.914231"/>
     <use style="fill:#666666;stroke:#666666;" x="133.964989" xlink:href="#m70dd7932f7" y="265.727157"/>
     <use style="fill:#666666;stroke:#666666;" x="134.87637" xlink:href="#m70dd7932f7" y="258.592782"/>
     <use style="fill:#666666;stroke:#666666;" x="135.787751" xlink:href="#m70dd7932f7" y="251.275363"/>
     <use style="fill:#666666;stroke:#666666;" x="136.699131" xlink:href="#m70dd7932f7" y="231.505116"/>
     <use style="fill:#666666;stroke:#666666;" x="137.610512" xlink:href="#m70dd7932f7" y="145.045611"/>
     <use style="fill:#666666;stroke:#666666;" x="138.521893" xlink:href="#m70dd7932f7" y="155.858071"/>
     <use style="fill:#666666;stroke:#666666;" x="139.433274" xlink:href="#m70dd7932f7" y="200.96782"/>
     <use style="fill:#666666;stroke:#666666;" x="140.344655" xlink:href="#m70dd7932f7" y="227.018154"/>
     <use style="fill:#666666;stroke:#666666;" x="141.256036" xlink:href="#m70dd7932f7" y="247.608077"/>
     <use style="fill:#666666;stroke:#666666;" x="142.167416" xlink:href="#m70dd7932f7" y="260.446514"/>
     <use style="fill:#666666;stroke:#666666;" x="143.078797" xlink:href="#m70dd7932f7" y="263.511589"/>
     <use style="fill:#666666;stroke:#666666;" x="143.990178" xlink:href="#m70dd7932f7" y="257.003003"/>
     <use style="fill:#666666;stroke:#666666;" x="144.901559" xlink:href="#m70dd7932f7" y="266.347133"/>
     <use style="fill:#666666;stroke:#666666;" x="145.81294" xlink:href="#m70dd7932f7" y="265.150214"/>
     <use style="fill:#666666;stroke:#666666;" x="146.724321" xlink:href="#m70dd7932f7" y="264.599751"/>
     <use style="fill:#666666;stroke:#666666;" x="147.635702" xlink:href="#m70dd7932f7" y="257.338325"/>
     <use style="fill:#666666;stroke:#666666;" x="148.547082" xlink:href="#m70dd7932f7" y="254.354299"/>
     <use style="fill:#666666;stroke:#666666;" x="149.458463" xlink:href="#m70dd7932f7" y="238.604674"/>
     <use style="fill:#666666;stroke:#666666;" x="150.369844" xlink:href="#m70dd7932f7" y="220.834178"/>
     <use style="fill:#666666;stroke:#666666;" x="151.281225" xlink:href="#m70dd7932f7" y="198.798187"/>
     <use style="fill:#666666;stroke:#666666;" x="152.192606" xlink:href="#m70dd7932f7" y="178.339565"/>
     <use style="fill:#666666;stroke:#666666;" x="153.103987" xlink:href="#m70dd7932f7" y="199.068997"/>
     <use style="fill:#666666;stroke:#666666;" x="154.015367" xlink:href="#m70dd7932f7" y="234.109218"/>
     <use style="fill:#666666;stroke:#666666;" x="154.926748" xlink:href="#m70dd7932f7" y="252.254291"/>
     <use style="fill:#666666;stroke:#666666;" x="155.838129" xlink:href="#m70dd7932f7" y="261.295311"/>
     <use style="fill:#666666;stroke:#666666;" x="156.74951" xlink:href="#m70dd7932f7" y="257.825368"/>
     <use style="fill:#666666;stroke:#666666;" x="157.660891" xlink:href="#m70dd7932f7" y="240.280682"/>
     <use style="fill:#666666;stroke:#666666;" x="158.572272" xlink:href="#m70dd7932f7" y="221.949784"/>
     <use style="fill:#666666;stroke:#666666;" x="159.483653" xlink:href="#m70dd7932f7" y="217.017942"/>
     <use style="fill:#666666;stroke:#666666;" x="160.395033" xlink:href="#m70dd7932f7" y="244.344056"/>
     <use style="fill:#666666;stroke:#666666;" x="161.306414" xlink:href="#m70dd7932f7" y="258.18931"/>
     <use style="fill:#666666;stroke:#666666;" x="162.217795" xlink:href="#m70dd7932f7" y="257.735728"/>
     <use style="fill:#666666;stroke:#666666;" x="163.129176" xlink:href="#m70dd7932f7" y="259.073459"/>
     <use style="fill:#666666;stroke:#666666;" x="164.040557" xlink:href="#m70dd7932f7" y="255.395865"/>
     <use style="fill:#666666;stroke:#666666;" x="164.951938" xlink:href="#m70dd7932f7" y="261.814572"/>
     <use style="fill:#666666;stroke:#666666;" x="165.863318" xlink:href="#m70dd7932f7" y="265.11471"/>
     <use style="fill:#666666;stroke:#666666;" x="166.774699" xlink:href="#m70dd7932f7" y="267.105602"/>
     <use style="fill:#666666;stroke:#666666;" x="167.68608" xlink:href="#m70dd7932f7" y="267.692978"/>
     <use style="fill:#666666;stroke:#666666;" x="168.597461" xlink:href="#m70dd7932f7" y="268.600174"/>
     <use style="fill:#666666;stroke:#666666;" x="169.508842" xlink:href="#m70dd7932f7" y="267.738259"/>
     <use style="fill:#666666;stroke:#666666;" x="170.420223" xlink:href="#m70dd7932f7" y="267.364766"/>
     <use style="fill:#666666;stroke:#666666;" x="171.331604" xlink:href="#m70dd7932f7" y="264.876401"/>
     <use style="fill:#666666;stroke:#666666;" x="172.242984" xlink:href="#m70dd7932f7" y="256.558039"/>
     <use style="fill:#666666;stroke:#666666;" x="173.154365" xlink:href="#m70dd7932f7" y="244.654743"/>
     <use style="fill:#666666;stroke:#666666;" x="174.065746" xlink:href="#m70dd7932f7" y="240.592287"/>
     <use style="fill:#666666;stroke:#666666;" x="174.977127" xlink:href="#m70dd7932f7" y="175.640587"/>
     <use style="fill:#666666;stroke:#666666;" x="175.888508" xlink:href="#m70dd7932f7" y="169.254292"/>
     <use style="fill:#666666;stroke:#666666;" x="176.799889" xlink:href="#m70dd7932f7" y="202.564632"/>
     <use style="fill:#666666;stroke:#666666;" x="177.711269" xlink:href="#m70dd7932f7" y="239.579903"/>
     <use style="fill:#666666;stroke:#666666;" x="178.62265" xlink:href="#m70dd7932f7" y="246.505873"/>
     <use style="fill:#666666;stroke:#666666;" x="179.534031" xlink:href="#m70dd7932f7" y="252.705812"/>
     <use style="fill:#666666;stroke:#666666;" x="180.445412" xlink:href="#m70dd7932f7" y="239.830213"/>
     <use style="fill:#666666;stroke:#666666;" x="181.356793" xlink:href="#m70dd7932f7" y="238.751551"/>
     <use style="fill:#666666;stroke:#666666;" x="182.268174" xlink:href="#m70dd7932f7" y="248.561254"/>
     <use style="fill:#666666;stroke:#666666;" x="183.179555" xlink:href="#m70dd7932f7" y="256.736838"/>
     <use style="fill:#666666;stroke:#666666;" x="184.090935" xlink:href="#m70dd7932f7" y="260.314722"/>
     <use style="fill:#666666;stroke:#666666;" x="185.002316" xlink:href="#m70dd7932f7" y="253.143101"/>
     <use style="fill:#666666;stroke:#666666;" x="185.913697" xlink:href="#m70dd7932f7" y="238.852568"/>
     <use style="fill:#666666;stroke:#666666;" x="186.825078" xlink:href="#m70dd7932f7" y="242.763995"/>
     <use style="fill:#666666;stroke:#666666;" x="187.736459" xlink:href="#m70dd7932f7" y="226.353324"/>
     <use style="fill:#666666;stroke:#666666;" x="188.64784" xlink:href="#m70dd7932f7" y="228.747615"/>
     <use style="fill:#666666;stroke:#666666;" x="189.55922" xlink:href="#m70dd7932f7" y="204.331436"/>
     <use style="fill:#666666;stroke:#666666;" x="190.470601" xlink:href="#m70dd7932f7" y="226.218193"/>
     <use style="fill:#666666;stroke:#666666;" x="191.381982" xlink:href="#m70dd7932f7" y="237.134581"/>
     <use style="fill:#666666;stroke:#666666;" x="192.293363" xlink:href="#m70dd7932f7" y="240.865751"/>
     <use style="fill:#666666;stroke:#666666;" x="193.204744" xlink:href="#m70dd7932f7" y="247.298121"/>
     <use style="fill:#666666;stroke:#666666;" x="194.116125" xlink:href="#m70dd7932f7" y="235.140504"/>
     <use style="fill:#666666;stroke:#666666;" x="195.027506" xlink:href="#m70dd7932f7" y="228.836065"/>
     <use style="fill:#666666;stroke:#666666;" x="195.938886" xlink:href="#m70dd7932f7" y="235.613264"/>
     <use style="fill:#666666;stroke:#666666;" x="196.850267" xlink:href="#m70dd7932f7" y="231.252965"/>
     <use style="fill:#666666;stroke:#666666;" x="197.761648" xlink:href="#m70dd7932f7" y="196.580704"/>
     <use style="fill:#666666;stroke:#666666;" x="198.673029" xlink:href="#m70dd7932f7" y="247.122477"/>
     <use style="fill:#666666;stroke:#666666;" x="199.58441" xlink:href="#m70dd7932f7" y="247.775068"/>
     <use style="fill:#666666;stroke:#666666;" x="200.495791" xlink:href="#m70dd7932f7" y="251.798258"/>
     <use style="fill:#666666;stroke:#666666;" x="201.407171" xlink:href="#m70dd7932f7" y="250.74078"/>
     <use style="fill:#666666;stroke:#666666;" x="202.318552" xlink:href="#m70dd7932f7" y="248.843998"/>
     <use style="fill:#666666;stroke:#666666;" x="203.229933" xlink:href="#m70dd7932f7" y="238.784857"/>
     <use style="fill:#666666;stroke:#666666;" x="204.141314" xlink:href="#m70dd7932f7" y="247.463069"/>
     <use style="fill:#666666;stroke:#666666;" x="205.052695" xlink:href="#m70dd7932f7" y="256.844188"/>
     <use style="fill:#666666;stroke:#666666;" x="205.964076" xlink:href="#m70dd7932f7" y="260.873723"/>
     <use style="fill:#666666;stroke:#666666;" x="206.875457" xlink:href="#m70dd7932f7" y="248.557981"/>
     <use style="fill:#666666;stroke:#666666;" x="207.786837" xlink:href="#m70dd7932f7" y="256.647212"/>
     <use style="fill:#666666;stroke:#666666;" x="208.698218" xlink:href="#m70dd7932f7" y="251.606273"/>
     <use style="fill:#666666;stroke:#666666;" x="209.609599" xlink:href="#m70dd7932f7" y="254.688875"/>
     <use style="fill:#666666;stroke:#666666;" x="210.52098" xlink:href="#m70dd7932f7" y="249.498329"/>
     <use style="fill:#666666;stroke:#666666;" x="211.432361" xlink:href="#m70dd7932f7" y="247.163383"/>
     <use style="fill:#666666;stroke:#666666;" x="212.343742" xlink:href="#m70dd7932f7" y="244.198456"/>
     <use style="fill:#666666;stroke:#666666;" x="213.255122" xlink:href="#m70dd7932f7" y="237.668264"/>
     <use style="fill:#666666;stroke:#666666;" x="214.166503" xlink:href="#m70dd7932f7" y="224.073129"/>
     <use style="fill:#666666;stroke:#666666;" x="215.077884" xlink:href="#m70dd7932f7" y="243.806705"/>
     <use style="fill:#666666;stroke:#666666;" x="215.989265" xlink:href="#m70dd7932f7" y="256.660426"/>
     <use style="fill:#666666;stroke:#666666;" x="216.900646" xlink:href="#m70dd7932f7" y="262.997265"/>
     <use style="fill:#666666;stroke:#666666;" x="217.812027" xlink:href="#m70dd7932f7" y="262.376528"/>
     <use style="fill:#666666;stroke:#666666;" x="218.723408" xlink:href="#m70dd7932f7" y="261.02747"/>
     <use style="fill:#666666;stroke:#666666;" x="219.634788" xlink:href="#m70dd7932f7" y="268.251491"/>
     <use style="fill:#666666;stroke:#666666;" x="220.546169" xlink:href="#m70dd7932f7" y="274.323358"/>
     <use style="fill:#666666;stroke:#666666;" x="221.45755" xlink:href="#m70dd7932f7" y="274.225595"/>
     <use style="fill:#666666;stroke:#666666;" x="222.368931" xlink:href="#m70dd7932f7" y="267.924944"/>
     <use style="fill:#666666;stroke:#666666;" x="223.280312" xlink:href="#m70dd7932f7" y="252.703864"/>
     <use style="fill:#666666;stroke:#666666;" x="224.191693" xlink:href="#m70dd7932f7" y="222.956307"/>
     <use style="fill:#666666;stroke:#666666;" x="225.103073" xlink:href="#m70dd7932f7" y="246.143912"/>
     <use style="fill:#666666;stroke:#666666;" x="226.014454" xlink:href="#m70dd7932f7" y="246.527582"/>
     <use style="fill:#666666;stroke:#666666;" x="226.925835" xlink:href="#m70dd7932f7" y="274.722295"/>
     <use style="fill:#666666;stroke:#666666;" x="227.837216" xlink:href="#m70dd7932f7" y="275.161069"/>
     <use style="fill:#666666;stroke:#666666;" x="228.748597" xlink:href="#m70dd7932f7" y="271.828694"/>
     <use style="fill:#666666;stroke:#666666;" x="229.659978" xlink:href="#m70dd7932f7" y="274.418551"/>
     <use style="fill:#666666;stroke:#666666;" x="230.571359" xlink:href="#m70dd7932f7" y="268.742364"/>
     <use style="fill:#666666;stroke:#666666;" x="231.482739" xlink:href="#m70dd7932f7" y="264.729514"/>
     <use style="fill:#666666;stroke:#666666;" x="232.39412" xlink:href="#m70dd7932f7" y="255.178975"/>
     <use style="fill:#666666;stroke:#666666;" x="233.305501" xlink:href="#m70dd7932f7" y="248.192891"/>
     <use style="fill:#666666;stroke:#666666;" x="234.216882" xlink:href="#m70dd7932f7" y="225.836531"/>
     <use style="fill:#666666;stroke:#666666;" x="235.128263" xlink:href="#m70dd7932f7" y="216.38108"/>
     <use style="fill:#666666;stroke:#666666;" x="236.039644" xlink:href="#m70dd7932f7" y="198.066024"/>
     <use style="fill:#666666;stroke:#666666;" x="236.951024" xlink:href="#m70dd7932f7" y="242.748057"/>
     <use style="fill:#666666;stroke:#666666;" x="237.862405" xlink:href="#m70dd7932f7" y="248.459647"/>
     <use style="fill:#666666;stroke:#666666;" x="238.773786" xlink:href="#m70dd7932f7" y="252.790353"/>
     <use style="fill:#666666;stroke:#666666;" x="239.685167" xlink:href="#m70dd7932f7" y="257.001533"/>
     <use style="fill:#666666;stroke:#666666;" x="240.596548" xlink:href="#m70dd7932f7" y="257.798823"/>
     <use style="fill:#666666;stroke:#666666;" x="241.507929" xlink:href="#m70dd7932f7" y="259.120009"/>
     <use style="fill:#666666;stroke:#666666;" x="242.41931" xlink:href="#m70dd7932f7" y="262.680299"/>
     <use style="fill:#666666;stroke:#666666;" x="243.33069" xlink:href="#m70dd7932f7" y="262.000562"/>
     <use style="fill:#666666;stroke:#666666;" x="244.242071" xlink:href="#m70dd7932f7" y="260.706191"/>
     <use style="fill:#666666;stroke:#666666;" x="245.153452" xlink:href="#m70dd7932f7" y="261.012554"/>
     <use style="fill:#666666;stroke:#666666;" x="246.064833" xlink:href="#m70dd7932f7" y="261.097799"/>
     <use style="fill:#666666;stroke:#666666;" x="246.976214" xlink:href="#m70dd7932f7" y="259.338924"/>
     <use style="fill:#666666;stroke:#666666;" x="247.887595" xlink:href="#m70dd7932f7" y="255.441449"/>
     <use style="fill:#666666;stroke:#666666;" x="248.798976" xlink:href="#m70dd7932f7" y="262.31022"/>
     <use style="fill:#666666;stroke:#666666;" x="249.710356" xlink:href="#m70dd7932f7" y="258.490982"/>
     <use style="fill:#666666;stroke:#666666;" x="250.621737" xlink:href="#m70dd7932f7" y="257.393828"/>
     <use style="fill:#666666;stroke:#666666;" x="251.533118" xlink:href="#m70dd7932f7" y="255.035935"/>
     <use style="fill:#666666;stroke:#666666;" x="252.444499" xlink:href="#m70dd7932f7" y="237.415865"/>
     <use style="fill:#666666;stroke:#666666;" x="253.35588" xlink:href="#m70dd7932f7" y="248.414689"/>
     <use style="fill:#666666;stroke:#666666;" x="254.267261" xlink:href="#m70dd7932f7" y="263.127359"/>
     <use style="fill:#666666;stroke:#666666;" x="255.178641" xlink:href="#m70dd7932f7" y="272.931774"/>
     <use style="fill:#666666;stroke:#666666;" x="256.090022" xlink:href="#m70dd7932f7" y="271.915288"/>
     <use style="fill:#666666;stroke:#666666;" x="257.001403" xlink:href="#m70dd7932f7" y="262.771277"/>
     <use style="fill:#666666;stroke:#666666;" x="257.912784" xlink:href="#m70dd7932f7" y="275.061976"/>
     <use style="fill:#666666;stroke:#666666;" x="258.824165" xlink:href="#m70dd7932f7" y="272.444685"/>
     <use style="fill:#666666;stroke:#666666;" x="259.735546" xlink:href="#m70dd7932f7" y="261.128389"/>
     <use style="fill:#666666;stroke:#666666;" x="260.646927" xlink:href="#m70dd7932f7" y="259.088786"/>
     <use style="fill:#666666;stroke:#666666;" x="261.558307" xlink:href="#m70dd7932f7" y="261.925621"/>
     <use style="fill:#666666;stroke:#666666;" x="262.469688" xlink:href="#m70dd7932f7" y="239.201079"/>
     <use style="fill:#666666;stroke:#666666;" x="263.381069" xlink:href="#m70dd7932f7" y="230.171354"/>
     <use style="fill:#666666;stroke:#666666;" x="264.29245" xlink:href="#m70dd7932f7" y="227.010713"/>
     <use style="fill:#666666;stroke:#666666;" x="265.203831" xlink:href="#m70dd7932f7" y="235.468947"/>
     <use style="fill:#666666;stroke:#666666;" x="266.115212" xlink:href="#m70dd7932f7" y="249.970705"/>
     <use style="fill:#666666;stroke:#666666;" x="267.026592" xlink:href="#m70dd7932f7" y="266.008971"/>
     <use style="fill:#666666;stroke:#666666;" x="267.937973" xlink:href="#m70dd7932f7" y="272.584081"/>
     <use style="fill:#666666;stroke:#666666;" x="268.849354" xlink:href="#m70dd7932f7" y="271.011433"/>
     <use style="fill:#666666;stroke:#666666;" x="269.760735" xlink:href="#m70dd7932f7" y="275.323636"/>
     <use style="fill:#666666;stroke:#666666;" x="270.672116" xlink:href="#m70dd7932f7" y="269.051439"/>
     <use style="fill:#666666;stroke:#666666;" x="271.583497" xlink:href="#m70dd7932f7" y="258.610076"/>
     <use style="fill:#666666;stroke:#666666;" x="272.494878" xlink:href="#m70dd7932f7" y="240.298477"/>
     <use style="fill:#666666;stroke:#666666;" x="273.406258" xlink:href="#m70dd7932f7" y="228.768543"/>
     <use style="fill:#666666;stroke:#666666;" x="274.317639" xlink:href="#m70dd7932f7" y="242.521666"/>
     <use style="fill:#666666;stroke:#666666;" x="275.22902" xlink:href="#m70dd7932f7" y="247.928032"/>
     <use style="fill:#666666;stroke:#666666;" x="276.140401" xlink:href="#m70dd7932f7" y="255.797259"/>
     <use style="fill:#666666;stroke:#666666;" x="277.051782" xlink:href="#m70dd7932f7" y="261.637665"/>
     <use style="fill:#666666;stroke:#666666;" x="277.963163" xlink:href="#m70dd7932f7" y="251.354889"/>
     <use style="fill:#666666;stroke:#666666;" x="278.874543" xlink:href="#m70dd7932f7" y="252.763034"/>
     <use style="fill:#666666;stroke:#666666;" x="279.785924" xlink:href="#m70dd7932f7" y="253.240355"/>
     <use style="fill:#666666;stroke:#666666;" x="280.697305" xlink:href="#m70dd7932f7" y="250.241081"/>
     <use style="fill:#666666;stroke:#666666;" x="281.608686" xlink:href="#m70dd7932f7" y="240.17266"/>
     <use style="fill:#666666;stroke:#666666;" x="282.520067" xlink:href="#m70dd7932f7" y="217.863113"/>
     <use style="fill:#666666;stroke:#666666;" x="283.431448" xlink:href="#m70dd7932f7" y="219.516769"/>
     <use style="fill:#666666;stroke:#666666;" x="284.342829" xlink:href="#m70dd7932f7" y="230.050303"/>
     <use style="fill:#666666;stroke:#666666;" x="285.254209" xlink:href="#m70dd7932f7" y="233.984921"/>
     <use style="fill:#666666;stroke:#666666;" x="286.16559" xlink:href="#m70dd7932f7" y="214.314862"/>
     <use style="fill:#666666;stroke:#666666;" x="287.076971" xlink:href="#m70dd7932f7" y="215.862108"/>
     <use style="fill:#666666;stroke:#666666;" x="287.988352" xlink:href="#m70dd7932f7" y="235.222333"/>
     <use style="fill:#666666;stroke:#666666;" x="288.899733" xlink:href="#m70dd7932f7" y="244.820458"/>
     <use style="fill:#666666;stroke:#666666;" x="289.811114" xlink:href="#m70dd7932f7" y="261.005122"/>
     <use style="fill:#666666;stroke:#666666;" x="290.722494" xlink:href="#m70dd7932f7" y="253.581809"/>
     <use style="fill:#666666;stroke:#666666;" x="291.633875" xlink:href="#m70dd7932f7" y="258.684927"/>
     <use style="fill:#666666;stroke:#666666;" x="292.545256" xlink:href="#m70dd7932f7" y="269.345572"/>
     <use style="fill:#666666;stroke:#666666;" x="293.456637" xlink:href="#m70dd7932f7" y="268.110703"/>
     <use style="fill:#666666;stroke:#666666;" x="294.368018" xlink:href="#m70dd7932f7" y="268.227849"/>
     <use style="fill:#666666;stroke:#666666;" x="295.279399" xlink:href="#m70dd7932f7" y="273.433159"/>
     <use style="fill:#666666;stroke:#666666;" x="296.19078" xlink:href="#m70dd7932f7" y="270.134296"/>
     <use style="fill:#666666;stroke:#666666;" x="297.10216" xlink:href="#m70dd7932f7" y="264.981401"/>
     <use style="fill:#666666;stroke:#666666;" x="298.013541" xlink:href="#m70dd7932f7" y="272.910922"/>
     <use style="fill:#666666;stroke:#666666;" x="298.924922" xlink:href="#m70dd7932f7" y="267.437143"/>
     <use style="fill:#666666;stroke:#666666;" x="299.836303" xlink:href="#m70dd7932f7" y="271.90887"/>
     <use style="fill:#666666;stroke:#666666;" x="300.747684" xlink:href="#m70dd7932f7" y="271.594552"/>
     <use style="fill:#666666;stroke:#666666;" x="301.659065" xlink:href="#m70dd7932f7" y="272.634798"/>
     <use style="fill:#666666;stroke:#666666;" x="302.570445" xlink:href="#m70dd7932f7" y="273.230019"/>
     <use style="fill:#666666;stroke:#666666;" x="303.481826" xlink:href="#m70dd7932f7" y="271.905663"/>
     <use style="fill:#666666;stroke:#666666;" x="304.393207" xlink:href="#m70dd7932f7" y="272.127117"/>
     <use style="fill:#666666;stroke:#666666;" x="305.304588" xlink:href="#m70dd7932f7" y="272.372191"/>
     <use style="fill:#666666;stroke:#666666;" x="306.215969" xlink:href="#m70dd7932f7" y="271.389323"/>
     <use style="fill:#666666;stroke:#666666;" x="307.12735" xlink:href="#m70dd7932f7" y="269.437348"/>
     <use style="fill:#666666;stroke:#666666;" x="308.038731" xlink:href="#m70dd7932f7" y="268.500679"/>
     <use style="fill:#666666;stroke:#666666;" x="308.950111" xlink:href="#m70dd7932f7" y="257.131192"/>
     <use style="fill:#666666;stroke:#666666;" x="309.861492" xlink:href="#m70dd7932f7" y="252.32745"/>
     <use style="fill:#666666;stroke:#666666;" x="310.772873" xlink:href="#m70dd7932f7" y="233.989966"/>
     <use style="fill:#666666;stroke:#666666;" x="311.684254" xlink:href="#m70dd7932f7" y="236.401863"/>
     <use style="fill:#666666;stroke:#666666;" x="312.595635" xlink:href="#m70dd7932f7" y="239.161714"/>
     <use style="fill:#666666;stroke:#666666;" x="313.507016" xlink:href="#m70dd7932f7" y="243.36025"/>
     <use style="fill:#666666;stroke:#666666;" x="314.418396" xlink:href="#m70dd7932f7" y="246.199267"/>
     <use style="fill:#666666;stroke:#666666;" x="315.329777" xlink:href="#m70dd7932f7" y="242.179899"/>
     <use style="fill:#666666;stroke:#666666;" x="316.241158" xlink:href="#m70dd7932f7" y="254.494899"/>
     <use style="fill:#666666;stroke:#666666;" x="317.152539" xlink:href="#m70dd7932f7" y="249.081513"/>
     <use style="fill:#666666;stroke:#666666;" x="318.06392" xlink:href="#m70dd7932f7" y="249.799278"/>
     <use style="fill:#666666;stroke:#666666;" x="318.975301" xlink:href="#m70dd7932f7" y="265.694861"/>
     <use style="fill:#666666;stroke:#666666;" x="319.886682" xlink:href="#m70dd7932f7" y="263.181868"/>
     <use style="fill:#666666;stroke:#666666;" x="320.798062" xlink:href="#m70dd7932f7" y="259.650528"/>
     <use style="fill:#666666;stroke:#666666;" x="321.709443" xlink:href="#m70dd7932f7" y="248.606009"/>
     <use style="fill:#666666;stroke:#666666;" x="322.620824" xlink:href="#m70dd7932f7" y="247.404286"/>
     <use style="fill:#666666;stroke:#666666;" x="323.532205" xlink:href="#m70dd7932f7" y="234.262953"/>
     <use style="fill:#666666;stroke:#666666;" x="324.443586" xlink:href="#m70dd7932f7" y="223.21615"/>
     <use style="fill:#666666;stroke:#666666;" x="325.354967" xlink:href="#m70dd7932f7" y="233.574132"/>
     <use style="fill:#666666;stroke:#666666;" x="326.266347" xlink:href="#m70dd7932f7" y="263.710603"/>
     <use style="fill:#666666;stroke:#666666;" x="327.177728" xlink:href="#m70dd7932f7" y="265.621684"/>
     <use style="fill:#666666;stroke:#666666;" x="328.089109" xlink:href="#m70dd7932f7" y="265.678544"/>
     <use style="fill:#666666;stroke:#666666;" x="329.00049" xlink:href="#m70dd7932f7" y="253.640206"/>
     <use style="fill:#666666;stroke:#666666;" x="329.911871" xlink:href="#m70dd7932f7" y="244.656316"/>
     <use style="fill:#666666;stroke:#666666;" x="330.823252" xlink:href="#m70dd7932f7" y="245.159535"/>
     <use style="fill:#666666;stroke:#666666;" x="331.734633" xlink:href="#m70dd7932f7" y="213.350635"/>
     <use style="fill:#666666;stroke:#666666;" x="332.646013" xlink:href="#m70dd7932f7" y="248.55589"/>
     <use style="fill:#666666;stroke:#666666;" x="333.557394" xlink:href="#m70dd7932f7" y="233.0955"/>
     <use style="fill:#666666;stroke:#666666;" x="334.468775" xlink:href="#m70dd7932f7" y="245.629185"/>
     <use style="fill:#666666;stroke:#666666;" x="335.380156" xlink:href="#m70dd7932f7" y="238.92849"/>
     <use style="fill:#666666;stroke:#666666;" x="336.291537" xlink:href="#m70dd7932f7" y="243.397352"/>
     <use style="fill:#666666;stroke:#666666;" x="337.202918" xlink:href="#m70dd7932f7" y="240.862207"/>
     <use style="fill:#666666;stroke:#666666;" x="338.114298" xlink:href="#m70dd7932f7" y="212.334059"/>
     <use style="fill:#666666;stroke:#666666;" x="339.025679" xlink:href="#m70dd7932f7" y="206.654896"/>
     <use style="fill:#666666;stroke:#666666;" x="339.93706" xlink:href="#m70dd7932f7" y="224.49783"/>
     <use style="fill:#666666;stroke:#666666;" x="340.848441" xlink:href="#m70dd7932f7" y="239.683674"/>
     <use style="fill:#666666;stroke:#666666;" x="341.759822" xlink:href="#m70dd7932f7" y="227.019972"/>
     <use style="fill:#666666;stroke:#666666;" x="342.671203" xlink:href="#m70dd7932f7" y="238.169564"/>
     <use style="fill:#666666;stroke:#666666;" x="343.582584" xlink:href="#m70dd7932f7" y="233.874803"/>
     <use style="fill:#666666;stroke:#666666;" x="344.493964" xlink:href="#m70dd7932f7" y="233.908281"/>
     <use style="fill:#666666;stroke:#666666;" x="345.405345" xlink:href="#m70dd7932f7" y="223.326304"/>
     <use style="fill:#666666;stroke:#666666;" x="346.316726" xlink:href="#m70dd7932f7" y="195.104483"/>
     <use style="fill:#666666;stroke:#666666;" x="347.228107" xlink:href="#m70dd7932f7" y="198.190333"/>
     <use style="fill:#666666;stroke:#666666;" x="348.139488" xlink:href="#m70dd7932f7" y="208.206111"/>
     <use style="fill:#666666;stroke:#666666;" x="349.050869" xlink:href="#m70dd7932f7" y="219.860263"/>
     <use style="fill:#666666;stroke:#666666;" x="349.962249" xlink:href="#m70dd7932f7" y="241.354452"/>
     <use style="fill:#666666;stroke:#666666;" x="350.87363" xlink:href="#m70dd7932f7" y="262.746959"/>
     <use style="fill:#666666;stroke:#666666;" x="351.785011" xlink:href="#m70dd7932f7" y="262.88946"/>
     <use style="fill:#666666;stroke:#666666;" x="352.696392" xlink:href="#m70dd7932f7" y="258.063443"/>
     <use style="fill:#666666;stroke:#666666;" x="353.607773" xlink:href="#m70dd7932f7" y="258.959602"/>
     <use style="fill:#666666;stroke:#666666;" x="354.519154" xlink:href="#m70dd7932f7" y="256.789481"/>
     <use style="fill:#666666;stroke:#666666;" x="355.430535" xlink:href="#m70dd7932f7" y="257.970913"/>
     <use style="fill:#666666;stroke:#666666;" x="356.341915" xlink:href="#m70dd7932f7" y="256.952693"/>
     <use style="fill:#666666;stroke:#666666;" x="357.253296" xlink:href="#m70dd7932f7" y="248.004348"/>
     <use style="fill:#666666;stroke:#666666;" x="358.164677" xlink:href="#m70dd7932f7" y="242.108553"/>
     <use style="fill:#666666;stroke:#666666;" x="359.076058" xlink:href="#m70dd7932f7" y="240.219972"/>
     <use style="fill:#666666;stroke:#666666;" x="359.987439" xlink:href="#m70dd7932f7" y="238.447663"/>
     <use style="fill:#666666;stroke:#666666;" x="360.89882" xlink:href="#m70dd7932f7" y="240.529078"/>
     <use style="fill:#666666;stroke:#666666;" x="361.8102" xlink:href="#m70dd7932f7" y="231.258902"/>
     <use style="fill:#666666;stroke:#666666;" x="362.721581" xlink:href="#m70dd7932f7" y="234.471633"/>
     <use style="fill:#666666;stroke:#666666;" x="363.632962" xlink:href="#m70dd7932f7" y="258.098694"/>
     <use style="fill:#666666;stroke:#666666;" x="364.544343" xlink:href="#m70dd7932f7" y="262.143895"/>
     <use style="fill:#666666;stroke:#666666;" x="365.455724" xlink:href="#m70dd7932f7" y="259.577566"/>
     <use style="fill:#666666;stroke:#666666;" x="366.367105" xlink:href="#m70dd7932f7" y="263.692774"/>
     <use style="fill:#666666;stroke:#666666;" x="367.278486" xlink:href="#m70dd7932f7" y="267.291788"/>
     <use style="fill:#666666;stroke:#666666;" x="368.189866" xlink:href="#m70dd7932f7" y="267.154573"/>
     <use style="fill:#666666;stroke:#666666;" x="369.101247" xlink:href="#m70dd7932f7" y="264.302023"/>
     <use style="fill:#666666;stroke:#666666;" x="370.012628" xlink:href="#m70dd7932f7" y="270.585831"/>
     <use style="fill:#666666;stroke:#666666;" x="370.924009" xlink:href="#m70dd7932f7" y="267.139459"/>
     <use style="fill:#666666;stroke:#666666;" x="371.83539" xlink:href="#m70dd7932f7" y="268.040444"/>
     <use style="fill:#666666;stroke:#666666;" x="372.746771" xlink:href="#m70dd7932f7" y="274.073038"/>
     <use style="fill:#666666;stroke:#666666;" x="373.658151" xlink:href="#m70dd7932f7" y="272.95292"/>
     <use style="fill:#666666;stroke:#666666;" x="374.569532" xlink:href="#m70dd7932f7" y="273.370856"/>
     <use style="fill:#666666;stroke:#666666;" x="375.480913" xlink:href="#m70dd7932f7" y="273.736222"/>
     <use style="fill:#666666;stroke:#666666;" x="376.392294" xlink:href="#m70dd7932f7" y="273.66421"/>
     <use style="fill:#666666;stroke:#666666;" x="377.303675" xlink:href="#m70dd7932f7" y="257.755201"/>
     <use style="fill:#666666;stroke:#666666;" x="378.215056" xlink:href="#m70dd7932f7" y="247.51088"/>
     <use style="fill:#666666;stroke:#666666;" x="379.126437" xlink:href="#m70dd7932f7" y="209.920867"/>
     <use style="fill:#666666;stroke:#666666;" x="380.037817" xlink:href="#m70dd7932f7" y="221.579364"/>
     <use style="fill:#666666;stroke:#666666;" x="380.949198" xlink:href="#m70dd7932f7" y="247.840281"/>
     <use style="fill:#666666;stroke:#666666;" x="381.860579" xlink:href="#m70dd7932f7" y="249.158012"/>
     <use style="fill:#666666;stroke:#666666;" x="382.77196" xlink:href="#m70dd7932f7" y="254.714611"/>
     <use style="fill:#666666;stroke:#666666;" x="383.683341" xlink:href="#m70dd7932f7" y="255.475989"/>
     <use style="fill:#666666;stroke:#666666;" x="384.594722" xlink:href="#m70dd7932f7" y="233.81725"/>
     <use style="fill:#666666;stroke:#666666;" x="385.506102" xlink:href="#m70dd7932f7" y="206.099824"/>
     <use style="fill:#666666;stroke:#666666;" x="386.417483" xlink:href="#m70dd7932f7" y="245.453184"/>
     <use style="fill:#666666;stroke:#666666;" x="387.328864" xlink:href="#m70dd7932f7" y="244.843569"/>
     <use style="fill:#666666;stroke:#666666;" x="388.240245" xlink:href="#m70dd7932f7" y="252.322068"/>
     <use style="fill:#666666;stroke:#666666;" x="389.151626" xlink:href="#m70dd7932f7" y="251.54009"/>
     <use style="fill:#666666;stroke:#666666;" x="390.063007" xlink:href="#m70dd7932f7" y="245.206992"/>
     <use style="fill:#666666;stroke:#666666;" x="390.974388" xlink:href="#m70dd7932f7" y="248.917174"/>
     <use style="fill:#666666;stroke:#666666;" x="391.885768" xlink:href="#m70dd7932f7" y="257.32905"/>
     <use style="fill:#666666;stroke:#666666;" x="392.797149" xlink:href="#m70dd7932f7" y="260.143665"/>
     <use style="fill:#666666;stroke:#666666;" x="393.70853" xlink:href="#m70dd7932f7" y="248.789712"/>
     <use style="fill:#666666;stroke:#666666;" x="394.619911" xlink:href="#m70dd7932f7" y="254.898623"/>
     <use style="fill:#666666;stroke:#666666;" x="395.531292" xlink:href="#m70dd7932f7" y="254.893415"/>
     <use style="fill:#666666;stroke:#666666;" x="396.442673" xlink:href="#m70dd7932f7" y="257.540491"/>
     <use style="fill:#666666;stroke:#666666;" x="397.354053" xlink:href="#m70dd7932f7" y="244.217453"/>
     <use style="fill:#666666;stroke:#666666;" x="398.265434" xlink:href="#m70dd7932f7" y="246.434054"/>
     <use style="fill:#666666;stroke:#666666;" x="399.176815" xlink:href="#m70dd7932f7" y="236.049151"/>
     <use style="fill:#666666;stroke:#666666;" x="400.088196" xlink:href="#m70dd7932f7" y="242.709052"/>
     <use style="fill:#666666;stroke:#666666;" x="400.999577" xlink:href="#m70dd7932f7" y="220.714175"/>
     <use style="fill:#666666;stroke:#666666;" x="401.910958" xlink:href="#m70dd7932f7" y="234.157036"/>
     <use style="fill:#666666;stroke:#666666;" x="402.822339" xlink:href="#m70dd7932f7" y="228.272884"/>
     <use style="fill:#666666;stroke:#666666;" x="403.733719" xlink:href="#m70dd7932f7" y="216.908247"/>
     <use style="fill:#666666;stroke:#666666;" x="404.6451" xlink:href="#m70dd7932f7" y="239.337737"/>
     <use style="fill:#666666;stroke:#666666;" x="405.556481" xlink:href="#m70dd7932f7" y="245.800271"/>
     <use style="fill:#666666;stroke:#666666;" x="406.467862" xlink:href="#m70dd7932f7" y="245.707991"/>
     <use style="fill:#666666;stroke:#666666;" x="407.379243" xlink:href="#m70dd7932f7" y="256.730273"/>
     <use style="fill:#666666;stroke:#666666;" x="408.290624" xlink:href="#m70dd7932f7" y="255.757511"/>
     <use style="fill:#666666;stroke:#666666;" x="409.202004" xlink:href="#m70dd7932f7" y="264.090691"/>
     <use style="fill:#666666;stroke:#666666;" x="410.113385" xlink:href="#m70dd7932f7" y="267.877927"/>
     <use style="fill:#666666;stroke:#666666;" x="411.024766" xlink:href="#m70dd7932f7" y="263.346545"/>
     <use style="fill:#666666;stroke:#666666;" x="411.936147" xlink:href="#m70dd7932f7" y="263.932731"/>
     <use style="fill:#666666;stroke:#666666;" x="412.847528" xlink:href="#m70dd7932f7" y="270.61736"/>
     <use style="fill:#666666;stroke:#666666;" x="413.758909" xlink:href="#m70dd7932f7" y="262.382853"/>
     <use style="fill:#666666;stroke:#666666;" x="414.67029" xlink:href="#m70dd7932f7" y="257.70662"/>
     <use style="fill:#666666;stroke:#666666;" x="415.58167" xlink:href="#m70dd7932f7" y="269.686846"/>
     <use style="fill:#666666;stroke:#666666;" x="416.493051" xlink:href="#m70dd7932f7" y="263.236102"/>
     <use style="fill:#666666;stroke:#666666;" x="417.404432" xlink:href="#m70dd7932f7" y="250.810255"/>
     <use style="fill:#666666;stroke:#666666;" x="418.315813" xlink:href="#m70dd7932f7" y="225.062014"/>
     <use style="fill:#666666;stroke:#666666;" x="419.227194" xlink:href="#m70dd7932f7" y="189.643901"/>
     <use style="fill:#666666;stroke:#666666;" x="420.138575" xlink:href="#m70dd7932f7" y="206.662715"/>
     <use style="fill:#666666;stroke:#666666;" x="421.049955" xlink:href="#m70dd7932f7" y="233.301958"/>
     <use style="fill:#666666;stroke:#666666;" x="421.961336" xlink:href="#m70dd7932f7" y="216.291285"/>
     <use style="fill:#666666;stroke:#666666;" x="422.872717" xlink:href="#m70dd7932f7" y="233.919803"/>
     <use style="fill:#666666;stroke:#666666;" x="423.784098" xlink:href="#m70dd7932f7" y="201.127855"/>
     <use style="fill:#666666;stroke:#666666;" x="424.695479" xlink:href="#m70dd7932f7" y="270.575983"/>
     <use style="fill:#666666;stroke:#666666;" x="425.60686" xlink:href="#m70dd7932f7" y="271.48387"/>
     <use style="fill:#666666;stroke:#666666;" x="426.518241" xlink:href="#m70dd7932f7" y="270.62962"/>
     <use style="fill:#666666;stroke:#666666;" x="427.429621" xlink:href="#m70dd7932f7" y="270.207191"/>
     <use style="fill:#666666;stroke:#666666;" x="428.341002" xlink:href="#m70dd7932f7" y="271.391042"/>
     <use style="fill:#666666;stroke:#666666;" x="429.252383" xlink:href="#m70dd7932f7" y="268.34566"/>
     <use style="fill:#666666;stroke:#666666;" x="430.163764" xlink:href="#m70dd7932f7" y="263.085425"/>
     <use style="fill:#666666;stroke:#666666;" x="431.075145" xlink:href="#m70dd7932f7" y="261.321507"/>
     <use style="fill:#666666;stroke:#666666;" x="431.986526" xlink:href="#m70dd7932f7" y="256.137686"/>
     <use style="fill:#666666;stroke:#666666;" x="432.897906" xlink:href="#m70dd7932f7" y="256.309824"/>
     <use style="fill:#666666;stroke:#666666;" x="433.809287" xlink:href="#m70dd7932f7" y="237.218486"/>
     <use style="fill:#666666;stroke:#666666;" x="434.720668" xlink:href="#m70dd7932f7" y="228.787412"/>
     <use style="fill:#666666;stroke:#666666;" x="435.632049" xlink:href="#m70dd7932f7" y="195.334942"/>
     <use style="fill:#666666;stroke:#666666;" x="436.54343" xlink:href="#m70dd7932f7" y="179.822809"/>
     <use style="fill:#666666;stroke:#666666;" x="437.454811" xlink:href="#m70dd7932f7" y="179.273539"/>
     <use style="fill:#666666;stroke:#666666;" x="438.366192" xlink:href="#m70dd7932f7" y="199.418331"/>
     <use style="fill:#666666;stroke:#666666;" x="439.277572" xlink:href="#m70dd7932f7" y="221.838967"/>
     <use style="fill:#666666;stroke:#666666;" x="440.188953" xlink:href="#m70dd7932f7" y="242.079717"/>
     <use style="fill:#666666;stroke:#666666;" x="441.100334" xlink:href="#m70dd7932f7" y="252.206484"/>
     <use style="fill:#666666;stroke:#666666;" x="442.011715" xlink:href="#m70dd7932f7" y="250.301669"/>
     <use style="fill:#666666;stroke:#666666;" x="442.923096" xlink:href="#m70dd7932f7" y="238.327541"/>
     <use style="fill:#666666;stroke:#666666;" x="443.834477" xlink:href="#m70dd7932f7" y="223.20125"/>
     <use style="fill:#666666;stroke:#666666;" x="444.745857" xlink:href="#m70dd7932f7" y="198.022395"/>
     <use style="fill:#666666;stroke:#666666;" x="445.657238" xlink:href="#m70dd7932f7" y="145.029177"/>
     <use style="fill:#666666;stroke:#666666;" x="446.568619" xlink:href="#m70dd7932f7" y="83.326431"/>
     <use style="fill:#666666;stroke:#666666;" x="447.48" xlink:href="#m70dd7932f7" y="25.796364"/>
    </g>
   </g>
   <g id="patch_3">
    <path d="M 38.27 287.8 
L 38.27 13.32 
" style="fill:none;stroke:#000000;stroke-linecap:square;stroke-linejoin:miter;stroke-width:0.8;"/>
   </g>
   <g id="patch_4">
    <path d="M 447.48 287.8 
L 447.48 13.32 
" style="fill:none;stroke:#000000;stroke-linecap:square;stroke-linejoin:miter;stroke-width:0.8;"/>
   </g>
   <g id="patch_5">
    <path d="M 38.27 287.8 
L 447.48 287.8 
" style="fill:none;stroke:#000000;stroke-linecap:square;stroke-linejoin:miter;stroke-width:0.8;"/>
   </g>
   <g id="patch_6">
    <path d="M 38.27 13.32 
L 447.48 13.32 
" style="fill:none;stroke:#000000;stroke-linecap:square;stroke-linejoin:miter;stroke-width:0.8;"/>
   </g>
  </g>
 </g>
 <defs>
  <clipPath id="p9fb8d99962">
   <rect height="274.48" width="409.21" x="38.27" y="13.32"/>
  </clipPath>
 </defs>
</svg>
