<?xml version="1.0" encoding="utf-8" standalone="no"?>
<!DOCTYPE svg PUBLIC "-//W3C//DTD SVG 1.1//EN"
  "http://www.w3.org/Graphics/SVG/1.1/DTD/svg11.dtd">
<!-- Created with matplotlib (http://matplotlib.org/) -->
<svg height="345.6pt" version="1.1" viewBox="0 0 460.8 345.6" width="460.8pt" xmlns="http://www.w3.org/2000/svg" xmlns:xlink="http://www.w3.org/1999/xlink">
 <defs>
  <style type="text/css">
*{stroke-linecap:butt;stroke-linejoin:round;}
  </style>
 </defs>
 <g id="figure_1">
  <g id="patch_1">
   <path d="M 0 345.6 
L 460.8 345.6 
L 460.8 0 
L 0 0 
z
" style="fill:#ffffff;"/>
  </g>
  <g id="axes_1">
   <g id="patch_2">
    <path d="M 57.6 307.584 
L 414.72 307.584 
L 414.72 41.472 
L 57.6 41.472 
z
" style="fill:#ffffff;"/>
   </g>
   <g id="matplotlib.axis_1">
    <g id="xtick_1">
     <g id="line2d_1">
      <defs>
       <path d="M 0 0 
L 0 3.5 
" id="maf7867e7c4" style="stroke:#000000;stroke-width:0.8;"/>
      </defs>
      <g>
       <use style="stroke:#000000;stroke-width:0.8;" x="73.832727" xlink:href="#maf7867e7c4" y="307.584"/>
      </g>
     </g>
     <g id="text_1">
      <!-- 0 -->
      <defs>
       <path d="M 31.78125 66.40625 
Q 24.171875 66.40625 20.328125 58.90625 
Q 16.5 51.421875 16.5 36.375 
Q 16.5 21.390625 20.328125 13.890625 
Q 24.171875 6.390625 31.78125 6.390625 
Q 39.453125 6.390625 43.28125 13.890625 
Q 47.125 21.390625 47.125 36.375 
Q 47.125 51.421875 43.28125 58.90625 
Q 39.453125 66.40625 31.78125 66.40625 
z
M 31.78125 74.21875 
Q 44.046875 74.21875 50.515625 64.515625 
Q 56.984375 54.828125 56.984375 36.375 
Q 56.984375 17.96875 50.515625 8.265625 
Q 44.046875 -1.421875 31.78125 -1.421875 
Q 19.53125 -1.421875 13.0625 8.265625 
Q 6.59375 17.96875 6.59375 36.375 
Q 6.59375 54.828125 13.0625 64.515625 
Q 19.53125 74.21875 31.78125 74.21875 
z
" id="DejaVuSans-30"/>
      </defs>
      <g transform="translate(70.651477 322.182437)scale(0.1 -0.1)">
       <use xlink:href="#DejaVuSans-30"/>
      </g>
     </g>
    </g>
    <g id="xtick_2">
     <g id="line2d_2">
      <g>
       <use style="stroke:#000000;stroke-width:0.8;" x="128.122785" xlink:href="#maf7867e7c4" y="307.584"/>
      </g>
     </g>
     <g id="text_2">
      <!-- 50 -->
      <defs>
       <path d="M 10.796875 72.90625 
L 49.515625 72.90625 
L 49.515625 64.59375 
L 19.828125 64.59375 
L 19.828125 46.734375 
Q 21.96875 47.46875 24.109375 47.828125 
Q 26.265625 48.1875 28.421875 48.1875 
Q 40.625 48.1875 47.75 41.5 
Q 54.890625 34.8125 54.890625 23.390625 
Q 54.890625 11.625 47.5625 5.09375 
Q 40.234375 -1.421875 26.90625 -1.421875 
Q 22.3125 -1.421875 17.546875 -0.640625 
Q 12.796875 0.140625 7.71875 1.703125 
L 7.71875 11.625 
Q 12.109375 9.234375 16.796875 8.0625 
Q 21.484375 6.890625 26.703125 6.890625 
Q 35.15625 6.890625 40.078125 11.328125 
Q 45.015625 15.765625 45.015625 23.390625 
Q 45.015625 31 40.078125 35.4375 
Q 35.15625 39.890625 26.703125 39.890625 
Q 22.75 39.890625 18.8125 39.015625 
Q 14.890625 38.140625 10.796875 36.28125 
z
" id="DejaVuSans-35"/>
      </defs>
      <g transform="translate(121.760285 322.182437)scale(0.1 -0.1)">
       <use xlink:href="#DejaVuSans-35"/>
       <use x="63.623047" xlink:href="#DejaVuSans-30"/>
      </g>
     </g>
    </g>
    <g id="xtick_3">
     <g id="line2d_3">
      <g>
       <use style="stroke:#000000;stroke-width:0.8;" x="182.412843" xlink:href="#maf7867e7c4" y="307.584"/>
      </g>
     </g>
     <g id="text_3">
      <!-- 100 -->
      <defs>
       <path d="M 12.40625 8.296875 
L 28.515625 8.296875 
L 28.515625 63.921875 
L 10.984375 60.40625 
L 10.984375 69.390625 
L 28.421875 72.90625 
L 38.28125 72.90625 
L 38.28125 8.296875 
L 54.390625 8.296875 
L 54.390625 0 
L 12.40625 0 
z
" id="DejaVuSans-31"/>
      </defs>
      <g transform="translate(172.869093 322.182437)scale(0.1 -0.1)">
       <use xlink:href="#DejaVuSans-31"/>
       <use x="63.623047" xlink:href="#DejaVuSans-30"/>
       <use x="127.246094" xlink:href="#DejaVuSans-30"/>
      </g>
     </g>
    </g>
    <g id="xtick_4">
     <g id="line2d_4">
      <g>
       <use style="stroke:#000000;stroke-width:0.8;" x="236.702901" xlink:href="#maf7867e7c4" y="307.584"/>
      </g>
     </g>
     <g id="text_4">
      <!-- 150 -->
      <g transform="translate(227.159151 322.182437)scale(0.1 -0.1)">
       <use xlink:href="#DejaVuSans-31"/>
       <use x="63.623047" xlink:href="#DejaVuSans-35"/>
       <use x="127.246094" xlink:href="#DejaVuSans-30"/>
      </g>
     </g>
    </g>
    <g id="xtick_5">
     <g id="line2d_5">
      <g>
       <use style="stroke:#000000;stroke-width:0.8;" x="290.992958" xlink:href="#maf7867e7c4" y="307.584"/>
      </g>
     </g>
     <g id="text_5">
      <!-- 200 -->
      <defs>
       <path d="M 19.1875 8.296875 
L 53.609375 8.296875 
L 53.609375 0 
L 7.328125 0 
L 7.328125 8.296875 
Q 12.9375 14.109375 22.625 23.890625 
Q 32.328125 33.6875 34.8125 36.53125 
Q 39.546875 41.84375 41.421875 45.53125 
Q 43.3125 49.21875 43.3125 52.78125 
Q 43.3125 58.59375 39.234375 62.25 
Q 35.15625 65.921875 28.609375 65.921875 
Q 23.96875 65.921875 18.8125 64.3125 
Q 13.671875 62.703125 7.8125 59.421875 
L 7.8125 69.390625 
Q 13.765625 71.78125 18.9375 73 
Q 24.125 74.21875 28.421875 74.21875 
Q 39.75 74.21875 46.484375 68.546875 
Q 53.21875 62.890625 53.21875 53.421875 
Q 53.21875 48.921875 51.53125 44.890625 
Q 49.859375 40.875 45.40625 35.40625 
Q 44.1875 33.984375 37.640625 27.21875 
Q 31.109375 20.453125 19.1875 8.296875 
z
" id="DejaVuSans-32"/>
      </defs>
      <g transform="translate(281.449208 322.182437)scale(0.1 -0.1)">
       <use xlink:href="#DejaVuSans-32"/>
       <use x="63.623047" xlink:href="#DejaVuSans-30"/>
       <use x="127.246094" xlink:href="#DejaVuSans-30"/>
      </g>
     </g>
    </g>
    <g id="xtick_6">
     <g id="line2d_6">
      <g>
       <use style="stroke:#000000;stroke-width:0.8;" x="345.283016" xlink:href="#maf7867e7c4" y="307.584"/>
      </g>
     </g>
     <g id="text_6">
      <!-- 250 -->
      <g transform="translate(335.739266 322.182437)scale(0.1 -0.1)">
       <use xlink:href="#DejaVuSans-32"/>
       <use x="63.623047" xlink:href="#DejaVuSans-35"/>
       <use x="127.246094" xlink:href="#DejaVuSans-30"/>
      </g>
     </g>
    </g>
    <g id="xtick_7">
     <g id="line2d_7">
      <g>
       <use style="stroke:#000000;stroke-width:0.8;" x="399.573074" xlink:href="#maf7867e7c4" y="307.584"/>
      </g>
     </g>
    </g>
    <g id="text_7">
     <!-- Frame index -->
     <defs>
      <path d="M 9.8125 72.90625 
L 51.703125 72.90625 
L 51.703125 64.59375 
L 19.671875 64.59375 
L 19.671875 43.109375 
L 48.578125 43.109375 
L 48.578125 34.8125 
L 19.671875 34.8125 
L 19.671875 0 
L 9.8125 0 
z
" id="DejaVuSans-46"/>
      <path d="M 41.109375 46.296875 
Q 39.59375 47.171875 37.8125 47.578125 
Q 36.03125 48 33.890625 48 
Q 26.265625 48 22.1875 43.046875 
Q 18.109375 38.09375 18.109375 28.8125 
L 18.109375 0 
L 9.078125 0 
L 9.078125 54.6875 
L 18.109375 54.6875 
L 18.109375 46.1875 
Q 20.953125 51.171875 25.484375 53.578125 
Q 30.03125 56 36.53125 56 
Q 37.453125 56 38.578125 55.875 
Q 39.703125 55.765625 41.0625 55.515625 
z
" id="DejaVuSans-72"/>
      <path d="M 34.28125 27.484375 
Q 23.390625 27.484375 19.1875 25 
Q 14.984375 22.515625 14.984375 16.5 
Q 14.984375 11.71875 18.140625 8.90625 
Q 21.296875 6.109375 26.703125 6.109375 
Q 34.1875 6.109375 38.703125 11.40625 
Q 43.21875 16.703125 43.21875 25.484375 
L 43.21875 27.484375 
z
M 52.203125 31.203125 
L 52.203125 0 
L 43.21875 0 
L 43.21875 8.296875 
Q 40.140625 3.328125 35.546875 0.953125 
Q 30.953125 -1.421875 24.3125 -1.421875 
Q 15.921875 -1.421875 10.953125 3.296875 
Q 6 8.015625 6 15.921875 
Q 6 25.140625 12.171875 29.828125 
Q 18.359375 34.515625 30.609375 34.515625 
L 43.21875 34.515625 
L 43.21875 35.40625 
Q 43.21875 41.609375 39.140625 45 
Q 35.0625 48.390625 27.6875 48.390625 
Q 23 48.390625 18.546875 47.265625 
Q 14.109375 46.140625 10.015625 43.890625 
L 10.015625 52.203125 
Q 14.9375 54.109375 19.578125 55.046875 
Q 24.21875 56 28.609375 56 
Q 40.484375 56 46.34375 49.84375 
Q 52.203125 43.703125 52.203125 31.203125 
z
" id="DejaVuSans-61"/>
      <path d="M 52 44.1875 
Q 55.375 50.25 60.0625 53.125 
Q 64.75 56 71.09375 56 
Q 79.640625 56 84.28125 50.015625 
Q 88.921875 44.046875 88.921875 33.015625 
L 88.921875 0 
L 79.890625 0 
L 79.890625 32.71875 
Q 79.890625 40.578125 77.09375 44.375 
Q 74.3125 48.1875 68.609375 48.1875 
Q 61.625 48.1875 57.5625 43.546875 
Q 53.515625 38.921875 53.515625 30.90625 
L 53.515625 0 
L 44.484375 0 
L 44.484375 32.71875 
Q 44.484375 40.625 41.703125 44.40625 
Q 38.921875 48.1875 33.109375 48.1875 
Q 26.21875 48.1875 22.15625 43.53125 
Q 18.109375 38.875 18.109375 30.90625 
L 18.109375 0 
L 9.078125 0 
L 9.078125 54.6875 
L 18.109375 54.6875 
L 18.109375 46.1875 
Q 21.1875 51.21875 25.484375 53.609375 
Q 29.78125 56 35.6875 56 
Q 41.65625 56 45.828125 52.96875 
Q 50 49.953125 52 44.1875 
z
" id="DejaVuSans-6d"/>
      <path d="M 56.203125 29.59375 
L 56.203125 25.203125 
L 14.890625 25.203125 
Q 15.484375 15.921875 20.484375 11.0625 
Q 25.484375 6.203125 34.421875 6.203125 
Q 39.59375 6.203125 44.453125 7.46875 
Q 49.3125 8.734375 54.109375 11.28125 
L 54.109375 2.78125 
Q 49.265625 0.734375 44.1875 -0.34375 
Q 39.109375 -1.421875 33.890625 -1.421875 
Q 20.796875 -1.421875 13.15625 6.1875 
Q 5.515625 13.8125 5.515625 26.8125 
Q 5.515625 40.234375 12.765625 48.109375 
Q 20.015625 56 32.328125 56 
Q 43.359375 56 49.78125 48.890625 
Q 56.203125 41.796875 56.203125 29.59375 
z
M 47.21875 32.234375 
Q 47.125 39.59375 43.09375 43.984375 
Q 39.0625 48.390625 32.421875 48.390625 
Q 24.90625 48.390625 20.390625 44.140625 
Q 15.875 39.890625 15.1875 32.171875 
z
" id="DejaVuSans-65"/>
      <path id="DejaVuSans-20"/>
      <path d="M 9.421875 54.6875 
L 18.40625 54.6875 
L 18.40625 0 
L 9.421875 0 
z
M 9.421875 75.984375 
L 18.40625 75.984375 
L 18.40625 64.59375 
L 9.421875 64.59375 
z
" id="DejaVuSans-69"/>
      <path d="M 54.890625 33.015625 
L 54.890625 0 
L 45.90625 0 
L 45.90625 32.71875 
Q 45.90625 40.484375 42.875 44.328125 
Q 39.84375 48.1875 33.796875 48.1875 
Q 26.515625 48.1875 22.3125 43.546875 
Q 18.109375 38.921875 18.109375 30.90625 
L 18.109375 0 
L 9.078125 0 
L 9.078125 54.6875 
L 18.109375 54.6875 
L 18.109375 46.1875 
Q 21.34375 51.125 25.703125 53.5625 
Q 30.078125 56 35.796875 56 
Q 45.21875 56 50.046875 50.171875 
Q 54.890625 44.34375 54.890625 33.015625 
z
" id="DejaVuSans-6e"/>
      <path d="M 45.40625 46.390625 
L 45.40625 75.984375 
L 54.390625 75.984375 
L 54.390625 0 
L 45.40625 0 
L 45.40625 8.203125 
Q 42.578125 3.328125 38.25 0.953125 
Q 33.9375 -1.421875 27.875 -1.421875 
Q 17.96875 -1.421875 11.734375 6.484375 
Q 5.515625 14.40625 5.515625 27.296875 
Q 5.515625 40.1875 11.734375 48.09375 
Q 17.96875 56 27.875 56 
Q 33.9375 56 38.25 53.625 
Q 42.578125 51.265625 45.40625 46.390625 
z
M 14.796875 27.296875 
Q 14.796875 17.390625 18.875 11.75 
Q 22.953125 6.109375 30.078125 6.109375 
Q 37.203125 6.109375 41.296875 11.75 
Q 45.40625 17.390625 45.40625 27.296875 
Q 45.40625 37.203125 41.296875 42.84375 
Q 37.203125 48.484375 30.078125 48.484375 
Q 22.953125 48.484375 18.875 42.84375 
Q 14.796875 37.203125 14.796875 27.296875 
z
" id="DejaVuSans-64"/>
      <path d="M 54.890625 54.6875 
L 35.109375 28.078125 
L 55.90625 0 
L 45.3125 0 
L 29.390625 21.484375 
L 13.484375 0 
L 2.875 0 
L 24.125 28.609375 
L 4.6875 54.6875 
L 15.28125 54.6875 
L 29.78125 35.203125 
L 44.28125 54.6875 
z
" id="DejaVuSans-78"/>
     </defs>
     <g transform="translate(204.867031 335.860562)scale(0.1 -0.1)">
      <use xlink:href="#DejaVuSans-46"/>
      <use x="57.410156" xlink:href="#DejaVuSans-72"/>
      <use x="98.523438" xlink:href="#DejaVuSans-61"/>
      <use x="159.802734" xlink:href="#DejaVuSans-6d"/>
      <use x="257.214844" xlink:href="#DejaVuSans-65"/>
      <use x="318.738281" xlink:href="#DejaVuSans-20"/>
      <use x="350.525391" xlink:href="#DejaVuSans-69"/>
      <use x="378.308594" xlink:href="#DejaVuSans-6e"/>
      <use x="441.6875" xlink:href="#DejaVuSans-64"/>
      <use x="505.164062" xlink:href="#DejaVuSans-65"/>
      <use x="566.671875" xlink:href="#DejaVuSans-78"/>
     </g>
    </g>
   </g>
   <g id="matplotlib.axis_2">
    <g id="ytick_1">
     <g id="line2d_8">
      <defs>
       <path d="M 0 0 
L -3.5 0 
" id="mca347cc687" style="stroke:#000000;stroke-width:0.8;"/>
      </defs>
      <g>
       <use style="stroke:#000000;stroke-width:0.8;" x="57.6" xlink:href="#mca347cc687" y="273.410567"/>
      </g>
     </g>
     <g id="text_8">
      <!-- 7 -->
      <defs>
       <path d="M 8.203125 72.90625 
L 55.078125 72.90625 
L 55.078125 68.703125 
L 28.609375 0 
L 18.3125 0 
L 43.21875 64.59375 
L 8.203125 64.59375 
z
" id="DejaVuSans-37"/>
      </defs>
      <g transform="translate(44.2375 277.209786)scale(0.1 -0.1)">
       <use xlink:href="#DejaVuSans-37"/>
      </g>
     </g>
    </g>
    <g id="ytick_2">
     <g id="line2d_9">
      <g>
       <use style="stroke:#000000;stroke-width:0.8;" x="57.6" xlink:href="#mca347cc687" y="222.665368"/>
      </g>
     </g>
     <g id="text_9">
      <!-- 8 -->
      <defs>
       <path d="M 31.78125 34.625 
Q 24.75 34.625 20.71875 30.859375 
Q 16.703125 27.09375 16.703125 20.515625 
Q 16.703125 13.921875 20.71875 10.15625 
Q 24.75 6.390625 31.78125 6.390625 
Q 38.8125 6.390625 42.859375 10.171875 
Q 46.921875 13.96875 46.921875 20.515625 
Q 46.921875 27.09375 42.890625 30.859375 
Q 38.875 34.625 31.78125 34.625 
z
M 21.921875 38.8125 
Q 15.578125 40.375 12.03125 44.71875 
Q 8.5 49.078125 8.5 55.328125 
Q 8.5 64.0625 14.71875 69.140625 
Q 20.953125 74.21875 31.78125 74.21875 
Q 42.671875 74.21875 48.875 69.140625 
Q 55.078125 64.0625 55.078125 55.328125 
Q 55.078125 49.078125 51.53125 44.71875 
Q 48 40.375 41.703125 38.8125 
Q 48.828125 37.15625 52.796875 32.3125 
Q 56.78125 27.484375 56.78125 20.515625 
Q 56.78125 9.90625 50.3125 4.234375 
Q 43.84375 -1.421875 31.78125 -1.421875 
Q 19.734375 -1.421875 13.25 4.234375 
Q 6.78125 9.90625 6.78125 20.515625 
Q 6.78125 27.484375 10.78125 32.3125 
Q 14.796875 37.15625 21.921875 38.8125 
z
M 18.3125 54.390625 
Q 18.3125 48.734375 21.84375 45.5625 
Q 25.390625 42.390625 31.78125 42.390625 
Q 38.140625 42.390625 41.71875 45.5625 
Q 45.3125 48.734375 45.3125 54.390625 
Q 45.3125 60.0625 41.71875 63.234375 
Q 38.140625 66.40625 31.78125 66.40625 
Q 25.390625 66.40625 21.84375 63.234375 
Q 18.3125 60.0625 18.3125 54.390625 
z
" id="DejaVuSans-38"/>
      </defs>
      <g transform="translate(44.2375 226.464587)scale(0.1 -0.1)">
       <use xlink:href="#DejaVuSans-38"/>
      </g>
     </g>
    </g>
    <g id="ytick_3">
     <g id="line2d_10">
      <g>
       <use style="stroke:#000000;stroke-width:0.8;" x="57.6" xlink:href="#mca347cc687" y="171.920169"/>
      </g>
     </g>
     <g id="text_10">
      <!-- 9 -->
      <defs>
       <path d="M 10.984375 1.515625 
L 10.984375 10.5 
Q 14.703125 8.734375 18.5 7.8125 
Q 22.3125 6.890625 25.984375 6.890625 
Q 35.75 6.890625 40.890625 13.453125 
Q 46.046875 20.015625 46.78125 33.40625 
Q 43.953125 29.203125 39.59375 26.953125 
Q 35.25 24.703125 29.984375 24.703125 
Q 19.046875 24.703125 12.671875 31.3125 
Q 6.296875 37.9375 6.296875 49.421875 
Q 6.296875 60.640625 12.9375 67.421875 
Q 19.578125 74.21875 30.609375 74.21875 
Q 43.265625 74.21875 49.921875 64.515625 
Q 56.59375 54.828125 56.59375 36.375 
Q 56.59375 19.140625 48.40625 8.859375 
Q 40.234375 -1.421875 26.421875 -1.421875 
Q 22.703125 -1.421875 18.890625 -0.6875 
Q 15.09375 0.046875 10.984375 1.515625 
z
M 30.609375 32.421875 
Q 37.25 32.421875 41.125 36.953125 
Q 45.015625 41.5 45.015625 49.421875 
Q 45.015625 57.28125 41.125 61.84375 
Q 37.25 66.40625 30.609375 66.40625 
Q 23.96875 66.40625 20.09375 61.84375 
Q 16.21875 57.28125 16.21875 49.421875 
Q 16.21875 41.5 20.09375 36.953125 
Q 23.96875 32.421875 30.609375 32.421875 
z
" id="DejaVuSans-39"/>
      </defs>
      <g transform="translate(44.2375 175.719388)scale(0.1 -0.1)">
       <use xlink:href="#DejaVuSans-39"/>
      </g>
     </g>
    </g>
    <g id="ytick_4">
     <g id="line2d_11">
      <g>
       <use style="stroke:#000000;stroke-width:0.8;" x="57.6" xlink:href="#mca347cc687" y="121.17497"/>
      </g>
     </g>
     <g id="text_11">
      <!-- 10 -->
      <g transform="translate(37.875 124.974189)scale(0.1 -0.1)">
       <use xlink:href="#DejaVuSans-31"/>
       <use x="63.623047" xlink:href="#DejaVuSans-30"/>
      </g>
     </g>
    </g>
    <g id="ytick_5">
     <g id="line2d_12">
      <g>
       <use style="stroke:#000000;stroke-width:0.8;" x="57.6" xlink:href="#mca347cc687" y="70.429771"/>
      </g>
     </g>
     <g id="text_12">
      <!-- 11 -->
      <g transform="translate(37.875 74.22899)scale(0.1 -0.1)">
       <use xlink:href="#DejaVuSans-31"/>
       <use x="63.623047" xlink:href="#DejaVuSans-31"/>
      </g>
     </g>
    </g>
    <g id="text_13">
     <!-- RMSD -->
     <defs>
      <path d="M 44.390625 34.1875 
Q 47.5625 33.109375 50.5625 29.59375 
Q 53.5625 26.078125 56.59375 19.921875 
L 66.609375 0 
L 56 0 
L 46.6875 18.703125 
Q 43.0625 26.03125 39.671875 28.421875 
Q 36.28125 30.8125 30.421875 30.8125 
L 19.671875 30.8125 
L 19.671875 0 
L 9.8125 0 
L 9.8125 72.90625 
L 32.078125 72.90625 
Q 44.578125 72.90625 50.734375 67.671875 
Q 56.890625 62.453125 56.890625 51.90625 
Q 56.890625 45.015625 53.6875 40.46875 
Q 50.484375 35.9375 44.390625 34.1875 
z
M 19.671875 64.796875 
L 19.671875 38.921875 
L 32.078125 38.921875 
Q 39.203125 38.921875 42.84375 42.21875 
Q 46.484375 45.515625 46.484375 51.90625 
Q 46.484375 58.296875 42.84375 61.546875 
Q 39.203125 64.796875 32.078125 64.796875 
z
" id="DejaVuSans-52"/>
      <path d="M 9.8125 72.90625 
L 24.515625 72.90625 
L 43.109375 23.296875 
L 61.8125 72.90625 
L 76.515625 72.90625 
L 76.515625 0 
L 66.890625 0 
L 66.890625 64.015625 
L 48.09375 14.015625 
L 38.1875 14.015625 
L 19.390625 64.015625 
L 19.390625 0 
L 9.8125 0 
z
" id="DejaVuSans-4d"/>
      <path d="M 53.515625 70.515625 
L 53.515625 60.890625 
Q 47.90625 63.578125 42.921875 64.890625 
Q 37.9375 66.21875 33.296875 66.21875 
Q 25.25 66.21875 20.875 63.09375 
Q 16.5 59.96875 16.5 54.203125 
Q 16.5 49.359375 19.40625 46.890625 
Q 22.3125 44.4375 30.421875 42.921875 
L 36.375 41.703125 
Q 47.40625 39.59375 52.65625 34.296875 
Q 57.90625 29 57.90625 20.125 
Q 57.90625 9.515625 50.796875 4.046875 
Q 43.703125 -1.421875 29.984375 -1.421875 
Q 24.8125 -1.421875 18.96875 -0.25 
Q 13.140625 0.921875 6.890625 3.21875 
L 6.890625 13.375 
Q 12.890625 10.015625 18.65625 8.296875 
Q 24.421875 6.59375 29.984375 6.59375 
Q 38.421875 6.59375 43.015625 9.90625 
Q 47.609375 13.234375 47.609375 19.390625 
Q 47.609375 24.75 44.3125 27.78125 
Q 41.015625 30.8125 33.5 32.328125 
L 27.484375 33.5 
Q 16.453125 35.6875 11.515625 40.375 
Q 6.59375 45.0625 6.59375 53.421875 
Q 6.59375 63.09375 13.40625 68.65625 
Q 20.21875 74.21875 32.171875 74.21875 
Q 37.3125 74.21875 42.625 73.28125 
Q 47.953125 72.359375 53.515625 70.515625 
z
" id="DejaVuSans-53"/>
      <path d="M 19.671875 64.796875 
L 19.671875 8.109375 
L 31.59375 8.109375 
Q 46.6875 8.109375 53.6875 14.9375 
Q 60.6875 21.78125 60.6875 36.53125 
Q 60.6875 51.171875 53.6875 57.984375 
Q 46.6875 64.796875 31.59375 64.796875 
z
M 9.8125 72.90625 
L 30.078125 72.90625 
Q 51.265625 72.90625 61.171875 64.09375 
Q 71.09375 55.28125 71.09375 36.53125 
Q 71.09375 17.671875 61.125 8.828125 
Q 51.171875 0 30.078125 0 
L 9.8125 0 
z
" id="DejaVuSans-44"/>
     </defs>
     <g transform="translate(31.795312 189.3405)rotate(-90)scale(0.1 -0.1)">
      <use xlink:href="#DejaVuSans-52"/>
      <use x="69.482422" xlink:href="#DejaVuSans-4d"/>
      <use x="155.761719" xlink:href="#DejaVuSans-53"/>
      <use x="219.238281" xlink:href="#DejaVuSans-44"/>
     </g>
    </g>
   </g>
   <g id="line2d_13">
    <path clip-path="url(#pfc086717aa)" d="M 73.832727 295.488 
L 74.918528 251.806502 
L 76.00433 216.714905 
L 77.090131 215.096927 
L 78.175932 207.037945 
L 80.347534 184.01342 
L 81.433335 178.665013 
L 82.519137 174.431018 
L 83.604938 167.396807 
L 84.690739 165.207842 
L 85.77654 164.136444 
L 86.862341 164.988151 
L 87.948142 164.208886 
L 89.033943 165.091796 
L 91.205546 153.051327 
L 93.377148 149.868432 
L 94.462949 151.006296 
L 95.54875 148.156627 
L 96.634552 138.399757 
L 97.720353 136.799844 
L 98.806154 131.170763 
L 99.891955 126.552563 
L 100.977756 129.249516 
L 102.063557 128.298747 
L 103.149358 130.262368 
L 105.320961 109.396163 
L 106.406762 108.787534 
L 107.492563 109.60771 
L 108.578364 113.432055 
L 109.664165 112.626834 
L 110.749967 114.939487 
L 111.835768 107.073511 
L 112.921569 107.265844 
L 114.00737 104.725368 
L 115.093171 108.383494 
L 116.178972 97.070896 
L 117.264773 90.045663 
L 118.350575 85.320944 
L 119.436376 83.693162 
L 120.522177 87.645196 
L 121.607978 83.799865 
L 122.693779 76.878754 
L 123.77958 73.082558 
L 124.865382 75.697168 
L 125.951183 71.066709 
L 127.036984 74.990082 
L 128.122785 72.174255 
L 129.208586 74.258898 
L 130.294387 74.58703 
L 131.380189 68.211245 
L 132.46599 66.563523 
L 133.551791 67.486441 
L 134.637592 71.392484 
L 135.723393 72.956135 
L 136.809194 69.569504 
L 137.894995 73.274627 
L 138.980797 73.680914 
L 140.066598 74.350605 
L 141.152399 76.299255 
L 142.2382 76.230538 
L 143.324001 77.078167 
L 144.409802 77.176781 
L 145.495604 80.935642 
L 146.581405 77.902494 
L 147.667206 77.017243 
L 148.753007 76.647306 
L 149.838808 79.328928 
L 150.924609 79.05777 
L 152.01041 83.775031 
L 153.096212 81.369538 
L 154.182013 81.726801 
L 155.267814 79.138889 
L 156.353615 79.879613 
L 157.439416 81.344464 
L 158.525217 80.71113 
L 159.611019 77.986846 
L 160.69682 77.850475 
L 161.782621 77.990852 
L 162.868422 76.347876 
L 163.954223 75.429778 
L 165.040024 77.107602 
L 166.125825 76.425906 
L 167.211627 76.147989 
L 168.297428 76.70652 
L 169.383229 76.073228 
L 170.46903 74.312965 
L 171.554831 74.716703 
L 172.640632 71.718787 
L 173.726434 74.297392 
L 174.812235 74.222104 
L 176.983837 77.273841 
L 178.069638 72.581929 
L 179.155439 77.285124 
L 180.24124 80.159604 
L 181.327042 74.771233 
L 182.412843 76.187575 
L 183.498644 75.963188 
L 184.584445 73.348636 
L 185.670246 72.707145 
L 186.756047 74.059366 
L 187.841849 71.931558 
L 188.92765 73.343947 
L 190.013451 72.100335 
L 191.099252 69.540114 
L 192.185053 71.829479 
L 193.270854 71.144259 
L 194.356656 71.454457 
L 195.442457 73.231389 
L 196.528258 71.09515 
L 197.614059 72.613801 
L 198.69986 71.792885 
L 199.785661 69.439066 
L 200.871462 72.29751 
L 201.957264 71.704669 
L 203.043065 73.240622 
L 204.128866 75.912437 
L 205.214667 73.956751 
L 206.300468 72.882581 
L 207.386269 72.770833 
L 208.472071 75.907185 
L 209.557872 74.661753 
L 210.643673 71.658844 
L 211.729474 74.147012 
L 212.815275 76.106764 
L 213.901076 73.782392 
L 214.986877 73.532057 
L 216.072679 71.870125 
L 217.15848 70.926388 
L 218.244281 71.465943 
L 219.330082 69.280438 
L 220.415883 69.660795 
L 221.501684 70.33477 
L 222.587486 70.649136 
L 223.673287 72.347072 
L 224.759088 72.929461 
L 225.844889 71.183595 
L 226.93069 70.226898 
L 228.016491 70.843523 
L 229.102292 66.616247 
L 230.188094 68.520817 
L 231.273895 71.663739 
L 232.359696 68.130479 
L 233.445497 70.1881 
L 234.531298 67.801477 
L 235.617099 65.074679 
L 236.702901 70.747026 
L 237.788702 68.435213 
L 238.874503 70.755645 
L 239.960304 71.068386 
L 241.046105 69.377707 
L 242.131906 69.077576 
L 243.217708 65.637882 
L 244.303509 65.77198 
L 245.38931 68.670208 
L 246.475111 67.233317 
L 247.560912 68.645538 
L 248.646713 67.840636 
L 249.732514 67.29594 
L 250.818316 65.561303 
L 251.904117 65.124506 
L 252.989918 69.120014 
L 254.075719 71.48887 
L 255.16152 66.726614 
L 256.247321 66.634522 
L 257.333123 67.928669 
L 258.418924 70.163985 
L 259.504725 68.595562 
L 260.590526 72.034503 
L 261.676327 73.950931 
L 262.762128 72.345395 
L 263.847929 72.506957 
L 264.933731 72.50403 
L 266.019532 73.52222 
L 267.105333 72.824867 
L 268.191134 73.197761 
L 269.276935 73.748425 
L 270.362736 73.586304 
L 271.448538 71.33221 
L 272.534339 74.142646 
L 273.62014 72.567537 
L 274.705941 71.821754 
L 275.791742 71.64568 
L 276.877543 70.056338 
L 277.963344 72.003221 
L 279.049146 72.458501 
L 280.134947 67.669856 
L 281.220748 67.776034 
L 282.306549 69.209075 
L 283.39235 74.437903 
L 284.478151 69.620914 
L 285.563953 73.272928 
L 286.649754 74.39975 
L 287.735555 75.222692 
L 288.821356 68.347884 
L 289.907157 71.284828 
L 290.992958 72.293099 
L 292.07876 71.913539 
L 293.164561 70.730539 
L 294.250362 68.868681 
L 295.336163 70.524129 
L 296.421964 69.9232 
L 297.507765 68.479632 
L 298.593566 69.59201 
L 299.679368 68.198992 
L 300.765169 68.192374 
L 301.85097 68.991674 
L 302.936771 68.035864 
L 304.022572 68.528405 
L 305.108373 65.928733 
L 306.194175 66.404764 
L 307.279976 65.263328 
L 308.365777 62.396889 
L 309.451578 67.893555 
L 310.537379 65.932703 
L 311.62318 66.760958 
L 312.708981 65.91602 
L 313.794783 67.309244 
L 314.880584 66.986862 
L 315.966385 63.320725 
L 317.052186 62.492392 
L 318.137987 62.036974 
L 319.223788 59.956306 
L 320.30959 58.712229 
L 321.395391 56.850427 
L 322.481192 60.744674 
L 323.566993 61.176342 
L 324.652794 61.896623 
L 325.738595 61.322332 
L 326.824396 61.101482 
L 327.910198 62.462108 
L 328.995999 60.385961 
L 330.0818 60.706884 
L 331.167601 60.443354 
L 332.253402 58.629569 
L 333.339203 57.395199 
L 334.425005 57.056177 
L 335.510806 58.226168 
L 336.596607 55.64937 
L 337.682408 56.536151 
L 338.768209 53.568 
L 339.85401 55.066916 
L 340.939811 54.151659 
L 342.025613 55.793481 
L 343.111414 54.833414 
L 344.197215 55.520937 
L 345.283016 56.706957 
L 346.368817 56.673421 
L 348.54042 61.096845 
L 349.626221 62.675747 
L 350.712022 64.529248 
L 351.797823 63.369062 
L 352.883624 60.984906 
L 353.969425 63.647791 
L 355.055227 63.37024 
L 356.141028 61.497928 
L 357.226829 61.632927 
L 358.31263 60.081569 
L 359.398431 63.173013 
L 360.484232 62.77794 
L 361.570033 66.634577 
L 362.655835 63.493034 
L 363.741636 62.667636 
L 364.827437 62.720818 
L 365.913238 61.678463 
L 366.999039 61.689572 
L 368.08484 65.875909 
L 369.170642 62.534908 
L 370.256443 63.400942 
L 371.342244 62.494175 
L 372.428045 66.536751 
L 373.513846 65.280284 
L 374.599647 61.652172 
L 375.685448 63.013606 
L 376.77125 61.56344 
L 377.857051 63.130859 
L 378.942852 62.28703 
L 381.114454 65.03657 
L 382.200255 65.436782 
L 383.286057 65.253271 
L 384.371858 62.60832 
L 385.457659 64.602476 
L 386.54346 63.372717 
L 387.629261 61.271489 
L 388.715062 62.723746 
L 389.800863 65.355232 
L 390.886665 65.582046 
L 391.972466 63.060847 
L 393.058267 67.524553 
L 394.144068 66.583543 
L 395.229869 62.939023 
L 396.31567 64.215508 
L 397.401472 62.64967 
L 398.487273 62.494003 
L 398.487273 62.494003 
" style="fill:none;stroke:#666666;stroke-dasharray:1,1.65;stroke-dashoffset:0;"/>
    <defs>
     <path d="M 0 0.5 
C 0.132602 0.5 0.25979 0.447317 0.353553 0.353553 
C 0.447317 0.25979 0.5 0.132602 0.5 0 
C 0.5 -0.132602 0.447317 -0.25979 0.353553 -0.353553 
C 0.25979 -0.447317 0.132602 -0.5 0 -0.5 
C -0.132602 -0.5 -0.25979 -0.447317 -0.353553 -0.353553 
C -0.447317 -0.25979 -0.5 -0.132602 -0.5 0 
C -0.5 0.132602 -0.447317 0.25979 -0.353553 0.353553 
C -0.25979 0.447317 -0.132602 0.5 0 0.5 
z
" id="m2e1362b677" style="stroke:#666666;"/>
    </defs>
    <g clip-path="url(#pfc086717aa)">
     <use style="fill:#666666;stroke:#666666;" x="73.832727" xlink:href="#m2e1362b677" y="295.488"/>
     <use style="fill:#666666;stroke:#666666;" x="74.918528" xlink:href="#m2e1362b677" y="251.806502"/>
     <use style="fill:#666666;stroke:#666666;" x="76.00433" xlink:href="#m2e1362b677" y="216.714905"/>
     <use style="fill:#666666;stroke:#666666;" x="77.090131" xlink:href="#m2e1362b677" y="215.096927"/>
     <use style="fill:#666666;stroke:#666666;" x="78.175932" xlink:href="#m2e1362b677" y="207.037945"/>
     <use style="fill:#666666;stroke:#666666;" x="79.261733" xlink:href="#m2e1362b677" y="195.193675"/>
     <use style="fill:#666666;stroke:#666666;" x="80.347534" xlink:href="#m2e1362b677" y="184.01342"/>
     <use style="fill:#666666;stroke:#666666;" x="81.433335" xlink:href="#m2e1362b677" y="178.665013"/>
     <use style="fill:#666666;stroke:#666666;" x="82.519137" xlink:href="#m2e1362b677" y="174.431018"/>
     <use style="fill:#666666;stroke:#666666;" x="83.604938" xlink:href="#m2e1362b677" y="167.396807"/>
     <use style="fill:#666666;stroke:#666666;" x="84.690739" xlink:href="#m2e1362b677" y="165.207842"/>
     <use style="fill:#666666;stroke:#666666;" x="85.77654" xlink:href="#m2e1362b677" y="164.136444"/>
     <use style="fill:#666666;stroke:#666666;" x="86.862341" xlink:href="#m2e1362b677" y="164.988151"/>
     <use style="fill:#666666;stroke:#666666;" x="87.948142" xlink:href="#m2e1362b677" y="164.208886"/>
     <use style="fill:#666666;stroke:#666666;" x="89.033943" xlink:href="#m2e1362b677" y="165.091796"/>
     <use style="fill:#666666;stroke:#666666;" x="90.119745" xlink:href="#m2e1362b677" y="159.261619"/>
     <use style="fill:#666666;stroke:#666666;" x="91.205546" xlink:href="#m2e1362b677" y="153.051327"/>
     <use style="fill:#666666;stroke:#666666;" x="92.291347" xlink:href="#m2e1362b677" y="151.441183"/>
     <use style="fill:#666666;stroke:#666666;" x="93.377148" xlink:href="#m2e1362b677" y="149.868432"/>
     <use style="fill:#666666;stroke:#666666;" x="94.462949" xlink:href="#m2e1362b677" y="151.006296"/>
     <use style="fill:#666666;stroke:#666666;" x="95.54875" xlink:href="#m2e1362b677" y="148.156627"/>
     <use style="fill:#666666;stroke:#666666;" x="96.634552" xlink:href="#m2e1362b677" y="138.399757"/>
     <use style="fill:#666666;stroke:#666666;" x="97.720353" xlink:href="#m2e1362b677" y="136.799844"/>
     <use style="fill:#666666;stroke:#666666;" x="98.806154" xlink:href="#m2e1362b677" y="131.170763"/>
     <use style="fill:#666666;stroke:#666666;" x="99.891955" xlink:href="#m2e1362b677" y="126.552563"/>
     <use style="fill:#666666;stroke:#666666;" x="100.977756" xlink:href="#m2e1362b677" y="129.249516"/>
     <use style="fill:#666666;stroke:#666666;" x="102.063557" xlink:href="#m2e1362b677" y="128.298747"/>
     <use style="fill:#666666;stroke:#666666;" x="103.149358" xlink:href="#m2e1362b677" y="130.262368"/>
     <use style="fill:#666666;stroke:#666666;" x="104.23516" xlink:href="#m2e1362b677" y="120.233284"/>
     <use style="fill:#666666;stroke:#666666;" x="105.320961" xlink:href="#m2e1362b677" y="109.396163"/>
     <use style="fill:#666666;stroke:#666666;" x="106.406762" xlink:href="#m2e1362b677" y="108.787534"/>
     <use style="fill:#666666;stroke:#666666;" x="107.492563" xlink:href="#m2e1362b677" y="109.60771"/>
     <use style="fill:#666666;stroke:#666666;" x="108.578364" xlink:href="#m2e1362b677" y="113.432055"/>
     <use style="fill:#666666;stroke:#666666;" x="109.664165" xlink:href="#m2e1362b677" y="112.626834"/>
     <use style="fill:#666666;stroke:#666666;" x="110.749967" xlink:href="#m2e1362b677" y="114.939487"/>
     <use style="fill:#666666;stroke:#666666;" x="111.835768" xlink:href="#m2e1362b677" y="107.073511"/>
     <use style="fill:#666666;stroke:#666666;" x="112.921569" xlink:href="#m2e1362b677" y="107.265844"/>
     <use style="fill:#666666;stroke:#666666;" x="114.00737" xlink:href="#m2e1362b677" y="104.725368"/>
     <use style="fill:#666666;stroke:#666666;" x="115.093171" xlink:href="#m2e1362b677" y="108.383494"/>
     <use style="fill:#666666;stroke:#666666;" x="116.178972" xlink:href="#m2e1362b677" y="97.070896"/>
     <use style="fill:#666666;stroke:#666666;" x="117.264773" xlink:href="#m2e1362b677" y="90.045663"/>
     <use style="fill:#666666;stroke:#666666;" x="118.350575" xlink:href="#m2e1362b677" y="85.320944"/>
     <use style="fill:#666666;stroke:#666666;" x="119.436376" xlink:href="#m2e1362b677" y="83.693162"/>
     <use style="fill:#666666;stroke:#666666;" x="120.522177" xlink:href="#m2e1362b677" y="87.645196"/>
     <use style="fill:#666666;stroke:#666666;" x="121.607978" xlink:href="#m2e1362b677" y="83.799865"/>
     <use style="fill:#666666;stroke:#666666;" x="122.693779" xlink:href="#m2e1362b677" y="76.878754"/>
     <use style="fill:#666666;stroke:#666666;" x="123.77958" xlink:href="#m2e1362b677" y="73.082558"/>
     <use style="fill:#666666;stroke:#666666;" x="124.865382" xlink:href="#m2e1362b677" y="75.697168"/>
     <use style="fill:#666666;stroke:#666666;" x="125.951183" xlink:href="#m2e1362b677" y="71.066709"/>
     <use style="fill:#666666;stroke:#666666;" x="127.036984" xlink:href="#m2e1362b677" y="74.990082"/>
     <use style="fill:#666666;stroke:#666666;" x="128.122785" xlink:href="#m2e1362b677" y="72.174255"/>
     <use style="fill:#666666;stroke:#666666;" x="129.208586" xlink:href="#m2e1362b677" y="74.258898"/>
     <use style="fill:#666666;stroke:#666666;" x="130.294387" xlink:href="#m2e1362b677" y="74.58703"/>
     <use style="fill:#666666;stroke:#666666;" x="131.380189" xlink:href="#m2e1362b677" y="68.211245"/>
     <use style="fill:#666666;stroke:#666666;" x="132.46599" xlink:href="#m2e1362b677" y="66.563523"/>
     <use style="fill:#666666;stroke:#666666;" x="133.551791" xlink:href="#m2e1362b677" y="67.486441"/>
     <use style="fill:#666666;stroke:#666666;" x="134.637592" xlink:href="#m2e1362b677" y="71.392484"/>
     <use style="fill:#666666;stroke:#666666;" x="135.723393" xlink:href="#m2e1362b677" y="72.956135"/>
     <use style="fill:#666666;stroke:#666666;" x="136.809194" xlink:href="#m2e1362b677" y="69.569504"/>
     <use style="fill:#666666;stroke:#666666;" x="137.894995" xlink:href="#m2e1362b677" y="73.274627"/>
     <use style="fill:#666666;stroke:#666666;" x="138.980797" xlink:href="#m2e1362b677" y="73.680914"/>
     <use style="fill:#666666;stroke:#666666;" x="140.066598" xlink:href="#m2e1362b677" y="74.350605"/>
     <use style="fill:#666666;stroke:#666666;" x="141.152399" xlink:href="#m2e1362b677" y="76.299255"/>
     <use style="fill:#666666;stroke:#666666;" x="142.2382" xlink:href="#m2e1362b677" y="76.230538"/>
     <use style="fill:#666666;stroke:#666666;" x="143.324001" xlink:href="#m2e1362b677" y="77.078167"/>
     <use style="fill:#666666;stroke:#666666;" x="144.409802" xlink:href="#m2e1362b677" y="77.176781"/>
     <use style="fill:#666666;stroke:#666666;" x="145.495604" xlink:href="#m2e1362b677" y="80.935642"/>
     <use style="fill:#666666;stroke:#666666;" x="146.581405" xlink:href="#m2e1362b677" y="77.902494"/>
     <use style="fill:#666666;stroke:#666666;" x="147.667206" xlink:href="#m2e1362b677" y="77.017243"/>
     <use style="fill:#666666;stroke:#666666;" x="148.753007" xlink:href="#m2e1362b677" y="76.647306"/>
     <use style="fill:#666666;stroke:#666666;" x="149.838808" xlink:href="#m2e1362b677" y="79.328928"/>
     <use style="fill:#666666;stroke:#666666;" x="150.924609" xlink:href="#m2e1362b677" y="79.05777"/>
     <use style="fill:#666666;stroke:#666666;" x="152.01041" xlink:href="#m2e1362b677" y="83.775031"/>
     <use style="fill:#666666;stroke:#666666;" x="153.096212" xlink:href="#m2e1362b677" y="81.369538"/>
     <use style="fill:#666666;stroke:#666666;" x="154.182013" xlink:href="#m2e1362b677" y="81.726801"/>
     <use style="fill:#666666;stroke:#666666;" x="155.267814" xlink:href="#m2e1362b677" y="79.138889"/>
     <use style="fill:#666666;stroke:#666666;" x="156.353615" xlink:href="#m2e1362b677" y="79.879613"/>
     <use style="fill:#666666;stroke:#666666;" x="157.439416" xlink:href="#m2e1362b677" y="81.344464"/>
     <use style="fill:#666666;stroke:#666666;" x="158.525217" xlink:href="#m2e1362b677" y="80.71113"/>
     <use style="fill:#666666;stroke:#666666;" x="159.611019" xlink:href="#m2e1362b677" y="77.986846"/>
     <use style="fill:#666666;stroke:#666666;" x="160.69682" xlink:href="#m2e1362b677" y="77.850475"/>
     <use style="fill:#666666;stroke:#666666;" x="161.782621" xlink:href="#m2e1362b677" y="77.990852"/>
     <use style="fill:#666666;stroke:#666666;" x="162.868422" xlink:href="#m2e1362b677" y="76.347876"/>
     <use style="fill:#666666;stroke:#666666;" x="163.954223" xlink:href="#m2e1362b677" y="75.429778"/>
     <use style="fill:#666666;stroke:#666666;" x="165.040024" xlink:href="#m2e1362b677" y="77.107602"/>
     <use style="fill:#666666;stroke:#666666;" x="166.125825" xlink:href="#m2e1362b677" y="76.425906"/>
     <use style="fill:#666666;stroke:#666666;" x="167.211627" xlink:href="#m2e1362b677" y="76.147989"/>
     <use style="fill:#666666;stroke:#666666;" x="168.297428" xlink:href="#m2e1362b677" y="76.70652"/>
     <use style="fill:#666666;stroke:#666666;" x="169.383229" xlink:href="#m2e1362b677" y="76.073228"/>
     <use style="fill:#666666;stroke:#666666;" x="170.46903" xlink:href="#m2e1362b677" y="74.312965"/>
     <use style="fill:#666666;stroke:#666666;" x="171.554831" xlink:href="#m2e1362b677" y="74.716703"/>
     <use style="fill:#666666;stroke:#666666;" x="172.640632" xlink:href="#m2e1362b677" y="71.718787"/>
     <use style="fill:#666666;stroke:#666666;" x="173.726434" xlink:href="#m2e1362b677" y="74.297392"/>
     <use style="fill:#666666;stroke:#666666;" x="174.812235" xlink:href="#m2e1362b677" y="74.222104"/>
     <use style="fill:#666666;stroke:#666666;" x="175.898036" xlink:href="#m2e1362b677" y="75.847684"/>
     <use style="fill:#666666;stroke:#666666;" x="176.983837" xlink:href="#m2e1362b677" y="77.273841"/>
     <use style="fill:#666666;stroke:#666666;" x="178.069638" xlink:href="#m2e1362b677" y="72.581929"/>
     <use style="fill:#666666;stroke:#666666;" x="179.155439" xlink:href="#m2e1362b677" y="77.285124"/>
     <use style="fill:#666666;stroke:#666666;" x="180.24124" xlink:href="#m2e1362b677" y="80.159604"/>
     <use style="fill:#666666;stroke:#666666;" x="181.327042" xlink:href="#m2e1362b677" y="74.771233"/>
     <use style="fill:#666666;stroke:#666666;" x="182.412843" xlink:href="#m2e1362b677" y="76.187575"/>
     <use style="fill:#666666;stroke:#666666;" x="183.498644" xlink:href="#m2e1362b677" y="75.963188"/>
     <use style="fill:#666666;stroke:#666666;" x="184.584445" xlink:href="#m2e1362b677" y="73.348636"/>
     <use style="fill:#666666;stroke:#666666;" x="185.670246" xlink:href="#m2e1362b677" y="72.707145"/>
     <use style="fill:#666666;stroke:#666666;" x="186.756047" xlink:href="#m2e1362b677" y="74.059366"/>
     <use style="fill:#666666;stroke:#666666;" x="187.841849" xlink:href="#m2e1362b677" y="71.931558"/>
     <use style="fill:#666666;stroke:#666666;" x="188.92765" xlink:href="#m2e1362b677" y="73.343947"/>
     <use style="fill:#666666;stroke:#666666;" x="190.013451" xlink:href="#m2e1362b677" y="72.100335"/>
     <use style="fill:#666666;stroke:#666666;" x="191.099252" xlink:href="#m2e1362b677" y="69.540114"/>
     <use style="fill:#666666;stroke:#666666;" x="192.185053" xlink:href="#m2e1362b677" y="71.829479"/>
     <use style="fill:#666666;stroke:#666666;" x="193.270854" xlink:href="#m2e1362b677" y="71.144259"/>
     <use style="fill:#666666;stroke:#666666;" x="194.356656" xlink:href="#m2e1362b677" y="71.454457"/>
     <use style="fill:#666666;stroke:#666666;" x="195.442457" xlink:href="#m2e1362b677" y="73.231389"/>
     <use style="fill:#666666;stroke:#666666;" x="196.528258" xlink:href="#m2e1362b677" y="71.09515"/>
     <use style="fill:#666666;stroke:#666666;" x="197.614059" xlink:href="#m2e1362b677" y="72.613801"/>
     <use style="fill:#666666;stroke:#666666;" x="198.69986" xlink:href="#m2e1362b677" y="71.792885"/>
     <use style="fill:#666666;stroke:#666666;" x="199.785661" xlink:href="#m2e1362b677" y="69.439066"/>
     <use style="fill:#666666;stroke:#666666;" x="200.871462" xlink:href="#m2e1362b677" y="72.29751"/>
     <use style="fill:#666666;stroke:#666666;" x="201.957264" xlink:href="#m2e1362b677" y="71.704669"/>
     <use style="fill:#666666;stroke:#666666;" x="203.043065" xlink:href="#m2e1362b677" y="73.240622"/>
     <use style="fill:#666666;stroke:#666666;" x="204.128866" xlink:href="#m2e1362b677" y="75.912437"/>
     <use style="fill:#666666;stroke:#666666;" x="205.214667" xlink:href="#m2e1362b677" y="73.956751"/>
     <use style="fill:#666666;stroke:#666666;" x="206.300468" xlink:href="#m2e1362b677" y="72.882581"/>
     <use style="fill:#666666;stroke:#666666;" x="207.386269" xlink:href="#m2e1362b677" y="72.770833"/>
     <use style="fill:#666666;stroke:#666666;" x="208.472071" xlink:href="#m2e1362b677" y="75.907185"/>
     <use style="fill:#666666;stroke:#666666;" x="209.557872" xlink:href="#m2e1362b677" y="74.661753"/>
     <use style="fill:#666666;stroke:#666666;" x="210.643673" xlink:href="#m2e1362b677" y="71.658844"/>
     <use style="fill:#666666;stroke:#666666;" x="211.729474" xlink:href="#m2e1362b677" y="74.147012"/>
     <use style="fill:#666666;stroke:#666666;" x="212.815275" xlink:href="#m2e1362b677" y="76.106764"/>
     <use style="fill:#666666;stroke:#666666;" x="213.901076" xlink:href="#m2e1362b677" y="73.782392"/>
     <use style="fill:#666666;stroke:#666666;" x="214.986877" xlink:href="#m2e1362b677" y="73.532057"/>
     <use style="fill:#666666;stroke:#666666;" x="216.072679" xlink:href="#m2e1362b677" y="71.870125"/>
     <use style="fill:#666666;stroke:#666666;" x="217.15848" xlink:href="#m2e1362b677" y="70.926388"/>
     <use style="fill:#666666;stroke:#666666;" x="218.244281" xlink:href="#m2e1362b677" y="71.465943"/>
     <use style="fill:#666666;stroke:#666666;" x="219.330082" xlink:href="#m2e1362b677" y="69.280438"/>
     <use style="fill:#666666;stroke:#666666;" x="220.415883" xlink:href="#m2e1362b677" y="69.660795"/>
     <use style="fill:#666666;stroke:#666666;" x="221.501684" xlink:href="#m2e1362b677" y="70.33477"/>
     <use style="fill:#666666;stroke:#666666;" x="222.587486" xlink:href="#m2e1362b677" y="70.649136"/>
     <use style="fill:#666666;stroke:#666666;" x="223.673287" xlink:href="#m2e1362b677" y="72.347072"/>
     <use style="fill:#666666;stroke:#666666;" x="224.759088" xlink:href="#m2e1362b677" y="72.929461"/>
     <use style="fill:#666666;stroke:#666666;" x="225.844889" xlink:href="#m2e1362b677" y="71.183595"/>
     <use style="fill:#666666;stroke:#666666;" x="226.93069" xlink:href="#m2e1362b677" y="70.226898"/>
     <use style="fill:#666666;stroke:#666666;" x="228.016491" xlink:href="#m2e1362b677" y="70.843523"/>
     <use style="fill:#666666;stroke:#666666;" x="229.102292" xlink:href="#m2e1362b677" y="66.616247"/>
     <use style="fill:#666666;stroke:#666666;" x="230.188094" xlink:href="#m2e1362b677" y="68.520817"/>
     <use style="fill:#666666;stroke:#666666;" x="231.273895" xlink:href="#m2e1362b677" y="71.663739"/>
     <use style="fill:#666666;stroke:#666666;" x="232.359696" xlink:href="#m2e1362b677" y="68.130479"/>
     <use style="fill:#666666;stroke:#666666;" x="233.445497" xlink:href="#m2e1362b677" y="70.1881"/>
     <use style="fill:#666666;stroke:#666666;" x="234.531298" xlink:href="#m2e1362b677" y="67.801477"/>
     <use style="fill:#666666;stroke:#666666;" x="235.617099" xlink:href="#m2e1362b677" y="65.074679"/>
     <use style="fill:#666666;stroke:#666666;" x="236.702901" xlink:href="#m2e1362b677" y="70.747026"/>
     <use style="fill:#666666;stroke:#666666;" x="237.788702" xlink:href="#m2e1362b677" y="68.435213"/>
     <use style="fill:#666666;stroke:#666666;" x="238.874503" xlink:href="#m2e1362b677" y="70.755645"/>
     <use style="fill:#666666;stroke:#666666;" x="239.960304" xlink:href="#m2e1362b677" y="71.068386"/>
     <use style="fill:#666666;stroke:#666666;" x="241.046105" xlink:href="#m2e1362b677" y="69.377707"/>
     <use style="fill:#666666;stroke:#666666;" x="242.131906" xlink:href="#m2e1362b677" y="69.077576"/>
     <use style="fill:#666666;stroke:#666666;" x="243.217708" xlink:href="#m2e1362b677" y="65.637882"/>
     <use style="fill:#666666;stroke:#666666;" x="244.303509" xlink:href="#m2e1362b677" y="65.77198"/>
     <use style="fill:#666666;stroke:#666666;" x="245.38931" xlink:href="#m2e1362b677" y="68.670208"/>
     <use style="fill:#666666;stroke:#666666;" x="246.475111" xlink:href="#m2e1362b677" y="67.233317"/>
     <use style="fill:#666666;stroke:#666666;" x="247.560912" xlink:href="#m2e1362b677" y="68.645538"/>
     <use style="fill:#666666;stroke:#666666;" x="248.646713" xlink:href="#m2e1362b677" y="67.840636"/>
     <use style="fill:#666666;stroke:#666666;" x="249.732514" xlink:href="#m2e1362b677" y="67.29594"/>
     <use style="fill:#666666;stroke:#666666;" x="250.818316" xlink:href="#m2e1362b677" y="65.561303"/>
     <use style="fill:#666666;stroke:#666666;" x="251.904117" xlink:href="#m2e1362b677" y="65.124506"/>
     <use style="fill:#666666;stroke:#666666;" x="252.989918" xlink:href="#m2e1362b677" y="69.120014"/>
     <use style="fill:#666666;stroke:#666666;" x="254.075719" xlink:href="#m2e1362b677" y="71.48887"/>
     <use style="fill:#666666;stroke:#666666;" x="255.16152" xlink:href="#m2e1362b677" y="66.726614"/>
     <use style="fill:#666666;stroke:#666666;" x="256.247321" xlink:href="#m2e1362b677" y="66.634522"/>
     <use style="fill:#666666;stroke:#666666;" x="257.333123" xlink:href="#m2e1362b677" y="67.928669"/>
     <use style="fill:#666666;stroke:#666666;" x="258.418924" xlink:href="#m2e1362b677" y="70.163985"/>
     <use style="fill:#666666;stroke:#666666;" x="259.504725" xlink:href="#m2e1362b677" y="68.595562"/>
     <use style="fill:#666666;stroke:#666666;" x="260.590526" xlink:href="#m2e1362b677" y="72.034503"/>
     <use style="fill:#666666;stroke:#666666;" x="261.676327" xlink:href="#m2e1362b677" y="73.950931"/>
     <use style="fill:#666666;stroke:#666666;" x="262.762128" xlink:href="#m2e1362b677" y="72.345395"/>
     <use style="fill:#666666;stroke:#666666;" x="263.847929" xlink:href="#m2e1362b677" y="72.506957"/>
     <use style="fill:#666666;stroke:#666666;" x="264.933731" xlink:href="#m2e1362b677" y="72.50403"/>
     <use style="fill:#666666;stroke:#666666;" x="266.019532" xlink:href="#m2e1362b677" y="73.52222"/>
     <use style="fill:#666666;stroke:#666666;" x="267.105333" xlink:href="#m2e1362b677" y="72.824867"/>
     <use style="fill:#666666;stroke:#666666;" x="268.191134" xlink:href="#m2e1362b677" y="73.197761"/>
     <use style="fill:#666666;stroke:#666666;" x="269.276935" xlink:href="#m2e1362b677" y="73.748425"/>
     <use style="fill:#666666;stroke:#666666;" x="270.362736" xlink:href="#m2e1362b677" y="73.586304"/>
     <use style="fill:#666666;stroke:#666666;" x="271.448538" xlink:href="#m2e1362b677" y="71.33221"/>
     <use style="fill:#666666;stroke:#666666;" x="272.534339" xlink:href="#m2e1362b677" y="74.142646"/>
     <use style="fill:#666666;stroke:#666666;" x="273.62014" xlink:href="#m2e1362b677" y="72.567537"/>
     <use style="fill:#666666;stroke:#666666;" x="274.705941" xlink:href="#m2e1362b677" y="71.821754"/>
     <use style="fill:#666666;stroke:#666666;" x="275.791742" xlink:href="#m2e1362b677" y="71.64568"/>
     <use style="fill:#666666;stroke:#666666;" x="276.877543" xlink:href="#m2e1362b677" y="70.056338"/>
     <use style="fill:#666666;stroke:#666666;" x="277.963344" xlink:href="#m2e1362b677" y="72.003221"/>
     <use style="fill:#666666;stroke:#666666;" x="279.049146" xlink:href="#m2e1362b677" y="72.458501"/>
     <use style="fill:#666666;stroke:#666666;" x="280.134947" xlink:href="#m2e1362b677" y="67.669856"/>
     <use style="fill:#666666;stroke:#666666;" x="281.220748" xlink:href="#m2e1362b677" y="67.776034"/>
     <use style="fill:#666666;stroke:#666666;" x="282.306549" xlink:href="#m2e1362b677" y="69.209075"/>
     <use style="fill:#666666;stroke:#666666;" x="283.39235" xlink:href="#m2e1362b677" y="74.437903"/>
     <use style="fill:#666666;stroke:#666666;" x="284.478151" xlink:href="#m2e1362b677" y="69.620914"/>
     <use style="fill:#666666;stroke:#666666;" x="285.563953" xlink:href="#m2e1362b677" y="73.272928"/>
     <use style="fill:#666666;stroke:#666666;" x="286.649754" xlink:href="#m2e1362b677" y="74.39975"/>
     <use style="fill:#666666;stroke:#666666;" x="287.735555" xlink:href="#m2e1362b677" y="75.222692"/>
     <use style="fill:#666666;stroke:#666666;" x="288.821356" xlink:href="#m2e1362b677" y="68.347884"/>
     <use style="fill:#666666;stroke:#666666;" x="289.907157" xlink:href="#m2e1362b677" y="71.284828"/>
     <use style="fill:#666666;stroke:#666666;" x="290.992958" xlink:href="#m2e1362b677" y="72.293099"/>
     <use style="fill:#666666;stroke:#666666;" x="292.07876" xlink:href="#m2e1362b677" y="71.913539"/>
     <use style="fill:#666666;stroke:#666666;" x="293.164561" xlink:href="#m2e1362b677" y="70.730539"/>
     <use style="fill:#666666;stroke:#666666;" x="294.250362" xlink:href="#m2e1362b677" y="68.868681"/>
     <use style="fill:#666666;stroke:#666666;" x="295.336163" xlink:href="#m2e1362b677" y="70.524129"/>
     <use style="fill:#666666;stroke:#666666;" x="296.421964" xlink:href="#m2e1362b677" y="69.9232"/>
     <use style="fill:#666666;stroke:#666666;" x="297.507765" xlink:href="#m2e1362b677" y="68.479632"/>
     <use style="fill:#666666;stroke:#666666;" x="298.593566" xlink:href="#m2e1362b677" y="69.59201"/>
     <use style="fill:#666666;stroke:#666666;" x="299.679368" xlink:href="#m2e1362b677" y="68.198992"/>
     <use style="fill:#666666;stroke:#666666;" x="300.765169" xlink:href="#m2e1362b677" y="68.192374"/>
     <use style="fill:#666666;stroke:#666666;" x="301.85097" xlink:href="#m2e1362b677" y="68.991674"/>
     <use style="fill:#666666;stroke:#666666;" x="302.936771" xlink:href="#m2e1362b677" y="68.035864"/>
     <use style="fill:#666666;stroke:#666666;" x="304.022572" xlink:href="#m2e1362b677" y="68.528405"/>
     <use style="fill:#666666;stroke:#666666;" x="305.108373" xlink:href="#m2e1362b677" y="65.928733"/>
     <use style="fill:#666666;stroke:#666666;" x="306.194175" xlink:href="#m2e1362b677" y="66.404764"/>
     <use style="fill:#666666;stroke:#666666;" x="307.279976" xlink:href="#m2e1362b677" y="65.263328"/>
     <use style="fill:#666666;stroke:#666666;" x="308.365777" xlink:href="#m2e1362b677" y="62.396889"/>
     <use style="fill:#666666;stroke:#666666;" x="309.451578" xlink:href="#m2e1362b677" y="67.893555"/>
     <use style="fill:#666666;stroke:#666666;" x="310.537379" xlink:href="#m2e1362b677" y="65.932703"/>
     <use style="fill:#666666;stroke:#666666;" x="311.62318" xlink:href="#m2e1362b677" y="66.760958"/>
     <use style="fill:#666666;stroke:#666666;" x="312.708981" xlink:href="#m2e1362b677" y="65.91602"/>
     <use style="fill:#666666;stroke:#666666;" x="313.794783" xlink:href="#m2e1362b677" y="67.309244"/>
     <use style="fill:#666666;stroke:#666666;" x="314.880584" xlink:href="#m2e1362b677" y="66.986862"/>
     <use style="fill:#666666;stroke:#666666;" x="315.966385" xlink:href="#m2e1362b677" y="63.320725"/>
     <use style="fill:#666666;stroke:#666666;" x="317.052186" xlink:href="#m2e1362b677" y="62.492392"/>
     <use style="fill:#666666;stroke:#666666;" x="318.137987" xlink:href="#m2e1362b677" y="62.036974"/>
     <use style="fill:#666666;stroke:#666666;" x="319.223788" xlink:href="#m2e1362b677" y="59.956306"/>
     <use style="fill:#666666;stroke:#666666;" x="320.30959" xlink:href="#m2e1362b677" y="58.712229"/>
     <use style="fill:#666666;stroke:#666666;" x="321.395391" xlink:href="#m2e1362b677" y="56.850427"/>
     <use style="fill:#666666;stroke:#666666;" x="322.481192" xlink:href="#m2e1362b677" y="60.744674"/>
     <use style="fill:#666666;stroke:#666666;" x="323.566993" xlink:href="#m2e1362b677" y="61.176342"/>
     <use style="fill:#666666;stroke:#666666;" x="324.652794" xlink:href="#m2e1362b677" y="61.896623"/>
     <use style="fill:#666666;stroke:#666666;" x="325.738595" xlink:href="#m2e1362b677" y="61.322332"/>
     <use style="fill:#666666;stroke:#666666;" x="326.824396" xlink:href="#m2e1362b677" y="61.101482"/>
     <use style="fill:#666666;stroke:#666666;" x="327.910198" xlink:href="#m2e1362b677" y="62.462108"/>
     <use style="fill:#666666;stroke:#666666;" x="328.995999" xlink:href="#m2e1362b677" y="60.385961"/>
     <use style="fill:#666666;stroke:#666666;" x="330.0818" xlink:href="#m2e1362b677" y="60.706884"/>
     <use style="fill:#666666;stroke:#666666;" x="331.167601" xlink:href="#m2e1362b677" y="60.443354"/>
     <use style="fill:#666666;stroke:#666666;" x="332.253402" xlink:href="#m2e1362b677" y="58.629569"/>
     <use style="fill:#666666;stroke:#666666;" x="333.339203" xlink:href="#m2e1362b677" y="57.395199"/>
     <use style="fill:#666666;stroke:#666666;" x="334.425005" xlink:href="#m2e1362b677" y="57.056177"/>
     <use style="fill:#666666;stroke:#666666;" x="335.510806" xlink:href="#m2e1362b677" y="58.226168"/>
     <use style="fill:#666666;stroke:#666666;" x="336.596607" xlink:href="#m2e1362b677" y="55.64937"/>
     <use style="fill:#666666;stroke:#666666;" x="337.682408" xlink:href="#m2e1362b677" y="56.536151"/>
     <use style="fill:#666666;stroke:#666666;" x="338.768209" xlink:href="#m2e1362b677" y="53.568"/>
     <use style="fill:#666666;stroke:#666666;" x="339.85401" xlink:href="#m2e1362b677" y="55.066916"/>
     <use style="fill:#666666;stroke:#666666;" x="340.939811" xlink:href="#m2e1362b677" y="54.151659"/>
     <use style="fill:#666666;stroke:#666666;" x="342.025613" xlink:href="#m2e1362b677" y="55.793481"/>
     <use style="fill:#666666;stroke:#666666;" x="343.111414" xlink:href="#m2e1362b677" y="54.833414"/>
     <use style="fill:#666666;stroke:#666666;" x="344.197215" xlink:href="#m2e1362b677" y="55.520937"/>
     <use style="fill:#666666;stroke:#666666;" x="345.283016" xlink:href="#m2e1362b677" y="56.706957"/>
     <use style="fill:#666666;stroke:#666666;" x="346.368817" xlink:href="#m2e1362b677" y="56.673421"/>
     <use style="fill:#666666;stroke:#666666;" x="347.454618" xlink:href="#m2e1362b677" y="58.813897"/>
     <use style="fill:#666666;stroke:#666666;" x="348.54042" xlink:href="#m2e1362b677" y="61.096845"/>
     <use style="fill:#666666;stroke:#666666;" x="349.626221" xlink:href="#m2e1362b677" y="62.675747"/>
     <use style="fill:#666666;stroke:#666666;" x="350.712022" xlink:href="#m2e1362b677" y="64.529248"/>
     <use style="fill:#666666;stroke:#666666;" x="351.797823" xlink:href="#m2e1362b677" y="63.369062"/>
     <use style="fill:#666666;stroke:#666666;" x="352.883624" xlink:href="#m2e1362b677" y="60.984906"/>
     <use style="fill:#666666;stroke:#666666;" x="353.969425" xlink:href="#m2e1362b677" y="63.647791"/>
     <use style="fill:#666666;stroke:#666666;" x="355.055227" xlink:href="#m2e1362b677" y="63.37024"/>
     <use style="fill:#666666;stroke:#666666;" x="356.141028" xlink:href="#m2e1362b677" y="61.497928"/>
     <use style="fill:#666666;stroke:#666666;" x="357.226829" xlink:href="#m2e1362b677" y="61.632927"/>
     <use style="fill:#666666;stroke:#666666;" x="358.31263" xlink:href="#m2e1362b677" y="60.081569"/>
     <use style="fill:#666666;stroke:#666666;" x="359.398431" xlink:href="#m2e1362b677" y="63.173013"/>
     <use style="fill:#666666;stroke:#666666;" x="360.484232" xlink:href="#m2e1362b677" y="62.77794"/>
     <use style="fill:#666666;stroke:#666666;" x="361.570033" xlink:href="#m2e1362b677" y="66.634577"/>
     <use style="fill:#666666;stroke:#666666;" x="362.655835" xlink:href="#m2e1362b677" y="63.493034"/>
     <use style="fill:#666666;stroke:#666666;" x="363.741636" xlink:href="#m2e1362b677" y="62.667636"/>
     <use style="fill:#666666;stroke:#666666;" x="364.827437" xlink:href="#m2e1362b677" y="62.720818"/>
     <use style="fill:#666666;stroke:#666666;" x="365.913238" xlink:href="#m2e1362b677" y="61.678463"/>
     <use style="fill:#666666;stroke:#666666;" x="366.999039" xlink:href="#m2e1362b677" y="61.689572"/>
     <use style="fill:#666666;stroke:#666666;" x="368.08484" xlink:href="#m2e1362b677" y="65.875909"/>
     <use style="fill:#666666;stroke:#666666;" x="369.170642" xlink:href="#m2e1362b677" y="62.534908"/>
     <use style="fill:#666666;stroke:#666666;" x="370.256443" xlink:href="#m2e1362b677" y="63.400942"/>
     <use style="fill:#666666;stroke:#666666;" x="371.342244" xlink:href="#m2e1362b677" y="62.494175"/>
     <use style="fill:#666666;stroke:#666666;" x="372.428045" xlink:href="#m2e1362b677" y="66.536751"/>
     <use style="fill:#666666;stroke:#666666;" x="373.513846" xlink:href="#m2e1362b677" y="65.280284"/>
     <use style="fill:#666666;stroke:#666666;" x="374.599647" xlink:href="#m2e1362b677" y="61.652172"/>
     <use style="fill:#666666;stroke:#666666;" x="375.685448" xlink:href="#m2e1362b677" y="63.013606"/>
     <use style="fill:#666666;stroke:#666666;" x="376.77125" xlink:href="#m2e1362b677" y="61.56344"/>
     <use style="fill:#666666;stroke:#666666;" x="377.857051" xlink:href="#m2e1362b677" y="63.130859"/>
     <use style="fill:#666666;stroke:#666666;" x="378.942852" xlink:href="#m2e1362b677" y="62.28703"/>
     <use style="fill:#666666;stroke:#666666;" x="380.028653" xlink:href="#m2e1362b677" y="63.618342"/>
     <use style="fill:#666666;stroke:#666666;" x="381.114454" xlink:href="#m2e1362b677" y="65.03657"/>
     <use style="fill:#666666;stroke:#666666;" x="382.200255" xlink:href="#m2e1362b677" y="65.436782"/>
     <use style="fill:#666666;stroke:#666666;" x="383.286057" xlink:href="#m2e1362b677" y="65.253271"/>
     <use style="fill:#666666;stroke:#666666;" x="384.371858" xlink:href="#m2e1362b677" y="62.60832"/>
     <use style="fill:#666666;stroke:#666666;" x="385.457659" xlink:href="#m2e1362b677" y="64.602476"/>
     <use style="fill:#666666;stroke:#666666;" x="386.54346" xlink:href="#m2e1362b677" y="63.372717"/>
     <use style="fill:#666666;stroke:#666666;" x="387.629261" xlink:href="#m2e1362b677" y="61.271489"/>
     <use style="fill:#666666;stroke:#666666;" x="388.715062" xlink:href="#m2e1362b677" y="62.723746"/>
     <use style="fill:#666666;stroke:#666666;" x="389.800863" xlink:href="#m2e1362b677" y="65.355232"/>
     <use style="fill:#666666;stroke:#666666;" x="390.886665" xlink:href="#m2e1362b677" y="65.582046"/>
     <use style="fill:#666666;stroke:#666666;" x="391.972466" xlink:href="#m2e1362b677" y="63.060847"/>
     <use style="fill:#666666;stroke:#666666;" x="393.058267" xlink:href="#m2e1362b677" y="67.524553"/>
     <use style="fill:#666666;stroke:#666666;" x="394.144068" xlink:href="#m2e1362b677" y="66.583543"/>
     <use style="fill:#666666;stroke:#666666;" x="395.229869" xlink:href="#m2e1362b677" y="62.939023"/>
     <use style="fill:#666666;stroke:#666666;" x="396.31567" xlink:href="#m2e1362b677" y="64.215508"/>
     <use style="fill:#666666;stroke:#666666;" x="397.401472" xlink:href="#m2e1362b677" y="62.64967"/>
     <use style="fill:#666666;stroke:#666666;" x="398.487273" xlink:href="#m2e1362b677" y="62.494003"/>
    </g>
   </g>
   <g id="patch_3">
    <path d="M 57.6 307.584 
L 57.6 41.472 
" style="fill:none;stroke:#000000;stroke-linecap:square;stroke-linejoin:miter;stroke-width:0.8;"/>
   </g>
   <g id="patch_4">
    <path d="M 414.72 307.584 
L 414.72 41.472 
" style="fill:none;stroke:#000000;stroke-linecap:square;stroke-linejoin:miter;stroke-width:0.8;"/>
   </g>
   <g id="patch_5">
    <path d="M 57.6 307.584 
L 414.72 307.584 
" style="fill:none;stroke:#000000;stroke-linecap:square;stroke-linejoin:miter;stroke-width:0.8;"/>
   </g>
   <g id="patch_6">
    <path d="M 57.6 41.472 
L 414.72 41.472 
" style="fill:none;stroke:#000000;stroke-linecap:square;stroke-linejoin:miter;stroke-width:0.8;"/>
   </g>
  </g>
 </g>
 <defs>
  <clipPath id="pfc086717aa">
   <rect height="266.112" width="357.12" x="57.6" y="41.472"/>
  </clipPath>
 </defs>
</svg>
