<?xml version="1.0" encoding="utf-8" standalone="no"?>
<!DOCTYPE svg PUBLIC "-//W3C//DTD SVG 1.1//EN"
  "http://www.w3.org/Graphics/SVG/1.1/DTD/svg11.dtd">
<!-- Created with matplotlib (http://matplotlib.org/) -->
<svg height="345.6pt" version="1.1" viewBox="0 0 460.8 345.6" width="460.8pt" xmlns="http://www.w3.org/2000/svg" xmlns:xlink="http://www.w3.org/1999/xlink">
 <defs>
  <style type="text/css">
*{stroke-linecap:butt;stroke-linejoin:round;}
  </style>
 </defs>
 <g id="figure_1">
  <g id="patch_1">
   <path d="M 0 345.6 
L 460.8 345.6 
L 460.8 0 
L 0 0 
z
" style="fill:#ffffff;"/>
  </g>
  <g id="axes_1">
   <g id="patch_2">
    <path d="M 57.6 307.584 
L 414.72 307.584 
L 414.72 41.472 
L 57.6 41.472 
z
" style="fill:#ffffff;"/>
   </g>
   <g id="matplotlib.axis_1">
    <g id="xtick_1">
     <g id="line2d_1">
      <defs>
       <path d="M 0 0 
L 0 3.5 
" id="m75c2af2648" style="stroke:#000000;stroke-width:0.8;"/>
      </defs>
      <g>
       <use style="stroke:#000000;stroke-width:0.8;" x="73.832727" xlink:href="#m75c2af2648" y="307.584"/>
      </g>
     </g>
     <g id="text_1">
      <!-- 0 -->
      <defs>
       <path d="M 31.78125 66.40625 
Q 24.171875 66.40625 20.328125 58.90625 
Q 16.5 51.421875 16.5 36.375 
Q 16.5 21.390625 20.328125 13.890625 
Q 24.171875 6.390625 31.78125 6.390625 
Q 39.453125 6.390625 43.28125 13.890625 
Q 47.125 21.390625 47.125 36.375 
Q 47.125 51.421875 43.28125 58.90625 
Q 39.453125 66.40625 31.78125 66.40625 
z
M 31.78125 74.21875 
Q 44.046875 74.21875 50.515625 64.515625 
Q 56.984375 54.828125 56.984375 36.375 
Q 56.984375 17.96875 50.515625 8.265625 
Q 44.046875 -1.421875 31.78125 -1.421875 
Q 19.53125 -1.421875 13.0625 8.265625 
Q 6.59375 17.96875 6.59375 36.375 
Q 6.59375 54.828125 13.0625 64.515625 
Q 19.53125 74.21875 31.78125 74.21875 
z
" id="DejaVuSans-30"/>
      </defs>
      <g transform="translate(70.651477 322.182437)scale(0.1 -0.1)">
       <use xlink:href="#DejaVuSans-30"/>
      </g>
     </g>
    </g>
    <g id="xtick_2">
     <g id="line2d_2">
      <g>
       <use style="stroke:#000000;stroke-width:0.8;" x="128.122785" xlink:href="#m75c2af2648" y="307.584"/>
      </g>
     </g>
     <g id="text_2">
      <!-- 50 -->
      <defs>
       <path d="M 10.796875 72.90625 
L 49.515625 72.90625 
L 49.515625 64.59375 
L 19.828125 64.59375 
L 19.828125 46.734375 
Q 21.96875 47.46875 24.109375 47.828125 
Q 26.265625 48.1875 28.421875 48.1875 
Q 40.625 48.1875 47.75 41.5 
Q 54.890625 34.8125 54.890625 23.390625 
Q 54.890625 11.625 47.5625 5.09375 
Q 40.234375 -1.421875 26.90625 -1.421875 
Q 22.3125 -1.421875 17.546875 -0.640625 
Q 12.796875 0.140625 7.71875 1.703125 
L 7.71875 11.625 
Q 12.109375 9.234375 16.796875 8.0625 
Q 21.484375 6.890625 26.703125 6.890625 
Q 35.15625 6.890625 40.078125 11.328125 
Q 45.015625 15.765625 45.015625 23.390625 
Q 45.015625 31 40.078125 35.4375 
Q 35.15625 39.890625 26.703125 39.890625 
Q 22.75 39.890625 18.8125 39.015625 
Q 14.890625 38.140625 10.796875 36.28125 
z
" id="DejaVuSans-35"/>
      </defs>
      <g transform="translate(121.760285 322.182437)scale(0.1 -0.1)">
       <use xlink:href="#DejaVuSans-35"/>
       <use x="63.623047" xlink:href="#DejaVuSans-30"/>
      </g>
     </g>
    </g>
    <g id="xtick_3">
     <g id="line2d_3">
      <g>
       <use style="stroke:#000000;stroke-width:0.8;" x="182.412843" xlink:href="#m75c2af2648" y="307.584"/>
      </g>
     </g>
     <g id="text_3">
      <!-- 100 -->
      <defs>
       <path d="M 12.40625 8.296875 
L 28.515625 8.296875 
L 28.515625 63.921875 
L 10.984375 60.40625 
L 10.984375 69.390625 
L 28.421875 72.90625 
L 38.28125 72.90625 
L 38.28125 8.296875 
L 54.390625 8.296875 
L 54.390625 0 
L 12.40625 0 
z
" id="DejaVuSans-31"/>
      </defs>
      <g transform="translate(172.869093 322.182437)scale(0.1 -0.1)">
       <use xlink:href="#DejaVuSans-31"/>
       <use x="63.623047" xlink:href="#DejaVuSans-30"/>
       <use x="127.246094" xlink:href="#DejaVuSans-30"/>
      </g>
     </g>
    </g>
    <g id="xtick_4">
     <g id="line2d_4">
      <g>
       <use style="stroke:#000000;stroke-width:0.8;" x="236.702901" xlink:href="#m75c2af2648" y="307.584"/>
      </g>
     </g>
     <g id="text_4">
      <!-- 150 -->
      <g transform="translate(227.159151 322.182437)scale(0.1 -0.1)">
       <use xlink:href="#DejaVuSans-31"/>
       <use x="63.623047" xlink:href="#DejaVuSans-35"/>
       <use x="127.246094" xlink:href="#DejaVuSans-30"/>
      </g>
     </g>
    </g>
    <g id="xtick_5">
     <g id="line2d_5">
      <g>
       <use style="stroke:#000000;stroke-width:0.8;" x="290.992958" xlink:href="#m75c2af2648" y="307.584"/>
      </g>
     </g>
     <g id="text_5">
      <!-- 200 -->
      <defs>
       <path d="M 19.1875 8.296875 
L 53.609375 8.296875 
L 53.609375 0 
L 7.328125 0 
L 7.328125 8.296875 
Q 12.9375 14.109375 22.625 23.890625 
Q 32.328125 33.6875 34.8125 36.53125 
Q 39.546875 41.84375 41.421875 45.53125 
Q 43.3125 49.21875 43.3125 52.78125 
Q 43.3125 58.59375 39.234375 62.25 
Q 35.15625 65.921875 28.609375 65.921875 
Q 23.96875 65.921875 18.8125 64.3125 
Q 13.671875 62.703125 7.8125 59.421875 
L 7.8125 69.390625 
Q 13.765625 71.78125 18.9375 73 
Q 24.125 74.21875 28.421875 74.21875 
Q 39.75 74.21875 46.484375 68.546875 
Q 53.21875 62.890625 53.21875 53.421875 
Q 53.21875 48.921875 51.53125 44.890625 
Q 49.859375 40.875 45.40625 35.40625 
Q 44.1875 33.984375 37.640625 27.21875 
Q 31.109375 20.453125 19.1875 8.296875 
z
" id="DejaVuSans-32"/>
      </defs>
      <g transform="translate(281.449208 322.182437)scale(0.1 -0.1)">
       <use xlink:href="#DejaVuSans-32"/>
       <use x="63.623047" xlink:href="#DejaVuSans-30"/>
       <use x="127.246094" xlink:href="#DejaVuSans-30"/>
      </g>
     </g>
    </g>
    <g id="xtick_6">
     <g id="line2d_6">
      <g>
       <use style="stroke:#000000;stroke-width:0.8;" x="345.283016" xlink:href="#m75c2af2648" y="307.584"/>
      </g>
     </g>
     <g id="text_6">
      <!-- 250 -->
      <g transform="translate(335.739266 322.182437)scale(0.1 -0.1)">
       <use xlink:href="#DejaVuSans-32"/>
       <use x="63.623047" xlink:href="#DejaVuSans-35"/>
       <use x="127.246094" xlink:href="#DejaVuSans-30"/>
      </g>
     </g>
    </g>
    <g id="xtick_7">
     <g id="line2d_7">
      <g>
       <use style="stroke:#000000;stroke-width:0.8;" x="399.573074" xlink:href="#m75c2af2648" y="307.584"/>
      </g>
     </g>
    </g>
    <g id="text_7">
     <!-- Frame index -->
     <defs>
      <path d="M 9.8125 72.90625 
L 51.703125 72.90625 
L 51.703125 64.59375 
L 19.671875 64.59375 
L 19.671875 43.109375 
L 48.578125 43.109375 
L 48.578125 34.8125 
L 19.671875 34.8125 
L 19.671875 0 
L 9.8125 0 
z
" id="DejaVuSans-46"/>
      <path d="M 41.109375 46.296875 
Q 39.59375 47.171875 37.8125 47.578125 
Q 36.03125 48 33.890625 48 
Q 26.265625 48 22.1875 43.046875 
Q 18.109375 38.09375 18.109375 28.8125 
L 18.109375 0 
L 9.078125 0 
L 9.078125 54.6875 
L 18.109375 54.6875 
L 18.109375 46.1875 
Q 20.953125 51.171875 25.484375 53.578125 
Q 30.03125 56 36.53125 56 
Q 37.453125 56 38.578125 55.875 
Q 39.703125 55.765625 41.0625 55.515625 
z
" id="DejaVuSans-72"/>
      <path d="M 34.28125 27.484375 
Q 23.390625 27.484375 19.1875 25 
Q 14.984375 22.515625 14.984375 16.5 
Q 14.984375 11.71875 18.140625 8.90625 
Q 21.296875 6.109375 26.703125 6.109375 
Q 34.1875 6.109375 38.703125 11.40625 
Q 43.21875 16.703125 43.21875 25.484375 
L 43.21875 27.484375 
z
M 52.203125 31.203125 
L 52.203125 0 
L 43.21875 0 
L 43.21875 8.296875 
Q 40.140625 3.328125 35.546875 0.953125 
Q 30.953125 -1.421875 24.3125 -1.421875 
Q 15.921875 -1.421875 10.953125 3.296875 
Q 6 8.015625 6 15.921875 
Q 6 25.140625 12.171875 29.828125 
Q 18.359375 34.515625 30.609375 34.515625 
L 43.21875 34.515625 
L 43.21875 35.40625 
Q 43.21875 41.609375 39.140625 45 
Q 35.0625 48.390625 27.6875 48.390625 
Q 23 48.390625 18.546875 47.265625 
Q 14.109375 46.140625 10.015625 43.890625 
L 10.015625 52.203125 
Q 14.9375 54.109375 19.578125 55.046875 
Q 24.21875 56 28.609375 56 
Q 40.484375 56 46.34375 49.84375 
Q 52.203125 43.703125 52.203125 31.203125 
z
" id="DejaVuSans-61"/>
      <path d="M 52 44.1875 
Q 55.375 50.25 60.0625 53.125 
Q 64.75 56 71.09375 56 
Q 79.640625 56 84.28125 50.015625 
Q 88.921875 44.046875 88.921875 33.015625 
L 88.921875 0 
L 79.890625 0 
L 79.890625 32.71875 
Q 79.890625 40.578125 77.09375 44.375 
Q 74.3125 48.1875 68.609375 48.1875 
Q 61.625 48.1875 57.5625 43.546875 
Q 53.515625 38.921875 53.515625 30.90625 
L 53.515625 0 
L 44.484375 0 
L 44.484375 32.71875 
Q 44.484375 40.625 41.703125 44.40625 
Q 38.921875 48.1875 33.109375 48.1875 
Q 26.21875 48.1875 22.15625 43.53125 
Q 18.109375 38.875 18.109375 30.90625 
L 18.109375 0 
L 9.078125 0 
L 9.078125 54.6875 
L 18.109375 54.6875 
L 18.109375 46.1875 
Q 21.1875 51.21875 25.484375 53.609375 
Q 29.78125 56 35.6875 56 
Q 41.65625 56 45.828125 52.96875 
Q 50 49.953125 52 44.1875 
z
" id="DejaVuSans-6d"/>
      <path d="M 56.203125 29.59375 
L 56.203125 25.203125 
L 14.890625 25.203125 
Q 15.484375 15.921875 20.484375 11.0625 
Q 25.484375 6.203125 34.421875 6.203125 
Q 39.59375 6.203125 44.453125 7.46875 
Q 49.3125 8.734375 54.109375 11.28125 
L 54.109375 2.78125 
Q 49.265625 0.734375 44.1875 -0.34375 
Q 39.109375 -1.421875 33.890625 -1.421875 
Q 20.796875 -1.421875 13.15625 6.1875 
Q 5.515625 13.8125 5.515625 26.8125 
Q 5.515625 40.234375 12.765625 48.109375 
Q 20.015625 56 32.328125 56 
Q 43.359375 56 49.78125 48.890625 
Q 56.203125 41.796875 56.203125 29.59375 
z
M 47.21875 32.234375 
Q 47.125 39.59375 43.09375 43.984375 
Q 39.0625 48.390625 32.421875 48.390625 
Q 24.90625 48.390625 20.390625 44.140625 
Q 15.875 39.890625 15.1875 32.171875 
z
" id="DejaVuSans-65"/>
      <path id="DejaVuSans-20"/>
      <path d="M 9.421875 54.6875 
L 18.40625 54.6875 
L 18.40625 0 
L 9.421875 0 
z
M 9.421875 75.984375 
L 18.40625 75.984375 
L 18.40625 64.59375 
L 9.421875 64.59375 
z
" id="DejaVuSans-69"/>
      <path d="M 54.890625 33.015625 
L 54.890625 0 
L 45.90625 0 
L 45.90625 32.71875 
Q 45.90625 40.484375 42.875 44.328125 
Q 39.84375 48.1875 33.796875 48.1875 
Q 26.515625 48.1875 22.3125 43.546875 
Q 18.109375 38.921875 18.109375 30.90625 
L 18.109375 0 
L 9.078125 0 
L 9.078125 54.6875 
L 18.109375 54.6875 
L 18.109375 46.1875 
Q 21.34375 51.125 25.703125 53.5625 
Q 30.078125 56 35.796875 56 
Q 45.21875 56 50.046875 50.171875 
Q 54.890625 44.34375 54.890625 33.015625 
z
" id="DejaVuSans-6e"/>
      <path d="M 45.40625 46.390625 
L 45.40625 75.984375 
L 54.390625 75.984375 
L 54.390625 0 
L 45.40625 0 
L 45.40625 8.203125 
Q 42.578125 3.328125 38.25 0.953125 
Q 33.9375 -1.421875 27.875 -1.421875 
Q 17.96875 -1.421875 11.734375 6.484375 
Q 5.515625 14.40625 5.515625 27.296875 
Q 5.515625 40.1875 11.734375 48.09375 
Q 17.96875 56 27.875 56 
Q 33.9375 56 38.25 53.625 
Q 42.578125 51.265625 45.40625 46.390625 
z
M 14.796875 27.296875 
Q 14.796875 17.390625 18.875 11.75 
Q 22.953125 6.109375 30.078125 6.109375 
Q 37.203125 6.109375 41.296875 11.75 
Q 45.40625 17.390625 45.40625 27.296875 
Q 45.40625 37.203125 41.296875 42.84375 
Q 37.203125 48.484375 30.078125 48.484375 
Q 22.953125 48.484375 18.875 42.84375 
Q 14.796875 37.203125 14.796875 27.296875 
z
" id="DejaVuSans-64"/>
      <path d="M 54.890625 54.6875 
L 35.109375 28.078125 
L 55.90625 0 
L 45.3125 0 
L 29.390625 21.484375 
L 13.484375 0 
L 2.875 0 
L 24.125 28.609375 
L 4.6875 54.6875 
L 15.28125 54.6875 
L 29.78125 35.203125 
L 44.28125 54.6875 
z
" id="DejaVuSans-78"/>
     </defs>
     <g transform="translate(204.867031 335.860562)scale(0.1 -0.1)">
      <use xlink:href="#DejaVuSans-46"/>
      <use x="57.410156" xlink:href="#DejaVuSans-72"/>
      <use x="98.523438" xlink:href="#DejaVuSans-61"/>
      <use x="159.802734" xlink:href="#DejaVuSans-6d"/>
      <use x="257.214844" xlink:href="#DejaVuSans-65"/>
      <use x="318.738281" xlink:href="#DejaVuSans-20"/>
      <use x="350.525391" xlink:href="#DejaVuSans-69"/>
      <use x="378.308594" xlink:href="#DejaVuSans-6e"/>
      <use x="441.6875" xlink:href="#DejaVuSans-64"/>
      <use x="505.164062" xlink:href="#DejaVuSans-65"/>
      <use x="566.671875" xlink:href="#DejaVuSans-78"/>
     </g>
    </g>
   </g>
   <g id="matplotlib.axis_2">
    <g id="ytick_1">
     <g id="line2d_8">
      <defs>
       <path d="M 0 0 
L -3.5 0 
" id="m3aa33ad962" style="stroke:#000000;stroke-width:0.8;"/>
      </defs>
      <g>
       <use style="stroke:#000000;stroke-width:0.8;" x="57.6" xlink:href="#m3aa33ad962" y="295.488"/>
      </g>
     </g>
     <g id="text_8">
      <!-- 0.0 -->
      <defs>
       <path d="M 10.6875 12.40625 
L 21 12.40625 
L 21 0 
L 10.6875 0 
z
" id="DejaVuSans-2e"/>
      </defs>
      <g transform="translate(34.696875 299.287219)scale(0.1 -0.1)">
       <use xlink:href="#DejaVuSans-30"/>
       <use x="63.623047" xlink:href="#DejaVuSans-2e"/>
       <use x="95.410156" xlink:href="#DejaVuSans-30"/>
      </g>
     </g>
    </g>
    <g id="ytick_2">
     <g id="line2d_9">
      <g>
       <use style="stroke:#000000;stroke-width:0.8;" x="57.6" xlink:href="#m3aa33ad962" y="251.107983"/>
      </g>
     </g>
     <g id="text_9">
      <!-- 0.5 -->
      <g transform="translate(34.696875 254.907202)scale(0.1 -0.1)">
       <use xlink:href="#DejaVuSans-30"/>
       <use x="63.623047" xlink:href="#DejaVuSans-2e"/>
       <use x="95.410156" xlink:href="#DejaVuSans-35"/>
      </g>
     </g>
    </g>
    <g id="ytick_3">
     <g id="line2d_10">
      <g>
       <use style="stroke:#000000;stroke-width:0.8;" x="57.6" xlink:href="#m3aa33ad962" y="206.727966"/>
      </g>
     </g>
     <g id="text_10">
      <!-- 1.0 -->
      <g transform="translate(34.696875 210.527185)scale(0.1 -0.1)">
       <use xlink:href="#DejaVuSans-31"/>
       <use x="63.623047" xlink:href="#DejaVuSans-2e"/>
       <use x="95.410156" xlink:href="#DejaVuSans-30"/>
      </g>
     </g>
    </g>
    <g id="ytick_4">
     <g id="line2d_11">
      <g>
       <use style="stroke:#000000;stroke-width:0.8;" x="57.6" xlink:href="#m3aa33ad962" y="162.347949"/>
      </g>
     </g>
     <g id="text_11">
      <!-- 1.5 -->
      <g transform="translate(34.696875 166.147168)scale(0.1 -0.1)">
       <use xlink:href="#DejaVuSans-31"/>
       <use x="63.623047" xlink:href="#DejaVuSans-2e"/>
       <use x="95.410156" xlink:href="#DejaVuSans-35"/>
      </g>
     </g>
    </g>
    <g id="ytick_5">
     <g id="line2d_12">
      <g>
       <use style="stroke:#000000;stroke-width:0.8;" x="57.6" xlink:href="#m3aa33ad962" y="117.967933"/>
      </g>
     </g>
     <g id="text_12">
      <!-- 2.0 -->
      <g transform="translate(34.696875 121.767151)scale(0.1 -0.1)">
       <use xlink:href="#DejaVuSans-32"/>
       <use x="63.623047" xlink:href="#DejaVuSans-2e"/>
       <use x="95.410156" xlink:href="#DejaVuSans-30"/>
      </g>
     </g>
    </g>
    <g id="ytick_6">
     <g id="line2d_13">
      <g>
       <use style="stroke:#000000;stroke-width:0.8;" x="57.6" xlink:href="#m3aa33ad962" y="73.587916"/>
      </g>
     </g>
     <g id="text_13">
      <!-- 2.5 -->
      <g transform="translate(34.696875 77.387134)scale(0.1 -0.1)">
       <use xlink:href="#DejaVuSans-32"/>
       <use x="63.623047" xlink:href="#DejaVuSans-2e"/>
       <use x="95.410156" xlink:href="#DejaVuSans-35"/>
      </g>
     </g>
    </g>
    <g id="text_14">
     <!-- RMSD -->
     <defs>
      <path d="M 44.390625 34.1875 
Q 47.5625 33.109375 50.5625 29.59375 
Q 53.5625 26.078125 56.59375 19.921875 
L 66.609375 0 
L 56 0 
L 46.6875 18.703125 
Q 43.0625 26.03125 39.671875 28.421875 
Q 36.28125 30.8125 30.421875 30.8125 
L 19.671875 30.8125 
L 19.671875 0 
L 9.8125 0 
L 9.8125 72.90625 
L 32.078125 72.90625 
Q 44.578125 72.90625 50.734375 67.671875 
Q 56.890625 62.453125 56.890625 51.90625 
Q 56.890625 45.015625 53.6875 40.46875 
Q 50.484375 35.9375 44.390625 34.1875 
z
M 19.671875 64.796875 
L 19.671875 38.921875 
L 32.078125 38.921875 
Q 39.203125 38.921875 42.84375 42.21875 
Q 46.484375 45.515625 46.484375 51.90625 
Q 46.484375 58.296875 42.84375 61.546875 
Q 39.203125 64.796875 32.078125 64.796875 
z
" id="DejaVuSans-52"/>
      <path d="M 9.8125 72.90625 
L 24.515625 72.90625 
L 43.109375 23.296875 
L 61.8125 72.90625 
L 76.515625 72.90625 
L 76.515625 0 
L 66.890625 0 
L 66.890625 64.015625 
L 48.09375 14.015625 
L 38.1875 14.015625 
L 19.390625 64.015625 
L 19.390625 0 
L 9.8125 0 
z
" id="DejaVuSans-4d"/>
      <path d="M 53.515625 70.515625 
L 53.515625 60.890625 
Q 47.90625 63.578125 42.921875 64.890625 
Q 37.9375 66.21875 33.296875 66.21875 
Q 25.25 66.21875 20.875 63.09375 
Q 16.5 59.96875 16.5 54.203125 
Q 16.5 49.359375 19.40625 46.890625 
Q 22.3125 44.4375 30.421875 42.921875 
L 36.375 41.703125 
Q 47.40625 39.59375 52.65625 34.296875 
Q 57.90625 29 57.90625 20.125 
Q 57.90625 9.515625 50.796875 4.046875 
Q 43.703125 -1.421875 29.984375 -1.421875 
Q 24.8125 -1.421875 18.96875 -0.25 
Q 13.140625 0.921875 6.890625 3.21875 
L 6.890625 13.375 
Q 12.890625 10.015625 18.65625 8.296875 
Q 24.421875 6.59375 29.984375 6.59375 
Q 38.421875 6.59375 43.015625 9.90625 
Q 47.609375 13.234375 47.609375 19.390625 
Q 47.609375 24.75 44.3125 27.78125 
Q 41.015625 30.8125 33.5 32.328125 
L 27.484375 33.5 
Q 16.453125 35.6875 11.515625 40.375 
Q 6.59375 45.0625 6.59375 53.421875 
Q 6.59375 63.09375 13.40625 68.65625 
Q 20.21875 74.21875 32.171875 74.21875 
Q 37.3125 74.21875 42.625 73.28125 
Q 47.953125 72.359375 53.515625 70.515625 
z
" id="DejaVuSans-53"/>
      <path d="M 19.671875 64.796875 
L 19.671875 8.109375 
L 31.59375 8.109375 
Q 46.6875 8.109375 53.6875 14.9375 
Q 60.6875 21.78125 60.6875 36.53125 
Q 60.6875 51.171875 53.6875 57.984375 
Q 46.6875 64.796875 31.59375 64.796875 
z
M 9.8125 72.90625 
L 30.078125 72.90625 
Q 51.265625 72.90625 61.171875 64.09375 
Q 71.09375 55.28125 71.09375 36.53125 
Q 71.09375 17.671875 61.125 8.828125 
Q 51.171875 0 30.078125 0 
L 9.8125 0 
z
" id="DejaVuSans-44"/>
     </defs>
     <g transform="translate(28.617187 189.3405)rotate(-90)scale(0.1 -0.1)">
      <use xlink:href="#DejaVuSans-52"/>
      <use x="69.482422" xlink:href="#DejaVuSans-4d"/>
      <use x="155.761719" xlink:href="#DejaVuSans-53"/>
      <use x="219.238281" xlink:href="#DejaVuSans-44"/>
     </g>
    </g>
   </g>
   <g id="line2d_14">
    <path clip-path="url(#pba1a5b8499)" d="M 73.832727 295.488 
L 74.918528 202.041905 
L 76.00433 181.106179 
L 77.090131 177.14333 
L 78.175932 161.162865 
L 79.261733 159.385405 
L 80.347534 151.872338 
L 82.519137 142.464511 
L 83.604938 136.762941 
L 84.690739 143.581931 
L 85.77654 132.586947 
L 86.862341 131.282676 
L 87.948142 134.67935 
L 90.119745 117.901911 
L 91.205546 108.295476 
L 92.291347 106.732861 
L 93.377148 103.048954 
L 94.462949 114.896527 
L 95.54875 114.562551 
L 96.634552 119.989807 
L 98.806154 115.369856 
L 99.891955 115.465785 
L 100.977756 108.999441 
L 102.063557 105.774009 
L 104.23516 102.188894 
L 105.320961 102.14193 
L 106.406762 107.785384 
L 107.492563 108.638092 
L 108.578364 101.790758 
L 109.664165 103.289736 
L 110.749967 103.791266 
L 111.835768 98.652818 
L 112.921569 98.83129 
L 114.00737 93.139466 
L 115.093171 95.057718 
L 116.178972 90.415407 
L 117.264773 98.613123 
L 118.350575 92.374664 
L 119.436376 98.958726 
L 120.522177 92.160882 
L 121.607978 83.458343 
L 122.693779 90.540041 
L 123.77958 87.753823 
L 124.865382 89.097123 
L 125.951183 88.156347 
L 127.036984 83.005226 
L 128.122785 86.848459 
L 129.208586 85.81698 
L 130.294387 90.227575 
L 131.380189 91.086611 
L 132.46599 86.866509 
L 133.551791 87.411874 
L 134.637592 86.800515 
L 135.723393 87.838588 
L 136.809194 91.465781 
L 137.894995 90.890536 
L 138.980797 88.200809 
L 140.066598 85.819036 
L 141.152399 86.759648 
L 142.2382 85.711075 
L 144.409802 75.303494 
L 145.495604 82.772018 
L 146.581405 83.592721 
L 147.667206 81.2336 
L 148.753007 82.237638 
L 149.838808 77.310825 
L 152.01041 81.957405 
L 153.096212 83.675744 
L 154.182013 80.528324 
L 155.267814 85.133478 
L 156.353615 86.29653 
L 157.439416 83.519683 
L 158.525217 87.798194 
L 159.611019 83.046724 
L 161.782621 90.94177 
L 162.868422 83.480243 
L 163.954223 85.560187 
L 165.040024 87.113118 
L 166.125825 83.9044 
L 167.211627 85.742868 
L 168.297428 86.914175 
L 169.383229 88.59017 
L 170.46903 86.474029 
L 171.554831 87.241914 
L 172.640632 75.150477 
L 173.726434 78.890008 
L 174.812235 78.7347 
L 175.898036 78.803156 
L 176.983837 83.982014 
L 178.069638 86.44229 
L 179.155439 79.996347 
L 180.24124 82.17182 
L 181.327042 86.331839 
L 182.412843 86.217904 
L 183.498644 91.659218 
L 184.584445 88.034446 
L 185.670246 84.007539 
L 186.756047 88.297044 
L 187.841849 89.927697 
L 188.92765 85.542762 
L 190.013451 88.2411 
L 191.099252 83.835088 
L 192.185053 81.807628 
L 193.270854 79.073644 
L 194.356656 81.789033 
L 195.442457 78.821448 
L 196.528258 78.834173 
L 197.614059 81.780566 
L 198.69986 79.264411 
L 199.785661 79.296347 
L 200.871462 82.132522 
L 201.957264 79.203226 
L 203.043065 80.561898 
L 204.128866 74.519318 
L 205.214667 79.219687 
L 206.300468 81.209839 
L 207.386269 79.846409 
L 208.472071 77.071177 
L 209.557872 77.227598 
L 210.643673 83.306369 
L 211.729474 77.128991 
L 212.815275 84.593593 
L 213.901076 77.728885 
L 214.986877 77.601963 
L 216.072679 82.171287 
L 217.15848 79.395406 
L 218.244281 83.887563 
L 219.330082 87.56245 
L 220.415883 86.284886 
L 221.501684 85.441708 
L 222.587486 77.746708 
L 223.673287 79.753334 
L 224.759088 77.997502 
L 225.844889 77.650655 
L 226.93069 75.526353 
L 228.016491 77.886551 
L 229.102292 75.655003 
L 230.188094 76.667302 
L 231.273895 75.451783 
L 232.359696 74.995321 
L 233.445497 76.140964 
L 234.531298 75.524804 
L 235.617099 75.843312 
L 236.702901 75.570201 
L 237.788702 75.939909 
L 239.960304 65.551844 
L 241.046105 68.520428 
L 242.131906 71.961802 
L 243.217708 69.039155 
L 244.303509 72.729351 
L 245.38931 70.426523 
L 246.475111 75.539489 
L 247.560912 72.352463 
L 248.646713 71.463543 
L 249.732514 68.530879 
L 250.818316 79.778067 
L 251.904117 71.230133 
L 252.989918 71.223479 
L 254.075719 71.948498 
L 255.16152 73.154613 
L 256.247321 72.946736 
L 257.333123 72.43667 
L 258.418924 72.66549 
L 259.504725 71.270468 
L 260.590526 73.841187 
L 261.676327 73.337173 
L 262.762128 72.079285 
L 263.847929 73.148574 
L 264.933731 69.830415 
L 266.019532 70.079598 
L 267.105333 71.361557 
L 268.191134 70.960146 
L 269.276935 66.755748 
L 270.362736 65.52068 
L 271.448538 62.394397 
L 272.534339 65.474832 
L 273.62014 70.365282 
L 274.705941 64.673605 
L 275.791742 59.617992 
L 276.877543 59.343014 
L 277.963344 62.230243 
L 279.049146 62.248672 
L 280.134947 63.197107 
L 281.220748 61.850542 
L 282.306549 61.190371 
L 283.39235 61.65153 
L 284.478151 70.209873 
L 285.563953 74.450335 
L 286.649754 66.65498 
L 287.735555 67.724171 
L 288.821356 65.822515 
L 289.907157 68.179356 
L 290.992958 62.62252 
L 292.07876 71.22589 
L 293.164561 63.671291 
L 294.250362 63.967093 
L 295.336163 64.438 
L 296.421964 63.474753 
L 297.507765 57.371104 
L 298.593566 62.479262 
L 299.679368 64.865449 
L 300.765169 62.715495 
L 301.85097 65.512361 
L 302.936771 62.771439 
L 304.022572 58.856541 
L 305.108373 59.279057 
L 306.194175 61.064733 
L 307.279976 61.784603 
L 308.365777 61.721069 
L 309.451578 63.806667 
L 310.537379 59.73722 
L 311.62318 59.133339 
L 312.708981 61.214212 
L 313.794783 60.321791 
L 314.880584 61.851358 
L 315.966385 61.980565 
L 317.052186 67.936608 
L 318.137987 63.667933 
L 319.223788 65.841487 
L 320.30959 59.296552 
L 321.395391 59.541094 
L 323.566993 54.70924 
L 324.652794 57.123925 
L 325.738595 53.568 
L 326.824396 55.791681 
L 327.910198 54.559201 
L 328.995999 55.946572 
L 330.0818 60.242734 
L 331.167601 62.190671 
L 332.253402 61.985696 
L 333.339203 62.339694 
L 334.425005 64.170245 
L 335.510806 61.97764 
L 336.596607 61.145802 
L 337.682408 59.181834 
L 338.768209 60.534249 
L 339.85401 59.166542 
L 340.939811 62.924179 
L 342.025613 64.681439 
L 343.111414 67.202956 
L 344.197215 64.295415 
L 345.283016 64.315602 
L 346.368817 67.278485 
L 347.454618 63.193032 
L 348.54042 60.733513 
L 349.626221 61.285373 
L 350.712022 59.996966 
L 351.797823 54.712452 
L 352.883624 55.191034 
L 353.969425 54.310577 
L 355.055227 56.408486 
L 356.141028 59.058331 
L 357.226829 64.192459 
L 358.31263 61.975196 
L 359.398431 64.083895 
L 360.484232 70.091769 
L 361.570033 64.748508 
L 362.655835 71.427039 
L 363.741636 62.005806 
L 364.827437 66.010529 
L 365.913238 70.939376 
L 366.999039 67.522878 
L 368.08484 62.73686 
L 369.170642 61.307163 
L 370.256443 61.285074 
L 371.342244 59.670027 
L 372.428045 61.03628 
L 373.513846 62.160109 
L 374.599647 57.415003 
L 375.685448 57.894329 
L 377.857051 57.457609 
L 378.942852 56.050345 
L 380.028653 57.095077 
L 381.114454 62.378137 
L 382.200255 60.304137 
L 383.286057 61.8733 
L 384.371858 59.255415 
L 385.457659 62.389765 
L 386.54346 63.880947 
L 387.629261 63.626566 
L 388.715062 64.310936 
L 389.800863 67.245979 
L 390.886665 68.940619 
L 391.972466 67.021096 
L 393.058267 66.403662 
L 394.144068 71.25796 
L 395.229869 71.588258 
L 396.31567 66.370858 
L 397.401472 67.222378 
L 398.487273 70.254699 
L 398.487273 70.254699 
" style="fill:none;stroke:#666666;stroke-dasharray:1,1.65;stroke-dashoffset:0;"/>
    <defs>
     <path d="M 0 0.5 
C 0.132602 0.5 0.25979 0.447317 0.353553 0.353553 
C 0.447317 0.25979 0.5 0.132602 0.5 0 
C 0.5 -0.132602 0.447317 -0.25979 0.353553 -0.353553 
C 0.25979 -0.447317 0.132602 -0.5 0 -0.5 
C -0.132602 -0.5 -0.25979 -0.447317 -0.353553 -0.353553 
C -0.447317 -0.25979 -0.5 -0.132602 -0.5 0 
C -0.5 0.132602 -0.447317 0.25979 -0.353553 0.353553 
C -0.25979 0.447317 -0.132602 0.5 0 0.5 
z
" id="m06c10bee0c" style="stroke:#666666;"/>
    </defs>
    <g clip-path="url(#pba1a5b8499)">
     <use style="fill:#666666;stroke:#666666;" x="73.832727" xlink:href="#m06c10bee0c" y="295.488"/>
     <use style="fill:#666666;stroke:#666666;" x="74.918528" xlink:href="#m06c10bee0c" y="202.041905"/>
     <use style="fill:#666666;stroke:#666666;" x="76.00433" xlink:href="#m06c10bee0c" y="181.106179"/>
     <use style="fill:#666666;stroke:#666666;" x="77.090131" xlink:href="#m06c10bee0c" y="177.14333"/>
     <use style="fill:#666666;stroke:#666666;" x="78.175932" xlink:href="#m06c10bee0c" y="161.162865"/>
     <use style="fill:#666666;stroke:#666666;" x="79.261733" xlink:href="#m06c10bee0c" y="159.385405"/>
     <use style="fill:#666666;stroke:#666666;" x="80.347534" xlink:href="#m06c10bee0c" y="151.872338"/>
     <use style="fill:#666666;stroke:#666666;" x="81.433335" xlink:href="#m06c10bee0c" y="147.39041"/>
     <use style="fill:#666666;stroke:#666666;" x="82.519137" xlink:href="#m06c10bee0c" y="142.464511"/>
     <use style="fill:#666666;stroke:#666666;" x="83.604938" xlink:href="#m06c10bee0c" y="136.762941"/>
     <use style="fill:#666666;stroke:#666666;" x="84.690739" xlink:href="#m06c10bee0c" y="143.581931"/>
     <use style="fill:#666666;stroke:#666666;" x="85.77654" xlink:href="#m06c10bee0c" y="132.586947"/>
     <use style="fill:#666666;stroke:#666666;" x="86.862341" xlink:href="#m06c10bee0c" y="131.282676"/>
     <use style="fill:#666666;stroke:#666666;" x="87.948142" xlink:href="#m06c10bee0c" y="134.67935"/>
     <use style="fill:#666666;stroke:#666666;" x="89.033943" xlink:href="#m06c10bee0c" y="126.602643"/>
     <use style="fill:#666666;stroke:#666666;" x="90.119745" xlink:href="#m06c10bee0c" y="117.901911"/>
     <use style="fill:#666666;stroke:#666666;" x="91.205546" xlink:href="#m06c10bee0c" y="108.295476"/>
     <use style="fill:#666666;stroke:#666666;" x="92.291347" xlink:href="#m06c10bee0c" y="106.732861"/>
     <use style="fill:#666666;stroke:#666666;" x="93.377148" xlink:href="#m06c10bee0c" y="103.048954"/>
     <use style="fill:#666666;stroke:#666666;" x="94.462949" xlink:href="#m06c10bee0c" y="114.896527"/>
     <use style="fill:#666666;stroke:#666666;" x="95.54875" xlink:href="#m06c10bee0c" y="114.562551"/>
     <use style="fill:#666666;stroke:#666666;" x="96.634552" xlink:href="#m06c10bee0c" y="119.989807"/>
     <use style="fill:#666666;stroke:#666666;" x="97.720353" xlink:href="#m06c10bee0c" y="117.547454"/>
     <use style="fill:#666666;stroke:#666666;" x="98.806154" xlink:href="#m06c10bee0c" y="115.369856"/>
     <use style="fill:#666666;stroke:#666666;" x="99.891955" xlink:href="#m06c10bee0c" y="115.465785"/>
     <use style="fill:#666666;stroke:#666666;" x="100.977756" xlink:href="#m06c10bee0c" y="108.999441"/>
     <use style="fill:#666666;stroke:#666666;" x="102.063557" xlink:href="#m06c10bee0c" y="105.774009"/>
     <use style="fill:#666666;stroke:#666666;" x="103.149358" xlink:href="#m06c10bee0c" y="103.913716"/>
     <use style="fill:#666666;stroke:#666666;" x="104.23516" xlink:href="#m06c10bee0c" y="102.188894"/>
     <use style="fill:#666666;stroke:#666666;" x="105.320961" xlink:href="#m06c10bee0c" y="102.14193"/>
     <use style="fill:#666666;stroke:#666666;" x="106.406762" xlink:href="#m06c10bee0c" y="107.785384"/>
     <use style="fill:#666666;stroke:#666666;" x="107.492563" xlink:href="#m06c10bee0c" y="108.638092"/>
     <use style="fill:#666666;stroke:#666666;" x="108.578364" xlink:href="#m06c10bee0c" y="101.790758"/>
     <use style="fill:#666666;stroke:#666666;" x="109.664165" xlink:href="#m06c10bee0c" y="103.289736"/>
     <use style="fill:#666666;stroke:#666666;" x="110.749967" xlink:href="#m06c10bee0c" y="103.791266"/>
     <use style="fill:#666666;stroke:#666666;" x="111.835768" xlink:href="#m06c10bee0c" y="98.652818"/>
     <use style="fill:#666666;stroke:#666666;" x="112.921569" xlink:href="#m06c10bee0c" y="98.83129"/>
     <use style="fill:#666666;stroke:#666666;" x="114.00737" xlink:href="#m06c10bee0c" y="93.139466"/>
     <use style="fill:#666666;stroke:#666666;" x="115.093171" xlink:href="#m06c10bee0c" y="95.057718"/>
     <use style="fill:#666666;stroke:#666666;" x="116.178972" xlink:href="#m06c10bee0c" y="90.415407"/>
     <use style="fill:#666666;stroke:#666666;" x="117.264773" xlink:href="#m06c10bee0c" y="98.613123"/>
     <use style="fill:#666666;stroke:#666666;" x="118.350575" xlink:href="#m06c10bee0c" y="92.374664"/>
     <use style="fill:#666666;stroke:#666666;" x="119.436376" xlink:href="#m06c10bee0c" y="98.958726"/>
     <use style="fill:#666666;stroke:#666666;" x="120.522177" xlink:href="#m06c10bee0c" y="92.160882"/>
     <use style="fill:#666666;stroke:#666666;" x="121.607978" xlink:href="#m06c10bee0c" y="83.458343"/>
     <use style="fill:#666666;stroke:#666666;" x="122.693779" xlink:href="#m06c10bee0c" y="90.540041"/>
     <use style="fill:#666666;stroke:#666666;" x="123.77958" xlink:href="#m06c10bee0c" y="87.753823"/>
     <use style="fill:#666666;stroke:#666666;" x="124.865382" xlink:href="#m06c10bee0c" y="89.097123"/>
     <use style="fill:#666666;stroke:#666666;" x="125.951183" xlink:href="#m06c10bee0c" y="88.156347"/>
     <use style="fill:#666666;stroke:#666666;" x="127.036984" xlink:href="#m06c10bee0c" y="83.005226"/>
     <use style="fill:#666666;stroke:#666666;" x="128.122785" xlink:href="#m06c10bee0c" y="86.848459"/>
     <use style="fill:#666666;stroke:#666666;" x="129.208586" xlink:href="#m06c10bee0c" y="85.81698"/>
     <use style="fill:#666666;stroke:#666666;" x="130.294387" xlink:href="#m06c10bee0c" y="90.227575"/>
     <use style="fill:#666666;stroke:#666666;" x="131.380189" xlink:href="#m06c10bee0c" y="91.086611"/>
     <use style="fill:#666666;stroke:#666666;" x="132.46599" xlink:href="#m06c10bee0c" y="86.866509"/>
     <use style="fill:#666666;stroke:#666666;" x="133.551791" xlink:href="#m06c10bee0c" y="87.411874"/>
     <use style="fill:#666666;stroke:#666666;" x="134.637592" xlink:href="#m06c10bee0c" y="86.800515"/>
     <use style="fill:#666666;stroke:#666666;" x="135.723393" xlink:href="#m06c10bee0c" y="87.838588"/>
     <use style="fill:#666666;stroke:#666666;" x="136.809194" xlink:href="#m06c10bee0c" y="91.465781"/>
     <use style="fill:#666666;stroke:#666666;" x="137.894995" xlink:href="#m06c10bee0c" y="90.890536"/>
     <use style="fill:#666666;stroke:#666666;" x="138.980797" xlink:href="#m06c10bee0c" y="88.200809"/>
     <use style="fill:#666666;stroke:#666666;" x="140.066598" xlink:href="#m06c10bee0c" y="85.819036"/>
     <use style="fill:#666666;stroke:#666666;" x="141.152399" xlink:href="#m06c10bee0c" y="86.759648"/>
     <use style="fill:#666666;stroke:#666666;" x="142.2382" xlink:href="#m06c10bee0c" y="85.711075"/>
     <use style="fill:#666666;stroke:#666666;" x="143.324001" xlink:href="#m06c10bee0c" y="80.673048"/>
     <use style="fill:#666666;stroke:#666666;" x="144.409802" xlink:href="#m06c10bee0c" y="75.303494"/>
     <use style="fill:#666666;stroke:#666666;" x="145.495604" xlink:href="#m06c10bee0c" y="82.772018"/>
     <use style="fill:#666666;stroke:#666666;" x="146.581405" xlink:href="#m06c10bee0c" y="83.592721"/>
     <use style="fill:#666666;stroke:#666666;" x="147.667206" xlink:href="#m06c10bee0c" y="81.2336"/>
     <use style="fill:#666666;stroke:#666666;" x="148.753007" xlink:href="#m06c10bee0c" y="82.237638"/>
     <use style="fill:#666666;stroke:#666666;" x="149.838808" xlink:href="#m06c10bee0c" y="77.310825"/>
     <use style="fill:#666666;stroke:#666666;" x="150.924609" xlink:href="#m06c10bee0c" y="79.674865"/>
     <use style="fill:#666666;stroke:#666666;" x="152.01041" xlink:href="#m06c10bee0c" y="81.957405"/>
     <use style="fill:#666666;stroke:#666666;" x="153.096212" xlink:href="#m06c10bee0c" y="83.675744"/>
     <use style="fill:#666666;stroke:#666666;" x="154.182013" xlink:href="#m06c10bee0c" y="80.528324"/>
     <use style="fill:#666666;stroke:#666666;" x="155.267814" xlink:href="#m06c10bee0c" y="85.133478"/>
     <use style="fill:#666666;stroke:#666666;" x="156.353615" xlink:href="#m06c10bee0c" y="86.29653"/>
     <use style="fill:#666666;stroke:#666666;" x="157.439416" xlink:href="#m06c10bee0c" y="83.519683"/>
     <use style="fill:#666666;stroke:#666666;" x="158.525217" xlink:href="#m06c10bee0c" y="87.798194"/>
     <use style="fill:#666666;stroke:#666666;" x="159.611019" xlink:href="#m06c10bee0c" y="83.046724"/>
     <use style="fill:#666666;stroke:#666666;" x="160.69682" xlink:href="#m06c10bee0c" y="87.186656"/>
     <use style="fill:#666666;stroke:#666666;" x="161.782621" xlink:href="#m06c10bee0c" y="90.94177"/>
     <use style="fill:#666666;stroke:#666666;" x="162.868422" xlink:href="#m06c10bee0c" y="83.480243"/>
     <use style="fill:#666666;stroke:#666666;" x="163.954223" xlink:href="#m06c10bee0c" y="85.560187"/>
     <use style="fill:#666666;stroke:#666666;" x="165.040024" xlink:href="#m06c10bee0c" y="87.113118"/>
     <use style="fill:#666666;stroke:#666666;" x="166.125825" xlink:href="#m06c10bee0c" y="83.9044"/>
     <use style="fill:#666666;stroke:#666666;" x="167.211627" xlink:href="#m06c10bee0c" y="85.742868"/>
     <use style="fill:#666666;stroke:#666666;" x="168.297428" xlink:href="#m06c10bee0c" y="86.914175"/>
     <use style="fill:#666666;stroke:#666666;" x="169.383229" xlink:href="#m06c10bee0c" y="88.59017"/>
     <use style="fill:#666666;stroke:#666666;" x="170.46903" xlink:href="#m06c10bee0c" y="86.474029"/>
     <use style="fill:#666666;stroke:#666666;" x="171.554831" xlink:href="#m06c10bee0c" y="87.241914"/>
     <use style="fill:#666666;stroke:#666666;" x="172.640632" xlink:href="#m06c10bee0c" y="75.150477"/>
     <use style="fill:#666666;stroke:#666666;" x="173.726434" xlink:href="#m06c10bee0c" y="78.890008"/>
     <use style="fill:#666666;stroke:#666666;" x="174.812235" xlink:href="#m06c10bee0c" y="78.7347"/>
     <use style="fill:#666666;stroke:#666666;" x="175.898036" xlink:href="#m06c10bee0c" y="78.803156"/>
     <use style="fill:#666666;stroke:#666666;" x="176.983837" xlink:href="#m06c10bee0c" y="83.982014"/>
     <use style="fill:#666666;stroke:#666666;" x="178.069638" xlink:href="#m06c10bee0c" y="86.44229"/>
     <use style="fill:#666666;stroke:#666666;" x="179.155439" xlink:href="#m06c10bee0c" y="79.996347"/>
     <use style="fill:#666666;stroke:#666666;" x="180.24124" xlink:href="#m06c10bee0c" y="82.17182"/>
     <use style="fill:#666666;stroke:#666666;" x="181.327042" xlink:href="#m06c10bee0c" y="86.331839"/>
     <use style="fill:#666666;stroke:#666666;" x="182.412843" xlink:href="#m06c10bee0c" y="86.217904"/>
     <use style="fill:#666666;stroke:#666666;" x="183.498644" xlink:href="#m06c10bee0c" y="91.659218"/>
     <use style="fill:#666666;stroke:#666666;" x="184.584445" xlink:href="#m06c10bee0c" y="88.034446"/>
     <use style="fill:#666666;stroke:#666666;" x="185.670246" xlink:href="#m06c10bee0c" y="84.007539"/>
     <use style="fill:#666666;stroke:#666666;" x="186.756047" xlink:href="#m06c10bee0c" y="88.297044"/>
     <use style="fill:#666666;stroke:#666666;" x="187.841849" xlink:href="#m06c10bee0c" y="89.927697"/>
     <use style="fill:#666666;stroke:#666666;" x="188.92765" xlink:href="#m06c10bee0c" y="85.542762"/>
     <use style="fill:#666666;stroke:#666666;" x="190.013451" xlink:href="#m06c10bee0c" y="88.2411"/>
     <use style="fill:#666666;stroke:#666666;" x="191.099252" xlink:href="#m06c10bee0c" y="83.835088"/>
     <use style="fill:#666666;stroke:#666666;" x="192.185053" xlink:href="#m06c10bee0c" y="81.807628"/>
     <use style="fill:#666666;stroke:#666666;" x="193.270854" xlink:href="#m06c10bee0c" y="79.073644"/>
     <use style="fill:#666666;stroke:#666666;" x="194.356656" xlink:href="#m06c10bee0c" y="81.789033"/>
     <use style="fill:#666666;stroke:#666666;" x="195.442457" xlink:href="#m06c10bee0c" y="78.821448"/>
     <use style="fill:#666666;stroke:#666666;" x="196.528258" xlink:href="#m06c10bee0c" y="78.834173"/>
     <use style="fill:#666666;stroke:#666666;" x="197.614059" xlink:href="#m06c10bee0c" y="81.780566"/>
     <use style="fill:#666666;stroke:#666666;" x="198.69986" xlink:href="#m06c10bee0c" y="79.264411"/>
     <use style="fill:#666666;stroke:#666666;" x="199.785661" xlink:href="#m06c10bee0c" y="79.296347"/>
     <use style="fill:#666666;stroke:#666666;" x="200.871462" xlink:href="#m06c10bee0c" y="82.132522"/>
     <use style="fill:#666666;stroke:#666666;" x="201.957264" xlink:href="#m06c10bee0c" y="79.203226"/>
     <use style="fill:#666666;stroke:#666666;" x="203.043065" xlink:href="#m06c10bee0c" y="80.561898"/>
     <use style="fill:#666666;stroke:#666666;" x="204.128866" xlink:href="#m06c10bee0c" y="74.519318"/>
     <use style="fill:#666666;stroke:#666666;" x="205.214667" xlink:href="#m06c10bee0c" y="79.219687"/>
     <use style="fill:#666666;stroke:#666666;" x="206.300468" xlink:href="#m06c10bee0c" y="81.209839"/>
     <use style="fill:#666666;stroke:#666666;" x="207.386269" xlink:href="#m06c10bee0c" y="79.846409"/>
     <use style="fill:#666666;stroke:#666666;" x="208.472071" xlink:href="#m06c10bee0c" y="77.071177"/>
     <use style="fill:#666666;stroke:#666666;" x="209.557872" xlink:href="#m06c10bee0c" y="77.227598"/>
     <use style="fill:#666666;stroke:#666666;" x="210.643673" xlink:href="#m06c10bee0c" y="83.306369"/>
     <use style="fill:#666666;stroke:#666666;" x="211.729474" xlink:href="#m06c10bee0c" y="77.128991"/>
     <use style="fill:#666666;stroke:#666666;" x="212.815275" xlink:href="#m06c10bee0c" y="84.593593"/>
     <use style="fill:#666666;stroke:#666666;" x="213.901076" xlink:href="#m06c10bee0c" y="77.728885"/>
     <use style="fill:#666666;stroke:#666666;" x="214.986877" xlink:href="#m06c10bee0c" y="77.601963"/>
     <use style="fill:#666666;stroke:#666666;" x="216.072679" xlink:href="#m06c10bee0c" y="82.171287"/>
     <use style="fill:#666666;stroke:#666666;" x="217.15848" xlink:href="#m06c10bee0c" y="79.395406"/>
     <use style="fill:#666666;stroke:#666666;" x="218.244281" xlink:href="#m06c10bee0c" y="83.887563"/>
     <use style="fill:#666666;stroke:#666666;" x="219.330082" xlink:href="#m06c10bee0c" y="87.56245"/>
     <use style="fill:#666666;stroke:#666666;" x="220.415883" xlink:href="#m06c10bee0c" y="86.284886"/>
     <use style="fill:#666666;stroke:#666666;" x="221.501684" xlink:href="#m06c10bee0c" y="85.441708"/>
     <use style="fill:#666666;stroke:#666666;" x="222.587486" xlink:href="#m06c10bee0c" y="77.746708"/>
     <use style="fill:#666666;stroke:#666666;" x="223.673287" xlink:href="#m06c10bee0c" y="79.753334"/>
     <use style="fill:#666666;stroke:#666666;" x="224.759088" xlink:href="#m06c10bee0c" y="77.997502"/>
     <use style="fill:#666666;stroke:#666666;" x="225.844889" xlink:href="#m06c10bee0c" y="77.650655"/>
     <use style="fill:#666666;stroke:#666666;" x="226.93069" xlink:href="#m06c10bee0c" y="75.526353"/>
     <use style="fill:#666666;stroke:#666666;" x="228.016491" xlink:href="#m06c10bee0c" y="77.886551"/>
     <use style="fill:#666666;stroke:#666666;" x="229.102292" xlink:href="#m06c10bee0c" y="75.655003"/>
     <use style="fill:#666666;stroke:#666666;" x="230.188094" xlink:href="#m06c10bee0c" y="76.667302"/>
     <use style="fill:#666666;stroke:#666666;" x="231.273895" xlink:href="#m06c10bee0c" y="75.451783"/>
     <use style="fill:#666666;stroke:#666666;" x="232.359696" xlink:href="#m06c10bee0c" y="74.995321"/>
     <use style="fill:#666666;stroke:#666666;" x="233.445497" xlink:href="#m06c10bee0c" y="76.140964"/>
     <use style="fill:#666666;stroke:#666666;" x="234.531298" xlink:href="#m06c10bee0c" y="75.524804"/>
     <use style="fill:#666666;stroke:#666666;" x="235.617099" xlink:href="#m06c10bee0c" y="75.843312"/>
     <use style="fill:#666666;stroke:#666666;" x="236.702901" xlink:href="#m06c10bee0c" y="75.570201"/>
     <use style="fill:#666666;stroke:#666666;" x="237.788702" xlink:href="#m06c10bee0c" y="75.939909"/>
     <use style="fill:#666666;stroke:#666666;" x="238.874503" xlink:href="#m06c10bee0c" y="70.779622"/>
     <use style="fill:#666666;stroke:#666666;" x="239.960304" xlink:href="#m06c10bee0c" y="65.551844"/>
     <use style="fill:#666666;stroke:#666666;" x="241.046105" xlink:href="#m06c10bee0c" y="68.520428"/>
     <use style="fill:#666666;stroke:#666666;" x="242.131906" xlink:href="#m06c10bee0c" y="71.961802"/>
     <use style="fill:#666666;stroke:#666666;" x="243.217708" xlink:href="#m06c10bee0c" y="69.039155"/>
     <use style="fill:#666666;stroke:#666666;" x="244.303509" xlink:href="#m06c10bee0c" y="72.729351"/>
     <use style="fill:#666666;stroke:#666666;" x="245.38931" xlink:href="#m06c10bee0c" y="70.426523"/>
     <use style="fill:#666666;stroke:#666666;" x="246.475111" xlink:href="#m06c10bee0c" y="75.539489"/>
     <use style="fill:#666666;stroke:#666666;" x="247.560912" xlink:href="#m06c10bee0c" y="72.352463"/>
     <use style="fill:#666666;stroke:#666666;" x="248.646713" xlink:href="#m06c10bee0c" y="71.463543"/>
     <use style="fill:#666666;stroke:#666666;" x="249.732514" xlink:href="#m06c10bee0c" y="68.530879"/>
     <use style="fill:#666666;stroke:#666666;" x="250.818316" xlink:href="#m06c10bee0c" y="79.778067"/>
     <use style="fill:#666666;stroke:#666666;" x="251.904117" xlink:href="#m06c10bee0c" y="71.230133"/>
     <use style="fill:#666666;stroke:#666666;" x="252.989918" xlink:href="#m06c10bee0c" y="71.223479"/>
     <use style="fill:#666666;stroke:#666666;" x="254.075719" xlink:href="#m06c10bee0c" y="71.948498"/>
     <use style="fill:#666666;stroke:#666666;" x="255.16152" xlink:href="#m06c10bee0c" y="73.154613"/>
     <use style="fill:#666666;stroke:#666666;" x="256.247321" xlink:href="#m06c10bee0c" y="72.946736"/>
     <use style="fill:#666666;stroke:#666666;" x="257.333123" xlink:href="#m06c10bee0c" y="72.43667"/>
     <use style="fill:#666666;stroke:#666666;" x="258.418924" xlink:href="#m06c10bee0c" y="72.66549"/>
     <use style="fill:#666666;stroke:#666666;" x="259.504725" xlink:href="#m06c10bee0c" y="71.270468"/>
     <use style="fill:#666666;stroke:#666666;" x="260.590526" xlink:href="#m06c10bee0c" y="73.841187"/>
     <use style="fill:#666666;stroke:#666666;" x="261.676327" xlink:href="#m06c10bee0c" y="73.337173"/>
     <use style="fill:#666666;stroke:#666666;" x="262.762128" xlink:href="#m06c10bee0c" y="72.079285"/>
     <use style="fill:#666666;stroke:#666666;" x="263.847929" xlink:href="#m06c10bee0c" y="73.148574"/>
     <use style="fill:#666666;stroke:#666666;" x="264.933731" xlink:href="#m06c10bee0c" y="69.830415"/>
     <use style="fill:#666666;stroke:#666666;" x="266.019532" xlink:href="#m06c10bee0c" y="70.079598"/>
     <use style="fill:#666666;stroke:#666666;" x="267.105333" xlink:href="#m06c10bee0c" y="71.361557"/>
     <use style="fill:#666666;stroke:#666666;" x="268.191134" xlink:href="#m06c10bee0c" y="70.960146"/>
     <use style="fill:#666666;stroke:#666666;" x="269.276935" xlink:href="#m06c10bee0c" y="66.755748"/>
     <use style="fill:#666666;stroke:#666666;" x="270.362736" xlink:href="#m06c10bee0c" y="65.52068"/>
     <use style="fill:#666666;stroke:#666666;" x="271.448538" xlink:href="#m06c10bee0c" y="62.394397"/>
     <use style="fill:#666666;stroke:#666666;" x="272.534339" xlink:href="#m06c10bee0c" y="65.474832"/>
     <use style="fill:#666666;stroke:#666666;" x="273.62014" xlink:href="#m06c10bee0c" y="70.365282"/>
     <use style="fill:#666666;stroke:#666666;" x="274.705941" xlink:href="#m06c10bee0c" y="64.673605"/>
     <use style="fill:#666666;stroke:#666666;" x="275.791742" xlink:href="#m06c10bee0c" y="59.617992"/>
     <use style="fill:#666666;stroke:#666666;" x="276.877543" xlink:href="#m06c10bee0c" y="59.343014"/>
     <use style="fill:#666666;stroke:#666666;" x="277.963344" xlink:href="#m06c10bee0c" y="62.230243"/>
     <use style="fill:#666666;stroke:#666666;" x="279.049146" xlink:href="#m06c10bee0c" y="62.248672"/>
     <use style="fill:#666666;stroke:#666666;" x="280.134947" xlink:href="#m06c10bee0c" y="63.197107"/>
     <use style="fill:#666666;stroke:#666666;" x="281.220748" xlink:href="#m06c10bee0c" y="61.850542"/>
     <use style="fill:#666666;stroke:#666666;" x="282.306549" xlink:href="#m06c10bee0c" y="61.190371"/>
     <use style="fill:#666666;stroke:#666666;" x="283.39235" xlink:href="#m06c10bee0c" y="61.65153"/>
     <use style="fill:#666666;stroke:#666666;" x="284.478151" xlink:href="#m06c10bee0c" y="70.209873"/>
     <use style="fill:#666666;stroke:#666666;" x="285.563953" xlink:href="#m06c10bee0c" y="74.450335"/>
     <use style="fill:#666666;stroke:#666666;" x="286.649754" xlink:href="#m06c10bee0c" y="66.65498"/>
     <use style="fill:#666666;stroke:#666666;" x="287.735555" xlink:href="#m06c10bee0c" y="67.724171"/>
     <use style="fill:#666666;stroke:#666666;" x="288.821356" xlink:href="#m06c10bee0c" y="65.822515"/>
     <use style="fill:#666666;stroke:#666666;" x="289.907157" xlink:href="#m06c10bee0c" y="68.179356"/>
     <use style="fill:#666666;stroke:#666666;" x="290.992958" xlink:href="#m06c10bee0c" y="62.62252"/>
     <use style="fill:#666666;stroke:#666666;" x="292.07876" xlink:href="#m06c10bee0c" y="71.22589"/>
     <use style="fill:#666666;stroke:#666666;" x="293.164561" xlink:href="#m06c10bee0c" y="63.671291"/>
     <use style="fill:#666666;stroke:#666666;" x="294.250362" xlink:href="#m06c10bee0c" y="63.967093"/>
     <use style="fill:#666666;stroke:#666666;" x="295.336163" xlink:href="#m06c10bee0c" y="64.438"/>
     <use style="fill:#666666;stroke:#666666;" x="296.421964" xlink:href="#m06c10bee0c" y="63.474753"/>
     <use style="fill:#666666;stroke:#666666;" x="297.507765" xlink:href="#m06c10bee0c" y="57.371104"/>
     <use style="fill:#666666;stroke:#666666;" x="298.593566" xlink:href="#m06c10bee0c" y="62.479262"/>
     <use style="fill:#666666;stroke:#666666;" x="299.679368" xlink:href="#m06c10bee0c" y="64.865449"/>
     <use style="fill:#666666;stroke:#666666;" x="300.765169" xlink:href="#m06c10bee0c" y="62.715495"/>
     <use style="fill:#666666;stroke:#666666;" x="301.85097" xlink:href="#m06c10bee0c" y="65.512361"/>
     <use style="fill:#666666;stroke:#666666;" x="302.936771" xlink:href="#m06c10bee0c" y="62.771439"/>
     <use style="fill:#666666;stroke:#666666;" x="304.022572" xlink:href="#m06c10bee0c" y="58.856541"/>
     <use style="fill:#666666;stroke:#666666;" x="305.108373" xlink:href="#m06c10bee0c" y="59.279057"/>
     <use style="fill:#666666;stroke:#666666;" x="306.194175" xlink:href="#m06c10bee0c" y="61.064733"/>
     <use style="fill:#666666;stroke:#666666;" x="307.279976" xlink:href="#m06c10bee0c" y="61.784603"/>
     <use style="fill:#666666;stroke:#666666;" x="308.365777" xlink:href="#m06c10bee0c" y="61.721069"/>
     <use style="fill:#666666;stroke:#666666;" x="309.451578" xlink:href="#m06c10bee0c" y="63.806667"/>
     <use style="fill:#666666;stroke:#666666;" x="310.537379" xlink:href="#m06c10bee0c" y="59.73722"/>
     <use style="fill:#666666;stroke:#666666;" x="311.62318" xlink:href="#m06c10bee0c" y="59.133339"/>
     <use style="fill:#666666;stroke:#666666;" x="312.708981" xlink:href="#m06c10bee0c" y="61.214212"/>
     <use style="fill:#666666;stroke:#666666;" x="313.794783" xlink:href="#m06c10bee0c" y="60.321791"/>
     <use style="fill:#666666;stroke:#666666;" x="314.880584" xlink:href="#m06c10bee0c" y="61.851358"/>
     <use style="fill:#666666;stroke:#666666;" x="315.966385" xlink:href="#m06c10bee0c" y="61.980565"/>
     <use style="fill:#666666;stroke:#666666;" x="317.052186" xlink:href="#m06c10bee0c" y="67.936608"/>
     <use style="fill:#666666;stroke:#666666;" x="318.137987" xlink:href="#m06c10bee0c" y="63.667933"/>
     <use style="fill:#666666;stroke:#666666;" x="319.223788" xlink:href="#m06c10bee0c" y="65.841487"/>
     <use style="fill:#666666;stroke:#666666;" x="320.30959" xlink:href="#m06c10bee0c" y="59.296552"/>
     <use style="fill:#666666;stroke:#666666;" x="321.395391" xlink:href="#m06c10bee0c" y="59.541094"/>
     <use style="fill:#666666;stroke:#666666;" x="322.481192" xlink:href="#m06c10bee0c" y="57.210099"/>
     <use style="fill:#666666;stroke:#666666;" x="323.566993" xlink:href="#m06c10bee0c" y="54.70924"/>
     <use style="fill:#666666;stroke:#666666;" x="324.652794" xlink:href="#m06c10bee0c" y="57.123925"/>
     <use style="fill:#666666;stroke:#666666;" x="325.738595" xlink:href="#m06c10bee0c" y="53.568"/>
     <use style="fill:#666666;stroke:#666666;" x="326.824396" xlink:href="#m06c10bee0c" y="55.791681"/>
     <use style="fill:#666666;stroke:#666666;" x="327.910198" xlink:href="#m06c10bee0c" y="54.559201"/>
     <use style="fill:#666666;stroke:#666666;" x="328.995999" xlink:href="#m06c10bee0c" y="55.946572"/>
     <use style="fill:#666666;stroke:#666666;" x="330.0818" xlink:href="#m06c10bee0c" y="60.242734"/>
     <use style="fill:#666666;stroke:#666666;" x="331.167601" xlink:href="#m06c10bee0c" y="62.190671"/>
     <use style="fill:#666666;stroke:#666666;" x="332.253402" xlink:href="#m06c10bee0c" y="61.985696"/>
     <use style="fill:#666666;stroke:#666666;" x="333.339203" xlink:href="#m06c10bee0c" y="62.339694"/>
     <use style="fill:#666666;stroke:#666666;" x="334.425005" xlink:href="#m06c10bee0c" y="64.170245"/>
     <use style="fill:#666666;stroke:#666666;" x="335.510806" xlink:href="#m06c10bee0c" y="61.97764"/>
     <use style="fill:#666666;stroke:#666666;" x="336.596607" xlink:href="#m06c10bee0c" y="61.145802"/>
     <use style="fill:#666666;stroke:#666666;" x="337.682408" xlink:href="#m06c10bee0c" y="59.181834"/>
     <use style="fill:#666666;stroke:#666666;" x="338.768209" xlink:href="#m06c10bee0c" y="60.534249"/>
     <use style="fill:#666666;stroke:#666666;" x="339.85401" xlink:href="#m06c10bee0c" y="59.166542"/>
     <use style="fill:#666666;stroke:#666666;" x="340.939811" xlink:href="#m06c10bee0c" y="62.924179"/>
     <use style="fill:#666666;stroke:#666666;" x="342.025613" xlink:href="#m06c10bee0c" y="64.681439"/>
     <use style="fill:#666666;stroke:#666666;" x="343.111414" xlink:href="#m06c10bee0c" y="67.202956"/>
     <use style="fill:#666666;stroke:#666666;" x="344.197215" xlink:href="#m06c10bee0c" y="64.295415"/>
     <use style="fill:#666666;stroke:#666666;" x="345.283016" xlink:href="#m06c10bee0c" y="64.315602"/>
     <use style="fill:#666666;stroke:#666666;" x="346.368817" xlink:href="#m06c10bee0c" y="67.278485"/>
     <use style="fill:#666666;stroke:#666666;" x="347.454618" xlink:href="#m06c10bee0c" y="63.193032"/>
     <use style="fill:#666666;stroke:#666666;" x="348.54042" xlink:href="#m06c10bee0c" y="60.733513"/>
     <use style="fill:#666666;stroke:#666666;" x="349.626221" xlink:href="#m06c10bee0c" y="61.285373"/>
     <use style="fill:#666666;stroke:#666666;" x="350.712022" xlink:href="#m06c10bee0c" y="59.996966"/>
     <use style="fill:#666666;stroke:#666666;" x="351.797823" xlink:href="#m06c10bee0c" y="54.712452"/>
     <use style="fill:#666666;stroke:#666666;" x="352.883624" xlink:href="#m06c10bee0c" y="55.191034"/>
     <use style="fill:#666666;stroke:#666666;" x="353.969425" xlink:href="#m06c10bee0c" y="54.310577"/>
     <use style="fill:#666666;stroke:#666666;" x="355.055227" xlink:href="#m06c10bee0c" y="56.408486"/>
     <use style="fill:#666666;stroke:#666666;" x="356.141028" xlink:href="#m06c10bee0c" y="59.058331"/>
     <use style="fill:#666666;stroke:#666666;" x="357.226829" xlink:href="#m06c10bee0c" y="64.192459"/>
     <use style="fill:#666666;stroke:#666666;" x="358.31263" xlink:href="#m06c10bee0c" y="61.975196"/>
     <use style="fill:#666666;stroke:#666666;" x="359.398431" xlink:href="#m06c10bee0c" y="64.083895"/>
     <use style="fill:#666666;stroke:#666666;" x="360.484232" xlink:href="#m06c10bee0c" y="70.091769"/>
     <use style="fill:#666666;stroke:#666666;" x="361.570033" xlink:href="#m06c10bee0c" y="64.748508"/>
     <use style="fill:#666666;stroke:#666666;" x="362.655835" xlink:href="#m06c10bee0c" y="71.427039"/>
     <use style="fill:#666666;stroke:#666666;" x="363.741636" xlink:href="#m06c10bee0c" y="62.005806"/>
     <use style="fill:#666666;stroke:#666666;" x="364.827437" xlink:href="#m06c10bee0c" y="66.010529"/>
     <use style="fill:#666666;stroke:#666666;" x="365.913238" xlink:href="#m06c10bee0c" y="70.939376"/>
     <use style="fill:#666666;stroke:#666666;" x="366.999039" xlink:href="#m06c10bee0c" y="67.522878"/>
     <use style="fill:#666666;stroke:#666666;" x="368.08484" xlink:href="#m06c10bee0c" y="62.73686"/>
     <use style="fill:#666666;stroke:#666666;" x="369.170642" xlink:href="#m06c10bee0c" y="61.307163"/>
     <use style="fill:#666666;stroke:#666666;" x="370.256443" xlink:href="#m06c10bee0c" y="61.285074"/>
     <use style="fill:#666666;stroke:#666666;" x="371.342244" xlink:href="#m06c10bee0c" y="59.670027"/>
     <use style="fill:#666666;stroke:#666666;" x="372.428045" xlink:href="#m06c10bee0c" y="61.03628"/>
     <use style="fill:#666666;stroke:#666666;" x="373.513846" xlink:href="#m06c10bee0c" y="62.160109"/>
     <use style="fill:#666666;stroke:#666666;" x="374.599647" xlink:href="#m06c10bee0c" y="57.415003"/>
     <use style="fill:#666666;stroke:#666666;" x="375.685448" xlink:href="#m06c10bee0c" y="57.894329"/>
     <use style="fill:#666666;stroke:#666666;" x="376.77125" xlink:href="#m06c10bee0c" y="57.667319"/>
     <use style="fill:#666666;stroke:#666666;" x="377.857051" xlink:href="#m06c10bee0c" y="57.457609"/>
     <use style="fill:#666666;stroke:#666666;" x="378.942852" xlink:href="#m06c10bee0c" y="56.050345"/>
     <use style="fill:#666666;stroke:#666666;" x="380.028653" xlink:href="#m06c10bee0c" y="57.095077"/>
     <use style="fill:#666666;stroke:#666666;" x="381.114454" xlink:href="#m06c10bee0c" y="62.378137"/>
     <use style="fill:#666666;stroke:#666666;" x="382.200255" xlink:href="#m06c10bee0c" y="60.304137"/>
     <use style="fill:#666666;stroke:#666666;" x="383.286057" xlink:href="#m06c10bee0c" y="61.8733"/>
     <use style="fill:#666666;stroke:#666666;" x="384.371858" xlink:href="#m06c10bee0c" y="59.255415"/>
     <use style="fill:#666666;stroke:#666666;" x="385.457659" xlink:href="#m06c10bee0c" y="62.389765"/>
     <use style="fill:#666666;stroke:#666666;" x="386.54346" xlink:href="#m06c10bee0c" y="63.880947"/>
     <use style="fill:#666666;stroke:#666666;" x="387.629261" xlink:href="#m06c10bee0c" y="63.626566"/>
     <use style="fill:#666666;stroke:#666666;" x="388.715062" xlink:href="#m06c10bee0c" y="64.310936"/>
     <use style="fill:#666666;stroke:#666666;" x="389.800863" xlink:href="#m06c10bee0c" y="67.245979"/>
     <use style="fill:#666666;stroke:#666666;" x="390.886665" xlink:href="#m06c10bee0c" y="68.940619"/>
     <use style="fill:#666666;stroke:#666666;" x="391.972466" xlink:href="#m06c10bee0c" y="67.021096"/>
     <use style="fill:#666666;stroke:#666666;" x="393.058267" xlink:href="#m06c10bee0c" y="66.403662"/>
     <use style="fill:#666666;stroke:#666666;" x="394.144068" xlink:href="#m06c10bee0c" y="71.25796"/>
     <use style="fill:#666666;stroke:#666666;" x="395.229869" xlink:href="#m06c10bee0c" y="71.588258"/>
     <use style="fill:#666666;stroke:#666666;" x="396.31567" xlink:href="#m06c10bee0c" y="66.370858"/>
     <use style="fill:#666666;stroke:#666666;" x="397.401472" xlink:href="#m06c10bee0c" y="67.222378"/>
     <use style="fill:#666666;stroke:#666666;" x="398.487273" xlink:href="#m06c10bee0c" y="70.254699"/>
    </g>
   </g>
   <g id="patch_3">
    <path d="M 57.6 307.584 
L 57.6 41.472 
" style="fill:none;stroke:#000000;stroke-linecap:square;stroke-linejoin:miter;stroke-width:0.8;"/>
   </g>
   <g id="patch_4">
    <path d="M 414.72 307.584 
L 414.72 41.472 
" style="fill:none;stroke:#000000;stroke-linecap:square;stroke-linejoin:miter;stroke-width:0.8;"/>
   </g>
   <g id="patch_5">
    <path d="M 57.6 307.584 
L 414.72 307.584 
" style="fill:none;stroke:#000000;stroke-linecap:square;stroke-linejoin:miter;stroke-width:0.8;"/>
   </g>
   <g id="patch_6">
    <path d="M 57.6 41.472 
L 414.72 41.472 
" style="fill:none;stroke:#000000;stroke-linecap:square;stroke-linejoin:miter;stroke-width:0.8;"/>
   </g>
  </g>
 </g>
 <defs>
  <clipPath id="pba1a5b8499">
   <rect height="266.112" width="357.12" x="57.6" y="41.472"/>
  </clipPath>
 </defs>
</svg>
