<?xml version="1.0" encoding="utf-8" standalone="no"?>
<!DOCTYPE svg PUBLIC "-//W3C//DTD SVG 1.1//EN"
  "http://www.w3.org/Graphics/SVG/1.1/DTD/svg11.dtd">
<!-- Created with matplotlib (http://matplotlib.org/) -->
<svg height="345.6pt" version="1.1" viewBox="0 0 460.8 345.6" width="460.8pt" xmlns="http://www.w3.org/2000/svg" xmlns:xlink="http://www.w3.org/1999/xlink">
 <defs>
  <style type="text/css">
*{stroke-linecap:butt;stroke-linejoin:round;}
  </style>
 </defs>
 <g id="figure_1">
  <g id="patch_1">
   <path d="M 0 345.6 
L 460.8 345.6 
L 460.8 0 
L 0 0 
z
" style="fill:#ffffff;"/>
  </g>
  <g id="axes_1">
   <g id="patch_2">
    <path d="M 57.6 307.584 
L 414.72 307.584 
L 414.72 41.472 
L 57.6 41.472 
z
" style="fill:#ffffff;"/>
   </g>
   <g id="matplotlib.axis_1">
    <g id="xtick_1">
     <g id="line2d_1">
      <defs>
       <path d="M 0 0 
L 0 3.5 
" id="m8c49402d19" style="stroke:#000000;stroke-width:0.8;"/>
      </defs>
      <g>
       <use style="stroke:#000000;stroke-width:0.8;" x="73.832727" xlink:href="#m8c49402d19" y="307.584"/>
      </g>
     </g>
     <g id="text_1">
      <!-- 0 -->
      <defs>
       <path d="M 31.78125 66.40625 
Q 24.171875 66.40625 20.328125 58.90625 
Q 16.5 51.421875 16.5 36.375 
Q 16.5 21.390625 20.328125 13.890625 
Q 24.171875 6.390625 31.78125 6.390625 
Q 39.453125 6.390625 43.28125 13.890625 
Q 47.125 21.390625 47.125 36.375 
Q 47.125 51.421875 43.28125 58.90625 
Q 39.453125 66.40625 31.78125 66.40625 
z
M 31.78125 74.21875 
Q 44.046875 74.21875 50.515625 64.515625 
Q 56.984375 54.828125 56.984375 36.375 
Q 56.984375 17.96875 50.515625 8.265625 
Q 44.046875 -1.421875 31.78125 -1.421875 
Q 19.53125 -1.421875 13.0625 8.265625 
Q 6.59375 17.96875 6.59375 36.375 
Q 6.59375 54.828125 13.0625 64.515625 
Q 19.53125 74.21875 31.78125 74.21875 
z
" id="DejaVuSans-30"/>
      </defs>
      <g transform="translate(70.651477 322.182437)scale(0.1 -0.1)">
       <use xlink:href="#DejaVuSans-30"/>
      </g>
     </g>
    </g>
    <g id="xtick_2">
     <g id="line2d_2">
      <g>
       <use style="stroke:#000000;stroke-width:0.8;" x="128.122785" xlink:href="#m8c49402d19" y="307.584"/>
      </g>
     </g>
     <g id="text_2">
      <!-- 50 -->
      <defs>
       <path d="M 10.796875 72.90625 
L 49.515625 72.90625 
L 49.515625 64.59375 
L 19.828125 64.59375 
L 19.828125 46.734375 
Q 21.96875 47.46875 24.109375 47.828125 
Q 26.265625 48.1875 28.421875 48.1875 
Q 40.625 48.1875 47.75 41.5 
Q 54.890625 34.8125 54.890625 23.390625 
Q 54.890625 11.625 47.5625 5.09375 
Q 40.234375 -1.421875 26.90625 -1.421875 
Q 22.3125 -1.421875 17.546875 -0.640625 
Q 12.796875 0.140625 7.71875 1.703125 
L 7.71875 11.625 
Q 12.109375 9.234375 16.796875 8.0625 
Q 21.484375 6.890625 26.703125 6.890625 
Q 35.15625 6.890625 40.078125 11.328125 
Q 45.015625 15.765625 45.015625 23.390625 
Q 45.015625 31 40.078125 35.4375 
Q 35.15625 39.890625 26.703125 39.890625 
Q 22.75 39.890625 18.8125 39.015625 
Q 14.890625 38.140625 10.796875 36.28125 
z
" id="DejaVuSans-35"/>
      </defs>
      <g transform="translate(121.760285 322.182437)scale(0.1 -0.1)">
       <use xlink:href="#DejaVuSans-35"/>
       <use x="63.623047" xlink:href="#DejaVuSans-30"/>
      </g>
     </g>
    </g>
    <g id="xtick_3">
     <g id="line2d_3">
      <g>
       <use style="stroke:#000000;stroke-width:0.8;" x="182.412843" xlink:href="#m8c49402d19" y="307.584"/>
      </g>
     </g>
     <g id="text_3">
      <!-- 100 -->
      <defs>
       <path d="M 12.40625 8.296875 
L 28.515625 8.296875 
L 28.515625 63.921875 
L 10.984375 60.40625 
L 10.984375 69.390625 
L 28.421875 72.90625 
L 38.28125 72.90625 
L 38.28125 8.296875 
L 54.390625 8.296875 
L 54.390625 0 
L 12.40625 0 
z
" id="DejaVuSans-31"/>
      </defs>
      <g transform="translate(172.869093 322.182437)scale(0.1 -0.1)">
       <use xlink:href="#DejaVuSans-31"/>
       <use x="63.623047" xlink:href="#DejaVuSans-30"/>
       <use x="127.246094" xlink:href="#DejaVuSans-30"/>
      </g>
     </g>
    </g>
    <g id="xtick_4">
     <g id="line2d_4">
      <g>
       <use style="stroke:#000000;stroke-width:0.8;" x="236.702901" xlink:href="#m8c49402d19" y="307.584"/>
      </g>
     </g>
     <g id="text_4">
      <!-- 150 -->
      <g transform="translate(227.159151 322.182437)scale(0.1 -0.1)">
       <use xlink:href="#DejaVuSans-31"/>
       <use x="63.623047" xlink:href="#DejaVuSans-35"/>
       <use x="127.246094" xlink:href="#DejaVuSans-30"/>
      </g>
     </g>
    </g>
    <g id="xtick_5">
     <g id="line2d_5">
      <g>
       <use style="stroke:#000000;stroke-width:0.8;" x="290.992958" xlink:href="#m8c49402d19" y="307.584"/>
      </g>
     </g>
     <g id="text_5">
      <!-- 200 -->
      <defs>
       <path d="M 19.1875 8.296875 
L 53.609375 8.296875 
L 53.609375 0 
L 7.328125 0 
L 7.328125 8.296875 
Q 12.9375 14.109375 22.625 23.890625 
Q 32.328125 33.6875 34.8125 36.53125 
Q 39.546875 41.84375 41.421875 45.53125 
Q 43.3125 49.21875 43.3125 52.78125 
Q 43.3125 58.59375 39.234375 62.25 
Q 35.15625 65.921875 28.609375 65.921875 
Q 23.96875 65.921875 18.8125 64.3125 
Q 13.671875 62.703125 7.8125 59.421875 
L 7.8125 69.390625 
Q 13.765625 71.78125 18.9375 73 
Q 24.125 74.21875 28.421875 74.21875 
Q 39.75 74.21875 46.484375 68.546875 
Q 53.21875 62.890625 53.21875 53.421875 
Q 53.21875 48.921875 51.53125 44.890625 
Q 49.859375 40.875 45.40625 35.40625 
Q 44.1875 33.984375 37.640625 27.21875 
Q 31.109375 20.453125 19.1875 8.296875 
z
" id="DejaVuSans-32"/>
      </defs>
      <g transform="translate(281.449208 322.182437)scale(0.1 -0.1)">
       <use xlink:href="#DejaVuSans-32"/>
       <use x="63.623047" xlink:href="#DejaVuSans-30"/>
       <use x="127.246094" xlink:href="#DejaVuSans-30"/>
      </g>
     </g>
    </g>
    <g id="xtick_6">
     <g id="line2d_6">
      <g>
       <use style="stroke:#000000;stroke-width:0.8;" x="345.283016" xlink:href="#m8c49402d19" y="307.584"/>
      </g>
     </g>
     <g id="text_6">
      <!-- 250 -->
      <g transform="translate(335.739266 322.182437)scale(0.1 -0.1)">
       <use xlink:href="#DejaVuSans-32"/>
       <use x="63.623047" xlink:href="#DejaVuSans-35"/>
       <use x="127.246094" xlink:href="#DejaVuSans-30"/>
      </g>
     </g>
    </g>
    <g id="xtick_7">
     <g id="line2d_7">
      <g>
       <use style="stroke:#000000;stroke-width:0.8;" x="399.573074" xlink:href="#m8c49402d19" y="307.584"/>
      </g>
     </g>
    </g>
    <g id="text_7">
     <!-- Frame index -->
     <defs>
      <path d="M 9.8125 72.90625 
L 51.703125 72.90625 
L 51.703125 64.59375 
L 19.671875 64.59375 
L 19.671875 43.109375 
L 48.578125 43.109375 
L 48.578125 34.8125 
L 19.671875 34.8125 
L 19.671875 0 
L 9.8125 0 
z
" id="DejaVuSans-46"/>
      <path d="M 41.109375 46.296875 
Q 39.59375 47.171875 37.8125 47.578125 
Q 36.03125 48 33.890625 48 
Q 26.265625 48 22.1875 43.046875 
Q 18.109375 38.09375 18.109375 28.8125 
L 18.109375 0 
L 9.078125 0 
L 9.078125 54.6875 
L 18.109375 54.6875 
L 18.109375 46.1875 
Q 20.953125 51.171875 25.484375 53.578125 
Q 30.03125 56 36.53125 56 
Q 37.453125 56 38.578125 55.875 
Q 39.703125 55.765625 41.0625 55.515625 
z
" id="DejaVuSans-72"/>
      <path d="M 34.28125 27.484375 
Q 23.390625 27.484375 19.1875 25 
Q 14.984375 22.515625 14.984375 16.5 
Q 14.984375 11.71875 18.140625 8.90625 
Q 21.296875 6.109375 26.703125 6.109375 
Q 34.1875 6.109375 38.703125 11.40625 
Q 43.21875 16.703125 43.21875 25.484375 
L 43.21875 27.484375 
z
M 52.203125 31.203125 
L 52.203125 0 
L 43.21875 0 
L 43.21875 8.296875 
Q 40.140625 3.328125 35.546875 0.953125 
Q 30.953125 -1.421875 24.3125 -1.421875 
Q 15.921875 -1.421875 10.953125 3.296875 
Q 6 8.015625 6 15.921875 
Q 6 25.140625 12.171875 29.828125 
Q 18.359375 34.515625 30.609375 34.515625 
L 43.21875 34.515625 
L 43.21875 35.40625 
Q 43.21875 41.609375 39.140625 45 
Q 35.0625 48.390625 27.6875 48.390625 
Q 23 48.390625 18.546875 47.265625 
Q 14.109375 46.140625 10.015625 43.890625 
L 10.015625 52.203125 
Q 14.9375 54.109375 19.578125 55.046875 
Q 24.21875 56 28.609375 56 
Q 40.484375 56 46.34375 49.84375 
Q 52.203125 43.703125 52.203125 31.203125 
z
" id="DejaVuSans-61"/>
      <path d="M 52 44.1875 
Q 55.375 50.25 60.0625 53.125 
Q 64.75 56 71.09375 56 
Q 79.640625 56 84.28125 50.015625 
Q 88.921875 44.046875 88.921875 33.015625 
L 88.921875 0 
L 79.890625 0 
L 79.890625 32.71875 
Q 79.890625 40.578125 77.09375 44.375 
Q 74.3125 48.1875 68.609375 48.1875 
Q 61.625 48.1875 57.5625 43.546875 
Q 53.515625 38.921875 53.515625 30.90625 
L 53.515625 0 
L 44.484375 0 
L 44.484375 32.71875 
Q 44.484375 40.625 41.703125 44.40625 
Q 38.921875 48.1875 33.109375 48.1875 
Q 26.21875 48.1875 22.15625 43.53125 
Q 18.109375 38.875 18.109375 30.90625 
L 18.109375 0 
L 9.078125 0 
L 9.078125 54.6875 
L 18.109375 54.6875 
L 18.109375 46.1875 
Q 21.1875 51.21875 25.484375 53.609375 
Q 29.78125 56 35.6875 56 
Q 41.65625 56 45.828125 52.96875 
Q 50 49.953125 52 44.1875 
z
" id="DejaVuSans-6d"/>
      <path d="M 56.203125 29.59375 
L 56.203125 25.203125 
L 14.890625 25.203125 
Q 15.484375 15.921875 20.484375 11.0625 
Q 25.484375 6.203125 34.421875 6.203125 
Q 39.59375 6.203125 44.453125 7.46875 
Q 49.3125 8.734375 54.109375 11.28125 
L 54.109375 2.78125 
Q 49.265625 0.734375 44.1875 -0.34375 
Q 39.109375 -1.421875 33.890625 -1.421875 
Q 20.796875 -1.421875 13.15625 6.1875 
Q 5.515625 13.8125 5.515625 26.8125 
Q 5.515625 40.234375 12.765625 48.109375 
Q 20.015625 56 32.328125 56 
Q 43.359375 56 49.78125 48.890625 
Q 56.203125 41.796875 56.203125 29.59375 
z
M 47.21875 32.234375 
Q 47.125 39.59375 43.09375 43.984375 
Q 39.0625 48.390625 32.421875 48.390625 
Q 24.90625 48.390625 20.390625 44.140625 
Q 15.875 39.890625 15.1875 32.171875 
z
" id="DejaVuSans-65"/>
      <path id="DejaVuSans-20"/>
      <path d="M 9.421875 54.6875 
L 18.40625 54.6875 
L 18.40625 0 
L 9.421875 0 
z
M 9.421875 75.984375 
L 18.40625 75.984375 
L 18.40625 64.59375 
L 9.421875 64.59375 
z
" id="DejaVuSans-69"/>
      <path d="M 54.890625 33.015625 
L 54.890625 0 
L 45.90625 0 
L 45.90625 32.71875 
Q 45.90625 40.484375 42.875 44.328125 
Q 39.84375 48.1875 33.796875 48.1875 
Q 26.515625 48.1875 22.3125 43.546875 
Q 18.109375 38.921875 18.109375 30.90625 
L 18.109375 0 
L 9.078125 0 
L 9.078125 54.6875 
L 18.109375 54.6875 
L 18.109375 46.1875 
Q 21.34375 51.125 25.703125 53.5625 
Q 30.078125 56 35.796875 56 
Q 45.21875 56 50.046875 50.171875 
Q 54.890625 44.34375 54.890625 33.015625 
z
" id="DejaVuSans-6e"/>
      <path d="M 45.40625 46.390625 
L 45.40625 75.984375 
L 54.390625 75.984375 
L 54.390625 0 
L 45.40625 0 
L 45.40625 8.203125 
Q 42.578125 3.328125 38.25 0.953125 
Q 33.9375 -1.421875 27.875 -1.421875 
Q 17.96875 -1.421875 11.734375 6.484375 
Q 5.515625 14.40625 5.515625 27.296875 
Q 5.515625 40.1875 11.734375 48.09375 
Q 17.96875 56 27.875 56 
Q 33.9375 56 38.25 53.625 
Q 42.578125 51.265625 45.40625 46.390625 
z
M 14.796875 27.296875 
Q 14.796875 17.390625 18.875 11.75 
Q 22.953125 6.109375 30.078125 6.109375 
Q 37.203125 6.109375 41.296875 11.75 
Q 45.40625 17.390625 45.40625 27.296875 
Q 45.40625 37.203125 41.296875 42.84375 
Q 37.203125 48.484375 30.078125 48.484375 
Q 22.953125 48.484375 18.875 42.84375 
Q 14.796875 37.203125 14.796875 27.296875 
z
" id="DejaVuSans-64"/>
      <path d="M 54.890625 54.6875 
L 35.109375 28.078125 
L 55.90625 0 
L 45.3125 0 
L 29.390625 21.484375 
L 13.484375 0 
L 2.875 0 
L 24.125 28.609375 
L 4.6875 54.6875 
L 15.28125 54.6875 
L 29.78125 35.203125 
L 44.28125 54.6875 
z
" id="DejaVuSans-78"/>
     </defs>
     <g transform="translate(204.867031 335.860562)scale(0.1 -0.1)">
      <use xlink:href="#DejaVuSans-46"/>
      <use x="57.410156" xlink:href="#DejaVuSans-72"/>
      <use x="98.523438" xlink:href="#DejaVuSans-61"/>
      <use x="159.802734" xlink:href="#DejaVuSans-6d"/>
      <use x="257.214844" xlink:href="#DejaVuSans-65"/>
      <use x="318.738281" xlink:href="#DejaVuSans-20"/>
      <use x="350.525391" xlink:href="#DejaVuSans-69"/>
      <use x="378.308594" xlink:href="#DejaVuSans-6e"/>
      <use x="441.6875" xlink:href="#DejaVuSans-64"/>
      <use x="505.164062" xlink:href="#DejaVuSans-65"/>
      <use x="566.671875" xlink:href="#DejaVuSans-78"/>
     </g>
    </g>
   </g>
   <g id="matplotlib.axis_2">
    <g id="ytick_1">
     <g id="line2d_8">
      <defs>
       <path d="M 0 0 
L -3.5 0 
" id="m8498c0c7df" style="stroke:#000000;stroke-width:0.8;"/>
      </defs>
      <g>
       <use style="stroke:#000000;stroke-width:0.8;" x="57.6" xlink:href="#m8498c0c7df" y="288.782656"/>
      </g>
     </g>
     <g id="text_8">
      <!-- 1.8 -->
      <defs>
       <path d="M 10.6875 12.40625 
L 21 12.40625 
L 21 0 
L 10.6875 0 
z
" id="DejaVuSans-2e"/>
       <path d="M 31.78125 34.625 
Q 24.75 34.625 20.71875 30.859375 
Q 16.703125 27.09375 16.703125 20.515625 
Q 16.703125 13.921875 20.71875 10.15625 
Q 24.75 6.390625 31.78125 6.390625 
Q 38.8125 6.390625 42.859375 10.171875 
Q 46.921875 13.96875 46.921875 20.515625 
Q 46.921875 27.09375 42.890625 30.859375 
Q 38.875 34.625 31.78125 34.625 
z
M 21.921875 38.8125 
Q 15.578125 40.375 12.03125 44.71875 
Q 8.5 49.078125 8.5 55.328125 
Q 8.5 64.0625 14.71875 69.140625 
Q 20.953125 74.21875 31.78125 74.21875 
Q 42.671875 74.21875 48.875 69.140625 
Q 55.078125 64.0625 55.078125 55.328125 
Q 55.078125 49.078125 51.53125 44.71875 
Q 48 40.375 41.703125 38.8125 
Q 48.828125 37.15625 52.796875 32.3125 
Q 56.78125 27.484375 56.78125 20.515625 
Q 56.78125 9.90625 50.3125 4.234375 
Q 43.84375 -1.421875 31.78125 -1.421875 
Q 19.734375 -1.421875 13.25 4.234375 
Q 6.78125 9.90625 6.78125 20.515625 
Q 6.78125 27.484375 10.78125 32.3125 
Q 14.796875 37.15625 21.921875 38.8125 
z
M 18.3125 54.390625 
Q 18.3125 48.734375 21.84375 45.5625 
Q 25.390625 42.390625 31.78125 42.390625 
Q 38.140625 42.390625 41.71875 45.5625 
Q 45.3125 48.734375 45.3125 54.390625 
Q 45.3125 60.0625 41.71875 63.234375 
Q 38.140625 66.40625 31.78125 66.40625 
Q 25.390625 66.40625 21.84375 63.234375 
Q 18.3125 60.0625 18.3125 54.390625 
z
" id="DejaVuSans-38"/>
      </defs>
      <g transform="translate(34.696875 292.581875)scale(0.1 -0.1)">
       <use xlink:href="#DejaVuSans-31"/>
       <use x="63.623047" xlink:href="#DejaVuSans-2e"/>
       <use x="95.410156" xlink:href="#DejaVuSans-38"/>
      </g>
     </g>
    </g>
    <g id="ytick_2">
     <g id="line2d_9">
      <g>
       <use style="stroke:#000000;stroke-width:0.8;" x="57.6" xlink:href="#m8498c0c7df" y="249.679773"/>
      </g>
     </g>
     <g id="text_9">
      <!-- 2.0 -->
      <g transform="translate(34.696875 253.478991)scale(0.1 -0.1)">
       <use xlink:href="#DejaVuSans-32"/>
       <use x="63.623047" xlink:href="#DejaVuSans-2e"/>
       <use x="95.410156" xlink:href="#DejaVuSans-30"/>
      </g>
     </g>
    </g>
    <g id="ytick_3">
     <g id="line2d_10">
      <g>
       <use style="stroke:#000000;stroke-width:0.8;" x="57.6" xlink:href="#m8498c0c7df" y="210.576889"/>
      </g>
     </g>
     <g id="text_10">
      <!-- 2.2 -->
      <g transform="translate(34.696875 214.376108)scale(0.1 -0.1)">
       <use xlink:href="#DejaVuSans-32"/>
       <use x="63.623047" xlink:href="#DejaVuSans-2e"/>
       <use x="95.410156" xlink:href="#DejaVuSans-32"/>
      </g>
     </g>
    </g>
    <g id="ytick_4">
     <g id="line2d_11">
      <g>
       <use style="stroke:#000000;stroke-width:0.8;" x="57.6" xlink:href="#m8498c0c7df" y="171.474005"/>
      </g>
     </g>
     <g id="text_11">
      <!-- 2.4 -->
      <defs>
       <path d="M 37.796875 64.3125 
L 12.890625 25.390625 
L 37.796875 25.390625 
z
M 35.203125 72.90625 
L 47.609375 72.90625 
L 47.609375 25.390625 
L 58.015625 25.390625 
L 58.015625 17.1875 
L 47.609375 17.1875 
L 47.609375 0 
L 37.796875 0 
L 37.796875 17.1875 
L 4.890625 17.1875 
L 4.890625 26.703125 
z
" id="DejaVuSans-34"/>
      </defs>
      <g transform="translate(34.696875 175.273224)scale(0.1 -0.1)">
       <use xlink:href="#DejaVuSans-32"/>
       <use x="63.623047" xlink:href="#DejaVuSans-2e"/>
       <use x="95.410156" xlink:href="#DejaVuSans-34"/>
      </g>
     </g>
    </g>
    <g id="ytick_5">
     <g id="line2d_12">
      <g>
       <use style="stroke:#000000;stroke-width:0.8;" x="57.6" xlink:href="#m8498c0c7df" y="132.371122"/>
      </g>
     </g>
     <g id="text_12">
      <!-- 2.6 -->
      <defs>
       <path d="M 33.015625 40.375 
Q 26.375 40.375 22.484375 35.828125 
Q 18.609375 31.296875 18.609375 23.390625 
Q 18.609375 15.53125 22.484375 10.953125 
Q 26.375 6.390625 33.015625 6.390625 
Q 39.65625 6.390625 43.53125 10.953125 
Q 47.40625 15.53125 47.40625 23.390625 
Q 47.40625 31.296875 43.53125 35.828125 
Q 39.65625 40.375 33.015625 40.375 
z
M 52.59375 71.296875 
L 52.59375 62.3125 
Q 48.875 64.0625 45.09375 64.984375 
Q 41.3125 65.921875 37.59375 65.921875 
Q 27.828125 65.921875 22.671875 59.328125 
Q 17.53125 52.734375 16.796875 39.40625 
Q 19.671875 43.65625 24.015625 45.921875 
Q 28.375 48.1875 33.59375 48.1875 
Q 44.578125 48.1875 50.953125 41.515625 
Q 57.328125 34.859375 57.328125 23.390625 
Q 57.328125 12.15625 50.6875 5.359375 
Q 44.046875 -1.421875 33.015625 -1.421875 
Q 20.359375 -1.421875 13.671875 8.265625 
Q 6.984375 17.96875 6.984375 36.375 
Q 6.984375 53.65625 15.1875 63.9375 
Q 23.390625 74.21875 37.203125 74.21875 
Q 40.921875 74.21875 44.703125 73.484375 
Q 48.484375 72.75 52.59375 71.296875 
z
" id="DejaVuSans-36"/>
      </defs>
      <g transform="translate(34.696875 136.17034)scale(0.1 -0.1)">
       <use xlink:href="#DejaVuSans-32"/>
       <use x="63.623047" xlink:href="#DejaVuSans-2e"/>
       <use x="95.410156" xlink:href="#DejaVuSans-36"/>
      </g>
     </g>
    </g>
    <g id="ytick_6">
     <g id="line2d_13">
      <g>
       <use style="stroke:#000000;stroke-width:0.8;" x="57.6" xlink:href="#m8498c0c7df" y="93.268238"/>
      </g>
     </g>
     <g id="text_13">
      <!-- 2.8 -->
      <g transform="translate(34.696875 97.067457)scale(0.1 -0.1)">
       <use xlink:href="#DejaVuSans-32"/>
       <use x="63.623047" xlink:href="#DejaVuSans-2e"/>
       <use x="95.410156" xlink:href="#DejaVuSans-38"/>
      </g>
     </g>
    </g>
    <g id="ytick_7">
     <g id="line2d_14">
      <g>
       <use style="stroke:#000000;stroke-width:0.8;" x="57.6" xlink:href="#m8498c0c7df" y="54.165354"/>
      </g>
     </g>
     <g id="text_14">
      <!-- 3.0 -->
      <defs>
       <path d="M 40.578125 39.3125 
Q 47.65625 37.796875 51.625 33 
Q 55.609375 28.21875 55.609375 21.1875 
Q 55.609375 10.40625 48.1875 4.484375 
Q 40.765625 -1.421875 27.09375 -1.421875 
Q 22.515625 -1.421875 17.65625 -0.515625 
Q 12.796875 0.390625 7.625 2.203125 
L 7.625 11.71875 
Q 11.71875 9.328125 16.59375 8.109375 
Q 21.484375 6.890625 26.8125 6.890625 
Q 36.078125 6.890625 40.9375 10.546875 
Q 45.796875 14.203125 45.796875 21.1875 
Q 45.796875 27.640625 41.28125 31.265625 
Q 36.765625 34.90625 28.71875 34.90625 
L 20.21875 34.90625 
L 20.21875 43.015625 
L 29.109375 43.015625 
Q 36.375 43.015625 40.234375 45.921875 
Q 44.09375 48.828125 44.09375 54.296875 
Q 44.09375 59.90625 40.109375 62.90625 
Q 36.140625 65.921875 28.71875 65.921875 
Q 24.65625 65.921875 20.015625 65.03125 
Q 15.375 64.15625 9.8125 62.3125 
L 9.8125 71.09375 
Q 15.4375 72.65625 20.34375 73.4375 
Q 25.25 74.21875 29.59375 74.21875 
Q 40.828125 74.21875 47.359375 69.109375 
Q 53.90625 64.015625 53.90625 55.328125 
Q 53.90625 49.265625 50.4375 45.09375 
Q 46.96875 40.921875 40.578125 39.3125 
z
" id="DejaVuSans-33"/>
      </defs>
      <g transform="translate(34.696875 57.964573)scale(0.1 -0.1)">
       <use xlink:href="#DejaVuSans-33"/>
       <use x="63.623047" xlink:href="#DejaVuSans-2e"/>
       <use x="95.410156" xlink:href="#DejaVuSans-30"/>
      </g>
     </g>
    </g>
    <g id="text_15">
     <!-- RMSD -->
     <defs>
      <path d="M 44.390625 34.1875 
Q 47.5625 33.109375 50.5625 29.59375 
Q 53.5625 26.078125 56.59375 19.921875 
L 66.609375 0 
L 56 0 
L 46.6875 18.703125 
Q 43.0625 26.03125 39.671875 28.421875 
Q 36.28125 30.8125 30.421875 30.8125 
L 19.671875 30.8125 
L 19.671875 0 
L 9.8125 0 
L 9.8125 72.90625 
L 32.078125 72.90625 
Q 44.578125 72.90625 50.734375 67.671875 
Q 56.890625 62.453125 56.890625 51.90625 
Q 56.890625 45.015625 53.6875 40.46875 
Q 50.484375 35.9375 44.390625 34.1875 
z
M 19.671875 64.796875 
L 19.671875 38.921875 
L 32.078125 38.921875 
Q 39.203125 38.921875 42.84375 42.21875 
Q 46.484375 45.515625 46.484375 51.90625 
Q 46.484375 58.296875 42.84375 61.546875 
Q 39.203125 64.796875 32.078125 64.796875 
z
" id="DejaVuSans-52"/>
      <path d="M 9.8125 72.90625 
L 24.515625 72.90625 
L 43.109375 23.296875 
L 61.8125 72.90625 
L 76.515625 72.90625 
L 76.515625 0 
L 66.890625 0 
L 66.890625 64.015625 
L 48.09375 14.015625 
L 38.1875 14.015625 
L 19.390625 64.015625 
L 19.390625 0 
L 9.8125 0 
z
" id="DejaVuSans-4d"/>
      <path d="M 53.515625 70.515625 
L 53.515625 60.890625 
Q 47.90625 63.578125 42.921875 64.890625 
Q 37.9375 66.21875 33.296875 66.21875 
Q 25.25 66.21875 20.875 63.09375 
Q 16.5 59.96875 16.5 54.203125 
Q 16.5 49.359375 19.40625 46.890625 
Q 22.3125 44.4375 30.421875 42.921875 
L 36.375 41.703125 
Q 47.40625 39.59375 52.65625 34.296875 
Q 57.90625 29 57.90625 20.125 
Q 57.90625 9.515625 50.796875 4.046875 
Q 43.703125 -1.421875 29.984375 -1.421875 
Q 24.8125 -1.421875 18.96875 -0.25 
Q 13.140625 0.921875 6.890625 3.21875 
L 6.890625 13.375 
Q 12.890625 10.015625 18.65625 8.296875 
Q 24.421875 6.59375 29.984375 6.59375 
Q 38.421875 6.59375 43.015625 9.90625 
Q 47.609375 13.234375 47.609375 19.390625 
Q 47.609375 24.75 44.3125 27.78125 
Q 41.015625 30.8125 33.5 32.328125 
L 27.484375 33.5 
Q 16.453125 35.6875 11.515625 40.375 
Q 6.59375 45.0625 6.59375 53.421875 
Q 6.59375 63.09375 13.40625 68.65625 
Q 20.21875 74.21875 32.171875 74.21875 
Q 37.3125 74.21875 42.625 73.28125 
Q 47.953125 72.359375 53.515625 70.515625 
z
" id="DejaVuSans-53"/>
      <path d="M 19.671875 64.796875 
L 19.671875 8.109375 
L 31.59375 8.109375 
Q 46.6875 8.109375 53.6875 14.9375 
Q 60.6875 21.78125 60.6875 36.53125 
Q 60.6875 51.171875 53.6875 57.984375 
Q 46.6875 64.796875 31.59375 64.796875 
z
M 9.8125 72.90625 
L 30.078125 72.90625 
Q 51.265625 72.90625 61.171875 64.09375 
Q 71.09375 55.28125 71.09375 36.53125 
Q 71.09375 17.671875 61.125 8.828125 
Q 51.171875 0 30.078125 0 
L 9.8125 0 
z
" id="DejaVuSans-44"/>
     </defs>
     <g transform="translate(28.617187 189.3405)rotate(-90)scale(0.1 -0.1)">
      <use xlink:href="#DejaVuSans-52"/>
      <use x="69.482422" xlink:href="#DejaVuSans-4d"/>
      <use x="155.761719" xlink:href="#DejaVuSans-53"/>
      <use x="219.238281" xlink:href="#DejaVuSans-44"/>
     </g>
    </g>
   </g>
   <g id="line2d_15">
    <path clip-path="url(#pd6e336364e)" d="M 73.832727 295.488 
L 74.918528 259.386016 
L 76.00433 234.1317 
L 77.090131 232.744972 
L 78.175932 221.650235 
L 79.261733 221.308063 
L 80.347534 207.973623 
L 81.433335 197.685173 
L 82.519137 189.395709 
L 83.604938 182.625446 
L 84.690739 207.57687 
L 85.77654 206.876002 
L 86.862341 223.864572 
L 87.948142 212.942162 
L 89.033943 193.906243 
L 91.205546 160.900261 
L 92.291347 164.818665 
L 93.377148 160.735909 
L 94.462949 186.61748 
L 95.54875 185.675857 
L 96.634552 185.787841 
L 97.720353 184.271066 
L 98.806154 184.391703 
L 99.891955 186.939133 
L 100.977756 163.324691 
L 102.063557 151.952297 
L 103.149358 166.606675 
L 105.320961 156.583155 
L 106.406762 164.858836 
L 107.492563 170.21264 
L 108.578364 160.496035 
L 109.664165 166.212107 
L 110.749967 160.439084 
L 111.835768 143.456741 
L 112.921569 143.119297 
L 114.00737 142.206367 
L 115.093171 137.281107 
L 116.178972 129.965204 
L 117.264773 139.931585 
L 118.350575 132.12536 
L 119.436376 144.144122 
L 120.522177 132.534492 
L 121.607978 116.613657 
L 122.693779 124.881297 
L 123.77958 123.0607 
L 124.865382 127.767582 
L 125.951183 127.631052 
L 127.036984 119.38789 
L 128.122785 124.303747 
L 129.208586 124.10369 
L 130.294387 140.219468 
L 131.380189 140.690262 
L 132.46599 135.72012 
L 133.551791 129.639278 
L 134.637592 119.319814 
L 135.723393 130.148808 
L 136.809194 132.723123 
L 137.894995 131.33304 
L 138.980797 128.1793 
L 140.066598 123.055496 
L 141.152399 123.278637 
L 143.324001 113.036514 
L 144.409802 115.294328 
L 145.495604 122.473959 
L 146.581405 121.989309 
L 147.667206 115.454913 
L 148.753007 109.644529 
L 149.838808 97.716838 
L 150.924609 103.411091 
L 152.01041 119.17714 
L 153.096212 115.061744 
L 154.182013 106.477582 
L 155.267814 123.69369 
L 156.353615 128.229878 
L 157.439416 118.026165 
L 158.525217 124.766501 
L 159.611019 121.206047 
L 160.69682 129.394001 
L 161.782621 138.966556 
L 162.868422 126.463721 
L 163.954223 129.214117 
L 165.040024 128.826892 
L 166.125825 121.475724 
L 167.211627 124.814052 
L 168.297428 121.39713 
L 169.383229 131.4726 
L 170.46903 127.978611 
L 171.554831 129.259958 
L 172.640632 102.202013 
L 173.726434 107.522287 
L 174.812235 112.072696 
L 175.898036 109.592702 
L 176.983837 117.103306 
L 178.069638 123.704555 
L 179.155439 109.986266 
L 180.24124 115.076923 
L 181.327042 123.22859 
L 182.412843 124.473725 
L 183.498644 136.631895 
L 184.584445 138.921645 
L 185.670246 137.085015 
L 186.756047 140.744004 
L 187.841849 143.680938 
L 188.92765 134.170285 
L 190.013451 143.985001 
L 191.099252 134.184831 
L 192.185053 140.140694 
L 193.270854 120.514008 
L 194.356656 122.591889 
L 195.442457 123.775639 
L 196.528258 119.008777 
L 197.614059 126.35543 
L 199.785661 116.764394 
L 200.871462 121.255298 
L 201.957264 116.906223 
L 203.043065 116.506207 
L 204.128866 105.139068 
L 205.214667 120.5932 
L 206.300468 118.530635 
L 207.386269 119.213492 
L 208.472071 113.857793 
L 209.557872 109.269194 
L 210.643673 128.244637 
L 211.729474 113.990284 
L 212.815275 128.474702 
L 213.901076 109.412424 
L 214.986877 110.803962 
L 216.072679 118.962543 
L 217.15848 118.005916 
L 219.330082 140.961225 
L 220.415883 127.318111 
L 221.501684 132.223774 
L 222.587486 126.776425 
L 223.673287 124.492428 
L 224.759088 110.564175 
L 225.844889 116.289349 
L 226.93069 107.997916 
L 228.016491 100.572549 
L 229.102292 108.295843 
L 230.188094 107.549133 
L 231.273895 108.039192 
L 232.359696 107.504368 
L 233.445497 109.342863 
L 234.531298 101.321896 
L 235.617099 101.950305 
L 236.702901 106.929568 
L 237.788702 113.119142 
L 238.874503 104.152617 
L 239.960304 102.176922 
L 241.046105 105.795945 
L 242.131906 106.204363 
L 243.217708 99.628887 
L 244.303509 107.510753 
L 245.38931 106.715319 
L 246.475111 123.321062 
L 247.560912 115.359941 
L 249.732514 94.623784 
L 250.818316 111.567526 
L 251.904117 104.16935 
L 252.989918 105.457796 
L 254.075719 102.26987 
L 255.16152 103.732896 
L 256.247321 112.651302 
L 257.333123 111.572688 
L 258.418924 102.29672 
L 259.504725 100.650358 
L 260.590526 103.991189 
L 261.676327 101.288162 
L 262.762128 102.464789 
L 263.847929 102.036489 
L 264.933731 104.192216 
L 266.019532 95.693839 
L 267.105333 98.868589 
L 268.191134 99.010239 
L 269.276935 84.214778 
L 270.362736 83.400258 
L 271.448538 77.302889 
L 272.534339 82.786465 
L 273.62014 89.568798 
L 274.705941 85.442029 
L 275.791742 77.331988 
L 276.877543 80.697258 
L 277.963344 85.678645 
L 279.049146 87.194959 
L 281.220748 94.644565 
L 282.306549 84.84571 
L 283.39235 78.199378 
L 284.478151 91.875484 
L 285.563953 108.48256 
L 286.649754 98.039399 
L 287.735555 99.767245 
L 288.821356 95.950972 
L 289.907157 95.936506 
L 290.992958 91.409562 
L 292.07876 103.018727 
L 293.164561 85.450734 
L 294.250362 84.867017 
L 295.336163 88.287512 
L 296.421964 83.945963 
L 297.507765 78.466575 
L 298.593566 86.698718 
L 299.679368 91.20278 
L 300.765169 85.934598 
L 302.936771 83.84318 
L 304.022572 81.213642 
L 305.108373 76.079047 
L 306.194175 78.278071 
L 307.279976 86.689502 
L 308.365777 74.675617 
L 309.451578 75.088103 
L 310.537379 73.39647 
L 311.62318 72.95129 
L 312.708981 73.985098 
L 313.794783 70.436491 
L 314.880584 74.237852 
L 315.966385 73.204186 
L 317.052186 86.044196 
L 318.137987 81.77189 
L 319.223788 80.079542 
L 320.30959 76.253545 
L 321.395391 77.304215 
L 322.481192 65.313698 
L 323.566993 74.341806 
L 324.652794 74.917263 
L 325.738595 70.04882 
L 326.824396 63.16904 
L 327.910198 58.31111 
L 330.0818 76.897047 
L 331.167601 76.963629 
L 332.253402 69.772839 
L 333.339203 68.130427 
L 334.425005 73.112349 
L 335.510806 70.745504 
L 336.596607 75.817222 
L 337.682408 75.60972 
L 338.768209 69.929544 
L 339.85401 74.366526 
L 340.939811 79.914305 
L 342.025613 82.019653 
L 343.111414 77.281397 
L 344.197215 79.960093 
L 345.283016 78.002263 
L 346.368817 86.348039 
L 347.454618 88.570766 
L 348.54042 78.958252 
L 349.626221 89.298311 
L 350.712022 81.537293 
L 351.797823 70.731347 
L 352.883624 66.68404 
L 353.969425 68.803248 
L 355.055227 76.645341 
L 356.141028 77.310559 
L 357.226829 82.51162 
L 358.31263 78.983244 
L 359.398431 76.870999 
L 360.484232 84.240533 
L 361.570033 77.875047 
L 362.655835 91.871172 
L 363.741636 81.138667 
L 364.827437 87.777334 
L 365.913238 92.053175 
L 366.999039 85.262566 
L 368.08484 82.3264 
L 369.170642 69.636623 
L 370.256443 72.951164 
L 371.342244 67.695935 
L 372.428045 72.924991 
L 373.513846 68.718968 
L 374.599647 58.690918 
L 375.685448 53.568 
L 376.77125 58.654838 
L 377.857051 56.922661 
L 378.942852 54.161749 
L 380.028653 63.870141 
L 381.114454 70.326393 
L 382.200255 66.832027 
L 384.371858 77.074634 
L 385.457659 77.498689 
L 386.54346 82.535221 
L 387.629261 81.25521 
L 388.715062 82.743966 
L 389.800863 88.41089 
L 390.886665 86.963653 
L 391.972466 87.46107 
L 393.058267 88.55649 
L 394.144068 91.104981 
L 395.229869 90.221298 
L 396.31567 82.659096 
L 397.401472 85.955858 
L 398.487273 88.089986 
L 398.487273 88.089986 
" style="fill:none;stroke:#666666;stroke-dasharray:1,1.65;stroke-dashoffset:0;"/>
    <defs>
     <path d="M 0 0.5 
C 0.132602 0.5 0.25979 0.447317 0.353553 0.353553 
C 0.447317 0.25979 0.5 0.132602 0.5 0 
C 0.5 -0.132602 0.447317 -0.25979 0.353553 -0.353553 
C 0.25979 -0.447317 0.132602 -0.5 0 -0.5 
C -0.132602 -0.5 -0.25979 -0.447317 -0.353553 -0.353553 
C -0.447317 -0.25979 -0.5 -0.132602 -0.5 0 
C -0.5 0.132602 -0.447317 0.25979 -0.353553 0.353553 
C -0.25979 0.447317 -0.132602 0.5 0 0.5 
z
" id="m06d2f5297c" style="stroke:#666666;"/>
    </defs>
    <g clip-path="url(#pd6e336364e)">
     <use style="fill:#666666;stroke:#666666;" x="73.832727" xlink:href="#m06d2f5297c" y="295.488"/>
     <use style="fill:#666666;stroke:#666666;" x="74.918528" xlink:href="#m06d2f5297c" y="259.386016"/>
     <use style="fill:#666666;stroke:#666666;" x="76.00433" xlink:href="#m06d2f5297c" y="234.1317"/>
     <use style="fill:#666666;stroke:#666666;" x="77.090131" xlink:href="#m06d2f5297c" y="232.744972"/>
     <use style="fill:#666666;stroke:#666666;" x="78.175932" xlink:href="#m06d2f5297c" y="221.650235"/>
     <use style="fill:#666666;stroke:#666666;" x="79.261733" xlink:href="#m06d2f5297c" y="221.308063"/>
     <use style="fill:#666666;stroke:#666666;" x="80.347534" xlink:href="#m06d2f5297c" y="207.973623"/>
     <use style="fill:#666666;stroke:#666666;" x="81.433335" xlink:href="#m06d2f5297c" y="197.685173"/>
     <use style="fill:#666666;stroke:#666666;" x="82.519137" xlink:href="#m06d2f5297c" y="189.395709"/>
     <use style="fill:#666666;stroke:#666666;" x="83.604938" xlink:href="#m06d2f5297c" y="182.625446"/>
     <use style="fill:#666666;stroke:#666666;" x="84.690739" xlink:href="#m06d2f5297c" y="207.57687"/>
     <use style="fill:#666666;stroke:#666666;" x="85.77654" xlink:href="#m06d2f5297c" y="206.876002"/>
     <use style="fill:#666666;stroke:#666666;" x="86.862341" xlink:href="#m06d2f5297c" y="223.864572"/>
     <use style="fill:#666666;stroke:#666666;" x="87.948142" xlink:href="#m06d2f5297c" y="212.942162"/>
     <use style="fill:#666666;stroke:#666666;" x="89.033943" xlink:href="#m06d2f5297c" y="193.906243"/>
     <use style="fill:#666666;stroke:#666666;" x="90.119745" xlink:href="#m06d2f5297c" y="177.382098"/>
     <use style="fill:#666666;stroke:#666666;" x="91.205546" xlink:href="#m06d2f5297c" y="160.900261"/>
     <use style="fill:#666666;stroke:#666666;" x="92.291347" xlink:href="#m06d2f5297c" y="164.818665"/>
     <use style="fill:#666666;stroke:#666666;" x="93.377148" xlink:href="#m06d2f5297c" y="160.735909"/>
     <use style="fill:#666666;stroke:#666666;" x="94.462949" xlink:href="#m06d2f5297c" y="186.61748"/>
     <use style="fill:#666666;stroke:#666666;" x="95.54875" xlink:href="#m06d2f5297c" y="185.675857"/>
     <use style="fill:#666666;stroke:#666666;" x="96.634552" xlink:href="#m06d2f5297c" y="185.787841"/>
     <use style="fill:#666666;stroke:#666666;" x="97.720353" xlink:href="#m06d2f5297c" y="184.271066"/>
     <use style="fill:#666666;stroke:#666666;" x="98.806154" xlink:href="#m06d2f5297c" y="184.391703"/>
     <use style="fill:#666666;stroke:#666666;" x="99.891955" xlink:href="#m06d2f5297c" y="186.939133"/>
     <use style="fill:#666666;stroke:#666666;" x="100.977756" xlink:href="#m06d2f5297c" y="163.324691"/>
     <use style="fill:#666666;stroke:#666666;" x="102.063557" xlink:href="#m06d2f5297c" y="151.952297"/>
     <use style="fill:#666666;stroke:#666666;" x="103.149358" xlink:href="#m06d2f5297c" y="166.606675"/>
     <use style="fill:#666666;stroke:#666666;" x="104.23516" xlink:href="#m06d2f5297c" y="161.715625"/>
     <use style="fill:#666666;stroke:#666666;" x="105.320961" xlink:href="#m06d2f5297c" y="156.583155"/>
     <use style="fill:#666666;stroke:#666666;" x="106.406762" xlink:href="#m06d2f5297c" y="164.858836"/>
     <use style="fill:#666666;stroke:#666666;" x="107.492563" xlink:href="#m06d2f5297c" y="170.21264"/>
     <use style="fill:#666666;stroke:#666666;" x="108.578364" xlink:href="#m06d2f5297c" y="160.496035"/>
     <use style="fill:#666666;stroke:#666666;" x="109.664165" xlink:href="#m06d2f5297c" y="166.212107"/>
     <use style="fill:#666666;stroke:#666666;" x="110.749967" xlink:href="#m06d2f5297c" y="160.439084"/>
     <use style="fill:#666666;stroke:#666666;" x="111.835768" xlink:href="#m06d2f5297c" y="143.456741"/>
     <use style="fill:#666666;stroke:#666666;" x="112.921569" xlink:href="#m06d2f5297c" y="143.119297"/>
     <use style="fill:#666666;stroke:#666666;" x="114.00737" xlink:href="#m06d2f5297c" y="142.206367"/>
     <use style="fill:#666666;stroke:#666666;" x="115.093171" xlink:href="#m06d2f5297c" y="137.281107"/>
     <use style="fill:#666666;stroke:#666666;" x="116.178972" xlink:href="#m06d2f5297c" y="129.965204"/>
     <use style="fill:#666666;stroke:#666666;" x="117.264773" xlink:href="#m06d2f5297c" y="139.931585"/>
     <use style="fill:#666666;stroke:#666666;" x="118.350575" xlink:href="#m06d2f5297c" y="132.12536"/>
     <use style="fill:#666666;stroke:#666666;" x="119.436376" xlink:href="#m06d2f5297c" y="144.144122"/>
     <use style="fill:#666666;stroke:#666666;" x="120.522177" xlink:href="#m06d2f5297c" y="132.534492"/>
     <use style="fill:#666666;stroke:#666666;" x="121.607978" xlink:href="#m06d2f5297c" y="116.613657"/>
     <use style="fill:#666666;stroke:#666666;" x="122.693779" xlink:href="#m06d2f5297c" y="124.881297"/>
     <use style="fill:#666666;stroke:#666666;" x="123.77958" xlink:href="#m06d2f5297c" y="123.0607"/>
     <use style="fill:#666666;stroke:#666666;" x="124.865382" xlink:href="#m06d2f5297c" y="127.767582"/>
     <use style="fill:#666666;stroke:#666666;" x="125.951183" xlink:href="#m06d2f5297c" y="127.631052"/>
     <use style="fill:#666666;stroke:#666666;" x="127.036984" xlink:href="#m06d2f5297c" y="119.38789"/>
     <use style="fill:#666666;stroke:#666666;" x="128.122785" xlink:href="#m06d2f5297c" y="124.303747"/>
     <use style="fill:#666666;stroke:#666666;" x="129.208586" xlink:href="#m06d2f5297c" y="124.10369"/>
     <use style="fill:#666666;stroke:#666666;" x="130.294387" xlink:href="#m06d2f5297c" y="140.219468"/>
     <use style="fill:#666666;stroke:#666666;" x="131.380189" xlink:href="#m06d2f5297c" y="140.690262"/>
     <use style="fill:#666666;stroke:#666666;" x="132.46599" xlink:href="#m06d2f5297c" y="135.72012"/>
     <use style="fill:#666666;stroke:#666666;" x="133.551791" xlink:href="#m06d2f5297c" y="129.639278"/>
     <use style="fill:#666666;stroke:#666666;" x="134.637592" xlink:href="#m06d2f5297c" y="119.319814"/>
     <use style="fill:#666666;stroke:#666666;" x="135.723393" xlink:href="#m06d2f5297c" y="130.148808"/>
     <use style="fill:#666666;stroke:#666666;" x="136.809194" xlink:href="#m06d2f5297c" y="132.723123"/>
     <use style="fill:#666666;stroke:#666666;" x="137.894995" xlink:href="#m06d2f5297c" y="131.33304"/>
     <use style="fill:#666666;stroke:#666666;" x="138.980797" xlink:href="#m06d2f5297c" y="128.1793"/>
     <use style="fill:#666666;stroke:#666666;" x="140.066598" xlink:href="#m06d2f5297c" y="123.055496"/>
     <use style="fill:#666666;stroke:#666666;" x="141.152399" xlink:href="#m06d2f5297c" y="123.278637"/>
     <use style="fill:#666666;stroke:#666666;" x="142.2382" xlink:href="#m06d2f5297c" y="118.185379"/>
     <use style="fill:#666666;stroke:#666666;" x="143.324001" xlink:href="#m06d2f5297c" y="113.036514"/>
     <use style="fill:#666666;stroke:#666666;" x="144.409802" xlink:href="#m06d2f5297c" y="115.294328"/>
     <use style="fill:#666666;stroke:#666666;" x="145.495604" xlink:href="#m06d2f5297c" y="122.473959"/>
     <use style="fill:#666666;stroke:#666666;" x="146.581405" xlink:href="#m06d2f5297c" y="121.989309"/>
     <use style="fill:#666666;stroke:#666666;" x="147.667206" xlink:href="#m06d2f5297c" y="115.454913"/>
     <use style="fill:#666666;stroke:#666666;" x="148.753007" xlink:href="#m06d2f5297c" y="109.644529"/>
     <use style="fill:#666666;stroke:#666666;" x="149.838808" xlink:href="#m06d2f5297c" y="97.716838"/>
     <use style="fill:#666666;stroke:#666666;" x="150.924609" xlink:href="#m06d2f5297c" y="103.411091"/>
     <use style="fill:#666666;stroke:#666666;" x="152.01041" xlink:href="#m06d2f5297c" y="119.17714"/>
     <use style="fill:#666666;stroke:#666666;" x="153.096212" xlink:href="#m06d2f5297c" y="115.061744"/>
     <use style="fill:#666666;stroke:#666666;" x="154.182013" xlink:href="#m06d2f5297c" y="106.477582"/>
     <use style="fill:#666666;stroke:#666666;" x="155.267814" xlink:href="#m06d2f5297c" y="123.69369"/>
     <use style="fill:#666666;stroke:#666666;" x="156.353615" xlink:href="#m06d2f5297c" y="128.229878"/>
     <use style="fill:#666666;stroke:#666666;" x="157.439416" xlink:href="#m06d2f5297c" y="118.026165"/>
     <use style="fill:#666666;stroke:#666666;" x="158.525217" xlink:href="#m06d2f5297c" y="124.766501"/>
     <use style="fill:#666666;stroke:#666666;" x="159.611019" xlink:href="#m06d2f5297c" y="121.206047"/>
     <use style="fill:#666666;stroke:#666666;" x="160.69682" xlink:href="#m06d2f5297c" y="129.394001"/>
     <use style="fill:#666666;stroke:#666666;" x="161.782621" xlink:href="#m06d2f5297c" y="138.966556"/>
     <use style="fill:#666666;stroke:#666666;" x="162.868422" xlink:href="#m06d2f5297c" y="126.463721"/>
     <use style="fill:#666666;stroke:#666666;" x="163.954223" xlink:href="#m06d2f5297c" y="129.214117"/>
     <use style="fill:#666666;stroke:#666666;" x="165.040024" xlink:href="#m06d2f5297c" y="128.826892"/>
     <use style="fill:#666666;stroke:#666666;" x="166.125825" xlink:href="#m06d2f5297c" y="121.475724"/>
     <use style="fill:#666666;stroke:#666666;" x="167.211627" xlink:href="#m06d2f5297c" y="124.814052"/>
     <use style="fill:#666666;stroke:#666666;" x="168.297428" xlink:href="#m06d2f5297c" y="121.39713"/>
     <use style="fill:#666666;stroke:#666666;" x="169.383229" xlink:href="#m06d2f5297c" y="131.4726"/>
     <use style="fill:#666666;stroke:#666666;" x="170.46903" xlink:href="#m06d2f5297c" y="127.978611"/>
     <use style="fill:#666666;stroke:#666666;" x="171.554831" xlink:href="#m06d2f5297c" y="129.259958"/>
     <use style="fill:#666666;stroke:#666666;" x="172.640632" xlink:href="#m06d2f5297c" y="102.202013"/>
     <use style="fill:#666666;stroke:#666666;" x="173.726434" xlink:href="#m06d2f5297c" y="107.522287"/>
     <use style="fill:#666666;stroke:#666666;" x="174.812235" xlink:href="#m06d2f5297c" y="112.072696"/>
     <use style="fill:#666666;stroke:#666666;" x="175.898036" xlink:href="#m06d2f5297c" y="109.592702"/>
     <use style="fill:#666666;stroke:#666666;" x="176.983837" xlink:href="#m06d2f5297c" y="117.103306"/>
     <use style="fill:#666666;stroke:#666666;" x="178.069638" xlink:href="#m06d2f5297c" y="123.704555"/>
     <use style="fill:#666666;stroke:#666666;" x="179.155439" xlink:href="#m06d2f5297c" y="109.986266"/>
     <use style="fill:#666666;stroke:#666666;" x="180.24124" xlink:href="#m06d2f5297c" y="115.076923"/>
     <use style="fill:#666666;stroke:#666666;" x="181.327042" xlink:href="#m06d2f5297c" y="123.22859"/>
     <use style="fill:#666666;stroke:#666666;" x="182.412843" xlink:href="#m06d2f5297c" y="124.473725"/>
     <use style="fill:#666666;stroke:#666666;" x="183.498644" xlink:href="#m06d2f5297c" y="136.631895"/>
     <use style="fill:#666666;stroke:#666666;" x="184.584445" xlink:href="#m06d2f5297c" y="138.921645"/>
     <use style="fill:#666666;stroke:#666666;" x="185.670246" xlink:href="#m06d2f5297c" y="137.085015"/>
     <use style="fill:#666666;stroke:#666666;" x="186.756047" xlink:href="#m06d2f5297c" y="140.744004"/>
     <use style="fill:#666666;stroke:#666666;" x="187.841849" xlink:href="#m06d2f5297c" y="143.680938"/>
     <use style="fill:#666666;stroke:#666666;" x="188.92765" xlink:href="#m06d2f5297c" y="134.170285"/>
     <use style="fill:#666666;stroke:#666666;" x="190.013451" xlink:href="#m06d2f5297c" y="143.985001"/>
     <use style="fill:#666666;stroke:#666666;" x="191.099252" xlink:href="#m06d2f5297c" y="134.184831"/>
     <use style="fill:#666666;stroke:#666666;" x="192.185053" xlink:href="#m06d2f5297c" y="140.140694"/>
     <use style="fill:#666666;stroke:#666666;" x="193.270854" xlink:href="#m06d2f5297c" y="120.514008"/>
     <use style="fill:#666666;stroke:#666666;" x="194.356656" xlink:href="#m06d2f5297c" y="122.591889"/>
     <use style="fill:#666666;stroke:#666666;" x="195.442457" xlink:href="#m06d2f5297c" y="123.775639"/>
     <use style="fill:#666666;stroke:#666666;" x="196.528258" xlink:href="#m06d2f5297c" y="119.008777"/>
     <use style="fill:#666666;stroke:#666666;" x="197.614059" xlink:href="#m06d2f5297c" y="126.35543"/>
     <use style="fill:#666666;stroke:#666666;" x="198.69986" xlink:href="#m06d2f5297c" y="121.646286"/>
     <use style="fill:#666666;stroke:#666666;" x="199.785661" xlink:href="#m06d2f5297c" y="116.764394"/>
     <use style="fill:#666666;stroke:#666666;" x="200.871462" xlink:href="#m06d2f5297c" y="121.255298"/>
     <use style="fill:#666666;stroke:#666666;" x="201.957264" xlink:href="#m06d2f5297c" y="116.906223"/>
     <use style="fill:#666666;stroke:#666666;" x="203.043065" xlink:href="#m06d2f5297c" y="116.506207"/>
     <use style="fill:#666666;stroke:#666666;" x="204.128866" xlink:href="#m06d2f5297c" y="105.139068"/>
     <use style="fill:#666666;stroke:#666666;" x="205.214667" xlink:href="#m06d2f5297c" y="120.5932"/>
     <use style="fill:#666666;stroke:#666666;" x="206.300468" xlink:href="#m06d2f5297c" y="118.530635"/>
     <use style="fill:#666666;stroke:#666666;" x="207.386269" xlink:href="#m06d2f5297c" y="119.213492"/>
     <use style="fill:#666666;stroke:#666666;" x="208.472071" xlink:href="#m06d2f5297c" y="113.857793"/>
     <use style="fill:#666666;stroke:#666666;" x="209.557872" xlink:href="#m06d2f5297c" y="109.269194"/>
     <use style="fill:#666666;stroke:#666666;" x="210.643673" xlink:href="#m06d2f5297c" y="128.244637"/>
     <use style="fill:#666666;stroke:#666666;" x="211.729474" xlink:href="#m06d2f5297c" y="113.990284"/>
     <use style="fill:#666666;stroke:#666666;" x="212.815275" xlink:href="#m06d2f5297c" y="128.474702"/>
     <use style="fill:#666666;stroke:#666666;" x="213.901076" xlink:href="#m06d2f5297c" y="109.412424"/>
     <use style="fill:#666666;stroke:#666666;" x="214.986877" xlink:href="#m06d2f5297c" y="110.803962"/>
     <use style="fill:#666666;stroke:#666666;" x="216.072679" xlink:href="#m06d2f5297c" y="118.962543"/>
     <use style="fill:#666666;stroke:#666666;" x="217.15848" xlink:href="#m06d2f5297c" y="118.005916"/>
     <use style="fill:#666666;stroke:#666666;" x="218.244281" xlink:href="#m06d2f5297c" y="129.401752"/>
     <use style="fill:#666666;stroke:#666666;" x="219.330082" xlink:href="#m06d2f5297c" y="140.961225"/>
     <use style="fill:#666666;stroke:#666666;" x="220.415883" xlink:href="#m06d2f5297c" y="127.318111"/>
     <use style="fill:#666666;stroke:#666666;" x="221.501684" xlink:href="#m06d2f5297c" y="132.223774"/>
     <use style="fill:#666666;stroke:#666666;" x="222.587486" xlink:href="#m06d2f5297c" y="126.776425"/>
     <use style="fill:#666666;stroke:#666666;" x="223.673287" xlink:href="#m06d2f5297c" y="124.492428"/>
     <use style="fill:#666666;stroke:#666666;" x="224.759088" xlink:href="#m06d2f5297c" y="110.564175"/>
     <use style="fill:#666666;stroke:#666666;" x="225.844889" xlink:href="#m06d2f5297c" y="116.289349"/>
     <use style="fill:#666666;stroke:#666666;" x="226.93069" xlink:href="#m06d2f5297c" y="107.997916"/>
     <use style="fill:#666666;stroke:#666666;" x="228.016491" xlink:href="#m06d2f5297c" y="100.572549"/>
     <use style="fill:#666666;stroke:#666666;" x="229.102292" xlink:href="#m06d2f5297c" y="108.295843"/>
     <use style="fill:#666666;stroke:#666666;" x="230.188094" xlink:href="#m06d2f5297c" y="107.549133"/>
     <use style="fill:#666666;stroke:#666666;" x="231.273895" xlink:href="#m06d2f5297c" y="108.039192"/>
     <use style="fill:#666666;stroke:#666666;" x="232.359696" xlink:href="#m06d2f5297c" y="107.504368"/>
     <use style="fill:#666666;stroke:#666666;" x="233.445497" xlink:href="#m06d2f5297c" y="109.342863"/>
     <use style="fill:#666666;stroke:#666666;" x="234.531298" xlink:href="#m06d2f5297c" y="101.321896"/>
     <use style="fill:#666666;stroke:#666666;" x="235.617099" xlink:href="#m06d2f5297c" y="101.950305"/>
     <use style="fill:#666666;stroke:#666666;" x="236.702901" xlink:href="#m06d2f5297c" y="106.929568"/>
     <use style="fill:#666666;stroke:#666666;" x="237.788702" xlink:href="#m06d2f5297c" y="113.119142"/>
     <use style="fill:#666666;stroke:#666666;" x="238.874503" xlink:href="#m06d2f5297c" y="104.152617"/>
     <use style="fill:#666666;stroke:#666666;" x="239.960304" xlink:href="#m06d2f5297c" y="102.176922"/>
     <use style="fill:#666666;stroke:#666666;" x="241.046105" xlink:href="#m06d2f5297c" y="105.795945"/>
     <use style="fill:#666666;stroke:#666666;" x="242.131906" xlink:href="#m06d2f5297c" y="106.204363"/>
     <use style="fill:#666666;stroke:#666666;" x="243.217708" xlink:href="#m06d2f5297c" y="99.628887"/>
     <use style="fill:#666666;stroke:#666666;" x="244.303509" xlink:href="#m06d2f5297c" y="107.510753"/>
     <use style="fill:#666666;stroke:#666666;" x="245.38931" xlink:href="#m06d2f5297c" y="106.715319"/>
     <use style="fill:#666666;stroke:#666666;" x="246.475111" xlink:href="#m06d2f5297c" y="123.321062"/>
     <use style="fill:#666666;stroke:#666666;" x="247.560912" xlink:href="#m06d2f5297c" y="115.359941"/>
     <use style="fill:#666666;stroke:#666666;" x="248.646713" xlink:href="#m06d2f5297c" y="104.544418"/>
     <use style="fill:#666666;stroke:#666666;" x="249.732514" xlink:href="#m06d2f5297c" y="94.623784"/>
     <use style="fill:#666666;stroke:#666666;" x="250.818316" xlink:href="#m06d2f5297c" y="111.567526"/>
     <use style="fill:#666666;stroke:#666666;" x="251.904117" xlink:href="#m06d2f5297c" y="104.16935"/>
     <use style="fill:#666666;stroke:#666666;" x="252.989918" xlink:href="#m06d2f5297c" y="105.457796"/>
     <use style="fill:#666666;stroke:#666666;" x="254.075719" xlink:href="#m06d2f5297c" y="102.26987"/>
     <use style="fill:#666666;stroke:#666666;" x="255.16152" xlink:href="#m06d2f5297c" y="103.732896"/>
     <use style="fill:#666666;stroke:#666666;" x="256.247321" xlink:href="#m06d2f5297c" y="112.651302"/>
     <use style="fill:#666666;stroke:#666666;" x="257.333123" xlink:href="#m06d2f5297c" y="111.572688"/>
     <use style="fill:#666666;stroke:#666666;" x="258.418924" xlink:href="#m06d2f5297c" y="102.29672"/>
     <use style="fill:#666666;stroke:#666666;" x="259.504725" xlink:href="#m06d2f5297c" y="100.650358"/>
     <use style="fill:#666666;stroke:#666666;" x="260.590526" xlink:href="#m06d2f5297c" y="103.991189"/>
     <use style="fill:#666666;stroke:#666666;" x="261.676327" xlink:href="#m06d2f5297c" y="101.288162"/>
     <use style="fill:#666666;stroke:#666666;" x="262.762128" xlink:href="#m06d2f5297c" y="102.464789"/>
     <use style="fill:#666666;stroke:#666666;" x="263.847929" xlink:href="#m06d2f5297c" y="102.036489"/>
     <use style="fill:#666666;stroke:#666666;" x="264.933731" xlink:href="#m06d2f5297c" y="104.192216"/>
     <use style="fill:#666666;stroke:#666666;" x="266.019532" xlink:href="#m06d2f5297c" y="95.693839"/>
     <use style="fill:#666666;stroke:#666666;" x="267.105333" xlink:href="#m06d2f5297c" y="98.868589"/>
     <use style="fill:#666666;stroke:#666666;" x="268.191134" xlink:href="#m06d2f5297c" y="99.010239"/>
     <use style="fill:#666666;stroke:#666666;" x="269.276935" xlink:href="#m06d2f5297c" y="84.214778"/>
     <use style="fill:#666666;stroke:#666666;" x="270.362736" xlink:href="#m06d2f5297c" y="83.400258"/>
     <use style="fill:#666666;stroke:#666666;" x="271.448538" xlink:href="#m06d2f5297c" y="77.302889"/>
     <use style="fill:#666666;stroke:#666666;" x="272.534339" xlink:href="#m06d2f5297c" y="82.786465"/>
     <use style="fill:#666666;stroke:#666666;" x="273.62014" xlink:href="#m06d2f5297c" y="89.568798"/>
     <use style="fill:#666666;stroke:#666666;" x="274.705941" xlink:href="#m06d2f5297c" y="85.442029"/>
     <use style="fill:#666666;stroke:#666666;" x="275.791742" xlink:href="#m06d2f5297c" y="77.331988"/>
     <use style="fill:#666666;stroke:#666666;" x="276.877543" xlink:href="#m06d2f5297c" y="80.697258"/>
     <use style="fill:#666666;stroke:#666666;" x="277.963344" xlink:href="#m06d2f5297c" y="85.678645"/>
     <use style="fill:#666666;stroke:#666666;" x="279.049146" xlink:href="#m06d2f5297c" y="87.194959"/>
     <use style="fill:#666666;stroke:#666666;" x="280.134947" xlink:href="#m06d2f5297c" y="90.823673"/>
     <use style="fill:#666666;stroke:#666666;" x="281.220748" xlink:href="#m06d2f5297c" y="94.644565"/>
     <use style="fill:#666666;stroke:#666666;" x="282.306549" xlink:href="#m06d2f5297c" y="84.84571"/>
     <use style="fill:#666666;stroke:#666666;" x="283.39235" xlink:href="#m06d2f5297c" y="78.199378"/>
     <use style="fill:#666666;stroke:#666666;" x="284.478151" xlink:href="#m06d2f5297c" y="91.875484"/>
     <use style="fill:#666666;stroke:#666666;" x="285.563953" xlink:href="#m06d2f5297c" y="108.48256"/>
     <use style="fill:#666666;stroke:#666666;" x="286.649754" xlink:href="#m06d2f5297c" y="98.039399"/>
     <use style="fill:#666666;stroke:#666666;" x="287.735555" xlink:href="#m06d2f5297c" y="99.767245"/>
     <use style="fill:#666666;stroke:#666666;" x="288.821356" xlink:href="#m06d2f5297c" y="95.950972"/>
     <use style="fill:#666666;stroke:#666666;" x="289.907157" xlink:href="#m06d2f5297c" y="95.936506"/>
     <use style="fill:#666666;stroke:#666666;" x="290.992958" xlink:href="#m06d2f5297c" y="91.409562"/>
     <use style="fill:#666666;stroke:#666666;" x="292.07876" xlink:href="#m06d2f5297c" y="103.018727"/>
     <use style="fill:#666666;stroke:#666666;" x="293.164561" xlink:href="#m06d2f5297c" y="85.450734"/>
     <use style="fill:#666666;stroke:#666666;" x="294.250362" xlink:href="#m06d2f5297c" y="84.867017"/>
     <use style="fill:#666666;stroke:#666666;" x="295.336163" xlink:href="#m06d2f5297c" y="88.287512"/>
     <use style="fill:#666666;stroke:#666666;" x="296.421964" xlink:href="#m06d2f5297c" y="83.945963"/>
     <use style="fill:#666666;stroke:#666666;" x="297.507765" xlink:href="#m06d2f5297c" y="78.466575"/>
     <use style="fill:#666666;stroke:#666666;" x="298.593566" xlink:href="#m06d2f5297c" y="86.698718"/>
     <use style="fill:#666666;stroke:#666666;" x="299.679368" xlink:href="#m06d2f5297c" y="91.20278"/>
     <use style="fill:#666666;stroke:#666666;" x="300.765169" xlink:href="#m06d2f5297c" y="85.934598"/>
     <use style="fill:#666666;stroke:#666666;" x="301.85097" xlink:href="#m06d2f5297c" y="84.85509"/>
     <use style="fill:#666666;stroke:#666666;" x="302.936771" xlink:href="#m06d2f5297c" y="83.84318"/>
     <use style="fill:#666666;stroke:#666666;" x="304.022572" xlink:href="#m06d2f5297c" y="81.213642"/>
     <use style="fill:#666666;stroke:#666666;" x="305.108373" xlink:href="#m06d2f5297c" y="76.079047"/>
     <use style="fill:#666666;stroke:#666666;" x="306.194175" xlink:href="#m06d2f5297c" y="78.278071"/>
     <use style="fill:#666666;stroke:#666666;" x="307.279976" xlink:href="#m06d2f5297c" y="86.689502"/>
     <use style="fill:#666666;stroke:#666666;" x="308.365777" xlink:href="#m06d2f5297c" y="74.675617"/>
     <use style="fill:#666666;stroke:#666666;" x="309.451578" xlink:href="#m06d2f5297c" y="75.088103"/>
     <use style="fill:#666666;stroke:#666666;" x="310.537379" xlink:href="#m06d2f5297c" y="73.39647"/>
     <use style="fill:#666666;stroke:#666666;" x="311.62318" xlink:href="#m06d2f5297c" y="72.95129"/>
     <use style="fill:#666666;stroke:#666666;" x="312.708981" xlink:href="#m06d2f5297c" y="73.985098"/>
     <use style="fill:#666666;stroke:#666666;" x="313.794783" xlink:href="#m06d2f5297c" y="70.436491"/>
     <use style="fill:#666666;stroke:#666666;" x="314.880584" xlink:href="#m06d2f5297c" y="74.237852"/>
     <use style="fill:#666666;stroke:#666666;" x="315.966385" xlink:href="#m06d2f5297c" y="73.204186"/>
     <use style="fill:#666666;stroke:#666666;" x="317.052186" xlink:href="#m06d2f5297c" y="86.044196"/>
     <use style="fill:#666666;stroke:#666666;" x="318.137987" xlink:href="#m06d2f5297c" y="81.77189"/>
     <use style="fill:#666666;stroke:#666666;" x="319.223788" xlink:href="#m06d2f5297c" y="80.079542"/>
     <use style="fill:#666666;stroke:#666666;" x="320.30959" xlink:href="#m06d2f5297c" y="76.253545"/>
     <use style="fill:#666666;stroke:#666666;" x="321.395391" xlink:href="#m06d2f5297c" y="77.304215"/>
     <use style="fill:#666666;stroke:#666666;" x="322.481192" xlink:href="#m06d2f5297c" y="65.313698"/>
     <use style="fill:#666666;stroke:#666666;" x="323.566993" xlink:href="#m06d2f5297c" y="74.341806"/>
     <use style="fill:#666666;stroke:#666666;" x="324.652794" xlink:href="#m06d2f5297c" y="74.917263"/>
     <use style="fill:#666666;stroke:#666666;" x="325.738595" xlink:href="#m06d2f5297c" y="70.04882"/>
     <use style="fill:#666666;stroke:#666666;" x="326.824396" xlink:href="#m06d2f5297c" y="63.16904"/>
     <use style="fill:#666666;stroke:#666666;" x="327.910198" xlink:href="#m06d2f5297c" y="58.31111"/>
     <use style="fill:#666666;stroke:#666666;" x="328.995999" xlink:href="#m06d2f5297c" y="67.713704"/>
     <use style="fill:#666666;stroke:#666666;" x="330.0818" xlink:href="#m06d2f5297c" y="76.897047"/>
     <use style="fill:#666666;stroke:#666666;" x="331.167601" xlink:href="#m06d2f5297c" y="76.963629"/>
     <use style="fill:#666666;stroke:#666666;" x="332.253402" xlink:href="#m06d2f5297c" y="69.772839"/>
     <use style="fill:#666666;stroke:#666666;" x="333.339203" xlink:href="#m06d2f5297c" y="68.130427"/>
     <use style="fill:#666666;stroke:#666666;" x="334.425005" xlink:href="#m06d2f5297c" y="73.112349"/>
     <use style="fill:#666666;stroke:#666666;" x="335.510806" xlink:href="#m06d2f5297c" y="70.745504"/>
     <use style="fill:#666666;stroke:#666666;" x="336.596607" xlink:href="#m06d2f5297c" y="75.817222"/>
     <use style="fill:#666666;stroke:#666666;" x="337.682408" xlink:href="#m06d2f5297c" y="75.60972"/>
     <use style="fill:#666666;stroke:#666666;" x="338.768209" xlink:href="#m06d2f5297c" y="69.929544"/>
     <use style="fill:#666666;stroke:#666666;" x="339.85401" xlink:href="#m06d2f5297c" y="74.366526"/>
     <use style="fill:#666666;stroke:#666666;" x="340.939811" xlink:href="#m06d2f5297c" y="79.914305"/>
     <use style="fill:#666666;stroke:#666666;" x="342.025613" xlink:href="#m06d2f5297c" y="82.019653"/>
     <use style="fill:#666666;stroke:#666666;" x="343.111414" xlink:href="#m06d2f5297c" y="77.281397"/>
     <use style="fill:#666666;stroke:#666666;" x="344.197215" xlink:href="#m06d2f5297c" y="79.960093"/>
     <use style="fill:#666666;stroke:#666666;" x="345.283016" xlink:href="#m06d2f5297c" y="78.002263"/>
     <use style="fill:#666666;stroke:#666666;" x="346.368817" xlink:href="#m06d2f5297c" y="86.348039"/>
     <use style="fill:#666666;stroke:#666666;" x="347.454618" xlink:href="#m06d2f5297c" y="88.570766"/>
     <use style="fill:#666666;stroke:#666666;" x="348.54042" xlink:href="#m06d2f5297c" y="78.958252"/>
     <use style="fill:#666666;stroke:#666666;" x="349.626221" xlink:href="#m06d2f5297c" y="89.298311"/>
     <use style="fill:#666666;stroke:#666666;" x="350.712022" xlink:href="#m06d2f5297c" y="81.537293"/>
     <use style="fill:#666666;stroke:#666666;" x="351.797823" xlink:href="#m06d2f5297c" y="70.731347"/>
     <use style="fill:#666666;stroke:#666666;" x="352.883624" xlink:href="#m06d2f5297c" y="66.68404"/>
     <use style="fill:#666666;stroke:#666666;" x="353.969425" xlink:href="#m06d2f5297c" y="68.803248"/>
     <use style="fill:#666666;stroke:#666666;" x="355.055227" xlink:href="#m06d2f5297c" y="76.645341"/>
     <use style="fill:#666666;stroke:#666666;" x="356.141028" xlink:href="#m06d2f5297c" y="77.310559"/>
     <use style="fill:#666666;stroke:#666666;" x="357.226829" xlink:href="#m06d2f5297c" y="82.51162"/>
     <use style="fill:#666666;stroke:#666666;" x="358.31263" xlink:href="#m06d2f5297c" y="78.983244"/>
     <use style="fill:#666666;stroke:#666666;" x="359.398431" xlink:href="#m06d2f5297c" y="76.870999"/>
     <use style="fill:#666666;stroke:#666666;" x="360.484232" xlink:href="#m06d2f5297c" y="84.240533"/>
     <use style="fill:#666666;stroke:#666666;" x="361.570033" xlink:href="#m06d2f5297c" y="77.875047"/>
     <use style="fill:#666666;stroke:#666666;" x="362.655835" xlink:href="#m06d2f5297c" y="91.871172"/>
     <use style="fill:#666666;stroke:#666666;" x="363.741636" xlink:href="#m06d2f5297c" y="81.138667"/>
     <use style="fill:#666666;stroke:#666666;" x="364.827437" xlink:href="#m06d2f5297c" y="87.777334"/>
     <use style="fill:#666666;stroke:#666666;" x="365.913238" xlink:href="#m06d2f5297c" y="92.053175"/>
     <use style="fill:#666666;stroke:#666666;" x="366.999039" xlink:href="#m06d2f5297c" y="85.262566"/>
     <use style="fill:#666666;stroke:#666666;" x="368.08484" xlink:href="#m06d2f5297c" y="82.3264"/>
     <use style="fill:#666666;stroke:#666666;" x="369.170642" xlink:href="#m06d2f5297c" y="69.636623"/>
     <use style="fill:#666666;stroke:#666666;" x="370.256443" xlink:href="#m06d2f5297c" y="72.951164"/>
     <use style="fill:#666666;stroke:#666666;" x="371.342244" xlink:href="#m06d2f5297c" y="67.695935"/>
     <use style="fill:#666666;stroke:#666666;" x="372.428045" xlink:href="#m06d2f5297c" y="72.924991"/>
     <use style="fill:#666666;stroke:#666666;" x="373.513846" xlink:href="#m06d2f5297c" y="68.718968"/>
     <use style="fill:#666666;stroke:#666666;" x="374.599647" xlink:href="#m06d2f5297c" y="58.690918"/>
     <use style="fill:#666666;stroke:#666666;" x="375.685448" xlink:href="#m06d2f5297c" y="53.568"/>
     <use style="fill:#666666;stroke:#666666;" x="376.77125" xlink:href="#m06d2f5297c" y="58.654838"/>
     <use style="fill:#666666;stroke:#666666;" x="377.857051" xlink:href="#m06d2f5297c" y="56.922661"/>
     <use style="fill:#666666;stroke:#666666;" x="378.942852" xlink:href="#m06d2f5297c" y="54.161749"/>
     <use style="fill:#666666;stroke:#666666;" x="380.028653" xlink:href="#m06d2f5297c" y="63.870141"/>
     <use style="fill:#666666;stroke:#666666;" x="381.114454" xlink:href="#m06d2f5297c" y="70.326393"/>
     <use style="fill:#666666;stroke:#666666;" x="382.200255" xlink:href="#m06d2f5297c" y="66.832027"/>
     <use style="fill:#666666;stroke:#666666;" x="383.286057" xlink:href="#m06d2f5297c" y="72.080857"/>
     <use style="fill:#666666;stroke:#666666;" x="384.371858" xlink:href="#m06d2f5297c" y="77.074634"/>
     <use style="fill:#666666;stroke:#666666;" x="385.457659" xlink:href="#m06d2f5297c" y="77.498689"/>
     <use style="fill:#666666;stroke:#666666;" x="386.54346" xlink:href="#m06d2f5297c" y="82.535221"/>
     <use style="fill:#666666;stroke:#666666;" x="387.629261" xlink:href="#m06d2f5297c" y="81.25521"/>
     <use style="fill:#666666;stroke:#666666;" x="388.715062" xlink:href="#m06d2f5297c" y="82.743966"/>
     <use style="fill:#666666;stroke:#666666;" x="389.800863" xlink:href="#m06d2f5297c" y="88.41089"/>
     <use style="fill:#666666;stroke:#666666;" x="390.886665" xlink:href="#m06d2f5297c" y="86.963653"/>
     <use style="fill:#666666;stroke:#666666;" x="391.972466" xlink:href="#m06d2f5297c" y="87.46107"/>
     <use style="fill:#666666;stroke:#666666;" x="393.058267" xlink:href="#m06d2f5297c" y="88.55649"/>
     <use style="fill:#666666;stroke:#666666;" x="394.144068" xlink:href="#m06d2f5297c" y="91.104981"/>
     <use style="fill:#666666;stroke:#666666;" x="395.229869" xlink:href="#m06d2f5297c" y="90.221298"/>
     <use style="fill:#666666;stroke:#666666;" x="396.31567" xlink:href="#m06d2f5297c" y="82.659096"/>
     <use style="fill:#666666;stroke:#666666;" x="397.401472" xlink:href="#m06d2f5297c" y="85.955858"/>
     <use style="fill:#666666;stroke:#666666;" x="398.487273" xlink:href="#m06d2f5297c" y="88.089986"/>
    </g>
   </g>
   <g id="patch_3">
    <path d="M 57.6 307.584 
L 57.6 41.472 
" style="fill:none;stroke:#000000;stroke-linecap:square;stroke-linejoin:miter;stroke-width:0.8;"/>
   </g>
   <g id="patch_4">
    <path d="M 414.72 307.584 
L 414.72 41.472 
" style="fill:none;stroke:#000000;stroke-linecap:square;stroke-linejoin:miter;stroke-width:0.8;"/>
   </g>
   <g id="patch_5">
    <path d="M 57.6 307.584 
L 414.72 307.584 
" style="fill:none;stroke:#000000;stroke-linecap:square;stroke-linejoin:miter;stroke-width:0.8;"/>
   </g>
   <g id="patch_6">
    <path d="M 57.6 41.472 
L 414.72 41.472 
" style="fill:none;stroke:#000000;stroke-linecap:square;stroke-linejoin:miter;stroke-width:0.8;"/>
   </g>
  </g>
 </g>
 <defs>
  <clipPath id="pd6e336364e">
   <rect height="266.112" width="357.12" x="57.6" y="41.472"/>
  </clipPath>
 </defs>
</svg>
