<?xml version="1.0" encoding="utf-8" standalone="no"?>
<!DOCTYPE svg PUBLIC "-//W3C//DTD SVG 1.1//EN"
  "http://www.w3.org/Graphics/SVG/1.1/DTD/svg11.dtd">
<!-- Created with matplotlib (http://matplotlib.org/) -->
<svg height="345.6pt" version="1.1" viewBox="0 0 460.8 345.6" width="460.8pt" xmlns="http://www.w3.org/2000/svg" xmlns:xlink="http://www.w3.org/1999/xlink">
 <defs>
  <style type="text/css">
*{stroke-linecap:butt;stroke-linejoin:round;}
  </style>
 </defs>
 <g id="figure_1">
  <g id="patch_1">
   <path d="M 0 345.6 
L 460.8 345.6 
L 460.8 0 
L 0 0 
z
" style="fill:#ffffff;"/>
  </g>
  <g id="axes_1">
   <g id="patch_2">
    <path d="M 47.72 287.8 
L 447.48 287.8 
L 447.48 13.32 
L 47.72 13.32 
z
" style="fill:#ffffff;"/>
   </g>
   <g id="matplotlib.axis_1">
    <g id="xtick_1">
     <g id="line2d_1">
      <defs>
       <path d="M 0 0 
L 0 3.5 
" id="m9d34d33785" style="stroke:#000000;stroke-width:0.8;"/>
      </defs>
      <g>
       <use style="stroke:#000000;stroke-width:0.8;" x="47.72" xlink:href="#m9d34d33785" y="287.8"/>
      </g>
     </g>
     <g id="text_1">
      <!-- A82 -->
      <defs>
       <path d="M 34.1875 63.1875 
L 20.796875 26.90625 
L 47.609375 26.90625 
z
M 28.609375 72.90625 
L 39.796875 72.90625 
L 67.578125 0 
L 57.328125 0 
L 50.6875 18.703125 
L 17.828125 18.703125 
L 11.1875 0 
L 0.78125 0 
z
" id="DejaVuSans-41"/>
       <path d="M 31.78125 34.625 
Q 24.75 34.625 20.71875 30.859375 
Q 16.703125 27.09375 16.703125 20.515625 
Q 16.703125 13.921875 20.71875 10.15625 
Q 24.75 6.390625 31.78125 6.390625 
Q 38.8125 6.390625 42.859375 10.171875 
Q 46.921875 13.96875 46.921875 20.515625 
Q 46.921875 27.09375 42.890625 30.859375 
Q 38.875 34.625 31.78125 34.625 
z
M 21.921875 38.8125 
Q 15.578125 40.375 12.03125 44.71875 
Q 8.5 49.078125 8.5 55.328125 
Q 8.5 64.0625 14.71875 69.140625 
Q 20.953125 74.21875 31.78125 74.21875 
Q 42.671875 74.21875 48.875 69.140625 
Q 55.078125 64.0625 55.078125 55.328125 
Q 55.078125 49.078125 51.53125 44.71875 
Q 48 40.375 41.703125 38.8125 
Q 48.828125 37.15625 52.796875 32.3125 
Q 56.78125 27.484375 56.78125 20.515625 
Q 56.78125 9.90625 50.3125 4.234375 
Q 43.84375 -1.421875 31.78125 -1.421875 
Q 19.734375 -1.421875 13.25 4.234375 
Q 6.78125 9.90625 6.78125 20.515625 
Q 6.78125 27.484375 10.78125 32.3125 
Q 14.796875 37.15625 21.921875 38.8125 
z
M 18.3125 54.390625 
Q 18.3125 48.734375 21.84375 45.5625 
Q 25.390625 42.390625 31.78125 42.390625 
Q 38.140625 42.390625 41.71875 45.5625 
Q 45.3125 48.734375 45.3125 54.390625 
Q 45.3125 60.0625 41.71875 63.234375 
Q 38.140625 66.40625 31.78125 66.40625 
Q 25.390625 66.40625 21.84375 63.234375 
Q 18.3125 60.0625 18.3125 54.390625 
z
" id="DejaVuSans-38"/>
       <path d="M 19.1875 8.296875 
L 53.609375 8.296875 
L 53.609375 0 
L 7.328125 0 
L 7.328125 8.296875 
Q 12.9375 14.109375 22.625 23.890625 
Q 32.328125 33.6875 34.8125 36.53125 
Q 39.546875 41.84375 41.421875 45.53125 
Q 43.3125 49.21875 43.3125 52.78125 
Q 43.3125 58.59375 39.234375 62.25 
Q 35.15625 65.921875 28.609375 65.921875 
Q 23.96875 65.921875 18.8125 64.3125 
Q 13.671875 62.703125 7.8125 59.421875 
L 7.8125 69.390625 
Q 13.765625 71.78125 18.9375 73 
Q 24.125 74.21875 28.421875 74.21875 
Q 39.75 74.21875 46.484375 68.546875 
Q 53.21875 62.890625 53.21875 53.421875 
Q 53.21875 48.921875 51.53125 44.890625 
Q 49.859375 40.875 45.40625 35.40625 
Q 44.1875 33.984375 37.640625 27.21875 
Q 31.109375 20.453125 19.1875 8.296875 
z
" id="DejaVuSans-32"/>
      </defs>
      <g transform="translate(50.479375 314.365625)rotate(-90)scale(0.1 -0.1)">
       <use xlink:href="#DejaVuSans-41"/>
       <use x="68.408203" xlink:href="#DejaVuSans-38"/>
       <use x="132.03125" xlink:href="#DejaVuSans-32"/>
      </g>
     </g>
    </g>
    <g id="xtick_2">
     <g id="line2d_2">
      <g>
       <use style="stroke:#000000;stroke-width:0.8;" x="66.015652" xlink:href="#m9d34d33785" y="287.8"/>
      </g>
     </g>
     <g id="text_2">
      <!-- A102 -->
      <defs>
       <path d="M 12.40625 8.296875 
L 28.515625 8.296875 
L 28.515625 63.921875 
L 10.984375 60.40625 
L 10.984375 69.390625 
L 28.421875 72.90625 
L 38.28125 72.90625 
L 38.28125 8.296875 
L 54.390625 8.296875 
L 54.390625 0 
L 12.40625 0 
z
" id="DejaVuSans-31"/>
       <path d="M 31.78125 66.40625 
Q 24.171875 66.40625 20.328125 58.90625 
Q 16.5 51.421875 16.5 36.375 
Q 16.5 21.390625 20.328125 13.890625 
Q 24.171875 6.390625 31.78125 6.390625 
Q 39.453125 6.390625 43.28125 13.890625 
Q 47.125 21.390625 47.125 36.375 
Q 47.125 51.421875 43.28125 58.90625 
Q 39.453125 66.40625 31.78125 66.40625 
z
M 31.78125 74.21875 
Q 44.046875 74.21875 50.515625 64.515625 
Q 56.984375 54.828125 56.984375 36.375 
Q 56.984375 17.96875 50.515625 8.265625 
Q 44.046875 -1.421875 31.78125 -1.421875 
Q 19.53125 -1.421875 13.0625 8.265625 
Q 6.59375 17.96875 6.59375 36.375 
Q 6.59375 54.828125 13.0625 64.515625 
Q 19.53125 74.21875 31.78125 74.21875 
z
" id="DejaVuSans-30"/>
      </defs>
      <g transform="translate(68.775027 320.728125)rotate(-90)scale(0.1 -0.1)">
       <use xlink:href="#DejaVuSans-41"/>
       <use x="68.408203" xlink:href="#DejaVuSans-31"/>
       <use x="132.03125" xlink:href="#DejaVuSans-30"/>
       <use x="195.654297" xlink:href="#DejaVuSans-32"/>
      </g>
     </g>
    </g>
    <g id="xtick_3">
     <g id="line2d_3">
      <g>
       <use style="stroke:#000000;stroke-width:0.8;" x="84.311304" xlink:href="#m9d34d33785" y="287.8"/>
      </g>
     </g>
     <g id="text_3">
      <!-- A122 -->
      <g transform="translate(87.070679 320.728125)rotate(-90)scale(0.1 -0.1)">
       <use xlink:href="#DejaVuSans-41"/>
       <use x="68.408203" xlink:href="#DejaVuSans-31"/>
       <use x="132.03125" xlink:href="#DejaVuSans-32"/>
       <use x="195.654297" xlink:href="#DejaVuSans-32"/>
      </g>
     </g>
    </g>
    <g id="xtick_4">
     <g id="line2d_4">
      <g>
       <use style="stroke:#000000;stroke-width:0.8;" x="102.606957" xlink:href="#m9d34d33785" y="287.8"/>
      </g>
     </g>
     <g id="text_4">
      <!-- A142 -->
      <defs>
       <path d="M 37.796875 64.3125 
L 12.890625 25.390625 
L 37.796875 25.390625 
z
M 35.203125 72.90625 
L 47.609375 72.90625 
L 47.609375 25.390625 
L 58.015625 25.390625 
L 58.015625 17.1875 
L 47.609375 17.1875 
L 47.609375 0 
L 37.796875 0 
L 37.796875 17.1875 
L 4.890625 17.1875 
L 4.890625 26.703125 
z
" id="DejaVuSans-34"/>
      </defs>
      <g transform="translate(105.366332 320.728125)rotate(-90)scale(0.1 -0.1)">
       <use xlink:href="#DejaVuSans-41"/>
       <use x="68.408203" xlink:href="#DejaVuSans-31"/>
       <use x="132.03125" xlink:href="#DejaVuSans-34"/>
       <use x="195.654297" xlink:href="#DejaVuSans-32"/>
      </g>
     </g>
    </g>
    <g id="xtick_5">
     <g id="line2d_5">
      <g>
       <use style="stroke:#000000;stroke-width:0.8;" x="120.902609" xlink:href="#m9d34d33785" y="287.8"/>
      </g>
     </g>
     <g id="text_5">
      <!-- A162 -->
      <defs>
       <path d="M 33.015625 40.375 
Q 26.375 40.375 22.484375 35.828125 
Q 18.609375 31.296875 18.609375 23.390625 
Q 18.609375 15.53125 22.484375 10.953125 
Q 26.375 6.390625 33.015625 6.390625 
Q 39.65625 6.390625 43.53125 10.953125 
Q 47.40625 15.53125 47.40625 23.390625 
Q 47.40625 31.296875 43.53125 35.828125 
Q 39.65625 40.375 33.015625 40.375 
z
M 52.59375 71.296875 
L 52.59375 62.3125 
Q 48.875 64.0625 45.09375 64.984375 
Q 41.3125 65.921875 37.59375 65.921875 
Q 27.828125 65.921875 22.671875 59.328125 
Q 17.53125 52.734375 16.796875 39.40625 
Q 19.671875 43.65625 24.015625 45.921875 
Q 28.375 48.1875 33.59375 48.1875 
Q 44.578125 48.1875 50.953125 41.515625 
Q 57.328125 34.859375 57.328125 23.390625 
Q 57.328125 12.15625 50.6875 5.359375 
Q 44.046875 -1.421875 33.015625 -1.421875 
Q 20.359375 -1.421875 13.671875 8.265625 
Q 6.984375 17.96875 6.984375 36.375 
Q 6.984375 53.65625 15.1875 63.9375 
Q 23.390625 74.21875 37.203125 74.21875 
Q 40.921875 74.21875 44.703125 73.484375 
Q 48.484375 72.75 52.59375 71.296875 
z
" id="DejaVuSans-36"/>
      </defs>
      <g transform="translate(123.661984 320.728125)rotate(-90)scale(0.1 -0.1)">
       <use xlink:href="#DejaVuSans-41"/>
       <use x="68.408203" xlink:href="#DejaVuSans-31"/>
       <use x="132.03125" xlink:href="#DejaVuSans-36"/>
       <use x="195.654297" xlink:href="#DejaVuSans-32"/>
      </g>
     </g>
    </g>
    <g id="xtick_6">
     <g id="line2d_6">
      <g>
       <use style="stroke:#000000;stroke-width:0.8;" x="139.198261" xlink:href="#m9d34d33785" y="287.8"/>
      </g>
     </g>
     <g id="text_6">
      <!-- A182 -->
      <g transform="translate(141.957636 320.728125)rotate(-90)scale(0.1 -0.1)">
       <use xlink:href="#DejaVuSans-41"/>
       <use x="68.408203" xlink:href="#DejaVuSans-31"/>
       <use x="132.03125" xlink:href="#DejaVuSans-38"/>
       <use x="195.654297" xlink:href="#DejaVuSans-32"/>
      </g>
     </g>
    </g>
    <g id="xtick_7">
     <g id="line2d_7">
      <g>
       <use style="stroke:#000000;stroke-width:0.8;" x="157.493913" xlink:href="#m9d34d33785" y="287.8"/>
      </g>
     </g>
     <g id="text_7">
      <!-- A202 -->
      <g transform="translate(160.253288 320.728125)rotate(-90)scale(0.1 -0.1)">
       <use xlink:href="#DejaVuSans-41"/>
       <use x="68.408203" xlink:href="#DejaVuSans-32"/>
       <use x="132.03125" xlink:href="#DejaVuSans-30"/>
       <use x="195.654297" xlink:href="#DejaVuSans-32"/>
      </g>
     </g>
    </g>
    <g id="xtick_8">
     <g id="line2d_8">
      <g>
       <use style="stroke:#000000;stroke-width:0.8;" x="175.789565" xlink:href="#m9d34d33785" y="287.8"/>
      </g>
     </g>
     <g id="text_8">
      <!-- A222 -->
      <g transform="translate(178.54894 320.728125)rotate(-90)scale(0.1 -0.1)">
       <use xlink:href="#DejaVuSans-41"/>
       <use x="68.408203" xlink:href="#DejaVuSans-32"/>
       <use x="132.03125" xlink:href="#DejaVuSans-32"/>
       <use x="195.654297" xlink:href="#DejaVuSans-32"/>
      </g>
     </g>
    </g>
    <g id="xtick_9">
     <g id="line2d_9">
      <g>
       <use style="stroke:#000000;stroke-width:0.8;" x="194.085217" xlink:href="#m9d34d33785" y="287.8"/>
      </g>
     </g>
     <g id="text_9">
      <!-- A242 -->
      <g transform="translate(196.844592 320.728125)rotate(-90)scale(0.1 -0.1)">
       <use xlink:href="#DejaVuSans-41"/>
       <use x="68.408203" xlink:href="#DejaVuSans-32"/>
       <use x="132.03125" xlink:href="#DejaVuSans-34"/>
       <use x="195.654297" xlink:href="#DejaVuSans-32"/>
      </g>
     </g>
    </g>
    <g id="xtick_10">
     <g id="line2d_10">
      <g>
       <use style="stroke:#000000;stroke-width:0.8;" x="212.38087" xlink:href="#m9d34d33785" y="287.8"/>
      </g>
     </g>
     <g id="text_10">
      <!-- A262 -->
      <g transform="translate(215.140245 320.728125)rotate(-90)scale(0.1 -0.1)">
       <use xlink:href="#DejaVuSans-41"/>
       <use x="68.408203" xlink:href="#DejaVuSans-32"/>
       <use x="132.03125" xlink:href="#DejaVuSans-36"/>
       <use x="195.654297" xlink:href="#DejaVuSans-32"/>
      </g>
     </g>
    </g>
    <g id="xtick_11">
     <g id="line2d_11">
      <g>
       <use style="stroke:#000000;stroke-width:0.8;" x="230.676522" xlink:href="#m9d34d33785" y="287.8"/>
      </g>
     </g>
     <g id="text_11">
      <!-- A282 -->
      <g transform="translate(233.435897 320.728125)rotate(-90)scale(0.1 -0.1)">
       <use xlink:href="#DejaVuSans-41"/>
       <use x="68.408203" xlink:href="#DejaVuSans-32"/>
       <use x="132.03125" xlink:href="#DejaVuSans-38"/>
       <use x="195.654297" xlink:href="#DejaVuSans-32"/>
      </g>
     </g>
    </g>
    <g id="xtick_12">
     <g id="line2d_12">
      <g>
       <use style="stroke:#000000;stroke-width:0.8;" x="248.972174" xlink:href="#m9d34d33785" y="287.8"/>
      </g>
     </g>
     <g id="text_12">
      <!-- A302 -->
      <defs>
       <path d="M 40.578125 39.3125 
Q 47.65625 37.796875 51.625 33 
Q 55.609375 28.21875 55.609375 21.1875 
Q 55.609375 10.40625 48.1875 4.484375 
Q 40.765625 -1.421875 27.09375 -1.421875 
Q 22.515625 -1.421875 17.65625 -0.515625 
Q 12.796875 0.390625 7.625 2.203125 
L 7.625 11.71875 
Q 11.71875 9.328125 16.59375 8.109375 
Q 21.484375 6.890625 26.8125 6.890625 
Q 36.078125 6.890625 40.9375 10.546875 
Q 45.796875 14.203125 45.796875 21.1875 
Q 45.796875 27.640625 41.28125 31.265625 
Q 36.765625 34.90625 28.71875 34.90625 
L 20.21875 34.90625 
L 20.21875 43.015625 
L 29.109375 43.015625 
Q 36.375 43.015625 40.234375 45.921875 
Q 44.09375 48.828125 44.09375 54.296875 
Q 44.09375 59.90625 40.109375 62.90625 
Q 36.140625 65.921875 28.71875 65.921875 
Q 24.65625 65.921875 20.015625 65.03125 
Q 15.375 64.15625 9.8125 62.3125 
L 9.8125 71.09375 
Q 15.4375 72.65625 20.34375 73.4375 
Q 25.25 74.21875 29.59375 74.21875 
Q 40.828125 74.21875 47.359375 69.109375 
Q 53.90625 64.015625 53.90625 55.328125 
Q 53.90625 49.265625 50.4375 45.09375 
Q 46.96875 40.921875 40.578125 39.3125 
z
" id="DejaVuSans-33"/>
      </defs>
      <g transform="translate(251.731549 320.728125)rotate(-90)scale(0.1 -0.1)">
       <use xlink:href="#DejaVuSans-41"/>
       <use x="68.408203" xlink:href="#DejaVuSans-33"/>
       <use x="132.03125" xlink:href="#DejaVuSans-30"/>
       <use x="195.654297" xlink:href="#DejaVuSans-32"/>
      </g>
     </g>
    </g>
    <g id="xtick_13">
     <g id="line2d_13">
      <g>
       <use style="stroke:#000000;stroke-width:0.8;" x="267.267826" xlink:href="#m9d34d33785" y="287.8"/>
      </g>
     </g>
     <g id="text_13">
      <!-- A322 -->
      <g transform="translate(270.027201 320.728125)rotate(-90)scale(0.1 -0.1)">
       <use xlink:href="#DejaVuSans-41"/>
       <use x="68.408203" xlink:href="#DejaVuSans-33"/>
       <use x="132.03125" xlink:href="#DejaVuSans-32"/>
       <use x="195.654297" xlink:href="#DejaVuSans-32"/>
      </g>
     </g>
    </g>
    <g id="xtick_14">
     <g id="line2d_14">
      <g>
       <use style="stroke:#000000;stroke-width:0.8;" x="285.563478" xlink:href="#m9d34d33785" y="287.8"/>
      </g>
     </g>
     <g id="text_14">
      <!-- A342 -->
      <g transform="translate(288.322853 320.728125)rotate(-90)scale(0.1 -0.1)">
       <use xlink:href="#DejaVuSans-41"/>
       <use x="68.408203" xlink:href="#DejaVuSans-33"/>
       <use x="132.03125" xlink:href="#DejaVuSans-34"/>
       <use x="195.654297" xlink:href="#DejaVuSans-32"/>
      </g>
     </g>
    </g>
    <g id="xtick_15">
     <g id="line2d_15">
      <g>
       <use style="stroke:#000000;stroke-width:0.8;" x="303.85913" xlink:href="#m9d34d33785" y="287.8"/>
      </g>
     </g>
     <g id="text_15">
      <!-- A362 -->
      <g transform="translate(306.618505 320.728125)rotate(-90)scale(0.1 -0.1)">
       <use xlink:href="#DejaVuSans-41"/>
       <use x="68.408203" xlink:href="#DejaVuSans-33"/>
       <use x="132.03125" xlink:href="#DejaVuSans-36"/>
       <use x="195.654297" xlink:href="#DejaVuSans-32"/>
      </g>
     </g>
    </g>
    <g id="xtick_16">
     <g id="line2d_16">
      <g>
       <use style="stroke:#000000;stroke-width:0.8;" x="322.154783" xlink:href="#m9d34d33785" y="287.8"/>
      </g>
     </g>
     <g id="text_16">
      <!-- A382 -->
      <g transform="translate(324.914158 320.728125)rotate(-90)scale(0.1 -0.1)">
       <use xlink:href="#DejaVuSans-41"/>
       <use x="68.408203" xlink:href="#DejaVuSans-33"/>
       <use x="132.03125" xlink:href="#DejaVuSans-38"/>
       <use x="195.654297" xlink:href="#DejaVuSans-32"/>
      </g>
     </g>
    </g>
    <g id="xtick_17">
     <g id="line2d_17">
      <g>
       <use style="stroke:#000000;stroke-width:0.8;" x="340.450435" xlink:href="#m9d34d33785" y="287.8"/>
      </g>
     </g>
     <g id="text_17">
      <!-- A402 -->
      <g transform="translate(343.20981 320.728125)rotate(-90)scale(0.1 -0.1)">
       <use xlink:href="#DejaVuSans-41"/>
       <use x="68.408203" xlink:href="#DejaVuSans-34"/>
       <use x="132.03125" xlink:href="#DejaVuSans-30"/>
       <use x="195.654297" xlink:href="#DejaVuSans-32"/>
      </g>
     </g>
    </g>
    <g id="xtick_18">
     <g id="line2d_18">
      <g>
       <use style="stroke:#000000;stroke-width:0.8;" x="358.746087" xlink:href="#m9d34d33785" y="287.8"/>
      </g>
     </g>
     <g id="text_18">
      <!-- A436 -->
      <g transform="translate(361.505462 320.728125)rotate(-90)scale(0.1 -0.1)">
       <use xlink:href="#DejaVuSans-41"/>
       <use x="68.408203" xlink:href="#DejaVuSans-34"/>
       <use x="132.03125" xlink:href="#DejaVuSans-33"/>
       <use x="195.654297" xlink:href="#DejaVuSans-36"/>
      </g>
     </g>
    </g>
    <g id="xtick_19">
     <g id="line2d_19">
      <g>
       <use style="stroke:#000000;stroke-width:0.8;" x="377.041739" xlink:href="#m9d34d33785" y="287.8"/>
      </g>
     </g>
     <g id="text_19">
      <!-- A456 -->
      <defs>
       <path d="M 10.796875 72.90625 
L 49.515625 72.90625 
L 49.515625 64.59375 
L 19.828125 64.59375 
L 19.828125 46.734375 
Q 21.96875 47.46875 24.109375 47.828125 
Q 26.265625 48.1875 28.421875 48.1875 
Q 40.625 48.1875 47.75 41.5 
Q 54.890625 34.8125 54.890625 23.390625 
Q 54.890625 11.625 47.5625 5.09375 
Q 40.234375 -1.421875 26.90625 -1.421875 
Q 22.3125 -1.421875 17.546875 -0.640625 
Q 12.796875 0.140625 7.71875 1.703125 
L 7.71875 11.625 
Q 12.109375 9.234375 16.796875 8.0625 
Q 21.484375 6.890625 26.703125 6.890625 
Q 35.15625 6.890625 40.078125 11.328125 
Q 45.015625 15.765625 45.015625 23.390625 
Q 45.015625 31 40.078125 35.4375 
Q 35.15625 39.890625 26.703125 39.890625 
Q 22.75 39.890625 18.8125 39.015625 
Q 14.890625 38.140625 10.796875 36.28125 
z
" id="DejaVuSans-35"/>
      </defs>
      <g transform="translate(379.801114 320.728125)rotate(-90)scale(0.1 -0.1)">
       <use xlink:href="#DejaVuSans-41"/>
       <use x="68.408203" xlink:href="#DejaVuSans-34"/>
       <use x="132.03125" xlink:href="#DejaVuSans-35"/>
       <use x="195.654297" xlink:href="#DejaVuSans-36"/>
      </g>
     </g>
    </g>
    <g id="xtick_20">
     <g id="line2d_20">
      <g>
       <use style="stroke:#000000;stroke-width:0.8;" x="395.337391" xlink:href="#m9d34d33785" y="287.8"/>
      </g>
     </g>
     <g id="text_20">
      <!-- A476 -->
      <defs>
       <path d="M 8.203125 72.90625 
L 55.078125 72.90625 
L 55.078125 68.703125 
L 28.609375 0 
L 18.3125 0 
L 43.21875 64.59375 
L 8.203125 64.59375 
z
" id="DejaVuSans-37"/>
      </defs>
      <g transform="translate(398.096766 320.728125)rotate(-90)scale(0.1 -0.1)">
       <use xlink:href="#DejaVuSans-41"/>
       <use x="68.408203" xlink:href="#DejaVuSans-34"/>
       <use x="132.03125" xlink:href="#DejaVuSans-37"/>
       <use x="195.654297" xlink:href="#DejaVuSans-36"/>
      </g>
     </g>
    </g>
    <g id="xtick_21">
     <g id="line2d_21">
      <g>
       <use style="stroke:#000000;stroke-width:0.8;" x="413.633043" xlink:href="#m9d34d33785" y="287.8"/>
      </g>
     </g>
     <g id="text_21">
      <!-- A496 -->
      <defs>
       <path d="M 10.984375 1.515625 
L 10.984375 10.5 
Q 14.703125 8.734375 18.5 7.8125 
Q 22.3125 6.890625 25.984375 6.890625 
Q 35.75 6.890625 40.890625 13.453125 
Q 46.046875 20.015625 46.78125 33.40625 
Q 43.953125 29.203125 39.59375 26.953125 
Q 35.25 24.703125 29.984375 24.703125 
Q 19.046875 24.703125 12.671875 31.3125 
Q 6.296875 37.9375 6.296875 49.421875 
Q 6.296875 60.640625 12.9375 67.421875 
Q 19.578125 74.21875 30.609375 74.21875 
Q 43.265625 74.21875 49.921875 64.515625 
Q 56.59375 54.828125 56.59375 36.375 
Q 56.59375 19.140625 48.40625 8.859375 
Q 40.234375 -1.421875 26.421875 -1.421875 
Q 22.703125 -1.421875 18.890625 -0.6875 
Q 15.09375 0.046875 10.984375 1.515625 
z
M 30.609375 32.421875 
Q 37.25 32.421875 41.125 36.953125 
Q 45.015625 41.5 45.015625 49.421875 
Q 45.015625 57.28125 41.125 61.84375 
Q 37.25 66.40625 30.609375 66.40625 
Q 23.96875 66.40625 20.09375 61.84375 
Q 16.21875 57.28125 16.21875 49.421875 
Q 16.21875 41.5 20.09375 36.953125 
Q 23.96875 32.421875 30.609375 32.421875 
z
" id="DejaVuSans-39"/>
      </defs>
      <g transform="translate(416.392418 320.728125)rotate(-90)scale(0.1 -0.1)">
       <use xlink:href="#DejaVuSans-41"/>
       <use x="68.408203" xlink:href="#DejaVuSans-34"/>
       <use x="132.03125" xlink:href="#DejaVuSans-39"/>
       <use x="195.654297" xlink:href="#DejaVuSans-36"/>
      </g>
     </g>
    </g>
    <g id="xtick_22">
     <g id="line2d_22">
      <g>
       <use style="stroke:#000000;stroke-width:0.8;" x="431.928696" xlink:href="#m9d34d33785" y="287.8"/>
      </g>
     </g>
     <g id="text_22">
      <!-- A516 -->
      <g transform="translate(434.688071 320.728125)rotate(-90)scale(0.1 -0.1)">
       <use xlink:href="#DejaVuSans-41"/>
       <use x="68.408203" xlink:href="#DejaVuSans-35"/>
       <use x="132.03125" xlink:href="#DejaVuSans-31"/>
       <use x="195.654297" xlink:href="#DejaVuSans-36"/>
      </g>
     </g>
    </g>
    <g id="text_23">
     <!-- Residue index -->
     <defs>
      <path d="M 44.390625 34.1875 
Q 47.5625 33.109375 50.5625 29.59375 
Q 53.5625 26.078125 56.59375 19.921875 
L 66.609375 0 
L 56 0 
L 46.6875 18.703125 
Q 43.0625 26.03125 39.671875 28.421875 
Q 36.28125 30.8125 30.421875 30.8125 
L 19.671875 30.8125 
L 19.671875 0 
L 9.8125 0 
L 9.8125 72.90625 
L 32.078125 72.90625 
Q 44.578125 72.90625 50.734375 67.671875 
Q 56.890625 62.453125 56.890625 51.90625 
Q 56.890625 45.015625 53.6875 40.46875 
Q 50.484375 35.9375 44.390625 34.1875 
z
M 19.671875 64.796875 
L 19.671875 38.921875 
L 32.078125 38.921875 
Q 39.203125 38.921875 42.84375 42.21875 
Q 46.484375 45.515625 46.484375 51.90625 
Q 46.484375 58.296875 42.84375 61.546875 
Q 39.203125 64.796875 32.078125 64.796875 
z
" id="DejaVuSans-52"/>
      <path d="M 56.203125 29.59375 
L 56.203125 25.203125 
L 14.890625 25.203125 
Q 15.484375 15.921875 20.484375 11.0625 
Q 25.484375 6.203125 34.421875 6.203125 
Q 39.59375 6.203125 44.453125 7.46875 
Q 49.3125 8.734375 54.109375 11.28125 
L 54.109375 2.78125 
Q 49.265625 0.734375 44.1875 -0.34375 
Q 39.109375 -1.421875 33.890625 -1.421875 
Q 20.796875 -1.421875 13.15625 6.1875 
Q 5.515625 13.8125 5.515625 26.8125 
Q 5.515625 40.234375 12.765625 48.109375 
Q 20.015625 56 32.328125 56 
Q 43.359375 56 49.78125 48.890625 
Q 56.203125 41.796875 56.203125 29.59375 
z
M 47.21875 32.234375 
Q 47.125 39.59375 43.09375 43.984375 
Q 39.0625 48.390625 32.421875 48.390625 
Q 24.90625 48.390625 20.390625 44.140625 
Q 15.875 39.890625 15.1875 32.171875 
z
" id="DejaVuSans-65"/>
      <path d="M 44.28125 53.078125 
L 44.28125 44.578125 
Q 40.484375 46.53125 36.375 47.5 
Q 32.28125 48.484375 27.875 48.484375 
Q 21.1875 48.484375 17.84375 46.4375 
Q 14.5 44.390625 14.5 40.28125 
Q 14.5 37.15625 16.890625 35.375 
Q 19.28125 33.59375 26.515625 31.984375 
L 29.59375 31.296875 
Q 39.15625 29.25 43.1875 25.515625 
Q 47.21875 21.78125 47.21875 15.09375 
Q 47.21875 7.46875 41.1875 3.015625 
Q 35.15625 -1.421875 24.609375 -1.421875 
Q 20.21875 -1.421875 15.453125 -0.5625 
Q 10.6875 0.296875 5.421875 2 
L 5.421875 11.28125 
Q 10.40625 8.6875 15.234375 7.390625 
Q 20.0625 6.109375 24.8125 6.109375 
Q 31.15625 6.109375 34.5625 8.28125 
Q 37.984375 10.453125 37.984375 14.40625 
Q 37.984375 18.0625 35.515625 20.015625 
Q 33.0625 21.96875 24.703125 23.78125 
L 21.578125 24.515625 
Q 13.234375 26.265625 9.515625 29.90625 
Q 5.8125 33.546875 5.8125 39.890625 
Q 5.8125 47.609375 11.28125 51.796875 
Q 16.75 56 26.8125 56 
Q 31.78125 56 36.171875 55.265625 
Q 40.578125 54.546875 44.28125 53.078125 
z
" id="DejaVuSans-73"/>
      <path d="M 9.421875 54.6875 
L 18.40625 54.6875 
L 18.40625 0 
L 9.421875 0 
z
M 9.421875 75.984375 
L 18.40625 75.984375 
L 18.40625 64.59375 
L 9.421875 64.59375 
z
" id="DejaVuSans-69"/>
      <path d="M 45.40625 46.390625 
L 45.40625 75.984375 
L 54.390625 75.984375 
L 54.390625 0 
L 45.40625 0 
L 45.40625 8.203125 
Q 42.578125 3.328125 38.25 0.953125 
Q 33.9375 -1.421875 27.875 -1.421875 
Q 17.96875 -1.421875 11.734375 6.484375 
Q 5.515625 14.40625 5.515625 27.296875 
Q 5.515625 40.1875 11.734375 48.09375 
Q 17.96875 56 27.875 56 
Q 33.9375 56 38.25 53.625 
Q 42.578125 51.265625 45.40625 46.390625 
z
M 14.796875 27.296875 
Q 14.796875 17.390625 18.875 11.75 
Q 22.953125 6.109375 30.078125 6.109375 
Q 37.203125 6.109375 41.296875 11.75 
Q 45.40625 17.390625 45.40625 27.296875 
Q 45.40625 37.203125 41.296875 42.84375 
Q 37.203125 48.484375 30.078125 48.484375 
Q 22.953125 48.484375 18.875 42.84375 
Q 14.796875 37.203125 14.796875 27.296875 
z
" id="DejaVuSans-64"/>
      <path d="M 8.5 21.578125 
L 8.5 54.6875 
L 17.484375 54.6875 
L 17.484375 21.921875 
Q 17.484375 14.15625 20.5 10.265625 
Q 23.53125 6.390625 29.59375 6.390625 
Q 36.859375 6.390625 41.078125 11.03125 
Q 45.3125 15.671875 45.3125 23.6875 
L 45.3125 54.6875 
L 54.296875 54.6875 
L 54.296875 0 
L 45.3125 0 
L 45.3125 8.40625 
Q 42.046875 3.421875 37.71875 1 
Q 33.40625 -1.421875 27.6875 -1.421875 
Q 18.265625 -1.421875 13.375 4.4375 
Q 8.5 10.296875 8.5 21.578125 
z
M 31.109375 56 
z
" id="DejaVuSans-75"/>
      <path id="DejaVuSans-20"/>
      <path d="M 54.890625 33.015625 
L 54.890625 0 
L 45.90625 0 
L 45.90625 32.71875 
Q 45.90625 40.484375 42.875 44.328125 
Q 39.84375 48.1875 33.796875 48.1875 
Q 26.515625 48.1875 22.3125 43.546875 
Q 18.109375 38.921875 18.109375 30.90625 
L 18.109375 0 
L 9.078125 0 
L 9.078125 54.6875 
L 18.109375 54.6875 
L 18.109375 46.1875 
Q 21.34375 51.125 25.703125 53.5625 
Q 30.078125 56 35.796875 56 
Q 45.21875 56 50.046875 50.171875 
Q 54.890625 44.34375 54.890625 33.015625 
z
" id="DejaVuSans-6e"/>
      <path d="M 54.890625 54.6875 
L 35.109375 28.078125 
L 55.90625 0 
L 45.3125 0 
L 29.390625 21.484375 
L 13.484375 0 
L 2.875 0 
L 24.125 28.609375 
L 4.6875 54.6875 
L 15.28125 54.6875 
L 29.78125 35.203125 
L 44.28125 54.6875 
z
" id="DejaVuSans-78"/>
     </defs>
     <g transform="translate(212.282812 332.326562)scale(0.1 -0.1)">
      <use xlink:href="#DejaVuSans-52"/>
      <use x="69.419922" xlink:href="#DejaVuSans-65"/>
      <use x="130.943359" xlink:href="#DejaVuSans-73"/>
      <use x="183.042969" xlink:href="#DejaVuSans-69"/>
      <use x="210.826172" xlink:href="#DejaVuSans-64"/>
      <use x="274.302734" xlink:href="#DejaVuSans-75"/>
      <use x="337.681641" xlink:href="#DejaVuSans-65"/>
      <use x="399.205078" xlink:href="#DejaVuSans-20"/>
      <use x="430.992188" xlink:href="#DejaVuSans-69"/>
      <use x="458.775391" xlink:href="#DejaVuSans-6e"/>
      <use x="522.154297" xlink:href="#DejaVuSans-64"/>
      <use x="585.630859" xlink:href="#DejaVuSans-65"/>
      <use x="647.138672" xlink:href="#DejaVuSans-78"/>
     </g>
    </g>
   </g>
   <g id="matplotlib.axis_2">
    <g id="ytick_1">
     <g id="line2d_23">
      <defs>
       <path d="M 0 0 
L -3.5 0 
" id="m5a115c576a" style="stroke:#000000;stroke-width:0.8;"/>
      </defs>
      <g>
       <use style="stroke:#000000;stroke-width:0.8;" x="47.72" xlink:href="#m5a115c576a" y="283.912249"/>
      </g>
     </g>
     <g id="text_24">
      <!-- 0.0 -->
      <defs>
       <path d="M 10.6875 12.40625 
L 21 12.40625 
L 21 0 
L 10.6875 0 
z
" id="DejaVuSans-2e"/>
      </defs>
      <g transform="translate(24.816875 287.711468)scale(0.1 -0.1)">
       <use xlink:href="#DejaVuSans-30"/>
       <use x="63.623047" xlink:href="#DejaVuSans-2e"/>
       <use x="95.410156" xlink:href="#DejaVuSans-30"/>
      </g>
     </g>
    </g>
    <g id="ytick_2">
     <g id="line2d_24">
      <g>
       <use style="stroke:#000000;stroke-width:0.8;" x="47.72" xlink:href="#m5a115c576a" y="250.964111"/>
      </g>
     </g>
     <g id="text_25">
      <!-- 0.5 -->
      <g transform="translate(24.816875 254.76333)scale(0.1 -0.1)">
       <use xlink:href="#DejaVuSans-30"/>
       <use x="63.623047" xlink:href="#DejaVuSans-2e"/>
       <use x="95.410156" xlink:href="#DejaVuSans-35"/>
      </g>
     </g>
    </g>
    <g id="ytick_3">
     <g id="line2d_25">
      <g>
       <use style="stroke:#000000;stroke-width:0.8;" x="47.72" xlink:href="#m5a115c576a" y="218.015973"/>
      </g>
     </g>
     <g id="text_26">
      <!-- 1.0 -->
      <g transform="translate(24.816875 221.815192)scale(0.1 -0.1)">
       <use xlink:href="#DejaVuSans-31"/>
       <use x="63.623047" xlink:href="#DejaVuSans-2e"/>
       <use x="95.410156" xlink:href="#DejaVuSans-30"/>
      </g>
     </g>
    </g>
    <g id="ytick_4">
     <g id="line2d_26">
      <g>
       <use style="stroke:#000000;stroke-width:0.8;" x="47.72" xlink:href="#m5a115c576a" y="185.067835"/>
      </g>
     </g>
     <g id="text_27">
      <!-- 1.5 -->
      <g transform="translate(24.816875 188.867054)scale(0.1 -0.1)">
       <use xlink:href="#DejaVuSans-31"/>
       <use x="63.623047" xlink:href="#DejaVuSans-2e"/>
       <use x="95.410156" xlink:href="#DejaVuSans-35"/>
      </g>
     </g>
    </g>
    <g id="ytick_5">
     <g id="line2d_27">
      <g>
       <use style="stroke:#000000;stroke-width:0.8;" x="47.72" xlink:href="#m5a115c576a" y="152.119697"/>
      </g>
     </g>
     <g id="text_28">
      <!-- 2.0 -->
      <g transform="translate(24.816875 155.918916)scale(0.1 -0.1)">
       <use xlink:href="#DejaVuSans-32"/>
       <use x="63.623047" xlink:href="#DejaVuSans-2e"/>
       <use x="95.410156" xlink:href="#DejaVuSans-30"/>
      </g>
     </g>
    </g>
    <g id="ytick_6">
     <g id="line2d_28">
      <g>
       <use style="stroke:#000000;stroke-width:0.8;" x="47.72" xlink:href="#m5a115c576a" y="119.171559"/>
      </g>
     </g>
     <g id="text_29">
      <!-- 2.5 -->
      <g transform="translate(24.816875 122.970778)scale(0.1 -0.1)">
       <use xlink:href="#DejaVuSans-32"/>
       <use x="63.623047" xlink:href="#DejaVuSans-2e"/>
       <use x="95.410156" xlink:href="#DejaVuSans-35"/>
      </g>
     </g>
    </g>
    <g id="ytick_7">
     <g id="line2d_29">
      <g>
       <use style="stroke:#000000;stroke-width:0.8;" x="47.72" xlink:href="#m5a115c576a" y="86.223421"/>
      </g>
     </g>
     <g id="text_30">
      <!-- 3.0 -->
      <g transform="translate(24.816875 90.02264)scale(0.1 -0.1)">
       <use xlink:href="#DejaVuSans-33"/>
       <use x="63.623047" xlink:href="#DejaVuSans-2e"/>
       <use x="95.410156" xlink:href="#DejaVuSans-30"/>
      </g>
     </g>
    </g>
    <g id="ytick_8">
     <g id="line2d_30">
      <g>
       <use style="stroke:#000000;stroke-width:0.8;" x="47.72" xlink:href="#m5a115c576a" y="53.275283"/>
      </g>
     </g>
     <g id="text_31">
      <!-- 3.5 -->
      <g transform="translate(24.816875 57.074502)scale(0.1 -0.1)">
       <use xlink:href="#DejaVuSans-33"/>
       <use x="63.623047" xlink:href="#DejaVuSans-2e"/>
       <use x="95.410156" xlink:href="#DejaVuSans-35"/>
      </g>
     </g>
    </g>
    <g id="ytick_9">
     <g id="line2d_31">
      <g>
       <use style="stroke:#000000;stroke-width:0.8;" x="47.72" xlink:href="#m5a115c576a" y="20.327145"/>
      </g>
     </g>
     <g id="text_32">
      <!-- 4.0 -->
      <g transform="translate(24.816875 24.126363)scale(0.1 -0.1)">
       <use xlink:href="#DejaVuSans-34"/>
       <use x="63.623047" xlink:href="#DejaVuSans-2e"/>
       <use x="95.410156" xlink:href="#DejaVuSans-30"/>
      </g>
     </g>
    </g>
    <g id="text_33">
     <!-- RMSF -->
     <defs>
      <path d="M 9.8125 72.90625 
L 24.515625 72.90625 
L 43.109375 23.296875 
L 61.8125 72.90625 
L 76.515625 72.90625 
L 76.515625 0 
L 66.890625 0 
L 66.890625 64.015625 
L 48.09375 14.015625 
L 38.1875 14.015625 
L 19.390625 64.015625 
L 19.390625 0 
L 9.8125 0 
z
" id="DejaVuSans-4d"/>
      <path d="M 53.515625 70.515625 
L 53.515625 60.890625 
Q 47.90625 63.578125 42.921875 64.890625 
Q 37.9375 66.21875 33.296875 66.21875 
Q 25.25 66.21875 20.875 63.09375 
Q 16.5 59.96875 16.5 54.203125 
Q 16.5 49.359375 19.40625 46.890625 
Q 22.3125 44.4375 30.421875 42.921875 
L 36.375 41.703125 
Q 47.40625 39.59375 52.65625 34.296875 
Q 57.90625 29 57.90625 20.125 
Q 57.90625 9.515625 50.796875 4.046875 
Q 43.703125 -1.421875 29.984375 -1.421875 
Q 24.8125 -1.421875 18.96875 -0.25 
Q 13.140625 0.921875 6.890625 3.21875 
L 6.890625 13.375 
Q 12.890625 10.015625 18.65625 8.296875 
Q 24.421875 6.59375 29.984375 6.59375 
Q 38.421875 6.59375 43.015625 9.90625 
Q 47.609375 13.234375 47.609375 19.390625 
Q 47.609375 24.75 44.3125 27.78125 
Q 41.015625 30.8125 33.5 32.328125 
L 27.484375 33.5 
Q 16.453125 35.6875 11.515625 40.375 
Q 6.59375 45.0625 6.59375 53.421875 
Q 6.59375 63.09375 13.40625 68.65625 
Q 20.21875 74.21875 32.171875 74.21875 
Q 37.3125 74.21875 42.625 73.28125 
Q 47.953125 72.359375 53.515625 70.515625 
z
" id="DejaVuSans-53"/>
      <path d="M 9.8125 72.90625 
L 51.703125 72.90625 
L 51.703125 64.59375 
L 19.671875 64.59375 
L 19.671875 43.109375 
L 48.578125 43.109375 
L 48.578125 34.8125 
L 19.671875 34.8125 
L 19.671875 0 
L 9.8125 0 
z
" id="DejaVuSans-46"/>
     </defs>
     <g transform="translate(18.737188 164.398281)rotate(-90)scale(0.1 -0.1)">
      <use xlink:href="#DejaVuSans-52"/>
      <use x="69.482422" xlink:href="#DejaVuSans-4d"/>
      <use x="155.761719" xlink:href="#DejaVuSans-53"/>
      <use x="219.238281" xlink:href="#DejaVuSans-46"/>
     </g>
    </g>
   </g>
   <g id="line2d_32">
    <path clip-path="url(#p45bce0efe9)" d="M 47.72 190.723421 
L 48.634783 228.946734 
L 49.549565 235.168822 
L 50.464348 246.441858 
L 51.37913 253.168507 
L 52.293913 265.919027 
L 53.208696 260.652855 
L 54.123478 230.656914 
L 55.038261 226.817534 
L 55.953043 220.351163 
L 56.867826 231.294431 
L 57.782609 237.821372 
L 58.697391 240.614898 
L 59.612174 236.346111 
L 60.526957 226.721334 
L 61.441739 198.650788 
L 63.271304 259.632008 
L 65.10087 250.964449 
L 66.015652 253.703271 
L 66.930435 237.683299 
L 68.76 223.348168 
L 69.674783 241.700594 
L 70.589565 253.373173 
L 71.504348 269.782192 
L 72.41913 268.618602 
L 73.333913 248.111244 
L 74.248696 235.176118 
L 75.163478 226.137731 
L 76.078261 220.453695 
L 76.993043 221.725817 
L 77.907826 227.702255 
L 78.822609 219.620111 
L 79.737391 229.588876 
L 80.652174 251.998418 
L 81.566957 254.615217 
L 82.481739 254.024066 
L 83.396522 265.606462 
L 84.311304 267.20862 
L 85.226087 251.403067 
L 86.14087 223.417235 
L 87.055652 177.766531 
L 87.970435 172.075266 
L 88.885217 184.321981 
L 90.714783 249.47809 
L 91.629565 250.582069 
L 92.544348 266.659729 
L 94.373913 254.387048 
L 95.288696 233.955939 
L 97.118261 224.886246 
L 98.033043 246.631938 
L 98.947826 253.485394 
L 99.862609 235.643614 
L 100.777391 194.335695 
L 101.692174 166.251356 
L 102.606957 218.991103 
L 103.521739 230.153786 
L 104.436522 220.436522 
L 105.351304 240.220285 
L 106.266087 221.26819 
L 107.18087 188.735646 
L 108.095652 231.652489 
L 109.010435 244.376955 
L 109.925217 253.999733 
L 110.84 237.392856 
L 111.754783 135.910096 
L 112.669565 215.170117 
L 113.584348 167.908011 
L 114.49913 219.657855 
L 115.413913 239.278526 
L 116.328696 240.331551 
L 117.243478 238.225734 
L 118.158261 247.89035 
L 119.073043 241.555953 
L 119.987826 245.993275 
L 120.902609 255.512949 
L 121.817391 226.430932 
L 122.732174 201.562641 
L 123.646957 168.841585 
L 124.561739 165.219104 
L 125.476522 154.084426 
L 126.391304 157.54086 
L 127.306087 192.826107 
L 129.135652 256.710894 
L 130.050435 267.099046 
L 130.965217 267.836033 
L 131.88 271.951085 
L 132.794783 262.71862 
L 133.709565 244.323339 
L 135.53913 228.939474 
L 136.453913 141.533059 
L 137.368696 163.240226 
L 138.283478 138.756002 
L 139.198261 183.350899 
L 140.113043 207.14208 
L 141.027826 261.171332 
L 141.942609 262.221551 
L 142.857391 270.813356 
L 143.772174 270.995488 
L 144.686957 243.121835 
L 145.601739 246.284656 
L 146.516522 219.58024 
L 147.431304 209.926878 
L 148.346087 133.455102 
L 149.26087 112.453582 
L 150.175652 31.874934 
L 151.090435 25.796364 
L 152.005217 128.079757 
L 152.92 201.506788 
L 153.834783 209.29571 
L 154.749565 243.675475 
L 155.664348 261.770632 
L 156.57913 264.238771 
L 157.493913 262.251876 
L 158.408696 239.283093 
L 159.323478 236.002403 
L 160.238261 229.390456 
L 161.153043 218.654246 
L 162.067826 200.203966 
L 162.982609 138.639201 
L 163.897391 99.047304 
L 164.812174 138.449542 
L 165.726957 197.500248 
L 166.641739 242.814487 
L 167.556522 234.985846 
L 168.471304 225.674745 
L 169.386087 169.10397 
L 170.30087 132.120305 
L 171.215652 121.722936 
L 172.130435 194.091897 
L 173.045217 220.115678 
L 173.96 233.040417 
L 174.874783 230.491842 
L 175.789565 228.940327 
L 176.704348 221.327791 
L 178.533913 219.747349 
L 179.448696 223.925112 
L 180.363478 224.695749 
L 181.278261 219.886068 
L 182.193043 216.449666 
L 183.107826 223.379063 
L 184.022609 206.709201 
L 184.937391 195.304847 
L 185.852174 196.314 
L 186.766957 169.122105 
L 187.681739 173.394457 
L 188.596522 156.813999 
L 189.511304 203.70186 
L 190.426087 201.207889 
L 191.34087 172.307312 
L 192.255652 182.318329 
L 193.170435 226.108016 
L 194.085217 215.200528 
L 195 245.110495 
L 195.914783 229.147645 
L 196.829565 223.517331 
L 197.744348 213.141953 
L 198.65913 215.389429 
L 200.488696 196.772361 
L 201.403478 202.502536 
L 202.318261 172.141456 
L 203.233043 227.141544 
L 204.147826 173.947725 
L 205.062609 108.687263 
L 205.977391 177.072713 
L 206.892174 108.454688 
L 207.806957 192.570054 
L 208.721739 135.942248 
L 209.636522 145.870633 
L 210.551304 223.595053 
L 212.38087 243.21566 
L 213.295652 208.324505 
L 214.210435 205.43104 
L 215.125217 162.939439 
L 216.04 202.437897 
L 216.954783 234.433225 
L 217.869565 247.521567 
L 218.784348 215.649007 
L 219.69913 213.543466 
L 221.528696 249.471642 
L 222.443478 235.666556 
L 223.358261 210.208806 
L 224.273043 207.060088 
L 225.187826 167.213616 
L 226.102609 170.592615 
L 227.017391 202.519085 
L 227.932174 200.89439 
L 228.846957 252.536624 
L 229.761739 268.813987 
L 230.676522 264.56136 
L 231.591304 269.389071 
L 232.506087 255.647193 
L 233.42087 262.986409 
L 234.335652 258.869245 
L 235.250435 233.509068 
L 236.165217 203.990197 
L 237.08 204.374411 
L 237.994783 221.730448 
L 238.909565 252.3302 
L 239.824348 264.652654 
L 240.73913 272.69516 
L 242.568696 253.756796 
L 243.483478 238.442316 
L 244.398261 225.790099 
L 246.227826 164.816888 
L 247.142609 143.35013 
L 248.057391 114.48921 
L 248.972174 176.65635 
L 249.886957 192.251643 
L 250.801739 219.389666 
L 251.716522 210.281472 
L 252.631304 217.15104 
L 253.546087 247.055946 
L 254.46087 240.654336 
L 255.375652 231.23426 
L 256.290435 239.00189 
L 257.205217 247.721207 
L 258.12 247.653082 
L 259.034783 241.792912 
L 259.949565 233.898122 
L 260.864348 248.83518 
L 261.77913 242.05541 
L 262.693913 233.85571 
L 263.608696 197.372887 
L 264.523478 220.305223 
L 265.438261 232.096718 
L 267.267826 245.178139 
L 268.182609 229.247121 
L 269.097391 240.843294 
L 270.012174 263.183395 
L 270.926957 263.191354 
L 271.841739 262.633356 
L 272.756522 268.938597 
L 273.671304 262.508044 
L 274.586087 198.424734 
L 275.50087 156.809517 
L 276.415652 127.956778 
L 277.330435 130.468724 
L 278.245217 248.809093 
L 279.16 269.678371 
L 280.074783 274.642882 
L 280.989565 275.323636 
L 281.904348 263.397263 
L 282.81913 260.634567 
L 283.733913 259.884885 
L 284.648696 240.02014 
L 285.563478 235.851421 
L 286.478261 213.092775 
L 287.393043 215.746264 
L 288.307826 247.65813 
L 289.222609 244.391093 
L 290.137391 227.622875 
L 291.052174 203.47764 
L 291.966957 218.609998 
L 292.881739 230.852963 
L 293.796522 204.613027 
L 294.711304 202.02402 
L 295.626087 184.532106 
L 296.54087 192.846379 
L 297.455652 210.185461 
L 298.370435 206.574796 
L 299.285217 188.544596 
L 300.2 200.919904 
L 301.114783 220.585257 
L 302.029565 242.733404 
L 302.944348 238.377463 
L 303.85913 242.563685 
L 304.773913 244.106656 
L 305.688696 241.278133 
L 306.603478 256.048526 
L 307.518261 274.414336 
L 308.433043 266.61646 
L 309.347826 274.042305 
L 311.177391 265.343173 
L 312.092174 264.50352 
L 313.006957 258.915501 
L 313.921739 247.895169 
L 314.836522 274.512271 
L 315.751304 264.749822 
L 316.666087 251.612919 
L 317.58087 265.664667 
L 318.495652 259.257518 
L 319.410435 236.461939 
L 320.325217 230.581085 
L 321.24 236.910343 
L 322.154783 232.576325 
L 323.069565 222.519132 
L 323.984348 237.205104 
L 324.89913 243.408164 
L 325.813913 248.05621 
L 326.728696 260.385577 
L 327.643478 247.548742 
L 328.558261 261.334306 
L 329.473043 247.901435 
L 330.387826 236.757165 
L 331.302609 251.49226 
L 332.217391 269.973773 
L 333.132174 255.746521 
L 334.046957 238.979868 
L 334.961739 211.214686 
L 335.876522 230.046345 
L 336.791304 241.144773 
L 337.706087 236.15573 
L 338.62087 268.06878 
L 339.535652 273.938398 
L 340.450435 265.537199 
L 341.365217 236.711753 
L 343.194783 209.763286 
L 344.109565 206.294503 
L 345.024348 216.914026 
L 345.93913 210.88149 
L 346.853913 155.762252 
L 347.768696 272.044845 
L 348.683478 251.807787 
L 349.598261 259.022257 
L 350.513043 268.732362 
L 351.427826 261.677188 
L 352.342609 270.15299 
L 353.257391 257.97514 
L 354.172174 243.957126 
L 355.086957 250.992136 
L 356.001739 242.891169 
L 356.916522 216.488673 
L 357.831304 225.329816 
L 358.746087 177.030765 
L 359.66087 235.649316 
L 360.575652 227.271129 
L 361.490435 214.240088 
L 362.405217 227.904146 
L 364.234783 264.42468 
L 365.149565 271.45371 
L 366.064348 253.539257 
L 366.97913 260.22371 
L 367.893913 271.816162 
L 368.808696 259.093229 
L 369.723478 273.36488 
L 370.638261 270.793435 
L 371.553043 272.314259 
L 372.467826 272.457678 
L 373.382609 253.605269 
L 374.297391 262.841576 
L 375.212174 264.593442 
L 376.126957 273.404805 
L 377.041739 265.16847 
L 377.956522 245.304379 
L 378.871304 231.370806 
L 379.786087 199.516418 
L 380.70087 202.927275 
L 381.615652 220.902185 
L 382.530435 200.785056 
L 383.445217 222.60206 
L 384.36 185.413179 
L 385.274783 129.609119 
L 386.189565 212.5385 
L 387.104348 223.978977 
L 388.01913 253.82116 
L 388.933913 256.92653 
L 389.848696 261.464353 
L 390.763478 261.880037 
L 391.678261 262.091294 
L 392.593043 262.869711 
L 394.422609 247.282406 
L 395.337391 245.773199 
L 396.252174 246.206176 
L 397.166957 232.271598 
L 398.081739 245.20265 
L 398.996522 212.532347 
L 399.911304 209.591522 
L 400.826087 224.071174 
L 401.74087 204.453608 
L 402.655652 177.658719 
L 403.570435 187.675274 
L 404.485217 215.354966 
L 405.4 219.552454 
L 406.314783 229.664802 
L 407.229565 251.162866 
L 408.144348 267.341945 
L 409.05913 267.477302 
L 410.888696 256.85368 
L 411.803478 263.479095 
L 412.718261 271.703136 
L 413.633043 269.962678 
L 414.547826 270.240605 
L 415.462609 271.184806 
L 416.377391 269.429468 
L 417.292174 263.779205 
L 419.121739 230.991275 
L 420.036522 238.979951 
L 420.951304 236.046859 
L 421.866087 231.886407 
L 422.78087 161.533498 
L 423.695652 199.923026 
L 424.610435 189.406254 
L 425.525217 271.548707 
L 427.354783 271.080658 
L 428.269565 266.613089 
L 429.184348 271.583962 
L 430.09913 258.925573 
L 431.013913 262.8909 
L 431.928696 268.475447 
L 432.843478 267.056599 
L 433.758261 239.8765 
L 434.673043 235.562311 
L 435.587826 223.448573 
L 436.502609 198.610821 
L 437.417391 148.209146 
L 438.332174 126.710795 
L 439.246957 156.464145 
L 440.161739 119.618262 
L 441.076522 202.573056 
L 441.991304 230.560717 
L 442.906087 218.325831 
L 443.82087 180.107987 
L 444.735652 154.310879 
L 445.650435 165.938015 
L 446.565217 128.624006 
L 447.48 61.693173 
L 447.48 61.693173 
" style="fill:none;stroke:#666666;stroke-dasharray:1,1.65;stroke-dashoffset:0;"/>
    <defs>
     <path d="M 0 0.5 
C 0.132602 0.5 0.25979 0.447317 0.353553 0.353553 
C 0.447317 0.25979 0.5 0.132602 0.5 0 
C 0.5 -0.132602 0.447317 -0.25979 0.353553 -0.353553 
C 0.25979 -0.447317 0.132602 -0.5 0 -0.5 
C -0.132602 -0.5 -0.25979 -0.447317 -0.353553 -0.353553 
C -0.447317 -0.25979 -0.5 -0.132602 -0.5 0 
C -0.5 0.132602 -0.447317 0.25979 -0.353553 0.353553 
C -0.25979 0.447317 -0.132602 0.5 0 0.5 
z
" id="md59674cb92" style="stroke:#666666;"/>
    </defs>
    <g clip-path="url(#p45bce0efe9)">
     <use style="fill:#666666;stroke:#666666;" x="47.72" xlink:href="#md59674cb92" y="190.723421"/>
     <use style="fill:#666666;stroke:#666666;" x="48.634783" xlink:href="#md59674cb92" y="228.946734"/>
     <use style="fill:#666666;stroke:#666666;" x="49.549565" xlink:href="#md59674cb92" y="235.168822"/>
     <use style="fill:#666666;stroke:#666666;" x="50.464348" xlink:href="#md59674cb92" y="246.441858"/>
     <use style="fill:#666666;stroke:#666666;" x="51.37913" xlink:href="#md59674cb92" y="253.168507"/>
     <use style="fill:#666666;stroke:#666666;" x="52.293913" xlink:href="#md59674cb92" y="265.919027"/>
     <use style="fill:#666666;stroke:#666666;" x="53.208696" xlink:href="#md59674cb92" y="260.652855"/>
     <use style="fill:#666666;stroke:#666666;" x="54.123478" xlink:href="#md59674cb92" y="230.656914"/>
     <use style="fill:#666666;stroke:#666666;" x="55.038261" xlink:href="#md59674cb92" y="226.817534"/>
     <use style="fill:#666666;stroke:#666666;" x="55.953043" xlink:href="#md59674cb92" y="220.351163"/>
     <use style="fill:#666666;stroke:#666666;" x="56.867826" xlink:href="#md59674cb92" y="231.294431"/>
     <use style="fill:#666666;stroke:#666666;" x="57.782609" xlink:href="#md59674cb92" y="237.821372"/>
     <use style="fill:#666666;stroke:#666666;" x="58.697391" xlink:href="#md59674cb92" y="240.614898"/>
     <use style="fill:#666666;stroke:#666666;" x="59.612174" xlink:href="#md59674cb92" y="236.346111"/>
     <use style="fill:#666666;stroke:#666666;" x="60.526957" xlink:href="#md59674cb92" y="226.721334"/>
     <use style="fill:#666666;stroke:#666666;" x="61.441739" xlink:href="#md59674cb92" y="198.650788"/>
     <use style="fill:#666666;stroke:#666666;" x="62.356522" xlink:href="#md59674cb92" y="228.535577"/>
     <use style="fill:#666666;stroke:#666666;" x="63.271304" xlink:href="#md59674cb92" y="259.632008"/>
     <use style="fill:#666666;stroke:#666666;" x="64.186087" xlink:href="#md59674cb92" y="255.286332"/>
     <use style="fill:#666666;stroke:#666666;" x="65.10087" xlink:href="#md59674cb92" y="250.964449"/>
     <use style="fill:#666666;stroke:#666666;" x="66.015652" xlink:href="#md59674cb92" y="253.703271"/>
     <use style="fill:#666666;stroke:#666666;" x="66.930435" xlink:href="#md59674cb92" y="237.683299"/>
     <use style="fill:#666666;stroke:#666666;" x="67.845217" xlink:href="#md59674cb92" y="230.245556"/>
     <use style="fill:#666666;stroke:#666666;" x="68.76" xlink:href="#md59674cb92" y="223.348168"/>
     <use style="fill:#666666;stroke:#666666;" x="69.674783" xlink:href="#md59674cb92" y="241.700594"/>
     <use style="fill:#666666;stroke:#666666;" x="70.589565" xlink:href="#md59674cb92" y="253.373173"/>
     <use style="fill:#666666;stroke:#666666;" x="71.504348" xlink:href="#md59674cb92" y="269.782192"/>
     <use style="fill:#666666;stroke:#666666;" x="72.41913" xlink:href="#md59674cb92" y="268.618602"/>
     <use style="fill:#666666;stroke:#666666;" x="73.333913" xlink:href="#md59674cb92" y="248.111244"/>
     <use style="fill:#666666;stroke:#666666;" x="74.248696" xlink:href="#md59674cb92" y="235.176118"/>
     <use style="fill:#666666;stroke:#666666;" x="75.163478" xlink:href="#md59674cb92" y="226.137731"/>
     <use style="fill:#666666;stroke:#666666;" x="76.078261" xlink:href="#md59674cb92" y="220.453695"/>
     <use style="fill:#666666;stroke:#666666;" x="76.993043" xlink:href="#md59674cb92" y="221.725817"/>
     <use style="fill:#666666;stroke:#666666;" x="77.907826" xlink:href="#md59674cb92" y="227.702255"/>
     <use style="fill:#666666;stroke:#666666;" x="78.822609" xlink:href="#md59674cb92" y="219.620111"/>
     <use style="fill:#666666;stroke:#666666;" x="79.737391" xlink:href="#md59674cb92" y="229.588876"/>
     <use style="fill:#666666;stroke:#666666;" x="80.652174" xlink:href="#md59674cb92" y="251.998418"/>
     <use style="fill:#666666;stroke:#666666;" x="81.566957" xlink:href="#md59674cb92" y="254.615217"/>
     <use style="fill:#666666;stroke:#666666;" x="82.481739" xlink:href="#md59674cb92" y="254.024066"/>
     <use style="fill:#666666;stroke:#666666;" x="83.396522" xlink:href="#md59674cb92" y="265.606462"/>
     <use style="fill:#666666;stroke:#666666;" x="84.311304" xlink:href="#md59674cb92" y="267.20862"/>
     <use style="fill:#666666;stroke:#666666;" x="85.226087" xlink:href="#md59674cb92" y="251.403067"/>
     <use style="fill:#666666;stroke:#666666;" x="86.14087" xlink:href="#md59674cb92" y="223.417235"/>
     <use style="fill:#666666;stroke:#666666;" x="87.055652" xlink:href="#md59674cb92" y="177.766531"/>
     <use style="fill:#666666;stroke:#666666;" x="87.970435" xlink:href="#md59674cb92" y="172.075266"/>
     <use style="fill:#666666;stroke:#666666;" x="88.885217" xlink:href="#md59674cb92" y="184.321981"/>
     <use style="fill:#666666;stroke:#666666;" x="89.8" xlink:href="#md59674cb92" y="217.754246"/>
     <use style="fill:#666666;stroke:#666666;" x="90.714783" xlink:href="#md59674cb92" y="249.47809"/>
     <use style="fill:#666666;stroke:#666666;" x="91.629565" xlink:href="#md59674cb92" y="250.582069"/>
     <use style="fill:#666666;stroke:#666666;" x="92.544348" xlink:href="#md59674cb92" y="266.659729"/>
     <use style="fill:#666666;stroke:#666666;" x="93.45913" xlink:href="#md59674cb92" y="260.193693"/>
     <use style="fill:#666666;stroke:#666666;" x="94.373913" xlink:href="#md59674cb92" y="254.387048"/>
     <use style="fill:#666666;stroke:#666666;" x="95.288696" xlink:href="#md59674cb92" y="233.955939"/>
     <use style="fill:#666666;stroke:#666666;" x="96.203478" xlink:href="#md59674cb92" y="229.504292"/>
     <use style="fill:#666666;stroke:#666666;" x="97.118261" xlink:href="#md59674cb92" y="224.886246"/>
     <use style="fill:#666666;stroke:#666666;" x="98.033043" xlink:href="#md59674cb92" y="246.631938"/>
     <use style="fill:#666666;stroke:#666666;" x="98.947826" xlink:href="#md59674cb92" y="253.485394"/>
     <use style="fill:#666666;stroke:#666666;" x="99.862609" xlink:href="#md59674cb92" y="235.643614"/>
     <use style="fill:#666666;stroke:#666666;" x="100.777391" xlink:href="#md59674cb92" y="194.335695"/>
     <use style="fill:#666666;stroke:#666666;" x="101.692174" xlink:href="#md59674cb92" y="166.251356"/>
     <use style="fill:#666666;stroke:#666666;" x="102.606957" xlink:href="#md59674cb92" y="218.991103"/>
     <use style="fill:#666666;stroke:#666666;" x="103.521739" xlink:href="#md59674cb92" y="230.153786"/>
     <use style="fill:#666666;stroke:#666666;" x="104.436522" xlink:href="#md59674cb92" y="220.436522"/>
     <use style="fill:#666666;stroke:#666666;" x="105.351304" xlink:href="#md59674cb92" y="240.220285"/>
     <use style="fill:#666666;stroke:#666666;" x="106.266087" xlink:href="#md59674cb92" y="221.26819"/>
     <use style="fill:#666666;stroke:#666666;" x="107.18087" xlink:href="#md59674cb92" y="188.735646"/>
     <use style="fill:#666666;stroke:#666666;" x="108.095652" xlink:href="#md59674cb92" y="231.652489"/>
     <use style="fill:#666666;stroke:#666666;" x="109.010435" xlink:href="#md59674cb92" y="244.376955"/>
     <use style="fill:#666666;stroke:#666666;" x="109.925217" xlink:href="#md59674cb92" y="253.999733"/>
     <use style="fill:#666666;stroke:#666666;" x="110.84" xlink:href="#md59674cb92" y="237.392856"/>
     <use style="fill:#666666;stroke:#666666;" x="111.754783" xlink:href="#md59674cb92" y="135.910096"/>
     <use style="fill:#666666;stroke:#666666;" x="112.669565" xlink:href="#md59674cb92" y="215.170117"/>
     <use style="fill:#666666;stroke:#666666;" x="113.584348" xlink:href="#md59674cb92" y="167.908011"/>
     <use style="fill:#666666;stroke:#666666;" x="114.49913" xlink:href="#md59674cb92" y="219.657855"/>
     <use style="fill:#666666;stroke:#666666;" x="115.413913" xlink:href="#md59674cb92" y="239.278526"/>
     <use style="fill:#666666;stroke:#666666;" x="116.328696" xlink:href="#md59674cb92" y="240.331551"/>
     <use style="fill:#666666;stroke:#666666;" x="117.243478" xlink:href="#md59674cb92" y="238.225734"/>
     <use style="fill:#666666;stroke:#666666;" x="118.158261" xlink:href="#md59674cb92" y="247.89035"/>
     <use style="fill:#666666;stroke:#666666;" x="119.073043" xlink:href="#md59674cb92" y="241.555953"/>
     <use style="fill:#666666;stroke:#666666;" x="119.987826" xlink:href="#md59674cb92" y="245.993275"/>
     <use style="fill:#666666;stroke:#666666;" x="120.902609" xlink:href="#md59674cb92" y="255.512949"/>
     <use style="fill:#666666;stroke:#666666;" x="121.817391" xlink:href="#md59674cb92" y="226.430932"/>
     <use style="fill:#666666;stroke:#666666;" x="122.732174" xlink:href="#md59674cb92" y="201.562641"/>
     <use style="fill:#666666;stroke:#666666;" x="123.646957" xlink:href="#md59674cb92" y="168.841585"/>
     <use style="fill:#666666;stroke:#666666;" x="124.561739" xlink:href="#md59674cb92" y="165.219104"/>
     <use style="fill:#666666;stroke:#666666;" x="125.476522" xlink:href="#md59674cb92" y="154.084426"/>
     <use style="fill:#666666;stroke:#666666;" x="126.391304" xlink:href="#md59674cb92" y="157.54086"/>
     <use style="fill:#666666;stroke:#666666;" x="127.306087" xlink:href="#md59674cb92" y="192.826107"/>
     <use style="fill:#666666;stroke:#666666;" x="128.22087" xlink:href="#md59674cb92" y="223.495024"/>
     <use style="fill:#666666;stroke:#666666;" x="129.135652" xlink:href="#md59674cb92" y="256.710894"/>
     <use style="fill:#666666;stroke:#666666;" x="130.050435" xlink:href="#md59674cb92" y="267.099046"/>
     <use style="fill:#666666;stroke:#666666;" x="130.965217" xlink:href="#md59674cb92" y="267.836033"/>
     <use style="fill:#666666;stroke:#666666;" x="131.88" xlink:href="#md59674cb92" y="271.951085"/>
     <use style="fill:#666666;stroke:#666666;" x="132.794783" xlink:href="#md59674cb92" y="262.71862"/>
     <use style="fill:#666666;stroke:#666666;" x="133.709565" xlink:href="#md59674cb92" y="244.323339"/>
     <use style="fill:#666666;stroke:#666666;" x="134.624348" xlink:href="#md59674cb92" y="236.85044"/>
     <use style="fill:#666666;stroke:#666666;" x="135.53913" xlink:href="#md59674cb92" y="228.939474"/>
     <use style="fill:#666666;stroke:#666666;" x="136.453913" xlink:href="#md59674cb92" y="141.533059"/>
     <use style="fill:#666666;stroke:#666666;" x="137.368696" xlink:href="#md59674cb92" y="163.240226"/>
     <use style="fill:#666666;stroke:#666666;" x="138.283478" xlink:href="#md59674cb92" y="138.756002"/>
     <use style="fill:#666666;stroke:#666666;" x="139.198261" xlink:href="#md59674cb92" y="183.350899"/>
     <use style="fill:#666666;stroke:#666666;" x="140.113043" xlink:href="#md59674cb92" y="207.14208"/>
     <use style="fill:#666666;stroke:#666666;" x="141.027826" xlink:href="#md59674cb92" y="261.171332"/>
     <use style="fill:#666666;stroke:#666666;" x="141.942609" xlink:href="#md59674cb92" y="262.221551"/>
     <use style="fill:#666666;stroke:#666666;" x="142.857391" xlink:href="#md59674cb92" y="270.813356"/>
     <use style="fill:#666666;stroke:#666666;" x="143.772174" xlink:href="#md59674cb92" y="270.995488"/>
     <use style="fill:#666666;stroke:#666666;" x="144.686957" xlink:href="#md59674cb92" y="243.121835"/>
     <use style="fill:#666666;stroke:#666666;" x="145.601739" xlink:href="#md59674cb92" y="246.284656"/>
     <use style="fill:#666666;stroke:#666666;" x="146.516522" xlink:href="#md59674cb92" y="219.58024"/>
     <use style="fill:#666666;stroke:#666666;" x="147.431304" xlink:href="#md59674cb92" y="209.926878"/>
     <use style="fill:#666666;stroke:#666666;" x="148.346087" xlink:href="#md59674cb92" y="133.455102"/>
     <use style="fill:#666666;stroke:#666666;" x="149.26087" xlink:href="#md59674cb92" y="112.453582"/>
     <use style="fill:#666666;stroke:#666666;" x="150.175652" xlink:href="#md59674cb92" y="31.874934"/>
     <use style="fill:#666666;stroke:#666666;" x="151.090435" xlink:href="#md59674cb92" y="25.796364"/>
     <use style="fill:#666666;stroke:#666666;" x="152.005217" xlink:href="#md59674cb92" y="128.079757"/>
     <use style="fill:#666666;stroke:#666666;" x="152.92" xlink:href="#md59674cb92" y="201.506788"/>
     <use style="fill:#666666;stroke:#666666;" x="153.834783" xlink:href="#md59674cb92" y="209.29571"/>
     <use style="fill:#666666;stroke:#666666;" x="154.749565" xlink:href="#md59674cb92" y="243.675475"/>
     <use style="fill:#666666;stroke:#666666;" x="155.664348" xlink:href="#md59674cb92" y="261.770632"/>
     <use style="fill:#666666;stroke:#666666;" x="156.57913" xlink:href="#md59674cb92" y="264.238771"/>
     <use style="fill:#666666;stroke:#666666;" x="157.493913" xlink:href="#md59674cb92" y="262.251876"/>
     <use style="fill:#666666;stroke:#666666;" x="158.408696" xlink:href="#md59674cb92" y="239.283093"/>
     <use style="fill:#666666;stroke:#666666;" x="159.323478" xlink:href="#md59674cb92" y="236.002403"/>
     <use style="fill:#666666;stroke:#666666;" x="160.238261" xlink:href="#md59674cb92" y="229.390456"/>
     <use style="fill:#666666;stroke:#666666;" x="161.153043" xlink:href="#md59674cb92" y="218.654246"/>
     <use style="fill:#666666;stroke:#666666;" x="162.067826" xlink:href="#md59674cb92" y="200.203966"/>
     <use style="fill:#666666;stroke:#666666;" x="162.982609" xlink:href="#md59674cb92" y="138.639201"/>
     <use style="fill:#666666;stroke:#666666;" x="163.897391" xlink:href="#md59674cb92" y="99.047304"/>
     <use style="fill:#666666;stroke:#666666;" x="164.812174" xlink:href="#md59674cb92" y="138.449542"/>
     <use style="fill:#666666;stroke:#666666;" x="165.726957" xlink:href="#md59674cb92" y="197.500248"/>
     <use style="fill:#666666;stroke:#666666;" x="166.641739" xlink:href="#md59674cb92" y="242.814487"/>
     <use style="fill:#666666;stroke:#666666;" x="167.556522" xlink:href="#md59674cb92" y="234.985846"/>
     <use style="fill:#666666;stroke:#666666;" x="168.471304" xlink:href="#md59674cb92" y="225.674745"/>
     <use style="fill:#666666;stroke:#666666;" x="169.386087" xlink:href="#md59674cb92" y="169.10397"/>
     <use style="fill:#666666;stroke:#666666;" x="170.30087" xlink:href="#md59674cb92" y="132.120305"/>
     <use style="fill:#666666;stroke:#666666;" x="171.215652" xlink:href="#md59674cb92" y="121.722936"/>
     <use style="fill:#666666;stroke:#666666;" x="172.130435" xlink:href="#md59674cb92" y="194.091897"/>
     <use style="fill:#666666;stroke:#666666;" x="173.045217" xlink:href="#md59674cb92" y="220.115678"/>
     <use style="fill:#666666;stroke:#666666;" x="173.96" xlink:href="#md59674cb92" y="233.040417"/>
     <use style="fill:#666666;stroke:#666666;" x="174.874783" xlink:href="#md59674cb92" y="230.491842"/>
     <use style="fill:#666666;stroke:#666666;" x="175.789565" xlink:href="#md59674cb92" y="228.940327"/>
     <use style="fill:#666666;stroke:#666666;" x="176.704348" xlink:href="#md59674cb92" y="221.327791"/>
     <use style="fill:#666666;stroke:#666666;" x="177.61913" xlink:href="#md59674cb92" y="220.495241"/>
     <use style="fill:#666666;stroke:#666666;" x="178.533913" xlink:href="#md59674cb92" y="219.747349"/>
     <use style="fill:#666666;stroke:#666666;" x="179.448696" xlink:href="#md59674cb92" y="223.925112"/>
     <use style="fill:#666666;stroke:#666666;" x="180.363478" xlink:href="#md59674cb92" y="224.695749"/>
     <use style="fill:#666666;stroke:#666666;" x="181.278261" xlink:href="#md59674cb92" y="219.886068"/>
     <use style="fill:#666666;stroke:#666666;" x="182.193043" xlink:href="#md59674cb92" y="216.449666"/>
     <use style="fill:#666666;stroke:#666666;" x="183.107826" xlink:href="#md59674cb92" y="223.379063"/>
     <use style="fill:#666666;stroke:#666666;" x="184.022609" xlink:href="#md59674cb92" y="206.709201"/>
     <use style="fill:#666666;stroke:#666666;" x="184.937391" xlink:href="#md59674cb92" y="195.304847"/>
     <use style="fill:#666666;stroke:#666666;" x="185.852174" xlink:href="#md59674cb92" y="196.314"/>
     <use style="fill:#666666;stroke:#666666;" x="186.766957" xlink:href="#md59674cb92" y="169.122105"/>
     <use style="fill:#666666;stroke:#666666;" x="187.681739" xlink:href="#md59674cb92" y="173.394457"/>
     <use style="fill:#666666;stroke:#666666;" x="188.596522" xlink:href="#md59674cb92" y="156.813999"/>
     <use style="fill:#666666;stroke:#666666;" x="189.511304" xlink:href="#md59674cb92" y="203.70186"/>
     <use style="fill:#666666;stroke:#666666;" x="190.426087" xlink:href="#md59674cb92" y="201.207889"/>
     <use style="fill:#666666;stroke:#666666;" x="191.34087" xlink:href="#md59674cb92" y="172.307312"/>
     <use style="fill:#666666;stroke:#666666;" x="192.255652" xlink:href="#md59674cb92" y="182.318329"/>
     <use style="fill:#666666;stroke:#666666;" x="193.170435" xlink:href="#md59674cb92" y="226.108016"/>
     <use style="fill:#666666;stroke:#666666;" x="194.085217" xlink:href="#md59674cb92" y="215.200528"/>
     <use style="fill:#666666;stroke:#666666;" x="195" xlink:href="#md59674cb92" y="245.110495"/>
     <use style="fill:#666666;stroke:#666666;" x="195.914783" xlink:href="#md59674cb92" y="229.147645"/>
     <use style="fill:#666666;stroke:#666666;" x="196.829565" xlink:href="#md59674cb92" y="223.517331"/>
     <use style="fill:#666666;stroke:#666666;" x="197.744348" xlink:href="#md59674cb92" y="213.141953"/>
     <use style="fill:#666666;stroke:#666666;" x="198.65913" xlink:href="#md59674cb92" y="215.389429"/>
     <use style="fill:#666666;stroke:#666666;" x="199.573913" xlink:href="#md59674cb92" y="205.585739"/>
     <use style="fill:#666666;stroke:#666666;" x="200.488696" xlink:href="#md59674cb92" y="196.772361"/>
     <use style="fill:#666666;stroke:#666666;" x="201.403478" xlink:href="#md59674cb92" y="202.502536"/>
     <use style="fill:#666666;stroke:#666666;" x="202.318261" xlink:href="#md59674cb92" y="172.141456"/>
     <use style="fill:#666666;stroke:#666666;" x="203.233043" xlink:href="#md59674cb92" y="227.141544"/>
     <use style="fill:#666666;stroke:#666666;" x="204.147826" xlink:href="#md59674cb92" y="173.947725"/>
     <use style="fill:#666666;stroke:#666666;" x="205.062609" xlink:href="#md59674cb92" y="108.687263"/>
     <use style="fill:#666666;stroke:#666666;" x="205.977391" xlink:href="#md59674cb92" y="177.072713"/>
     <use style="fill:#666666;stroke:#666666;" x="206.892174" xlink:href="#md59674cb92" y="108.454688"/>
     <use style="fill:#666666;stroke:#666666;" x="207.806957" xlink:href="#md59674cb92" y="192.570054"/>
     <use style="fill:#666666;stroke:#666666;" x="208.721739" xlink:href="#md59674cb92" y="135.942248"/>
     <use style="fill:#666666;stroke:#666666;" x="209.636522" xlink:href="#md59674cb92" y="145.870633"/>
     <use style="fill:#666666;stroke:#666666;" x="210.551304" xlink:href="#md59674cb92" y="223.595053"/>
     <use style="fill:#666666;stroke:#666666;" x="211.466087" xlink:href="#md59674cb92" y="232.982517"/>
     <use style="fill:#666666;stroke:#666666;" x="212.38087" xlink:href="#md59674cb92" y="243.21566"/>
     <use style="fill:#666666;stroke:#666666;" x="213.295652" xlink:href="#md59674cb92" y="208.324505"/>
     <use style="fill:#666666;stroke:#666666;" x="214.210435" xlink:href="#md59674cb92" y="205.43104"/>
     <use style="fill:#666666;stroke:#666666;" x="215.125217" xlink:href="#md59674cb92" y="162.939439"/>
     <use style="fill:#666666;stroke:#666666;" x="216.04" xlink:href="#md59674cb92" y="202.437897"/>
     <use style="fill:#666666;stroke:#666666;" x="216.954783" xlink:href="#md59674cb92" y="234.433225"/>
     <use style="fill:#666666;stroke:#666666;" x="217.869565" xlink:href="#md59674cb92" y="247.521567"/>
     <use style="fill:#666666;stroke:#666666;" x="218.784348" xlink:href="#md59674cb92" y="215.649007"/>
     <use style="fill:#666666;stroke:#666666;" x="219.69913" xlink:href="#md59674cb92" y="213.543466"/>
     <use style="fill:#666666;stroke:#666666;" x="220.613913" xlink:href="#md59674cb92" y="232.252579"/>
     <use style="fill:#666666;stroke:#666666;" x="221.528696" xlink:href="#md59674cb92" y="249.471642"/>
     <use style="fill:#666666;stroke:#666666;" x="222.443478" xlink:href="#md59674cb92" y="235.666556"/>
     <use style="fill:#666666;stroke:#666666;" x="223.358261" xlink:href="#md59674cb92" y="210.208806"/>
     <use style="fill:#666666;stroke:#666666;" x="224.273043" xlink:href="#md59674cb92" y="207.060088"/>
     <use style="fill:#666666;stroke:#666666;" x="225.187826" xlink:href="#md59674cb92" y="167.213616"/>
     <use style="fill:#666666;stroke:#666666;" x="226.102609" xlink:href="#md59674cb92" y="170.592615"/>
     <use style="fill:#666666;stroke:#666666;" x="227.017391" xlink:href="#md59674cb92" y="202.519085"/>
     <use style="fill:#666666;stroke:#666666;" x="227.932174" xlink:href="#md59674cb92" y="200.89439"/>
     <use style="fill:#666666;stroke:#666666;" x="228.846957" xlink:href="#md59674cb92" y="252.536624"/>
     <use style="fill:#666666;stroke:#666666;" x="229.761739" xlink:href="#md59674cb92" y="268.813987"/>
     <use style="fill:#666666;stroke:#666666;" x="230.676522" xlink:href="#md59674cb92" y="264.56136"/>
     <use style="fill:#666666;stroke:#666666;" x="231.591304" xlink:href="#md59674cb92" y="269.389071"/>
     <use style="fill:#666666;stroke:#666666;" x="232.506087" xlink:href="#md59674cb92" y="255.647193"/>
     <use style="fill:#666666;stroke:#666666;" x="233.42087" xlink:href="#md59674cb92" y="262.986409"/>
     <use style="fill:#666666;stroke:#666666;" x="234.335652" xlink:href="#md59674cb92" y="258.869245"/>
     <use style="fill:#666666;stroke:#666666;" x="235.250435" xlink:href="#md59674cb92" y="233.509068"/>
     <use style="fill:#666666;stroke:#666666;" x="236.165217" xlink:href="#md59674cb92" y="203.990197"/>
     <use style="fill:#666666;stroke:#666666;" x="237.08" xlink:href="#md59674cb92" y="204.374411"/>
     <use style="fill:#666666;stroke:#666666;" x="237.994783" xlink:href="#md59674cb92" y="221.730448"/>
     <use style="fill:#666666;stroke:#666666;" x="238.909565" xlink:href="#md59674cb92" y="252.3302"/>
     <use style="fill:#666666;stroke:#666666;" x="239.824348" xlink:href="#md59674cb92" y="264.652654"/>
     <use style="fill:#666666;stroke:#666666;" x="240.73913" xlink:href="#md59674cb92" y="272.69516"/>
     <use style="fill:#666666;stroke:#666666;" x="241.653913" xlink:href="#md59674cb92" y="263.205398"/>
     <use style="fill:#666666;stroke:#666666;" x="242.568696" xlink:href="#md59674cb92" y="253.756796"/>
     <use style="fill:#666666;stroke:#666666;" x="243.483478" xlink:href="#md59674cb92" y="238.442316"/>
     <use style="fill:#666666;stroke:#666666;" x="244.398261" xlink:href="#md59674cb92" y="225.790099"/>
     <use style="fill:#666666;stroke:#666666;" x="245.313043" xlink:href="#md59674cb92" y="194.03174"/>
     <use style="fill:#666666;stroke:#666666;" x="246.227826" xlink:href="#md59674cb92" y="164.816888"/>
     <use style="fill:#666666;stroke:#666666;" x="247.142609" xlink:href="#md59674cb92" y="143.35013"/>
     <use style="fill:#666666;stroke:#666666;" x="248.057391" xlink:href="#md59674cb92" y="114.48921"/>
     <use style="fill:#666666;stroke:#666666;" x="248.972174" xlink:href="#md59674cb92" y="176.65635"/>
     <use style="fill:#666666;stroke:#666666;" x="249.886957" xlink:href="#md59674cb92" y="192.251643"/>
     <use style="fill:#666666;stroke:#666666;" x="250.801739" xlink:href="#md59674cb92" y="219.389666"/>
     <use style="fill:#666666;stroke:#666666;" x="251.716522" xlink:href="#md59674cb92" y="210.281472"/>
     <use style="fill:#666666;stroke:#666666;" x="252.631304" xlink:href="#md59674cb92" y="217.15104"/>
     <use style="fill:#666666;stroke:#666666;" x="253.546087" xlink:href="#md59674cb92" y="247.055946"/>
     <use style="fill:#666666;stroke:#666666;" x="254.46087" xlink:href="#md59674cb92" y="240.654336"/>
     <use style="fill:#666666;stroke:#666666;" x="255.375652" xlink:href="#md59674cb92" y="231.23426"/>
     <use style="fill:#666666;stroke:#666666;" x="256.290435" xlink:href="#md59674cb92" y="239.00189"/>
     <use style="fill:#666666;stroke:#666666;" x="257.205217" xlink:href="#md59674cb92" y="247.721207"/>
     <use style="fill:#666666;stroke:#666666;" x="258.12" xlink:href="#md59674cb92" y="247.653082"/>
     <use style="fill:#666666;stroke:#666666;" x="259.034783" xlink:href="#md59674cb92" y="241.792912"/>
     <use style="fill:#666666;stroke:#666666;" x="259.949565" xlink:href="#md59674cb92" y="233.898122"/>
     <use style="fill:#666666;stroke:#666666;" x="260.864348" xlink:href="#md59674cb92" y="248.83518"/>
     <use style="fill:#666666;stroke:#666666;" x="261.77913" xlink:href="#md59674cb92" y="242.05541"/>
     <use style="fill:#666666;stroke:#666666;" x="262.693913" xlink:href="#md59674cb92" y="233.85571"/>
     <use style="fill:#666666;stroke:#666666;" x="263.608696" xlink:href="#md59674cb92" y="197.372887"/>
     <use style="fill:#666666;stroke:#666666;" x="264.523478" xlink:href="#md59674cb92" y="220.305223"/>
     <use style="fill:#666666;stroke:#666666;" x="265.438261" xlink:href="#md59674cb92" y="232.096718"/>
     <use style="fill:#666666;stroke:#666666;" x="266.353043" xlink:href="#md59674cb92" y="238.656692"/>
     <use style="fill:#666666;stroke:#666666;" x="267.267826" xlink:href="#md59674cb92" y="245.178139"/>
     <use style="fill:#666666;stroke:#666666;" x="268.182609" xlink:href="#md59674cb92" y="229.247121"/>
     <use style="fill:#666666;stroke:#666666;" x="269.097391" xlink:href="#md59674cb92" y="240.843294"/>
     <use style="fill:#666666;stroke:#666666;" x="270.012174" xlink:href="#md59674cb92" y="263.183395"/>
     <use style="fill:#666666;stroke:#666666;" x="270.926957" xlink:href="#md59674cb92" y="263.191354"/>
     <use style="fill:#666666;stroke:#666666;" x="271.841739" xlink:href="#md59674cb92" y="262.633356"/>
     <use style="fill:#666666;stroke:#666666;" x="272.756522" xlink:href="#md59674cb92" y="268.938597"/>
     <use style="fill:#666666;stroke:#666666;" x="273.671304" xlink:href="#md59674cb92" y="262.508044"/>
     <use style="fill:#666666;stroke:#666666;" x="274.586087" xlink:href="#md59674cb92" y="198.424734"/>
     <use style="fill:#666666;stroke:#666666;" x="275.50087" xlink:href="#md59674cb92" y="156.809517"/>
     <use style="fill:#666666;stroke:#666666;" x="276.415652" xlink:href="#md59674cb92" y="127.956778"/>
     <use style="fill:#666666;stroke:#666666;" x="277.330435" xlink:href="#md59674cb92" y="130.468724"/>
     <use style="fill:#666666;stroke:#666666;" x="278.245217" xlink:href="#md59674cb92" y="248.809093"/>
     <use style="fill:#666666;stroke:#666666;" x="279.16" xlink:href="#md59674cb92" y="269.678371"/>
     <use style="fill:#666666;stroke:#666666;" x="280.074783" xlink:href="#md59674cb92" y="274.642882"/>
     <use style="fill:#666666;stroke:#666666;" x="280.989565" xlink:href="#md59674cb92" y="275.323636"/>
     <use style="fill:#666666;stroke:#666666;" x="281.904348" xlink:href="#md59674cb92" y="263.397263"/>
     <use style="fill:#666666;stroke:#666666;" x="282.81913" xlink:href="#md59674cb92" y="260.634567"/>
     <use style="fill:#666666;stroke:#666666;" x="283.733913" xlink:href="#md59674cb92" y="259.884885"/>
     <use style="fill:#666666;stroke:#666666;" x="284.648696" xlink:href="#md59674cb92" y="240.02014"/>
     <use style="fill:#666666;stroke:#666666;" x="285.563478" xlink:href="#md59674cb92" y="235.851421"/>
     <use style="fill:#666666;stroke:#666666;" x="286.478261" xlink:href="#md59674cb92" y="213.092775"/>
     <use style="fill:#666666;stroke:#666666;" x="287.393043" xlink:href="#md59674cb92" y="215.746264"/>
     <use style="fill:#666666;stroke:#666666;" x="288.307826" xlink:href="#md59674cb92" y="247.65813"/>
     <use style="fill:#666666;stroke:#666666;" x="289.222609" xlink:href="#md59674cb92" y="244.391093"/>
     <use style="fill:#666666;stroke:#666666;" x="290.137391" xlink:href="#md59674cb92" y="227.622875"/>
     <use style="fill:#666666;stroke:#666666;" x="291.052174" xlink:href="#md59674cb92" y="203.47764"/>
     <use style="fill:#666666;stroke:#666666;" x="291.966957" xlink:href="#md59674cb92" y="218.609998"/>
     <use style="fill:#666666;stroke:#666666;" x="292.881739" xlink:href="#md59674cb92" y="230.852963"/>
     <use style="fill:#666666;stroke:#666666;" x="293.796522" xlink:href="#md59674cb92" y="204.613027"/>
     <use style="fill:#666666;stroke:#666666;" x="294.711304" xlink:href="#md59674cb92" y="202.02402"/>
     <use style="fill:#666666;stroke:#666666;" x="295.626087" xlink:href="#md59674cb92" y="184.532106"/>
     <use style="fill:#666666;stroke:#666666;" x="296.54087" xlink:href="#md59674cb92" y="192.846379"/>
     <use style="fill:#666666;stroke:#666666;" x="297.455652" xlink:href="#md59674cb92" y="210.185461"/>
     <use style="fill:#666666;stroke:#666666;" x="298.370435" xlink:href="#md59674cb92" y="206.574796"/>
     <use style="fill:#666666;stroke:#666666;" x="299.285217" xlink:href="#md59674cb92" y="188.544596"/>
     <use style="fill:#666666;stroke:#666666;" x="300.2" xlink:href="#md59674cb92" y="200.919904"/>
     <use style="fill:#666666;stroke:#666666;" x="301.114783" xlink:href="#md59674cb92" y="220.585257"/>
     <use style="fill:#666666;stroke:#666666;" x="302.029565" xlink:href="#md59674cb92" y="242.733404"/>
     <use style="fill:#666666;stroke:#666666;" x="302.944348" xlink:href="#md59674cb92" y="238.377463"/>
     <use style="fill:#666666;stroke:#666666;" x="303.85913" xlink:href="#md59674cb92" y="242.563685"/>
     <use style="fill:#666666;stroke:#666666;" x="304.773913" xlink:href="#md59674cb92" y="244.106656"/>
     <use style="fill:#666666;stroke:#666666;" x="305.688696" xlink:href="#md59674cb92" y="241.278133"/>
     <use style="fill:#666666;stroke:#666666;" x="306.603478" xlink:href="#md59674cb92" y="256.048526"/>
     <use style="fill:#666666;stroke:#666666;" x="307.518261" xlink:href="#md59674cb92" y="274.414336"/>
     <use style="fill:#666666;stroke:#666666;" x="308.433043" xlink:href="#md59674cb92" y="266.61646"/>
     <use style="fill:#666666;stroke:#666666;" x="309.347826" xlink:href="#md59674cb92" y="274.042305"/>
     <use style="fill:#666666;stroke:#666666;" x="310.262609" xlink:href="#md59674cb92" y="269.602386"/>
     <use style="fill:#666666;stroke:#666666;" x="311.177391" xlink:href="#md59674cb92" y="265.343173"/>
     <use style="fill:#666666;stroke:#666666;" x="312.092174" xlink:href="#md59674cb92" y="264.50352"/>
     <use style="fill:#666666;stroke:#666666;" x="313.006957" xlink:href="#md59674cb92" y="258.915501"/>
     <use style="fill:#666666;stroke:#666666;" x="313.921739" xlink:href="#md59674cb92" y="247.895169"/>
     <use style="fill:#666666;stroke:#666666;" x="314.836522" xlink:href="#md59674cb92" y="274.512271"/>
     <use style="fill:#666666;stroke:#666666;" x="315.751304" xlink:href="#md59674cb92" y="264.749822"/>
     <use style="fill:#666666;stroke:#666666;" x="316.666087" xlink:href="#md59674cb92" y="251.612919"/>
     <use style="fill:#666666;stroke:#666666;" x="317.58087" xlink:href="#md59674cb92" y="265.664667"/>
     <use style="fill:#666666;stroke:#666666;" x="318.495652" xlink:href="#md59674cb92" y="259.257518"/>
     <use style="fill:#666666;stroke:#666666;" x="319.410435" xlink:href="#md59674cb92" y="236.461939"/>
     <use style="fill:#666666;stroke:#666666;" x="320.325217" xlink:href="#md59674cb92" y="230.581085"/>
     <use style="fill:#666666;stroke:#666666;" x="321.24" xlink:href="#md59674cb92" y="236.910343"/>
     <use style="fill:#666666;stroke:#666666;" x="322.154783" xlink:href="#md59674cb92" y="232.576325"/>
     <use style="fill:#666666;stroke:#666666;" x="323.069565" xlink:href="#md59674cb92" y="222.519132"/>
     <use style="fill:#666666;stroke:#666666;" x="323.984348" xlink:href="#md59674cb92" y="237.205104"/>
     <use style="fill:#666666;stroke:#666666;" x="324.89913" xlink:href="#md59674cb92" y="243.408164"/>
     <use style="fill:#666666;stroke:#666666;" x="325.813913" xlink:href="#md59674cb92" y="248.05621"/>
     <use style="fill:#666666;stroke:#666666;" x="326.728696" xlink:href="#md59674cb92" y="260.385577"/>
     <use style="fill:#666666;stroke:#666666;" x="327.643478" xlink:href="#md59674cb92" y="247.548742"/>
     <use style="fill:#666666;stroke:#666666;" x="328.558261" xlink:href="#md59674cb92" y="261.334306"/>
     <use style="fill:#666666;stroke:#666666;" x="329.473043" xlink:href="#md59674cb92" y="247.901435"/>
     <use style="fill:#666666;stroke:#666666;" x="330.387826" xlink:href="#md59674cb92" y="236.757165"/>
     <use style="fill:#666666;stroke:#666666;" x="331.302609" xlink:href="#md59674cb92" y="251.49226"/>
     <use style="fill:#666666;stroke:#666666;" x="332.217391" xlink:href="#md59674cb92" y="269.973773"/>
     <use style="fill:#666666;stroke:#666666;" x="333.132174" xlink:href="#md59674cb92" y="255.746521"/>
     <use style="fill:#666666;stroke:#666666;" x="334.046957" xlink:href="#md59674cb92" y="238.979868"/>
     <use style="fill:#666666;stroke:#666666;" x="334.961739" xlink:href="#md59674cb92" y="211.214686"/>
     <use style="fill:#666666;stroke:#666666;" x="335.876522" xlink:href="#md59674cb92" y="230.046345"/>
     <use style="fill:#666666;stroke:#666666;" x="336.791304" xlink:href="#md59674cb92" y="241.144773"/>
     <use style="fill:#666666;stroke:#666666;" x="337.706087" xlink:href="#md59674cb92" y="236.15573"/>
     <use style="fill:#666666;stroke:#666666;" x="338.62087" xlink:href="#md59674cb92" y="268.06878"/>
     <use style="fill:#666666;stroke:#666666;" x="339.535652" xlink:href="#md59674cb92" y="273.938398"/>
     <use style="fill:#666666;stroke:#666666;" x="340.450435" xlink:href="#md59674cb92" y="265.537199"/>
     <use style="fill:#666666;stroke:#666666;" x="341.365217" xlink:href="#md59674cb92" y="236.711753"/>
     <use style="fill:#666666;stroke:#666666;" x="342.28" xlink:href="#md59674cb92" y="222.884349"/>
     <use style="fill:#666666;stroke:#666666;" x="343.194783" xlink:href="#md59674cb92" y="209.763286"/>
     <use style="fill:#666666;stroke:#666666;" x="344.109565" xlink:href="#md59674cb92" y="206.294503"/>
     <use style="fill:#666666;stroke:#666666;" x="345.024348" xlink:href="#md59674cb92" y="216.914026"/>
     <use style="fill:#666666;stroke:#666666;" x="345.93913" xlink:href="#md59674cb92" y="210.88149"/>
     <use style="fill:#666666;stroke:#666666;" x="346.853913" xlink:href="#md59674cb92" y="155.762252"/>
     <use style="fill:#666666;stroke:#666666;" x="347.768696" xlink:href="#md59674cb92" y="272.044845"/>
     <use style="fill:#666666;stroke:#666666;" x="348.683478" xlink:href="#md59674cb92" y="251.807787"/>
     <use style="fill:#666666;stroke:#666666;" x="349.598261" xlink:href="#md59674cb92" y="259.022257"/>
     <use style="fill:#666666;stroke:#666666;" x="350.513043" xlink:href="#md59674cb92" y="268.732362"/>
     <use style="fill:#666666;stroke:#666666;" x="351.427826" xlink:href="#md59674cb92" y="261.677188"/>
     <use style="fill:#666666;stroke:#666666;" x="352.342609" xlink:href="#md59674cb92" y="270.15299"/>
     <use style="fill:#666666;stroke:#666666;" x="353.257391" xlink:href="#md59674cb92" y="257.97514"/>
     <use style="fill:#666666;stroke:#666666;" x="354.172174" xlink:href="#md59674cb92" y="243.957126"/>
     <use style="fill:#666666;stroke:#666666;" x="355.086957" xlink:href="#md59674cb92" y="250.992136"/>
     <use style="fill:#666666;stroke:#666666;" x="356.001739" xlink:href="#md59674cb92" y="242.891169"/>
     <use style="fill:#666666;stroke:#666666;" x="356.916522" xlink:href="#md59674cb92" y="216.488673"/>
     <use style="fill:#666666;stroke:#666666;" x="357.831304" xlink:href="#md59674cb92" y="225.329816"/>
     <use style="fill:#666666;stroke:#666666;" x="358.746087" xlink:href="#md59674cb92" y="177.030765"/>
     <use style="fill:#666666;stroke:#666666;" x="359.66087" xlink:href="#md59674cb92" y="235.649316"/>
     <use style="fill:#666666;stroke:#666666;" x="360.575652" xlink:href="#md59674cb92" y="227.271129"/>
     <use style="fill:#666666;stroke:#666666;" x="361.490435" xlink:href="#md59674cb92" y="214.240088"/>
     <use style="fill:#666666;stroke:#666666;" x="362.405217" xlink:href="#md59674cb92" y="227.904146"/>
     <use style="fill:#666666;stroke:#666666;" x="363.32" xlink:href="#md59674cb92" y="245.702219"/>
     <use style="fill:#666666;stroke:#666666;" x="364.234783" xlink:href="#md59674cb92" y="264.42468"/>
     <use style="fill:#666666;stroke:#666666;" x="365.149565" xlink:href="#md59674cb92" y="271.45371"/>
     <use style="fill:#666666;stroke:#666666;" x="366.064348" xlink:href="#md59674cb92" y="253.539257"/>
     <use style="fill:#666666;stroke:#666666;" x="366.97913" xlink:href="#md59674cb92" y="260.22371"/>
     <use style="fill:#666666;stroke:#666666;" x="367.893913" xlink:href="#md59674cb92" y="271.816162"/>
     <use style="fill:#666666;stroke:#666666;" x="368.808696" xlink:href="#md59674cb92" y="259.093229"/>
     <use style="fill:#666666;stroke:#666666;" x="369.723478" xlink:href="#md59674cb92" y="273.36488"/>
     <use style="fill:#666666;stroke:#666666;" x="370.638261" xlink:href="#md59674cb92" y="270.793435"/>
     <use style="fill:#666666;stroke:#666666;" x="371.553043" xlink:href="#md59674cb92" y="272.314259"/>
     <use style="fill:#666666;stroke:#666666;" x="372.467826" xlink:href="#md59674cb92" y="272.457678"/>
     <use style="fill:#666666;stroke:#666666;" x="373.382609" xlink:href="#md59674cb92" y="253.605269"/>
     <use style="fill:#666666;stroke:#666666;" x="374.297391" xlink:href="#md59674cb92" y="262.841576"/>
     <use style="fill:#666666;stroke:#666666;" x="375.212174" xlink:href="#md59674cb92" y="264.593442"/>
     <use style="fill:#666666;stroke:#666666;" x="376.126957" xlink:href="#md59674cb92" y="273.404805"/>
     <use style="fill:#666666;stroke:#666666;" x="377.041739" xlink:href="#md59674cb92" y="265.16847"/>
     <use style="fill:#666666;stroke:#666666;" x="377.956522" xlink:href="#md59674cb92" y="245.304379"/>
     <use style="fill:#666666;stroke:#666666;" x="378.871304" xlink:href="#md59674cb92" y="231.370806"/>
     <use style="fill:#666666;stroke:#666666;" x="379.786087" xlink:href="#md59674cb92" y="199.516418"/>
     <use style="fill:#666666;stroke:#666666;" x="380.70087" xlink:href="#md59674cb92" y="202.927275"/>
     <use style="fill:#666666;stroke:#666666;" x="381.615652" xlink:href="#md59674cb92" y="220.902185"/>
     <use style="fill:#666666;stroke:#666666;" x="382.530435" xlink:href="#md59674cb92" y="200.785056"/>
     <use style="fill:#666666;stroke:#666666;" x="383.445217" xlink:href="#md59674cb92" y="222.60206"/>
     <use style="fill:#666666;stroke:#666666;" x="384.36" xlink:href="#md59674cb92" y="185.413179"/>
     <use style="fill:#666666;stroke:#666666;" x="385.274783" xlink:href="#md59674cb92" y="129.609119"/>
     <use style="fill:#666666;stroke:#666666;" x="386.189565" xlink:href="#md59674cb92" y="212.5385"/>
     <use style="fill:#666666;stroke:#666666;" x="387.104348" xlink:href="#md59674cb92" y="223.978977"/>
     <use style="fill:#666666;stroke:#666666;" x="388.01913" xlink:href="#md59674cb92" y="253.82116"/>
     <use style="fill:#666666;stroke:#666666;" x="388.933913" xlink:href="#md59674cb92" y="256.92653"/>
     <use style="fill:#666666;stroke:#666666;" x="389.848696" xlink:href="#md59674cb92" y="261.464353"/>
     <use style="fill:#666666;stroke:#666666;" x="390.763478" xlink:href="#md59674cb92" y="261.880037"/>
     <use style="fill:#666666;stroke:#666666;" x="391.678261" xlink:href="#md59674cb92" y="262.091294"/>
     <use style="fill:#666666;stroke:#666666;" x="392.593043" xlink:href="#md59674cb92" y="262.869711"/>
     <use style="fill:#666666;stroke:#666666;" x="393.507826" xlink:href="#md59674cb92" y="254.927037"/>
     <use style="fill:#666666;stroke:#666666;" x="394.422609" xlink:href="#md59674cb92" y="247.282406"/>
     <use style="fill:#666666;stroke:#666666;" x="395.337391" xlink:href="#md59674cb92" y="245.773199"/>
     <use style="fill:#666666;stroke:#666666;" x="396.252174" xlink:href="#md59674cb92" y="246.206176"/>
     <use style="fill:#666666;stroke:#666666;" x="397.166957" xlink:href="#md59674cb92" y="232.271598"/>
     <use style="fill:#666666;stroke:#666666;" x="398.081739" xlink:href="#md59674cb92" y="245.20265"/>
     <use style="fill:#666666;stroke:#666666;" x="398.996522" xlink:href="#md59674cb92" y="212.532347"/>
     <use style="fill:#666666;stroke:#666666;" x="399.911304" xlink:href="#md59674cb92" y="209.591522"/>
     <use style="fill:#666666;stroke:#666666;" x="400.826087" xlink:href="#md59674cb92" y="224.071174"/>
     <use style="fill:#666666;stroke:#666666;" x="401.74087" xlink:href="#md59674cb92" y="204.453608"/>
     <use style="fill:#666666;stroke:#666666;" x="402.655652" xlink:href="#md59674cb92" y="177.658719"/>
     <use style="fill:#666666;stroke:#666666;" x="403.570435" xlink:href="#md59674cb92" y="187.675274"/>
     <use style="fill:#666666;stroke:#666666;" x="404.485217" xlink:href="#md59674cb92" y="215.354966"/>
     <use style="fill:#666666;stroke:#666666;" x="405.4" xlink:href="#md59674cb92" y="219.552454"/>
     <use style="fill:#666666;stroke:#666666;" x="406.314783" xlink:href="#md59674cb92" y="229.664802"/>
     <use style="fill:#666666;stroke:#666666;" x="407.229565" xlink:href="#md59674cb92" y="251.162866"/>
     <use style="fill:#666666;stroke:#666666;" x="408.144348" xlink:href="#md59674cb92" y="267.341945"/>
     <use style="fill:#666666;stroke:#666666;" x="409.05913" xlink:href="#md59674cb92" y="267.477302"/>
     <use style="fill:#666666;stroke:#666666;" x="409.973913" xlink:href="#md59674cb92" y="262.110622"/>
     <use style="fill:#666666;stroke:#666666;" x="410.888696" xlink:href="#md59674cb92" y="256.85368"/>
     <use style="fill:#666666;stroke:#666666;" x="411.803478" xlink:href="#md59674cb92" y="263.479095"/>
     <use style="fill:#666666;stroke:#666666;" x="412.718261" xlink:href="#md59674cb92" y="271.703136"/>
     <use style="fill:#666666;stroke:#666666;" x="413.633043" xlink:href="#md59674cb92" y="269.962678"/>
     <use style="fill:#666666;stroke:#666666;" x="414.547826" xlink:href="#md59674cb92" y="270.240605"/>
     <use style="fill:#666666;stroke:#666666;" x="415.462609" xlink:href="#md59674cb92" y="271.184806"/>
     <use style="fill:#666666;stroke:#666666;" x="416.377391" xlink:href="#md59674cb92" y="269.429468"/>
     <use style="fill:#666666;stroke:#666666;" x="417.292174" xlink:href="#md59674cb92" y="263.779205"/>
     <use style="fill:#666666;stroke:#666666;" x="418.206957" xlink:href="#md59674cb92" y="246.770629"/>
     <use style="fill:#666666;stroke:#666666;" x="419.121739" xlink:href="#md59674cb92" y="230.991275"/>
     <use style="fill:#666666;stroke:#666666;" x="420.036522" xlink:href="#md59674cb92" y="238.979951"/>
     <use style="fill:#666666;stroke:#666666;" x="420.951304" xlink:href="#md59674cb92" y="236.046859"/>
     <use style="fill:#666666;stroke:#666666;" x="421.866087" xlink:href="#md59674cb92" y="231.886407"/>
     <use style="fill:#666666;stroke:#666666;" x="422.78087" xlink:href="#md59674cb92" y="161.533498"/>
     <use style="fill:#666666;stroke:#666666;" x="423.695652" xlink:href="#md59674cb92" y="199.923026"/>
     <use style="fill:#666666;stroke:#666666;" x="424.610435" xlink:href="#md59674cb92" y="189.406254"/>
     <use style="fill:#666666;stroke:#666666;" x="425.525217" xlink:href="#md59674cb92" y="271.548707"/>
     <use style="fill:#666666;stroke:#666666;" x="426.44" xlink:href="#md59674cb92" y="271.2992"/>
     <use style="fill:#666666;stroke:#666666;" x="427.354783" xlink:href="#md59674cb92" y="271.080658"/>
     <use style="fill:#666666;stroke:#666666;" x="428.269565" xlink:href="#md59674cb92" y="266.613089"/>
     <use style="fill:#666666;stroke:#666666;" x="429.184348" xlink:href="#md59674cb92" y="271.583962"/>
     <use style="fill:#666666;stroke:#666666;" x="430.09913" xlink:href="#md59674cb92" y="258.925573"/>
     <use style="fill:#666666;stroke:#666666;" x="431.013913" xlink:href="#md59674cb92" y="262.8909"/>
     <use style="fill:#666666;stroke:#666666;" x="431.928696" xlink:href="#md59674cb92" y="268.475447"/>
     <use style="fill:#666666;stroke:#666666;" x="432.843478" xlink:href="#md59674cb92" y="267.056599"/>
     <use style="fill:#666666;stroke:#666666;" x="433.758261" xlink:href="#md59674cb92" y="239.8765"/>
     <use style="fill:#666666;stroke:#666666;" x="434.673043" xlink:href="#md59674cb92" y="235.562311"/>
     <use style="fill:#666666;stroke:#666666;" x="435.587826" xlink:href="#md59674cb92" y="223.448573"/>
     <use style="fill:#666666;stroke:#666666;" x="436.502609" xlink:href="#md59674cb92" y="198.610821"/>
     <use style="fill:#666666;stroke:#666666;" x="437.417391" xlink:href="#md59674cb92" y="148.209146"/>
     <use style="fill:#666666;stroke:#666666;" x="438.332174" xlink:href="#md59674cb92" y="126.710795"/>
     <use style="fill:#666666;stroke:#666666;" x="439.246957" xlink:href="#md59674cb92" y="156.464145"/>
     <use style="fill:#666666;stroke:#666666;" x="440.161739" xlink:href="#md59674cb92" y="119.618262"/>
     <use style="fill:#666666;stroke:#666666;" x="441.076522" xlink:href="#md59674cb92" y="202.573056"/>
     <use style="fill:#666666;stroke:#666666;" x="441.991304" xlink:href="#md59674cb92" y="230.560717"/>
     <use style="fill:#666666;stroke:#666666;" x="442.906087" xlink:href="#md59674cb92" y="218.325831"/>
     <use style="fill:#666666;stroke:#666666;" x="443.82087" xlink:href="#md59674cb92" y="180.107987"/>
     <use style="fill:#666666;stroke:#666666;" x="444.735652" xlink:href="#md59674cb92" y="154.310879"/>
     <use style="fill:#666666;stroke:#666666;" x="445.650435" xlink:href="#md59674cb92" y="165.938015"/>
     <use style="fill:#666666;stroke:#666666;" x="446.565217" xlink:href="#md59674cb92" y="128.624006"/>
     <use style="fill:#666666;stroke:#666666;" x="447.48" xlink:href="#md59674cb92" y="61.693173"/>
    </g>
   </g>
   <g id="patch_3">
    <path d="M 47.72 287.8 
L 47.72 13.32 
" style="fill:none;stroke:#000000;stroke-linecap:square;stroke-linejoin:miter;stroke-width:0.8;"/>
   </g>
   <g id="patch_4">
    <path d="M 447.48 287.8 
L 447.48 13.32 
" style="fill:none;stroke:#000000;stroke-linecap:square;stroke-linejoin:miter;stroke-width:0.8;"/>
   </g>
   <g id="patch_5">
    <path d="M 47.72 287.8 
L 447.48 287.8 
" style="fill:none;stroke:#000000;stroke-linecap:square;stroke-linejoin:miter;stroke-width:0.8;"/>
   </g>
   <g id="patch_6">
    <path d="M 47.72 13.32 
L 447.48 13.32 
" style="fill:none;stroke:#000000;stroke-linecap:square;stroke-linejoin:miter;stroke-width:0.8;"/>
   </g>
  </g>
 </g>
 <defs>
  <clipPath id="p45bce0efe9">
   <rect height="274.48" width="399.76" x="47.72" y="13.32"/>
  </clipPath>
 </defs>
</svg>
