<?xml version="1.0" encoding="utf-8" standalone="no"?>
<!DOCTYPE svg PUBLIC "-//W3C//DTD SVG 1.1//EN"
  "http://www.w3.org/Graphics/SVG/1.1/DTD/svg11.dtd">
<!-- Created with matplotlib (http://matplotlib.org/) -->
<svg height="345.6pt" version="1.1" viewBox="0 0 460.8 345.6" width="460.8pt" xmlns="http://www.w3.org/2000/svg" xmlns:xlink="http://www.w3.org/1999/xlink">
 <defs>
  <style type="text/css">
*{stroke-linecap:butt;stroke-linejoin:round;}
  </style>
 </defs>
 <g id="figure_1">
  <g id="patch_1">
   <path d="M 0 345.6 
L 460.8 345.6 
L 460.8 0 
L 0 0 
z
" style="fill:#ffffff;"/>
  </g>
  <g id="axes_1">
   <g id="patch_2">
    <path d="M 57.6 307.584 
L 414.72 307.584 
L 414.72 41.472 
L 57.6 41.472 
z
" style="fill:#ffffff;"/>
   </g>
   <g id="matplotlib.axis_1">
    <g id="xtick_1">
     <g id="line2d_1">
      <defs>
       <path d="M 0 0 
L 0 3.5 
" id="m33636ca484" style="stroke:#000000;stroke-width:0.8;"/>
      </defs>
      <g>
       <use style="stroke:#000000;stroke-width:0.8;" x="73.832727" xlink:href="#m33636ca484" y="307.584"/>
      </g>
     </g>
     <g id="text_1">
      <!-- 0 -->
      <defs>
       <path d="M 31.78125 66.40625 
Q 24.171875 66.40625 20.328125 58.90625 
Q 16.5 51.421875 16.5 36.375 
Q 16.5 21.390625 20.328125 13.890625 
Q 24.171875 6.390625 31.78125 6.390625 
Q 39.453125 6.390625 43.28125 13.890625 
Q 47.125 21.390625 47.125 36.375 
Q 47.125 51.421875 43.28125 58.90625 
Q 39.453125 66.40625 31.78125 66.40625 
z
M 31.78125 74.21875 
Q 44.046875 74.21875 50.515625 64.515625 
Q 56.984375 54.828125 56.984375 36.375 
Q 56.984375 17.96875 50.515625 8.265625 
Q 44.046875 -1.421875 31.78125 -1.421875 
Q 19.53125 -1.421875 13.0625 8.265625 
Q 6.59375 17.96875 6.59375 36.375 
Q 6.59375 54.828125 13.0625 64.515625 
Q 19.53125 74.21875 31.78125 74.21875 
z
" id="DejaVuSans-30"/>
      </defs>
      <g transform="translate(70.651477 322.182437)scale(0.1 -0.1)">
       <use xlink:href="#DejaVuSans-30"/>
      </g>
     </g>
    </g>
    <g id="xtick_2">
     <g id="line2d_2">
      <g>
       <use style="stroke:#000000;stroke-width:0.8;" x="128.122785" xlink:href="#m33636ca484" y="307.584"/>
      </g>
     </g>
     <g id="text_2">
      <!-- 50 -->
      <defs>
       <path d="M 10.796875 72.90625 
L 49.515625 72.90625 
L 49.515625 64.59375 
L 19.828125 64.59375 
L 19.828125 46.734375 
Q 21.96875 47.46875 24.109375 47.828125 
Q 26.265625 48.1875 28.421875 48.1875 
Q 40.625 48.1875 47.75 41.5 
Q 54.890625 34.8125 54.890625 23.390625 
Q 54.890625 11.625 47.5625 5.09375 
Q 40.234375 -1.421875 26.90625 -1.421875 
Q 22.3125 -1.421875 17.546875 -0.640625 
Q 12.796875 0.140625 7.71875 1.703125 
L 7.71875 11.625 
Q 12.109375 9.234375 16.796875 8.0625 
Q 21.484375 6.890625 26.703125 6.890625 
Q 35.15625 6.890625 40.078125 11.328125 
Q 45.015625 15.765625 45.015625 23.390625 
Q 45.015625 31 40.078125 35.4375 
Q 35.15625 39.890625 26.703125 39.890625 
Q 22.75 39.890625 18.8125 39.015625 
Q 14.890625 38.140625 10.796875 36.28125 
z
" id="DejaVuSans-35"/>
      </defs>
      <g transform="translate(121.760285 322.182437)scale(0.1 -0.1)">
       <use xlink:href="#DejaVuSans-35"/>
       <use x="63.623047" xlink:href="#DejaVuSans-30"/>
      </g>
     </g>
    </g>
    <g id="xtick_3">
     <g id="line2d_3">
      <g>
       <use style="stroke:#000000;stroke-width:0.8;" x="182.412843" xlink:href="#m33636ca484" y="307.584"/>
      </g>
     </g>
     <g id="text_3">
      <!-- 100 -->
      <defs>
       <path d="M 12.40625 8.296875 
L 28.515625 8.296875 
L 28.515625 63.921875 
L 10.984375 60.40625 
L 10.984375 69.390625 
L 28.421875 72.90625 
L 38.28125 72.90625 
L 38.28125 8.296875 
L 54.390625 8.296875 
L 54.390625 0 
L 12.40625 0 
z
" id="DejaVuSans-31"/>
      </defs>
      <g transform="translate(172.869093 322.182437)scale(0.1 -0.1)">
       <use xlink:href="#DejaVuSans-31"/>
       <use x="63.623047" xlink:href="#DejaVuSans-30"/>
       <use x="127.246094" xlink:href="#DejaVuSans-30"/>
      </g>
     </g>
    </g>
    <g id="xtick_4">
     <g id="line2d_4">
      <g>
       <use style="stroke:#000000;stroke-width:0.8;" x="236.702901" xlink:href="#m33636ca484" y="307.584"/>
      </g>
     </g>
     <g id="text_4">
      <!-- 150 -->
      <g transform="translate(227.159151 322.182437)scale(0.1 -0.1)">
       <use xlink:href="#DejaVuSans-31"/>
       <use x="63.623047" xlink:href="#DejaVuSans-35"/>
       <use x="127.246094" xlink:href="#DejaVuSans-30"/>
      </g>
     </g>
    </g>
    <g id="xtick_5">
     <g id="line2d_5">
      <g>
       <use style="stroke:#000000;stroke-width:0.8;" x="290.992958" xlink:href="#m33636ca484" y="307.584"/>
      </g>
     </g>
     <g id="text_5">
      <!-- 200 -->
      <defs>
       <path d="M 19.1875 8.296875 
L 53.609375 8.296875 
L 53.609375 0 
L 7.328125 0 
L 7.328125 8.296875 
Q 12.9375 14.109375 22.625 23.890625 
Q 32.328125 33.6875 34.8125 36.53125 
Q 39.546875 41.84375 41.421875 45.53125 
Q 43.3125 49.21875 43.3125 52.78125 
Q 43.3125 58.59375 39.234375 62.25 
Q 35.15625 65.921875 28.609375 65.921875 
Q 23.96875 65.921875 18.8125 64.3125 
Q 13.671875 62.703125 7.8125 59.421875 
L 7.8125 69.390625 
Q 13.765625 71.78125 18.9375 73 
Q 24.125 74.21875 28.421875 74.21875 
Q 39.75 74.21875 46.484375 68.546875 
Q 53.21875 62.890625 53.21875 53.421875 
Q 53.21875 48.921875 51.53125 44.890625 
Q 49.859375 40.875 45.40625 35.40625 
Q 44.1875 33.984375 37.640625 27.21875 
Q 31.109375 20.453125 19.1875 8.296875 
z
" id="DejaVuSans-32"/>
      </defs>
      <g transform="translate(281.449208 322.182437)scale(0.1 -0.1)">
       <use xlink:href="#DejaVuSans-32"/>
       <use x="63.623047" xlink:href="#DejaVuSans-30"/>
       <use x="127.246094" xlink:href="#DejaVuSans-30"/>
      </g>
     </g>
    </g>
    <g id="xtick_6">
     <g id="line2d_6">
      <g>
       <use style="stroke:#000000;stroke-width:0.8;" x="345.283016" xlink:href="#m33636ca484" y="307.584"/>
      </g>
     </g>
     <g id="text_6">
      <!-- 250 -->
      <g transform="translate(335.739266 322.182437)scale(0.1 -0.1)">
       <use xlink:href="#DejaVuSans-32"/>
       <use x="63.623047" xlink:href="#DejaVuSans-35"/>
       <use x="127.246094" xlink:href="#DejaVuSans-30"/>
      </g>
     </g>
    </g>
    <g id="xtick_7">
     <g id="line2d_7">
      <g>
       <use style="stroke:#000000;stroke-width:0.8;" x="399.573074" xlink:href="#m33636ca484" y="307.584"/>
      </g>
     </g>
    </g>
    <g id="text_7">
     <!-- Frame index -->
     <defs>
      <path d="M 9.8125 72.90625 
L 51.703125 72.90625 
L 51.703125 64.59375 
L 19.671875 64.59375 
L 19.671875 43.109375 
L 48.578125 43.109375 
L 48.578125 34.8125 
L 19.671875 34.8125 
L 19.671875 0 
L 9.8125 0 
z
" id="DejaVuSans-46"/>
      <path d="M 41.109375 46.296875 
Q 39.59375 47.171875 37.8125 47.578125 
Q 36.03125 48 33.890625 48 
Q 26.265625 48 22.1875 43.046875 
Q 18.109375 38.09375 18.109375 28.8125 
L 18.109375 0 
L 9.078125 0 
L 9.078125 54.6875 
L 18.109375 54.6875 
L 18.109375 46.1875 
Q 20.953125 51.171875 25.484375 53.578125 
Q 30.03125 56 36.53125 56 
Q 37.453125 56 38.578125 55.875 
Q 39.703125 55.765625 41.0625 55.515625 
z
" id="DejaVuSans-72"/>
      <path d="M 34.28125 27.484375 
Q 23.390625 27.484375 19.1875 25 
Q 14.984375 22.515625 14.984375 16.5 
Q 14.984375 11.71875 18.140625 8.90625 
Q 21.296875 6.109375 26.703125 6.109375 
Q 34.1875 6.109375 38.703125 11.40625 
Q 43.21875 16.703125 43.21875 25.484375 
L 43.21875 27.484375 
z
M 52.203125 31.203125 
L 52.203125 0 
L 43.21875 0 
L 43.21875 8.296875 
Q 40.140625 3.328125 35.546875 0.953125 
Q 30.953125 -1.421875 24.3125 -1.421875 
Q 15.921875 -1.421875 10.953125 3.296875 
Q 6 8.015625 6 15.921875 
Q 6 25.140625 12.171875 29.828125 
Q 18.359375 34.515625 30.609375 34.515625 
L 43.21875 34.515625 
L 43.21875 35.40625 
Q 43.21875 41.609375 39.140625 45 
Q 35.0625 48.390625 27.6875 48.390625 
Q 23 48.390625 18.546875 47.265625 
Q 14.109375 46.140625 10.015625 43.890625 
L 10.015625 52.203125 
Q 14.9375 54.109375 19.578125 55.046875 
Q 24.21875 56 28.609375 56 
Q 40.484375 56 46.34375 49.84375 
Q 52.203125 43.703125 52.203125 31.203125 
z
" id="DejaVuSans-61"/>
      <path d="M 52 44.1875 
Q 55.375 50.25 60.0625 53.125 
Q 64.75 56 71.09375 56 
Q 79.640625 56 84.28125 50.015625 
Q 88.921875 44.046875 88.921875 33.015625 
L 88.921875 0 
L 79.890625 0 
L 79.890625 32.71875 
Q 79.890625 40.578125 77.09375 44.375 
Q 74.3125 48.1875 68.609375 48.1875 
Q 61.625 48.1875 57.5625 43.546875 
Q 53.515625 38.921875 53.515625 30.90625 
L 53.515625 0 
L 44.484375 0 
L 44.484375 32.71875 
Q 44.484375 40.625 41.703125 44.40625 
Q 38.921875 48.1875 33.109375 48.1875 
Q 26.21875 48.1875 22.15625 43.53125 
Q 18.109375 38.875 18.109375 30.90625 
L 18.109375 0 
L 9.078125 0 
L 9.078125 54.6875 
L 18.109375 54.6875 
L 18.109375 46.1875 
Q 21.1875 51.21875 25.484375 53.609375 
Q 29.78125 56 35.6875 56 
Q 41.65625 56 45.828125 52.96875 
Q 50 49.953125 52 44.1875 
z
" id="DejaVuSans-6d"/>
      <path d="M 56.203125 29.59375 
L 56.203125 25.203125 
L 14.890625 25.203125 
Q 15.484375 15.921875 20.484375 11.0625 
Q 25.484375 6.203125 34.421875 6.203125 
Q 39.59375 6.203125 44.453125 7.46875 
Q 49.3125 8.734375 54.109375 11.28125 
L 54.109375 2.78125 
Q 49.265625 0.734375 44.1875 -0.34375 
Q 39.109375 -1.421875 33.890625 -1.421875 
Q 20.796875 -1.421875 13.15625 6.1875 
Q 5.515625 13.8125 5.515625 26.8125 
Q 5.515625 40.234375 12.765625 48.109375 
Q 20.015625 56 32.328125 56 
Q 43.359375 56 49.78125 48.890625 
Q 56.203125 41.796875 56.203125 29.59375 
z
M 47.21875 32.234375 
Q 47.125 39.59375 43.09375 43.984375 
Q 39.0625 48.390625 32.421875 48.390625 
Q 24.90625 48.390625 20.390625 44.140625 
Q 15.875 39.890625 15.1875 32.171875 
z
" id="DejaVuSans-65"/>
      <path id="DejaVuSans-20"/>
      <path d="M 9.421875 54.6875 
L 18.40625 54.6875 
L 18.40625 0 
L 9.421875 0 
z
M 9.421875 75.984375 
L 18.40625 75.984375 
L 18.40625 64.59375 
L 9.421875 64.59375 
z
" id="DejaVuSans-69"/>
      <path d="M 54.890625 33.015625 
L 54.890625 0 
L 45.90625 0 
L 45.90625 32.71875 
Q 45.90625 40.484375 42.875 44.328125 
Q 39.84375 48.1875 33.796875 48.1875 
Q 26.515625 48.1875 22.3125 43.546875 
Q 18.109375 38.921875 18.109375 30.90625 
L 18.109375 0 
L 9.078125 0 
L 9.078125 54.6875 
L 18.109375 54.6875 
L 18.109375 46.1875 
Q 21.34375 51.125 25.703125 53.5625 
Q 30.078125 56 35.796875 56 
Q 45.21875 56 50.046875 50.171875 
Q 54.890625 44.34375 54.890625 33.015625 
z
" id="DejaVuSans-6e"/>
      <path d="M 45.40625 46.390625 
L 45.40625 75.984375 
L 54.390625 75.984375 
L 54.390625 0 
L 45.40625 0 
L 45.40625 8.203125 
Q 42.578125 3.328125 38.25 0.953125 
Q 33.9375 -1.421875 27.875 -1.421875 
Q 17.96875 -1.421875 11.734375 6.484375 
Q 5.515625 14.40625 5.515625 27.296875 
Q 5.515625 40.1875 11.734375 48.09375 
Q 17.96875 56 27.875 56 
Q 33.9375 56 38.25 53.625 
Q 42.578125 51.265625 45.40625 46.390625 
z
M 14.796875 27.296875 
Q 14.796875 17.390625 18.875 11.75 
Q 22.953125 6.109375 30.078125 6.109375 
Q 37.203125 6.109375 41.296875 11.75 
Q 45.40625 17.390625 45.40625 27.296875 
Q 45.40625 37.203125 41.296875 42.84375 
Q 37.203125 48.484375 30.078125 48.484375 
Q 22.953125 48.484375 18.875 42.84375 
Q 14.796875 37.203125 14.796875 27.296875 
z
" id="DejaVuSans-64"/>
      <path d="M 54.890625 54.6875 
L 35.109375 28.078125 
L 55.90625 0 
L 45.3125 0 
L 29.390625 21.484375 
L 13.484375 0 
L 2.875 0 
L 24.125 28.609375 
L 4.6875 54.6875 
L 15.28125 54.6875 
L 29.78125 35.203125 
L 44.28125 54.6875 
z
" id="DejaVuSans-78"/>
     </defs>
     <g transform="translate(204.867031 335.860562)scale(0.1 -0.1)">
      <use xlink:href="#DejaVuSans-46"/>
      <use x="57.410156" xlink:href="#DejaVuSans-72"/>
      <use x="98.523438" xlink:href="#DejaVuSans-61"/>
      <use x="159.802734" xlink:href="#DejaVuSans-6d"/>
      <use x="257.214844" xlink:href="#DejaVuSans-65"/>
      <use x="318.738281" xlink:href="#DejaVuSans-20"/>
      <use x="350.525391" xlink:href="#DejaVuSans-69"/>
      <use x="378.308594" xlink:href="#DejaVuSans-6e"/>
      <use x="441.6875" xlink:href="#DejaVuSans-64"/>
      <use x="505.164062" xlink:href="#DejaVuSans-65"/>
      <use x="566.671875" xlink:href="#DejaVuSans-78"/>
     </g>
    </g>
   </g>
   <g id="matplotlib.axis_2">
    <g id="ytick_1">
     <g id="line2d_8">
      <defs>
       <path d="M 0 0 
L -3.5 0 
" id="m3c2266cfaf" style="stroke:#000000;stroke-width:0.8;"/>
      </defs>
      <g>
       <use style="stroke:#000000;stroke-width:0.8;" x="57.6" xlink:href="#m3c2266cfaf" y="297.602478"/>
      </g>
     </g>
     <g id="text_8">
      <!-- 1.8 -->
      <defs>
       <path d="M 10.6875 12.40625 
L 21 12.40625 
L 21 0 
L 10.6875 0 
z
" id="DejaVuSans-2e"/>
       <path d="M 31.78125 34.625 
Q 24.75 34.625 20.71875 30.859375 
Q 16.703125 27.09375 16.703125 20.515625 
Q 16.703125 13.921875 20.71875 10.15625 
Q 24.75 6.390625 31.78125 6.390625 
Q 38.8125 6.390625 42.859375 10.171875 
Q 46.921875 13.96875 46.921875 20.515625 
Q 46.921875 27.09375 42.890625 30.859375 
Q 38.875 34.625 31.78125 34.625 
z
M 21.921875 38.8125 
Q 15.578125 40.375 12.03125 44.71875 
Q 8.5 49.078125 8.5 55.328125 
Q 8.5 64.0625 14.71875 69.140625 
Q 20.953125 74.21875 31.78125 74.21875 
Q 42.671875 74.21875 48.875 69.140625 
Q 55.078125 64.0625 55.078125 55.328125 
Q 55.078125 49.078125 51.53125 44.71875 
Q 48 40.375 41.703125 38.8125 
Q 48.828125 37.15625 52.796875 32.3125 
Q 56.78125 27.484375 56.78125 20.515625 
Q 56.78125 9.90625 50.3125 4.234375 
Q 43.84375 -1.421875 31.78125 -1.421875 
Q 19.734375 -1.421875 13.25 4.234375 
Q 6.78125 9.90625 6.78125 20.515625 
Q 6.78125 27.484375 10.78125 32.3125 
Q 14.796875 37.15625 21.921875 38.8125 
z
M 18.3125 54.390625 
Q 18.3125 48.734375 21.84375 45.5625 
Q 25.390625 42.390625 31.78125 42.390625 
Q 38.140625 42.390625 41.71875 45.5625 
Q 45.3125 48.734375 45.3125 54.390625 
Q 45.3125 60.0625 41.71875 63.234375 
Q 38.140625 66.40625 31.78125 66.40625 
Q 25.390625 66.40625 21.84375 63.234375 
Q 18.3125 60.0625 18.3125 54.390625 
z
" id="DejaVuSans-38"/>
      </defs>
      <g transform="translate(34.696875 301.401697)scale(0.1 -0.1)">
       <use xlink:href="#DejaVuSans-31"/>
       <use x="63.623047" xlink:href="#DejaVuSans-2e"/>
       <use x="95.410156" xlink:href="#DejaVuSans-38"/>
      </g>
     </g>
    </g>
    <g id="ytick_2">
     <g id="line2d_9">
      <g>
       <use style="stroke:#000000;stroke-width:0.8;" x="57.6" xlink:href="#m3c2266cfaf" y="264.321862"/>
      </g>
     </g>
     <g id="text_9">
      <!-- 2.0 -->
      <g transform="translate(34.696875 268.121081)scale(0.1 -0.1)">
       <use xlink:href="#DejaVuSans-32"/>
       <use x="63.623047" xlink:href="#DejaVuSans-2e"/>
       <use x="95.410156" xlink:href="#DejaVuSans-30"/>
      </g>
     </g>
    </g>
    <g id="ytick_3">
     <g id="line2d_10">
      <g>
       <use style="stroke:#000000;stroke-width:0.8;" x="57.6" xlink:href="#m3c2266cfaf" y="231.041246"/>
      </g>
     </g>
     <g id="text_10">
      <!-- 2.2 -->
      <g transform="translate(34.696875 234.840465)scale(0.1 -0.1)">
       <use xlink:href="#DejaVuSans-32"/>
       <use x="63.623047" xlink:href="#DejaVuSans-2e"/>
       <use x="95.410156" xlink:href="#DejaVuSans-32"/>
      </g>
     </g>
    </g>
    <g id="ytick_4">
     <g id="line2d_11">
      <g>
       <use style="stroke:#000000;stroke-width:0.8;" x="57.6" xlink:href="#m3c2266cfaf" y="197.76063"/>
      </g>
     </g>
     <g id="text_11">
      <!-- 2.4 -->
      <defs>
       <path d="M 37.796875 64.3125 
L 12.890625 25.390625 
L 37.796875 25.390625 
z
M 35.203125 72.90625 
L 47.609375 72.90625 
L 47.609375 25.390625 
L 58.015625 25.390625 
L 58.015625 17.1875 
L 47.609375 17.1875 
L 47.609375 0 
L 37.796875 0 
L 37.796875 17.1875 
L 4.890625 17.1875 
L 4.890625 26.703125 
z
" id="DejaVuSans-34"/>
      </defs>
      <g transform="translate(34.696875 201.559848)scale(0.1 -0.1)">
       <use xlink:href="#DejaVuSans-32"/>
       <use x="63.623047" xlink:href="#DejaVuSans-2e"/>
       <use x="95.410156" xlink:href="#DejaVuSans-34"/>
      </g>
     </g>
    </g>
    <g id="ytick_5">
     <g id="line2d_12">
      <g>
       <use style="stroke:#000000;stroke-width:0.8;" x="57.6" xlink:href="#m3c2266cfaf" y="164.480014"/>
      </g>
     </g>
     <g id="text_12">
      <!-- 2.6 -->
      <defs>
       <path d="M 33.015625 40.375 
Q 26.375 40.375 22.484375 35.828125 
Q 18.609375 31.296875 18.609375 23.390625 
Q 18.609375 15.53125 22.484375 10.953125 
Q 26.375 6.390625 33.015625 6.390625 
Q 39.65625 6.390625 43.53125 10.953125 
Q 47.40625 15.53125 47.40625 23.390625 
Q 47.40625 31.296875 43.53125 35.828125 
Q 39.65625 40.375 33.015625 40.375 
z
M 52.59375 71.296875 
L 52.59375 62.3125 
Q 48.875 64.0625 45.09375 64.984375 
Q 41.3125 65.921875 37.59375 65.921875 
Q 27.828125 65.921875 22.671875 59.328125 
Q 17.53125 52.734375 16.796875 39.40625 
Q 19.671875 43.65625 24.015625 45.921875 
Q 28.375 48.1875 33.59375 48.1875 
Q 44.578125 48.1875 50.953125 41.515625 
Q 57.328125 34.859375 57.328125 23.390625 
Q 57.328125 12.15625 50.6875 5.359375 
Q 44.046875 -1.421875 33.015625 -1.421875 
Q 20.359375 -1.421875 13.671875 8.265625 
Q 6.984375 17.96875 6.984375 36.375 
Q 6.984375 53.65625 15.1875 63.9375 
Q 23.390625 74.21875 37.203125 74.21875 
Q 40.921875 74.21875 44.703125 73.484375 
Q 48.484375 72.75 52.59375 71.296875 
z
" id="DejaVuSans-36"/>
      </defs>
      <g transform="translate(34.696875 168.279232)scale(0.1 -0.1)">
       <use xlink:href="#DejaVuSans-32"/>
       <use x="63.623047" xlink:href="#DejaVuSans-2e"/>
       <use x="95.410156" xlink:href="#DejaVuSans-36"/>
      </g>
     </g>
    </g>
    <g id="ytick_6">
     <g id="line2d_13">
      <g>
       <use style="stroke:#000000;stroke-width:0.8;" x="57.6" xlink:href="#m3c2266cfaf" y="131.199398"/>
      </g>
     </g>
     <g id="text_13">
      <!-- 2.8 -->
      <g transform="translate(34.696875 134.998616)scale(0.1 -0.1)">
       <use xlink:href="#DejaVuSans-32"/>
       <use x="63.623047" xlink:href="#DejaVuSans-2e"/>
       <use x="95.410156" xlink:href="#DejaVuSans-38"/>
      </g>
     </g>
    </g>
    <g id="ytick_7">
     <g id="line2d_14">
      <g>
       <use style="stroke:#000000;stroke-width:0.8;" x="57.6" xlink:href="#m3c2266cfaf" y="97.918782"/>
      </g>
     </g>
     <g id="text_14">
      <!-- 3.0 -->
      <defs>
       <path d="M 40.578125 39.3125 
Q 47.65625 37.796875 51.625 33 
Q 55.609375 28.21875 55.609375 21.1875 
Q 55.609375 10.40625 48.1875 4.484375 
Q 40.765625 -1.421875 27.09375 -1.421875 
Q 22.515625 -1.421875 17.65625 -0.515625 
Q 12.796875 0.390625 7.625 2.203125 
L 7.625 11.71875 
Q 11.71875 9.328125 16.59375 8.109375 
Q 21.484375 6.890625 26.8125 6.890625 
Q 36.078125 6.890625 40.9375 10.546875 
Q 45.796875 14.203125 45.796875 21.1875 
Q 45.796875 27.640625 41.28125 31.265625 
Q 36.765625 34.90625 28.71875 34.90625 
L 20.21875 34.90625 
L 20.21875 43.015625 
L 29.109375 43.015625 
Q 36.375 43.015625 40.234375 45.921875 
Q 44.09375 48.828125 44.09375 54.296875 
Q 44.09375 59.90625 40.109375 62.90625 
Q 36.140625 65.921875 28.71875 65.921875 
Q 24.65625 65.921875 20.015625 65.03125 
Q 15.375 64.15625 9.8125 62.3125 
L 9.8125 71.09375 
Q 15.4375 72.65625 20.34375 73.4375 
Q 25.25 74.21875 29.59375 74.21875 
Q 40.828125 74.21875 47.359375 69.109375 
Q 53.90625 64.015625 53.90625 55.328125 
Q 53.90625 49.265625 50.4375 45.09375 
Q 46.96875 40.921875 40.578125 39.3125 
z
" id="DejaVuSans-33"/>
      </defs>
      <g transform="translate(34.696875 101.718)scale(0.1 -0.1)">
       <use xlink:href="#DejaVuSans-33"/>
       <use x="63.623047" xlink:href="#DejaVuSans-2e"/>
       <use x="95.410156" xlink:href="#DejaVuSans-30"/>
      </g>
     </g>
    </g>
    <g id="ytick_8">
     <g id="line2d_15">
      <g>
       <use style="stroke:#000000;stroke-width:0.8;" x="57.6" xlink:href="#m3c2266cfaf" y="64.638166"/>
      </g>
     </g>
     <g id="text_15">
      <!-- 3.2 -->
      <g transform="translate(34.696875 68.437384)scale(0.1 -0.1)">
       <use xlink:href="#DejaVuSans-33"/>
       <use x="63.623047" xlink:href="#DejaVuSans-2e"/>
       <use x="95.410156" xlink:href="#DejaVuSans-32"/>
      </g>
     </g>
    </g>
    <g id="text_16">
     <!-- RMSD -->
     <defs>
      <path d="M 44.390625 34.1875 
Q 47.5625 33.109375 50.5625 29.59375 
Q 53.5625 26.078125 56.59375 19.921875 
L 66.609375 0 
L 56 0 
L 46.6875 18.703125 
Q 43.0625 26.03125 39.671875 28.421875 
Q 36.28125 30.8125 30.421875 30.8125 
L 19.671875 30.8125 
L 19.671875 0 
L 9.8125 0 
L 9.8125 72.90625 
L 32.078125 72.90625 
Q 44.578125 72.90625 50.734375 67.671875 
Q 56.890625 62.453125 56.890625 51.90625 
Q 56.890625 45.015625 53.6875 40.46875 
Q 50.484375 35.9375 44.390625 34.1875 
z
M 19.671875 64.796875 
L 19.671875 38.921875 
L 32.078125 38.921875 
Q 39.203125 38.921875 42.84375 42.21875 
Q 46.484375 45.515625 46.484375 51.90625 
Q 46.484375 58.296875 42.84375 61.546875 
Q 39.203125 64.796875 32.078125 64.796875 
z
" id="DejaVuSans-52"/>
      <path d="M 9.8125 72.90625 
L 24.515625 72.90625 
L 43.109375 23.296875 
L 61.8125 72.90625 
L 76.515625 72.90625 
L 76.515625 0 
L 66.890625 0 
L 66.890625 64.015625 
L 48.09375 14.015625 
L 38.1875 14.015625 
L 19.390625 64.015625 
L 19.390625 0 
L 9.8125 0 
z
" id="DejaVuSans-4d"/>
      <path d="M 53.515625 70.515625 
L 53.515625 60.890625 
Q 47.90625 63.578125 42.921875 64.890625 
Q 37.9375 66.21875 33.296875 66.21875 
Q 25.25 66.21875 20.875 63.09375 
Q 16.5 59.96875 16.5 54.203125 
Q 16.5 49.359375 19.40625 46.890625 
Q 22.3125 44.4375 30.421875 42.921875 
L 36.375 41.703125 
Q 47.40625 39.59375 52.65625 34.296875 
Q 57.90625 29 57.90625 20.125 
Q 57.90625 9.515625 50.796875 4.046875 
Q 43.703125 -1.421875 29.984375 -1.421875 
Q 24.8125 -1.421875 18.96875 -0.25 
Q 13.140625 0.921875 6.890625 3.21875 
L 6.890625 13.375 
Q 12.890625 10.015625 18.65625 8.296875 
Q 24.421875 6.59375 29.984375 6.59375 
Q 38.421875 6.59375 43.015625 9.90625 
Q 47.609375 13.234375 47.609375 19.390625 
Q 47.609375 24.75 44.3125 27.78125 
Q 41.015625 30.8125 33.5 32.328125 
L 27.484375 33.5 
Q 16.453125 35.6875 11.515625 40.375 
Q 6.59375 45.0625 6.59375 53.421875 
Q 6.59375 63.09375 13.40625 68.65625 
Q 20.21875 74.21875 32.171875 74.21875 
Q 37.3125 74.21875 42.625 73.28125 
Q 47.953125 72.359375 53.515625 70.515625 
z
" id="DejaVuSans-53"/>
      <path d="M 19.671875 64.796875 
L 19.671875 8.109375 
L 31.59375 8.109375 
Q 46.6875 8.109375 53.6875 14.9375 
Q 60.6875 21.78125 60.6875 36.53125 
Q 60.6875 51.171875 53.6875 57.984375 
Q 46.6875 64.796875 31.59375 64.796875 
z
M 9.8125 72.90625 
L 30.078125 72.90625 
Q 51.265625 72.90625 61.171875 64.09375 
Q 71.09375 55.28125 71.09375 36.53125 
Q 71.09375 17.671875 61.125 8.828125 
Q 51.171875 0 30.078125 0 
L 9.8125 0 
z
" id="DejaVuSans-44"/>
     </defs>
     <g transform="translate(28.617187 189.3405)rotate(-90)scale(0.1 -0.1)">
      <use xlink:href="#DejaVuSans-52"/>
      <use x="69.482422" xlink:href="#DejaVuSans-4d"/>
      <use x="155.761719" xlink:href="#DejaVuSans-53"/>
      <use x="219.238281" xlink:href="#DejaVuSans-44"/>
     </g>
    </g>
   </g>
   <g id="line2d_16">
    <path clip-path="url(#pc83efb29f5)" d="M 73.832727 295.488 
L 74.918528 264.443607 
L 76.00433 263.727811 
L 77.090131 248.121949 
L 78.175932 246.523158 
L 79.261733 229.126899 
L 80.347534 230.240495 
L 81.433335 224.118862 
L 82.519137 215.122904 
L 83.604938 209.550668 
L 84.690739 203.089216 
L 85.77654 184.214228 
L 86.862341 188.878368 
L 87.948142 184.602542 
L 89.033943 189.745641 
L 90.119745 189.761758 
L 91.205546 187.470614 
L 92.291347 190.854497 
L 93.377148 179.534761 
L 94.462949 189.395187 
L 95.54875 173.798383 
L 96.634552 182.017421 
L 97.720353 173.174416 
L 98.806154 168.780585 
L 99.891955 175.107686 
L 100.977756 172.978966 
L 102.063557 168.669702 
L 103.149358 175.907473 
L 104.23516 169.323935 
L 105.320961 172.803863 
L 106.406762 165.939521 
L 107.492563 165.0733 
L 108.578364 169.431159 
L 109.664165 170.33983 
L 110.749967 173.50678 
L 111.835768 161.238059 
L 112.921569 163.237094 
L 114.00737 158.343526 
L 115.093171 151.708441 
L 116.178972 164.148733 
L 117.264773 164.531827 
L 118.350575 166.73797 
L 119.436376 161.682229 
L 120.522177 160.70289 
L 121.607978 160.246865 
L 122.693779 151.38967 
L 123.77958 154.463555 
L 124.865382 143.741915 
L 125.951183 146.121542 
L 127.036984 140.419255 
L 128.122785 150.507897 
L 129.208586 137.768501 
L 130.294387 134.294659 
L 131.380189 135.668257 
L 132.46599 143.815045 
L 133.551791 135.990709 
L 134.637592 141.720769 
L 135.723393 141.957002 
L 136.809194 140.353158 
L 137.894995 121.836553 
L 138.980797 132.623234 
L 140.066598 123.035691 
L 141.152399 127.394135 
L 142.2382 119.074905 
L 143.324001 118.118857 
L 144.409802 120.787246 
L 145.495604 128.691561 
L 147.667206 118.372039 
L 148.753007 125.759421 
L 149.838808 126.182439 
L 150.924609 117.198989 
L 152.01041 123.143554 
L 153.096212 123.594341 
L 154.182013 130.895099 
L 155.267814 115.347679 
L 156.353615 116.333763 
L 157.439416 122.114505 
L 158.525217 109.776618 
L 159.611019 109.775769 
L 160.69682 107.625239 
L 161.782621 109.419111 
L 162.868422 115.39441 
L 163.954223 105.284816 
L 165.040024 114.066534 
L 166.125825 111.525711 
L 167.211627 116.049596 
L 168.297428 111.327891 
L 169.383229 115.77182 
L 170.46903 101.867996 
L 171.554831 114.768383 
L 172.640632 122.541824 
L 173.726434 102.810396 
L 174.812235 108.382712 
L 175.898036 97.934266 
L 176.983837 96.010994 
L 178.069638 98.868424 
L 179.155439 114.301558 
L 180.24124 120.999297 
L 181.327042 115.749561 
L 183.498644 84.991132 
L 185.670246 90.364531 
L 186.756047 91.888407 
L 187.841849 95.483768 
L 188.92765 94.876029 
L 190.013451 97.517991 
L 191.099252 93.419529 
L 192.185053 101.39756 
L 193.270854 91.97498 
L 194.356656 98.450095 
L 195.442457 98.659929 
L 196.528258 103.599625 
L 197.614059 103.22387 
L 198.69986 106.756686 
L 199.785661 120.498448 
L 200.871462 110.33933 
L 201.957264 105.816242 
L 203.043065 106.782483 
L 204.128866 110.659939 
L 205.214667 111.307146 
L 206.300468 107.898026 
L 207.386269 105.60905 
L 208.472071 98.995112 
L 209.557872 95.017203 
L 210.643673 106.212713 
L 211.729474 112.801878 
L 212.815275 100.740679 
L 213.901076 101.159804 
L 214.986877 116.278249 
L 216.072679 108.421613 
L 217.15848 111.552726 
L 218.244281 105.251023 
L 219.330082 105.349403 
L 221.501684 99.980176 
L 222.587486 103.621582 
L 223.673287 102.843285 
L 224.759088 96.101054 
L 225.844889 92.192063 
L 226.93069 96.103697 
L 228.016491 88.27396 
L 229.102292 105.404458 
L 230.188094 99.351079 
L 231.273895 103.581856 
L 232.359696 104.845797 
L 233.445497 95.88468 
L 234.531298 97.200259 
L 235.617099 86.321515 
L 236.702901 93.263984 
L 237.788702 96.787678 
L 238.874503 96.756164 
L 239.960304 93.235012 
L 241.046105 87.805943 
L 242.131906 86.796518 
L 243.217708 79.657508 
L 244.303509 82.51387 
L 245.38931 77.333148 
L 246.475111 77.74521 
L 247.560912 80.894606 
L 248.646713 75.252909 
L 249.732514 74.328655 
L 250.818316 66.796632 
L 251.904117 63.837326 
L 252.989918 53.589382 
L 254.075719 69.306573 
L 255.16152 66.459796 
L 256.247321 75.929287 
L 257.333123 68.04293 
L 258.418924 77.713837 
L 259.504725 72.898561 
L 260.590526 88.678395 
L 261.676327 75.896788 
L 262.762128 74.830374 
L 263.847929 76.936582 
L 264.933731 77.127109 
L 266.019532 78.623064 
L 267.105333 84.822588 
L 268.191134 75.750791 
L 269.276935 84.142142 
L 270.362736 86.559971 
L 271.448538 83.39934 
L 272.534339 87.179176 
L 273.62014 84.25498 
L 274.705941 87.728363 
L 275.791742 98.649573 
L 276.877543 79.190829 
L 277.963344 92.395481 
L 279.049146 94.026603 
L 280.134947 91.34952 
L 281.220748 98.909815 
L 282.306549 94.072927 
L 283.39235 96.159185 
L 284.478151 97.847155 
L 285.563953 94.285045 
L 286.649754 97.465053 
L 287.735555 94.158076 
L 288.821356 89.0031 
L 289.907157 90.292011 
L 290.992958 86.082148 
L 292.07876 76.395092 
L 293.164561 76.652084 
L 294.250362 71.016157 
L 295.336163 75.931371 
L 296.421964 70.471071 
L 297.507765 75.047208 
L 298.593566 67.802617 
L 299.679368 54.066797 
L 300.765169 59.710697 
L 301.85097 79.553626 
L 302.936771 77.083714 
L 304.022572 71.987059 
L 305.108373 72.069385 
L 306.194175 75.923892 
L 308.365777 84.45045 
L 309.451578 80.070555 
L 310.537379 80.182673 
L 311.62318 79.927591 
L 312.708981 87.264219 
L 313.794783 81.997135 
L 314.880584 81.048674 
L 315.966385 82.454756 
L 317.052186 77.758078 
L 318.137987 80.489916 
L 319.223788 90.848506 
L 320.30959 90.772494 
L 321.395391 88.668014 
L 322.481192 87.662361 
L 323.566993 87.822011 
L 324.652794 89.421545 
L 325.738595 79.6982 
L 326.824396 80.080658 
L 327.910198 83.191548 
L 328.995999 85.139954 
L 330.0818 73.984243 
L 331.167601 82.760506 
L 332.253402 87.938158 
L 333.339203 95.383513 
L 334.425005 83.577773 
L 335.510806 77.00096 
L 336.596607 83.260765 
L 337.682408 77.928427 
L 338.768209 80.424496 
L 339.85401 80.07888 
L 340.939811 77.547659 
L 342.025613 72.853308 
L 343.111414 79.496433 
L 344.197215 74.587473 
L 345.283016 80.703923 
L 346.368817 79.849221 
L 347.454618 77.875698 
L 348.54042 84.33002 
L 349.626221 74.135463 
L 350.712022 76.696523 
L 351.797823 82.535176 
L 352.883624 83.290545 
L 353.969425 88.645675 
L 355.055227 84.172282 
L 356.141028 86.002602 
L 357.226829 84.679658 
L 358.31263 77.845967 
L 359.398431 76.715598 
L 360.484232 85.63993 
L 361.570033 83.437996 
L 362.655835 85.404566 
L 363.741636 83.57597 
L 364.827437 76.052102 
L 365.913238 71.437769 
L 366.999039 63.763463 
L 368.08484 70.590789 
L 369.170642 68.00203 
L 370.256443 69.204846 
L 371.342244 72.325008 
L 372.428045 54.970048 
L 373.513846 59.766629 
L 374.599647 61.669974 
L 375.685448 66.069834 
L 377.857051 72.087547 
L 378.942852 67.904734 
L 380.028653 71.742271 
L 381.114454 73.029287 
L 382.200255 64.089059 
L 383.286057 70.477022 
L 384.371858 66.142936 
L 385.457659 77.521494 
L 386.54346 68.038698 
L 387.629261 53.568 
L 388.715062 62.924858 
L 389.800863 75.731968 
L 390.886665 69.547375 
L 391.972466 71.122812 
L 393.058267 70.831078 
L 394.144068 70.977644 
L 395.229869 65.917077 
L 396.31567 64.369426 
L 397.401472 78.745457 
L 398.487273 72.787337 
L 398.487273 72.787337 
" style="fill:none;stroke:#666666;stroke-dasharray:1,1.65;stroke-dashoffset:0;"/>
    <defs>
     <path d="M 0 0.5 
C 0.132602 0.5 0.25979 0.447317 0.353553 0.353553 
C 0.447317 0.25979 0.5 0.132602 0.5 0 
C 0.5 -0.132602 0.447317 -0.25979 0.353553 -0.353553 
C 0.25979 -0.447317 0.132602 -0.5 0 -0.5 
C -0.132602 -0.5 -0.25979 -0.447317 -0.353553 -0.353553 
C -0.447317 -0.25979 -0.5 -0.132602 -0.5 0 
C -0.5 0.132602 -0.447317 0.25979 -0.353553 0.353553 
C -0.25979 0.447317 -0.132602 0.5 0 0.5 
z
" id="mc1c5db1369" style="stroke:#666666;"/>
    </defs>
    <g clip-path="url(#pc83efb29f5)">
     <use style="fill:#666666;stroke:#666666;" x="73.832727" xlink:href="#mc1c5db1369" y="295.488"/>
     <use style="fill:#666666;stroke:#666666;" x="74.918528" xlink:href="#mc1c5db1369" y="264.443607"/>
     <use style="fill:#666666;stroke:#666666;" x="76.00433" xlink:href="#mc1c5db1369" y="263.727811"/>
     <use style="fill:#666666;stroke:#666666;" x="77.090131" xlink:href="#mc1c5db1369" y="248.121949"/>
     <use style="fill:#666666;stroke:#666666;" x="78.175932" xlink:href="#mc1c5db1369" y="246.523158"/>
     <use style="fill:#666666;stroke:#666666;" x="79.261733" xlink:href="#mc1c5db1369" y="229.126899"/>
     <use style="fill:#666666;stroke:#666666;" x="80.347534" xlink:href="#mc1c5db1369" y="230.240495"/>
     <use style="fill:#666666;stroke:#666666;" x="81.433335" xlink:href="#mc1c5db1369" y="224.118862"/>
     <use style="fill:#666666;stroke:#666666;" x="82.519137" xlink:href="#mc1c5db1369" y="215.122904"/>
     <use style="fill:#666666;stroke:#666666;" x="83.604938" xlink:href="#mc1c5db1369" y="209.550668"/>
     <use style="fill:#666666;stroke:#666666;" x="84.690739" xlink:href="#mc1c5db1369" y="203.089216"/>
     <use style="fill:#666666;stroke:#666666;" x="85.77654" xlink:href="#mc1c5db1369" y="184.214228"/>
     <use style="fill:#666666;stroke:#666666;" x="86.862341" xlink:href="#mc1c5db1369" y="188.878368"/>
     <use style="fill:#666666;stroke:#666666;" x="87.948142" xlink:href="#mc1c5db1369" y="184.602542"/>
     <use style="fill:#666666;stroke:#666666;" x="89.033943" xlink:href="#mc1c5db1369" y="189.745641"/>
     <use style="fill:#666666;stroke:#666666;" x="90.119745" xlink:href="#mc1c5db1369" y="189.761758"/>
     <use style="fill:#666666;stroke:#666666;" x="91.205546" xlink:href="#mc1c5db1369" y="187.470614"/>
     <use style="fill:#666666;stroke:#666666;" x="92.291347" xlink:href="#mc1c5db1369" y="190.854497"/>
     <use style="fill:#666666;stroke:#666666;" x="93.377148" xlink:href="#mc1c5db1369" y="179.534761"/>
     <use style="fill:#666666;stroke:#666666;" x="94.462949" xlink:href="#mc1c5db1369" y="189.395187"/>
     <use style="fill:#666666;stroke:#666666;" x="95.54875" xlink:href="#mc1c5db1369" y="173.798383"/>
     <use style="fill:#666666;stroke:#666666;" x="96.634552" xlink:href="#mc1c5db1369" y="182.017421"/>
     <use style="fill:#666666;stroke:#666666;" x="97.720353" xlink:href="#mc1c5db1369" y="173.174416"/>
     <use style="fill:#666666;stroke:#666666;" x="98.806154" xlink:href="#mc1c5db1369" y="168.780585"/>
     <use style="fill:#666666;stroke:#666666;" x="99.891955" xlink:href="#mc1c5db1369" y="175.107686"/>
     <use style="fill:#666666;stroke:#666666;" x="100.977756" xlink:href="#mc1c5db1369" y="172.978966"/>
     <use style="fill:#666666;stroke:#666666;" x="102.063557" xlink:href="#mc1c5db1369" y="168.669702"/>
     <use style="fill:#666666;stroke:#666666;" x="103.149358" xlink:href="#mc1c5db1369" y="175.907473"/>
     <use style="fill:#666666;stroke:#666666;" x="104.23516" xlink:href="#mc1c5db1369" y="169.323935"/>
     <use style="fill:#666666;stroke:#666666;" x="105.320961" xlink:href="#mc1c5db1369" y="172.803863"/>
     <use style="fill:#666666;stroke:#666666;" x="106.406762" xlink:href="#mc1c5db1369" y="165.939521"/>
     <use style="fill:#666666;stroke:#666666;" x="107.492563" xlink:href="#mc1c5db1369" y="165.0733"/>
     <use style="fill:#666666;stroke:#666666;" x="108.578364" xlink:href="#mc1c5db1369" y="169.431159"/>
     <use style="fill:#666666;stroke:#666666;" x="109.664165" xlink:href="#mc1c5db1369" y="170.33983"/>
     <use style="fill:#666666;stroke:#666666;" x="110.749967" xlink:href="#mc1c5db1369" y="173.50678"/>
     <use style="fill:#666666;stroke:#666666;" x="111.835768" xlink:href="#mc1c5db1369" y="161.238059"/>
     <use style="fill:#666666;stroke:#666666;" x="112.921569" xlink:href="#mc1c5db1369" y="163.237094"/>
     <use style="fill:#666666;stroke:#666666;" x="114.00737" xlink:href="#mc1c5db1369" y="158.343526"/>
     <use style="fill:#666666;stroke:#666666;" x="115.093171" xlink:href="#mc1c5db1369" y="151.708441"/>
     <use style="fill:#666666;stroke:#666666;" x="116.178972" xlink:href="#mc1c5db1369" y="164.148733"/>
     <use style="fill:#666666;stroke:#666666;" x="117.264773" xlink:href="#mc1c5db1369" y="164.531827"/>
     <use style="fill:#666666;stroke:#666666;" x="118.350575" xlink:href="#mc1c5db1369" y="166.73797"/>
     <use style="fill:#666666;stroke:#666666;" x="119.436376" xlink:href="#mc1c5db1369" y="161.682229"/>
     <use style="fill:#666666;stroke:#666666;" x="120.522177" xlink:href="#mc1c5db1369" y="160.70289"/>
     <use style="fill:#666666;stroke:#666666;" x="121.607978" xlink:href="#mc1c5db1369" y="160.246865"/>
     <use style="fill:#666666;stroke:#666666;" x="122.693779" xlink:href="#mc1c5db1369" y="151.38967"/>
     <use style="fill:#666666;stroke:#666666;" x="123.77958" xlink:href="#mc1c5db1369" y="154.463555"/>
     <use style="fill:#666666;stroke:#666666;" x="124.865382" xlink:href="#mc1c5db1369" y="143.741915"/>
     <use style="fill:#666666;stroke:#666666;" x="125.951183" xlink:href="#mc1c5db1369" y="146.121542"/>
     <use style="fill:#666666;stroke:#666666;" x="127.036984" xlink:href="#mc1c5db1369" y="140.419255"/>
     <use style="fill:#666666;stroke:#666666;" x="128.122785" xlink:href="#mc1c5db1369" y="150.507897"/>
     <use style="fill:#666666;stroke:#666666;" x="129.208586" xlink:href="#mc1c5db1369" y="137.768501"/>
     <use style="fill:#666666;stroke:#666666;" x="130.294387" xlink:href="#mc1c5db1369" y="134.294659"/>
     <use style="fill:#666666;stroke:#666666;" x="131.380189" xlink:href="#mc1c5db1369" y="135.668257"/>
     <use style="fill:#666666;stroke:#666666;" x="132.46599" xlink:href="#mc1c5db1369" y="143.815045"/>
     <use style="fill:#666666;stroke:#666666;" x="133.551791" xlink:href="#mc1c5db1369" y="135.990709"/>
     <use style="fill:#666666;stroke:#666666;" x="134.637592" xlink:href="#mc1c5db1369" y="141.720769"/>
     <use style="fill:#666666;stroke:#666666;" x="135.723393" xlink:href="#mc1c5db1369" y="141.957002"/>
     <use style="fill:#666666;stroke:#666666;" x="136.809194" xlink:href="#mc1c5db1369" y="140.353158"/>
     <use style="fill:#666666;stroke:#666666;" x="137.894995" xlink:href="#mc1c5db1369" y="121.836553"/>
     <use style="fill:#666666;stroke:#666666;" x="138.980797" xlink:href="#mc1c5db1369" y="132.623234"/>
     <use style="fill:#666666;stroke:#666666;" x="140.066598" xlink:href="#mc1c5db1369" y="123.035691"/>
     <use style="fill:#666666;stroke:#666666;" x="141.152399" xlink:href="#mc1c5db1369" y="127.394135"/>
     <use style="fill:#666666;stroke:#666666;" x="142.2382" xlink:href="#mc1c5db1369" y="119.074905"/>
     <use style="fill:#666666;stroke:#666666;" x="143.324001" xlink:href="#mc1c5db1369" y="118.118857"/>
     <use style="fill:#666666;stroke:#666666;" x="144.409802" xlink:href="#mc1c5db1369" y="120.787246"/>
     <use style="fill:#666666;stroke:#666666;" x="145.495604" xlink:href="#mc1c5db1369" y="128.691561"/>
     <use style="fill:#666666;stroke:#666666;" x="146.581405" xlink:href="#mc1c5db1369" y="123.525055"/>
     <use style="fill:#666666;stroke:#666666;" x="147.667206" xlink:href="#mc1c5db1369" y="118.372039"/>
     <use style="fill:#666666;stroke:#666666;" x="148.753007" xlink:href="#mc1c5db1369" y="125.759421"/>
     <use style="fill:#666666;stroke:#666666;" x="149.838808" xlink:href="#mc1c5db1369" y="126.182439"/>
     <use style="fill:#666666;stroke:#666666;" x="150.924609" xlink:href="#mc1c5db1369" y="117.198989"/>
     <use style="fill:#666666;stroke:#666666;" x="152.01041" xlink:href="#mc1c5db1369" y="123.143554"/>
     <use style="fill:#666666;stroke:#666666;" x="153.096212" xlink:href="#mc1c5db1369" y="123.594341"/>
     <use style="fill:#666666;stroke:#666666;" x="154.182013" xlink:href="#mc1c5db1369" y="130.895099"/>
     <use style="fill:#666666;stroke:#666666;" x="155.267814" xlink:href="#mc1c5db1369" y="115.347679"/>
     <use style="fill:#666666;stroke:#666666;" x="156.353615" xlink:href="#mc1c5db1369" y="116.333763"/>
     <use style="fill:#666666;stroke:#666666;" x="157.439416" xlink:href="#mc1c5db1369" y="122.114505"/>
     <use style="fill:#666666;stroke:#666666;" x="158.525217" xlink:href="#mc1c5db1369" y="109.776618"/>
     <use style="fill:#666666;stroke:#666666;" x="159.611019" xlink:href="#mc1c5db1369" y="109.775769"/>
     <use style="fill:#666666;stroke:#666666;" x="160.69682" xlink:href="#mc1c5db1369" y="107.625239"/>
     <use style="fill:#666666;stroke:#666666;" x="161.782621" xlink:href="#mc1c5db1369" y="109.419111"/>
     <use style="fill:#666666;stroke:#666666;" x="162.868422" xlink:href="#mc1c5db1369" y="115.39441"/>
     <use style="fill:#666666;stroke:#666666;" x="163.954223" xlink:href="#mc1c5db1369" y="105.284816"/>
     <use style="fill:#666666;stroke:#666666;" x="165.040024" xlink:href="#mc1c5db1369" y="114.066534"/>
     <use style="fill:#666666;stroke:#666666;" x="166.125825" xlink:href="#mc1c5db1369" y="111.525711"/>
     <use style="fill:#666666;stroke:#666666;" x="167.211627" xlink:href="#mc1c5db1369" y="116.049596"/>
     <use style="fill:#666666;stroke:#666666;" x="168.297428" xlink:href="#mc1c5db1369" y="111.327891"/>
     <use style="fill:#666666;stroke:#666666;" x="169.383229" xlink:href="#mc1c5db1369" y="115.77182"/>
     <use style="fill:#666666;stroke:#666666;" x="170.46903" xlink:href="#mc1c5db1369" y="101.867996"/>
     <use style="fill:#666666;stroke:#666666;" x="171.554831" xlink:href="#mc1c5db1369" y="114.768383"/>
     <use style="fill:#666666;stroke:#666666;" x="172.640632" xlink:href="#mc1c5db1369" y="122.541824"/>
     <use style="fill:#666666;stroke:#666666;" x="173.726434" xlink:href="#mc1c5db1369" y="102.810396"/>
     <use style="fill:#666666;stroke:#666666;" x="174.812235" xlink:href="#mc1c5db1369" y="108.382712"/>
     <use style="fill:#666666;stroke:#666666;" x="175.898036" xlink:href="#mc1c5db1369" y="97.934266"/>
     <use style="fill:#666666;stroke:#666666;" x="176.983837" xlink:href="#mc1c5db1369" y="96.010994"/>
     <use style="fill:#666666;stroke:#666666;" x="178.069638" xlink:href="#mc1c5db1369" y="98.868424"/>
     <use style="fill:#666666;stroke:#666666;" x="179.155439" xlink:href="#mc1c5db1369" y="114.301558"/>
     <use style="fill:#666666;stroke:#666666;" x="180.24124" xlink:href="#mc1c5db1369" y="120.999297"/>
     <use style="fill:#666666;stroke:#666666;" x="181.327042" xlink:href="#mc1c5db1369" y="115.749561"/>
     <use style="fill:#666666;stroke:#666666;" x="182.412843" xlink:href="#mc1c5db1369" y="100.117338"/>
     <use style="fill:#666666;stroke:#666666;" x="183.498644" xlink:href="#mc1c5db1369" y="84.991132"/>
     <use style="fill:#666666;stroke:#666666;" x="184.584445" xlink:href="#mc1c5db1369" y="87.614123"/>
     <use style="fill:#666666;stroke:#666666;" x="185.670246" xlink:href="#mc1c5db1369" y="90.364531"/>
     <use style="fill:#666666;stroke:#666666;" x="186.756047" xlink:href="#mc1c5db1369" y="91.888407"/>
     <use style="fill:#666666;stroke:#666666;" x="187.841849" xlink:href="#mc1c5db1369" y="95.483768"/>
     <use style="fill:#666666;stroke:#666666;" x="188.92765" xlink:href="#mc1c5db1369" y="94.876029"/>
     <use style="fill:#666666;stroke:#666666;" x="190.013451" xlink:href="#mc1c5db1369" y="97.517991"/>
     <use style="fill:#666666;stroke:#666666;" x="191.099252" xlink:href="#mc1c5db1369" y="93.419529"/>
     <use style="fill:#666666;stroke:#666666;" x="192.185053" xlink:href="#mc1c5db1369" y="101.39756"/>
     <use style="fill:#666666;stroke:#666666;" x="193.270854" xlink:href="#mc1c5db1369" y="91.97498"/>
     <use style="fill:#666666;stroke:#666666;" x="194.356656" xlink:href="#mc1c5db1369" y="98.450095"/>
     <use style="fill:#666666;stroke:#666666;" x="195.442457" xlink:href="#mc1c5db1369" y="98.659929"/>
     <use style="fill:#666666;stroke:#666666;" x="196.528258" xlink:href="#mc1c5db1369" y="103.599625"/>
     <use style="fill:#666666;stroke:#666666;" x="197.614059" xlink:href="#mc1c5db1369" y="103.22387"/>
     <use style="fill:#666666;stroke:#666666;" x="198.69986" xlink:href="#mc1c5db1369" y="106.756686"/>
     <use style="fill:#666666;stroke:#666666;" x="199.785661" xlink:href="#mc1c5db1369" y="120.498448"/>
     <use style="fill:#666666;stroke:#666666;" x="200.871462" xlink:href="#mc1c5db1369" y="110.33933"/>
     <use style="fill:#666666;stroke:#666666;" x="201.957264" xlink:href="#mc1c5db1369" y="105.816242"/>
     <use style="fill:#666666;stroke:#666666;" x="203.043065" xlink:href="#mc1c5db1369" y="106.782483"/>
     <use style="fill:#666666;stroke:#666666;" x="204.128866" xlink:href="#mc1c5db1369" y="110.659939"/>
     <use style="fill:#666666;stroke:#666666;" x="205.214667" xlink:href="#mc1c5db1369" y="111.307146"/>
     <use style="fill:#666666;stroke:#666666;" x="206.300468" xlink:href="#mc1c5db1369" y="107.898026"/>
     <use style="fill:#666666;stroke:#666666;" x="207.386269" xlink:href="#mc1c5db1369" y="105.60905"/>
     <use style="fill:#666666;stroke:#666666;" x="208.472071" xlink:href="#mc1c5db1369" y="98.995112"/>
     <use style="fill:#666666;stroke:#666666;" x="209.557872" xlink:href="#mc1c5db1369" y="95.017203"/>
     <use style="fill:#666666;stroke:#666666;" x="210.643673" xlink:href="#mc1c5db1369" y="106.212713"/>
     <use style="fill:#666666;stroke:#666666;" x="211.729474" xlink:href="#mc1c5db1369" y="112.801878"/>
     <use style="fill:#666666;stroke:#666666;" x="212.815275" xlink:href="#mc1c5db1369" y="100.740679"/>
     <use style="fill:#666666;stroke:#666666;" x="213.901076" xlink:href="#mc1c5db1369" y="101.159804"/>
     <use style="fill:#666666;stroke:#666666;" x="214.986877" xlink:href="#mc1c5db1369" y="116.278249"/>
     <use style="fill:#666666;stroke:#666666;" x="216.072679" xlink:href="#mc1c5db1369" y="108.421613"/>
     <use style="fill:#666666;stroke:#666666;" x="217.15848" xlink:href="#mc1c5db1369" y="111.552726"/>
     <use style="fill:#666666;stroke:#666666;" x="218.244281" xlink:href="#mc1c5db1369" y="105.251023"/>
     <use style="fill:#666666;stroke:#666666;" x="219.330082" xlink:href="#mc1c5db1369" y="105.349403"/>
     <use style="fill:#666666;stroke:#666666;" x="220.415883" xlink:href="#mc1c5db1369" y="102.702005"/>
     <use style="fill:#666666;stroke:#666666;" x="221.501684" xlink:href="#mc1c5db1369" y="99.980176"/>
     <use style="fill:#666666;stroke:#666666;" x="222.587486" xlink:href="#mc1c5db1369" y="103.621582"/>
     <use style="fill:#666666;stroke:#666666;" x="223.673287" xlink:href="#mc1c5db1369" y="102.843285"/>
     <use style="fill:#666666;stroke:#666666;" x="224.759088" xlink:href="#mc1c5db1369" y="96.101054"/>
     <use style="fill:#666666;stroke:#666666;" x="225.844889" xlink:href="#mc1c5db1369" y="92.192063"/>
     <use style="fill:#666666;stroke:#666666;" x="226.93069" xlink:href="#mc1c5db1369" y="96.103697"/>
     <use style="fill:#666666;stroke:#666666;" x="228.016491" xlink:href="#mc1c5db1369" y="88.27396"/>
     <use style="fill:#666666;stroke:#666666;" x="229.102292" xlink:href="#mc1c5db1369" y="105.404458"/>
     <use style="fill:#666666;stroke:#666666;" x="230.188094" xlink:href="#mc1c5db1369" y="99.351079"/>
     <use style="fill:#666666;stroke:#666666;" x="231.273895" xlink:href="#mc1c5db1369" y="103.581856"/>
     <use style="fill:#666666;stroke:#666666;" x="232.359696" xlink:href="#mc1c5db1369" y="104.845797"/>
     <use style="fill:#666666;stroke:#666666;" x="233.445497" xlink:href="#mc1c5db1369" y="95.88468"/>
     <use style="fill:#666666;stroke:#666666;" x="234.531298" xlink:href="#mc1c5db1369" y="97.200259"/>
     <use style="fill:#666666;stroke:#666666;" x="235.617099" xlink:href="#mc1c5db1369" y="86.321515"/>
     <use style="fill:#666666;stroke:#666666;" x="236.702901" xlink:href="#mc1c5db1369" y="93.263984"/>
     <use style="fill:#666666;stroke:#666666;" x="237.788702" xlink:href="#mc1c5db1369" y="96.787678"/>
     <use style="fill:#666666;stroke:#666666;" x="238.874503" xlink:href="#mc1c5db1369" y="96.756164"/>
     <use style="fill:#666666;stroke:#666666;" x="239.960304" xlink:href="#mc1c5db1369" y="93.235012"/>
     <use style="fill:#666666;stroke:#666666;" x="241.046105" xlink:href="#mc1c5db1369" y="87.805943"/>
     <use style="fill:#666666;stroke:#666666;" x="242.131906" xlink:href="#mc1c5db1369" y="86.796518"/>
     <use style="fill:#666666;stroke:#666666;" x="243.217708" xlink:href="#mc1c5db1369" y="79.657508"/>
     <use style="fill:#666666;stroke:#666666;" x="244.303509" xlink:href="#mc1c5db1369" y="82.51387"/>
     <use style="fill:#666666;stroke:#666666;" x="245.38931" xlink:href="#mc1c5db1369" y="77.333148"/>
     <use style="fill:#666666;stroke:#666666;" x="246.475111" xlink:href="#mc1c5db1369" y="77.74521"/>
     <use style="fill:#666666;stroke:#666666;" x="247.560912" xlink:href="#mc1c5db1369" y="80.894606"/>
     <use style="fill:#666666;stroke:#666666;" x="248.646713" xlink:href="#mc1c5db1369" y="75.252909"/>
     <use style="fill:#666666;stroke:#666666;" x="249.732514" xlink:href="#mc1c5db1369" y="74.328655"/>
     <use style="fill:#666666;stroke:#666666;" x="250.818316" xlink:href="#mc1c5db1369" y="66.796632"/>
     <use style="fill:#666666;stroke:#666666;" x="251.904117" xlink:href="#mc1c5db1369" y="63.837326"/>
     <use style="fill:#666666;stroke:#666666;" x="252.989918" xlink:href="#mc1c5db1369" y="53.589382"/>
     <use style="fill:#666666;stroke:#666666;" x="254.075719" xlink:href="#mc1c5db1369" y="69.306573"/>
     <use style="fill:#666666;stroke:#666666;" x="255.16152" xlink:href="#mc1c5db1369" y="66.459796"/>
     <use style="fill:#666666;stroke:#666666;" x="256.247321" xlink:href="#mc1c5db1369" y="75.929287"/>
     <use style="fill:#666666;stroke:#666666;" x="257.333123" xlink:href="#mc1c5db1369" y="68.04293"/>
     <use style="fill:#666666;stroke:#666666;" x="258.418924" xlink:href="#mc1c5db1369" y="77.713837"/>
     <use style="fill:#666666;stroke:#666666;" x="259.504725" xlink:href="#mc1c5db1369" y="72.898561"/>
     <use style="fill:#666666;stroke:#666666;" x="260.590526" xlink:href="#mc1c5db1369" y="88.678395"/>
     <use style="fill:#666666;stroke:#666666;" x="261.676327" xlink:href="#mc1c5db1369" y="75.896788"/>
     <use style="fill:#666666;stroke:#666666;" x="262.762128" xlink:href="#mc1c5db1369" y="74.830374"/>
     <use style="fill:#666666;stroke:#666666;" x="263.847929" xlink:href="#mc1c5db1369" y="76.936582"/>
     <use style="fill:#666666;stroke:#666666;" x="264.933731" xlink:href="#mc1c5db1369" y="77.127109"/>
     <use style="fill:#666666;stroke:#666666;" x="266.019532" xlink:href="#mc1c5db1369" y="78.623064"/>
     <use style="fill:#666666;stroke:#666666;" x="267.105333" xlink:href="#mc1c5db1369" y="84.822588"/>
     <use style="fill:#666666;stroke:#666666;" x="268.191134" xlink:href="#mc1c5db1369" y="75.750791"/>
     <use style="fill:#666666;stroke:#666666;" x="269.276935" xlink:href="#mc1c5db1369" y="84.142142"/>
     <use style="fill:#666666;stroke:#666666;" x="270.362736" xlink:href="#mc1c5db1369" y="86.559971"/>
     <use style="fill:#666666;stroke:#666666;" x="271.448538" xlink:href="#mc1c5db1369" y="83.39934"/>
     <use style="fill:#666666;stroke:#666666;" x="272.534339" xlink:href="#mc1c5db1369" y="87.179176"/>
     <use style="fill:#666666;stroke:#666666;" x="273.62014" xlink:href="#mc1c5db1369" y="84.25498"/>
     <use style="fill:#666666;stroke:#666666;" x="274.705941" xlink:href="#mc1c5db1369" y="87.728363"/>
     <use style="fill:#666666;stroke:#666666;" x="275.791742" xlink:href="#mc1c5db1369" y="98.649573"/>
     <use style="fill:#666666;stroke:#666666;" x="276.877543" xlink:href="#mc1c5db1369" y="79.190829"/>
     <use style="fill:#666666;stroke:#666666;" x="277.963344" xlink:href="#mc1c5db1369" y="92.395481"/>
     <use style="fill:#666666;stroke:#666666;" x="279.049146" xlink:href="#mc1c5db1369" y="94.026603"/>
     <use style="fill:#666666;stroke:#666666;" x="280.134947" xlink:href="#mc1c5db1369" y="91.34952"/>
     <use style="fill:#666666;stroke:#666666;" x="281.220748" xlink:href="#mc1c5db1369" y="98.909815"/>
     <use style="fill:#666666;stroke:#666666;" x="282.306549" xlink:href="#mc1c5db1369" y="94.072927"/>
     <use style="fill:#666666;stroke:#666666;" x="283.39235" xlink:href="#mc1c5db1369" y="96.159185"/>
     <use style="fill:#666666;stroke:#666666;" x="284.478151" xlink:href="#mc1c5db1369" y="97.847155"/>
     <use style="fill:#666666;stroke:#666666;" x="285.563953" xlink:href="#mc1c5db1369" y="94.285045"/>
     <use style="fill:#666666;stroke:#666666;" x="286.649754" xlink:href="#mc1c5db1369" y="97.465053"/>
     <use style="fill:#666666;stroke:#666666;" x="287.735555" xlink:href="#mc1c5db1369" y="94.158076"/>
     <use style="fill:#666666;stroke:#666666;" x="288.821356" xlink:href="#mc1c5db1369" y="89.0031"/>
     <use style="fill:#666666;stroke:#666666;" x="289.907157" xlink:href="#mc1c5db1369" y="90.292011"/>
     <use style="fill:#666666;stroke:#666666;" x="290.992958" xlink:href="#mc1c5db1369" y="86.082148"/>
     <use style="fill:#666666;stroke:#666666;" x="292.07876" xlink:href="#mc1c5db1369" y="76.395092"/>
     <use style="fill:#666666;stroke:#666666;" x="293.164561" xlink:href="#mc1c5db1369" y="76.652084"/>
     <use style="fill:#666666;stroke:#666666;" x="294.250362" xlink:href="#mc1c5db1369" y="71.016157"/>
     <use style="fill:#666666;stroke:#666666;" x="295.336163" xlink:href="#mc1c5db1369" y="75.931371"/>
     <use style="fill:#666666;stroke:#666666;" x="296.421964" xlink:href="#mc1c5db1369" y="70.471071"/>
     <use style="fill:#666666;stroke:#666666;" x="297.507765" xlink:href="#mc1c5db1369" y="75.047208"/>
     <use style="fill:#666666;stroke:#666666;" x="298.593566" xlink:href="#mc1c5db1369" y="67.802617"/>
     <use style="fill:#666666;stroke:#666666;" x="299.679368" xlink:href="#mc1c5db1369" y="54.066797"/>
     <use style="fill:#666666;stroke:#666666;" x="300.765169" xlink:href="#mc1c5db1369" y="59.710697"/>
     <use style="fill:#666666;stroke:#666666;" x="301.85097" xlink:href="#mc1c5db1369" y="79.553626"/>
     <use style="fill:#666666;stroke:#666666;" x="302.936771" xlink:href="#mc1c5db1369" y="77.083714"/>
     <use style="fill:#666666;stroke:#666666;" x="304.022572" xlink:href="#mc1c5db1369" y="71.987059"/>
     <use style="fill:#666666;stroke:#666666;" x="305.108373" xlink:href="#mc1c5db1369" y="72.069385"/>
     <use style="fill:#666666;stroke:#666666;" x="306.194175" xlink:href="#mc1c5db1369" y="75.923892"/>
     <use style="fill:#666666;stroke:#666666;" x="307.279976" xlink:href="#mc1c5db1369" y="80.206437"/>
     <use style="fill:#666666;stroke:#666666;" x="308.365777" xlink:href="#mc1c5db1369" y="84.45045"/>
     <use style="fill:#666666;stroke:#666666;" x="309.451578" xlink:href="#mc1c5db1369" y="80.070555"/>
     <use style="fill:#666666;stroke:#666666;" x="310.537379" xlink:href="#mc1c5db1369" y="80.182673"/>
     <use style="fill:#666666;stroke:#666666;" x="311.62318" xlink:href="#mc1c5db1369" y="79.927591"/>
     <use style="fill:#666666;stroke:#666666;" x="312.708981" xlink:href="#mc1c5db1369" y="87.264219"/>
     <use style="fill:#666666;stroke:#666666;" x="313.794783" xlink:href="#mc1c5db1369" y="81.997135"/>
     <use style="fill:#666666;stroke:#666666;" x="314.880584" xlink:href="#mc1c5db1369" y="81.048674"/>
     <use style="fill:#666666;stroke:#666666;" x="315.966385" xlink:href="#mc1c5db1369" y="82.454756"/>
     <use style="fill:#666666;stroke:#666666;" x="317.052186" xlink:href="#mc1c5db1369" y="77.758078"/>
     <use style="fill:#666666;stroke:#666666;" x="318.137987" xlink:href="#mc1c5db1369" y="80.489916"/>
     <use style="fill:#666666;stroke:#666666;" x="319.223788" xlink:href="#mc1c5db1369" y="90.848506"/>
     <use style="fill:#666666;stroke:#666666;" x="320.30959" xlink:href="#mc1c5db1369" y="90.772494"/>
     <use style="fill:#666666;stroke:#666666;" x="321.395391" xlink:href="#mc1c5db1369" y="88.668014"/>
     <use style="fill:#666666;stroke:#666666;" x="322.481192" xlink:href="#mc1c5db1369" y="87.662361"/>
     <use style="fill:#666666;stroke:#666666;" x="323.566993" xlink:href="#mc1c5db1369" y="87.822011"/>
     <use style="fill:#666666;stroke:#666666;" x="324.652794" xlink:href="#mc1c5db1369" y="89.421545"/>
     <use style="fill:#666666;stroke:#666666;" x="325.738595" xlink:href="#mc1c5db1369" y="79.6982"/>
     <use style="fill:#666666;stroke:#666666;" x="326.824396" xlink:href="#mc1c5db1369" y="80.080658"/>
     <use style="fill:#666666;stroke:#666666;" x="327.910198" xlink:href="#mc1c5db1369" y="83.191548"/>
     <use style="fill:#666666;stroke:#666666;" x="328.995999" xlink:href="#mc1c5db1369" y="85.139954"/>
     <use style="fill:#666666;stroke:#666666;" x="330.0818" xlink:href="#mc1c5db1369" y="73.984243"/>
     <use style="fill:#666666;stroke:#666666;" x="331.167601" xlink:href="#mc1c5db1369" y="82.760506"/>
     <use style="fill:#666666;stroke:#666666;" x="332.253402" xlink:href="#mc1c5db1369" y="87.938158"/>
     <use style="fill:#666666;stroke:#666666;" x="333.339203" xlink:href="#mc1c5db1369" y="95.383513"/>
     <use style="fill:#666666;stroke:#666666;" x="334.425005" xlink:href="#mc1c5db1369" y="83.577773"/>
     <use style="fill:#666666;stroke:#666666;" x="335.510806" xlink:href="#mc1c5db1369" y="77.00096"/>
     <use style="fill:#666666;stroke:#666666;" x="336.596607" xlink:href="#mc1c5db1369" y="83.260765"/>
     <use style="fill:#666666;stroke:#666666;" x="337.682408" xlink:href="#mc1c5db1369" y="77.928427"/>
     <use style="fill:#666666;stroke:#666666;" x="338.768209" xlink:href="#mc1c5db1369" y="80.424496"/>
     <use style="fill:#666666;stroke:#666666;" x="339.85401" xlink:href="#mc1c5db1369" y="80.07888"/>
     <use style="fill:#666666;stroke:#666666;" x="340.939811" xlink:href="#mc1c5db1369" y="77.547659"/>
     <use style="fill:#666666;stroke:#666666;" x="342.025613" xlink:href="#mc1c5db1369" y="72.853308"/>
     <use style="fill:#666666;stroke:#666666;" x="343.111414" xlink:href="#mc1c5db1369" y="79.496433"/>
     <use style="fill:#666666;stroke:#666666;" x="344.197215" xlink:href="#mc1c5db1369" y="74.587473"/>
     <use style="fill:#666666;stroke:#666666;" x="345.283016" xlink:href="#mc1c5db1369" y="80.703923"/>
     <use style="fill:#666666;stroke:#666666;" x="346.368817" xlink:href="#mc1c5db1369" y="79.849221"/>
     <use style="fill:#666666;stroke:#666666;" x="347.454618" xlink:href="#mc1c5db1369" y="77.875698"/>
     <use style="fill:#666666;stroke:#666666;" x="348.54042" xlink:href="#mc1c5db1369" y="84.33002"/>
     <use style="fill:#666666;stroke:#666666;" x="349.626221" xlink:href="#mc1c5db1369" y="74.135463"/>
     <use style="fill:#666666;stroke:#666666;" x="350.712022" xlink:href="#mc1c5db1369" y="76.696523"/>
     <use style="fill:#666666;stroke:#666666;" x="351.797823" xlink:href="#mc1c5db1369" y="82.535176"/>
     <use style="fill:#666666;stroke:#666666;" x="352.883624" xlink:href="#mc1c5db1369" y="83.290545"/>
     <use style="fill:#666666;stroke:#666666;" x="353.969425" xlink:href="#mc1c5db1369" y="88.645675"/>
     <use style="fill:#666666;stroke:#666666;" x="355.055227" xlink:href="#mc1c5db1369" y="84.172282"/>
     <use style="fill:#666666;stroke:#666666;" x="356.141028" xlink:href="#mc1c5db1369" y="86.002602"/>
     <use style="fill:#666666;stroke:#666666;" x="357.226829" xlink:href="#mc1c5db1369" y="84.679658"/>
     <use style="fill:#666666;stroke:#666666;" x="358.31263" xlink:href="#mc1c5db1369" y="77.845967"/>
     <use style="fill:#666666;stroke:#666666;" x="359.398431" xlink:href="#mc1c5db1369" y="76.715598"/>
     <use style="fill:#666666;stroke:#666666;" x="360.484232" xlink:href="#mc1c5db1369" y="85.63993"/>
     <use style="fill:#666666;stroke:#666666;" x="361.570033" xlink:href="#mc1c5db1369" y="83.437996"/>
     <use style="fill:#666666;stroke:#666666;" x="362.655835" xlink:href="#mc1c5db1369" y="85.404566"/>
     <use style="fill:#666666;stroke:#666666;" x="363.741636" xlink:href="#mc1c5db1369" y="83.57597"/>
     <use style="fill:#666666;stroke:#666666;" x="364.827437" xlink:href="#mc1c5db1369" y="76.052102"/>
     <use style="fill:#666666;stroke:#666666;" x="365.913238" xlink:href="#mc1c5db1369" y="71.437769"/>
     <use style="fill:#666666;stroke:#666666;" x="366.999039" xlink:href="#mc1c5db1369" y="63.763463"/>
     <use style="fill:#666666;stroke:#666666;" x="368.08484" xlink:href="#mc1c5db1369" y="70.590789"/>
     <use style="fill:#666666;stroke:#666666;" x="369.170642" xlink:href="#mc1c5db1369" y="68.00203"/>
     <use style="fill:#666666;stroke:#666666;" x="370.256443" xlink:href="#mc1c5db1369" y="69.204846"/>
     <use style="fill:#666666;stroke:#666666;" x="371.342244" xlink:href="#mc1c5db1369" y="72.325008"/>
     <use style="fill:#666666;stroke:#666666;" x="372.428045" xlink:href="#mc1c5db1369" y="54.970048"/>
     <use style="fill:#666666;stroke:#666666;" x="373.513846" xlink:href="#mc1c5db1369" y="59.766629"/>
     <use style="fill:#666666;stroke:#666666;" x="374.599647" xlink:href="#mc1c5db1369" y="61.669974"/>
     <use style="fill:#666666;stroke:#666666;" x="375.685448" xlink:href="#mc1c5db1369" y="66.069834"/>
     <use style="fill:#666666;stroke:#666666;" x="376.77125" xlink:href="#mc1c5db1369" y="69.231081"/>
     <use style="fill:#666666;stroke:#666666;" x="377.857051" xlink:href="#mc1c5db1369" y="72.087547"/>
     <use style="fill:#666666;stroke:#666666;" x="378.942852" xlink:href="#mc1c5db1369" y="67.904734"/>
     <use style="fill:#666666;stroke:#666666;" x="380.028653" xlink:href="#mc1c5db1369" y="71.742271"/>
     <use style="fill:#666666;stroke:#666666;" x="381.114454" xlink:href="#mc1c5db1369" y="73.029287"/>
     <use style="fill:#666666;stroke:#666666;" x="382.200255" xlink:href="#mc1c5db1369" y="64.089059"/>
     <use style="fill:#666666;stroke:#666666;" x="383.286057" xlink:href="#mc1c5db1369" y="70.477022"/>
     <use style="fill:#666666;stroke:#666666;" x="384.371858" xlink:href="#mc1c5db1369" y="66.142936"/>
     <use style="fill:#666666;stroke:#666666;" x="385.457659" xlink:href="#mc1c5db1369" y="77.521494"/>
     <use style="fill:#666666;stroke:#666666;" x="386.54346" xlink:href="#mc1c5db1369" y="68.038698"/>
     <use style="fill:#666666;stroke:#666666;" x="387.629261" xlink:href="#mc1c5db1369" y="53.568"/>
     <use style="fill:#666666;stroke:#666666;" x="388.715062" xlink:href="#mc1c5db1369" y="62.924858"/>
     <use style="fill:#666666;stroke:#666666;" x="389.800863" xlink:href="#mc1c5db1369" y="75.731968"/>
     <use style="fill:#666666;stroke:#666666;" x="390.886665" xlink:href="#mc1c5db1369" y="69.547375"/>
     <use style="fill:#666666;stroke:#666666;" x="391.972466" xlink:href="#mc1c5db1369" y="71.122812"/>
     <use style="fill:#666666;stroke:#666666;" x="393.058267" xlink:href="#mc1c5db1369" y="70.831078"/>
     <use style="fill:#666666;stroke:#666666;" x="394.144068" xlink:href="#mc1c5db1369" y="70.977644"/>
     <use style="fill:#666666;stroke:#666666;" x="395.229869" xlink:href="#mc1c5db1369" y="65.917077"/>
     <use style="fill:#666666;stroke:#666666;" x="396.31567" xlink:href="#mc1c5db1369" y="64.369426"/>
     <use style="fill:#666666;stroke:#666666;" x="397.401472" xlink:href="#mc1c5db1369" y="78.745457"/>
     <use style="fill:#666666;stroke:#666666;" x="398.487273" xlink:href="#mc1c5db1369" y="72.787337"/>
    </g>
   </g>
   <g id="patch_3">
    <path d="M 57.6 307.584 
L 57.6 41.472 
" style="fill:none;stroke:#000000;stroke-linecap:square;stroke-linejoin:miter;stroke-width:0.8;"/>
   </g>
   <g id="patch_4">
    <path d="M 414.72 307.584 
L 414.72 41.472 
" style="fill:none;stroke:#000000;stroke-linecap:square;stroke-linejoin:miter;stroke-width:0.8;"/>
   </g>
   <g id="patch_5">
    <path d="M 57.6 307.584 
L 414.72 307.584 
" style="fill:none;stroke:#000000;stroke-linecap:square;stroke-linejoin:miter;stroke-width:0.8;"/>
   </g>
   <g id="patch_6">
    <path d="M 57.6 41.472 
L 414.72 41.472 
" style="fill:none;stroke:#000000;stroke-linecap:square;stroke-linejoin:miter;stroke-width:0.8;"/>
   </g>
  </g>
 </g>
 <defs>
  <clipPath id="pc83efb29f5">
   <rect height="266.112" width="357.12" x="57.6" y="41.472"/>
  </clipPath>
 </defs>
</svg>
