<?xml version="1.0" encoding="utf-8" standalone="no"?>
<!DOCTYPE svg PUBLIC "-//W3C//DTD SVG 1.1//EN"
  "http://www.w3.org/Graphics/SVG/1.1/DTD/svg11.dtd">
<!-- Created with matplotlib (http://matplotlib.org/) -->
<svg height="345.6pt" version="1.1" viewBox="0 0 460.8 345.6" width="460.8pt" xmlns="http://www.w3.org/2000/svg" xmlns:xlink="http://www.w3.org/1999/xlink">
 <defs>
  <style type="text/css">
*{stroke-linecap:butt;stroke-linejoin:round;}
  </style>
 </defs>
 <g id="figure_1">
  <g id="patch_1">
   <path d="M 0 345.6 
L 460.8 345.6 
L 460.8 0 
L 0 0 
z
" style="fill:#ffffff;"/>
  </g>
  <g id="axes_1">
   <g id="patch_2">
    <path d="M 47.72 287.8 
L 447.48 287.8 
L 447.48 13.32 
L 47.72 13.32 
z
" style="fill:#ffffff;"/>
   </g>
   <g id="matplotlib.axis_1">
    <g id="xtick_1">
     <g id="line2d_1">
      <defs>
       <path d="M 0 0 
L 0 3.5 
" id="mccf45758f7" style="stroke:#000000;stroke-width:0.8;"/>
      </defs>
      <g>
       <use style="stroke:#000000;stroke-width:0.8;" x="47.72" xlink:href="#mccf45758f7" y="287.8"/>
      </g>
     </g>
     <g id="text_1">
      <!-- A87 -->
      <defs>
       <path d="M 34.1875 63.1875 
L 20.796875 26.90625 
L 47.609375 26.90625 
z
M 28.609375 72.90625 
L 39.796875 72.90625 
L 67.578125 0 
L 57.328125 0 
L 50.6875 18.703125 
L 17.828125 18.703125 
L 11.1875 0 
L 0.78125 0 
z
" id="DejaVuSans-41"/>
       <path d="M 31.78125 34.625 
Q 24.75 34.625 20.71875 30.859375 
Q 16.703125 27.09375 16.703125 20.515625 
Q 16.703125 13.921875 20.71875 10.15625 
Q 24.75 6.390625 31.78125 6.390625 
Q 38.8125 6.390625 42.859375 10.171875 
Q 46.921875 13.96875 46.921875 20.515625 
Q 46.921875 27.09375 42.890625 30.859375 
Q 38.875 34.625 31.78125 34.625 
z
M 21.921875 38.8125 
Q 15.578125 40.375 12.03125 44.71875 
Q 8.5 49.078125 8.5 55.328125 
Q 8.5 64.0625 14.71875 69.140625 
Q 20.953125 74.21875 31.78125 74.21875 
Q 42.671875 74.21875 48.875 69.140625 
Q 55.078125 64.0625 55.078125 55.328125 
Q 55.078125 49.078125 51.53125 44.71875 
Q 48 40.375 41.703125 38.8125 
Q 48.828125 37.15625 52.796875 32.3125 
Q 56.78125 27.484375 56.78125 20.515625 
Q 56.78125 9.90625 50.3125 4.234375 
Q 43.84375 -1.421875 31.78125 -1.421875 
Q 19.734375 -1.421875 13.25 4.234375 
Q 6.78125 9.90625 6.78125 20.515625 
Q 6.78125 27.484375 10.78125 32.3125 
Q 14.796875 37.15625 21.921875 38.8125 
z
M 18.3125 54.390625 
Q 18.3125 48.734375 21.84375 45.5625 
Q 25.390625 42.390625 31.78125 42.390625 
Q 38.140625 42.390625 41.71875 45.5625 
Q 45.3125 48.734375 45.3125 54.390625 
Q 45.3125 60.0625 41.71875 63.234375 
Q 38.140625 66.40625 31.78125 66.40625 
Q 25.390625 66.40625 21.84375 63.234375 
Q 18.3125 60.0625 18.3125 54.390625 
z
" id="DejaVuSans-38"/>
       <path d="M 8.203125 72.90625 
L 55.078125 72.90625 
L 55.078125 68.703125 
L 28.609375 0 
L 18.3125 0 
L 43.21875 64.59375 
L 8.203125 64.59375 
z
" id="DejaVuSans-37"/>
      </defs>
      <g transform="translate(50.479375 314.365625)rotate(-90)scale(0.1 -0.1)">
       <use xlink:href="#DejaVuSans-41"/>
       <use x="68.408203" xlink:href="#DejaVuSans-38"/>
       <use x="132.03125" xlink:href="#DejaVuSans-37"/>
      </g>
     </g>
    </g>
    <g id="xtick_2">
     <g id="line2d_2">
      <g>
       <use style="stroke:#000000;stroke-width:0.8;" x="65.526682" xlink:href="#mccf45758f7" y="287.8"/>
      </g>
     </g>
     <g id="text_2">
      <!-- A107 -->
      <defs>
       <path d="M 12.40625 8.296875 
L 28.515625 8.296875 
L 28.515625 63.921875 
L 10.984375 60.40625 
L 10.984375 69.390625 
L 28.421875 72.90625 
L 38.28125 72.90625 
L 38.28125 8.296875 
L 54.390625 8.296875 
L 54.390625 0 
L 12.40625 0 
z
" id="DejaVuSans-31"/>
       <path d="M 31.78125 66.40625 
Q 24.171875 66.40625 20.328125 58.90625 
Q 16.5 51.421875 16.5 36.375 
Q 16.5 21.390625 20.328125 13.890625 
Q 24.171875 6.390625 31.78125 6.390625 
Q 39.453125 6.390625 43.28125 13.890625 
Q 47.125 21.390625 47.125 36.375 
Q 47.125 51.421875 43.28125 58.90625 
Q 39.453125 66.40625 31.78125 66.40625 
z
M 31.78125 74.21875 
Q 44.046875 74.21875 50.515625 64.515625 
Q 56.984375 54.828125 56.984375 36.375 
Q 56.984375 17.96875 50.515625 8.265625 
Q 44.046875 -1.421875 31.78125 -1.421875 
Q 19.53125 -1.421875 13.0625 8.265625 
Q 6.59375 17.96875 6.59375 36.375 
Q 6.59375 54.828125 13.0625 64.515625 
Q 19.53125 74.21875 31.78125 74.21875 
z
" id="DejaVuSans-30"/>
      </defs>
      <g transform="translate(68.286057 320.728125)rotate(-90)scale(0.1 -0.1)">
       <use xlink:href="#DejaVuSans-41"/>
       <use x="68.408203" xlink:href="#DejaVuSans-31"/>
       <use x="132.03125" xlink:href="#DejaVuSans-30"/>
       <use x="195.654297" xlink:href="#DejaVuSans-37"/>
      </g>
     </g>
    </g>
    <g id="xtick_3">
     <g id="line2d_3">
      <g>
       <use style="stroke:#000000;stroke-width:0.8;" x="83.333363" xlink:href="#mccf45758f7" y="287.8"/>
      </g>
     </g>
     <g id="text_3">
      <!-- A127 -->
      <defs>
       <path d="M 19.1875 8.296875 
L 53.609375 8.296875 
L 53.609375 0 
L 7.328125 0 
L 7.328125 8.296875 
Q 12.9375 14.109375 22.625 23.890625 
Q 32.328125 33.6875 34.8125 36.53125 
Q 39.546875 41.84375 41.421875 45.53125 
Q 43.3125 49.21875 43.3125 52.78125 
Q 43.3125 58.59375 39.234375 62.25 
Q 35.15625 65.921875 28.609375 65.921875 
Q 23.96875 65.921875 18.8125 64.3125 
Q 13.671875 62.703125 7.8125 59.421875 
L 7.8125 69.390625 
Q 13.765625 71.78125 18.9375 73 
Q 24.125 74.21875 28.421875 74.21875 
Q 39.75 74.21875 46.484375 68.546875 
Q 53.21875 62.890625 53.21875 53.421875 
Q 53.21875 48.921875 51.53125 44.890625 
Q 49.859375 40.875 45.40625 35.40625 
Q 44.1875 33.984375 37.640625 27.21875 
Q 31.109375 20.453125 19.1875 8.296875 
z
" id="DejaVuSans-32"/>
      </defs>
      <g transform="translate(86.092738 320.728125)rotate(-90)scale(0.1 -0.1)">
       <use xlink:href="#DejaVuSans-41"/>
       <use x="68.408203" xlink:href="#DejaVuSans-31"/>
       <use x="132.03125" xlink:href="#DejaVuSans-32"/>
       <use x="195.654297" xlink:href="#DejaVuSans-37"/>
      </g>
     </g>
    </g>
    <g id="xtick_4">
     <g id="line2d_4">
      <g>
       <use style="stroke:#000000;stroke-width:0.8;" x="101.140045" xlink:href="#mccf45758f7" y="287.8"/>
      </g>
     </g>
     <g id="text_4">
      <!-- A147 -->
      <defs>
       <path d="M 37.796875 64.3125 
L 12.890625 25.390625 
L 37.796875 25.390625 
z
M 35.203125 72.90625 
L 47.609375 72.90625 
L 47.609375 25.390625 
L 58.015625 25.390625 
L 58.015625 17.1875 
L 47.609375 17.1875 
L 47.609375 0 
L 37.796875 0 
L 37.796875 17.1875 
L 4.890625 17.1875 
L 4.890625 26.703125 
z
" id="DejaVuSans-34"/>
      </defs>
      <g transform="translate(103.89942 320.728125)rotate(-90)scale(0.1 -0.1)">
       <use xlink:href="#DejaVuSans-41"/>
       <use x="68.408203" xlink:href="#DejaVuSans-31"/>
       <use x="132.03125" xlink:href="#DejaVuSans-34"/>
       <use x="195.654297" xlink:href="#DejaVuSans-37"/>
      </g>
     </g>
    </g>
    <g id="xtick_5">
     <g id="line2d_5">
      <g>
       <use style="stroke:#000000;stroke-width:0.8;" x="118.946726" xlink:href="#mccf45758f7" y="287.8"/>
      </g>
     </g>
     <g id="text_5">
      <!-- A167 -->
      <defs>
       <path d="M 33.015625 40.375 
Q 26.375 40.375 22.484375 35.828125 
Q 18.609375 31.296875 18.609375 23.390625 
Q 18.609375 15.53125 22.484375 10.953125 
Q 26.375 6.390625 33.015625 6.390625 
Q 39.65625 6.390625 43.53125 10.953125 
Q 47.40625 15.53125 47.40625 23.390625 
Q 47.40625 31.296875 43.53125 35.828125 
Q 39.65625 40.375 33.015625 40.375 
z
M 52.59375 71.296875 
L 52.59375 62.3125 
Q 48.875 64.0625 45.09375 64.984375 
Q 41.3125 65.921875 37.59375 65.921875 
Q 27.828125 65.921875 22.671875 59.328125 
Q 17.53125 52.734375 16.796875 39.40625 
Q 19.671875 43.65625 24.015625 45.921875 
Q 28.375 48.1875 33.59375 48.1875 
Q 44.578125 48.1875 50.953125 41.515625 
Q 57.328125 34.859375 57.328125 23.390625 
Q 57.328125 12.15625 50.6875 5.359375 
Q 44.046875 -1.421875 33.015625 -1.421875 
Q 20.359375 -1.421875 13.671875 8.265625 
Q 6.984375 17.96875 6.984375 36.375 
Q 6.984375 53.65625 15.1875 63.9375 
Q 23.390625 74.21875 37.203125 74.21875 
Q 40.921875 74.21875 44.703125 73.484375 
Q 48.484375 72.75 52.59375 71.296875 
z
" id="DejaVuSans-36"/>
      </defs>
      <g transform="translate(121.706101 320.728125)rotate(-90)scale(0.1 -0.1)">
       <use xlink:href="#DejaVuSans-41"/>
       <use x="68.408203" xlink:href="#DejaVuSans-31"/>
       <use x="132.03125" xlink:href="#DejaVuSans-36"/>
       <use x="195.654297" xlink:href="#DejaVuSans-37"/>
      </g>
     </g>
    </g>
    <g id="xtick_6">
     <g id="line2d_6">
      <g>
       <use style="stroke:#000000;stroke-width:0.8;" x="136.753408" xlink:href="#mccf45758f7" y="287.8"/>
      </g>
     </g>
     <g id="text_6">
      <!-- A187 -->
      <g transform="translate(139.512783 320.728125)rotate(-90)scale(0.1 -0.1)">
       <use xlink:href="#DejaVuSans-41"/>
       <use x="68.408203" xlink:href="#DejaVuSans-31"/>
       <use x="132.03125" xlink:href="#DejaVuSans-38"/>
       <use x="195.654297" xlink:href="#DejaVuSans-37"/>
      </g>
     </g>
    </g>
    <g id="xtick_7">
     <g id="line2d_7">
      <g>
       <use style="stroke:#000000;stroke-width:0.8;" x="154.560089" xlink:href="#mccf45758f7" y="287.8"/>
      </g>
     </g>
     <g id="text_7">
      <!-- A207 -->
      <g transform="translate(157.319464 320.728125)rotate(-90)scale(0.1 -0.1)">
       <use xlink:href="#DejaVuSans-41"/>
       <use x="68.408203" xlink:href="#DejaVuSans-32"/>
       <use x="132.03125" xlink:href="#DejaVuSans-30"/>
       <use x="195.654297" xlink:href="#DejaVuSans-37"/>
      </g>
     </g>
    </g>
    <g id="xtick_8">
     <g id="line2d_8">
      <g>
       <use style="stroke:#000000;stroke-width:0.8;" x="172.366771" xlink:href="#mccf45758f7" y="287.8"/>
      </g>
     </g>
     <g id="text_8">
      <!-- A227 -->
      <g transform="translate(175.126146 320.728125)rotate(-90)scale(0.1 -0.1)">
       <use xlink:href="#DejaVuSans-41"/>
       <use x="68.408203" xlink:href="#DejaVuSans-32"/>
       <use x="132.03125" xlink:href="#DejaVuSans-32"/>
       <use x="195.654297" xlink:href="#DejaVuSans-37"/>
      </g>
     </g>
    </g>
    <g id="xtick_9">
     <g id="line2d_9">
      <g>
       <use style="stroke:#000000;stroke-width:0.8;" x="190.173452" xlink:href="#mccf45758f7" y="287.8"/>
      </g>
     </g>
     <g id="text_9">
      <!-- A247 -->
      <g transform="translate(192.932827 320.728125)rotate(-90)scale(0.1 -0.1)">
       <use xlink:href="#DejaVuSans-41"/>
       <use x="68.408203" xlink:href="#DejaVuSans-32"/>
       <use x="132.03125" xlink:href="#DejaVuSans-34"/>
       <use x="195.654297" xlink:href="#DejaVuSans-37"/>
      </g>
     </g>
    </g>
    <g id="xtick_10">
     <g id="line2d_10">
      <g>
       <use style="stroke:#000000;stroke-width:0.8;" x="207.980134" xlink:href="#mccf45758f7" y="287.8"/>
      </g>
     </g>
     <g id="text_10">
      <!-- A267 -->
      <g transform="translate(210.739509 320.728125)rotate(-90)scale(0.1 -0.1)">
       <use xlink:href="#DejaVuSans-41"/>
       <use x="68.408203" xlink:href="#DejaVuSans-32"/>
       <use x="132.03125" xlink:href="#DejaVuSans-36"/>
       <use x="195.654297" xlink:href="#DejaVuSans-37"/>
      </g>
     </g>
    </g>
    <g id="xtick_11">
     <g id="line2d_11">
      <g>
       <use style="stroke:#000000;stroke-width:0.8;" x="225.786815" xlink:href="#mccf45758f7" y="287.8"/>
      </g>
     </g>
     <g id="text_11">
      <!-- A287 -->
      <g transform="translate(228.54619 320.728125)rotate(-90)scale(0.1 -0.1)">
       <use xlink:href="#DejaVuSans-41"/>
       <use x="68.408203" xlink:href="#DejaVuSans-32"/>
       <use x="132.03125" xlink:href="#DejaVuSans-38"/>
       <use x="195.654297" xlink:href="#DejaVuSans-37"/>
      </g>
     </g>
    </g>
    <g id="xtick_12">
     <g id="line2d_12">
      <g>
       <use style="stroke:#000000;stroke-width:0.8;" x="243.593497" xlink:href="#mccf45758f7" y="287.8"/>
      </g>
     </g>
     <g id="text_12">
      <!-- A307 -->
      <defs>
       <path d="M 40.578125 39.3125 
Q 47.65625 37.796875 51.625 33 
Q 55.609375 28.21875 55.609375 21.1875 
Q 55.609375 10.40625 48.1875 4.484375 
Q 40.765625 -1.421875 27.09375 -1.421875 
Q 22.515625 -1.421875 17.65625 -0.515625 
Q 12.796875 0.390625 7.625 2.203125 
L 7.625 11.71875 
Q 11.71875 9.328125 16.59375 8.109375 
Q 21.484375 6.890625 26.8125 6.890625 
Q 36.078125 6.890625 40.9375 10.546875 
Q 45.796875 14.203125 45.796875 21.1875 
Q 45.796875 27.640625 41.28125 31.265625 
Q 36.765625 34.90625 28.71875 34.90625 
L 20.21875 34.90625 
L 20.21875 43.015625 
L 29.109375 43.015625 
Q 36.375 43.015625 40.234375 45.921875 
Q 44.09375 48.828125 44.09375 54.296875 
Q 44.09375 59.90625 40.109375 62.90625 
Q 36.140625 65.921875 28.71875 65.921875 
Q 24.65625 65.921875 20.015625 65.03125 
Q 15.375 64.15625 9.8125 62.3125 
L 9.8125 71.09375 
Q 15.4375 72.65625 20.34375 73.4375 
Q 25.25 74.21875 29.59375 74.21875 
Q 40.828125 74.21875 47.359375 69.109375 
Q 53.90625 64.015625 53.90625 55.328125 
Q 53.90625 49.265625 50.4375 45.09375 
Q 46.96875 40.921875 40.578125 39.3125 
z
" id="DejaVuSans-33"/>
      </defs>
      <g transform="translate(246.352872 320.728125)rotate(-90)scale(0.1 -0.1)">
       <use xlink:href="#DejaVuSans-41"/>
       <use x="68.408203" xlink:href="#DejaVuSans-33"/>
       <use x="132.03125" xlink:href="#DejaVuSans-30"/>
       <use x="195.654297" xlink:href="#DejaVuSans-37"/>
      </g>
     </g>
    </g>
    <g id="xtick_13">
     <g id="line2d_13">
      <g>
       <use style="stroke:#000000;stroke-width:0.8;" x="261.400178" xlink:href="#mccf45758f7" y="287.8"/>
      </g>
     </g>
     <g id="text_13">
      <!-- A327 -->
      <g transform="translate(264.159553 320.728125)rotate(-90)scale(0.1 -0.1)">
       <use xlink:href="#DejaVuSans-41"/>
       <use x="68.408203" xlink:href="#DejaVuSans-33"/>
       <use x="132.03125" xlink:href="#DejaVuSans-32"/>
       <use x="195.654297" xlink:href="#DejaVuSans-37"/>
      </g>
     </g>
    </g>
    <g id="xtick_14">
     <g id="line2d_14">
      <g>
       <use style="stroke:#000000;stroke-width:0.8;" x="279.20686" xlink:href="#mccf45758f7" y="287.8"/>
      </g>
     </g>
     <g id="text_14">
      <!-- A347 -->
      <g transform="translate(281.966235 320.728125)rotate(-90)scale(0.1 -0.1)">
       <use xlink:href="#DejaVuSans-41"/>
       <use x="68.408203" xlink:href="#DejaVuSans-33"/>
       <use x="132.03125" xlink:href="#DejaVuSans-34"/>
       <use x="195.654297" xlink:href="#DejaVuSans-37"/>
      </g>
     </g>
    </g>
    <g id="xtick_15">
     <g id="line2d_15">
      <g>
       <use style="stroke:#000000;stroke-width:0.8;" x="297.013541" xlink:href="#mccf45758f7" y="287.8"/>
      </g>
     </g>
     <g id="text_15">
      <!-- A367 -->
      <g transform="translate(299.772916 320.728125)rotate(-90)scale(0.1 -0.1)">
       <use xlink:href="#DejaVuSans-41"/>
       <use x="68.408203" xlink:href="#DejaVuSans-33"/>
       <use x="132.03125" xlink:href="#DejaVuSans-36"/>
       <use x="195.654297" xlink:href="#DejaVuSans-37"/>
      </g>
     </g>
    </g>
    <g id="xtick_16">
     <g id="line2d_16">
      <g>
       <use style="stroke:#000000;stroke-width:0.8;" x="314.820223" xlink:href="#mccf45758f7" y="287.8"/>
      </g>
     </g>
     <g id="text_16">
      <!-- A387 -->
      <g transform="translate(317.579598 320.728125)rotate(-90)scale(0.1 -0.1)">
       <use xlink:href="#DejaVuSans-41"/>
       <use x="68.408203" xlink:href="#DejaVuSans-33"/>
       <use x="132.03125" xlink:href="#DejaVuSans-38"/>
       <use x="195.654297" xlink:href="#DejaVuSans-37"/>
      </g>
     </g>
    </g>
    <g id="xtick_17">
     <g id="line2d_17">
      <g>
       <use style="stroke:#000000;stroke-width:0.8;" x="332.626904" xlink:href="#mccf45758f7" y="287.8"/>
      </g>
     </g>
     <g id="text_17">
      <!-- A407 -->
      <g transform="translate(335.386279 320.728125)rotate(-90)scale(0.1 -0.1)">
       <use xlink:href="#DejaVuSans-41"/>
       <use x="68.408203" xlink:href="#DejaVuSans-34"/>
       <use x="132.03125" xlink:href="#DejaVuSans-30"/>
       <use x="195.654297" xlink:href="#DejaVuSans-37"/>
      </g>
     </g>
    </g>
    <g id="xtick_18">
     <g id="line2d_18">
      <g>
       <use style="stroke:#000000;stroke-width:0.8;" x="350.433586" xlink:href="#mccf45758f7" y="287.8"/>
      </g>
     </g>
     <g id="text_18">
      <!-- A427 -->
      <g transform="translate(353.192961 320.728125)rotate(-90)scale(0.1 -0.1)">
       <use xlink:href="#DejaVuSans-41"/>
       <use x="68.408203" xlink:href="#DejaVuSans-34"/>
       <use x="132.03125" xlink:href="#DejaVuSans-32"/>
       <use x="195.654297" xlink:href="#DejaVuSans-37"/>
      </g>
     </g>
    </g>
    <g id="xtick_19">
     <g id="line2d_19">
      <g>
       <use style="stroke:#000000;stroke-width:0.8;" x="368.240267" xlink:href="#mccf45758f7" y="287.8"/>
      </g>
     </g>
     <g id="text_19">
      <!-- A447 -->
      <g transform="translate(370.999642 320.728125)rotate(-90)scale(0.1 -0.1)">
       <use xlink:href="#DejaVuSans-41"/>
       <use x="68.408203" xlink:href="#DejaVuSans-34"/>
       <use x="132.03125" xlink:href="#DejaVuSans-34"/>
       <use x="195.654297" xlink:href="#DejaVuSans-37"/>
      </g>
     </g>
    </g>
    <g id="xtick_20">
     <g id="line2d_20">
      <g>
       <use style="stroke:#000000;stroke-width:0.8;" x="386.046949" xlink:href="#mccf45758f7" y="287.8"/>
      </g>
     </g>
     <g id="text_20">
      <!-- A467 -->
      <g transform="translate(388.806324 320.728125)rotate(-90)scale(0.1 -0.1)">
       <use xlink:href="#DejaVuSans-41"/>
       <use x="68.408203" xlink:href="#DejaVuSans-34"/>
       <use x="132.03125" xlink:href="#DejaVuSans-36"/>
       <use x="195.654297" xlink:href="#DejaVuSans-37"/>
      </g>
     </g>
    </g>
    <g id="xtick_21">
     <g id="line2d_21">
      <g>
       <use style="stroke:#000000;stroke-width:0.8;" x="403.85363" xlink:href="#mccf45758f7" y="287.8"/>
      </g>
     </g>
     <g id="text_21">
      <!-- A487 -->
      <g transform="translate(406.613005 320.728125)rotate(-90)scale(0.1 -0.1)">
       <use xlink:href="#DejaVuSans-41"/>
       <use x="68.408203" xlink:href="#DejaVuSans-34"/>
       <use x="132.03125" xlink:href="#DejaVuSans-38"/>
       <use x="195.654297" xlink:href="#DejaVuSans-37"/>
      </g>
     </g>
    </g>
    <g id="xtick_22">
     <g id="line2d_22">
      <g>
       <use style="stroke:#000000;stroke-width:0.8;" x="421.660312" xlink:href="#mccf45758f7" y="287.8"/>
      </g>
     </g>
     <g id="text_22">
      <!-- A507 -->
      <defs>
       <path d="M 10.796875 72.90625 
L 49.515625 72.90625 
L 49.515625 64.59375 
L 19.828125 64.59375 
L 19.828125 46.734375 
Q 21.96875 47.46875 24.109375 47.828125 
Q 26.265625 48.1875 28.421875 48.1875 
Q 40.625 48.1875 47.75 41.5 
Q 54.890625 34.8125 54.890625 23.390625 
Q 54.890625 11.625 47.5625 5.09375 
Q 40.234375 -1.421875 26.90625 -1.421875 
Q 22.3125 -1.421875 17.546875 -0.640625 
Q 12.796875 0.140625 7.71875 1.703125 
L 7.71875 11.625 
Q 12.109375 9.234375 16.796875 8.0625 
Q 21.484375 6.890625 26.703125 6.890625 
Q 35.15625 6.890625 40.078125 11.328125 
Q 45.015625 15.765625 45.015625 23.390625 
Q 45.015625 31 40.078125 35.4375 
Q 35.15625 39.890625 26.703125 39.890625 
Q 22.75 39.890625 18.8125 39.015625 
Q 14.890625 38.140625 10.796875 36.28125 
z
" id="DejaVuSans-35"/>
      </defs>
      <g transform="translate(424.419687 320.728125)rotate(-90)scale(0.1 -0.1)">
       <use xlink:href="#DejaVuSans-41"/>
       <use x="68.408203" xlink:href="#DejaVuSans-35"/>
       <use x="132.03125" xlink:href="#DejaVuSans-30"/>
       <use x="195.654297" xlink:href="#DejaVuSans-37"/>
      </g>
     </g>
    </g>
    <g id="xtick_23">
     <g id="line2d_23">
      <g>
       <use style="stroke:#000000;stroke-width:0.8;" x="439.466993" xlink:href="#mccf45758f7" y="287.8"/>
      </g>
     </g>
     <g id="text_23">
      <!-- A527 -->
      <g transform="translate(442.226368 320.728125)rotate(-90)scale(0.1 -0.1)">
       <use xlink:href="#DejaVuSans-41"/>
       <use x="68.408203" xlink:href="#DejaVuSans-35"/>
       <use x="132.03125" xlink:href="#DejaVuSans-32"/>
       <use x="195.654297" xlink:href="#DejaVuSans-37"/>
      </g>
     </g>
    </g>
    <g id="text_24">
     <!-- Residue index -->
     <defs>
      <path d="M 44.390625 34.1875 
Q 47.5625 33.109375 50.5625 29.59375 
Q 53.5625 26.078125 56.59375 19.921875 
L 66.609375 0 
L 56 0 
L 46.6875 18.703125 
Q 43.0625 26.03125 39.671875 28.421875 
Q 36.28125 30.8125 30.421875 30.8125 
L 19.671875 30.8125 
L 19.671875 0 
L 9.8125 0 
L 9.8125 72.90625 
L 32.078125 72.90625 
Q 44.578125 72.90625 50.734375 67.671875 
Q 56.890625 62.453125 56.890625 51.90625 
Q 56.890625 45.015625 53.6875 40.46875 
Q 50.484375 35.9375 44.390625 34.1875 
z
M 19.671875 64.796875 
L 19.671875 38.921875 
L 32.078125 38.921875 
Q 39.203125 38.921875 42.84375 42.21875 
Q 46.484375 45.515625 46.484375 51.90625 
Q 46.484375 58.296875 42.84375 61.546875 
Q 39.203125 64.796875 32.078125 64.796875 
z
" id="DejaVuSans-52"/>
      <path d="M 56.203125 29.59375 
L 56.203125 25.203125 
L 14.890625 25.203125 
Q 15.484375 15.921875 20.484375 11.0625 
Q 25.484375 6.203125 34.421875 6.203125 
Q 39.59375 6.203125 44.453125 7.46875 
Q 49.3125 8.734375 54.109375 11.28125 
L 54.109375 2.78125 
Q 49.265625 0.734375 44.1875 -0.34375 
Q 39.109375 -1.421875 33.890625 -1.421875 
Q 20.796875 -1.421875 13.15625 6.1875 
Q 5.515625 13.8125 5.515625 26.8125 
Q 5.515625 40.234375 12.765625 48.109375 
Q 20.015625 56 32.328125 56 
Q 43.359375 56 49.78125 48.890625 
Q 56.203125 41.796875 56.203125 29.59375 
z
M 47.21875 32.234375 
Q 47.125 39.59375 43.09375 43.984375 
Q 39.0625 48.390625 32.421875 48.390625 
Q 24.90625 48.390625 20.390625 44.140625 
Q 15.875 39.890625 15.1875 32.171875 
z
" id="DejaVuSans-65"/>
      <path d="M 44.28125 53.078125 
L 44.28125 44.578125 
Q 40.484375 46.53125 36.375 47.5 
Q 32.28125 48.484375 27.875 48.484375 
Q 21.1875 48.484375 17.84375 46.4375 
Q 14.5 44.390625 14.5 40.28125 
Q 14.5 37.15625 16.890625 35.375 
Q 19.28125 33.59375 26.515625 31.984375 
L 29.59375 31.296875 
Q 39.15625 29.25 43.1875 25.515625 
Q 47.21875 21.78125 47.21875 15.09375 
Q 47.21875 7.46875 41.1875 3.015625 
Q 35.15625 -1.421875 24.609375 -1.421875 
Q 20.21875 -1.421875 15.453125 -0.5625 
Q 10.6875 0.296875 5.421875 2 
L 5.421875 11.28125 
Q 10.40625 8.6875 15.234375 7.390625 
Q 20.0625 6.109375 24.8125 6.109375 
Q 31.15625 6.109375 34.5625 8.28125 
Q 37.984375 10.453125 37.984375 14.40625 
Q 37.984375 18.0625 35.515625 20.015625 
Q 33.0625 21.96875 24.703125 23.78125 
L 21.578125 24.515625 
Q 13.234375 26.265625 9.515625 29.90625 
Q 5.8125 33.546875 5.8125 39.890625 
Q 5.8125 47.609375 11.28125 51.796875 
Q 16.75 56 26.8125 56 
Q 31.78125 56 36.171875 55.265625 
Q 40.578125 54.546875 44.28125 53.078125 
z
" id="DejaVuSans-73"/>
      <path d="M 9.421875 54.6875 
L 18.40625 54.6875 
L 18.40625 0 
L 9.421875 0 
z
M 9.421875 75.984375 
L 18.40625 75.984375 
L 18.40625 64.59375 
L 9.421875 64.59375 
z
" id="DejaVuSans-69"/>
      <path d="M 45.40625 46.390625 
L 45.40625 75.984375 
L 54.390625 75.984375 
L 54.390625 0 
L 45.40625 0 
L 45.40625 8.203125 
Q 42.578125 3.328125 38.25 0.953125 
Q 33.9375 -1.421875 27.875 -1.421875 
Q 17.96875 -1.421875 11.734375 6.484375 
Q 5.515625 14.40625 5.515625 27.296875 
Q 5.515625 40.1875 11.734375 48.09375 
Q 17.96875 56 27.875 56 
Q 33.9375 56 38.25 53.625 
Q 42.578125 51.265625 45.40625 46.390625 
z
M 14.796875 27.296875 
Q 14.796875 17.390625 18.875 11.75 
Q 22.953125 6.109375 30.078125 6.109375 
Q 37.203125 6.109375 41.296875 11.75 
Q 45.40625 17.390625 45.40625 27.296875 
Q 45.40625 37.203125 41.296875 42.84375 
Q 37.203125 48.484375 30.078125 48.484375 
Q 22.953125 48.484375 18.875 42.84375 
Q 14.796875 37.203125 14.796875 27.296875 
z
" id="DejaVuSans-64"/>
      <path d="M 8.5 21.578125 
L 8.5 54.6875 
L 17.484375 54.6875 
L 17.484375 21.921875 
Q 17.484375 14.15625 20.5 10.265625 
Q 23.53125 6.390625 29.59375 6.390625 
Q 36.859375 6.390625 41.078125 11.03125 
Q 45.3125 15.671875 45.3125 23.6875 
L 45.3125 54.6875 
L 54.296875 54.6875 
L 54.296875 0 
L 45.3125 0 
L 45.3125 8.40625 
Q 42.046875 3.421875 37.71875 1 
Q 33.40625 -1.421875 27.6875 -1.421875 
Q 18.265625 -1.421875 13.375 4.4375 
Q 8.5 10.296875 8.5 21.578125 
z
M 31.109375 56 
z
" id="DejaVuSans-75"/>
      <path id="DejaVuSans-20"/>
      <path d="M 54.890625 33.015625 
L 54.890625 0 
L 45.90625 0 
L 45.90625 32.71875 
Q 45.90625 40.484375 42.875 44.328125 
Q 39.84375 48.1875 33.796875 48.1875 
Q 26.515625 48.1875 22.3125 43.546875 
Q 18.109375 38.921875 18.109375 30.90625 
L 18.109375 0 
L 9.078125 0 
L 9.078125 54.6875 
L 18.109375 54.6875 
L 18.109375 46.1875 
Q 21.34375 51.125 25.703125 53.5625 
Q 30.078125 56 35.796875 56 
Q 45.21875 56 50.046875 50.171875 
Q 54.890625 44.34375 54.890625 33.015625 
z
" id="DejaVuSans-6e"/>
      <path d="M 54.890625 54.6875 
L 35.109375 28.078125 
L 55.90625 0 
L 45.3125 0 
L 29.390625 21.484375 
L 13.484375 0 
L 2.875 0 
L 24.125 28.609375 
L 4.6875 54.6875 
L 15.28125 54.6875 
L 29.78125 35.203125 
L 44.28125 54.6875 
z
" id="DejaVuSans-78"/>
     </defs>
     <g transform="translate(212.282812 332.326562)scale(0.1 -0.1)">
      <use xlink:href="#DejaVuSans-52"/>
      <use x="69.419922" xlink:href="#DejaVuSans-65"/>
      <use x="130.943359" xlink:href="#DejaVuSans-73"/>
      <use x="183.042969" xlink:href="#DejaVuSans-69"/>
      <use x="210.826172" xlink:href="#DejaVuSans-64"/>
      <use x="274.302734" xlink:href="#DejaVuSans-75"/>
      <use x="337.681641" xlink:href="#DejaVuSans-65"/>
      <use x="399.205078" xlink:href="#DejaVuSans-20"/>
      <use x="430.992188" xlink:href="#DejaVuSans-69"/>
      <use x="458.775391" xlink:href="#DejaVuSans-6e"/>
      <use x="522.154297" xlink:href="#DejaVuSans-64"/>
      <use x="585.630859" xlink:href="#DejaVuSans-65"/>
      <use x="647.138672" xlink:href="#DejaVuSans-78"/>
     </g>
    </g>
   </g>
   <g id="matplotlib.axis_2">
    <g id="ytick_1">
     <g id="line2d_24">
      <defs>
       <path d="M 0 0 
L -3.5 0 
" id="m23e60a1c73" style="stroke:#000000;stroke-width:0.8;"/>
      </defs>
      <g>
       <use style="stroke:#000000;stroke-width:0.8;" x="47.72" xlink:href="#m23e60a1c73" y="286.503196"/>
      </g>
     </g>
     <g id="text_25">
      <!-- 0.0 -->
      <defs>
       <path d="M 10.6875 12.40625 
L 21 12.40625 
L 21 0 
L 10.6875 0 
z
" id="DejaVuSans-2e"/>
      </defs>
      <g transform="translate(24.816875 290.302415)scale(0.1 -0.1)">
       <use xlink:href="#DejaVuSans-30"/>
       <use x="63.623047" xlink:href="#DejaVuSans-2e"/>
       <use x="95.410156" xlink:href="#DejaVuSans-30"/>
      </g>
     </g>
    </g>
    <g id="ytick_2">
     <g id="line2d_25">
      <g>
       <use style="stroke:#000000;stroke-width:0.8;" x="47.72" xlink:href="#m23e60a1c73" y="251.346484"/>
      </g>
     </g>
     <g id="text_26">
      <!-- 0.5 -->
      <g transform="translate(24.816875 255.145703)scale(0.1 -0.1)">
       <use xlink:href="#DejaVuSans-30"/>
       <use x="63.623047" xlink:href="#DejaVuSans-2e"/>
       <use x="95.410156" xlink:href="#DejaVuSans-35"/>
      </g>
     </g>
    </g>
    <g id="ytick_3">
     <g id="line2d_26">
      <g>
       <use style="stroke:#000000;stroke-width:0.8;" x="47.72" xlink:href="#m23e60a1c73" y="216.189772"/>
      </g>
     </g>
     <g id="text_27">
      <!-- 1.0 -->
      <g transform="translate(24.816875 219.988991)scale(0.1 -0.1)">
       <use xlink:href="#DejaVuSans-31"/>
       <use x="63.623047" xlink:href="#DejaVuSans-2e"/>
       <use x="95.410156" xlink:href="#DejaVuSans-30"/>
      </g>
     </g>
    </g>
    <g id="ytick_4">
     <g id="line2d_27">
      <g>
       <use style="stroke:#000000;stroke-width:0.8;" x="47.72" xlink:href="#m23e60a1c73" y="181.03306"/>
      </g>
     </g>
     <g id="text_28">
      <!-- 1.5 -->
      <g transform="translate(24.816875 184.832279)scale(0.1 -0.1)">
       <use xlink:href="#DejaVuSans-31"/>
       <use x="63.623047" xlink:href="#DejaVuSans-2e"/>
       <use x="95.410156" xlink:href="#DejaVuSans-35"/>
      </g>
     </g>
    </g>
    <g id="ytick_5">
     <g id="line2d_28">
      <g>
       <use style="stroke:#000000;stroke-width:0.8;" x="47.72" xlink:href="#m23e60a1c73" y="145.876348"/>
      </g>
     </g>
     <g id="text_29">
      <!-- 2.0 -->
      <g transform="translate(24.816875 149.675567)scale(0.1 -0.1)">
       <use xlink:href="#DejaVuSans-32"/>
       <use x="63.623047" xlink:href="#DejaVuSans-2e"/>
       <use x="95.410156" xlink:href="#DejaVuSans-30"/>
      </g>
     </g>
    </g>
    <g id="ytick_6">
     <g id="line2d_29">
      <g>
       <use style="stroke:#000000;stroke-width:0.8;" x="47.72" xlink:href="#m23e60a1c73" y="110.719636"/>
      </g>
     </g>
     <g id="text_30">
      <!-- 2.5 -->
      <g transform="translate(24.816875 114.518855)scale(0.1 -0.1)">
       <use xlink:href="#DejaVuSans-32"/>
       <use x="63.623047" xlink:href="#DejaVuSans-2e"/>
       <use x="95.410156" xlink:href="#DejaVuSans-35"/>
      </g>
     </g>
    </g>
    <g id="ytick_7">
     <g id="line2d_30">
      <g>
       <use style="stroke:#000000;stroke-width:0.8;" x="47.72" xlink:href="#m23e60a1c73" y="75.562924"/>
      </g>
     </g>
     <g id="text_31">
      <!-- 3.0 -->
      <g transform="translate(24.816875 79.362143)scale(0.1 -0.1)">
       <use xlink:href="#DejaVuSans-33"/>
       <use x="63.623047" xlink:href="#DejaVuSans-2e"/>
       <use x="95.410156" xlink:href="#DejaVuSans-30"/>
      </g>
     </g>
    </g>
    <g id="ytick_8">
     <g id="line2d_31">
      <g>
       <use style="stroke:#000000;stroke-width:0.8;" x="47.72" xlink:href="#m23e60a1c73" y="40.406213"/>
      </g>
     </g>
     <g id="text_32">
      <!-- 3.5 -->
      <g transform="translate(24.816875 44.205431)scale(0.1 -0.1)">
       <use xlink:href="#DejaVuSans-33"/>
       <use x="63.623047" xlink:href="#DejaVuSans-2e"/>
       <use x="95.410156" xlink:href="#DejaVuSans-35"/>
      </g>
     </g>
    </g>
    <g id="text_33">
     <!-- RMSF -->
     <defs>
      <path d="M 9.8125 72.90625 
L 24.515625 72.90625 
L 43.109375 23.296875 
L 61.8125 72.90625 
L 76.515625 72.90625 
L 76.515625 0 
L 66.890625 0 
L 66.890625 64.015625 
L 48.09375 14.015625 
L 38.1875 14.015625 
L 19.390625 64.015625 
L 19.390625 0 
L 9.8125 0 
z
" id="DejaVuSans-4d"/>
      <path d="M 53.515625 70.515625 
L 53.515625 60.890625 
Q 47.90625 63.578125 42.921875 64.890625 
Q 37.9375 66.21875 33.296875 66.21875 
Q 25.25 66.21875 20.875 63.09375 
Q 16.5 59.96875 16.5 54.203125 
Q 16.5 49.359375 19.40625 46.890625 
Q 22.3125 44.4375 30.421875 42.921875 
L 36.375 41.703125 
Q 47.40625 39.59375 52.65625 34.296875 
Q 57.90625 29 57.90625 20.125 
Q 57.90625 9.515625 50.796875 4.046875 
Q 43.703125 -1.421875 29.984375 -1.421875 
Q 24.8125 -1.421875 18.96875 -0.25 
Q 13.140625 0.921875 6.890625 3.21875 
L 6.890625 13.375 
Q 12.890625 10.015625 18.65625 8.296875 
Q 24.421875 6.59375 29.984375 6.59375 
Q 38.421875 6.59375 43.015625 9.90625 
Q 47.609375 13.234375 47.609375 19.390625 
Q 47.609375 24.75 44.3125 27.78125 
Q 41.015625 30.8125 33.5 32.328125 
L 27.484375 33.5 
Q 16.453125 35.6875 11.515625 40.375 
Q 6.59375 45.0625 6.59375 53.421875 
Q 6.59375 63.09375 13.40625 68.65625 
Q 20.21875 74.21875 32.171875 74.21875 
Q 37.3125 74.21875 42.625 73.28125 
Q 47.953125 72.359375 53.515625 70.515625 
z
" id="DejaVuSans-53"/>
      <path d="M 9.8125 72.90625 
L 51.703125 72.90625 
L 51.703125 64.59375 
L 19.671875 64.59375 
L 19.671875 43.109375 
L 48.578125 43.109375 
L 48.578125 34.8125 
L 19.671875 34.8125 
L 19.671875 0 
L 9.8125 0 
z
" id="DejaVuSans-46"/>
     </defs>
     <g transform="translate(18.737188 164.398281)rotate(-90)scale(0.1 -0.1)">
      <use xlink:href="#DejaVuSans-52"/>
      <use x="69.482422" xlink:href="#DejaVuSans-4d"/>
      <use x="155.761719" xlink:href="#DejaVuSans-53"/>
      <use x="219.238281" xlink:href="#DejaVuSans-46"/>
     </g>
    </g>
   </g>
   <g id="line2d_32">
    <path clip-path="url(#p1dd5a2dde1)" d="M 47.72 243.52504 
L 48.610334 267.269418 
L 49.500668 270.429474 
L 50.391002 261.773039 
L 51.281336 266.882048 
L 52.17167 240.64359 
L 53.062004 220.9722 
L 53.952339 180.121468 
L 54.842673 199.740964 
L 55.733007 212.151495 
L 56.623341 213.977849 
L 57.513675 222.737394 
L 58.404009 195.455997 
L 59.294343 202.821251 
L 60.184677 236.241978 
L 61.075011 232.179734 
L 61.965345 205.781214 
L 62.855679 217.238072 
L 63.746013 243.78648 
L 64.636347 243.511653 
L 65.526682 221.911196 
L 66.417016 215.319687 
L 67.30735 237.108063 
L 68.197684 248.971949 
L 69.088018 240.909695 
L 69.978352 249.498043 
L 70.868686 248.367 
L 71.75902 245.288616 
L 72.649354 237.475491 
L 73.539688 184.78006 
L 74.430022 180.640882 
L 75.320356 183.697207 
L 76.21069 178.620075 
L 77.101024 192.294043 
L 77.991359 266.568414 
L 78.881693 270.91939 
L 79.772027 270.432044 
L 80.662361 251.803242 
L 81.552695 250.060198 
L 82.443029 245.917773 
L 84.223697 178.900474 
L 85.114031 189.625621 
L 86.004365 203.917087 
L 86.894699 221.653304 
L 87.785033 233.354767 
L 88.675367 239.118639 
L 89.565702 265.982951 
L 90.456036 271.475802 
L 91.34637 272.39512 
L 92.236704 237.300119 
L 93.127038 237.795605 
L 94.017372 245.1152 
L 94.907706 248.465538 
L 95.79804 244.956545 
L 96.688374 233.182391 
L 97.578708 190.443967 
L 98.469042 166.677434 
L 99.359376 174.863826 
L 100.24971 170.352625 
L 101.140045 191.77928 
L 102.030379 194.983057 
L 102.920713 178.809482 
L 103.811047 179.629498 
L 105.591715 231.687706 
L 106.482049 195.539229 
L 107.372383 174.250929 
L 108.262717 188.362605 
L 109.153051 223.485569 
L 110.043385 229.022598 
L 110.933719 245.872627 
L 111.824053 256.224441 
L 112.714388 255.023836 
L 113.604722 254.554742 
L 114.495056 257.006236 
L 115.38539 256.932537 
L 116.275724 241.094543 
L 117.166058 231.528066 
L 118.056392 201.870362 
L 118.946726 200.966597 
L 119.83706 161.551363 
L 120.727394 165.518823 
L 121.617728 143.836021 
L 122.508062 205.777154 
L 123.398396 226.488676 
L 124.288731 241.386936 
L 125.179065 271.317943 
L 126.069399 245.906775 
L 126.959733 264.23067 
L 127.850067 257.395572 
L 128.740401 255.95536 
L 129.630735 235.925161 
L 130.521069 209.916138 
L 131.411403 172.95057 
L 132.301737 100.423626 
L 133.192071 75.480784 
L 134.082405 91.96305 
L 134.972739 177.618607 
L 136.753408 259.327021 
L 137.643742 259.591476 
L 138.534076 257.701398 
L 139.42441 258.898353 
L 140.314744 257.26448 
L 141.205078 254.447554 
L 142.095412 239.504844 
L 142.985746 218.494295 
L 145.656748 48.100898 
L 146.547082 72.101506 
L 147.437416 165.814725 
L 148.327751 219.450138 
L 149.218085 231.652853 
L 150.108419 241.179343 
L 151.889087 268.892458 
L 152.779421 264.071855 
L 153.669755 268.726506 
L 154.560089 270.910689 
L 155.450423 259.416454 
L 156.340757 252.649309 
L 157.231091 186.262901 
L 158.121425 94.205116 
L 159.011759 25.796364 
L 159.902094 103.391032 
L 160.792428 215.125554 
L 161.682762 253.637676 
L 162.573096 265.526291 
L 163.46343 255.470311 
L 164.353764 230.610646 
L 165.244098 220.969916 
L 166.134432 229.946487 
L 167.024766 242.402375 
L 167.9151 245.088224 
L 168.805434 257.888653 
L 169.695768 233.421895 
L 170.586102 229.184225 
L 171.476437 251.19186 
L 172.366771 256.242982 
L 173.257105 255.420459 
L 174.147439 264.196635 
L 175.928107 257.754163 
L 176.818441 263.015353 
L 177.708775 261.009085 
L 178.599109 251.707371 
L 179.489443 207.117057 
L 180.379777 211.728231 
L 181.270111 119.766478 
L 182.160445 129.771323 
L 183.05078 173.90666 
L 183.941114 204.325628 
L 184.831448 224.990436 
L 185.721782 239.694119 
L 186.612116 225.090804 
L 187.50245 246.134287 
L 188.392784 242.154526 
L 190.173452 209.951025 
L 191.063786 151.206018 
L 191.95412 183.361236 
L 192.844454 192.405902 
L 193.734788 175.438435 
L 194.625122 195.925763 
L 195.515457 188.777427 
L 196.405791 221.17924 
L 197.296125 220.649344 
L 198.186459 230.157144 
L 199.076793 210.824164 
L 199.967127 232.234587 
L 200.857461 244.476768 
L 202.638129 221.096585 
L 203.528463 222.522282 
L 204.418797 240.932841 
L 205.309131 216.3105 
L 206.199465 228.460881 
L 207.0898 135.065558 
L 207.980134 190.796558 
L 208.870468 169.788967 
L 209.760802 215.490559 
L 210.651136 233.343687 
L 211.54147 233.857422 
L 212.431804 234.98766 
L 213.322138 244.47366 
L 214.212472 226.994382 
L 215.102806 235.309854 
L 215.99314 227.93981 
L 216.883474 228.091382 
L 217.773808 221.233471 
L 218.664143 205.001854 
L 219.554477 182.661169 
L 220.444811 224.985037 
L 221.335145 238.289054 
L 222.225479 248.929908 
L 223.115813 256.407988 
L 224.006147 223.01156 
L 224.896481 242.954067 
L 225.786815 232.073861 
L 226.677149 250.725056 
L 227.567483 239.17362 
L 228.457817 196.926212 
L 229.348151 160.370106 
L 231.12882 213.026458 
L 232.019154 227.244304 
L 232.909488 227.924849 
L 233.799822 255.231512 
L 234.690156 266.476668 
L 235.58049 271.898247 
L 236.470824 258.373083 
L 237.361158 240.140512 
L 238.251492 217.066429 
L 240.03216 150.597995 
L 240.922494 124.417922 
L 241.812829 184.69867 
L 242.703163 208.840482 
L 243.593497 228.748617 
L 244.483831 243.954534 
L 245.374165 242.84034 
L 246.264499 262.572306 
L 247.154833 261.076463 
L 248.045167 255.591524 
L 248.935501 254.700074 
L 249.825835 256.556791 
L 250.716169 254.756454 
L 251.606503 255.236661 
L 252.496837 253.93928 
L 253.387171 250.592488 
L 254.277506 213.988571 
L 255.16784 230.431126 
L 256.058174 211.024012 
L 256.948508 208.706975 
L 257.838842 197.468663 
L 258.729176 231.684152 
L 259.61951 236.834924 
L 260.509844 235.535876 
L 261.400178 245.437407 
L 262.290512 257.867905 
L 263.180846 273.063795 
L 264.07118 271.340844 
L 264.961514 264.602096 
L 265.851849 264.522288 
L 266.742183 233.424075 
L 267.632517 163.386951 
L 268.522851 125.445906 
L 269.413185 195.876266 
L 270.303519 251.713647 
L 271.193853 263.06797 
L 272.084187 269.846367 
L 272.974521 272.694869 
L 274.755189 258.514209 
L 275.645523 254.988422 
L 276.535857 219.806591 
L 277.426192 163.545611 
L 278.316526 177.560408 
L 279.20686 242.952283 
L 280.097194 256.207674 
L 280.987528 254.339198 
L 281.877862 253.672405 
L 282.768196 239.826112 
L 283.65853 243.489484 
L 284.548864 235.973347 
L 285.439198 230.938028 
L 286.329532 213.719662 
L 287.219866 205.782543 
L 288.1102 203.056815 
L 289.000535 217.384449 
L 289.890869 212.397716 
L 290.781203 205.55399 
L 291.671537 215.978404 
L 292.561871 238.948499 
L 293.452205 258.910547 
L 294.342539 257.026188 
L 295.232873 274.181556 
L 297.013541 274.443518 
L 297.903875 274.41123 
L 298.794209 272.361722 
L 299.684543 272.440213 
L 300.574878 268.990705 
L 301.465212 262.873453 
L 302.355546 259.3202 
L 303.24588 247.216702 
L 304.136214 262.507147 
L 305.026548 250.558934 
L 305.916882 274.706215 
L 307.69755 274.096667 
L 308.587884 258.940225 
L 309.478218 268.857298 
L 310.368552 270.249842 
L 311.258886 255.741475 
L 312.14922 252.0793 
L 313.039555 243.357368 
L 313.929889 225.096968 
L 314.820223 239.24987 
L 315.710557 258.39923 
L 316.600891 269.187861 
L 317.491225 274.340531 
L 318.381559 273.873292 
L 319.271893 274.606931 
L 320.162227 263.566422 
L 321.052561 235.53111 
L 321.942895 257.606387 
L 322.833229 260.94878 
L 323.723563 249.682047 
L 324.613898 176.29082 
L 325.504232 206.897076 
L 326.394566 206.312781 
L 327.2849 209.193435 
L 328.175234 210.83923 
L 329.065568 253.248089 
L 329.955902 256.813857 
L 330.846236 256.626774 
L 331.73657 239.804014 
L 332.626904 246.503508 
L 333.517238 230.770337 
L 334.407572 224.178187 
L 335.297906 236.995833 
L 336.188241 245.976759 
L 337.078575 238.285756 
L 337.968909 226.511148 
L 338.859243 217.010307 
L 339.749577 218.844196 
L 340.639911 189.923238 
L 341.530245 182.216882 
L 342.420579 188.550798 
L 343.310913 191.634098 
L 344.201247 178.335354 
L 345.091581 184.558417 
L 345.981915 180.97535 
L 346.872249 175.640009 
L 347.762584 149.33458 
L 348.652918 137.859888 
L 349.543252 149.456967 
L 350.433586 183.182918 
L 351.32392 258.773339 
L 352.214254 250.786091 
L 353.104588 269.06696 
L 353.994922 271.639003 
L 354.885256 262.734545 
L 356.665924 226.020752 
L 357.556258 236.861892 
L 358.446592 236.139661 
L 359.336927 229.098008 
L 360.227261 211.719482 
L 361.117595 190.385572 
L 362.898263 157.684604 
L 363.788597 211.295161 
L 364.678931 218.718543 
L 365.569265 244.382191 
L 366.459599 243.795299 
L 367.349933 238.9843 
L 368.240267 253.262823 
L 369.130601 260.783509 
L 370.020935 258.6845 
L 370.911269 272.491279 
L 371.801604 274.734251 
L 372.691938 260.390779 
L 373.582272 272.368926 
L 374.472606 274.251342 
L 375.36294 267.918133 
L 376.253274 273.111697 
L 377.143608 275.128916 
L 378.033942 275.323636 
L 378.924276 266.071303 
L 379.81461 237.260783 
L 380.704944 161.142534 
L 381.595278 163.731649 
L 382.485612 123.109201 
L 383.375947 195.721718 
L 384.266281 119.060004 
L 385.156615 145.335596 
L 386.046949 74.971009 
L 386.937283 94.109861 
L 387.827617 143.88483 
L 388.717951 180.405139 
L 389.608285 212.356804 
L 390.498619 217.553951 
L 391.388953 231.63803 
L 392.279287 231.466747 
L 393.169621 224.889565 
L 394.059955 230.771437 
L 394.95029 220.591871 
L 395.840624 232.069902 
L 396.730958 225.44442 
L 397.621292 205.995379 
L 398.511626 197.094169 
L 399.40196 206.215134 
L 400.292294 170.410835 
L 401.182628 182.58461 
L 402.072962 116.236941 
L 402.963296 156.09892 
L 403.85363 105.797296 
L 404.743964 131.215007 
L 405.634298 227.372277 
L 406.524633 210.321633 
L 407.414967 198.36174 
L 408.305301 206.420246 
L 409.195635 202.988764 
L 410.085969 221.023222 
L 410.976303 233.195087 
L 411.866637 241.196458 
L 412.756971 254.735778 
L 413.647305 259.440663 
L 414.537639 252.983739 
L 415.427973 255.409438 
L 416.318307 264.258658 
L 417.208641 256.260304 
L 418.98931 207.422395 
L 419.879644 177.448772 
L 420.769978 163.821445 
L 421.660312 187.635609 
L 422.550646 146.517485 
L 423.44098 197.638299 
L 424.331314 212.790018 
L 425.221648 273.605071 
L 426.111982 274.304391 
L 427.002316 274.244654 
L 427.89265 274.30825 
L 428.782984 261.870176 
L 429.673318 256.202163 
L 430.563653 263.97341 
L 431.453987 239.392043 
L 432.344321 249.459202 
L 433.234655 254.824586 
L 434.124989 237.095395 
L 435.015323 224.757278 
L 435.905657 235.459924 
L 436.795991 216.841627 
L 437.686325 121.805329 
L 438.576659 176.188579 
L 439.466993 195.774434 
L 440.357327 189.303091 
L 441.247661 205.252395 
L 442.137996 239.60363 
L 443.02833 220.419154 
L 443.918664 211.022301 
L 444.808998 173.185271 
L 445.699332 196.339133 
L 446.589666 162.697307 
L 447.48 144.630805 
L 447.48 144.630805 
" style="fill:none;stroke:#666666;stroke-dasharray:1,1.65;stroke-dashoffset:0;"/>
    <defs>
     <path d="M 0 0.5 
C 0.132602 0.5 0.25979 0.447317 0.353553 0.353553 
C 0.447317 0.25979 0.5 0.132602 0.5 0 
C 0.5 -0.132602 0.447317 -0.25979 0.353553 -0.353553 
C 0.25979 -0.447317 0.132602 -0.5 0 -0.5 
C -0.132602 -0.5 -0.25979 -0.447317 -0.353553 -0.353553 
C -0.447317 -0.25979 -0.5 -0.132602 -0.5 0 
C -0.5 0.132602 -0.447317 0.25979 -0.353553 0.353553 
C -0.25979 0.447317 -0.132602 0.5 0 0.5 
z
" id="m9d6b95e23c" style="stroke:#666666;"/>
    </defs>
    <g clip-path="url(#p1dd5a2dde1)">
     <use style="fill:#666666;stroke:#666666;" x="47.72" xlink:href="#m9d6b95e23c" y="243.52504"/>
     <use style="fill:#666666;stroke:#666666;" x="48.610334" xlink:href="#m9d6b95e23c" y="267.269418"/>
     <use style="fill:#666666;stroke:#666666;" x="49.500668" xlink:href="#m9d6b95e23c" y="270.429474"/>
     <use style="fill:#666666;stroke:#666666;" x="50.391002" xlink:href="#m9d6b95e23c" y="261.773039"/>
     <use style="fill:#666666;stroke:#666666;" x="51.281336" xlink:href="#m9d6b95e23c" y="266.882048"/>
     <use style="fill:#666666;stroke:#666666;" x="52.17167" xlink:href="#m9d6b95e23c" y="240.64359"/>
     <use style="fill:#666666;stroke:#666666;" x="53.062004" xlink:href="#m9d6b95e23c" y="220.9722"/>
     <use style="fill:#666666;stroke:#666666;" x="53.952339" xlink:href="#m9d6b95e23c" y="180.121468"/>
     <use style="fill:#666666;stroke:#666666;" x="54.842673" xlink:href="#m9d6b95e23c" y="199.740964"/>
     <use style="fill:#666666;stroke:#666666;" x="55.733007" xlink:href="#m9d6b95e23c" y="212.151495"/>
     <use style="fill:#666666;stroke:#666666;" x="56.623341" xlink:href="#m9d6b95e23c" y="213.977849"/>
     <use style="fill:#666666;stroke:#666666;" x="57.513675" xlink:href="#m9d6b95e23c" y="222.737394"/>
     <use style="fill:#666666;stroke:#666666;" x="58.404009" xlink:href="#m9d6b95e23c" y="195.455997"/>
     <use style="fill:#666666;stroke:#666666;" x="59.294343" xlink:href="#m9d6b95e23c" y="202.821251"/>
     <use style="fill:#666666;stroke:#666666;" x="60.184677" xlink:href="#m9d6b95e23c" y="236.241978"/>
     <use style="fill:#666666;stroke:#666666;" x="61.075011" xlink:href="#m9d6b95e23c" y="232.179734"/>
     <use style="fill:#666666;stroke:#666666;" x="61.965345" xlink:href="#m9d6b95e23c" y="205.781214"/>
     <use style="fill:#666666;stroke:#666666;" x="62.855679" xlink:href="#m9d6b95e23c" y="217.238072"/>
     <use style="fill:#666666;stroke:#666666;" x="63.746013" xlink:href="#m9d6b95e23c" y="243.78648"/>
     <use style="fill:#666666;stroke:#666666;" x="64.636347" xlink:href="#m9d6b95e23c" y="243.511653"/>
     <use style="fill:#666666;stroke:#666666;" x="65.526682" xlink:href="#m9d6b95e23c" y="221.911196"/>
     <use style="fill:#666666;stroke:#666666;" x="66.417016" xlink:href="#m9d6b95e23c" y="215.319687"/>
     <use style="fill:#666666;stroke:#666666;" x="67.30735" xlink:href="#m9d6b95e23c" y="237.108063"/>
     <use style="fill:#666666;stroke:#666666;" x="68.197684" xlink:href="#m9d6b95e23c" y="248.971949"/>
     <use style="fill:#666666;stroke:#666666;" x="69.088018" xlink:href="#m9d6b95e23c" y="240.909695"/>
     <use style="fill:#666666;stroke:#666666;" x="69.978352" xlink:href="#m9d6b95e23c" y="249.498043"/>
     <use style="fill:#666666;stroke:#666666;" x="70.868686" xlink:href="#m9d6b95e23c" y="248.367"/>
     <use style="fill:#666666;stroke:#666666;" x="71.75902" xlink:href="#m9d6b95e23c" y="245.288616"/>
     <use style="fill:#666666;stroke:#666666;" x="72.649354" xlink:href="#m9d6b95e23c" y="237.475491"/>
     <use style="fill:#666666;stroke:#666666;" x="73.539688" xlink:href="#m9d6b95e23c" y="184.78006"/>
     <use style="fill:#666666;stroke:#666666;" x="74.430022" xlink:href="#m9d6b95e23c" y="180.640882"/>
     <use style="fill:#666666;stroke:#666666;" x="75.320356" xlink:href="#m9d6b95e23c" y="183.697207"/>
     <use style="fill:#666666;stroke:#666666;" x="76.21069" xlink:href="#m9d6b95e23c" y="178.620075"/>
     <use style="fill:#666666;stroke:#666666;" x="77.101024" xlink:href="#m9d6b95e23c" y="192.294043"/>
     <use style="fill:#666666;stroke:#666666;" x="77.991359" xlink:href="#m9d6b95e23c" y="266.568414"/>
     <use style="fill:#666666;stroke:#666666;" x="78.881693" xlink:href="#m9d6b95e23c" y="270.91939"/>
     <use style="fill:#666666;stroke:#666666;" x="79.772027" xlink:href="#m9d6b95e23c" y="270.432044"/>
     <use style="fill:#666666;stroke:#666666;" x="80.662361" xlink:href="#m9d6b95e23c" y="251.803242"/>
     <use style="fill:#666666;stroke:#666666;" x="81.552695" xlink:href="#m9d6b95e23c" y="250.060198"/>
     <use style="fill:#666666;stroke:#666666;" x="82.443029" xlink:href="#m9d6b95e23c" y="245.917773"/>
     <use style="fill:#666666;stroke:#666666;" x="83.333363" xlink:href="#m9d6b95e23c" y="211.565271"/>
     <use style="fill:#666666;stroke:#666666;" x="84.223697" xlink:href="#m9d6b95e23c" y="178.900474"/>
     <use style="fill:#666666;stroke:#666666;" x="85.114031" xlink:href="#m9d6b95e23c" y="189.625621"/>
     <use style="fill:#666666;stroke:#666666;" x="86.004365" xlink:href="#m9d6b95e23c" y="203.917087"/>
     <use style="fill:#666666;stroke:#666666;" x="86.894699" xlink:href="#m9d6b95e23c" y="221.653304"/>
     <use style="fill:#666666;stroke:#666666;" x="87.785033" xlink:href="#m9d6b95e23c" y="233.354767"/>
     <use style="fill:#666666;stroke:#666666;" x="88.675367" xlink:href="#m9d6b95e23c" y="239.118639"/>
     <use style="fill:#666666;stroke:#666666;" x="89.565702" xlink:href="#m9d6b95e23c" y="265.982951"/>
     <use style="fill:#666666;stroke:#666666;" x="90.456036" xlink:href="#m9d6b95e23c" y="271.475802"/>
     <use style="fill:#666666;stroke:#666666;" x="91.34637" xlink:href="#m9d6b95e23c" y="272.39512"/>
     <use style="fill:#666666;stroke:#666666;" x="92.236704" xlink:href="#m9d6b95e23c" y="237.300119"/>
     <use style="fill:#666666;stroke:#666666;" x="93.127038" xlink:href="#m9d6b95e23c" y="237.795605"/>
     <use style="fill:#666666;stroke:#666666;" x="94.017372" xlink:href="#m9d6b95e23c" y="245.1152"/>
     <use style="fill:#666666;stroke:#666666;" x="94.907706" xlink:href="#m9d6b95e23c" y="248.465538"/>
     <use style="fill:#666666;stroke:#666666;" x="95.79804" xlink:href="#m9d6b95e23c" y="244.956545"/>
     <use style="fill:#666666;stroke:#666666;" x="96.688374" xlink:href="#m9d6b95e23c" y="233.182391"/>
     <use style="fill:#666666;stroke:#666666;" x="97.578708" xlink:href="#m9d6b95e23c" y="190.443967"/>
     <use style="fill:#666666;stroke:#666666;" x="98.469042" xlink:href="#m9d6b95e23c" y="166.677434"/>
     <use style="fill:#666666;stroke:#666666;" x="99.359376" xlink:href="#m9d6b95e23c" y="174.863826"/>
     <use style="fill:#666666;stroke:#666666;" x="100.24971" xlink:href="#m9d6b95e23c" y="170.352625"/>
     <use style="fill:#666666;stroke:#666666;" x="101.140045" xlink:href="#m9d6b95e23c" y="191.77928"/>
     <use style="fill:#666666;stroke:#666666;" x="102.030379" xlink:href="#m9d6b95e23c" y="194.983057"/>
     <use style="fill:#666666;stroke:#666666;" x="102.920713" xlink:href="#m9d6b95e23c" y="178.809482"/>
     <use style="fill:#666666;stroke:#666666;" x="103.811047" xlink:href="#m9d6b95e23c" y="179.629498"/>
     <use style="fill:#666666;stroke:#666666;" x="104.701381" xlink:href="#m9d6b95e23c" y="205.153219"/>
     <use style="fill:#666666;stroke:#666666;" x="105.591715" xlink:href="#m9d6b95e23c" y="231.687706"/>
     <use style="fill:#666666;stroke:#666666;" x="106.482049" xlink:href="#m9d6b95e23c" y="195.539229"/>
     <use style="fill:#666666;stroke:#666666;" x="107.372383" xlink:href="#m9d6b95e23c" y="174.250929"/>
     <use style="fill:#666666;stroke:#666666;" x="108.262717" xlink:href="#m9d6b95e23c" y="188.362605"/>
     <use style="fill:#666666;stroke:#666666;" x="109.153051" xlink:href="#m9d6b95e23c" y="223.485569"/>
     <use style="fill:#666666;stroke:#666666;" x="110.043385" xlink:href="#m9d6b95e23c" y="229.022598"/>
     <use style="fill:#666666;stroke:#666666;" x="110.933719" xlink:href="#m9d6b95e23c" y="245.872627"/>
     <use style="fill:#666666;stroke:#666666;" x="111.824053" xlink:href="#m9d6b95e23c" y="256.224441"/>
     <use style="fill:#666666;stroke:#666666;" x="112.714388" xlink:href="#m9d6b95e23c" y="255.023836"/>
     <use style="fill:#666666;stroke:#666666;" x="113.604722" xlink:href="#m9d6b95e23c" y="254.554742"/>
     <use style="fill:#666666;stroke:#666666;" x="114.495056" xlink:href="#m9d6b95e23c" y="257.006236"/>
     <use style="fill:#666666;stroke:#666666;" x="115.38539" xlink:href="#m9d6b95e23c" y="256.932537"/>
     <use style="fill:#666666;stroke:#666666;" x="116.275724" xlink:href="#m9d6b95e23c" y="241.094543"/>
     <use style="fill:#666666;stroke:#666666;" x="117.166058" xlink:href="#m9d6b95e23c" y="231.528066"/>
     <use style="fill:#666666;stroke:#666666;" x="118.056392" xlink:href="#m9d6b95e23c" y="201.870362"/>
     <use style="fill:#666666;stroke:#666666;" x="118.946726" xlink:href="#m9d6b95e23c" y="200.966597"/>
     <use style="fill:#666666;stroke:#666666;" x="119.83706" xlink:href="#m9d6b95e23c" y="161.551363"/>
     <use style="fill:#666666;stroke:#666666;" x="120.727394" xlink:href="#m9d6b95e23c" y="165.518823"/>
     <use style="fill:#666666;stroke:#666666;" x="121.617728" xlink:href="#m9d6b95e23c" y="143.836021"/>
     <use style="fill:#666666;stroke:#666666;" x="122.508062" xlink:href="#m9d6b95e23c" y="205.777154"/>
     <use style="fill:#666666;stroke:#666666;" x="123.398396" xlink:href="#m9d6b95e23c" y="226.488676"/>
     <use style="fill:#666666;stroke:#666666;" x="124.288731" xlink:href="#m9d6b95e23c" y="241.386936"/>
     <use style="fill:#666666;stroke:#666666;" x="125.179065" xlink:href="#m9d6b95e23c" y="271.317943"/>
     <use style="fill:#666666;stroke:#666666;" x="126.069399" xlink:href="#m9d6b95e23c" y="245.906775"/>
     <use style="fill:#666666;stroke:#666666;" x="126.959733" xlink:href="#m9d6b95e23c" y="264.23067"/>
     <use style="fill:#666666;stroke:#666666;" x="127.850067" xlink:href="#m9d6b95e23c" y="257.395572"/>
     <use style="fill:#666666;stroke:#666666;" x="128.740401" xlink:href="#m9d6b95e23c" y="255.95536"/>
     <use style="fill:#666666;stroke:#666666;" x="129.630735" xlink:href="#m9d6b95e23c" y="235.925161"/>
     <use style="fill:#666666;stroke:#666666;" x="130.521069" xlink:href="#m9d6b95e23c" y="209.916138"/>
     <use style="fill:#666666;stroke:#666666;" x="131.411403" xlink:href="#m9d6b95e23c" y="172.95057"/>
     <use style="fill:#666666;stroke:#666666;" x="132.301737" xlink:href="#m9d6b95e23c" y="100.423626"/>
     <use style="fill:#666666;stroke:#666666;" x="133.192071" xlink:href="#m9d6b95e23c" y="75.480784"/>
     <use style="fill:#666666;stroke:#666666;" x="134.082405" xlink:href="#m9d6b95e23c" y="91.96305"/>
     <use style="fill:#666666;stroke:#666666;" x="134.972739" xlink:href="#m9d6b95e23c" y="177.618607"/>
     <use style="fill:#666666;stroke:#666666;" x="135.863073" xlink:href="#m9d6b95e23c" y="216.549449"/>
     <use style="fill:#666666;stroke:#666666;" x="136.753408" xlink:href="#m9d6b95e23c" y="259.327021"/>
     <use style="fill:#666666;stroke:#666666;" x="137.643742" xlink:href="#m9d6b95e23c" y="259.591476"/>
     <use style="fill:#666666;stroke:#666666;" x="138.534076" xlink:href="#m9d6b95e23c" y="257.701398"/>
     <use style="fill:#666666;stroke:#666666;" x="139.42441" xlink:href="#m9d6b95e23c" y="258.898353"/>
     <use style="fill:#666666;stroke:#666666;" x="140.314744" xlink:href="#m9d6b95e23c" y="257.26448"/>
     <use style="fill:#666666;stroke:#666666;" x="141.205078" xlink:href="#m9d6b95e23c" y="254.447554"/>
     <use style="fill:#666666;stroke:#666666;" x="142.095412" xlink:href="#m9d6b95e23c" y="239.504844"/>
     <use style="fill:#666666;stroke:#666666;" x="142.985746" xlink:href="#m9d6b95e23c" y="218.494295"/>
     <use style="fill:#666666;stroke:#666666;" x="143.87608" xlink:href="#m9d6b95e23c" y="160.660041"/>
     <use style="fill:#666666;stroke:#666666;" x="144.766414" xlink:href="#m9d6b95e23c" y="109.240458"/>
     <use style="fill:#666666;stroke:#666666;" x="145.656748" xlink:href="#m9d6b95e23c" y="48.100898"/>
     <use style="fill:#666666;stroke:#666666;" x="146.547082" xlink:href="#m9d6b95e23c" y="72.101506"/>
     <use style="fill:#666666;stroke:#666666;" x="147.437416" xlink:href="#m9d6b95e23c" y="165.814725"/>
     <use style="fill:#666666;stroke:#666666;" x="148.327751" xlink:href="#m9d6b95e23c" y="219.450138"/>
     <use style="fill:#666666;stroke:#666666;" x="149.218085" xlink:href="#m9d6b95e23c" y="231.652853"/>
     <use style="fill:#666666;stroke:#666666;" x="150.108419" xlink:href="#m9d6b95e23c" y="241.179343"/>
     <use style="fill:#666666;stroke:#666666;" x="150.998753" xlink:href="#m9d6b95e23c" y="255.809627"/>
     <use style="fill:#666666;stroke:#666666;" x="151.889087" xlink:href="#m9d6b95e23c" y="268.892458"/>
     <use style="fill:#666666;stroke:#666666;" x="152.779421" xlink:href="#m9d6b95e23c" y="264.071855"/>
     <use style="fill:#666666;stroke:#666666;" x="153.669755" xlink:href="#m9d6b95e23c" y="268.726506"/>
     <use style="fill:#666666;stroke:#666666;" x="154.560089" xlink:href="#m9d6b95e23c" y="270.910689"/>
     <use style="fill:#666666;stroke:#666666;" x="155.450423" xlink:href="#m9d6b95e23c" y="259.416454"/>
     <use style="fill:#666666;stroke:#666666;" x="156.340757" xlink:href="#m9d6b95e23c" y="252.649309"/>
     <use style="fill:#666666;stroke:#666666;" x="157.231091" xlink:href="#m9d6b95e23c" y="186.262901"/>
     <use style="fill:#666666;stroke:#666666;" x="158.121425" xlink:href="#m9d6b95e23c" y="94.205116"/>
     <use style="fill:#666666;stroke:#666666;" x="159.011759" xlink:href="#m9d6b95e23c" y="25.796364"/>
     <use style="fill:#666666;stroke:#666666;" x="159.902094" xlink:href="#m9d6b95e23c" y="103.391032"/>
     <use style="fill:#666666;stroke:#666666;" x="160.792428" xlink:href="#m9d6b95e23c" y="215.125554"/>
     <use style="fill:#666666;stroke:#666666;" x="161.682762" xlink:href="#m9d6b95e23c" y="253.637676"/>
     <use style="fill:#666666;stroke:#666666;" x="162.573096" xlink:href="#m9d6b95e23c" y="265.526291"/>
     <use style="fill:#666666;stroke:#666666;" x="163.46343" xlink:href="#m9d6b95e23c" y="255.470311"/>
     <use style="fill:#666666;stroke:#666666;" x="164.353764" xlink:href="#m9d6b95e23c" y="230.610646"/>
     <use style="fill:#666666;stroke:#666666;" x="165.244098" xlink:href="#m9d6b95e23c" y="220.969916"/>
     <use style="fill:#666666;stroke:#666666;" x="166.134432" xlink:href="#m9d6b95e23c" y="229.946487"/>
     <use style="fill:#666666;stroke:#666666;" x="167.024766" xlink:href="#m9d6b95e23c" y="242.402375"/>
     <use style="fill:#666666;stroke:#666666;" x="167.9151" xlink:href="#m9d6b95e23c" y="245.088224"/>
     <use style="fill:#666666;stroke:#666666;" x="168.805434" xlink:href="#m9d6b95e23c" y="257.888653"/>
     <use style="fill:#666666;stroke:#666666;" x="169.695768" xlink:href="#m9d6b95e23c" y="233.421895"/>
     <use style="fill:#666666;stroke:#666666;" x="170.586102" xlink:href="#m9d6b95e23c" y="229.184225"/>
     <use style="fill:#666666;stroke:#666666;" x="171.476437" xlink:href="#m9d6b95e23c" y="251.19186"/>
     <use style="fill:#666666;stroke:#666666;" x="172.366771" xlink:href="#m9d6b95e23c" y="256.242982"/>
     <use style="fill:#666666;stroke:#666666;" x="173.257105" xlink:href="#m9d6b95e23c" y="255.420459"/>
     <use style="fill:#666666;stroke:#666666;" x="174.147439" xlink:href="#m9d6b95e23c" y="264.196635"/>
     <use style="fill:#666666;stroke:#666666;" x="175.037773" xlink:href="#m9d6b95e23c" y="261.168812"/>
     <use style="fill:#666666;stroke:#666666;" x="175.928107" xlink:href="#m9d6b95e23c" y="257.754163"/>
     <use style="fill:#666666;stroke:#666666;" x="176.818441" xlink:href="#m9d6b95e23c" y="263.015353"/>
     <use style="fill:#666666;stroke:#666666;" x="177.708775" xlink:href="#m9d6b95e23c" y="261.009085"/>
     <use style="fill:#666666;stroke:#666666;" x="178.599109" xlink:href="#m9d6b95e23c" y="251.707371"/>
     <use style="fill:#666666;stroke:#666666;" x="179.489443" xlink:href="#m9d6b95e23c" y="207.117057"/>
     <use style="fill:#666666;stroke:#666666;" x="180.379777" xlink:href="#m9d6b95e23c" y="211.728231"/>
     <use style="fill:#666666;stroke:#666666;" x="181.270111" xlink:href="#m9d6b95e23c" y="119.766478"/>
     <use style="fill:#666666;stroke:#666666;" x="182.160445" xlink:href="#m9d6b95e23c" y="129.771323"/>
     <use style="fill:#666666;stroke:#666666;" x="183.05078" xlink:href="#m9d6b95e23c" y="173.90666"/>
     <use style="fill:#666666;stroke:#666666;" x="183.941114" xlink:href="#m9d6b95e23c" y="204.325628"/>
     <use style="fill:#666666;stroke:#666666;" x="184.831448" xlink:href="#m9d6b95e23c" y="224.990436"/>
     <use style="fill:#666666;stroke:#666666;" x="185.721782" xlink:href="#m9d6b95e23c" y="239.694119"/>
     <use style="fill:#666666;stroke:#666666;" x="186.612116" xlink:href="#m9d6b95e23c" y="225.090804"/>
     <use style="fill:#666666;stroke:#666666;" x="187.50245" xlink:href="#m9d6b95e23c" y="246.134287"/>
     <use style="fill:#666666;stroke:#666666;" x="188.392784" xlink:href="#m9d6b95e23c" y="242.154526"/>
     <use style="fill:#666666;stroke:#666666;" x="189.283118" xlink:href="#m9d6b95e23c" y="225.173677"/>
     <use style="fill:#666666;stroke:#666666;" x="190.173452" xlink:href="#m9d6b95e23c" y="209.951025"/>
     <use style="fill:#666666;stroke:#666666;" x="191.063786" xlink:href="#m9d6b95e23c" y="151.206018"/>
     <use style="fill:#666666;stroke:#666666;" x="191.95412" xlink:href="#m9d6b95e23c" y="183.361236"/>
     <use style="fill:#666666;stroke:#666666;" x="192.844454" xlink:href="#m9d6b95e23c" y="192.405902"/>
     <use style="fill:#666666;stroke:#666666;" x="193.734788" xlink:href="#m9d6b95e23c" y="175.438435"/>
     <use style="fill:#666666;stroke:#666666;" x="194.625122" xlink:href="#m9d6b95e23c" y="195.925763"/>
     <use style="fill:#666666;stroke:#666666;" x="195.515457" xlink:href="#m9d6b95e23c" y="188.777427"/>
     <use style="fill:#666666;stroke:#666666;" x="196.405791" xlink:href="#m9d6b95e23c" y="221.17924"/>
     <use style="fill:#666666;stroke:#666666;" x="197.296125" xlink:href="#m9d6b95e23c" y="220.649344"/>
     <use style="fill:#666666;stroke:#666666;" x="198.186459" xlink:href="#m9d6b95e23c" y="230.157144"/>
     <use style="fill:#666666;stroke:#666666;" x="199.076793" xlink:href="#m9d6b95e23c" y="210.824164"/>
     <use style="fill:#666666;stroke:#666666;" x="199.967127" xlink:href="#m9d6b95e23c" y="232.234587"/>
     <use style="fill:#666666;stroke:#666666;" x="200.857461" xlink:href="#m9d6b95e23c" y="244.476768"/>
     <use style="fill:#666666;stroke:#666666;" x="201.747795" xlink:href="#m9d6b95e23c" y="232.638108"/>
     <use style="fill:#666666;stroke:#666666;" x="202.638129" xlink:href="#m9d6b95e23c" y="221.096585"/>
     <use style="fill:#666666;stroke:#666666;" x="203.528463" xlink:href="#m9d6b95e23c" y="222.522282"/>
     <use style="fill:#666666;stroke:#666666;" x="204.418797" xlink:href="#m9d6b95e23c" y="240.932841"/>
     <use style="fill:#666666;stroke:#666666;" x="205.309131" xlink:href="#m9d6b95e23c" y="216.3105"/>
     <use style="fill:#666666;stroke:#666666;" x="206.199465" xlink:href="#m9d6b95e23c" y="228.460881"/>
     <use style="fill:#666666;stroke:#666666;" x="207.0898" xlink:href="#m9d6b95e23c" y="135.065558"/>
     <use style="fill:#666666;stroke:#666666;" x="207.980134" xlink:href="#m9d6b95e23c" y="190.796558"/>
     <use style="fill:#666666;stroke:#666666;" x="208.870468" xlink:href="#m9d6b95e23c" y="169.788967"/>
     <use style="fill:#666666;stroke:#666666;" x="209.760802" xlink:href="#m9d6b95e23c" y="215.490559"/>
     <use style="fill:#666666;stroke:#666666;" x="210.651136" xlink:href="#m9d6b95e23c" y="233.343687"/>
     <use style="fill:#666666;stroke:#666666;" x="211.54147" xlink:href="#m9d6b95e23c" y="233.857422"/>
     <use style="fill:#666666;stroke:#666666;" x="212.431804" xlink:href="#m9d6b95e23c" y="234.98766"/>
     <use style="fill:#666666;stroke:#666666;" x="213.322138" xlink:href="#m9d6b95e23c" y="244.47366"/>
     <use style="fill:#666666;stroke:#666666;" x="214.212472" xlink:href="#m9d6b95e23c" y="226.994382"/>
     <use style="fill:#666666;stroke:#666666;" x="215.102806" xlink:href="#m9d6b95e23c" y="235.309854"/>
     <use style="fill:#666666;stroke:#666666;" x="215.99314" xlink:href="#m9d6b95e23c" y="227.93981"/>
     <use style="fill:#666666;stroke:#666666;" x="216.883474" xlink:href="#m9d6b95e23c" y="228.091382"/>
     <use style="fill:#666666;stroke:#666666;" x="217.773808" xlink:href="#m9d6b95e23c" y="221.233471"/>
     <use style="fill:#666666;stroke:#666666;" x="218.664143" xlink:href="#m9d6b95e23c" y="205.001854"/>
     <use style="fill:#666666;stroke:#666666;" x="219.554477" xlink:href="#m9d6b95e23c" y="182.661169"/>
     <use style="fill:#666666;stroke:#666666;" x="220.444811" xlink:href="#m9d6b95e23c" y="224.985037"/>
     <use style="fill:#666666;stroke:#666666;" x="221.335145" xlink:href="#m9d6b95e23c" y="238.289054"/>
     <use style="fill:#666666;stroke:#666666;" x="222.225479" xlink:href="#m9d6b95e23c" y="248.929908"/>
     <use style="fill:#666666;stroke:#666666;" x="223.115813" xlink:href="#m9d6b95e23c" y="256.407988"/>
     <use style="fill:#666666;stroke:#666666;" x="224.006147" xlink:href="#m9d6b95e23c" y="223.01156"/>
     <use style="fill:#666666;stroke:#666666;" x="224.896481" xlink:href="#m9d6b95e23c" y="242.954067"/>
     <use style="fill:#666666;stroke:#666666;" x="225.786815" xlink:href="#m9d6b95e23c" y="232.073861"/>
     <use style="fill:#666666;stroke:#666666;" x="226.677149" xlink:href="#m9d6b95e23c" y="250.725056"/>
     <use style="fill:#666666;stroke:#666666;" x="227.567483" xlink:href="#m9d6b95e23c" y="239.17362"/>
     <use style="fill:#666666;stroke:#666666;" x="228.457817" xlink:href="#m9d6b95e23c" y="196.926212"/>
     <use style="fill:#666666;stroke:#666666;" x="229.348151" xlink:href="#m9d6b95e23c" y="160.370106"/>
     <use style="fill:#666666;stroke:#666666;" x="230.238486" xlink:href="#m9d6b95e23c" y="187.471326"/>
     <use style="fill:#666666;stroke:#666666;" x="231.12882" xlink:href="#m9d6b95e23c" y="213.026458"/>
     <use style="fill:#666666;stroke:#666666;" x="232.019154" xlink:href="#m9d6b95e23c" y="227.244304"/>
     <use style="fill:#666666;stroke:#666666;" x="232.909488" xlink:href="#m9d6b95e23c" y="227.924849"/>
     <use style="fill:#666666;stroke:#666666;" x="233.799822" xlink:href="#m9d6b95e23c" y="255.231512"/>
     <use style="fill:#666666;stroke:#666666;" x="234.690156" xlink:href="#m9d6b95e23c" y="266.476668"/>
     <use style="fill:#666666;stroke:#666666;" x="235.58049" xlink:href="#m9d6b95e23c" y="271.898247"/>
     <use style="fill:#666666;stroke:#666666;" x="236.470824" xlink:href="#m9d6b95e23c" y="258.373083"/>
     <use style="fill:#666666;stroke:#666666;" x="237.361158" xlink:href="#m9d6b95e23c" y="240.140512"/>
     <use style="fill:#666666;stroke:#666666;" x="238.251492" xlink:href="#m9d6b95e23c" y="217.066429"/>
     <use style="fill:#666666;stroke:#666666;" x="239.141826" xlink:href="#m9d6b95e23c" y="181.856243"/>
     <use style="fill:#666666;stroke:#666666;" x="240.03216" xlink:href="#m9d6b95e23c" y="150.597995"/>
     <use style="fill:#666666;stroke:#666666;" x="240.922494" xlink:href="#m9d6b95e23c" y="124.417922"/>
     <use style="fill:#666666;stroke:#666666;" x="241.812829" xlink:href="#m9d6b95e23c" y="184.69867"/>
     <use style="fill:#666666;stroke:#666666;" x="242.703163" xlink:href="#m9d6b95e23c" y="208.840482"/>
     <use style="fill:#666666;stroke:#666666;" x="243.593497" xlink:href="#m9d6b95e23c" y="228.748617"/>
     <use style="fill:#666666;stroke:#666666;" x="244.483831" xlink:href="#m9d6b95e23c" y="243.954534"/>
     <use style="fill:#666666;stroke:#666666;" x="245.374165" xlink:href="#m9d6b95e23c" y="242.84034"/>
     <use style="fill:#666666;stroke:#666666;" x="246.264499" xlink:href="#m9d6b95e23c" y="262.572306"/>
     <use style="fill:#666666;stroke:#666666;" x="247.154833" xlink:href="#m9d6b95e23c" y="261.076463"/>
     <use style="fill:#666666;stroke:#666666;" x="248.045167" xlink:href="#m9d6b95e23c" y="255.591524"/>
     <use style="fill:#666666;stroke:#666666;" x="248.935501" xlink:href="#m9d6b95e23c" y="254.700074"/>
     <use style="fill:#666666;stroke:#666666;" x="249.825835" xlink:href="#m9d6b95e23c" y="256.556791"/>
     <use style="fill:#666666;stroke:#666666;" x="250.716169" xlink:href="#m9d6b95e23c" y="254.756454"/>
     <use style="fill:#666666;stroke:#666666;" x="251.606503" xlink:href="#m9d6b95e23c" y="255.236661"/>
     <use style="fill:#666666;stroke:#666666;" x="252.496837" xlink:href="#m9d6b95e23c" y="253.93928"/>
     <use style="fill:#666666;stroke:#666666;" x="253.387171" xlink:href="#m9d6b95e23c" y="250.592488"/>
     <use style="fill:#666666;stroke:#666666;" x="254.277506" xlink:href="#m9d6b95e23c" y="213.988571"/>
     <use style="fill:#666666;stroke:#666666;" x="255.16784" xlink:href="#m9d6b95e23c" y="230.431126"/>
     <use style="fill:#666666;stroke:#666666;" x="256.058174" xlink:href="#m9d6b95e23c" y="211.024012"/>
     <use style="fill:#666666;stroke:#666666;" x="256.948508" xlink:href="#m9d6b95e23c" y="208.706975"/>
     <use style="fill:#666666;stroke:#666666;" x="257.838842" xlink:href="#m9d6b95e23c" y="197.468663"/>
     <use style="fill:#666666;stroke:#666666;" x="258.729176" xlink:href="#m9d6b95e23c" y="231.684152"/>
     <use style="fill:#666666;stroke:#666666;" x="259.61951" xlink:href="#m9d6b95e23c" y="236.834924"/>
     <use style="fill:#666666;stroke:#666666;" x="260.509844" xlink:href="#m9d6b95e23c" y="235.535876"/>
     <use style="fill:#666666;stroke:#666666;" x="261.400178" xlink:href="#m9d6b95e23c" y="245.437407"/>
     <use style="fill:#666666;stroke:#666666;" x="262.290512" xlink:href="#m9d6b95e23c" y="257.867905"/>
     <use style="fill:#666666;stroke:#666666;" x="263.180846" xlink:href="#m9d6b95e23c" y="273.063795"/>
     <use style="fill:#666666;stroke:#666666;" x="264.07118" xlink:href="#m9d6b95e23c" y="271.340844"/>
     <use style="fill:#666666;stroke:#666666;" x="264.961514" xlink:href="#m9d6b95e23c" y="264.602096"/>
     <use style="fill:#666666;stroke:#666666;" x="265.851849" xlink:href="#m9d6b95e23c" y="264.522288"/>
     <use style="fill:#666666;stroke:#666666;" x="266.742183" xlink:href="#m9d6b95e23c" y="233.424075"/>
     <use style="fill:#666666;stroke:#666666;" x="267.632517" xlink:href="#m9d6b95e23c" y="163.386951"/>
     <use style="fill:#666666;stroke:#666666;" x="268.522851" xlink:href="#m9d6b95e23c" y="125.445906"/>
     <use style="fill:#666666;stroke:#666666;" x="269.413185" xlink:href="#m9d6b95e23c" y="195.876266"/>
     <use style="fill:#666666;stroke:#666666;" x="270.303519" xlink:href="#m9d6b95e23c" y="251.713647"/>
     <use style="fill:#666666;stroke:#666666;" x="271.193853" xlink:href="#m9d6b95e23c" y="263.06797"/>
     <use style="fill:#666666;stroke:#666666;" x="272.084187" xlink:href="#m9d6b95e23c" y="269.846367"/>
     <use style="fill:#666666;stroke:#666666;" x="272.974521" xlink:href="#m9d6b95e23c" y="272.694869"/>
     <use style="fill:#666666;stroke:#666666;" x="273.864855" xlink:href="#m9d6b95e23c" y="265.885854"/>
     <use style="fill:#666666;stroke:#666666;" x="274.755189" xlink:href="#m9d6b95e23c" y="258.514209"/>
     <use style="fill:#666666;stroke:#666666;" x="275.645523" xlink:href="#m9d6b95e23c" y="254.988422"/>
     <use style="fill:#666666;stroke:#666666;" x="276.535857" xlink:href="#m9d6b95e23c" y="219.806591"/>
     <use style="fill:#666666;stroke:#666666;" x="277.426192" xlink:href="#m9d6b95e23c" y="163.545611"/>
     <use style="fill:#666666;stroke:#666666;" x="278.316526" xlink:href="#m9d6b95e23c" y="177.560408"/>
     <use style="fill:#666666;stroke:#666666;" x="279.20686" xlink:href="#m9d6b95e23c" y="242.952283"/>
     <use style="fill:#666666;stroke:#666666;" x="280.097194" xlink:href="#m9d6b95e23c" y="256.207674"/>
     <use style="fill:#666666;stroke:#666666;" x="280.987528" xlink:href="#m9d6b95e23c" y="254.339198"/>
     <use style="fill:#666666;stroke:#666666;" x="281.877862" xlink:href="#m9d6b95e23c" y="253.672405"/>
     <use style="fill:#666666;stroke:#666666;" x="282.768196" xlink:href="#m9d6b95e23c" y="239.826112"/>
     <use style="fill:#666666;stroke:#666666;" x="283.65853" xlink:href="#m9d6b95e23c" y="243.489484"/>
     <use style="fill:#666666;stroke:#666666;" x="284.548864" xlink:href="#m9d6b95e23c" y="235.973347"/>
     <use style="fill:#666666;stroke:#666666;" x="285.439198" xlink:href="#m9d6b95e23c" y="230.938028"/>
     <use style="fill:#666666;stroke:#666666;" x="286.329532" xlink:href="#m9d6b95e23c" y="213.719662"/>
     <use style="fill:#666666;stroke:#666666;" x="287.219866" xlink:href="#m9d6b95e23c" y="205.782543"/>
     <use style="fill:#666666;stroke:#666666;" x="288.1102" xlink:href="#m9d6b95e23c" y="203.056815"/>
     <use style="fill:#666666;stroke:#666666;" x="289.000535" xlink:href="#m9d6b95e23c" y="217.384449"/>
     <use style="fill:#666666;stroke:#666666;" x="289.890869" xlink:href="#m9d6b95e23c" y="212.397716"/>
     <use style="fill:#666666;stroke:#666666;" x="290.781203" xlink:href="#m9d6b95e23c" y="205.55399"/>
     <use style="fill:#666666;stroke:#666666;" x="291.671537" xlink:href="#m9d6b95e23c" y="215.978404"/>
     <use style="fill:#666666;stroke:#666666;" x="292.561871" xlink:href="#m9d6b95e23c" y="238.948499"/>
     <use style="fill:#666666;stroke:#666666;" x="293.452205" xlink:href="#m9d6b95e23c" y="258.910547"/>
     <use style="fill:#666666;stroke:#666666;" x="294.342539" xlink:href="#m9d6b95e23c" y="257.026188"/>
     <use style="fill:#666666;stroke:#666666;" x="295.232873" xlink:href="#m9d6b95e23c" y="274.181556"/>
     <use style="fill:#666666;stroke:#666666;" x="296.123207" xlink:href="#m9d6b95e23c" y="274.336828"/>
     <use style="fill:#666666;stroke:#666666;" x="297.013541" xlink:href="#m9d6b95e23c" y="274.443518"/>
     <use style="fill:#666666;stroke:#666666;" x="297.903875" xlink:href="#m9d6b95e23c" y="274.41123"/>
     <use style="fill:#666666;stroke:#666666;" x="298.794209" xlink:href="#m9d6b95e23c" y="272.361722"/>
     <use style="fill:#666666;stroke:#666666;" x="299.684543" xlink:href="#m9d6b95e23c" y="272.440213"/>
     <use style="fill:#666666;stroke:#666666;" x="300.574878" xlink:href="#m9d6b95e23c" y="268.990705"/>
     <use style="fill:#666666;stroke:#666666;" x="301.465212" xlink:href="#m9d6b95e23c" y="262.873453"/>
     <use style="fill:#666666;stroke:#666666;" x="302.355546" xlink:href="#m9d6b95e23c" y="259.3202"/>
     <use style="fill:#666666;stroke:#666666;" x="303.24588" xlink:href="#m9d6b95e23c" y="247.216702"/>
     <use style="fill:#666666;stroke:#666666;" x="304.136214" xlink:href="#m9d6b95e23c" y="262.507147"/>
     <use style="fill:#666666;stroke:#666666;" x="305.026548" xlink:href="#m9d6b95e23c" y="250.558934"/>
     <use style="fill:#666666;stroke:#666666;" x="305.916882" xlink:href="#m9d6b95e23c" y="274.706215"/>
     <use style="fill:#666666;stroke:#666666;" x="306.807216" xlink:href="#m9d6b95e23c" y="274.424877"/>
     <use style="fill:#666666;stroke:#666666;" x="307.69755" xlink:href="#m9d6b95e23c" y="274.096667"/>
     <use style="fill:#666666;stroke:#666666;" x="308.587884" xlink:href="#m9d6b95e23c" y="258.940225"/>
     <use style="fill:#666666;stroke:#666666;" x="309.478218" xlink:href="#m9d6b95e23c" y="268.857298"/>
     <use style="fill:#666666;stroke:#666666;" x="310.368552" xlink:href="#m9d6b95e23c" y="270.249842"/>
     <use style="fill:#666666;stroke:#666666;" x="311.258886" xlink:href="#m9d6b95e23c" y="255.741475"/>
     <use style="fill:#666666;stroke:#666666;" x="312.14922" xlink:href="#m9d6b95e23c" y="252.0793"/>
     <use style="fill:#666666;stroke:#666666;" x="313.039555" xlink:href="#m9d6b95e23c" y="243.357368"/>
     <use style="fill:#666666;stroke:#666666;" x="313.929889" xlink:href="#m9d6b95e23c" y="225.096968"/>
     <use style="fill:#666666;stroke:#666666;" x="314.820223" xlink:href="#m9d6b95e23c" y="239.24987"/>
     <use style="fill:#666666;stroke:#666666;" x="315.710557" xlink:href="#m9d6b95e23c" y="258.39923"/>
     <use style="fill:#666666;stroke:#666666;" x="316.600891" xlink:href="#m9d6b95e23c" y="269.187861"/>
     <use style="fill:#666666;stroke:#666666;" x="317.491225" xlink:href="#m9d6b95e23c" y="274.340531"/>
     <use style="fill:#666666;stroke:#666666;" x="318.381559" xlink:href="#m9d6b95e23c" y="273.873292"/>
     <use style="fill:#666666;stroke:#666666;" x="319.271893" xlink:href="#m9d6b95e23c" y="274.606931"/>
     <use style="fill:#666666;stroke:#666666;" x="320.162227" xlink:href="#m9d6b95e23c" y="263.566422"/>
     <use style="fill:#666666;stroke:#666666;" x="321.052561" xlink:href="#m9d6b95e23c" y="235.53111"/>
     <use style="fill:#666666;stroke:#666666;" x="321.942895" xlink:href="#m9d6b95e23c" y="257.606387"/>
     <use style="fill:#666666;stroke:#666666;" x="322.833229" xlink:href="#m9d6b95e23c" y="260.94878"/>
     <use style="fill:#666666;stroke:#666666;" x="323.723563" xlink:href="#m9d6b95e23c" y="249.682047"/>
     <use style="fill:#666666;stroke:#666666;" x="324.613898" xlink:href="#m9d6b95e23c" y="176.29082"/>
     <use style="fill:#666666;stroke:#666666;" x="325.504232" xlink:href="#m9d6b95e23c" y="206.897076"/>
     <use style="fill:#666666;stroke:#666666;" x="326.394566" xlink:href="#m9d6b95e23c" y="206.312781"/>
     <use style="fill:#666666;stroke:#666666;" x="327.2849" xlink:href="#m9d6b95e23c" y="209.193435"/>
     <use style="fill:#666666;stroke:#666666;" x="328.175234" xlink:href="#m9d6b95e23c" y="210.83923"/>
     <use style="fill:#666666;stroke:#666666;" x="329.065568" xlink:href="#m9d6b95e23c" y="253.248089"/>
     <use style="fill:#666666;stroke:#666666;" x="329.955902" xlink:href="#m9d6b95e23c" y="256.813857"/>
     <use style="fill:#666666;stroke:#666666;" x="330.846236" xlink:href="#m9d6b95e23c" y="256.626774"/>
     <use style="fill:#666666;stroke:#666666;" x="331.73657" xlink:href="#m9d6b95e23c" y="239.804014"/>
     <use style="fill:#666666;stroke:#666666;" x="332.626904" xlink:href="#m9d6b95e23c" y="246.503508"/>
     <use style="fill:#666666;stroke:#666666;" x="333.517238" xlink:href="#m9d6b95e23c" y="230.770337"/>
     <use style="fill:#666666;stroke:#666666;" x="334.407572" xlink:href="#m9d6b95e23c" y="224.178187"/>
     <use style="fill:#666666;stroke:#666666;" x="335.297906" xlink:href="#m9d6b95e23c" y="236.995833"/>
     <use style="fill:#666666;stroke:#666666;" x="336.188241" xlink:href="#m9d6b95e23c" y="245.976759"/>
     <use style="fill:#666666;stroke:#666666;" x="337.078575" xlink:href="#m9d6b95e23c" y="238.285756"/>
     <use style="fill:#666666;stroke:#666666;" x="337.968909" xlink:href="#m9d6b95e23c" y="226.511148"/>
     <use style="fill:#666666;stroke:#666666;" x="338.859243" xlink:href="#m9d6b95e23c" y="217.010307"/>
     <use style="fill:#666666;stroke:#666666;" x="339.749577" xlink:href="#m9d6b95e23c" y="218.844196"/>
     <use style="fill:#666666;stroke:#666666;" x="340.639911" xlink:href="#m9d6b95e23c" y="189.923238"/>
     <use style="fill:#666666;stroke:#666666;" x="341.530245" xlink:href="#m9d6b95e23c" y="182.216882"/>
     <use style="fill:#666666;stroke:#666666;" x="342.420579" xlink:href="#m9d6b95e23c" y="188.550798"/>
     <use style="fill:#666666;stroke:#666666;" x="343.310913" xlink:href="#m9d6b95e23c" y="191.634098"/>
     <use style="fill:#666666;stroke:#666666;" x="344.201247" xlink:href="#m9d6b95e23c" y="178.335354"/>
     <use style="fill:#666666;stroke:#666666;" x="345.091581" xlink:href="#m9d6b95e23c" y="184.558417"/>
     <use style="fill:#666666;stroke:#666666;" x="345.981915" xlink:href="#m9d6b95e23c" y="180.97535"/>
     <use style="fill:#666666;stroke:#666666;" x="346.872249" xlink:href="#m9d6b95e23c" y="175.640009"/>
     <use style="fill:#666666;stroke:#666666;" x="347.762584" xlink:href="#m9d6b95e23c" y="149.33458"/>
     <use style="fill:#666666;stroke:#666666;" x="348.652918" xlink:href="#m9d6b95e23c" y="137.859888"/>
     <use style="fill:#666666;stroke:#666666;" x="349.543252" xlink:href="#m9d6b95e23c" y="149.456967"/>
     <use style="fill:#666666;stroke:#666666;" x="350.433586" xlink:href="#m9d6b95e23c" y="183.182918"/>
     <use style="fill:#666666;stroke:#666666;" x="351.32392" xlink:href="#m9d6b95e23c" y="258.773339"/>
     <use style="fill:#666666;stroke:#666666;" x="352.214254" xlink:href="#m9d6b95e23c" y="250.786091"/>
     <use style="fill:#666666;stroke:#666666;" x="353.104588" xlink:href="#m9d6b95e23c" y="269.06696"/>
     <use style="fill:#666666;stroke:#666666;" x="353.994922" xlink:href="#m9d6b95e23c" y="271.639003"/>
     <use style="fill:#666666;stroke:#666666;" x="354.885256" xlink:href="#m9d6b95e23c" y="262.734545"/>
     <use style="fill:#666666;stroke:#666666;" x="355.77559" xlink:href="#m9d6b95e23c" y="244.433348"/>
     <use style="fill:#666666;stroke:#666666;" x="356.665924" xlink:href="#m9d6b95e23c" y="226.020752"/>
     <use style="fill:#666666;stroke:#666666;" x="357.556258" xlink:href="#m9d6b95e23c" y="236.861892"/>
     <use style="fill:#666666;stroke:#666666;" x="358.446592" xlink:href="#m9d6b95e23c" y="236.139661"/>
     <use style="fill:#666666;stroke:#666666;" x="359.336927" xlink:href="#m9d6b95e23c" y="229.098008"/>
     <use style="fill:#666666;stroke:#666666;" x="360.227261" xlink:href="#m9d6b95e23c" y="211.719482"/>
     <use style="fill:#666666;stroke:#666666;" x="361.117595" xlink:href="#m9d6b95e23c" y="190.385572"/>
     <use style="fill:#666666;stroke:#666666;" x="362.007929" xlink:href="#m9d6b95e23c" y="173.935799"/>
     <use style="fill:#666666;stroke:#666666;" x="362.898263" xlink:href="#m9d6b95e23c" y="157.684604"/>
     <use style="fill:#666666;stroke:#666666;" x="363.788597" xlink:href="#m9d6b95e23c" y="211.295161"/>
     <use style="fill:#666666;stroke:#666666;" x="364.678931" xlink:href="#m9d6b95e23c" y="218.718543"/>
     <use style="fill:#666666;stroke:#666666;" x="365.569265" xlink:href="#m9d6b95e23c" y="244.382191"/>
     <use style="fill:#666666;stroke:#666666;" x="366.459599" xlink:href="#m9d6b95e23c" y="243.795299"/>
     <use style="fill:#666666;stroke:#666666;" x="367.349933" xlink:href="#m9d6b95e23c" y="238.9843"/>
     <use style="fill:#666666;stroke:#666666;" x="368.240267" xlink:href="#m9d6b95e23c" y="253.262823"/>
     <use style="fill:#666666;stroke:#666666;" x="369.130601" xlink:href="#m9d6b95e23c" y="260.783509"/>
     <use style="fill:#666666;stroke:#666666;" x="370.020935" xlink:href="#m9d6b95e23c" y="258.6845"/>
     <use style="fill:#666666;stroke:#666666;" x="370.911269" xlink:href="#m9d6b95e23c" y="272.491279"/>
     <use style="fill:#666666;stroke:#666666;" x="371.801604" xlink:href="#m9d6b95e23c" y="274.734251"/>
     <use style="fill:#666666;stroke:#666666;" x="372.691938" xlink:href="#m9d6b95e23c" y="260.390779"/>
     <use style="fill:#666666;stroke:#666666;" x="373.582272" xlink:href="#m9d6b95e23c" y="272.368926"/>
     <use style="fill:#666666;stroke:#666666;" x="374.472606" xlink:href="#m9d6b95e23c" y="274.251342"/>
     <use style="fill:#666666;stroke:#666666;" x="375.36294" xlink:href="#m9d6b95e23c" y="267.918133"/>
     <use style="fill:#666666;stroke:#666666;" x="376.253274" xlink:href="#m9d6b95e23c" y="273.111697"/>
     <use style="fill:#666666;stroke:#666666;" x="377.143608" xlink:href="#m9d6b95e23c" y="275.128916"/>
     <use style="fill:#666666;stroke:#666666;" x="378.033942" xlink:href="#m9d6b95e23c" y="275.323636"/>
     <use style="fill:#666666;stroke:#666666;" x="378.924276" xlink:href="#m9d6b95e23c" y="266.071303"/>
     <use style="fill:#666666;stroke:#666666;" x="379.81461" xlink:href="#m9d6b95e23c" y="237.260783"/>
     <use style="fill:#666666;stroke:#666666;" x="380.704944" xlink:href="#m9d6b95e23c" y="161.142534"/>
     <use style="fill:#666666;stroke:#666666;" x="381.595278" xlink:href="#m9d6b95e23c" y="163.731649"/>
     <use style="fill:#666666;stroke:#666666;" x="382.485612" xlink:href="#m9d6b95e23c" y="123.109201"/>
     <use style="fill:#666666;stroke:#666666;" x="383.375947" xlink:href="#m9d6b95e23c" y="195.721718"/>
     <use style="fill:#666666;stroke:#666666;" x="384.266281" xlink:href="#m9d6b95e23c" y="119.060004"/>
     <use style="fill:#666666;stroke:#666666;" x="385.156615" xlink:href="#m9d6b95e23c" y="145.335596"/>
     <use style="fill:#666666;stroke:#666666;" x="386.046949" xlink:href="#m9d6b95e23c" y="74.971009"/>
     <use style="fill:#666666;stroke:#666666;" x="386.937283" xlink:href="#m9d6b95e23c" y="94.109861"/>
     <use style="fill:#666666;stroke:#666666;" x="387.827617" xlink:href="#m9d6b95e23c" y="143.88483"/>
     <use style="fill:#666666;stroke:#666666;" x="388.717951" xlink:href="#m9d6b95e23c" y="180.405139"/>
     <use style="fill:#666666;stroke:#666666;" x="389.608285" xlink:href="#m9d6b95e23c" y="212.356804"/>
     <use style="fill:#666666;stroke:#666666;" x="390.498619" xlink:href="#m9d6b95e23c" y="217.553951"/>
     <use style="fill:#666666;stroke:#666666;" x="391.388953" xlink:href="#m9d6b95e23c" y="231.63803"/>
     <use style="fill:#666666;stroke:#666666;" x="392.279287" xlink:href="#m9d6b95e23c" y="231.466747"/>
     <use style="fill:#666666;stroke:#666666;" x="393.169621" xlink:href="#m9d6b95e23c" y="224.889565"/>
     <use style="fill:#666666;stroke:#666666;" x="394.059955" xlink:href="#m9d6b95e23c" y="230.771437"/>
     <use style="fill:#666666;stroke:#666666;" x="394.95029" xlink:href="#m9d6b95e23c" y="220.591871"/>
     <use style="fill:#666666;stroke:#666666;" x="395.840624" xlink:href="#m9d6b95e23c" y="232.069902"/>
     <use style="fill:#666666;stroke:#666666;" x="396.730958" xlink:href="#m9d6b95e23c" y="225.44442"/>
     <use style="fill:#666666;stroke:#666666;" x="397.621292" xlink:href="#m9d6b95e23c" y="205.995379"/>
     <use style="fill:#666666;stroke:#666666;" x="398.511626" xlink:href="#m9d6b95e23c" y="197.094169"/>
     <use style="fill:#666666;stroke:#666666;" x="399.40196" xlink:href="#m9d6b95e23c" y="206.215134"/>
     <use style="fill:#666666;stroke:#666666;" x="400.292294" xlink:href="#m9d6b95e23c" y="170.410835"/>
     <use style="fill:#666666;stroke:#666666;" x="401.182628" xlink:href="#m9d6b95e23c" y="182.58461"/>
     <use style="fill:#666666;stroke:#666666;" x="402.072962" xlink:href="#m9d6b95e23c" y="116.236941"/>
     <use style="fill:#666666;stroke:#666666;" x="402.963296" xlink:href="#m9d6b95e23c" y="156.09892"/>
     <use style="fill:#666666;stroke:#666666;" x="403.85363" xlink:href="#m9d6b95e23c" y="105.797296"/>
     <use style="fill:#666666;stroke:#666666;" x="404.743964" xlink:href="#m9d6b95e23c" y="131.215007"/>
     <use style="fill:#666666;stroke:#666666;" x="405.634298" xlink:href="#m9d6b95e23c" y="227.372277"/>
     <use style="fill:#666666;stroke:#666666;" x="406.524633" xlink:href="#m9d6b95e23c" y="210.321633"/>
     <use style="fill:#666666;stroke:#666666;" x="407.414967" xlink:href="#m9d6b95e23c" y="198.36174"/>
     <use style="fill:#666666;stroke:#666666;" x="408.305301" xlink:href="#m9d6b95e23c" y="206.420246"/>
     <use style="fill:#666666;stroke:#666666;" x="409.195635" xlink:href="#m9d6b95e23c" y="202.988764"/>
     <use style="fill:#666666;stroke:#666666;" x="410.085969" xlink:href="#m9d6b95e23c" y="221.023222"/>
     <use style="fill:#666666;stroke:#666666;" x="410.976303" xlink:href="#m9d6b95e23c" y="233.195087"/>
     <use style="fill:#666666;stroke:#666666;" x="411.866637" xlink:href="#m9d6b95e23c" y="241.196458"/>
     <use style="fill:#666666;stroke:#666666;" x="412.756971" xlink:href="#m9d6b95e23c" y="254.735778"/>
     <use style="fill:#666666;stroke:#666666;" x="413.647305" xlink:href="#m9d6b95e23c" y="259.440663"/>
     <use style="fill:#666666;stroke:#666666;" x="414.537639" xlink:href="#m9d6b95e23c" y="252.983739"/>
     <use style="fill:#666666;stroke:#666666;" x="415.427973" xlink:href="#m9d6b95e23c" y="255.409438"/>
     <use style="fill:#666666;stroke:#666666;" x="416.318307" xlink:href="#m9d6b95e23c" y="264.258658"/>
     <use style="fill:#666666;stroke:#666666;" x="417.208641" xlink:href="#m9d6b95e23c" y="256.260304"/>
     <use style="fill:#666666;stroke:#666666;" x="418.098976" xlink:href="#m9d6b95e23c" y="233.084727"/>
     <use style="fill:#666666;stroke:#666666;" x="418.98931" xlink:href="#m9d6b95e23c" y="207.422395"/>
     <use style="fill:#666666;stroke:#666666;" x="419.879644" xlink:href="#m9d6b95e23c" y="177.448772"/>
     <use style="fill:#666666;stroke:#666666;" x="420.769978" xlink:href="#m9d6b95e23c" y="163.821445"/>
     <use style="fill:#666666;stroke:#666666;" x="421.660312" xlink:href="#m9d6b95e23c" y="187.635609"/>
     <use style="fill:#666666;stroke:#666666;" x="422.550646" xlink:href="#m9d6b95e23c" y="146.517485"/>
     <use style="fill:#666666;stroke:#666666;" x="423.44098" xlink:href="#m9d6b95e23c" y="197.638299"/>
     <use style="fill:#666666;stroke:#666666;" x="424.331314" xlink:href="#m9d6b95e23c" y="212.790018"/>
     <use style="fill:#666666;stroke:#666666;" x="425.221648" xlink:href="#m9d6b95e23c" y="273.605071"/>
     <use style="fill:#666666;stroke:#666666;" x="426.111982" xlink:href="#m9d6b95e23c" y="274.304391"/>
     <use style="fill:#666666;stroke:#666666;" x="427.002316" xlink:href="#m9d6b95e23c" y="274.244654"/>
     <use style="fill:#666666;stroke:#666666;" x="427.89265" xlink:href="#m9d6b95e23c" y="274.30825"/>
     <use style="fill:#666666;stroke:#666666;" x="428.782984" xlink:href="#m9d6b95e23c" y="261.870176"/>
     <use style="fill:#666666;stroke:#666666;" x="429.673318" xlink:href="#m9d6b95e23c" y="256.202163"/>
     <use style="fill:#666666;stroke:#666666;" x="430.563653" xlink:href="#m9d6b95e23c" y="263.97341"/>
     <use style="fill:#666666;stroke:#666666;" x="431.453987" xlink:href="#m9d6b95e23c" y="239.392043"/>
     <use style="fill:#666666;stroke:#666666;" x="432.344321" xlink:href="#m9d6b95e23c" y="249.459202"/>
     <use style="fill:#666666;stroke:#666666;" x="433.234655" xlink:href="#m9d6b95e23c" y="254.824586"/>
     <use style="fill:#666666;stroke:#666666;" x="434.124989" xlink:href="#m9d6b95e23c" y="237.095395"/>
     <use style="fill:#666666;stroke:#666666;" x="435.015323" xlink:href="#m9d6b95e23c" y="224.757278"/>
     <use style="fill:#666666;stroke:#666666;" x="435.905657" xlink:href="#m9d6b95e23c" y="235.459924"/>
     <use style="fill:#666666;stroke:#666666;" x="436.795991" xlink:href="#m9d6b95e23c" y="216.841627"/>
     <use style="fill:#666666;stroke:#666666;" x="437.686325" xlink:href="#m9d6b95e23c" y="121.805329"/>
     <use style="fill:#666666;stroke:#666666;" x="438.576659" xlink:href="#m9d6b95e23c" y="176.188579"/>
     <use style="fill:#666666;stroke:#666666;" x="439.466993" xlink:href="#m9d6b95e23c" y="195.774434"/>
     <use style="fill:#666666;stroke:#666666;" x="440.357327" xlink:href="#m9d6b95e23c" y="189.303091"/>
     <use style="fill:#666666;stroke:#666666;" x="441.247661" xlink:href="#m9d6b95e23c" y="205.252395"/>
     <use style="fill:#666666;stroke:#666666;" x="442.137996" xlink:href="#m9d6b95e23c" y="239.60363"/>
     <use style="fill:#666666;stroke:#666666;" x="443.02833" xlink:href="#m9d6b95e23c" y="220.419154"/>
     <use style="fill:#666666;stroke:#666666;" x="443.918664" xlink:href="#m9d6b95e23c" y="211.022301"/>
     <use style="fill:#666666;stroke:#666666;" x="444.808998" xlink:href="#m9d6b95e23c" y="173.185271"/>
     <use style="fill:#666666;stroke:#666666;" x="445.699332" xlink:href="#m9d6b95e23c" y="196.339133"/>
     <use style="fill:#666666;stroke:#666666;" x="446.589666" xlink:href="#m9d6b95e23c" y="162.697307"/>
     <use style="fill:#666666;stroke:#666666;" x="447.48" xlink:href="#m9d6b95e23c" y="144.630805"/>
    </g>
   </g>
   <g id="patch_3">
    <path d="M 47.72 287.8 
L 47.72 13.32 
" style="fill:none;stroke:#000000;stroke-linecap:square;stroke-linejoin:miter;stroke-width:0.8;"/>
   </g>
   <g id="patch_4">
    <path d="M 447.48 287.8 
L 447.48 13.32 
" style="fill:none;stroke:#000000;stroke-linecap:square;stroke-linejoin:miter;stroke-width:0.8;"/>
   </g>
   <g id="patch_5">
    <path d="M 47.72 287.8 
L 447.48 287.8 
" style="fill:none;stroke:#000000;stroke-linecap:square;stroke-linejoin:miter;stroke-width:0.8;"/>
   </g>
   <g id="patch_6">
    <path d="M 47.72 13.32 
L 447.48 13.32 
" style="fill:none;stroke:#000000;stroke-linecap:square;stroke-linejoin:miter;stroke-width:0.8;"/>
   </g>
  </g>
 </g>
 <defs>
  <clipPath id="p1dd5a2dde1">
   <rect height="274.48" width="399.76" x="47.72" y="13.32"/>
  </clipPath>
 </defs>
</svg>
